<?xml version="1.0" encoding="utf-8"?>
<!-- Generator: Adobe Illustrator 16.0.0, SVG Export Plug-In . SVG Version: 6.00 Build 0)  -->
<!DOCTYPE svg PUBLIC "-//W3C//DTD SVG 1.1//EN" "http://www.w3.org/Graphics/SVG/1.1/DTD/svg11.dtd">
<svg version="1.1" id="Capa_1" xmlns="http://www.w3.org/2000/svg" xmlns:xlink="http://www.w3.org/1999/xlink" x="0px" y="0px"
	 width="120px" height="50px" viewBox="0 0 120 50" enable-background="new 0 0 120 50" xml:space="preserve">
<g>
	<g>
		<defs>
			<rect id="SVGID_14_" x="1912" y="2185" width="204" height="198"/>
		</defs>
		<clipPath id="SVGID_1_">
			<use xlink:href="#SVGID_14_"  overflow="visible"/>
		</clipPath>
		<g clip-path="url(#SVGID_1_)">
			<defs>
				<rect id="SVGID_19_" x="1003" y="-456" width="680" height="399"/>
			</defs>
			<clipPath id="SVGID_3_">
				<use xlink:href="#SVGID_19_"  overflow="visible"/>
			</clipPath>
			<g clip-path="url(#SVGID_3_)">
				
					<image overflow="visible" width="1200" height="800" xlink:href="../Downloads/_HOT8510.jpg"  transform="matrix(-1.1938 0 0 0.5694 1033.0552 -449.7432)">
				</image>
			</g>
		</g>
	</g>
</g>
<g>
	<g>
		<rect x="2.124" y="4.781" fill="#DFE0E1" width="10.684" height="39.771"/>
		<g>
			<path fill="#FFFFFF" d="M58.396,14.594c-0.911,0-1.775,0.938-1.653,1.85l2.816-1.177C59.384,14.9,58.97,14.594,58.396,14.594z"/>
			<path fill="#FFFFFF" d="M48.672,14.625c-0.887,0-1.759,0.721-1.759,1.928c0,1.161,0.839,1.893,1.74,1.893
				c0.85,0,1.698-0.677,1.698-1.905C50.351,15.333,49.5,14.625,48.672,14.625z"/>
			<path fill="#FFFFFF" d="M36.235,16.537c0-1.181-0.859-1.913-1.764-1.913c-1.019,0-1.801,0.814-1.801,1.903
				c0,1.114,0.792,1.917,1.795,1.917C35.38,18.444,36.235,17.691,36.235,16.537z"/>
			<path fill="#FFFFFF" d="M38.931,33.875c-0.273-0.074-0.549-0.129-0.83-0.162c-0.924-0.109-1.945,0.095-2.68,0.69
				c-0.2,0.163-0.375,0.358-0.514,0.579c-0.403,0.647-0.5,1.499,0.087,2.071c0.636,0.617,1.581,0.819,2.436,0.653
				c0.276-0.054,0.549-0.145,0.804-0.265c0.708-0.334,1.291-0.891,1.684-1.564c0.16-0.273,0.281-0.567,0.352-0.877
				c0.01-0.043,0.138-0.494,0.112-0.51C39.94,34.22,39.429,34.01,38.931,33.875z"/>
			<path fill="#FFFFFF" d="M41.566,14.625c-1.017,0-1.799,0.814-1.799,1.903c0,1.114,0.792,1.917,1.795,1.917
				c0.913,0,1.767-0.753,1.767-1.907C43.33,15.356,42.472,14.625,41.566,14.625z"/>
			<path fill="#FFFFFF" d="M12.807,4.781v39.771H118V4.781H12.807z M52.958,10.225h1.292v9.271h-1.292V10.225z M26.094,9.9
				c2.182,0,3.379,1.333,3.379,1.333l-0.933,0.964c0,0-0.89-0.961-2.399-0.961c-1.958,0-3.519,1.552-3.519,3.568
				c0,2.069,1.637,3.545,3.514,3.545c1.467,0,3.021-0.795,3.177-2.663h-3.222v-1.333h4.527v-0.001c0,0,0.081,0.324,0.081,0.884
				c0,2.653-1.917,4.448-4.537,4.448c-2.978,0-5.001-2.421-5.001-4.905C21.163,12.246,23.313,9.9,26.094,9.9z M31.71,27.93
				c-0.043,1.712-0.814,3.271-2.375,4.09c-1.825,0.96-4.008,0.69-5.999,0.69v6.471h-1.978V23.325l5.931,0.005
				C31.817,23.797,31.71,27.93,31.71,27.93z M31.291,16.508c0-1.679,1.32-3.118,3.162-3.118c1.514,0,3.156,1.072,3.156,3.156
				c0,1.816-1.412,3.134-3.135,3.134C32.572,19.68,31.291,18.211,31.291,16.508z M42.207,39.253h-1.995v-1.492
				c-1.187,1.923-3.612,1.869-3.612,1.869c-3.846-0.036-4.115-3.199-4.115-3.199c-0.359-3.774,4.223-4.307,4.223-4.307
				c1.744-0.246,3.541,0.677,3.541,0.677c0.291-3.01-2.688-3.145-2.688-3.145c-2.146-0.144-2.848,1.597-2.848,1.597l-1.797-0.86
				c-0.089-0.042,0.827-1.152,0.927-1.245c0.337-0.314,0.724-0.573,1.137-0.775c0.911-0.445,1.947-0.611,2.954-0.496
				c1.991,0.228,4.273,1.813,4.273,4.008C42.207,31.891,42.207,39.253,42.207,39.253z M41.569,19.68
				c-1.903,0-3.183-1.468-3.183-3.171c0-1.679,1.32-3.118,3.162-3.118c1.514,0,3.156,1.072,3.156,3.156
				C44.704,18.362,43.292,19.68,41.569,19.68z M50.627,29.942c-0.561-0.085-1.196-0.121-1.751,0.018
				c-0.731,0.186-1.303,0.557-1.763,1.149c-0.58,0.746-0.599,1.613-0.618,2.526c-0.024,1.158,0.007,2.321,0.007,3.48
				c0.001,0.688-0.001,1.376-0.001,2.065h-1.968V28.245h1.914v1.967c0.862-2.344,4.179-2.297,4.179-2.297V29.942L50.627,29.942z
				 M51.563,19.233c0,2.22-1.281,3.279-2.962,3.279c-1.537,0-2.4-0.946-2.828-1.853l1.209-0.504
				c0.167,0.405,0.648,1.119,1.609,1.119c0.995,0,1.654-0.649,1.654-1.734v-0.62c-0.353,0.407-0.83,0.763-1.727,0.763
				c-1.448,0-2.989-1.254-2.989-3.147c0-1.662,1.328-3.143,3.02-3.143c0.735,0,1.29,0.285,1.696,0.722v-0.61h1.318L51.563,19.233
				L51.563,19.233z M58.206,39.271c-0.321,0.032-0.646,0.041-0.968,0.016c-0.842-0.061-1.587-0.378-2.19-0.967
				c-0.996-0.972-0.864-2.372-0.857-3.636c0.004-0.969-0.001-1.938,0.004-2.905c0.002-0.564,0.002-1.128,0.002-1.691h-1.908v-1.905
				h1.904c0-0.746,0-1.49,0-2.234c-0.001-0.357,0-0.716,0-1.074h1.977v3.308h2.768v1.905H56.17v5.983
				c0.018,2.175,2.498,1.295,2.498,1.295l0.666,1.707C59.333,39.074,58.307,39.261,58.206,39.271z M58.494,19.681
				c-1.594,0-3.086-1.174-3.086-3.156c0-1.872,1.339-3.141,2.933-3.141l0,0c1.259,0,2.208,0.839,2.617,1.843l0.219,0.512
				l-4.217,1.75c0.252,0.469,0.658,0.954,1.542,0.954c0.788,0,1.259-0.428,1.541-0.866l1.087,0.722
				C60.642,18.954,59.825,19.681,58.494,19.681z M70.627,39.181h-1.995v-6.758c-0.188-2.912-2.533-2.792-2.533-2.792
				c-0.473,0.006-0.951,0.096-1.375,0.307c-1.55,0.766-1.698,2.374-1.692,3.919c0.008,1.774-0.007,3.549-0.007,5.324H60.95V28.218
				l2.022,0.006v1.584c1.482-2.049,3.452-1.895,3.452-1.895c0.572-0.006,1.174,0.062,1.712,0.266
				c1.648,0.618,2.491,2.247,2.491,3.95c0,0.672,0,1.342,0,2.013C70.627,34.529,70.627,39.181,70.627,39.181z M83.157,34.068h-8.673
				c0,2.222,1.383,3.735,3.45,3.735c1.358,0,2.545-0.774,3.203-1.934l1.58,0.751c-0.932,1.806-2.724,3.028-4.783,3.028
				c-3.016,0-5.462-2.627-5.462-5.868c0-3.241,2.446-5.867,5.462-5.867c3.262,0,5.23,2.626,5.23,5.867
				C83.164,33.877,83.162,33.974,83.157,34.068z M91.113,29.942c-0.56-0.085-1.196-0.121-1.749,0.018
				c-0.733,0.186-1.305,0.557-1.765,1.149c-0.58,0.746-0.598,1.613-0.618,2.526c-0.024,1.158,0.007,2.321,0.008,3.48
				c0,0.688-0.002,1.376-0.002,2.065h-1.968V28.245h1.914v1.967c1.567-3,4.873-2.047,4.873-2.047L91.113,29.942z"/>
			<path fill="#FFFFFF" d="M77.817,29.631c-1.625,0-2.966,1.218-3.157,2.792l6.314,0C80.783,30.849,79.442,29.631,77.817,29.631z"/>
			<path fill="#FFFFFF" d="M27.16,24.996h-3.788v5.836h3.922c0,0,2.453-0.282,2.453-2.918C29.748,27.914,29.733,24.996,27.16,24.996
				z"/>
		</g>
	</g>
</g>
</svg>
