<?xml version="1.0" encoding="utf-8"?>
<!-- Generator: Adobe Illustrator 16.0.0, SVG Export Plug-In . SVG Version: 6.00 Build 0)  -->
<!DOCTYPE svg PUBLIC "-//W3C//DTD SVG 1.1//EN" "http://www.w3.org/Graphics/SVG/1.1/DTD/svg11.dtd">
<svg version="1.1" id="Capa_1" xmlns="http://www.w3.org/2000/svg" xmlns:xlink="http://www.w3.org/1999/xlink" x="0px" y="0px"
	 width="120px" height="50px" viewBox="0 0 120 50" enable-background="new 0 0 120 50" xml:space="preserve">
<g>
	<g>
		<defs>
			<rect id="SVGID_14_" x="1715" y="2270" width="204" height="198"/>
		</defs>
		<clipPath id="SVGID_1_">
			<use xlink:href="#SVGID_14_"  overflow="visible"/>
		</clipPath>
		<g clip-path="url(#SVGID_1_)">
			<defs>
				<rect id="SVGID_19_" x="806" y="-371" width="680" height="399"/>
			</defs>
			<clipPath id="SVGID_3_">
				<use xlink:href="#SVGID_19_"  overflow="visible"/>
			</clipPath>
			<g clip-path="url(#SVGID_3_)">
				
					<image overflow="visible" width="1200" height="800" xlink:href="../Downloads/_HOT8510.jpg"  transform="matrix(-1.1938 0 0 0.5694 836.0552 -364.7432)">
				</image>
			</g>
		</g>
	</g>
</g>
<g>
	<g>
		<polygon fill="#EEEEEE" points="17.208,45.565 10.432,43.134 10.432,33.202 17.208,35.51 		"/>
		<polygon fill="#EEEEEE" points="18.452,45.565 25.228,43.134 25.228,33.202 18.452,35.51 		"/>
		<polygon fill="#EEEEEE" points="11.129,32.46 17.987,30.529 24.346,32.58 17.987,34.738 		"/>
	</g>
	<g>
		<polygon fill="#EEEEEE" points="9.141,31.689 2.365,29.259 2.365,19.327 9.141,21.635 		"/>
		<polygon fill="#EEEEEE" points="10.384,31.689 17.161,29.259 17.161,19.327 10.384,21.635 		"/>
		<polygon fill="#EEEEEE" points="3.061,18.583 9.92,16.653 16.279,18.704 9.92,20.862 		"/>
	</g>
	<g>
		<polygon fill="#EEEEEE" points="24.954,31.689 18.176,29.259 18.176,19.327 24.954,21.635 		"/>
		<polygon fill="#EEEEEE" points="26.196,31.689 32.973,29.259 32.973,19.327 26.196,21.635 		"/>
		<polygon fill="#EEEEEE" points="18.874,18.583 25.732,16.653 32.091,18.704 25.732,20.862 		"/>
	</g>
	<g>
		<polygon fill="#EEEEEE" points="33.021,17.814 26.245,15.383 26.245,5.451 33.021,7.759 		"/>
		<polygon fill="#EEEEEE" points="34.263,17.814 41.04,15.383 41.04,5.451 34.263,7.759 		"/>
		<polygon fill="#EEEEEE" points="26.941,4.708 33.799,2.777 40.158,4.827 33.799,6.987 		"/>
	</g>
	<g>
		<polygon fill="#EEEEEE" points="48.833,17.814 42.056,15.383 42.056,5.451 48.833,7.759 		"/>
		<polygon fill="#EEEEEE" points="50.076,17.814 56.853,15.383 56.853,5.451 50.076,7.759 		"/>
		<polygon fill="#EEEEEE" points="42.753,4.708 49.611,2.777 55.97,4.827 49.611,6.987 		"/>
	</g>
	<g>
		<path fill="#FFFFFF" stroke="#FFFFFF" d="M45.386,39.095l-2.277,7.908H42.12l-1.772-5.872l-1.626,5.872h-1.008l-2.366-7.908h1.223
			l1.724,5.894l1.64-5.894h0.903l1.782,5.914l1.772-5.914H45.386L45.386,39.095z"/>
		<path fill="#FFFFFF" stroke="#FFFFFF" d="M51.683,44.645l1.146,0.235c-0.208,0.676-0.616,1.237-1.22,1.679
			c-0.604,0.443-1.316,0.665-2.134,0.665c-1.078,0-1.951-0.381-2.618-1.14c-0.666-0.761-0.999-1.756-0.999-2.991
			c0-1.261,0.346-2.276,1.04-3.053c0.692-0.775,1.563-1.165,2.611-1.165c1.032,0,1.861,0.358,2.489,1.072
			c0.629,0.714,0.95,1.784,0.967,3.207h-5.74c0,1.197,0.25,2.002,0.75,2.421c0.5,0.418,1.028,0.625,1.584,0.625
			C50.563,46.201,51.271,45.683,51.683,44.645z M51.616,42.237c-0.011-0.443-0.083-0.836-0.219-1.181
			c-0.136-0.345-0.365-0.638-0.688-0.881c-0.323-0.243-0.711-0.364-1.165-0.364c-0.609,0-1.126,0.22-1.551,0.658
			c-0.426,0.438-0.662,1.028-0.715,1.768H51.616z"/>
		<path fill="#FFFFFF" stroke="#FFFFFF" d="M55.174,47.002h-0.593V36.325h1.232v4.088c0.562-1.025,1.338-1.539,2.327-1.539
			c0.905,0,1.664,0.359,2.276,1.075c0.611,0.716,0.918,1.755,0.918,3.12c0,1.176-0.302,2.161-0.903,2.958
			c-0.602,0.797-1.385,1.196-2.349,1.196c-1.073,0-1.896-0.51-2.468-1.53L55.174,47.002z M55.813,43.903
			c0.058,0.812,0.307,1.4,0.747,1.768c0.44,0.366,0.906,0.549,1.396,0.549c0.626,0,1.131-0.271,1.514-0.814
			c0.383-0.543,0.575-1.287,0.575-2.232c0-1.019-0.185-1.818-0.555-2.401c-0.37-0.583-0.883-0.874-1.54-0.874
			c-0.516,0-0.981,0.208-1.396,0.622c-0.415,0.415-0.661,0.95-0.739,1.607L55.813,43.903L55.813,43.903z"/>
		<path fill="#FFFFFF" stroke="#FFFFFF" d="M64.472,44.953l1.175-0.242c0.261,0.995,1.086,1.49,2.476,1.49
			c0.51,0,0.945-0.115,1.299-0.344c0.355-0.229,0.533-0.551,0.533-0.968c0-0.619-0.452-1.013-1.356-1.18l-1.665-0.316
			c-0.652-0.125-1.171-0.37-1.558-0.735c-0.386-0.366-0.579-0.848-0.579-1.448c0-0.663,0.264-1.218,0.791-1.664
			c0.526-0.447,1.236-0.671,2.127-0.671c1.715,0,2.774,0.671,3.176,2.013l-1.127,0.243c-0.323-0.822-0.987-1.232-1.993-1.232
			c-0.501,0-0.91,0.103-1.231,0.307c-0.321,0.205-0.48,0.493-0.48,0.861c0,0.581,0.409,0.947,1.229,1.099l1.539,0.283
			c1.611,0.292,2.418,1.075,2.418,2.344c0,0.727-0.3,1.313-0.901,1.76c-0.6,0.446-1.397,0.671-2.395,0.671
			C66.075,47.223,64.916,46.467,64.472,44.953z"/>
		<path fill="#FFFFFF" stroke="#FFFFFF" d="M77.795,44.645l1.146,0.235c-0.209,0.676-0.615,1.237-1.22,1.679
			c-0.604,0.443-1.315,0.665-2.134,0.665c-1.079,0-1.951-0.381-2.618-1.14c-0.667-0.761-1.001-1.756-1.001-2.991
			c0-1.261,0.347-2.276,1.041-3.053c0.692-0.775,1.562-1.165,2.612-1.165c1.031,0,1.861,0.358,2.49,1.072
			c0.627,0.714,0.949,1.784,0.965,3.207h-5.74c0,1.197,0.25,2.002,0.75,2.421c0.5,0.418,1.028,0.625,1.585,0.625
			C76.676,46.201,77.384,45.683,77.795,44.645z M77.728,42.237c-0.01-0.443-0.083-0.836-0.218-1.181
			c-0.135-0.345-0.364-0.638-0.687-0.881c-0.323-0.243-0.711-0.364-1.165-0.364c-0.609,0-1.126,0.22-1.552,0.658
			c-0.423,0.438-0.662,1.028-0.713,1.768H77.728z"/>
		<path fill="#FFFFFF" stroke="#FFFFFF" d="M81.632,47.002H80.4v-7.908h1.079v1.845c0.381-0.864,0.764-1.423,1.146-1.679
			c0.382-0.257,0.775-0.385,1.176-0.385c0.125,0,0.287,0.012,0.485,0.03v1.175h-0.25c-0.678,0-1.239,0.252-1.687,0.754
			c-0.448,0.503-0.687,1.165-0.719,1.984L81.632,47.002L81.632,47.002z"/>
		<path fill="#FFFFFF" stroke="#FFFFFF" d="M91.939,39.095l-2.73,7.908h-1.276l-2.822-7.908h1.363l2.195,6.429l2.177-6.429H91.939z"
			/>
		<path fill="#FFFFFF" stroke="#FFFFFF" d="M94.242,36.325v1.367h-1.318v-1.367H94.242z M94.212,39.095v7.908H92.98v-7.908H94.212z"
			/>
		<path fill="#FFFFFF" stroke="#FFFFFF" d="M100.649,44.234l1.107,0.195c-0.156,0.874-0.503,1.558-1.04,2.052
			c-0.537,0.495-1.207,0.742-2.011,0.742c-1.089,0-1.92-0.403-2.491-1.207s-0.857-1.787-0.857-2.947c0-1.202,0.301-2.2,0.903-2.998
			c0.602-0.798,1.422-1.197,2.46-1.197c0.86,0,1.55,0.259,2.068,0.772c0.52,0.516,0.842,1.18,0.967,1.997l-1.107,0.21
			c-0.209-1.305-0.84-1.957-1.892-1.957c-0.678,0-1.198,0.287-1.562,0.863c-0.366,0.577-0.548,1.325-0.548,2.242
			c0,1.012,0.181,1.797,0.543,2.358c0.362,0.56,0.871,0.841,1.528,0.841C99.733,46.201,100.378,45.545,100.649,44.234z"/>
		<path fill="#FFFFFF" stroke="#FFFFFF" d="M108.704,44.645l1.146,0.235c-0.209,0.676-0.615,1.237-1.22,1.679
			c-0.604,0.443-1.315,0.665-2.134,0.665c-1.078,0-1.951-0.381-2.618-1.14c-0.667-0.761-1-1.756-1-2.991
			c0-1.261,0.346-2.276,1.04-3.053c0.693-0.775,1.563-1.165,2.612-1.165c1.03,0,1.86,0.358,2.489,1.072
			c0.628,0.714,0.949,1.784,0.965,3.207h-5.739c0,1.197,0.25,2.002,0.749,2.421c0.5,0.418,1.028,0.625,1.585,0.625
			C107.584,46.201,108.292,45.683,108.704,44.645z M108.637,42.237c-0.01-0.443-0.083-0.836-0.218-1.181
			c-0.135-0.345-0.365-0.638-0.687-0.881c-0.324-0.243-0.711-0.364-1.165-0.364c-0.61,0-1.127,0.22-1.551,0.658
			c-0.425,0.438-0.663,1.028-0.714,1.768H108.637z"/>
		<path fill="#FFFFFF" stroke="#FFFFFF" d="M110.679,44.953l1.176-0.242c0.261,0.995,1.085,1.49,2.475,1.49
			c0.511,0,0.945-0.115,1.299-0.344c0.355-0.229,0.533-0.551,0.533-0.968c0-0.619-0.452-1.013-1.356-1.18l-1.665-0.316
			c-0.652-0.125-1.171-0.37-1.558-0.735c-0.385-0.366-0.578-0.848-0.578-1.448c0-0.663,0.263-1.218,0.791-1.664
			c0.526-0.447,1.235-0.671,2.127-0.671c1.716,0,2.773,0.671,3.176,2.013l-1.127,0.243c-0.323-0.822-0.988-1.232-1.993-1.232
			c-0.501,0-0.911,0.103-1.231,0.307c-0.32,0.204-0.48,0.493-0.48,0.861c0,0.581,0.409,0.947,1.229,1.099l1.54,0.283
			c1.61,0.292,2.417,1.075,2.417,2.344c0,0.727-0.299,1.313-0.899,1.76c-0.601,0.446-1.398,0.671-2.396,0.671
			C112.282,47.223,111.123,46.467,110.679,44.953z"/>
	</g>
	<g>
		<g>
			<path fill="#FFFFFF" d="M82.912,22.195v-1.899c0.001-0.29,0.219-0.482,0.481-0.482l8.513-0.001
				c0.273,0.001,0.49,0.199,0.491,0.48l-0.001,1.629c-0.001,0.273-0.232,0.63-0.641,1.196l-4.409,6.296
				c1.637-0.038,3.369,0.208,4.856,1.043c0.335,0.187,0.424,0.467,0.451,0.741v2.026c0,0.281-0.305,0.603-0.627,0.436
				c-2.619-1.374-6.098-1.523-8.995,0.015c-0.296,0.159-0.606-0.159-0.606-0.439v-1.927c0-0.307,0.007-0.834,0.318-1.305
				l5.109-7.329l-4.449,0C83.131,22.673,82.914,22.479,82.912,22.195z"/>
			<path fill="#FFFFFF" d="M52.443,34.058h-2.59c-0.247-0.016-0.443-0.201-0.463-0.437l0.002-13.294
				c0-0.265,0.223-0.479,0.499-0.479h2.413c0.252,0.012,0.455,0.204,0.471,0.447v1.735h0.048c0.628-1.679,1.813-2.461,3.41-2.461
				c1.619,0,2.635,0.783,3.36,2.461c0.628-1.679,2.054-2.461,3.578-2.461c1.088,0,2.272,0.447,2.998,1.455
				c0.823,1.118,0.653,2.741,0.653,4.168L66.82,33.58c0,0.267-0.224,0.479-0.5,0.479h-2.587c-0.259-0.016-0.465-0.223-0.465-0.478
				l0-7.047c0-0.559,0.048-1.958-0.073-2.49c-0.193-0.896-0.773-1.146-1.522-1.146c-0.629,0-1.282,0.42-1.548,1.091
				s-0.242,1.79-0.242,2.545v7.046c0,0.267-0.224,0.478-0.5,0.478h-2.587c-0.26-0.016-0.466-0.223-0.466-0.478l-0.001-7.047
				c0-1.483,0.242-3.665-1.596-3.665c-1.861,0-1.789,2.126-1.789,3.665l-0.001,7.045C52.943,33.847,52.72,34.058,52.443,34.058z"/>
			<path fill="#FFFFFF" d="M98.651,19.569c3.813,0,5.876,3.301,5.876,7.497c0,4.057-2.278,7.274-5.876,7.274
				c-3.742,0-5.78-3.302-5.78-7.414C92.872,22.786,94.934,19.569,98.651,19.569z M98.675,22.624c-1.894,0-2.015,2.602-2.015,4.224
				s-0.022,4.749,1.992,4.749c1.991,0,2.086-2.456,2.086-4.16c0-1.12-0.047-2.462-0.384-3.525
				C100.066,22.987,99.49,22.624,98.675,22.624z"/>
			<path fill="#FFFFFF" d="M110.047,34.058h-2.581c-0.259-0.016-0.465-0.223-0.465-0.478l-0.005-13.298
				c0.022-0.243,0.236-0.434,0.499-0.434h2.402c0.227,0.012,0.412,0.166,0.46,0.373v2.033h0.048
				c0.726-1.818,1.741-2.685,3.529-2.685c1.161,0,2.297,0.419,3.022,1.566c0.678,1.063,0.678,2.854,0.678,4.14v8.364
				c-0.03,0.236-0.24,0.419-0.498,0.419h-2.596c-0.239-0.016-0.433-0.19-0.461-0.419v-7.217c0-1.455,0.17-3.581-1.62-3.581
				c-0.627,0-1.209,0.419-1.499,1.063c-0.363,0.811-0.412,1.623-0.412,2.517v7.157C110.546,33.847,110.323,34.058,110.047,34.058z"
				/>
			<g>
				<path fill="#FFFFFF" d="M81.004,31.622C80.53,30.969,80,30.437,80,29.222v-4.035c0-1.709,0.148-3.28-1.112-4.458
					c-0.993-0.953-2.628-1.289-3.889-1.289c-2.465,0-5.208,0.92-5.785,3.966c-0.062,0.323,0.179,0.494,0.39,0.541l2.512,0.272
					c0.234-0.012,0.406-0.243,0.45-0.477c0.216-1.049,1.094-1.556,2.083-1.556c0.534,0,0.93,0.196,1.244,0.673
					C76.258,23.393,76,24.122,76,24.739v0.336c-1,0.168-3.256,0.28-4.662,0.897c-1.624,0.701-2.657,2.132-2.657,4.234
					c0,2.691,1.748,4.037,3.93,4.037c1.842,0,2.875-0.435,4.296-1.882c0.471,0.681,0.638,1.01,1.498,1.726
					c0.193,0.104,0.446,0.093,0.618-0.061l0.009,0.007c0.518-0.461,1.446-1.278,1.976-1.72
					C81.219,32.139,81.169,31.858,81.004,31.622z M76,27.71c0,1.01,0.232,1.852-0.276,2.749c-0.411,0.728-0.961,1.176-1.688,1.176
					c-0.993,0-1.732-0.757-1.732-1.878c0-2.207,2.697-2.608,3.697-2.608V27.71z"/>
				<path fill="#FFFFFF" d="M46,29.222v-4.035c0-1.709,0.318-3.28-0.942-4.458c-0.992-0.953-2.543-1.289-3.803-1.289
					c-2.465,0-5.166,0.92-5.742,3.966c-0.062,0.323,0.198,0.494,0.41,0.541l2.522,0.272c0.236-0.012,0.412-0.243,0.457-0.477
					c0.215-1.049,1.097-1.556,2.084-1.556c0.534,0,1.262,0.196,1.577,0.673C42.926,23.393,43,24.122,43,24.739v0.336
					c-2,0.168-3.585,0.28-4.991,0.897c-1.622,0.701-2.822,2.132-2.822,4.234c0,2.691,1.666,4.037,3.847,4.037
					c1.841,0,2.834-0.435,4.254-1.882c0.47,0.681,0.618,1.01,1.478,1.726c0.192,0.104,0.436,0.093,0.607-0.061l0.005,0.007
					c0.517-0.461,1.456-1.278,1.985-1.72c0.211-0.173-0.023-0.454-0.188-0.689C46.701,30.969,46,30.437,46,29.222z M43,27.71
					c0,1.01-0.097,1.852-0.605,2.749c-0.411,0.728-1.127,1.176-1.854,1.176c-0.993,0-1.483-0.757-1.483-1.878
					c0-2.207,1.942-2.608,3.942-2.608V27.71z"/>
			</g>
		</g>
	</g>
</g>
</svg>
