<?xml version="1.0" encoding="utf-8"?>
<!-- Generator: Adobe Illustrator 16.0.0, SVG Export Plug-In . SVG Version: 6.00 Build 0)  -->
<!DOCTYPE svg PUBLIC "-//W3C//DTD SVG 1.1//EN" "http://www.w3.org/Graphics/SVG/1.1/DTD/svg11.dtd">
<svg version="1.1" id="Capa_1" xmlns="http://www.w3.org/2000/svg" xmlns:xlink="http://www.w3.org/1999/xlink" x="0px" y="0px"
	 width="120px" height="50px" viewBox="0 0 120 50" enable-background="new 0 0 120 50" xml:space="preserve">
<g>
	<g>
		<defs>
			<rect id="SVGID_14_" x="1715" y="2185" width="204" height="198"/>
		</defs>
		<clipPath id="SVGID_1_">
			<use xlink:href="#SVGID_14_"  overflow="visible"/>
		</clipPath>
		<g clip-path="url(#SVGID_1_)">
			<defs>
				<rect id="SVGID_19_" x="806" y="-456" width="680" height="399"/>
			</defs>
			<clipPath id="SVGID_3_">
				<use xlink:href="#SVGID_19_"  overflow="visible"/>
			</clipPath>
			<g clip-path="url(#SVGID_3_)">
				
					<image overflow="visible" width="1200" height="800" xlink:href="../Downloads/_HOT8510.jpg"  transform="matrix(-1.1938 0 0 0.5694 836.0552 -449.7432)">
				</image>
			</g>
		</g>
	</g>
</g>
<g>
	
		<linearGradient id="SVGID_5_" gradientUnits="userSpaceOnUse" x1="-79.6016" y1="2754.1406" x2="-79.6016" y2="2802.7188" gradientTransform="matrix(1 0 0 -1 139.6016 2803.4297)">
		<stop  offset="0" style="stop-color:#686868"/>
		<stop  offset="1" style="stop-color:#A7A7A7"/>
	</linearGradient>
	<path fill="url(#SVGID_5_)" d="M60.001,0.71c-2.842,0-5.568,0.507-8.101,1.436c-0.407-0.143-0.837-0.221-1.292-0.221
		c-1.791,0-3.313,1.2-3.827,2.853C40.365,9.13,36.138,16.562,36.138,25c0,13.415,10.682,24.29,23.861,24.29
		c13.181,0,23.862-10.875,23.862-24.29C83.865,11.585,73.182,0.71,60.001,0.71z M50.61,4.502c0.818,0,1.483,0.676,1.483,1.509
		c0,0.834-0.665,1.509-1.483,1.509c-0.819,0-1.482-0.675-1.482-1.509C49.127,5.18,49.792,4.502,50.61,4.502z M79.15,34.655
		c-2.189,4.455-5.933,8.086-10.398,10.127c-4.469,2.057-9.624,2.455-14.35,1.17c-4.727-1.285-8.978-4.271-11.815-8.305
		c-1.422-2.011-2.511-4.267-3.183-6.642c-0.672-2.377-0.937-4.866-0.795-7.321c0.293-4.917,2.289-9.694,5.575-13.242l0.001-0.003
		c0.183-0.195,0.484-0.205,0.677-0.02c0.188,0.179,0.202,0.474,0.034,0.668c-0.741,0.888-1.407,1.832-1.989,2.827
		c-0.586,0.991-1.091,2.031-1.503,3.106c-0.826,2.15-1.283,4.436-1.347,6.73c-0.052,1.371,0.048,2.745,0.277,4.094l2.854-3.094
		c0.127-0.138,0.118-0.222,0.248-0.252c-0.083,0.198-0.249,0.413-0.249,0.635v10.697c0,0.258,0.198,0.514,0.382,0.764
		c0.083,0.115,0.158,0.227,0.158,0.342v-11.8c0-0.384,0.535-0.646,0.881-0.646c0.054,0,0.253,0.006,0.31,0.018l8.396,1.939
		c0.426,0.098,0.689,0.537,0.689,0.979v16.438c0,0.076,0.231,0.146,0.47,0.209c0.113,0.029,0.07,0.055,0.07,0.08V27.428
		c0-0.414,0.164-0.832-0.105-1.175c-0.27-0.345-0.478-0.583-0.88-0.674l-3.208-0.755c0.056-0.465,0.339-1.011,0.636-1.319
		l5.502-5.699c0.13-0.137,0.237-0.218,0.367-0.243c-0.084,0.195-0.149,0.408-0.149,0.633v26.259c0,0.049,0.541,0.092,0.541,0.125
		V18.193c0-0.373,0.454-0.63,0.79-0.63c0.051,0,0.207,0.006,0.261,0.021l8.747,1.945c0.414,0.095,1.016,0.527,1.016,0.958v22.605
		c0-0.041-0.063-0.08,0.029-0.121c0.225-0.102,0.514-0.207,0.514-0.318V20.487c0-0.409-0.194-0.823-0.461-1.16
		c-0.266-0.34-0.684-0.574-1.078-0.664l-3.301-0.759c0.033-0.479,0.303-1.076,0.621-1.401l5.521-5.63
		c0.121-0.126,0.258-0.207,0.383-0.233c-0.082,0.192-0.066,0.406-0.066,0.624v30.402c0.539-0.15,0.539-0.309,0.539-0.469V11.267
		c0-0.37,0.363-0.622,0.697-0.622c0.051,0,0.182,0.005,0.238,0.02l3.09,0.701c-0.729-0.857-1.512-1.66-2.369-2.386
		c-1.73-1.475-3.705-2.651-5.832-3.455c-1.062-0.401-2.156-0.711-3.273-0.928c-1.114-0.217-2.25-0.343-3.397-0.369
		c-0.264-0.005-0.472-0.122-0.466-0.391c0.005-0.261,0.212-0.375,0.469-0.375h0.006c1.19,0,2.393-0.05,3.579,0.131
		c1.188,0.185,2.356,0.433,3.496,0.822c2.278,0.782,4.433,1.938,6.334,3.458c1.899,1.525,3.543,3.374,4.836,5.461
		c1.297,2.09,2.229,4.409,2.754,6.827c0.522,2.42,0.646,4.924,0.343,7.388C80.969,30.02,80.25,32.434,79.15,34.655z"/>
	
		<linearGradient id="Light_1_" gradientUnits="userSpaceOnUse" x1="-79.5664" y1="2775.3125" x2="-79.5664" y2="2797.6582" gradientTransform="matrix(1 0 0 -1 139.6016 2803.4297)">
		<stop  offset="0" style="stop-color:#FFFFFF;stop-opacity:0"/>
		<stop  offset="1" style="stop-color:#FFFFFF"/>
	</linearGradient>
	
		<ellipse id="Light_7_" opacity="0.5" fill="url(#Light_1_)" enable-background="new    " cx="60.035" cy="16.945" rx="15.045" ry="11.173"/>
	
		<linearGradient id="Light_2_" gradientUnits="userSpaceOnUse" x1="-79.5664" y1="2781.4609" x2="-79.5664" y2="2797.627" gradientTransform="matrix(1 0 0 -1 139.6016 2803.4297)">
		<stop  offset="0" style="stop-color:#FFFFFF;stop-opacity:0"/>
		<stop  offset="1" style="stop-color:#FFFFFF"/>
	</linearGradient>
	
		<ellipse id="Light_6_" opacity="0.5" fill="url(#Light_2_)" enable-background="new    " cx="60.035" cy="13.885" rx="10.885" ry="8.083"/>
	<g>
		<ellipse fill="#FFFFFF" cx="50.61" cy="6.01" rx="1.483" ry="1.509"/>
		<path fill="#FFFFFF" d="M80.924,20.165c-0.523-2.42-1.457-4.74-2.754-6.827c-1.295-2.089-2.936-3.937-4.836-5.461
			c-1.9-1.52-4.049-2.681-6.334-3.462c-1.139-0.389-2.311-0.632-3.498-0.817c-1.184-0.182-2.388-0.132-3.577-0.132h-0.006
			c-0.254,0-0.462,0.115-0.47,0.377c-0.003,0.268,0.205,0.388,0.47,0.395c1.149,0.024,2.279,0.146,3.399,0.366
			c1.115,0.214,2.214,0.526,3.275,0.927c2.127,0.804,4.107,1.979,5.836,3.455c0.859,0.726,1.656,1.526,2.385,2.385l-3.062-0.703
			c-0.055-0.014-0.239-0.019-0.293-0.019c-0.334,0-0.694,0.252-0.694,0.622v29.933c0,0.16,0,0.318-0.541,0.469V11.27
			c0-0.219-0.021-0.433,0.065-0.625c-0.125,0.027-0.285,0.107-0.41,0.233l-5.504,5.63c-0.313,0.325-0.58,0.921-0.61,1.401
			l3.307,0.758c0.391,0.09,0.805,0.326,1.07,0.665c0.268,0.336,0.463,0.75,0.463,1.159v22.167c0,0.106-0.287,0.215-0.515,0.313
			c-0.09,0.043-0.026,0.08-0.026,0.121V20.491c0-0.431-0.564-0.862-0.978-0.958l-8.638-1.946c-0.056-0.013-0.328-0.02-0.38-0.02
			c-0.338,0-0.826,0.256-0.826,0.63v26.388c0-0.035-0.54-0.08-0.54-0.127v-26.26c0-0.224,0.074-0.438,0.159-0.632
			c-0.128,0.024-0.23,0.105-0.36,0.242l-5.479,5.699c-0.3,0.309-0.536,0.856-0.592,1.32l3.291,0.754
			c0.399,0.091,0.44,0.333,0.707,0.675c0.271,0.347,0.108,0.761,0.108,1.175v16.728c0-0.025,0.039-0.052-0.07-0.082
			c-0.238-0.062-0.47-0.132-0.47-0.207V27.43c0-0.44-0.184-0.885-0.61-0.979l-8.353-1.938c-0.058-0.015-0.401-0.02-0.451-0.02
			c-0.347,0-0.864,0.262-0.864,0.645v11.8c0-0.115-0.074-0.226-0.159-0.343c-0.184-0.25-0.383-0.504-0.383-0.764V25.135
			c0-0.222,0.167-0.437,0.251-0.635c-0.13,0.029-0.205,0.115-0.332,0.252l-2.812,3.094c-0.232-1.35-0.31-2.722-0.258-4.093
			c0.067-2.294,0.534-4.581,1.361-6.731c0.411-1.075,0.923-2.116,1.508-3.106c0.581-0.995,1.25-1.94,1.991-2.827
			c0.164-0.194,0.152-0.489-0.032-0.668c-0.192-0.185-0.496-0.174-0.676,0.02l-0.001,0.003c-3.284,3.547-5.281,8.326-5.575,13.242
			c-0.143,2.458,0.123,4.942,0.794,7.321c0.672,2.375,1.762,4.632,3.184,6.642c2.837,4.033,7.087,7.02,11.814,8.305
			c4.725,1.285,9.883,0.887,14.352-1.17c4.467-2.041,8.207-5.674,10.398-10.127c1.098-2.221,1.815-4.635,2.116-7.1
			C81.57,25.091,81.449,22.585,80.924,20.165z M53.461,39.112c0,0.201-0.148,0.33-0.34,0.289l-7.448-1.652
			c-0.192-0.041-0.326-0.242-0.326-0.441v-3.885c0-0.201,0.072-0.33,0.265-0.287l7.442,1.652c0.193,0.041,0.406,0.238,0.406,0.439
			L53.461,39.112L53.461,39.112z M53.461,32.127c0,0.199-0.167,0.326-0.357,0.287l-7.447-1.652c-0.192-0.043-0.31-0.242-0.31-0.441
			v-3.885c0-0.201,0.089-0.33,0.283-0.287l7.443,1.652c0.194,0.041,0.387,0.24,0.387,0.439L53.461,32.127L53.461,32.127z
			 M66.984,39.112c0,0.201-0.269,0.33-0.461,0.289l-7.665-1.652c-0.193-0.041-0.53-0.242-0.53-0.441v-3.885
			c0-0.201,0.269-0.33,0.463-0.287l7.631,1.652c0.193,0.041,0.562,0.238,0.562,0.439V39.112L66.984,39.112z M66.984,32.127
			c0,0.199-0.285,0.326-0.478,0.287l-7.672-1.652c-0.193-0.043-0.507-0.242-0.507-0.441v-3.885c0-0.201,0.293-0.33,0.486-0.287
			l7.624,1.652c0.19,0.041,0.545,0.24,0.545,0.439v3.887H66.984L66.984,32.127z M66.984,25.207c0,0.2-0.269,0.329-0.461,0.286
			l-7.665-1.65c-0.193-0.044-0.53-0.241-0.53-0.441v-3.885c0-0.202,0.269-0.33,0.463-0.286l7.631,1.65
			c0.193,0.041,0.562,0.24,0.562,0.44V25.207L66.984,25.207z M72.932,12.595c0-0.2-0.125-0.329,0.068-0.286l3.229,0.753
			c0.246,0.364,0.437,0.731,0.66,1.113c0.75,1.281,1.355,2.646,1.816,4.063l-5.715-1.316c-0.191-0.042-0.057-0.24-0.057-0.439
			L72.932,12.595L72.932,12.595z M74.527,38.149l-1.553-0.4c-0.191-0.041-0.043-0.242-0.043-0.441v-3.883
			c0-0.203-0.132-0.33,0.061-0.289l4.453,1.012C76.68,35.588,75.609,36.936,74.527,38.149z M78.301,31.993l-5.309-1.23
			c-0.189-0.043-0.061-0.242-0.061-0.441v-3.885c0-0.201-0.148-0.33,0.043-0.287l6.612,1.486
			C79.367,29.125,78.844,30.59,78.301,31.993z M79.643,25.374l-6.656-1.532c-0.194-0.043-0.057-0.24-0.057-0.44v-3.885
			c0-0.202-0.133-0.33,0.062-0.286l6.436,1.452C79.723,22.225,79.701,23.803,79.643,25.374z"/>
	</g>
	
		<linearGradient id="Docks_1_" gradientUnits="userSpaceOnUse" x1="-77.063" y1="2764.2393" x2="-77.063" y2="2791.3477" gradientTransform="matrix(1 0 0 -1 139.6016 2803.4297)">
		<stop  offset="0" style="stop-color:#A7A7A7"/>
		<stop  offset="1" style="stop-color:#686868"/>
	</linearGradient>
	<path id="Docks_7_" fill="url(#Docks_1_)" d="M72.994,19.011l6.434,1.452c0.295,1.545,0.336,3.122,0.275,4.693l-6.686-1.533
		c-0.191-0.042-0.082-0.242-0.082-0.44v-3.887C72.932,19.099,72.803,18.97,72.994,19.011z M72.994,32.92
		c-0.189-0.045-0.062,0.084-0.062,0.287v3.885c0,0.201-0.147,0.398,0.045,0.439l1.666,0.402c1.082-1.214,2.097-2.562,2.863-4.004
		L72.994,32.92z M72.975,25.934c-0.19-0.043-0.043,0.084-0.043,0.287v3.885c0,0.199-0.129,0.4,0.062,0.441l5.426,1.23
		c0.545-1.4,1.008-2.867,1.228-4.359L72.975,25.934z M72.932,12.38v3.885c0,0.198-0.147,0.398,0.043,0.439l5.818,1.315
		c-0.461-1.415-1.152-2.78-1.904-4.064c-0.225-0.378-0.502-0.748-0.75-1.111l-3.127-0.754C72.82,12.049,72.932,12.178,72.932,12.38z
		 M58.794,37.532l7.655,1.652c0.191,0.039,0.533-0.086,0.533-0.285V35.01c0-0.199-0.295-0.398-0.484-0.439l-7.643-1.649
		c-0.193-0.043-0.528,0.086-0.528,0.287v3.885C58.33,37.292,58.604,37.489,58.794,37.532z M45.62,30.545l7.465,1.652
		c0.191,0.041,0.378-0.09,0.378-0.289v-3.885c0-0.201-0.173-0.402-0.368-0.441l-7.424-1.652c-0.193-0.043-0.321,0.084-0.321,0.286
		v3.888C45.347,30.303,45.43,30.502,45.62,30.545z M45.636,37.532l7.469,1.652c0.19,0.039,0.359-0.086,0.359-0.285V35.01
		c0-0.199-0.194-0.398-0.383-0.439l-7.425-1.649c-0.192-0.043-0.305,0.086-0.305,0.287v3.885
		C45.347,37.292,45.442,37.489,45.636,37.532z M58.769,30.545l7.665,1.652c0.191,0.041,0.553-0.09,0.553-0.289v-3.885
		c0-0.201-0.278-0.402-0.473-0.441l-7.631-1.652c-0.193-0.043-0.554,0.084-0.554,0.286v3.888
		C58.33,30.303,58.575,30.502,58.769,30.545z M58.794,23.625l7.655,1.652c0.191,0.042,0.533-0.087,0.533-0.288v-3.886
		c0-0.199-0.295-0.397-0.484-0.439l-7.643-1.653c-0.193-0.041-0.528,0.087-0.528,0.287v3.887
		C58.33,23.385,58.604,23.583,58.794,23.625z"/>
</g>
</svg>
