<?xml version="1.0" encoding="utf-8"?>
<!-- Generator: Adobe Illustrator 16.0.0, SVG Export Plug-In . SVG Version: 6.00 Build 0)  -->
<!DOCTYPE svg PUBLIC "-//W3C//DTD SVG 1.1//EN" "http://www.w3.org/Graphics/SVG/1.1/DTD/svg11.dtd">
<svg version="1.1" id="Capa_1" xmlns="http://www.w3.org/2000/svg" xmlns:xlink="http://www.w3.org/1999/xlink" x="0px" y="0px"
	 width="120px" height="50px" viewBox="0 0 120 50" enable-background="new 0 0 120 50" xml:space="preserve">
<g>
	<g>
		<defs>
			<rect id="SVGID_14_" x="1715" y="2069" width="204" height="198"/>
		</defs>
		<clipPath id="SVGID_1_">
			<use xlink:href="#SVGID_14_"  overflow="visible"/>
		</clipPath>
	</g>
</g>
<g id="zd3ZDP_1_">
	<g>
		<path fill="#FFFFFF" d="M60.05,3.329c12.144,0.007,22.084,9.947,21.897,22.293C81.764,37.625,71.869,47.465,59.509,47.2
			c-11.914-0.253-21.684-10.092-21.435-22.406C38.314,12.933,48.009,3.304,60.05,3.329z M60.018,39.735
			c7.979-0.001,14.453-6.457,14.462-14.42C74.49,17.271,68.031,10.794,60,10.794c-8,0.001-14.464,6.473-14.462,14.48
			C45.54,33.277,52.007,39.736,60.018,39.735z M59.259,44.307c-0.038,0.013-0.076,0.023-0.115,0.035
			c-0.34-0.674-0.702-1.338-1.01-2.025c-0.15-0.336-0.4-0.405-0.688-0.37c-0.314,0.04-0.169,0.332-0.189,0.512
			c-0.084,0.739-0.158,1.48-0.209,2.224c-0.011,0.16-0.182,0.438,0.198,0.474c0.397,0.038,0.307-0.265,0.327-0.462
			c0.061-0.596,0.098-1.193,0.156-1.946c0.123,0.248,0.177,0.358,0.232,0.47c0.307,0.612,0.623,1.222,0.915,1.842
			c0.134,0.285,0.362,0.295,0.615,0.297c0.329,0.001,0.218-0.274,0.232-0.419c0.085-0.816,0.133-1.638,0.208-2.453
			c0.019-0.2,0.026-0.322-0.231-0.343c-0.257-0.019-0.26,0.111-0.273,0.302C59.382,43.063,59.317,43.684,59.259,44.307z
			 M76.658,34.594c-0.009,0.033-0.018,0.068-0.025,0.104c-0.778,0-1.559,0.023-2.336-0.011c-0.359-0.017-0.475,0.211-0.58,0.438
			c-0.127,0.274,0.176,0.292,0.311,0.381c0.641,0.414,1.287,0.819,1.945,1.205c0.137,0.079,0.279,0.367,0.504,0.069
			c0.242-0.323-0.043-0.384-0.223-0.497c-0.512-0.324-1.027-0.645-1.666-1.043c0.951,0,1.736-0.021,2.519,0.011
			c0.354,0.015,0.478-0.2,0.58-0.438c0.118-0.272-0.172-0.294-0.312-0.384c-0.676-0.432-1.358-0.849-2.039-1.271
			c-0.143-0.087-0.262-0.227-0.422,0.009c-0.166,0.244-0.031,0.331,0.146,0.439C75.595,33.934,76.125,34.264,76.658,34.594z
			 M49.779,8.727c-0.814-0.005-1.595,0.719-1.598,1.481c-0.004,0.907,0.908,1.922,1.721,1.912c0.793-0.01,1.572-0.771,1.566-1.531
			C51.459,9.688,50.594,8.732,49.779,8.727z M53.879,9.99c0.919,0.01,1.616-0.589,1.637-1.404c0.026-1.04-0.673-1.964-1.507-1.993
			c-0.891-0.031-1.668,0.642-1.679,1.454C52.315,9.08,53.035,9.981,53.879,9.99z M44.85,32.867c0.005-0.887-0.643-1.618-1.428-1.615
			c-0.986,0.006-1.913,0.788-1.902,1.608c0.011,0.851,0.649,1.562,1.415,1.577C43.923,34.458,44.845,33.702,44.85,32.867z
			 M53.004,43.051c-0.011,0.897,0.626,1.508,1.572,1.504c0.838-0.004,1.485-0.789,1.514-1.838c0.023-0.865-0.596-1.467-1.536-1.487
			C53.655,41.208,53.017,41.957,53.004,43.051z M44.816,12.95c-0.205,0.005-0.269,0.164-0.362,0.273
			c-0.116,0.135,0.028,0.194,0.107,0.264c0.672,0.591,1.348,1.178,2.017,1.773c0.167,0.148,0.279,0.196,0.459-0.01
			c0.205-0.234,0.042-0.327-0.102-0.451c-0.216-0.188-0.429-0.378-0.649-0.561c-0.124-0.103-0.128-0.185-0.036-0.325
			c0.597-0.918,0.749-0.944,1.573-0.239c0.029,0.025,0.06,0.049,0.085,0.077c0.155,0.174,0.287,0.188,0.453-0.009
			c0.179-0.212,0.08-0.309-0.089-0.452c-0.639-0.542-1.264-1.101-1.896-1.651c-0.147-0.129-0.268-0.327-0.499-0.065
			c-0.221,0.25-0.05,0.351,0.107,0.496c0.68,0.626,0.678,0.628,0.068,1.32c-0.038,0.043-0.074,0.087-0.108,0.133
			c-0.144,0.197-0.278,0.202-0.456,0.021C45.278,13.327,45.035,13.139,44.816,12.95z M73.281,40.309
			c-0.403-0.153-0.752-0.305-1.11-0.414c-0.255-0.079-0.401-0.153-0.298-0.471c0.127-0.396-0.062-0.713-0.375-0.944
			c-0.311-0.231-0.652-0.198-0.969-0.011c-0.275,0.166-0.519,0.389-0.796,0.554c-0.271,0.159-0.26,0.305-0.077,0.532
			c0.512,0.643,1.004,1.3,1.506,1.949c0.121,0.155,0.192,0.359,0.473,0.139c0.279-0.223,0.05-0.324-0.021-0.5
			c-0.113-0.272-0.631-0.422-0.385-0.771c0.296-0.418,0.643,0.045,0.971,0.089c0.053,0.006,0.105,0.041,0.154,0.069
			C72.699,40.731,73,40.699,73.281,40.309z M79.902,27.783c-0.395,0.034-0.719,0.248-1.066,0.376
			c-0.252,0.092-0.42,0.175-0.568-0.163c-0.164-0.373-0.527-0.468-0.919-0.434c-0.401,0.033-0.612,0.295-0.716,0.645
			c-0.098,0.327-0.131,0.674-0.232,0.999c-0.072,0.232,0,0.3,0.213,0.341c0.881,0.168,1.76,0.346,2.639,0.521
			c0.187,0.037,0.271-0.014,0.301-0.219c0.025-0.199,0.034-0.327-0.221-0.348c-0.207-0.016-0.416-0.063-0.617-0.119
			c-0.131-0.033-0.34,0.006-0.317-0.233c0.015-0.153,0.046-0.3,0.228-0.359c0.271-0.091,0.529-0.229,0.807-0.292
			C79.822,28.41,79.949,28.182,79.902,27.783z M65.341,9.671c0.524,0.017,0.892-0.242,1.062-0.711
			c0.223-0.606,0.377-1.237,0.577-1.852c0.083-0.253-0.026-0.322-0.237-0.397C66.47,6.614,66.47,6.794,66.42,6.96
			c-0.164,0.546-0.336,1.09-0.506,1.635c-0.137,0.44-0.39,0.697-0.89,0.548c-0.497-0.149-0.646-0.43-0.491-0.969
			c0.156-0.548,0.325-1.093,0.502-1.635c0.076-0.233,0.008-0.345-0.225-0.415c-0.248-0.074-0.283,0.06-0.336,0.248
			c-0.143,0.514-0.307,1.02-0.458,1.53C63.709,8.95,64.253,9.676,65.341,9.671z M46.839,40.039c0.354-0.021,0.619-0.156,0.841-0.385
			c0.399-0.411,0.798-0.822,1.201-1.229c0.139-0.142,0.274-0.231,0.048-0.445c-0.215-0.202-0.309-0.096-0.451,0.051
			c-0.387,0.396-0.789,0.779-1.172,1.18c-0.338,0.354-0.678,0.403-1.037,0.049c-0.357-0.354-0.323-0.693,0.027-1.037
			c0.408-0.402,0.798-0.823,1.207-1.225c0.146-0.144,0.195-0.232,0.027-0.406c-0.18-0.188-0.292-0.172-0.458,0.006
			c-0.405,0.433-0.829,0.847-1.235,1.275c-0.361,0.383-0.494,0.828-0.23,1.309C45.875,39.672,46.277,40.01,46.839,40.039z
			 M70.381,42.434c-0.756-0.695-1.504-1.375-2.239-2.069c-0.18-0.17-0.317-0.199-0.551-0.086c-0.234,0.112-0.233,0.269-0.209,0.465
			c0.12,1.003,0.241,2.006,0.362,3.019c0.42-0.025,0.625-0.22,0.47-0.629c-0.157-0.416,0.071-0.582,0.389-0.731
			c0.335-0.158,0.657-0.423,0.972,0.051C69.791,42.781,70.063,42.743,70.381,42.434z M73.201,13.222
			c0.149-0.016,0.19,0.082,0.252,0.147c0.131,0.139,0.258,0.281,0.389,0.42c0.122,0.131,0.208,0.337,0.443,0.107
			c0.235-0.231-0.006-0.324-0.102-0.455c-0.089-0.123-0.191-0.24-0.309-0.337c-0.236-0.201-0.17-0.333,0.031-0.532
			c0.273-0.271,0.451-0.245,0.659,0.055c0.118,0.171,0.282,0.31,0.416,0.47c0.127,0.152,0.226,0.068,0.335-0.019
			c0.129-0.103,0.146-0.202,0.025-0.328c-0.365-0.385-0.666-0.946-1.11-1.102c-0.312-0.109-0.671,0.511-1.018,0.794
			c-0.118,0.096-0.229,0.201-0.345,0.302c-1.183,1.046-1.183,1.046-0.012,2.139c0.014,0.013,0.026,0.027,0.037,0.043
			c0.1,0.136,0.195,0.145,0.328,0.027c0.141-0.124,0.18-0.227,0.035-0.371c-0.135-0.135-0.271-0.271-0.383-0.425
			c-0.088-0.127-0.348-0.218-0.225-0.399C72.798,13.544,73.027,13.386,73.201,13.222z M76.209,30.368
			c-0.148-0.005-0.172,0.125-0.209,0.218c-0.146,0.372-0.26,0.76-0.428,1.121c-0.135,0.292-0.047,0.397,0.233,0.489
			c0.452,0.147,0.89,0.343,1.335,0.508c0.427,0.157,1,0.542,1.251,0.394c0.325-0.193,0.394-0.816,0.575-1.254
			c0.07-0.172,0.207-0.344-0.081-0.459c-0.296-0.119-0.302,0.123-0.374,0.282c-0.04,0.087-0.085,0.175-0.102,0.267
			c-0.082,0.514-0.326,0.561-0.776,0.356c-0.604-0.271-0.032-0.555-0.048-0.827c-0.012-0.174,0.271-0.373-0.073-0.512
			c-0.362-0.145-0.278,0.201-0.381,0.337c-0.045,0.06-0.064,0.14-0.087,0.211c-0.088,0.28-0.125,0.531-0.568,0.359
			c-0.427-0.165-0.312-0.363-0.193-0.636c0.078-0.172,0.129-0.356,0.201-0.532C76.607,30.396,76.318,30.467,76.209,30.368z
			 M65.246,41.344c-0.373-0.012-0.701,0.174-1.057,0.242c-0.271,0.053-0.316,0.197-0.236,0.453c0.237,0.764,0.443,1.536,0.691,2.297
			c0.051,0.157-0.025,0.497,0.396,0.369c0.414-0.124,0.197-0.344,0.134-0.52c-0.168-0.459-0.222-0.771,0.415-0.938
			c0.558-0.146,0.748-0.649,0.611-1.188C66.078,41.567,65.762,41.318,65.246,41.344z M61.592,5.628
			C61.1,5.599,60.7,5.715,60.548,6.233c-0.144,0.491,0.07,0.871,0.637,1.199c0.31,0.179,0.856,0.269,0.646,0.766
			c-0.205,0.486-0.688,0.222-1.063,0.148c-0.019-0.004-0.035-0.021-0.053-0.021c-0.126-0.007-0.286-0.236-0.368,0.017
			c-0.067,0.206-0.05,0.429,0.237,0.487c0.205,0.041,0.408,0.096,0.617,0.11c0.522,0.038,1.013-0.041,1.213-0.618
			c0.181-0.522-0.028-0.849-0.666-1.221c-0.287-0.168-0.805-0.266-0.621-0.731c0.195-0.496,0.64-0.219,0.992-0.129
			c0.019,0.005,0.035,0.017,0.051,0.025c0.207,0.114,0.265-0.049,0.335-0.183c0.088-0.166-0.009-0.247-0.146-0.301
			C62.106,5.684,61.854,5.598,61.592,5.628z M43.728,29.66c-0.015-0.743-0.365-1.25-0.883-1.277
			c-0.526-0.028-0.844,0.316-1.01,1.097c-0.028,0.131-0.054,0.263-0.092,0.391c-0.057,0.198-0.17,0.345-0.397,0.347
			c-0.231,0-0.332-0.16-0.397-0.35c-0.082-0.236-0.099-0.482-0.095-0.732c0.001-0.105,0.121-0.297-0.119-0.297
			c-0.171-0.002-0.351,0.023-0.363,0.267c-0.024,0.467,0.032,0.917,0.312,1.308c0.206,0.287,0.493,0.416,0.849,0.357
			c0.35-0.059,0.595-0.249,0.688-0.6c0.069-0.258,0.127-0.518,0.182-0.777c0.052-0.246,0.164-0.461,0.438-0.438
			c0.265,0.024,0.35,0.268,0.393,0.501c0.021,0.11,0.017,0.228,0.011,0.343c-0.01,0.197-0.033,0.385,0.262,0.393
			c0.302,0.008,0.195-0.212,0.221-0.358C43.736,29.776,43.728,29.719,43.728,29.66z M58.975,5.854
			c0.022-0.277-0.175-0.24-0.345-0.221c-0.568,0.065-1.138,0.134-1.704,0.21c-0.182,0.026-0.453-0.059-0.389,0.314
			c0.059,0.34,0.286,0.188,0.431,0.154c0.465-0.11,0.581,0.122,0.615,0.523c0.055,0.627,0.157,1.25,0.213,1.876
			C57.82,8.977,57.932,9,58.164,8.977c0.273-0.028,0.226-0.186,0.204-0.357c-0.076-0.625-0.111-1.258-0.238-1.872
			c-0.092-0.445,0.015-0.611,0.464-0.623C58.737,6.122,59.027,6.197,58.975,5.854z M72.904,10.306
			c-0.051-0.056-0.082-0.103-0.125-0.135c-0.549-0.415-1.104-0.822-1.646-1.245c-0.161-0.126-0.229-0.039-0.318,0.072
			c-0.271,0.338,0.107,0.398,0.247,0.486c0.325,0.205,0.325,0.373,0.09,0.659c-0.426,0.516-0.811,1.064-1.218,1.596
			c-0.11,0.146-0.201,0.256,0.017,0.408c0.193,0.135,0.304,0.161,0.455-0.057c0.326-0.47,0.711-0.902,1.019-1.384
			c0.288-0.453,0.552-0.694,0.998-0.188c0.063,0.073,0.161,0.193,0.28,0.063C72.779,10.501,72.834,10.402,72.904,10.306z
			 M51.589,39.977c0.011-0.147-0.135-0.163-0.218-0.221c-0.453-0.315-0.906-0.634-1.376-0.924c-0.138-0.085-0.275-0.389-0.503-0.08
			c-0.242,0.33,0.084,0.403,0.242,0.484c0.353,0.18,0.355,0.354,0.132,0.654c-0.385,0.521-0.722,1.076-1.094,1.606
			c-0.138,0.195-0.146,0.306,0.074,0.449c0.22,0.144,0.293,0.032,0.397-0.124c0.326-0.491,0.689-0.962,0.982-1.473
			c0.244-0.426,0.469-0.59,0.87-0.188C51.366,40.432,51.476,40.19,51.589,39.977z M74.967,38.61
			c-0.081-0.058-0.164-0.104-0.232-0.167c-0.421-0.387-0.816-0.803-1.262-1.155c-0.398-0.317-0.634-0.585-0.095-0.971
			c0.122-0.087,0.231-0.192,0.053-0.356c-0.167-0.154-0.274-0.138-0.419,0.028c-0.35,0.401-0.727,0.781-1.068,1.188
			c-0.129,0.151-0.52,0.271-0.188,0.565c0.291,0.261,0.404-0.088,0.515-0.228c0.224-0.277,0.372-0.262,0.614-0.021
			c0.484,0.481,1.003,0.935,1.508,1.396c0.078,0.072,0.148,0.197,0.273,0.067C74.757,38.865,74.839,38.76,74.967,38.61z
			 M44.271,37.667c0.146-0.147,0.422-0.181,0.23-0.446c-0.134-0.188-0.245-0.395-0.4-0.559c-0.259-0.271-0.179-0.425,0.11-0.611
			c0.545-0.351,1.062-0.744,1.597-1.112c0.174-0.12,0.282-0.209,0.115-0.445c-0.181-0.257-0.308-0.121-0.464-0.011
			c-0.686,0.484-1.372,0.969-2.058,1.453c-0.062,0.044-0.143,0.076-0.181,0.138c-0.114,0.176,0.062,0.276,0.14,0.382
			C43.658,36.857,43.894,37.312,44.271,37.667z M69.424,8.052c-0.018-0.197-0.194-0.212-0.316-0.28
			c-0.193-0.109-0.214,0.07-0.271,0.177c-0.406,0.771-0.812,1.543-1.218,2.314c-0.084,0.162-0.213,0.303,0.059,0.458
			c0.286,0.164,0.361,0.003,0.464-0.194c0.392-0.758,0.786-1.514,1.181-2.271C69.356,8.189,69.39,8.122,69.424,8.052z
			 M52.395,40.295c-0.134-0.007-0.173,0.076-0.218,0.166c-0.4,0.801-0.801,1.603-1.209,2.398c-0.105,0.206-0.03,0.303,0.151,0.398
			c0.218,0.114,0.305,0.008,0.39-0.168c0.383-0.789,0.757-1.58,1.162-2.355C52.87,40.354,52.532,40.399,52.395,40.295z
			 M42.413,22.683c0.034-0.372-0.162-0.471-0.375-0.492s-0.361,0.112-0.384,0.335c-0.025,0.252,0.102,0.398,0.352,0.423
			C42.263,22.973,42.391,22.835,42.413,22.683z M77.908,20.305c-0.049-0.173-0.168-0.331-0.425-0.3
			c-0.209,0.025-0.362,0.144-0.353,0.373c0.011,0.237,0.137,0.406,0.396,0.386C77.757,20.746,77.921,20.63,77.908,20.305z
			 M43.588,18.341c-0.011-0.247-0.199-0.345-0.414-0.356c-0.217-0.012-0.355,0.136-0.372,0.354c-0.02,0.262,0.146,0.378,0.382,0.4
			C43.451,18.762,43.553,18.595,43.588,18.341z M77.599,22.358c-0.015,0.421,0.147,0.559,0.378,0.55
			c0.214-0.009,0.407-0.126,0.391-0.396c-0.015-0.218-0.129-0.345-0.361-0.35C77.759,22.158,77.606,22.254,77.599,22.358z
			 M77.214,18.338c-0.052-0.221-0.142-0.415-0.402-0.399c-0.2,0.013-0.373,0.114-0.382,0.348c-0.009,0.234,0.083,0.418,0.35,0.423
			C77.021,18.713,77.16,18.569,77.214,18.338z M42.881,20.46c0.003-0.289-0.159-0.38-0.399-0.389
			c-0.23-0.009-0.358,0.104-0.381,0.328c-0.026,0.266,0.135,0.376,0.37,0.405C42.74,20.837,42.838,20.669,42.881,20.46z"/>
		<path fill="#FFFFFF" d="M77.473,42.458c-0.034,0.038-0.064,0.089-0.109,0.116c-0.088,0.057-0.136-0.021-0.186-0.072
			c-0.268-0.266-0.531-0.533-0.798-0.8c-0.07-0.069-0.128-0.144-0.06-0.241c0.051-0.07,0.131-0.094,0.193-0.033
			c0.311,0.304,0.613,0.612,0.917,0.922C77.455,42.372,77.457,42.415,77.473,42.458z"/>
		<path fill="#FFFFFF" d="M64.888,1.039c-0.063,0.334-0.127,0.668-0.196,1.001c-0.021,0.108-0.051,0.241-0.208,0.2
			c-0.118-0.03-0.099-0.14-0.079-0.233c0.066-0.353,0.135-0.704,0.202-1.057c0.023-0.119,0.062-0.234,0.214-0.191
			C64.979,0.803,64.914,0.933,64.888,1.039z"/>
		<path fill="#FFFFFF" d="M72.484,46.284c-0.057,0.054-0.089,0.099-0.132,0.12c-0.077,0.039-0.14,0.018-0.187-0.064
			c-0.202-0.359-0.408-0.72-0.616-1.076c-0.05-0.086-0.005-0.149,0.053-0.19c0.033-0.022,0.129-0.021,0.146,0.003
			C71.994,45.471,72.236,45.874,72.484,46.284z"/>
		<path fill="#FFFFFF" d="M83.662,23.085c-0.168-0.066-0.512,0.147-0.528-0.087c-0.022-0.317,0.349-0.144,0.538-0.196
			c0.234-0.066,0.49-0.055,0.736-0.076c0.101-0.009,0.203,0.002,0.209,0.126c0.008,0.126-0.104,0.146-0.197,0.156
			C84.175,23.037,83.929,23.057,83.662,23.085z"/>
		<path fill="#FFFFFF" d="M36.161,23.425c-0.207,0-0.414,0.004-0.621-0.001c-0.105-0.002-0.19-0.056-0.183-0.168
			c0.009-0.113,0.103-0.142,0.206-0.135c0.357,0.026,0.715,0.053,1.071,0.079c0.116,0.008,0.256,0.027,0.245,0.169
			c-0.011,0.16-0.16,0.114-0.268,0.109c-0.15-0.007-0.301-0.02-0.451-0.028C36.161,23.442,36.161,23.433,36.161,23.425z"/>
		<path fill="#FFFFFF" d="M56.313,49.086c0.044-0.301,0.09-0.617,0.139-0.934c0.017-0.11,0.031-0.245,0.191-0.206
			c0.116,0.026,0.101,0.137,0.086,0.233c-0.046,0.315-0.078,0.636-0.141,0.949c-0.023,0.118,0.059,0.363-0.193,0.313
			C56.218,49.407,56.325,49.223,56.313,49.086z"/>
		<path fill="#FFFFFF" d="M84.037,26.781c-0.307-0.105-0.864,0.093-0.851-0.214c0.017-0.321,0.528-0.033,0.815-0.087
			c0.019-0.004,0.039-0.004,0.057,0.003c0.194,0.087,0.598-0.082,0.575,0.153C84.604,26.99,84.229,26.674,84.037,26.781z"/>
		<path fill="#FFFFFF" d="M70.024,47.59c-0.04-0.041-0.104-0.084-0.134-0.145c-0.16-0.348-0.314-0.694-0.463-1.046
			c-0.034-0.08-0.08-0.187,0.053-0.237c0.082-0.031,0.146-0.011,0.186,0.076c0.172,0.383,0.348,0.766,0.521,1.146
			C70.246,47.518,70.146,47.547,70.024,47.59z"/>
		<path fill="#FFFFFF" d="M83.065,20.699c-0.145,0.009-0.28,0.062-0.293-0.115c-0.008-0.126,0.104-0.131,0.195-0.149
			c0.351-0.07,0.7-0.143,1.051-0.212c0.115-0.022,0.243-0.031,0.256,0.126c0.011,0.111-0.098,0.15-0.19,0.168
			C83.732,20.582,83.38,20.642,83.065,20.699z"/>
		<path fill="#FFFFFF" d="M37.496,30.527c-0.105,0.224-0.354,0.189-0.533,0.223c-0.312,0.061-0.615,0.29-0.95,0.119
			c-0.053-0.025-0.035-0.165,0.047-0.186c0.424-0.107,0.85-0.202,1.276-0.297C37.427,30.367,37.472,30.43,37.496,30.527z"/>
		<path fill="#FFFFFF" d="M55.537,48.051c-0.068,0.33-0.134,0.664-0.209,0.996c-0.019,0.079,0.003,0.215-0.14,0.198
			c-0.155-0.019-0.156-0.144-0.134-0.26c0.065-0.334,0.132-0.669,0.21-1c0.022-0.097-0.012-0.269,0.148-0.255
			C55.617,47.749,55.536,47.922,55.537,48.051z"/>
		<path fill="#FFFFFF" d="M62.035,1.245c0.113-0.31-0.073-0.838,0.23-0.814c0.336,0.026,0.031,0.489,0.072,0.757
			c0.003,0.019,0,0.038-0.006,0.056c-0.072,0.218,0.082,0.657-0.17,0.627C61.803,1.825,62.201,1.425,62.035,1.245z"/>
		<path fill="#FFFFFF" d="M55.975,0.914c0.001-0.131-0.07-0.274,0.085-0.313c0.232-0.059,0.166,0.15,0.188,0.256
			c0.066,0.332,0.116,0.668,0.172,1.003c0.015,0.09,0.054,0.198-0.078,0.23c-0.154,0.037-0.193-0.077-0.212-0.194
			C56.074,1.56,56.022,1.224,55.975,0.914z"/>
		<path fill="#FFFFFF" d="M74.219,4.827c-0.284,0.391-0.561,0.773-0.846,1.151c-0.012,0.018-0.114-0.006-0.15-0.037
			C73.158,5.883,73.18,5.8,73.224,5.736c0.224-0.329,0.452-0.656,0.679-0.983c0.049-0.071,0.116-0.103,0.193-0.059
			C74.138,4.718,74.166,4.768,74.219,4.827z"/>
		<path fill="#FFFFFF" d="M51.239,1.885c0.04,0.051,0.103,0.102,0.128,0.167c0.137,0.354,0.265,0.712,0.395,1.068
			c0.031,0.087,0.082,0.183-0.064,0.221c-0.085,0.022-0.147,0.002-0.182-0.085c-0.15-0.389-0.307-0.776-0.45-1.169
			C51.023,1.974,51.119,1.924,51.239,1.885z"/>
		<path fill="#FFFFFF" d="M35.942,25.928c-0.17-0.106-0.596,0.221-0.595-0.139c0.001-0.316,0.44-0.085,0.673-0.154
			c0.034-0.011,0.078-0.011,0.112,0c0.224,0.072,0.629-0.207,0.646,0.129c0.013,0.233-0.437,0.127-0.682,0.164
			C36.062,25.934,36.022,25.928,35.942,25.928z"/>
		<path fill="#FFFFFF" d="M44.668,7.527c-0.039,0.077-0.052,0.145-0.09,0.167c-0.039,0.021-0.127,0.021-0.152-0.007
			c-0.302-0.335-0.609-0.665-0.883-1.021c-0.077-0.101,0.076-0.245,0.166-0.16C44.047,6.827,44.352,7.183,44.668,7.527z"/>
		<path fill="#FFFFFF" d="M45.624,4.917c0.091-0.019,0.136,0.04,0.181,0.104c0.221,0.309,0.443,0.615,0.663,0.924
			c0.058,0.081,0.102,0.171-0.008,0.241c-0.072,0.046-0.153,0.021-0.201-0.044c-0.247-0.336-0.494-0.672-0.73-1.016
			C45.466,5.035,45.5,4.944,45.624,4.917z"/>
		<path fill="#FFFFFF" d="M35.94,29.703c-0.1,0.032-0.191,0.023-0.215-0.099c-0.021-0.122,0.065-0.173,0.162-0.19
			c0.373-0.07,0.746-0.137,1.12-0.199c0.094-0.017,0.202-0.022,0.224,0.104c0.021,0.124-0.079,0.161-0.173,0.179
			C36.687,29.568,36.313,29.635,35.94,29.703z"/>
		<path fill="#FFFFFF" d="M37.157,22.213c-0.645,0.135-1.102-0.051-1.565-0.065c-0.086-0.003-0.13-0.082-0.114-0.164
			c0.015-0.081,0.077-0.136,0.165-0.116C36.092,21.968,36.583,21.877,37.157,22.213z"/>
		<path fill="#FFFFFF" d="M35.995,20.642c0.31,0.053,0.646,0.11,0.982,0.169c0.1,0.018,0.194,0.058,0.187,0.173
			c-0.013,0.181-0.146,0.127-0.253,0.108c-0.336-0.059-0.672-0.118-1.009-0.178c-0.104-0.019-0.255,0.008-0.238-0.163
			C35.687,20.529,35.85,20.633,35.995,20.642z"/>
		<path fill="#FFFFFF" d="M66.613,48.682c0.036,0.088-0.037,0.143-0.138,0.164c-0.09,0.019-0.131-0.043-0.153-0.125
			c-0.103-0.385-0.207-0.768-0.312-1.15c-0.021-0.081-0.002-0.155,0.072-0.191c0.117-0.062,0.18,0.025,0.205,0.117
			C66.397,47.877,66.498,48.262,66.613,48.682z"/>
		<path fill="#FFFFFF" d="M47.313,5.541C47.199,5.372,47.045,5.2,46.954,5c-0.116-0.255-0.565-0.567-0.312-0.729
			c0.279-0.18,0.348,0.36,0.534,0.561c0.128,0.137,0.218,0.312,0.31,0.478C47.56,5.443,47.503,5.525,47.313,5.541z"/>
		<path fill="#FFFFFF" d="M81.757,33.452c0.373,0.146,0.746,0.29,1.118,0.435c0.104,0.041,0.149,0.114,0.113,0.224
			c-0.045,0.133-0.134,0.092-0.227,0.054c-0.354-0.144-0.709-0.279-1.061-0.426c-0.082-0.034-0.182-0.086-0.127-0.211
			C81.611,33.448,81.67,33.41,81.757,33.452z"/>
		<path fill="#FFFFFF" d="M46.955,45.985c-0.1-0.043-0.176-0.11-0.11-0.215c0.229-0.368,0.456-0.737,0.71-1.089
			c0.083-0.114,0.277-0.004,0.233,0.078c-0.221,0.412-0.485,0.803-0.739,1.197C47.035,45.979,46.985,45.977,46.955,45.985z"/>
		<path fill="#FFFFFF" d="M62.875,49.318c0,0.062,0.043,0.232-0.146,0.238c-0.138,0.002-0.14-0.158-0.152-0.266
			c-0.039-0.336-0.064-0.674-0.103-1.011c-0.015-0.123-0.017-0.235,0.144-0.238c0.133-0.003,0.129,0.113,0.14,0.201
			C62.796,48.581,62.83,48.917,62.875,49.318z"/>
		<path fill="#FFFFFF" d="M80.935,11.948c0.056,0.041,0.106,0.065,0.136,0.106c0.072,0.106,0.002,0.173-0.082,0.225
			c-0.339,0.206-0.678,0.412-1.018,0.616c-0.064,0.039-0.143,0.079-0.193-0.01c-0.025-0.042-0.041-0.137-0.021-0.15
			C80.143,12.469,80.535,12.212,80.935,11.948z"/>
		<path fill="#FFFFFF" d="M38.875,12.312c0.396,0.243,0.78,0.477,1.16,0.719c0.027,0.018,0.033,0.105,0.017,0.148
			c-0.028,0.071-0.083,0.119-0.174,0.065c-0.372-0.219-0.748-0.433-1.118-0.654c-0.074-0.045-0.074-0.13-0.017-0.194
			C38.775,12.36,38.827,12.342,38.875,12.312z"/>
		<path fill="#FFFFFF" d="M50.364,47.75c-0.143-0.029-0.192-0.109-0.134-0.246c0.158-0.369,0.318-0.734,0.474-1.104
			c0.035-0.083,0.082-0.124,0.172-0.093c0.09,0.031,0.114,0.111,0.085,0.184c-0.163,0.406-0.334,0.811-0.507,1.212
			C50.442,47.727,50.395,47.734,50.364,47.75z"/>
		<path fill="#FFFFFF" d="M68.543,2.017c-0.118,0.325-0.254,0.696-0.389,1.067c-0.037,0.098-0.099,0.163-0.213,0.125
			c-0.135-0.044-0.083-0.141-0.053-0.227c0.131-0.372,0.266-0.743,0.396-1.115c0.027-0.081,0.084-0.132,0.166-0.108
			C68.553,1.788,68.608,1.858,68.543,2.017z"/>
		<path fill="#FFFFFF" d="M69.037,3.646c-0.061-0.021-0.08-0.102-0.039-0.204c0.151-0.369,0.305-0.738,0.461-1.104
			c0.039-0.092,0.111-0.164,0.221-0.092c0.066,0.045,0.096,0.11,0.059,0.196c-0.158,0.366-0.312,0.734-0.473,1.1
			C69.236,3.609,69.19,3.677,69.037,3.646z"/>
		<path fill="#FFFFFF" d="M35.631,28.475c0.039-0.004-0.093,0.031-0.104-0.139c-0.01-0.152,0.114-0.17,0.229-0.185
			c0.336-0.042,0.671-0.09,1.007-0.125c0.1-0.011,0.251-0.058,0.264,0.11c0.013,0.158-0.14,0.151-0.242,0.168
			C36.451,28.361,36.116,28.405,35.631,28.475z"/>
		<path fill="#FFFFFF" d="M44.892,44.547c-0.094-0.064-0.213-0.115-0.097-0.262c0.251-0.314,0.497-0.631,0.747-0.945
			c0.049-0.062,0.113-0.105,0.197-0.064c0.079,0.039,0.117,0.105,0.059,0.182c-0.266,0.35-0.536,0.696-0.808,1.042
			C44.97,44.523,44.927,44.53,44.892,44.547z"/>
		<path fill="#FFFFFF" d="M55.245,2.164c0.025,0.066-0.02,0.14-0.133,0.153c-0.082,0.01-0.134-0.046-0.152-0.132
			c-0.078-0.368-0.162-0.735-0.237-1.105c-0.021-0.108-0.047-0.24,0.119-0.26c0.132-0.016,0.14,0.104,0.159,0.189
			C55.083,1.378,55.158,1.747,55.245,2.164z"/>
		<path fill="#FFFFFF" d="M83.863,30.536c-0.354-0.079-0.687-0.153-1.018-0.229c-0.112-0.024-0.24-0.051-0.214-0.205
			c0.032-0.187,0.166-0.098,0.265-0.076c0.333,0.068,0.666,0.138,0.997,0.217c0.104,0.023,0.246,0.047,0.222,0.201
			C84.086,30.617,83.94,30.529,83.863,30.536z"/>
		<path fill="#FFFFFF" d="M41.647,39.104c-0.059,0.07-0.096,0.135-0.149,0.178c-0.298,0.236-0.599,0.469-0.901,0.699
			c-0.073,0.055-0.148,0.121-0.243,0.016c-0.093-0.104-0.035-0.176,0.04-0.234c0.315-0.244,0.64-0.479,0.953-0.727
			C41.479,38.93,41.54,39.014,41.647,39.104z"/>
		<path fill="#FFFFFF" d="M40.083,36.989c0.05,0.032,0.11,0.051,0.14,0.093c0.056,0.077,0.007,0.151-0.057,0.192
			c-0.354,0.224-0.713,0.44-1.07,0.661c-0.09,0.056-0.15-0.004-0.188-0.063c-0.023-0.036-0.021-0.135,0.006-0.151
			C39.299,37.473,39.689,37.234,40.083,36.989z"/>
		<path fill="#FFFFFF" d="M82.516,31.176c0.377,0.101,0.764,0.2,1.146,0.307c0.103,0.027,0.166,0.093,0.137,0.21
			c-0.034,0.136-0.131,0.106-0.225,0.079c-0.365-0.104-0.729-0.209-1.096-0.313c-0.098-0.028-0.181-0.069-0.148-0.192
			C82.354,31.174,82.426,31.157,82.516,31.176z"/>
		<path fill="#FFFFFF" d="M70.926,2.915c-0.21,0.408-0.415,0.812-0.63,1.212c-0.013,0.023-0.111,0.027-0.15,0.005
			C70.111,4.112,70.07,4.03,70.084,4c0.182-0.395,0.369-0.786,0.562-1.175c0.037-0.074,0.124-0.096,0.194-0.051
			C70.879,2.799,70.896,2.862,70.926,2.915z"/>
		<path fill="#FFFFFF" d="M73.142,4.154c-0.248,0.382-0.492,0.761-0.743,1.135c-0.017,0.025-0.104,0.024-0.146,0.007
			c-0.085-0.036-0.093-0.124-0.052-0.189c0.213-0.354,0.436-0.704,0.654-1.056c0.049-0.077,0.122-0.089,0.191-0.044
			C73.084,4.033,73.103,4.092,73.142,4.154z"/>
		<path fill="#FFFFFF" d="M37.807,31.723c-0.028,0.021-0.062,0.067-0.106,0.082c-0.395,0.123-0.791,0.242-1.188,0.357
			c-0.079,0.023-0.156-0.005-0.177-0.091c-0.01-0.043,0.013-0.13,0.039-0.14c0.43-0.133,0.86-0.262,1.295-0.381
			C37.753,31.53,37.793,31.614,37.807,31.723z"/>
		<path fill="#FFFFFF" d="M83.44,32.844c-0.018,0.174-0.136,0.162-0.25,0.125c-0.36-0.117-0.72-0.24-1.079-0.361
			c-0.097-0.033-0.18-0.09-0.136-0.204c0.046-0.121,0.146-0.086,0.238-0.056c0.36,0.119,0.722,0.234,1.082,0.354
			C83.365,32.725,83.447,32.742,83.44,32.844z"/>
		<path fill="#FFFFFF" d="M81.951,36.364c-0.021,0.11-0.096,0.169-0.164,0.133c-0.4-0.212-0.797-0.435-1.188-0.663
			c-0.026-0.015-0.033-0.113-0.01-0.15c0.021-0.034,0.106-0.068,0.14-0.053c0.391,0.196,0.775,0.399,1.157,0.607
			C81.924,36.26,81.935,36.331,81.951,36.364z"/>
		<path fill="#FFFFFF" d="M38.625,34.004c-0.023,0.016-0.066,0.053-0.117,0.074c-0.367,0.157-0.735,0.312-1.104,0.465
			c-0.095,0.039-0.189,0.036-0.231-0.082c-0.031-0.09,0.029-0.152,0.097-0.182c0.385-0.163,0.771-0.324,1.162-0.473
			C38.537,33.766,38.603,33.846,38.625,34.004z"/>
		<path fill="#FFFFFF" d="M52.721,48.604c-0.144-0.025-0.173-0.097-0.137-0.207c0.125-0.377,0.246-0.757,0.372-1.134
			c0.022-0.067,0.055-0.149,0.149-0.135c0.088,0.014,0.139,0.094,0.118,0.166c-0.117,0.418-0.245,0.834-0.379,1.248
			C52.833,48.578,52.751,48.59,52.721,48.604z"/>
		<path fill="#FFFFFF" d="M39.489,14.154c-0.021,0.144-0.079,0.203-0.229,0.124c-0.354-0.186-0.713-0.361-1.067-0.547
			c-0.062-0.033-0.132-0.086-0.094-0.179c0.031-0.077,0.104-0.141,0.174-0.105c0.392,0.195,0.776,0.402,1.162,0.609
			C39.462,14.072,39.471,14.121,39.489,14.154z"/>
		<path fill="#FFFFFF" d="M37.079,19.897c-0.297-0.07-0.631-0.145-0.962-0.228c-0.099-0.024-0.258-0.01-0.208-0.188
			c0.044-0.16,0.181-0.104,0.283-0.081c0.334,0.071,0.665,0.154,0.998,0.229c0.112,0.025,0.242,0.028,0.201,0.199
			C37.344,20.021,37.213,19.891,37.079,19.897z"/>
		<path fill="#FFFFFF" d="M38.367,16.515c-0.468-0.188-0.856-0.34-1.241-0.501c-0.071-0.03-0.108-0.109-0.07-0.191
			c0.037-0.08,0.11-0.104,0.188-0.073c0.389,0.153,0.776,0.308,1.161,0.47c0.068,0.028,0.118,0.101,0.068,0.187
			C38.432,16.477,38.375,16.521,38.367,16.515z"/>
		<path fill="#FFFFFF" d="M78.053,8.154c-0.369,0.337-0.732,0.67-1.104,0.996c-0.009,0.007-0.094-0.056-0.125-0.099
			c-0.062-0.08-0.002-0.146,0.051-0.197c0.291-0.277,0.584-0.551,0.879-0.824c0.053-0.05,0.109-0.115,0.188-0.043
			C77.979,8.023,78,8.076,78.053,8.154z"/>
		<path fill="#FFFFFF" d="M81.537,16.142c-0.049-0.031-0.108-0.05-0.135-0.091c-0.048-0.077-0.008-0.154,0.066-0.187
			c0.385-0.167,0.771-0.328,1.156-0.488c0.084-0.034,0.147,0.009,0.19,0.079c0.052,0.082,0.026,0.141-0.061,0.177
			C82.353,15.802,81.949,15.97,81.537,16.142z"/>
		<path fill="#FFFFFF" d="M82.521,35.201c-0.062,0.178-0.152,0.176-0.277,0.116c-0.34-0.163-0.687-0.318-1.027-0.479
			c-0.084-0.039-0.186-0.082-0.111-0.203c0.043-0.07,0.121-0.097,0.198-0.062c0.364,0.159,0.729,0.318,1.089,0.486
			C82.449,35.086,82.486,35.159,82.521,35.201z"/>
		<path fill="#FFFFFF" d="M83.668,17.867c0.023,0.092-0.014,0.143-0.101,0.167c-0.401,0.117-0.802,0.237-1.204,0.348
			c-0.072,0.02-0.16-0.016-0.168-0.108c-0.005-0.042,0.031-0.118,0.065-0.129c0.416-0.134,0.834-0.259,1.252-0.385
			C83.609,17.73,83.649,17.788,83.668,17.867z"/>
		<path fill="#FFFFFF" d="M38.073,17.456c-0.021,0.146-0.1,0.173-0.206,0.139c-0.38-0.122-0.759-0.248-1.139-0.369
			c-0.109-0.035-0.159-0.1-0.119-0.211c0.031-0.085,0.104-0.104,0.185-0.076c0.396,0.136,0.792,0.271,1.187,0.413
			C38.021,17.367,38.048,17.427,38.073,17.456z"/>
		<path fill="#FFFFFF" d="M80.244,36.723c0.281,0.17,0.686,0.41,1.084,0.66c0.021,0.014,0.012,0.113-0.016,0.15
			c-0.04,0.057-0.097,0.105-0.188,0.053c-0.354-0.216-0.713-0.422-1.066-0.639c-0.061-0.037-0.109-0.109-0.066-0.193
			C80.016,36.707,80.033,36.643,80.244,36.723z"/>
		<path fill="#FFFFFF" d="M83.031,16.569c0.133-0.039,0.203-0.009,0.242,0.06c0.065,0.117-0.02,0.176-0.111,0.209
			c-0.373,0.135-0.748,0.265-1.125,0.393c-0.072,0.025-0.155,0.026-0.193-0.058c-0.055-0.115,0.018-0.167,0.118-0.204
			C82.334,16.831,82.705,16.69,83.031,16.569z"/>
		<path fill="#FFFFFF" d="M80.678,38.545c-0.061,0.11-0.122,0.187-0.262,0.092c-0.325-0.224-0.657-0.438-0.983-0.66
			c-0.056-0.037-0.134-0.086-0.096-0.176c0.03-0.069,0.101-0.146,0.17-0.103c0.381,0.241,0.754,0.495,1.127,0.748
			C80.658,38.463,80.662,38.51,80.678,38.545z"/>
		<path fill="#FFFFFF" d="M39.754,39.04c-0.129-0.056-0.271-0.145-0.139-0.245c0.36-0.279,0.746-0.527,1.135-0.769
			c0.056-0.034,0.216,0.112,0.145,0.17C40.525,38.496,40.132,38.766,39.754,39.04z"/>
		<path fill="#FFFFFF" d="M42.354,40.123c-0.075,0.068-0.168,0.157-0.265,0.24c-0.229,0.198-0.459,0.396-0.69,0.591
			c-0.075,0.063-0.156,0.11-0.246,0.021c-0.066-0.066-0.061-0.144,0.002-0.195c0.332-0.281,0.663-0.564,1.009-0.828
			C42.258,39.879,42.334,39.963,42.354,40.123z"/>
		<path fill="#FFFFFF" d="M67.363,1.563c-0.117,0.38-0.238,0.781-0.365,1.181c-0.025,0.078-0.092,0.124-0.178,0.088
			c-0.087-0.035-0.102-0.112-0.08-0.189c0.112-0.384,0.229-0.768,0.347-1.15c0.022-0.074,0.077-0.131,0.169-0.118
			C67.354,1.386,67.365,1.459,67.363,1.563z"/>
		<path fill="#FFFFFF" d="M66.095,1.418c-0.06,0.231-0.146,0.581-0.233,0.931c-0.025,0.099-0.072,0.183-0.19,0.161
			c-0.132-0.024-0.113-0.123-0.089-0.221c0.086-0.349,0.172-0.699,0.26-1.049c0.025-0.104,0.021-0.245,0.195-0.208
			C66.213,1.07,66.139,1.195,66.095,1.418z"/>
		<path fill="#FFFFFF" d="M63.222,1.776c0.046-0.341,0.094-0.682,0.136-1.022c0.018-0.129,0.062-0.227,0.21-0.2
			c0.136,0.022,0.109,0.133,0.095,0.226c-0.053,0.339-0.104,0.68-0.166,1.018c-0.02,0.098,0.015,0.263-0.157,0.249
			C63.162,2.032,63.233,1.88,63.222,1.776z"/>
		<path fill="#FFFFFF" d="M70.593,45.592c0.063,0.051,0.119,0.076,0.142,0.119c0.198,0.363,0.391,0.729,0.583,1.096
			c0.039,0.074,0.046,0.139-0.034,0.191c-0.071,0.049-0.155,0.061-0.195-0.015c-0.211-0.397-0.416-0.8-0.61-1.206
			C70.461,45.744,70.546,45.663,70.593,45.592z"/>
		<path fill="#FFFFFF" d="M61.274,48.721c0.056-0.176-0.126-0.543,0.113-0.556c0.29-0.017,0.173,0.372,0.173,0.558
			c0,0.308,0.273,0.76-0.111,0.879C61.297,49.649,61.339,49.051,61.274,48.721z"/>
		<path fill="#FFFFFF" d="M75.594,44.078c-0.016,0.17-0.129,0.27-0.213,0.178c-0.309-0.334-0.594-0.689-0.861-1.058
			c-0.078-0.106,0.089-0.25,0.154-0.183C75.003,43.356,75.298,43.729,75.594,44.078z"/>
		<path fill="#FFFFFF" d="M60.8,1.076c0.138-0.266-0.146-0.735,0.22-0.725c0.294,0.008,0.108,0.481,0.089,0.724
			c-0.019,0.242,0.13,0.726-0.173,0.703C60.635,1.756,60.927,1.298,60.8,1.076z"/>
		<path fill="#FFFFFF" d="M72.675,44.424c0.106,0.006,0.157,0.084,0.209,0.162c0.187,0.284,0.379,0.565,0.559,0.854
			c0.052,0.081,0.183,0.177,0.035,0.286c-0.179,0.135-0.222-0.038-0.288-0.141c-0.195-0.3-0.388-0.604-0.583-0.906
			C72.533,44.567,72.517,44.473,72.675,44.424z"/>
		<path fill="#FFFFFF" d="M79.26,11.934c-0.053-0.023-0.109-0.035-0.145-0.069c-0.063-0.065-0.045-0.141,0.023-0.19
			c0.354-0.25,0.707-0.498,1.064-0.742c0.084-0.058,0.145,0.016,0.18,0.078c0.02,0.035,0.017,0.12-0.01,0.139
			C80.01,11.414,79.638,11.671,79.26,11.934z"/>
		<path fill="#FFFFFF" d="M51.541,48.225c-0.176-0.045-0.181-0.155-0.139-0.271c0.131-0.354,0.268-0.707,0.405-1.059
			c0.035-0.092,0.093-0.188,0.203-0.123c0.045,0.025,0.079,0.138,0.061,0.189c-0.134,0.395-0.28,0.783-0.429,1.172
			C51.625,48.176,51.57,48.2,51.541,48.225z"/>
		<path fill="#FFFFFF" d="M67.336,46.999c0.022,0.032,0.07,0.072,0.088,0.123c0.136,0.396,0.268,0.794,0.392,1.193
			c0.013,0.039-0.022,0.118-0.059,0.14c-0.069,0.041-0.159,0.025-0.188-0.06c-0.143-0.413-0.283-0.827-0.41-1.244
			C67.134,47.068,67.229,47.03,67.336,46.999z"/>
		<path fill="#FFFFFF" d="M45.417,6.988c-0.152-0.177-0.314-0.313-0.411-0.487c-0.146-0.264-0.653-0.575-0.43-0.729
			c0.297-0.206,0.421,0.366,0.654,0.562c0.113,0.096,0.194,0.231,0.284,0.354C45.607,6.81,45.537,6.884,45.417,6.988z"/>
		<path fill="#FFFFFF" d="M53.918,48.946c-0.122-0.024-0.133-0.119-0.107-0.214c0.099-0.383,0.203-0.764,0.307-1.146
			c0.021-0.072,0.048-0.146,0.146-0.131c0.096,0.016,0.128,0.1,0.113,0.167c-0.091,0.403-0.191,0.806-0.295,1.204
			C54.065,48.897,54.02,48.969,53.918,48.946z"/>
		<path fill="#FFFFFF" d="M68.979,47.76c0.07,0.215,0.017,0.263-0.059,0.295c-0.087,0.037-0.146,0.004-0.179-0.08
			c-0.149-0.389-0.303-0.776-0.449-1.168c-0.029-0.075-0.012-0.147,0.076-0.181c0.094-0.032,0.153,0.026,0.183,0.095
			C68.715,47.104,68.869,47.492,68.979,47.76z"/>
		<path fill="#FFFFFF" d="M83.187,21.909c-0.094,0.007-0.209,0.025-0.2-0.112c0.004-0.057,0.077-0.147,0.131-0.157
			c0.393-0.066,0.789-0.118,1.185-0.172c0.075-0.01,0.155-0.003,0.175,0.096c0.023,0.125-0.061,0.17-0.16,0.186
			C83.939,21.804,83.562,21.855,83.187,21.909z"/>
		<path fill="#FFFFFF" d="M78.869,9.052c-0.078,0.205-0.267,0.317-0.434,0.427c-0.256,0.165-0.574,0.667-0.723,0.459
			c-0.201-0.281,0.359-0.436,0.551-0.683c0.091-0.118,0.225-0.204,0.344-0.3C78.736,8.854,78.812,8.921,78.869,9.052z"/>
		<path fill="#FFFFFF" d="M82.771,19.531c-0.109,0.006-0.218,0.041-0.247-0.091c-0.03-0.134,0.075-0.148,0.166-0.172
			c0.365-0.094,0.729-0.19,1.095-0.282c0.092-0.023,0.196-0.051,0.22,0.087c0.018,0.11-0.05,0.176-0.151,0.2
			C83.486,19.362,83.119,19.448,82.771,19.531z"/>
		<path fill="#FFFFFF" d="M64.13,49.125c0.007,0.107,0.055,0.242-0.12,0.254c-0.114,0.006-0.159-0.091-0.174-0.187
			c-0.059-0.371-0.11-0.744-0.168-1.115c-0.019-0.106,0-0.19,0.121-0.2c0.138-0.01,0.129,0.107,0.146,0.194
			C64,48.422,64.065,48.773,64.13,49.125z"/>
		<path fill="#FFFFFF" d="M42.179,10.166c-0.079,0.141-0.152,0.206-0.282,0.099c-0.309-0.255-0.622-0.503-0.93-0.759
			c-0.073-0.062-0.13-0.133-0.037-0.235c0.095-0.105,0.168-0.048,0.241,0.014c0.294,0.243,0.586,0.487,0.877,0.734
			C42.1,10.063,42.14,10.121,42.179,10.166z"/>
		<path fill="#FFFFFF" d="M38.172,32.801c0.013,0.196-0.173,0.185-0.277,0.213c-0.389,0.107-0.731,0.401-1.167,0.304
			c-0.041-0.011-0.041-0.161,0.041-0.191c0.408-0.153,0.82-0.298,1.233-0.436C38.072,32.667,38.155,32.694,38.172,32.801z"/>
		<path fill="#FFFFFF" d="M75.215,7.47c-0.036-0.024-0.098-0.046-0.123-0.089C75.043,7.304,75.1,7.24,75.149,7.182
			c0.249-0.291,0.494-0.584,0.745-0.873c0.046-0.053,0.102-0.131,0.188-0.079c0.046,0.027,0.093,0.076,0.105,0.125
			C76.211,6.433,75.314,7.462,75.215,7.47z"/>
		<path fill="#FFFFFF" d="M39.552,11.225c0.38,0.271,0.763,0.54,1.14,0.818c0.022,0.016,0.013,0.108-0.011,0.148
			c-0.049,0.081-0.126,0.062-0.193,0.018c-0.347-0.227-0.692-0.453-1.037-0.682c-0.064-0.043-0.114-0.105-0.053-0.183
			C39.431,11.303,39.482,11.278,39.552,11.225z"/>
		<path fill="#FFFFFF" d="M57.577,48.963c0.031-0.246,0.06-0.494,0.096-0.74c0.012-0.08,0.066-0.141,0.155-0.131
			c0.141,0.018,0.116,0.133,0.109,0.221c-0.03,0.361-0.068,0.724-0.104,1.085c-0.009,0.091,0.004,0.204-0.133,0.206
			c-0.176,0.004-0.157-0.125-0.147-0.239c0.012-0.134,0.027-0.267,0.041-0.399C57.588,48.963,57.582,48.963,57.577,48.963z"/>
		<path fill="#FFFFFF" d="M42.988,42.872c-0.115-0.039-0.225-0.114-0.112-0.237c0.28-0.312,0.575-0.612,0.877-0.904
			c0.105-0.104,0.215-0.057,0.252,0.087C44.025,41.901,43.085,42.871,42.988,42.872z"/>
		<path fill="#FFFFFF" d="M81.733,13.259c-0.056,0.048-0.114,0.119-0.19,0.162c-0.248,0.138-0.497,0.274-0.754,0.393
			c-0.133,0.061-0.303,0.303-0.418,0.063c-0.101-0.206,0.184-0.236,0.311-0.317c0.254-0.162,0.523-0.302,0.791-0.442
			C81.588,13.055,81.692,13.069,81.733,13.259z"/>
		<path fill="#FFFFFF" d="M37.415,18.729c-0.314-0.086-0.643-0.171-0.969-0.265c-0.104-0.03-0.239-0.069-0.207-0.217
			c0.037-0.164,0.174-0.104,0.274-0.076c0.326,0.093,0.65,0.191,0.974,0.293c0.095,0.03,0.257,0.005,0.218,0.183
			C37.667,18.82,37.534,18.741,37.415,18.729z"/>
		<path fill="#FFFFFF" d="M50.666,3.59c0.038,0.124,0.017,0.203-0.075,0.203c-0.063,0.001-0.162-0.039-0.186-0.09
			c-0.174-0.361-0.333-0.729-0.493-1.097c-0.033-0.076-0.022-0.152,0.059-0.192c0.08-0.039,0.155-0.01,0.19,0.067
			C50.338,2.862,50.51,3.245,50.666,3.59z"/>
		<path fill="#FFFFFF" d="M65.38,48.948c0.017,0.077,0.02,0.159-0.065,0.188c-0.101,0.037-0.197,0-0.222-0.106
			c-0.091-0.404-0.173-0.812-0.254-1.216c-0.019-0.085,0.024-0.147,0.116-0.153c0.088-0.004,0.139,0.056,0.156,0.134
			C65.203,48.178,65.291,48.563,65.38,48.948z"/>
		<path fill="#FFFFFF" d="M78.83,38.664c0.371,0.285,0.744,0.569,1.112,0.86c0.015,0.012-0.012,0.098-0.036,0.137
			c-0.051,0.074-0.125,0.077-0.193,0.025c-0.333-0.247-0.664-0.497-0.995-0.745c-0.07-0.053-0.097-0.122-0.047-0.189
			C78.699,38.713,78.763,38.699,78.83,38.664z"/>
		<path fill="#FFFFFF" d="M37.707,14.562c0.406,0.198,0.816,0.396,1.222,0.603c0.024,0.012,0.033,0.128,0.015,0.14
			c-0.058,0.036-0.147,0.081-0.198,0.06c-0.383-0.167-0.76-0.348-1.138-0.523c-0.087-0.04-0.106-0.11-0.057-0.181
			C37.58,14.617,37.644,14.599,37.707,14.562z"/>
		<path fill="#FFFFFF" d="M81.062,15.046c-0.05-0.025-0.116-0.037-0.138-0.075c-0.042-0.072-0.018-0.151,0.06-0.19
			c0.368-0.188,0.737-0.373,1.108-0.556c0.072-0.035,0.146-0.032,0.188,0.054c0.033,0.072,0.038,0.15-0.045,0.191
			C81.848,14.663,81.457,14.851,81.062,15.046z"/>
		<path fill="#FFFFFF" d="M79.175,40.588c-0.062,0.096-0.109,0.213-0.255,0.09c-0.307-0.258-0.617-0.513-0.924-0.771
			c-0.059-0.048-0.111-0.108-0.065-0.194c0.04-0.076,0.112-0.117,0.185-0.06c0.344,0.272,0.684,0.551,1.021,0.831
			C79.16,40.504,79.162,40.551,79.175,40.588z"/>
		<path fill="#FFFFFF" d="M54.05,2.342c0.012,0.117,0.045,0.225-0.075,0.263c-0.179,0.057-0.163-0.102-0.191-0.197
			c-0.102-0.343-0.198-0.687-0.296-1.03c-0.025-0.091-0.05-0.191,0.07-0.231c0.112-0.037,0.185,0.036,0.211,0.131
			C53.869,1.638,53.96,2.003,54.05,2.342z"/>
		<path fill="#FFFFFF" d="M72.056,3.501c-0.233,0.397-0.461,0.79-0.697,1.178c-0.017,0.025-0.114,0.03-0.149,0.007
			c-0.035-0.023-0.071-0.108-0.055-0.14c0.198-0.387,0.404-0.77,0.616-1.149c0.041-0.073,0.128-0.087,0.196-0.037
			C72.007,3.388,72.024,3.449,72.056,3.501z"/>
		<path fill="#FFFFFF" d="M76.162,8.29c-0.075-0.038-0.143-0.051-0.166-0.089c-0.021-0.039-0.021-0.123,0.008-0.153
			c0.295-0.324,0.586-0.654,0.904-0.954c0.103-0.097,0.268,0.061,0.203,0.139C76.817,7.6,76.484,7.938,76.162,8.29z"/>
		<path fill="#FFFFFF" d="M78.494,10.941c-0.129-0.038-0.177-0.144-0.062-0.238c0.336-0.277,0.688-0.536,1.037-0.795
			c0.025-0.019,0.111,0.007,0.141,0.039s0.036,0.101,0.026,0.148C79.619,10.18,78.59,10.947,78.494,10.941z"/>
		<path fill="#FFFFFF" d="M83.882,24.3c-0.218-0.119-0.63,0.237-0.649-0.146c-0.014-0.255,0.442-0.147,0.68-0.14
			c0.259,0.009,0.75-0.156,0.734,0.091C84.623,24.454,84.147,24.19,83.882,24.3z"/>
		<path fill="#FFFFFF" d="M43.91,43.727c-0.026-0.021-0.073-0.051-0.105-0.09c-0.065-0.082,0.004-0.146,0.048-0.195
			c0.246-0.289,0.499-0.572,0.748-0.858c0.052-0.059,0.108-0.12,0.19-0.079c0.042,0.021,0.083,0.076,0.092,0.123
			C44.899,42.723,44.024,43.723,43.91,43.727z"/>
		<path fill="#FFFFFF" d="M83.521,27.657c0.261,0.036,0.522,0.069,0.782,0.11c0.102,0.017,0.258-0.021,0.251,0.146
			c-0.006,0.16-0.146,0.138-0.258,0.125c-0.318-0.037-0.638-0.069-0.953-0.118c-0.114-0.017-0.315,0.053-0.312-0.139
			c0.006-0.186,0.191-0.126,0.316-0.122c0.057,0.002,0.113,0.008,0.17,0.013C83.519,27.666,83.52,27.661,83.521,27.657z"/>
		<path fill="#FFFFFF" d="M35.732,27.194c-0.108-0.021-0.321,0.121-0.33-0.132c-0.005-0.176,0.178-0.158,0.306-0.167
			c0.301-0.021,0.601-0.042,0.901-0.06c0.124-0.007,0.296-0.055,0.3,0.145c0.004,0.165-0.159,0.113-0.259,0.124
			C36.351,27.137,36.051,27.164,35.732,27.194z"/>
		<path fill="#FFFFFF" d="M48.849,45.391c-0.237,0.41-0.473,0.82-0.717,1.227c-0.011,0.018-0.114,0.003-0.154-0.023
			c-0.074-0.054-0.057-0.14-0.02-0.205c0.191-0.352,0.387-0.698,0.584-1.045c0.039-0.068,0.104-0.115,0.188-0.086
			C48.782,45.275,48.845,45.295,48.849,45.391z"/>
		<path fill="#FFFFFF" d="M37.896,35.717c-0.132,0.013-0.186-0.035-0.215-0.111c-0.04-0.102,0.05-0.135,0.108-0.164
			c0.356-0.176,0.714-0.35,1.077-0.51c0.055-0.023,0.159-0.006,0.202,0.035c0.058,0.055,0.038,0.144-0.043,0.185
			C38.638,35.346,38.247,35.54,37.896,35.717z"/>
		<path fill="#FFFFFF" d="M49.028,47.182c-0.026-0.006,0.005-0.113,0.06-0.226c0.166-0.341,0.333-0.682,0.506-1.019
			c0.044-0.088,0.12-0.161,0.227-0.109c0.12,0.059,0.068,0.153,0.027,0.239c-0.158,0.323-0.315,0.647-0.475,0.971
			C49.332,47.122,49.304,47.223,49.028,47.182z"/>
		<path fill="#FFFFFF" d="M52.416,1.486c0.101-0.003,0.112,0.072,0.136,0.146c0.114,0.362,0.234,0.724,0.346,1.087
			c0.028,0.09,0.045,0.194-0.079,0.234c-0.142,0.045-0.148-0.071-0.178-0.158c-0.12-0.361-0.235-0.724-0.362-1.082
			C52.228,1.567,52.261,1.496,52.416,1.486z"/>
		<path fill="#FFFFFF" d="M47.743,3.543c0.112-0.007,0.165,0.064,0.213,0.151c0.167,0.298,0.337,0.595,0.508,0.891
			c0.06,0.104,0.121,0.223,0.002,0.303c-0.146,0.097-0.192-0.063-0.245-0.149c-0.187-0.31-0.364-0.624-0.545-0.937
			C47.611,3.692,47.572,3.591,47.743,3.543z"/>
		<path fill="#FFFFFF" d="M75.207,5.557c0.01,0.086-0.829,1.155-0.909,1.142c-0.091-0.016-0.214-0.075-0.136-0.186
			c0.252-0.357,0.514-0.709,0.791-1.045C75.056,5.344,75.154,5.439,75.207,5.557z"/>
		<path fill="#FFFFFF" d="M42.942,9.258c-0.025,0.041-0.053,0.127-0.085,0.129c-0.065,0.004-0.149-0.02-0.199-0.062
			c-0.286-0.247-0.568-0.5-0.844-0.759c-0.046-0.044-0.068-0.129-0.069-0.195c-0.001-0.031,0.068-0.082,0.113-0.093
			C41.941,8.258,42.935,9.159,42.942,9.258z"/>
		<path fill="#FFFFFF" d="M36.029,24.389c0.268,0.094,0.725-0.127,0.734,0.177c0.008,0.241-0.474,0.116-0.729,0.11
			c-0.235-0.004-0.692,0.152-0.679-0.114C35.375,24.14,35.823,24.559,36.029,24.389z"/>
		<path fill="#FFFFFF" d="M39.494,35.941c0.059,0.047,0.113,0.072,0.142,0.115c0.061,0.09-0.021,0.147-0.079,0.181
			c-0.363,0.206-0.732,0.405-1.102,0.603c-0.081,0.043-0.153,0.002-0.178-0.08c-0.012-0.043,0-0.125,0.028-0.143
			C38.698,36.387,39.094,36.167,39.494,35.941z"/>
		<path fill="#FFFFFF" d="M77.313,40.518c0.349,0.33,0.695,0.656,1.035,0.99c0.011,0.01-0.035,0.101-0.071,0.135
			c-0.066,0.062-0.137,0.031-0.197-0.024c-0.297-0.271-0.592-0.542-0.89-0.812c-0.062-0.059-0.092-0.129-0.038-0.197
			C77.181,40.57,77.242,40.557,77.313,40.518z"/>
		<path fill="#FFFFFF" d="M74.423,45.057c-0.044-0.033-0.112-0.066-0.152-0.12c-0.225-0.304-0.442-0.613-0.662-0.923
			c-0.058-0.082-0.092-0.176,0.011-0.243c0.067-0.044,0.146-0.017,0.196,0.054c0.246,0.335,0.495,0.668,0.734,1.008
			C74.621,44.937,74.548,45.004,74.423,45.057z"/>
		<path fill="#FFFFFF" d="M46.804,44.143c-0.272,0.375-0.537,0.744-0.811,1.108c-0.018,0.023-0.104,0.017-0.146-0.005
			c-0.082-0.039-0.092-0.117-0.043-0.188c0.239-0.344,0.481-0.685,0.725-1.022c0.049-0.065,0.122-0.098,0.193-0.039
			C46.758,44.027,46.772,44.086,46.804,44.143z"/>
		<path fill="#FFFFFF" d="M84.047,29.293c-0.333-0.062-0.684-0.13-1.034-0.197c-0.078-0.017-0.147-0.058-0.146-0.146
			c0.006-0.132,0.108-0.136,0.203-0.12c0.353,0.059,0.704,0.12,1.055,0.188c0.103,0.019,0.253,0.013,0.22,0.181
			C84.311,29.368,84.164,29.272,84.047,29.293z"/>
		<path fill="#FFFFFF" d="M42.065,41.971c-0.134-0.055-0.151-0.16-0.053-0.258c0.298-0.293,0.604-0.578,0.916-0.855
			c0.086-0.077,0.18-0.046,0.213,0.072C43.176,41.049,42.209,41.99,42.065,41.971z"/>
		<path fill="#FFFFFF" d="M43.798,8.363c-0.038,0.06-0.058,0.113-0.095,0.145c-0.072,0.06-0.145,0.019-0.198-0.034
			c-0.283-0.276-0.563-0.556-0.843-0.837c-0.05-0.051-0.116-0.106-0.051-0.188c0.046-0.058,0.114-0.148,0.181-0.085
			C43.132,7.687,43.458,8.023,43.798,8.363z"/>
		<path fill="#FFFFFF" d="M75.593,42.219c0.151,0.16,0.342,0.32,0.478,0.519c0.147,0.217,0.604,0.468,0.399,0.628
			c-0.299,0.232-0.402-0.298-0.622-0.459c-0.15-0.109-0.26-0.275-0.38-0.423C75.371,42.366,75.398,42.276,75.593,42.219z"/>
		<path fill="#FFFFFF" d="M57.604,1.57c-0.037,0.131,0.103,0.354-0.138,0.36c-0.174,0.004-0.123-0.205-0.141-0.321
			c-0.048-0.317-0.072-0.639-0.108-0.959c-0.013-0.105,0.008-0.193,0.123-0.214c0.137-0.023,0.142,0.085,0.152,0.178
			C57.531,0.933,57.567,1.254,57.604,1.57z"/>
		<path fill="#FFFFFF" d="M40.316,10.214c0.345,0.276,0.712,0.568,1.073,0.867c0.017,0.015-0.007,0.115-0.039,0.14
			c-0.034,0.026-0.117,0.033-0.15,0.009c-0.354-0.253-0.71-0.502-1.043-0.78C40.049,10.358,40.126,10.248,40.316,10.214z"/>
		<path fill="#FFFFFF" d="M59.134,48.87c-0.104,0.291,0.096,0.785-0.17,0.772c-0.314-0.017-0.12-0.473-0.107-0.73
			c0.014-0.25-0.144-0.715,0.159-0.705C59.312,48.219,58.979,48.67,59.134,48.87z"/>
		<path fill="#FFFFFF" d="M49.478,4.338c-0.113,0.008-0.141-0.064-0.176-0.132c-0.165-0.318-0.331-0.638-0.498-0.956
			c-0.055-0.104-0.104-0.216,0.027-0.294c0.161-0.096,0.192,0.068,0.236,0.149c0.169,0.317,0.326,0.641,0.48,0.965
			C49.6,4.178,49.615,4.291,49.478,4.338z"/>
		<path fill="#FFFFFF" d="M58.811,1.136c-0.139,0.214,0.192,0.644-0.135,0.658c-0.288,0.013-0.164-0.452-0.151-0.685
			c0.014-0.252-0.242-0.709,0.101-0.725C58.914,0.373,58.659,0.878,58.811,1.136z"/>
		<path fill="#FFFFFF" d="M84.011,25.538c-0.284-0.102-0.736,0.119-0.748-0.17c-0.01-0.229,0.478-0.114,0.731-0.104
			c0.229,0.011,0.67-0.167,0.658,0.134C84.64,25.703,84.201,25.377,84.011,25.538z"/>
		<path fill="#FFFFFF" d="M59.822,1.819c-0.144-0.42-0.066-0.858-0.078-1.289c-0.002-0.094,0.016-0.198,0.148-0.195
			c0.102,0.002,0.111,0.088,0.112,0.161c0.003,0.442,0.001,0.885,0.001,1.327C59.944,1.822,59.882,1.82,59.822,1.819z"/>
		<path fill="#FFFFFF" d="M60.062,48.922c0.118-0.217-0.153-0.647,0.173-0.654c0.247-0.004,0.108,0.445,0.105,0.684
			c-0.005,0.25,0.152,0.721-0.127,0.713C59.93,49.655,60.163,49.184,60.062,48.922z"/>
		<path fill="#FFFFFF" d="M65.451,26.067c0,2.965-0.011,5.931,0.011,8.896c0.003,0.428-0.091,0.523-0.526,0.508
			c-6.679-0.238-12.088-5.813-12.089-12.482c0-1.99,0.013-3.979-0.011-5.969c-0.005-0.416,0.112-0.536,0.512-0.48
			c0.778,0.107,1.547,0.252,2.243,0.632c0.259,0.141,0.464,0.155,0.738,0.021c1.869-0.92,3.754-0.905,5.625-0.008
			c0.276,0.134,0.472,0.121,0.73-0.017c0.684-0.362,1.43-0.521,2.189-0.622c0.408-0.055,0.595,0.011,0.591,0.513
			C65.436,20.059,65.451,23.063,65.451,26.067z M59.148,21.121c-0.112-0.301-0.185-0.56-0.3-0.796
			c-0.631-1.298-2.186-1.857-3.502-1.271c-1.339,0.596-1.965,2.171-1.392,3.502c0.571,1.33,2.099,2.011,3.415,1.452
			c0.438-0.186,0.657-0.104,0.955,0.21c0.793,0.837,0.826,0.841,1.635-0.021c0.297-0.314,0.52-0.354,0.916-0.186
			c1.346,0.573,2.891-0.098,3.461-1.458c0.562-1.344-0.064-2.896-1.412-3.49C61.326,18.359,59.75,19.208,59.148,21.121z"/>
		<path fill="#FFFFFF" d="M49.659,9.26c0.527-0.013,1.255,0.824,1.25,1.438c-0.003,0.421-0.465,0.863-0.909,0.871
			c-0.505,0.009-1.213-0.78-1.243-1.386C48.732,9.719,49.168,9.272,49.659,9.26z"/>
		<path fill="#FFFFFF" d="M54.929,8.593c-0.002,0.493-0.406,0.889-0.921,0.9c-0.53,0.012-1.095-0.761-1.083-1.481
			c0.009-0.489,0.421-0.883,0.935-0.893C54.405,7.109,54.932,7.835,54.929,8.593z"/>
		<path fill="#FFFFFF" d="M44.358,32.748c0.02,0.501-0.71,1.08-1.405,1.116c-0.482,0.026-0.896-0.39-0.901-0.905
			c-0.007-0.529,0.685-1.088,1.386-1.119C43.897,31.819,44.34,32.256,44.358,32.748z"/>
		<path fill="#FFFFFF" d="M53.573,43.078c0.033-0.765,0.503-1.379,1.04-1.361c0.547,0.018,0.922,0.429,0.891,0.975
			c-0.045,0.773-0.508,1.377-1.043,1.359C53.897,44.031,53.548,43.648,53.573,43.078z"/>
		<path fill="#FFFFFF" d="M70.881,38.885c0.296,0.026,0.482,0.188,0.494,0.463c0.014,0.356-0.277,0.621-0.547,0.631
			c-0.295,0.011-0.521-0.387-0.551-0.625C70.242,39.062,70.623,38.975,70.881,38.885z"/>
		<path fill="#FFFFFF" d="M77.99,28.691c-0.143,0.119,0.131,0.553-0.31,0.473c-0.246-0.045-0.665,0.109-0.694-0.305
			c-0.022-0.297,0.041-0.68,0.473-0.717C77.809,28.112,77.968,28.33,77.99,28.691z"/>
		<path fill="#FFFFFF" d="M68.089,40.844c0.089,0.143,0.155,0.307,0.271,0.422c0.51,0.512,0.514,0.506-0.275,0.804
			c-0.055-0.376-0.108-0.74-0.162-1.104C67.978,40.924,68.033,40.885,68.089,40.844z"/>
		<path fill="#FFFFFF" d="M65.123,41.828c0.371,0.036,0.555,0.229,0.535,0.566c-0.023,0.412-0.377,0.582-0.676,0.547
			c-0.387-0.049-0.32-0.508-0.367-0.78C64.549,41.776,64.986,41.973,65.123,41.828z"/>
		<path fill="#FFFFFF" d="M56.863,19.78c-0.498,0.635-0.534,1.106-0.115,1.488c0.391,0.356,0.865,0.297,1.398-0.176
			c0.237,0.714-0.047,1.498-0.701,1.932c-0.668,0.442-1.574,0.388-2.183-0.132c-0.639-0.545-0.817-1.429-0.442-2.182
			C55.21,19.923,55.917,19.6,56.863,19.78z"/>
		<path fill="#FFFFFF" d="M60.142,21.114c0.585,0.455,1.035,0.506,1.406,0.157c0.409-0.384,0.379-0.795-0.113-1.49
			c1.031-0.122,1.711,0.209,2.063,1.004c0.33,0.743,0.138,1.606-0.478,2.128c-0.597,0.508-1.526,0.561-2.182,0.125
			C60.188,22.605,59.91,21.838,60.142,21.114z"/>
	</g>
</g>
</svg>
