<?xml version="1.0" encoding="utf-8"?>
<!-- Generator: Adobe Illustrator 16.0.0, SVG Export Plug-In . SVG Version: 6.00 Build 0)  -->
<!DOCTYPE svg PUBLIC "-//W3C//DTD SVG 1.1//EN" "http://www.w3.org/Graphics/SVG/1.1/DTD/svg11.dtd">
<svg version="1.1" id="Capa_1" xmlns="http://www.w3.org/2000/svg" xmlns:xlink="http://www.w3.org/1999/xlink" x="0px" y="0px"
	 width="100px" height="70px" viewBox="0 0 100 70" enable-background="new 0 0 100 70" xml:space="preserve">
<g>
	
		<image overflow="visible" opacity="0.4" width="126" height="78" xlink:href="3C201CC0D8CEB635.png"  transform="matrix(1 0 0 1 -12.667 -3.6592)">
	</image>
	<g>
		<g>
			<path fill="#FFFFFF" d="M20.472,22.533c0.726-0.594,1.508-1.05,2.333-1.376h-4.796v3.81
				C18.559,24.237,19.377,23.429,20.472,22.533"/>
			<path fill="#FFFFFF" d="M26.031,25.897c-2.545,0-4.446,0.706-5.766,2.08c-1.346,1.404-1.994,2.968-1.997,4.771v15.586h9.152
				V25.98c-0.198-0.028-0.392-0.051-0.569-0.06C26.603,25.903,26.33,25.897,26.031,25.897"/>
			<rect x="2.485" y="21.157" fill="#FFFFFF" width="10.033" height="27.175"/>
			<rect x="75.214" y="45.567" fill="#FFFFFF" width="2.384" height="2.555"/>
			<rect x="84.997" y="45.567" fill="#FFFFFF" width="2.387" height="2.555"/>
			<rect x="94.257" y="45.567" fill="#FFFFFF" width="2.385" height="2.555"/>
			<path fill="#FFFFFF" d="M60.501,31.577l10.156-10.172h-6.345L53.754,32.185V11.608h-4.706v33.105
				c-0.066,0.004-0.152,0.02-0.216,0.025c-0.233,0.024-0.438,0.032-0.612,0.032c-0.562,0.006-0.841-0.139-0.923-0.282
				c-0.139-0.21-0.221-0.507-0.221-0.925v-15.19c0.011-2.577-0.993-4.561-2.946-5.792c-1.943-1.217-4.449-1.814-7.5-1.814
				c-2.649,0-4.994,0.65-7.007,1.96c-2.083,1.335-3.145,3.746-3.225,7.067l-0.008,0.33h4.593l0.036-0.283
				c0.153-1.331,0.486-2.307,0.96-2.93c0.865-1.153,2.351-1.759,4.556-1.766c1.904,0,3.354,0.343,4.323,0.98
				c0.956,0.635,1.417,1.585,1.429,3.03c0,0.711-0.097,1.229-0.256,1.556c-0.285,0.612-0.828,0.98-1.762,1.106l-6.872,0.884
				c-2.456,0.321-4.471,1.166-6.01,2.555c-1.555,1.411-2.335,3.418-2.334,5.93c-0.001,2.305,0.799,4.27,2.364,5.802
				c1.569,1.542,3.601,2.313,6.032,2.313c2.026,0,3.887-0.445,5.572-1.337c1.438-0.755,2.602-1.642,3.472-2.65
				c0.156,0.769,0.382,1.398,0.679,1.9c0.73,1.182,1.936,1.776,3.484,1.766c0.615,0,1.107-0.023,1.477-0.075
				c0.375-0.054,0.896-0.182,1.572-0.381l0.22-0.062v-0.049h3.829V38.34l3.157-3.168l7.91,13.243h6.188L60.501,31.577z
				 M30.157,41.087c0.011-1.596,0.599-2.667,1.843-3.403c0.731-0.426,1.882-0.764,3.421-0.97l2.606-0.346
				c0.81-0.101,1.636-0.265,2.48-0.495c0.631-0.182,1.185-0.394,1.66-0.642v3.026c-0.012,2.62-1.113,4.413-3.424,5.59
				c-1.389,0.7-2.809,1.048-4.284,1.048c-1.196,0-2.196-0.349-3.057-1.042C30.565,43.17,30.168,42.282,30.157,41.087"/>
			<path fill="#FFFFFF" d="M4.312,52.648v0.513c-0.175-0.081-0.331-0.124-0.46-0.124c-0.094,0-0.168,0.02-0.234,0.064
				C3.558,53.14,3.517,53.188,3.5,53.243c-0.022,0.054-0.027,0.195-0.027,0.426v0.552h0.795v0.449H3.473v3.619H2.982V54.67H2.485
				v-0.449h0.498v-0.638c0-0.287,0.023-0.499,0.075-0.621c0.049-0.124,0.135-0.231,0.257-0.304c0.116-0.077,0.263-0.116,0.43-0.116
				C3.905,52.543,4.09,52.582,4.312,52.648"/>
			<path fill="#FFFFFF" d="M9.841,54.221v4.068H9.361v-0.7c-0.203,0.265-0.436,0.464-0.689,0.599
				c-0.252,0.132-0.533,0.203-0.832,0.203c-0.54,0-0.999-0.212-1.38-0.631c-0.375-0.413-0.563-0.916-0.563-1.518
				c0-0.583,0.188-1.089,0.571-1.506c0.388-0.417,0.844-0.623,1.387-0.623c0.31,0,0.593,0.077,0.839,0.211
				c0.256,0.148,0.479,0.357,0.669,0.638v-0.743H9.841z M7.89,54.617c-0.268,0-0.521,0.077-0.751,0.216
				c-0.226,0.144-0.413,0.349-0.547,0.602c-0.136,0.263-0.207,0.535-0.207,0.824c0,0.287,0.071,0.562,0.208,0.824
				c0.138,0.261,0.323,0.464,0.552,0.612c0.229,0.139,0.478,0.214,0.744,0.214c0.266,0,0.523-0.068,0.757-0.214
				c0.241-0.147,0.422-0.342,0.553-0.586c0.128-0.25,0.196-0.524,0.196-0.832c0-0.475-0.148-0.869-0.438-1.181
				C8.672,54.782,8.314,54.617,7.89,54.617 M8.189,52.316H8.94l-1.034,1.149H7.431L8.189,52.316z"/>
			<path fill="#FFFFFF" d="M12.04,58.29v-5.641h0.489v2.272c0.204-0.271,0.435-0.471,0.685-0.605
				c0.255-0.129,0.532-0.201,0.829-0.201c0.537,0,0.999,0.211,1.377,0.629c0.377,0.415,0.567,0.918,0.567,1.516
				c0,0.59-0.189,1.093-0.575,1.511c-0.382,0.415-0.842,0.623-1.383,0.623c-0.303,0-0.583-0.071-0.836-0.212
				c-0.252-0.146-0.471-0.359-0.665-0.646v0.755H12.04z M13.991,57.89c0.273,0,0.524-0.077,0.751-0.217
				c0.233-0.143,0.414-0.349,0.548-0.601c0.133-0.262,0.202-0.535,0.202-0.829c0-0.289-0.068-0.56-0.202-0.824
				c-0.137-0.261-0.324-0.464-0.556-0.61c-0.228-0.146-0.477-0.22-0.737-0.22c-0.267,0-0.52,0.075-0.758,0.22
				c-0.243,0.146-0.424,0.34-0.555,0.588c-0.123,0.244-0.194,0.522-0.194,0.833c0,0.471,0.144,0.869,0.438,1.182
				C13.217,57.731,13.573,57.89,13.991,57.89"/>
			<path fill="#FFFFFF" d="M17.764,54.221h0.498v0.592c0.152-0.237,0.306-0.413,0.47-0.526c0.166-0.116,0.334-0.173,0.516-0.173
				c0.133,0,0.276,0.049,0.432,0.141l-0.255,0.438c-0.098-0.044-0.183-0.073-0.258-0.073c-0.159,0-0.319,0.073-0.468,0.219
				c-0.149,0.141-0.264,0.364-0.343,0.666c-0.063,0.233-0.093,0.7-0.093,1.406v1.378h-0.498V54.221z"/>
			<path fill="#FFFFFF" d="M21.336,52.543c0.106,0,0.2,0.042,0.285,0.126c0.076,0.085,0.117,0.188,0.117,0.308
				c0,0.12-0.041,0.216-0.117,0.303c-0.084,0.088-0.178,0.129-0.285,0.129c-0.111,0-0.207-0.041-0.288-0.129
				c-0.072-0.087-0.114-0.184-0.114-0.303c0-0.12,0.042-0.223,0.114-0.308C21.129,52.586,21.225,52.543,21.336,52.543
				 M21.092,54.221h0.487v4.068h-0.487V54.221z"/>
			<path fill="#FFFFFF" d="M27.345,55.066l-0.392,0.255c-0.333-0.473-0.785-0.713-1.366-0.713c-0.458,0-0.846,0.161-1.151,0.476
				c-0.306,0.321-0.46,0.71-0.46,1.166c0,0.295,0.074,0.576,0.215,0.837c0.138,0.261,0.333,0.46,0.578,0.607
				c0.243,0.146,0.516,0.214,0.822,0.214c0.557,0,1.013-0.236,1.362-0.713l0.392,0.27c-0.182,0.295-0.425,0.522-0.733,0.683
				c-0.308,0.16-0.654,0.244-1.044,0.244c-0.596,0-1.097-0.208-1.492-0.614c-0.395-0.411-0.588-0.903-0.588-1.494
				c0-0.385,0.089-0.758,0.275-1.091c0.186-0.343,0.437-0.605,0.762-0.792c0.322-0.19,0.681-0.287,1.084-0.287
				c0.251,0,0.492,0.039,0.725,0.124c0.234,0.082,0.431,0.19,0.596,0.321C27.086,54.694,27.228,54.857,27.345,55.066"/>
			<path fill="#FFFFFF" d="M33.13,54.221v4.068h-0.481v-0.7c-0.207,0.265-0.435,0.464-0.689,0.599
				c-0.252,0.132-0.533,0.203-0.839,0.203c-0.535,0-0.993-0.212-1.371-0.631c-0.382-0.413-0.567-0.916-0.567-1.518
				c0-0.583,0.188-1.089,0.571-1.506c0.386-0.417,0.849-0.623,1.383-0.623c0.315,0,0.591,0.077,0.844,0.211
				c0.257,0.148,0.473,0.357,0.667,0.638v-0.743H33.13z M31.177,54.617c-0.271,0-0.519,0.077-0.748,0.216
				c-0.232,0.144-0.414,0.349-0.552,0.602c-0.135,0.263-0.203,0.535-0.203,0.824c0,0.287,0.068,0.562,0.207,0.824
				c0.135,0.261,0.317,0.464,0.551,0.612c0.233,0.139,0.482,0.214,0.743,0.214c0.267,0,0.522-0.068,0.757-0.214
				c0.244-0.147,0.426-0.342,0.556-0.586c0.125-0.25,0.193-0.524,0.193-0.832c0-0.475-0.145-0.869-0.432-1.181
				C31.957,54.782,31.599,54.617,31.177,54.617"/>
			<path fill="#FFFFFF" d="M42.127,52.648v5.641h-0.483v-0.7c-0.207,0.265-0.433,0.464-0.685,0.599
				c-0.256,0.132-0.538,0.203-0.84,0.203c-0.534,0-0.992-0.212-1.37-0.631c-0.384-0.413-0.574-0.916-0.574-1.518
				c0-0.583,0.189-1.089,0.574-1.506c0.388-0.417,0.847-0.623,1.383-0.623c0.315,0,0.598,0.077,0.848,0.211
				c0.254,0.148,0.475,0.357,0.663,0.638v-2.315H42.127z M40.176,54.617c-0.269,0-0.521,0.077-0.75,0.216
				c-0.227,0.144-0.411,0.349-0.548,0.602c-0.136,0.263-0.203,0.535-0.203,0.824c0,0.287,0.066,0.562,0.203,0.824
				c0.139,0.261,0.321,0.464,0.555,0.612c0.227,0.139,0.475,0.214,0.738,0.214c0.267,0,0.523-0.068,0.762-0.214
				c0.236-0.147,0.422-0.342,0.549-0.586c0.128-0.25,0.194-0.524,0.194-0.832c0-0.475-0.145-0.869-0.432-1.181
				C40.959,54.782,40.598,54.617,40.176,54.617"/>
			<path fill="#FFFFFF" d="M47.495,56.941l0.41,0.225c-0.138,0.287-0.292,0.514-0.469,0.689c-0.175,0.18-0.372,0.311-0.597,0.4
				c-0.22,0.088-0.47,0.137-0.747,0.137c-0.622,0-1.103-0.216-1.454-0.652c-0.347-0.437-0.521-0.925-0.521-1.475
				c0-0.516,0.149-0.976,0.441-1.382c0.374-0.507,0.875-0.768,1.502-0.768c0.646,0,1.164,0.266,1.55,0.79
				c0.276,0.367,0.412,0.834,0.42,1.393H44.62c0.008,0.471,0.149,0.86,0.418,1.155c0.272,0.306,0.612,0.456,1.015,0.456
				c0.187,0,0.378-0.033,0.558-0.105c0.183-0.073,0.342-0.171,0.467-0.289C47.206,57.395,47.345,57.205,47.495,56.941
				 M47.495,55.839c-0.068-0.272-0.163-0.501-0.289-0.664c-0.122-0.171-0.284-0.31-0.494-0.407
				c-0.202-0.103-0.417-0.154-0.643-0.154c-0.375,0-0.689,0.128-0.959,0.39c-0.199,0.188-0.341,0.462-0.444,0.834H47.495z"/>
			<path fill="#FFFFFF" d="M54.96,54.667l-0.31,0.346c-0.258-0.27-0.518-0.411-0.768-0.411c-0.155,0-0.294,0.062-0.403,0.173
				c-0.113,0.107-0.174,0.237-0.174,0.39c0,0.137,0.047,0.259,0.141,0.381c0.093,0.116,0.291,0.263,0.587,0.424
				c0.365,0.208,0.607,0.402,0.737,0.586c0.13,0.188,0.197,0.406,0.197,0.64c0,0.334-0.111,0.617-0.327,0.85
				c-0.223,0.231-0.495,0.347-0.823,0.347c-0.216,0-0.428-0.049-0.627-0.154c-0.196-0.101-0.36-0.244-0.49-0.422l0.305-0.374
				c0.246,0.297,0.511,0.451,0.795,0.451c0.194,0,0.356-0.066,0.496-0.199c0.139-0.137,0.208-0.291,0.208-0.479
				c0-0.143-0.047-0.283-0.137-0.4c-0.092-0.114-0.291-0.259-0.612-0.435c-0.345-0.188-0.58-0.37-0.697-0.556
				c-0.127-0.182-0.189-0.394-0.189-0.631c0-0.311,0.103-0.572,0.295-0.775c0.198-0.201,0.446-0.304,0.744-0.304
				C54.259,54.114,54.605,54.298,54.96,54.667"/>
			<path fill="#FFFFFF" d="M58.693,54.114c0.581,0,1.063,0.229,1.454,0.68c0.349,0.413,0.521,0.906,0.521,1.47
				c0,0.567-0.188,1.066-0.557,1.488c-0.367,0.428-0.843,0.64-1.418,0.64c-0.583,0-1.059-0.212-1.428-0.64
				c-0.37-0.421-0.553-0.92-0.553-1.488c0-0.564,0.172-1.05,0.523-1.461C57.618,54.343,58.106,54.114,58.693,54.114 M58.693,54.628
				c-0.406,0-0.76,0.165-1.048,0.477c-0.293,0.325-0.436,0.715-0.436,1.171c0,0.297,0.063,0.573,0.202,0.824
				c0.128,0.252,0.307,0.447,0.531,0.589c0.228,0.139,0.476,0.205,0.751,0.205c0.268,0,0.517-0.066,0.741-0.205
				c0.226-0.142,0.405-0.336,0.537-0.589c0.136-0.25,0.202-0.527,0.202-0.824c0-0.456-0.149-0.846-0.44-1.171
				C59.438,54.792,59.094,54.628,58.693,54.628"/>
			<rect x="62.568" y="52.648" fill="#FFFFFF" width="0.486" height="5.641"/>
			<path fill="#FFFFFF" d="M65.077,54.221h0.489v1.896c0,0.466,0.019,0.785,0.065,0.958c0.073,0.248,0.207,0.44,0.401,0.588
				c0.199,0.148,0.43,0.216,0.707,0.216c0.269,0,0.5-0.068,0.69-0.208c0.192-0.143,0.322-0.325,0.393-0.556
				c0.05-0.154,0.078-0.49,0.078-0.999v-1.896h0.491v1.992c0,0.567-0.058,0.987-0.179,1.27c-0.125,0.287-0.311,0.509-0.552,0.667
				c-0.245,0.165-0.552,0.242-0.921,0.242c-0.371,0-0.682-0.077-0.928-0.242c-0.245-0.158-0.428-0.39-0.551-0.672
				c-0.121-0.289-0.183-0.721-0.183-1.301V54.221z"/>
			<path fill="#FFFFFF" d="M74.229,55.066l-0.387,0.255c-0.339-0.473-0.79-0.713-1.368-0.713c-0.463,0-0.847,0.161-1.154,0.476
				c-0.302,0.321-0.458,0.71-0.458,1.166c0,0.295,0.072,0.576,0.212,0.837c0.136,0.261,0.336,0.46,0.576,0.607
				c0.244,0.146,0.521,0.214,0.824,0.214c0.564,0,1.016-0.236,1.368-0.713l0.387,0.27c-0.183,0.295-0.426,0.522-0.733,0.683
				c-0.305,0.16-0.652,0.244-1.037,0.244c-0.604,0-1.101-0.208-1.495-0.614c-0.395-0.411-0.594-0.903-0.594-1.494
				c0-0.385,0.092-0.758,0.275-1.091c0.187-0.343,0.439-0.605,0.766-0.792c0.324-0.19,0.678-0.287,1.081-0.287
				c0.249,0,0.494,0.039,0.73,0.124c0.231,0.082,0.43,0.19,0.591,0.321C73.977,54.694,74.111,54.857,74.229,55.066"/>
			<path fill="#FFFFFF" d="M76.402,52.543c0.11,0,0.208,0.042,0.286,0.126c0.078,0.085,0.118,0.188,0.118,0.308
				c0,0.12-0.04,0.216-0.118,0.303c-0.077,0.088-0.175,0.129-0.286,0.129c-0.107,0-0.201-0.041-0.282-0.129
				c-0.076-0.087-0.114-0.184-0.114-0.303c0-0.12,0.038-0.223,0.114-0.308C76.201,52.586,76.295,52.543,76.402,52.543
				 M76.161,54.221h0.486v4.068h-0.486V54.221z"/>
			<path fill="#FFFFFF" d="M80.529,54.114c0.585,0,1.067,0.229,1.446,0.68c0.354,0.413,0.528,0.906,0.528,1.47
				c0,0.567-0.181,1.066-0.553,1.488c-0.369,0.428-0.842,0.64-1.421,0.64c-0.585,0-1.062-0.212-1.424-0.64
				c-0.371-0.421-0.555-0.92-0.555-1.488c0-0.564,0.171-1.05,0.521-1.461C79.453,54.343,79.942,54.114,80.529,54.114 M80.523,54.628
				c-0.404,0-0.75,0.165-1.043,0.477c-0.294,0.325-0.436,0.715-0.436,1.171c0,0.297,0.072,0.573,0.202,0.824
				c0.131,0.252,0.31,0.447,0.537,0.589c0.224,0.139,0.471,0.205,0.74,0.205c0.274,0,0.523-0.066,0.747-0.205
				c0.231-0.142,0.409-0.336,0.54-0.589c0.132-0.25,0.202-0.527,0.202-0.824c0-0.456-0.147-0.846-0.441-1.171
				C81.275,54.792,80.933,54.628,80.523,54.628"/>
			<path fill="#FFFFFF" d="M84.478,54.221h0.486v0.728c0.199-0.278,0.411-0.488,0.653-0.629c0.231-0.133,0.491-0.206,0.77-0.206
				c0.288,0,0.533,0.081,0.755,0.233c0.221,0.152,0.381,0.359,0.484,0.629c0.104,0.257,0.161,0.666,0.161,1.216v2.097h-0.489v-1.943
				c0-0.467-0.02-0.779-0.057-0.94c-0.056-0.27-0.165-0.471-0.326-0.604c-0.156-0.137-0.368-0.208-0.628-0.208
				c-0.294,0-0.553,0.11-0.785,0.315c-0.238,0.212-0.393,0.471-0.467,0.779c-0.045,0.202-0.07,0.57-0.07,1.107v1.494h-0.486V54.221z
				"/>
			<path fill="#FFFFFF" d="M93.089,56.941l0.413,0.225c-0.134,0.287-0.289,0.514-0.467,0.689c-0.178,0.18-0.374,0.311-0.594,0.4
				c-0.223,0.088-0.475,0.137-0.75,0.137c-0.621,0-1.104-0.216-1.452-0.652c-0.347-0.437-0.524-0.925-0.524-1.475
				c0-0.516,0.149-0.976,0.444-1.382c0.372-0.507,0.876-0.768,1.506-0.768c0.644,0,1.161,0.266,1.545,0.79
				c0.272,0.367,0.416,0.834,0.419,1.393h-3.412c0.006,0.471,0.149,0.86,0.423,1.155c0.273,0.306,0.606,0.456,1.006,0.456
				c0.193,0,0.381-0.033,0.565-0.105c0.179-0.073,0.336-0.171,0.465-0.289C92.804,57.395,92.943,57.205,93.089,56.941
				 M93.089,55.839c-0.065-0.272-0.16-0.501-0.282-0.664c-0.126-0.171-0.29-0.31-0.492-0.407c-0.208-0.103-0.42-0.154-0.644-0.154
				c-0.375,0-0.695,0.128-0.963,0.39c-0.195,0.188-0.342,0.462-0.439,0.834H93.089z"/>
			<path fill="#FFFFFF" d="M97.512,54.667l-0.309,0.346c-0.264-0.27-0.518-0.411-0.763-0.411c-0.162,0-0.297,0.062-0.413,0.173
				c-0.114,0.107-0.171,0.237-0.171,0.39c0,0.137,0.047,0.259,0.143,0.381c0.091,0.116,0.291,0.263,0.589,0.424
				c0.358,0.208,0.608,0.402,0.74,0.586c0.125,0.188,0.187,0.406,0.187,0.64c0,0.334-0.104,0.617-0.329,0.85
				c-0.218,0.231-0.49,0.347-0.816,0.347c-0.223,0-0.429-0.049-0.627-0.154c-0.2-0.101-0.364-0.244-0.492-0.422l0.306-0.374
				c0.25,0.297,0.516,0.451,0.789,0.451c0.196,0,0.363-0.066,0.5-0.199c0.14-0.137,0.207-0.291,0.207-0.479
				c0-0.143-0.046-0.283-0.136-0.4c-0.091-0.114-0.296-0.259-0.618-0.435c-0.339-0.188-0.573-0.37-0.691-0.556
				c-0.123-0.182-0.187-0.394-0.187-0.631c0-0.311,0.101-0.572,0.3-0.775c0.191-0.201,0.441-0.304,0.739-0.304
				C96.807,54.114,97.163,54.298,97.512,54.667"/>
		</g>
	</g>
</g>
<g>
	<g>
		<defs>
			<rect id="SVGID_14_" x="1757.333" y="2699.341" width="204" height="198"/>
		</defs>
		<clipPath id="SVGID_1_">
			<use xlink:href="#SVGID_14_"  overflow="visible"/>
		</clipPath>
		<g clip-path="url(#SVGID_1_)">
			<defs>
				<rect id="SVGID_19_" x="848.333" y="58.341" width="680" height="399"/>
			</defs>
			<clipPath id="SVGID_3_">
				<use xlink:href="#SVGID_19_"  overflow="visible"/>
			</clipPath>
			<g clip-path="url(#SVGID_3_)">
				
					<image overflow="visible" width="1200" height="800" xlink:href="../Downloads/_HOT8510.jpg"  transform="matrix(-1.1938 0 0 0.5694 878.3882 64.5977)">
				</image>
			</g>
		</g>
	</g>
</g>
</svg>
