<?xml version="1.0" encoding="utf-8"?>
<!-- Generator: Adobe Illustrator 16.0.0, SVG Export Plug-In . SVG Version: 6.00 Build 0)  -->
<!DOCTYPE svg PUBLIC "-//W3C//DTD SVG 1.1//EN" "http://www.w3.org/Graphics/SVG/1.1/DTD/svg11.dtd">
<svg version="1.1" id="Capa_1" xmlns="http://www.w3.org/2000/svg" xmlns:xlink="http://www.w3.org/1999/xlink" x="0px" y="0px"
	 width="120px" height="50px" viewBox="0 0 120 50" enable-background="new 0 0 120 50" xml:space="preserve">
<g>
	<g>
		<defs>
			<rect id="SVGID_14_" x="1912" y="2270" width="204" height="198"/>
		</defs>
		<clipPath id="SVGID_1_">
			<use xlink:href="#SVGID_14_"  overflow="visible"/>
		</clipPath>
		<g clip-path="url(#SVGID_1_)">
			<defs>
				<rect id="SVGID_19_" x="1003" y="-371" width="680" height="399"/>
			</defs>
			<clipPath id="SVGID_3_">
				<use xlink:href="#SVGID_19_"  overflow="visible"/>
			</clipPath>
			<g clip-path="url(#SVGID_3_)">
				
					<image overflow="visible" width="1200" height="800" xlink:href="../Downloads/_HOT8510.jpg"  transform="matrix(-1.1938 0 0 0.5694 1033.0552 -364.7432)">
				</image>
			</g>
		</g>
	</g>
</g>
<g>
	<g>
		<path fill-rule="evenodd" clip-rule="evenodd" fill="#FFFFFF" d="M32.78,48.133c0-5.841,0-11.682,0-17.59c1.216,0,2.364,0,3.512,0
			c0.15,0,0.3-0.004,0.45,0c0.699,0.021,1.571-0.201,2.05,0.137c0.482,0.34,0.583,1.231,0.834,1.887
			c1.557,4.09,3.109,8.181,4.665,12.271c0.066,0.173,0.154,0.338,0.272,0.594c1.029-2.844,2.024-5.591,3.017-8.338
			c0.704-1.947,1.405-3.896,2.104-5.844c0.104-0.288,0.187-0.531,0.597-0.526c1.902,0.022,3.805,0.01,5.708,0.014
			c0.101,0,0.203,0.039,0.323,0.062c0,6.188,0,12.356,0,18.564c-1.372,0-2.704,0-4.084,0c0-4.491,0-8.951,0-13.411
			c-0.035-0.011-0.07-0.021-0.105-0.031c-0.067,0.136-0.146,0.267-0.199,0.408c-1.577,4.173-3.16,8.344-4.717,12.525
			c-0.162,0.435-0.366,0.58-0.823,0.567c-1.218-0.032-2.438-0.037-3.655,0.003c-0.476,0.015-0.654-0.17-0.814-0.584
			c-1.672-4.32-3.364-8.632-5.053-12.945c-0.058-0.147-0.132-0.288-0.289-0.409c0,4.605,0,9.211,0,13.862
			c-0.2,0.02-0.362,0.05-0.525,0.05c-2.288,0.007-4.574,0-6.861,0.021c-0.393,0.004-0.604-0.089-0.758-0.481
			c-0.447-1.131-0.961-2.235-1.422-3.361c-0.142-0.345-0.322-0.483-0.709-0.479c-2.158,0.02-4.318,0.019-6.477,0
			c-0.38-0.002-0.569,0.13-0.72,0.472c-0.501,1.132-1.047,2.245-1.548,3.377c-0.152,0.343-0.347,0.468-0.727,0.461
			c-1.303-0.024-2.605-0.009-3.988-0.009c0.073-0.217,0.122-0.389,0.189-0.554c2.42-5.953,4.846-11.902,7.252-17.859
			c0.173-0.428,0.39-0.571,0.844-0.559c1.11,0.033,2.224,0.049,3.333-0.005c0.535-0.026,0.736,0.194,0.924,0.638
			c2.347,5.566,4.712,11.125,7.073,16.687c0.057,0.134,0.119,0.266,0.178,0.399C32.68,48.142,32.73,48.138,32.78,48.133z
			 M22.906,35.295c-0.856,2.263-1.655,4.377-2.464,6.516c1.708,0,3.312,0,4.98,0C24.585,39.642,23.773,37.542,22.906,35.295z"/>
		<path fill-rule="evenodd" clip-rule="evenodd" fill="#FFFFFF" d="M90.103,22.757c-0.695,0.711-1.256,1.428-1.953,1.976
			c-2.846,2.239-6.011,2.651-9.264,1.123c-3.238-1.521-4.933-4.211-4.98-7.814c-0.06-4.597,3.283-8.298,7.841-8.761
			c0.53-0.053,0.75-0.207,0.807-0.8c0.462-4.787,4.605-8.253,9.375-7.89c4.604,0.352,8.1,4.246,7.99,8.897
			c-0.095,3.98-2.307,7.035-5.87,8.132c-0.529,0.164-0.979,0.235-1.337-0.317c-0.319-0.493-0.439-1.382-0.146-1.761
			c0.102-0.131,0.312-0.199,0.484-0.251c3.073-0.931,4.826-3.738,4.328-6.942c-0.464-2.999-3.152-5.29-6.192-5.279
			c-3.206,0.011-5.978,2.657-6.169,5.882c-0.023,0.389,0.094,0.606,0.498,0.761c3.834,1.462,5.925,4.586,5.835,8.661
			c-0.05,2.275,1.882,4.765,4.346,5.453c4.125,1.155,7.998-1.495,7.965-5.96c-0.015-2.113-0.97-3.816-2.714-5.047
			c-0.563-0.398-0.618-1.083-0.136-1.767c0.461-0.653,1.016-0.786,1.61-0.384c3.016,2.042,4.433,5.793,3.554,9.408
			c-0.873,3.595-3.671,6.158-7.351,6.556c-3.269,0.354-6.011-0.74-8.094-3.344C90.389,23.111,90.245,22.935,90.103,22.757z
			 M82.616,24.16c3.635-0.001,6.267-2.831,6.109-6.854c-0.127-3.227-3.169-5.535-6.101-5.521c-3.403,0.016-6.209,2.813-6.197,6.212
			C76.438,21.353,79.258,24.162,82.616,24.16z"/>
		<path fill-rule="evenodd" clip-rule="evenodd" fill="#FFFFFF" d="M69.812,42.977c0,2.168,0,4.255,0,6.383c-1.56,0-3.062,0-4.604,0
			c0-6.223,0-12.426,0-18.703c0.277,0,0.526,0,0.777,0c3.951,0,7.905,0.061,11.855-0.02c2.904-0.059,4.956,1.733,5.965,4.102
			c1.673,3.929-1.247,8.111-5.694,8.226c-2.498,0.064-4.999,0.012-7.499,0.012C70.38,42.977,70.147,42.977,69.812,42.977z
			 M69.934,39.656c2.164,0,4.255,0.055,6.341-0.021c1.202-0.044,2.164-0.642,2.606-1.844c0.653-1.773-0.855-3.867-2.819-3.898
			c-1.62-0.025-3.243-0.005-4.864-0.005c-0.417,0-0.836,0-1.264,0C69.934,35.849,69.934,37.718,69.934,39.656z"/>
		<path fill-rule="evenodd" clip-rule="evenodd" fill="#FFFFFF" d="M35.961,26.625c-1.755-0.018-3.448-0.29-5.006-1.154
			c-2.924-1.623-4.455-4.822-3.98-8.306c0.463-3.399,2.835-5.966,6.275-6.695c2.456-0.52,4.888-0.429,7.224,0.596
			c2.981,1.307,4.819,4.376,4.588,7.632c-0.327,4.629-3.288,7.558-7.949,7.862C36.729,26.587,36.345,26.604,35.961,26.625z
			 M36.002,14.217c-2.609-0.006-4.246,1.582-4.259,4.135c-0.015,2.574,1.658,4.258,4.229,4.262c2.581,0.003,4.294-1.691,4.278-4.23
			C40.234,15.835,38.591,14.224,36.002,14.217z"/>
		<path fill-rule="evenodd" clip-rule="evenodd" fill="#FFFFFF" d="M100.673,30.791c0,1.177,0,2.279,0,3.477
			c-0.235,0-0.46,0-0.687,0c-2.201,0-4.402,0-6.604,0c-1.541,0-2.867,0.861-3.323,2.332c-0.661,2.133-0.851,4.318-0.285,6.511
			c0.528,2.046,1.764,3.01,3.875,3.034c2.137,0.023,4.274,0.003,6.411,0.004c0.188,0,0.375,0.019,0.592,0.029
			c0,1.073,0,2.108,0,3.227c-0.254,0-0.481,0-0.709,0c-2.607,0-5.219-0.093-7.821,0.026c-2.785,0.126-5.577-1.751-6.543-4.546
			c-1.199-3.471-1.041-6.914,0.709-10.174c1.395-2.598,3.591-3.972,6.617-3.926C95.47,30.822,98.035,30.791,100.673,30.791z"/>
		<path fill-rule="evenodd" clip-rule="evenodd" fill="#FFFFFF" d="M62.532,21.309c0,1.302,0.013,2.491-0.018,3.679
			c-0.004,0.149-0.228,0.354-0.396,0.426c-3.31,1.426-6.714,1.735-10.1,0.428c-3.008-1.163-4.582-3.517-4.808-6.739
			c-0.1-1.42,0.021-2.818,0.596-4.145c1.107-2.557,3.178-3.889,5.792-4.485c2.914-0.662,5.73-0.131,8.496,0.804
			c0.156,0.053,0.33,0.329,0.334,0.503c0.029,1.196,0.016,2.392,0.016,3.71c-0.306-0.17-0.54-0.292-0.766-0.426
			c-1.944-1.14-4.003-1.619-6.205-0.935c-1.741,0.541-3.031,1.624-3.386,3.495c-0.317,1.66,0.214,3.083,1.534,4.172
			c0.996,0.823,2.169,1.179,3.443,1.191c1.615,0.017,3.121-0.418,4.542-1.17C61.88,21.673,62.152,21.518,62.532,21.309z"/>
		<path fill-rule="evenodd" clip-rule="evenodd" fill="#FFFFFF" d="M12.86,21.606c0.808,0.402,1.5,0.78,2.218,1.096
			c1.137,0.5,2.322,0.702,3.564,0.477c0.592-0.108,0.978-0.445,1.106-1.015c0.121-0.543-0.159-0.981-0.595-1.253
			c-0.558-0.35-1.164-0.623-1.75-0.926c-0.795-0.411-1.626-0.766-2.382-1.241c-1.86-1.17-2.6-2.926-2.178-4.985
			c0.359-1.749,1.848-3.08,3.892-3.423c2.276-0.383,4.462-0.061,6.563,0.893c0.375,0.17,0.547,0.376,0.531,0.818
			c-0.04,0.98-0.013,1.963-0.013,3.055c-0.241-0.141-0.416-0.24-0.589-0.345c-1.123-0.677-2.278-1.279-3.62-1.355
			c-0.442-0.025-0.94-0.068-1.321,0.102c-0.383,0.169-0.827,0.55-0.92,0.92c-0.083,0.328,0.19,0.857,0.468,1.135
			c0.349,0.349,0.856,0.547,1.308,0.788c0.923,0.49,1.877,0.927,2.778,1.455c2.122,1.244,2.858,2.698,2.528,4.859
			c-0.277,1.815-1.792,3.283-3.931,3.734c-2.538,0.535-4.966,0.047-7.324-0.907c-0.149-0.061-0.314-0.304-0.318-0.465
			C12.848,23.916,12.86,22.807,12.86,21.606z"/>
		<path fill-rule="evenodd" clip-rule="evenodd" fill="#FFFFFF" d="M57.841,30.685c1.673,0,3.29,0,4.952,0
			c0,6.228,0,12.435,0,18.681c-1.652,0-3.284,0-4.952,0C57.841,43.139,57.841,36.948,57.841,30.685z"/>
		<path fill-rule="evenodd" clip-rule="evenodd" fill="#FFFFFF" d="M107.089,30.708c0,6.22,0,12.408,0,18.646
			c-1.636,0-3.269,0-4.951,0c0-6.192,0-12.393,0-18.646C103.755,30.708,105.387,30.708,107.089,30.708z"/>
		<path fill-rule="evenodd" clip-rule="evenodd" fill="#FFFFFF" d="M70.628,10.466c0,5.306,0,10.576,0,15.895
			c-1.532,0-3.057,0-4.63,0c0-5.284,0-10.567,0-15.895C67.54,10.466,69.063,10.466,70.628,10.466z"/>
	</g>
</g>
</svg>
