<?xml version="1.0" encoding="utf-8"?>
<!-- Generator: Adobe Illustrator 16.0.0, SVG Export Plug-In . SVG Version: 6.00 Build 0)  -->
<!DOCTYPE svg PUBLIC "-//W3C//DTD SVG 1.1//EN" "http://www.w3.org/Graphics/SVG/1.1/DTD/svg11.dtd">
<svg version="1.1" id="Capa_1" xmlns="http://www.w3.org/2000/svg" xmlns:xlink="http://www.w3.org/1999/xlink" x="0px" y="0px"
	 width="160px" height="80px" viewBox="0 0 160 80" enable-background="new 0 0 160 80" xml:space="preserve">
<g>
	<path fill="#FFFFFF" d="M33.071,20.186c1.154-0.944,2.396-1.669,3.708-2.187h-7.622v6.055
		C30.031,22.894,31.332,21.611,33.071,20.186"/>
	<path fill="#FFFFFF" d="M41.907,25.533c-4.045,0-7.066,1.123-9.164,3.306c-2.139,2.231-3.169,4.717-3.173,7.582v24.771h14.545
		V25.666c-0.314-0.044-0.623-0.082-0.905-0.095C42.815,25.543,42.382,25.533,41.907,25.533"/>
	<rect x="4.485" y="17.999" fill="#FFFFFF" width="15.945" height="43.189"/>
	<rect x="120.073" y="56.794" fill="#FFFFFF" width="3.789" height="4.061"/>
	<rect x="135.62" y="56.794" fill="#FFFFFF" width="3.794" height="4.061"/>
	<rect x="150.338" y="56.794" fill="#FFFFFF" width="3.79" height="4.061"/>
	<path fill="#FFFFFF" d="M96.69,34.56l16.141-16.166h-10.084l-16.78,17.131V2.823h-7.479v52.613
		c-0.105,0.006-0.241,0.031-0.343,0.041c-0.37,0.038-0.696,0.051-0.973,0.051c-0.894,0.01-1.336-0.221-1.467-0.449
		c-0.22-0.333-0.352-0.806-0.352-1.47V29.469c0.017-4.095-1.578-7.249-4.682-9.205c-3.088-1.935-7.07-2.883-11.919-2.883
		c-4.21,0-7.937,1.033-11.136,3.115c-3.31,2.123-4.999,5.953-5.125,11.231l-0.013,0.523h7.299l0.057-0.449
		c0.243-2.115,0.773-3.667,1.526-4.656c1.375-1.833,3.737-2.796,7.241-2.806c3.026,0,5.331,0.544,6.871,1.558
		c1.519,1.01,2.251,2.52,2.271,4.815c0,1.13-0.154,1.952-0.407,2.473c-0.453,0.973-1.316,1.559-2.801,1.759l-10.921,1.404
		c-3.903,0.51-7.105,1.854-9.551,4.061c-2.472,2.242-3.712,5.432-3.709,9.425c-0.002,3.664,1.27,6.786,3.757,9.221
		c2.494,2.452,5.723,3.676,9.586,3.676c3.22,0,6.177-0.707,8.855-2.125c2.285-1.201,4.135-2.609,5.518-4.211
		c0.249,1.222,0.608,2.222,1.079,3.02c1.161,1.878,3.076,2.823,5.537,2.807c0.978,0,1.76-0.038,2.347-0.12
		c0.597-0.085,1.424-0.289,2.499-0.605l0.35-0.098V61.32h6.085V45.308l5.017-5.035l12.57,21.047h9.834L96.69,34.56z M48.464,49.675
		c0.017-2.537,0.952-4.238,2.929-5.408c1.162-0.677,2.991-1.214,5.437-1.541l4.142-0.55c1.287-0.16,2.601-0.421,3.942-0.786
		c1.003-0.289,1.882-0.625,2.638-1.021v4.81c-0.019,4.164-1.769,7.013-5.441,8.884c-2.207,1.112-4.463,1.666-6.808,1.666
		c-1.9,0-3.49-0.554-4.858-1.656C49.112,52.984,48.481,51.573,48.464,49.675"/>
	<path fill="#FFFFFF" d="M7.388,68.048v0.816c-0.279-0.129-0.525-0.197-0.731-0.197c-0.15,0-0.267,0.031-0.373,0.102
		c-0.094,0.062-0.16,0.137-0.186,0.224c-0.036,0.086-0.043,0.311-0.043,0.678v0.877h1.264v0.714H6.056v5.752h-0.78v-5.752H4.485
		v-0.714h0.791v-1.013c0-0.456,0.037-0.792,0.12-0.986c0.078-0.197,0.214-0.368,0.408-0.483c0.185-0.123,0.418-0.184,0.684-0.184
		C6.742,67.882,7.037,67.943,7.388,68.048"/>
	<path fill="#FFFFFF" d="M16.176,70.548v6.466h-0.762v-1.112c-0.322,0.421-0.692,0.737-1.096,0.952
		c-0.401,0.21-0.847,0.323-1.322,0.323c-0.858,0-1.587-0.337-2.194-1.003c-0.596-0.657-0.896-1.455-0.896-2.412
		c0-0.928,0.3-1.731,0.907-2.394c0.616-0.664,1.342-0.99,2.204-0.99c0.493,0,0.942,0.123,1.333,0.336
		c0.407,0.235,0.762,0.568,1.063,1.015v-1.181H16.176z M13.076,71.177c-0.425,0-0.827,0.122-1.194,0.343
		c-0.358,0.228-0.657,0.555-0.869,0.956c-0.216,0.418-0.328,0.851-0.328,1.31c0,0.456,0.112,0.894,0.33,1.31
		c0.22,0.415,0.514,0.738,0.878,0.972c0.364,0.221,0.759,0.34,1.183,0.34c0.422,0,0.831-0.108,1.204-0.34
		c0.382-0.234,0.671-0.544,0.878-0.932c0.204-0.397,0.312-0.833,0.312-1.322c0-0.755-0.235-1.381-0.696-1.877
		C14.318,71.439,13.75,71.177,13.076,71.177 M13.551,67.521h1.193l-1.643,1.827h-0.756L13.551,67.521z"/>
	<path fill="#FFFFFF" d="M19.67,77.014v-8.965h0.776v3.612c0.324-0.432,0.691-0.748,1.089-0.962c0.405-0.205,0.846-0.32,1.318-0.32
		c0.854,0,1.587,0.336,2.189,1c0.6,0.66,0.901,1.46,0.901,2.409c0,0.938-0.301,1.738-0.913,2.401
		c-0.607,0.659-1.339,0.989-2.199,0.989c-0.481,0-0.927-0.112-1.329-0.337c-0.401-0.231-0.748-0.571-1.056-1.026v1.2H19.67z
		 M22.772,76.378c0.434,0,0.833-0.122,1.194-0.344c0.37-0.228,0.657-0.554,0.871-0.955c0.212-0.416,0.32-0.851,0.32-1.317
		c0-0.459-0.108-0.89-0.32-1.31c-0.218-0.415-0.515-0.737-0.883-0.969c-0.362-0.231-0.758-0.35-1.171-0.35
		c-0.424,0-0.826,0.119-1.206,0.35c-0.386,0.232-0.673,0.541-0.881,0.935c-0.195,0.388-0.308,0.831-0.308,1.323
		c0,0.748,0.228,1.381,0.695,1.878C21.542,76.126,22.107,76.378,22.772,76.378"/>
	<path fill="#FFFFFF" d="M28.768,70.548h0.791v0.941c0.241-0.376,0.486-0.656,0.747-0.836c0.264-0.184,0.531-0.275,0.82-0.275
		c0.211,0,0.438,0.078,0.686,0.225l-0.406,0.697c-0.156-0.071-0.291-0.116-0.41-0.116c-0.253,0-0.507,0.116-0.744,0.348
		c-0.237,0.224-0.419,0.578-0.545,1.058c-0.1,0.371-0.148,1.112-0.148,2.234v2.19h-0.791V70.548z"/>
	<path fill="#FFFFFF" d="M34.445,67.882c0.169,0,0.318,0.067,0.453,0.201c0.121,0.136,0.185,0.299,0.185,0.49
		c0,0.19-0.064,0.344-0.185,0.482c-0.134,0.14-0.284,0.205-0.453,0.205c-0.176,0-0.328-0.065-0.457-0.205
		c-0.114-0.138-0.181-0.292-0.181-0.482c0-0.191,0.066-0.354,0.181-0.49C34.117,67.949,34.269,67.882,34.445,67.882 M34.057,70.548
		h0.774v6.466h-0.774V70.548z"/>
	<path fill="#FFFFFF" d="M43.995,71.891l-0.622,0.405c-0.529-0.752-1.248-1.133-2.17-1.133c-0.728,0-1.345,0.255-1.829,0.756
		c-0.487,0.51-0.732,1.128-0.732,1.854c0,0.469,0.118,0.915,0.342,1.33c0.22,0.414,0.528,0.731,0.918,0.965
		c0.386,0.232,0.82,0.34,1.307,0.34c0.886,0,1.61-0.375,2.165-1.133l0.622,0.429c-0.289,0.469-0.675,0.83-1.165,1.085
		c-0.49,0.254-1.039,0.387-1.66,0.387c-0.947,0-1.743-0.33-2.371-0.976c-0.627-0.653-0.935-1.435-0.935-2.374
		c0-0.611,0.141-1.205,0.437-1.734c0.295-0.545,0.694-0.962,1.21-1.259c0.512-0.303,1.082-0.456,1.723-0.456
		c0.399,0,0.782,0.062,1.152,0.197c0.373,0.129,0.685,0.303,0.947,0.511C43.584,71.299,43.808,71.559,43.995,71.891"/>
	<path fill="#FFFFFF" d="M53.189,70.548v6.466h-0.765v-1.112c-0.329,0.421-0.691,0.737-1.095,0.952
		c-0.401,0.21-0.847,0.323-1.333,0.323c-0.851,0-1.579-0.337-2.178-1.003c-0.608-0.657-0.902-1.455-0.902-2.412
		c0-0.928,0.298-1.731,0.908-2.394c0.614-0.664,1.349-0.99,2.199-0.99c0.5,0,0.939,0.123,1.342,0.336
		c0.409,0.235,0.752,0.568,1.06,1.015v-1.181H53.189z M50.084,71.177c-0.431,0-0.824,0.122-1.188,0.343
		c-0.369,0.228-0.658,0.555-0.877,0.956c-0.214,0.418-0.323,0.851-0.323,1.31c0,0.456,0.108,0.894,0.328,1.31
		c0.214,0.415,0.503,0.738,0.875,0.972c0.371,0.221,0.766,0.34,1.18,0.34c0.424,0,0.83-0.108,1.204-0.34
		c0.387-0.234,0.677-0.544,0.883-0.932c0.198-0.397,0.306-0.833,0.306-1.322c0-0.755-0.229-1.381-0.686-1.877
		C51.325,71.439,50.755,71.177,50.084,71.177"/>
	<path fill="#FFFFFF" d="M67.488,68.048v8.965H66.72v-1.112c-0.328,0.421-0.688,0.737-1.088,0.952
		c-0.407,0.21-0.855,0.323-1.335,0.323c-0.849,0-1.577-0.337-2.177-1.003c-0.61-0.657-0.912-1.455-0.912-2.412
		c0-0.928,0.301-1.731,0.912-2.394c0.617-0.664,1.347-0.99,2.199-0.99c0.5,0,0.951,0.123,1.347,0.336
		c0.404,0.235,0.755,0.568,1.054,1.015v-3.68H67.488z M64.387,71.177c-0.427,0-0.827,0.122-1.193,0.343
		c-0.361,0.228-0.653,0.555-0.871,0.956c-0.216,0.418-0.322,0.851-0.322,1.31c0,0.456,0.105,0.894,0.322,1.31
		c0.221,0.415,0.51,0.738,0.882,0.972c0.36,0.221,0.754,0.34,1.173,0.34c0.424,0,0.831-0.108,1.21-0.34
		c0.376-0.234,0.671-0.544,0.873-0.932c0.204-0.397,0.309-0.833,0.309-1.322c0-0.755-0.23-1.381-0.687-1.877
		C65.632,71.439,65.058,71.177,64.387,71.177"/>
	<path fill="#FFFFFF" d="M76.019,74.871l0.652,0.357c-0.219,0.456-0.463,0.816-0.746,1.095c-0.278,0.286-0.591,0.493-0.948,0.635
		c-0.349,0.14-0.747,0.218-1.188,0.218c-0.988,0-1.753-0.343-2.311-1.037c-0.551-0.695-0.828-1.47-0.828-2.345
		c0-0.819,0.236-1.55,0.701-2.197c0.594-0.806,1.391-1.221,2.388-1.221c1.027,0,1.85,0.422,2.464,1.256
		c0.439,0.583,0.654,1.326,0.668,2.214H71.45c0.013,0.748,0.237,1.367,0.664,1.836c0.433,0.487,0.973,0.725,1.613,0.725
		c0.296,0,0.601-0.052,0.886-0.167c0.291-0.116,0.544-0.272,0.743-0.459C75.56,75.592,75.781,75.29,76.019,74.871 M76.019,73.12
		c-0.108-0.432-0.258-0.796-0.459-1.055c-0.193-0.271-0.452-0.493-0.785-0.646c-0.321-0.163-0.664-0.245-1.021-0.245
		c-0.597,0-1.095,0.204-1.525,0.62c-0.316,0.299-0.542,0.734-0.706,1.326H76.019z"/>
	<path fill="#FFFFFF" d="M87.883,71.256l-0.493,0.55c-0.411-0.428-0.823-0.652-1.22-0.652c-0.247,0-0.468,0.099-0.641,0.275
		c-0.18,0.17-0.277,0.377-0.277,0.619c0,0.218,0.074,0.412,0.224,0.605c0.147,0.184,0.462,0.417,0.934,0.674
		c0.58,0.33,0.964,0.639,1.172,0.932c0.207,0.3,0.312,0.646,0.312,1.017c0,0.531-0.176,0.98-0.52,1.351
		c-0.354,0.368-0.786,0.551-1.308,0.551c-0.344,0-0.68-0.079-0.997-0.245c-0.311-0.16-0.573-0.388-0.778-0.67l0.484-0.594
		c0.391,0.473,0.812,0.717,1.263,0.717c0.308,0,0.566-0.104,0.788-0.316c0.221-0.217,0.33-0.462,0.33-0.761
		c0-0.228-0.075-0.449-0.218-0.637c-0.146-0.181-0.462-0.411-0.972-0.69c-0.548-0.299-0.922-0.588-1.108-0.884
		c-0.202-0.29-0.301-0.626-0.301-1.003c0-0.494,0.163-0.909,0.469-1.231c0.314-0.32,0.709-0.483,1.182-0.483
		C86.769,70.378,87.32,70.67,87.883,71.256"/>
	<path fill="#FFFFFF" d="M93.815,70.378c0.923,0,1.689,0.364,2.311,1.081c0.555,0.657,0.828,1.439,0.828,2.336
		c0,0.902-0.3,1.695-0.885,2.365c-0.583,0.68-1.34,1.017-2.254,1.017c-0.927,0-1.683-0.337-2.27-1.017
		c-0.588-0.67-0.879-1.463-0.879-2.365c0-0.897,0.274-1.669,0.832-2.322C92.107,70.742,92.884,70.378,93.815,70.378 M93.815,71.194
		c-0.645,0-1.208,0.262-1.666,0.758c-0.466,0.517-0.692,1.136-0.692,1.861c0,0.472,0.101,0.911,0.321,1.309
		c0.204,0.401,0.488,0.711,0.843,0.936c0.362,0.221,0.756,0.326,1.193,0.326c0.425,0,0.822-0.104,1.177-0.326
		c0.359-0.225,0.644-0.535,0.854-0.936c0.216-0.398,0.321-0.837,0.321-1.309c0-0.725-0.238-1.344-0.7-1.861
		C95,71.456,94.453,71.194,93.815,71.194"/>
	<rect x="99.974" y="68.048" fill="#FFFFFF" width="0.772" height="8.965"/>
	<path fill="#FFFFFF" d="M103.962,70.548h0.778v3.014c0,0.74,0.029,1.247,0.103,1.523c0.116,0.394,0.329,0.7,0.637,0.935
		c0.316,0.235,0.683,0.344,1.123,0.344c0.427,0,0.794-0.108,1.097-0.331c0.306-0.228,0.511-0.517,0.624-0.884
		c0.08-0.246,0.124-0.778,0.124-1.588v-3.014h0.781v3.166c0,0.902-0.092,1.568-0.284,2.018c-0.198,0.456-0.494,0.809-0.877,1.061
		c-0.39,0.262-0.877,0.384-1.464,0.384c-0.59,0-1.083-0.123-1.475-0.384c-0.389-0.251-0.68-0.619-0.875-1.068
		c-0.192-0.458-0.291-1.146-0.291-2.067V70.548z"/>
	<path fill="#FFFFFF" d="M118.506,71.891l-0.615,0.405c-0.539-0.752-1.255-1.133-2.174-1.133c-0.735,0-1.346,0.255-1.834,0.756
		c-0.479,0.51-0.728,1.128-0.728,1.854c0,0.469,0.115,0.915,0.337,1.33c0.216,0.414,0.535,0.731,0.916,0.965
		c0.388,0.232,0.828,0.34,1.309,0.34c0.896,0,1.614-0.375,2.174-1.133l0.615,0.429c-0.291,0.469-0.678,0.83-1.166,1.085
		c-0.485,0.254-1.036,0.387-1.647,0.387c-0.959,0-1.75-0.33-2.376-0.976c-0.627-0.653-0.943-1.435-0.943-2.374
		c0-0.611,0.146-1.205,0.437-1.734c0.297-0.545,0.699-0.962,1.218-1.259c0.515-0.303,1.078-0.456,1.717-0.456
		c0.395,0,0.785,0.062,1.16,0.197c0.368,0.129,0.684,0.303,0.939,0.511C118.106,71.299,118.32,71.559,118.506,71.891"/>
	<path fill="#FFFFFF" d="M121.961,67.882c0.175,0,0.332,0.067,0.454,0.201c0.124,0.136,0.188,0.299,0.188,0.49
		c0,0.19-0.064,0.344-0.188,0.482c-0.123,0.14-0.279,0.205-0.454,0.205c-0.17,0-0.319-0.065-0.448-0.205
		c-0.121-0.138-0.181-0.292-0.181-0.482c0-0.191,0.06-0.354,0.181-0.49C121.642,67.949,121.791,67.882,121.961,67.882
		 M121.577,70.548h0.772v6.466h-0.772V70.548z"/>
	<path fill="#FFFFFF" d="M128.52,70.378c0.93,0,1.696,0.364,2.298,1.081c0.562,0.657,0.84,1.439,0.84,2.336
		c0,0.902-0.287,1.695-0.879,2.365c-0.586,0.68-1.338,1.017-2.259,1.017c-0.931,0-1.687-0.337-2.263-1.017
		c-0.59-0.67-0.882-1.463-0.882-2.365c0-0.897,0.272-1.669,0.829-2.322C126.81,70.742,127.586,70.378,128.52,70.378 M128.511,71.194
		c-0.642,0-1.193,0.262-1.658,0.758c-0.468,0.517-0.692,1.136-0.692,1.861c0,0.472,0.114,0.911,0.321,1.309
		c0.208,0.401,0.493,0.711,0.854,0.936c0.355,0.221,0.749,0.326,1.176,0.326c0.436,0,0.831-0.104,1.187-0.326
		c0.367-0.225,0.649-0.535,0.857-0.936c0.21-0.398,0.32-0.837,0.32-1.309c0-0.725-0.234-1.344-0.701-1.861
		C129.706,71.456,129.162,71.194,128.511,71.194"/>
	<path fill="#FFFFFF" d="M134.795,70.548h0.772v1.156c0.316-0.442,0.652-0.775,1.038-1c0.367-0.212,0.78-0.327,1.224-0.327
		c0.458,0,0.848,0.129,1.201,0.371c0.351,0.241,0.605,0.571,0.769,1c0.165,0.408,0.255,1.058,0.255,1.932v3.333h-0.776v-3.088
		c0-0.742-0.031-1.238-0.091-1.494c-0.089-0.428-0.263-0.748-0.519-0.959c-0.249-0.217-0.585-0.331-0.999-0.331
		c-0.468,0-0.879,0.174-1.248,0.5c-0.378,0.337-0.624,0.749-0.742,1.238c-0.072,0.32-0.112,0.905-0.112,1.759v2.374h-0.772V70.548z"
		/>
	<path fill="#FFFFFF" d="M148.481,74.871l0.656,0.357c-0.213,0.456-0.459,0.816-0.742,1.095c-0.283,0.286-0.594,0.493-0.944,0.635
		c-0.354,0.14-0.754,0.218-1.192,0.218c-0.987,0-1.755-0.343-2.308-1.037c-0.551-0.695-0.833-1.47-0.833-2.345
		c0-0.819,0.236-1.55,0.705-2.197c0.591-0.806,1.393-1.221,2.394-1.221c1.023,0,1.845,0.422,2.455,1.256
		c0.432,0.583,0.661,1.326,0.667,2.214h-5.422c0.009,0.748,0.237,1.367,0.673,1.836c0.435,0.487,0.964,0.725,1.599,0.725
		c0.308,0,0.605-0.052,0.899-0.167c0.284-0.116,0.534-0.272,0.739-0.459C148.027,75.592,148.249,75.29,148.481,74.871
		 M148.481,73.12c-0.103-0.432-0.254-0.796-0.448-1.055c-0.201-0.271-0.46-0.493-0.782-0.646c-0.331-0.163-0.668-0.245-1.024-0.245
		c-0.595,0-1.105,0.204-1.53,0.62c-0.31,0.299-0.543,0.734-0.698,1.326H148.481z"/>
	<path fill="#FFFFFF" d="M155.511,71.256l-0.491,0.55c-0.419-0.428-0.823-0.652-1.213-0.652c-0.257,0-0.473,0.099-0.656,0.275
		c-0.181,0.17-0.271,0.377-0.271,0.619c0,0.218,0.075,0.412,0.227,0.605c0.145,0.184,0.462,0.417,0.936,0.674
		c0.57,0.33,0.967,0.639,1.177,0.932c0.199,0.3,0.297,0.646,0.297,1.017c0,0.531-0.164,0.98-0.522,1.351
		c-0.347,0.368-0.778,0.551-1.297,0.551c-0.354,0-0.682-0.079-0.997-0.245c-0.317-0.16-0.578-0.388-0.781-0.67l0.485-0.594
		c0.398,0.473,0.82,0.717,1.254,0.717c0.312,0,0.577-0.104,0.795-0.316c0.223-0.217,0.328-0.462,0.328-0.761
		c0-0.228-0.074-0.449-0.216-0.637c-0.145-0.181-0.471-0.411-0.982-0.69c-0.54-0.299-0.911-0.588-1.099-0.884
		c-0.195-0.29-0.297-0.626-0.297-1.003c0-0.494,0.16-0.909,0.477-1.231c0.304-0.32,0.702-0.483,1.174-0.483
		C154.39,70.378,154.955,70.67,155.511,71.256"/>
</g>
<g>
	<g>
		<defs>
			<rect id="SVGID_14_" x="1777" y="2574" width="204" height="198"/>
		</defs>
		<clipPath id="SVGID_1_">
			<use xlink:href="#SVGID_14_"  overflow="visible"/>
		</clipPath>
		<g clip-path="url(#SVGID_1_)">
			<defs>
				<rect id="SVGID_19_" x="868" y="-67" width="680" height="399"/>
			</defs>
			<clipPath id="SVGID_3_">
				<use xlink:href="#SVGID_19_"  overflow="visible"/>
			</clipPath>
			<g clip-path="url(#SVGID_3_)">
				
					<image overflow="visible" width="1200" height="800" xlink:href="../Downloads/_HOT8510.jpg"  transform="matrix(-1.1938 0 0 0.5694 898.0552 -60.7432)">
				</image>
			</g>
		</g>
	</g>
</g>
</svg>
