<?xml version="1.0" encoding="utf-8"?>
<!-- Generator: Adobe Illustrator 16.0.0, SVG Export Plug-In . SVG Version: 6.00 Build 0)  -->
<!DOCTYPE svg PUBLIC "-//W3C//DTD SVG 1.1//EN" "http://www.w3.org/Graphics/SVG/1.1/DTD/svg11.dtd">
<svg version="1.1" id="Capa_1" xmlns="http://www.w3.org/2000/svg" xmlns:xlink="http://www.w3.org/1999/xlink" x="0px" y="0px"
	 width="130px" height="80px" viewBox="0 0 130 80" enable-background="new 0 0 130 80" xml:space="preserve">
<g>
	<path fill-rule="evenodd" clip-rule="evenodd" fill="#B4B3B0" d="M107.021,35.416c0.438-0.297,0.803-0.457,1.028-0.449
		c0.136,0.006,0.295,0.045,0.295,0.213c0,0.174-0.161,0.314-0.479,0.43c-0.277,0.1-0.705,0.127-1.17,0.072
		C106.823,35.564,106.93,35.477,107.021,35.416 M100.86,35.959c-0.271-0.018-0.404-0.129-0.404-0.34
		c0-0.028,0.019-0.697,1.541-0.773c0.173-0.01,0.368-0.016,0.663,0.019c-0.013,0.001-0.173,0.147-0.173,0.147l-0.095,0.088
		C102.024,35.436,101.412,35.998,100.86,35.959z M104.154,33.426c-0.185,0.162-0.549,0.516-0.901,0.855l-0.399,0.388
		c-0.324-0.06-0.648-0.089-0.979-0.089c-0.739,0-1.419,0.204-1.725,0.523c-0.119,0.123-0.178,0.254-0.176,0.393
		c0.008,0.361,0.418,0.543,0.543,0.59c0.656,0.248,1.208,0.176,1.787-0.232c0.32-0.225,0.704-0.588,1.003-0.879
		c0.235,0.055,0.501,0.124,0.785,0.207l0.264,0.079c-0.341,0.338-0.691,0.694-1.016,0.981l-0.024,0.021
		c-0.451,0.403-0.777,0.692-1.248,0.799c-0.333,0.073-0.567,0.003-0.646-0.044c-0.005,0-0.019,0.016-0.019,0.016
		c0.273,0.226,0.531,0.354,0.978,0.315c0.423-0.037,0.909-0.306,1.411-0.778l0.675-0.667l0.472-0.473
		c0,0.002,0.955,0.281,0.955,0.281c0.007,0.003,0.018,0.006,0.018,0.006c-0.011,0-0.591,0.578-0.591,0.578l-0.509,0.512
		c-0.52,0.51-0.803,0.773-1.107,0.99c-0.502,0.359-0.932,0.547-1.312,0.572c-0.196,0.013-0.479,0-0.716-0.141
		c-0.01-0.001-0.023,0.011-0.023,0.011c0.257,0.223,0.57,0.487,1.113,0.472c0.612-0.016,1.153-0.314,1.999-1.097
		c0.385-0.356,0.768-0.757,1.106-1.108l0.627-0.641c0.412,0.092,0.782,0.13,1.191,0.122c0.594-0.012,1.103-0.3,1.109-0.628
		c0.005-0.242-0.193-0.372-0.312-0.449c-0.097-0.062-0.364-0.213-0.731-0.213c-0.446,0-0.91,0.199-1.382,0.59l-0.315,0.278
		c0.005,0-0.115-0.031-0.115-0.031l-0.873-0.247c0.258-0.242,0.477-0.451,0.675-0.629c0.478-0.427,1.008-0.604,1.316-0.623
		c0.226-0.017,0.618,0.003,0.778,0.119c0.008-0.002,0.02-0.018,0.02-0.018c-0.432-0.371-0.803-0.419-1.109-0.419
		c-0.302,0-0.789,0.097-1.382,0.561c-0.243,0.189-0.558,0.504-0.887,0.839l-0.44-0.135l-0.108-0.035c0,0-0.464-0.141-0.465-0.141
		c0.011-0.001,0.266-0.254,0.266-0.254c0.312-0.309,0.607-0.602,0.839-0.797c0.838-0.712,1.366-0.803,1.733-0.805
		c0.401-0.002,0.72,0.081,0.948,0.248c0.008-0.002,0.018-0.018,0.018-0.018c-0.471-0.43-0.81-0.565-1.395-0.572
		C105.367,32.609,104.754,32.896,104.154,33.426z"/>
	<path fill-rule="evenodd" clip-rule="evenodd" fill="#B4B3B0" d="M108.658,41.104c-0.279,0.229-0.581,0.438-0.905,0.623
		c-2.784,1.594-6.269,0.983-8.265-1.294c1.783,1.822,4.603,2.396,7.043,1.377l0.031-0.014c0.035-0.015,0.07-0.03,0.106-0.046
		l0.04-0.018c0.032-0.015,0.063-0.029,0.096-0.045l0.046-0.021c0.032-0.016,0.063-0.032,0.096-0.048l0.041-0.021
		c0.032-0.017,0.064-0.033,0.097-0.051l0.039-0.021c0.045-0.024,0.09-0.049,0.133-0.074c0.048-0.027,0.094-0.054,0.141-0.082
		c0.046-0.028,0.091-0.057,0.136-0.085c0.046-0.029,0.09-0.059,0.134-0.088s0.088-0.061,0.131-0.091s0.085-0.062,0.127-0.094
		c0.079-0.059,0.156-0.119,0.23-0.181L108.658,41.104z"/>
	<path fill="#B4B3B0" d="M104.739,29.611l0.285-1.618l0.493,0.087l0.104,1.289l0.534-1.176l0.496,0.086l-0.287,1.619l-0.312-0.055
		l0.229-1.306l-0.559,1.247l-0.34-0.059l-0.104-1.365l-0.23,1.306L104.739,29.611z M102.843,28.159l0.385-0.067l0.869,1.516
		l-0.35,0.062l-0.168-0.314l-0.628,0.111l-0.048,0.352l-0.351,0.062L102.843,28.159z M103.094,28.449l-0.103,0.729l0.449-0.079
		L103.094,28.449z M100.986,30.734l-0.797-1.438l1.044-0.578l0.139,0.25l-0.753,0.416l0.17,0.307l0.688-0.381l0.137,0.246
		l-0.688,0.381l0.205,0.369l0.788-0.436l0.147,0.266L100.986,30.734z M99.957,31.804l-1.02-0.886l-0.319,0.367l-0.222-0.192
		l0.859-0.988l0.222,0.192l-0.317,0.365l1.02,0.887L99.957,31.804z M98.984,33.693l-0.062,0.215l-0.634-0.182l-1.115,0.314
		l0.078-0.27l0.869-0.208l-0.628-0.634l0.072-0.252l0.771,0.829L98.984,33.693z M98.771,36.104l-1.644,0.029l-0.003-0.221
		l0.793-0.015l-0.807-0.776l-0.006-0.297l0.67,0.66l0.973-0.709l0.006,0.277l-0.814,0.59l0.253,0.25l0.575-0.01L98.771,36.104z
		 M98.859,38.188l-0.077-0.201c0.11-0.045,0.185-0.116,0.224-0.214c0.038-0.097,0.034-0.205-0.012-0.325
		c-0.047-0.12-0.107-0.204-0.184-0.253s-0.157-0.057-0.244-0.024c-0.117,0.046-0.156,0.208-0.119,0.488
		c0.002,0.017,0.004,0.029,0.006,0.039c0.029,0.228,0.027,0.387-0.007,0.477c-0.035,0.09-0.108,0.157-0.221,0.2
		c-0.137,0.052-0.267,0.044-0.388-0.024c-0.121-0.067-0.214-0.185-0.277-0.351c-0.065-0.17-0.072-0.32-0.023-0.45
		c0.051-0.131,0.15-0.226,0.303-0.286l0.077,0.198c-0.1,0.047-0.165,0.112-0.196,0.196s-0.025,0.181,0.017,0.289
		c0.039,0.103,0.093,0.175,0.161,0.219s0.14,0.052,0.215,0.023c0.118-0.045,0.158-0.206,0.119-0.481
		c-0.005-0.04-0.009-0.072-0.012-0.095l-0.004-0.023c-0.023-0.181-0.022-0.307,0.003-0.378c0.019-0.055,0.049-0.103,0.09-0.143
		c0.042-0.041,0.093-0.073,0.154-0.096c0.147-0.058,0.286-0.05,0.414,0.022s0.227,0.199,0.296,0.38
		c0.071,0.186,0.08,0.35,0.026,0.489C99.146,38.004,99.032,38.112,98.859,38.188z"/>
	<path fill="#B4B3B0" d="M109.832,38.961c0.204,0.171,0.318,0.361,0.345,0.572s-0.038,0.411-0.196,0.6
		c-0.158,0.188-0.344,0.287-0.557,0.298c-0.213,0.012-0.422-0.068-0.625-0.238s-0.317-0.362-0.344-0.573
		c-0.026-0.212,0.04-0.412,0.198-0.601c0.157-0.188,0.343-0.287,0.556-0.298S109.63,38.79,109.832,38.961 M109.611,39.225
		c-0.139-0.116-0.272-0.176-0.401-0.178c-0.128-0.003-0.239,0.051-0.331,0.162c-0.094,0.111-0.129,0.23-0.104,0.356
		c0.023,0.127,0.105,0.248,0.244,0.364s0.271,0.176,0.4,0.178c0.129,0.003,0.24-0.052,0.334-0.164
		c0.094-0.11,0.127-0.229,0.103-0.354C109.831,39.463,109.75,39.342,109.611,39.225z M109.787,37.738
		c-0.061-0.083-0.097-0.168-0.109-0.254s-0.003-0.179,0.029-0.278c0.071-0.219,0.204-0.371,0.4-0.457
		c0.195-0.087,0.418-0.089,0.664-0.009c0.25,0.081,0.427,0.213,0.531,0.396c0.106,0.184,0.122,0.389,0.049,0.613
		c-0.062,0.196-0.162,0.341-0.296,0.434c-0.134,0.094-0.286,0.126-0.459,0.096l0.106-0.328c0.088,0.006,0.163-0.014,0.225-0.062
		c0.062-0.047,0.109-0.12,0.143-0.218c0.042-0.132,0.027-0.25-0.044-0.355c-0.071-0.106-0.192-0.187-0.36-0.241
		c-0.17-0.056-0.316-0.06-0.438-0.014c-0.122,0.047-0.204,0.138-0.248,0.274c-0.034,0.102-0.031,0.196,0.007,0.285
		c0.038,0.088,0.106,0.157,0.206,0.207l0.115-0.354l0.268,0.086l-0.211,0.648l-0.846-0.275l0.069-0.216L109.787,37.738z
		 M110.054,34.596l1.644-0.058l0.027,0.797c0.006,0.179-0.027,0.313-0.102,0.402c-0.073,0.089-0.188,0.136-0.347,0.142
		c-0.1,0.004-0.185-0.015-0.253-0.055c-0.068-0.039-0.116-0.098-0.143-0.176c-0.023,0.072-0.061,0.124-0.111,0.156
		s-0.132,0.052-0.242,0.061l-0.193,0.014c-0.001,0-0.004,0-0.007,0c-0.098,0.005-0.156,0.029-0.176,0.07l-0.05,0.001l-0.014-0.37
		c0.023-0.014,0.051-0.022,0.084-0.031c0.034-0.006,0.075-0.012,0.121-0.015l0.174-0.011c0.101-0.008,0.169-0.029,0.203-0.064
		c0.034-0.037,0.051-0.1,0.047-0.189l-0.013-0.357l-0.639,0.021L110.054,34.596z M110.99,34.901l0.014,0.397
		c0.003,0.086,0.023,0.148,0.06,0.188c0.036,0.039,0.092,0.058,0.167,0.054c0.071-0.002,0.125-0.023,0.16-0.063
		c0.035-0.041,0.052-0.101,0.049-0.179l-0.014-0.412L110.99,34.901z M111.174,32.547l0.146,0.361l-1.303,1.166l-0.132-0.329
		l0.271-0.229l-0.239-0.591l-0.354,0.026l-0.133-0.33L111.174,32.547z M110.943,32.853l-0.734,0.051l0.171,0.423L110.943,32.853z
		 M109.654,31.881c-0.148,0.113-0.309,0.156-0.478,0.129c-0.169-0.026-0.323-0.12-0.462-0.279c-0.159-0.184-0.227-0.377-0.2-0.578
		c0.025-0.201,0.142-0.393,0.349-0.572c0.211-0.184,0.418-0.271,0.621-0.266c0.202,0.006,0.389,0.107,0.559,0.302
		c0.137,0.159,0.208,0.317,0.209,0.476c0.003,0.159-0.062,0.305-0.194,0.436l-0.22-0.251c0.061-0.071,0.09-0.147,0.086-0.226
		s-0.04-0.158-0.108-0.236c-0.098-0.112-0.209-0.166-0.331-0.162c-0.124,0.005-0.255,0.067-0.395,0.188
		c-0.135,0.118-0.213,0.238-0.236,0.359c-0.023,0.123,0.012,0.237,0.104,0.345c0.068,0.077,0.144,0.124,0.226,0.14
		c0.082,0.015,0.167-0.004,0.254-0.053L109.654,31.881z"/>
	<path fill-rule="evenodd" clip-rule="evenodd" fill="#B4B3B0" d="M93.258,48.19c0,0-5.224,2.061-13.593,2.061
		c-5.097,0-9.584-0.694-13.881-1.649c-5.021-1.117-11.05-2.679-18.248-2.679c-7.767,0-12.823,2.137-12.823,2.137
		s6.39-1.519,12.779-1.519c5.766,0,10.886,1.038,15.471,2.11c5.203,1.217,9.169,2.132,16.052,2.132
		C87.648,50.783,93.258,48.19,93.258,48.19"/>
	<path fill-rule="evenodd" clip-rule="evenodd" fill="#B4B3B0" d="M23.583,40.065l0,0.71h4.316c0.199-0.203,0.455-0.572,0.523-0.707
		L23.583,40.065z M27.568,38.845H21.21v0.704h7.462c0,0,0.269-0.626,0.269-1.314c0-0.037,0.001-4.796,0.001-4.796
		c0-0.376,0.155-1.018,0.931-1.185c0.023-0.005,0.045-0.01,0.066-0.016c2.204-0.521,4.471-0.047,5.751,0.507
		c0.232,0.108,0.285-0.073,0.276-0.151c0.029-1.078-0.792-2.305-2.299-2.38c-1.223-0.026-1.901,0.412-2.152,0.532
		c-0.019,0.01-0.049,0.006-0.077-0.026c-0.227-0.222-0.709-0.553-1.25-0.71c-0.082-0.016-0.087-0.135,0.005-0.146
		c1.157-0.124,2.172,0.006,2.595,0.074c0.097,0.018,0.169-0.039,0.132-0.131c-0.029-0.067-0.055-0.1-0.103-0.203
		c-0.103-0.22-0.377-0.457-0.721-0.554c-0.912-0.255-2.463-0.47-3.844-0.479h-0.072h-0.074c-1.511,0.01-3.061,0.306-3.461,0.391
		c-0.101,0.023-0.24,0.059-0.264,0.063c-0.114,0.025-0.14,0.13-0.09,0.185c0.03,0.033,0.114,0.107,0.156,0.154
		c0.052,0.065,0.076,0.156-0.023,0.25l-2.875,2.583h1.967h0.024c0.129-0.005,0.249,0.116,0.249,0.262
		c0.001,0.13-0.105,0.255-0.238,0.255h-0.018h-2.556l-0.781,0.715h3.346l0.018-0.002c0.132,0.002,0.234,0.136,0.232,0.261
		c-0.003,0.114-0.097,0.253-0.232,0.253l-0.019,0.003h-3.919l-0.784,0.706h6.759h0.021c0.133,0,0.237,0.137,0.238,0.256
		c0.002,0.143-0.096,0.266-0.232,0.266h-0.019h-6.767v0.706h6.753h0.021c0.155,0,0.243,0.141,0.243,0.271
		c0,0.115-0.114,0.24-0.246,0.24l-0.018,0.006h-6.753l-0.001,0.709h8.818h0.021c0.147,0.006,0.24,0.131,0.238,0.267
		c-0.005,0.12-0.104,0.248-0.236,0.248l-0.018-0.003h-6.446v0.712h6.357h0.133c0.12,0,0.222,0.149,0.222,0.269
		c0,0.12-0.104,0.251-0.223,0.251H27.568z M30.663,32.635c0.267,0,0.45,0.084,0.599,0.151c0.311,0.148,0.673,0.316,1.127,0.535
		c0,0.002,0.734-0.52,0.772-0.545c0.249-0.173,0.489-0.042,0.568,0.104c0.273,0.516,0.779,1.586,1.043,2.566
		c0.032,0.118-0.004,0.301-0.189,0.355c-0.106,0.031-0.29,0.057-0.479,0.083c-0.267,0.032-0.262,0.245-0.262,0.376
		c0,0.159,0.003,1.241,0.003,1.613c0.005,0.226-0.169,0.97-1.027,0.967c-0.056,0-1.963,0-1.954,0
		c-0.739,0.003-1.335-0.62-1.339-1.286c0-0.438,0-3.483,0.002-3.825C29.53,33.07,30.122,32.627,30.663,32.635z M23.583,41.284
		l0,0.723c0,0,0.958,0,1.501,0c1.344-0.01,2.224-0.723,2.224-0.723H23.583z"/>
	<path fill-rule="evenodd" clip-rule="evenodd" fill="#B4B3B0" d="M92.545,35.695c0-0.013-0.006-0.023-0.006-0.039
		c-0.023-0.551-0.204-1.043-0.456-1.422c-0.53-0.838-1.461-1.292-2.578-1.275c-1.116-0.017-2.048,0.438-2.576,1.275
		c-0.253,0.379-0.437,0.871-0.46,1.422c0,0.016-0.002,0.026-0.004,0.039c-0.154,1.84,0.911,3.113,2.722,3.262
		c0.108,0.008,0.212,0.014,0.318,0.014c0.103,0,0.208-0.006,0.317-0.014C91.632,38.809,92.697,37.535,92.545,35.695 M80.502,34.326
		c0-0.455,0.044-1.258,0.044-1.258h-1.485c0,0,0.044,0.803,0.044,1.258L79.1,37.608c0,0.454-0.039,1.23-0.039,1.23h0.003h1.478
		h0.005c0,0-0.041-0.776-0.041-1.23L80.502,34.326z M71.828,37.947c-0.311,0-0.718,0-1.031,0c-0.016-0.579-0.023-1.14-0.023-1.648
		V36.22c0-0.005,0-0.01,0-0.015h1.713v-0.814h-1.713c0.006-0.877,0.023-1.456,0.023-1.456l2.126-0.003v-0.863
		c-1.487,0.006-3.637,0-3.637,0s0.033,0.798,0.033,1.25v3.276c0,0.415-0.025,1.125-0.03,1.242h3.773l0.005-0.915
		C73.067,37.922,72.324,37.947,71.828,37.947z M47.074,37.947c-0.312,0-0.717,0-1.033,0c-0.013-0.579-0.021-1.14-0.021-1.648
		l-0.002-0.079h0.002c0-0.005,0-0.01,0-0.015h1.715v-0.814h-1.714c0.005-0.877,0.021-1.456,0.021-1.456h2.131v-0.866
		c-1.491,0.006-3.638,0-3.638,0s0.032,0.798,0.032,1.25v3.276c0,0.415-0.026,1.125-0.032,1.242h3.776l0.004-0.915
		C48.314,37.922,47.57,37.947,47.074,37.947z M76.688,35.734l1.64-2.666h-1.134l-0.013,0.025c-0.342,0.601-0.771,1.326-0.938,1.592
		l-0.066,0.109l-0.951-1.727h-1.707l1.646,2.984l-1.716,2.786h1.13c0.73-1.262,1.105-1.844,1.105-1.844l1.019,1.844h1.703
		L76.688,35.734z M85.133,38.052c-1.319,0-2.032-0.98-1.996-2.187c0.031-1.055,0.51-1.946,1.641-2.024
		c0.437-0.028,0.79,0.046,1.4,0.212l-0.062-0.9c0,0-0.518-0.168-1.258-0.193c-0.94-0.04-1.793,0.146-2.473,0.777
		c-0.604,0.559-0.966,1.393-0.966,2.196c0,0.896,0.364,1.717,1.046,2.286c0.709,0.605,1.471,0.741,2.375,0.741
		c0.594,0,0.942-0.039,1.518-0.199L86.27,37.88C86.148,37.922,85.733,38.052,85.133,38.052z M66.061,32.205l1.655-0.003l0.044,0.386
		c0.372,3.856,0.597,6.251,0.597,6.251h-1.723l-0.167-2.387l-0.159-2.134l-1.459,4.519c-0.388,0.002-0.925,0-0.925,0
		s-0.46-1.604-0.542-1.829l-0.837-2.713c0,0-0.132,1.513-0.181,2.157c-0.101,1.291-0.189,2.387-0.189,2.387h-1.283
		c0,0,0.523-5.396,0.562-5.724c0.039-0.339,0.104-0.91,0.104-0.91h1.689l1.403,3.885L66.061,32.205z M60.196,35.703
		c0-0.013-0.002-0.025-0.002-0.039c-0.026-0.547-0.204-1.035-0.457-1.416c-0.53-0.836-1.455-1.285-2.567-1.271
		c-1.113-0.014-2.038,0.437-2.565,1.271c-0.253,0.381-0.431,0.869-0.458,1.416c0,0.014-0.001,0.026-0.003,0.039
		c-0.151,1.832,0.908,3.104,2.71,3.246c0.107,0.011,0.212,0.013,0.316,0.011c0.104,0.002,0.209,0,0.317-0.011
		C59.29,38.807,60.346,37.535,60.196,35.703z M57.311,38.088c-0.05,0.006-0.095,0.006-0.141,0.008
		c-0.046-0.002-0.091-0.002-0.139-0.008c-0.266-0.025-0.473-0.117-0.662-0.266c-0.054-0.047-0.107-0.094-0.161-0.156
		c-0.277-0.316-0.427-0.856-0.462-1.279c-0.083-0.99,0.113-2.437,1.32-2.536c0.029-0.002,0.061-0.005,0.09-0.005
		c0.002,0,0.009,0,0.014,0c0.005,0,0.008,0,0.014,0c0.031,0,0.062,0.003,0.091,0.005c1.206,0.1,1.402,1.546,1.319,2.536
		c-0.032,0.423-0.168,0.952-0.463,1.279c-0.051,0.062-0.103,0.109-0.157,0.156C57.781,37.971,57.556,38.069,57.311,38.088z
		 M44.176,38.837c-0.05-0.117-0.357-0.851-0.581-1.442l-1.93-5.189h-1.502c0,0-0.43,1.215-0.491,1.416l-1.411,4.022
		c-0.183,0.519-0.438,1.195-0.438,1.195h1.226c0,0,0.347-1.121,0.418-1.322l0.189-0.561h2.125l0.29,0.855
		c0.061,0.157,0.312,1.013,0.316,1.025H44.176z M39.967,36.012l0.717-2.146l0.041-0.128l0.749,2.273H39.967z M54.22,38.839
		c-0.355-0.516-0.487-0.729-0.759-1.105l-1.023-1.61c0.492-0.242,0.955-0.654,1.023-1.516c0.044-0.54-0.238-0.986-0.409-1.139
		c-0.247-0.223-0.489-0.312-0.828-0.354c-0.272-0.036-0.472-0.036-0.635-0.051h-2.411c0,0,0.028,0.802,0.028,1.256v3.262
		c0,0.459-0.028,1.255-0.028,1.255h1.482c0,0-0.044-0.796-0.044-1.255l0.011-1.047c0,0,0.325,0.003,0.55,0.003l0.94,1.737
		c0.128,0.22,0.308,0.499,0.352,0.563H54.22z M51.598,35.617c-0.223,0.117-0.724,0.084-0.972,0.07l0.02-1.648l0.14-0.014
		c0.453-0.033,0.786,0.029,0.923,0.092c0.204,0.089,0.324,0.281,0.336,0.607C52.059,35.213,51.876,35.472,51.598,35.617z
		 M92.492,38.26c0-0.323,0.264-0.592,0.59-0.592c0.325,0,0.59,0.269,0.59,0.592c0,0.33-0.265,0.596-0.59,0.596
		C92.756,38.855,92.492,38.59,92.492,38.26z M93.528,38.26c0-0.276-0.198-0.479-0.446-0.479c-0.245,0-0.445,0.203-0.445,0.479
		c0,0.282,0.2,0.48,0.445,0.48C93.33,38.74,93.528,38.542,93.528,38.26z M92.854,37.924h0.248c0.16,0,0.245,0.055,0.245,0.195
		c0,0.115-0.064,0.173-0.17,0.184l0.176,0.295h-0.126l-0.172-0.291h-0.077v0.291h-0.124V37.924z M92.979,38.211h0.111
		c0.072,0,0.138-0.008,0.138-0.102c0-0.079-0.073-0.089-0.138-0.089h-0.111V38.211z M89.645,38.094
		c-0.048,0.005-0.096,0.005-0.14,0.005c-0.045,0-0.094,0-0.141-0.005c-0.267-0.026-0.476-0.12-0.666-0.271
		c-0.055-0.047-0.108-0.094-0.16-0.154c-0.278-0.318-0.429-0.86-0.465-1.286c-0.083-0.997,0.116-2.45,1.325-2.546
		c0.031-0.006,0.062-0.006,0.093-0.006c0.003,0,0.009,0,0.014,0s0.009,0,0.013,0c0.031,0,0.062,0,0.09,0.006
		c1.212,0.096,1.41,1.549,1.328,2.546c-0.034,0.426-0.171,0.957-0.463,1.286c-0.054,0.061-0.107,0.107-0.16,0.154
		C90.119,37.974,89.891,38.072,89.645,38.094z"/>
	<path fill-rule="evenodd" clip-rule="evenodd" fill="#B4B3B0" d="M107.281,29.055c0-0.148,0.121-0.271,0.27-0.271
		c0.149,0,0.271,0.123,0.271,0.271c0,0.151-0.121,0.273-0.271,0.273C107.402,29.328,107.281,29.206,107.281,29.055 M107.756,29.055
		c0-0.126-0.091-0.219-0.205-0.219c-0.111,0-0.203,0.093-0.203,0.219c0,0.13,0.092,0.221,0.203,0.221
		C107.665,29.275,107.756,29.185,107.756,29.055z M107.447,28.901h0.113c0.073,0,0.113,0.024,0.113,0.089
		c0,0.053-0.03,0.08-0.079,0.084l0.081,0.135h-0.059l-0.078-0.133h-0.035v0.133h-0.057V28.901z M107.504,29.033h0.051
		c0.033,0,0.062-0.004,0.062-0.047c0-0.037-0.033-0.041-0.062-0.041h-0.051V29.033z"/>
	<path fill-rule="evenodd" clip-rule="evenodd" fill="#B4B3B0" d="M73.947,41.975c-0.342-0.146-0.751-0.261-1.093-0.261
		c-1.237,0-1.931,0.897-1.931,2.145c0,1.163,0.701,2.141,1.857,2.141c0.401,0,0.775-0.089,1.158-0.229L74,46.361
		c-0.434,0.148-0.835,0.18-1.317,0.18c-1.649,0-2.453-1.258-2.453-2.683c0-1.578,1.015-2.687,2.533-2.687
		c0.613,0,1.054,0.141,1.237,0.203L73.947,41.975z"/>
	<path fill-rule="evenodd" clip-rule="evenodd" fill="#B4B3B0" d="M77.82,45.597h-0.02c-0.283,0.612-0.996,0.944-1.631,0.944
		c-1.457,0-1.688-0.987-1.688-1.449c0-1.719,1.83-1.797,3.158-1.797h0.119v-0.262c0-0.876-0.312-1.319-1.17-1.319
		c-0.532,0-1.033,0.123-1.508,0.426v-0.613c0.395-0.193,1.057-0.354,1.508-0.354c1.27,0,1.801,0.573,1.801,1.911v2.263
		c0,0.413,0,0.724,0.05,1.075h-0.62V45.597z M77.76,43.838h-0.18c-1.099,0-2.407,0.109-2.407,1.236c0,0.674,0.486,0.925,1.067,0.925
		c1.488,0,1.52-1.298,1.52-1.851V43.838z"/>
	<path fill-rule="evenodd" clip-rule="evenodd" fill="#B4B3B0" d="M79.698,42.44c0-0.564,0-0.773-0.039-1.148h0.634v0.988h0.019
		c0.232-0.576,0.665-1.108,1.317-1.108c0.152,0,0.334,0.031,0.441,0.062v0.662c-0.131-0.042-0.301-0.06-0.463-0.06
		c-1.004,0-1.275,1.125-1.275,2.051v2.533h-0.634V42.44z"/>
	<path fill-rule="evenodd" clip-rule="evenodd" fill="#B4B3B0" d="M86.906,45.999c0,1.429-0.644,2.593-2.398,2.593
		c-0.676,0-1.293-0.19-1.551-0.271l0.051-0.632c0.391,0.198,0.954,0.36,1.504,0.36c1.632,0,1.772-1.186,1.772-2.633h-0.021
		c-0.339,0.743-0.905,1.005-1.558,1.005c-1.639,0-2.16-1.428-2.16-2.562c0-1.56,0.604-2.687,2.111-2.687
		c0.684,0,1.123,0.093,1.596,0.704h0.021v-0.584h0.633V45.999z M84.716,45.878c1.147,0,1.558-1.085,1.558-2.02
		c0-1.236-0.363-2.145-1.517-2.145c-1.208,0-1.521,1.148-1.521,2.145C83.236,44.86,83.641,45.878,84.716,45.878z"/>
	<path fill-rule="evenodd" clip-rule="evenodd" fill="#B4B3B0" d="M90.233,41.172c1.66,0,2.394,1.288,2.394,2.687
		c0,1.396-0.733,2.683-2.394,2.683c-1.657,0-2.393-1.287-2.393-2.683C87.841,42.46,88.576,41.172,90.233,41.172 M90.233,45.999
		c1.106,0,1.698-0.955,1.698-2.141c0-1.189-0.592-2.145-1.698-2.145c-1.103,0-1.698,0.955-1.698,2.145
		C88.535,45.044,89.13,45.999,90.233,45.999z"/>
</g>
</svg>
