<?xml version="1.0" encoding="utf-8"?>
<!-- Generator: Adobe Illustrator 16.0.0, SVG Export Plug-In . SVG Version: 6.00 Build 0)  -->
<!DOCTYPE svg PUBLIC "-//W3C//DTD SVG 1.1//EN" "http://www.w3.org/Graphics/SVG/1.1/DTD/svg11.dtd">
<svg version="1.1" id="Capa_1" xmlns="http://www.w3.org/2000/svg" xmlns:xlink="http://www.w3.org/1999/xlink" x="0px" y="0px"
	 width="130px" height="80px" viewBox="0 0 130 80" enable-background="new 0 0 130 80" xml:space="preserve">
<g>
	<g>
		<g>
			<path fill-rule="evenodd" clip-rule="evenodd" fill="#B4B3B0" d="M83.757,55.42c0.322-0.012,0.553-0.035,0.691-0.107
				c0.234-0.117,0.354-0.348,0.354-0.686v-5.572c0-0.338-0.111-0.564-0.336-0.682c-0.131-0.07-0.367-0.115-0.709-0.135v-0.291h4.135
				v0.291c-0.482,0.016-0.803,0.082-0.965,0.197c-0.158,0.117-0.236,0.404-0.236,0.859v5.439c0,0.256,0.068,0.426,0.201,0.506
				c0.139,0.082,0.406,0.125,0.803,0.125c0.713,0,1.309-0.15,1.789-0.455c0.486-0.309,0.904-0.904,1.254-1.789h0.346l-0.48,2.611
				h-6.846V55.42z"/>
			<path fill-rule="evenodd" clip-rule="evenodd" fill="#B4B3B0" d="M75.985,55.732V55.42c0.34-0.012,0.58-0.037,0.723-0.117
				c0.219-0.119,0.33-0.344,0.33-0.674v-5.574c0-0.338-0.113-0.564-0.34-0.682c-0.133-0.07-0.369-0.115-0.713-0.135v-0.291H82.8
				v2.32h-0.289c-0.15-0.74-0.406-1.248-0.768-1.521c-0.357-0.275-1.014-0.412-1.963-0.412c-0.363,0-0.594,0.039-0.693,0.113
				c-0.096,0.07-0.145,0.217-0.145,0.432v2.666c0.674,0.01,1.129-0.109,1.369-0.354c0.238-0.246,0.42-0.697,0.547-1.35h0.301v3.893
				h-0.301c-0.084-0.656-0.258-1.117-0.52-1.385c-0.258-0.268-0.723-0.404-1.396-0.404v2.789c0,0.244,0.062,0.41,0.191,0.502
				c0.131,0.084,0.395,0.129,0.795,0.129c0.754,0,1.371-0.143,1.848-0.428c0.479-0.285,0.9-0.818,1.273-1.604h0.326l-0.479,2.398
				H75.985z"/>
			<path fill="#B4B3B0" d="M65.767,53.014l-1.283-2.818l-1.227,2.818H65.767z M60.985,55.42c0.286-0.018,0.56-0.135,0.732-0.367
				c0.112-0.146,0.29-0.461,0.498-0.959l2.79-6.305h0.329l2.804,6.051c0.297,0.68,0.52,1.117,0.664,1.316
				c0.193,0.264,0.336,0.264,0.449,0.264c0.092,0,0.287,0,0.473-0.217c0.125-0.146,0.203-0.408,0.203-0.818v-5.09
				c0-0.436-0.068-0.707-0.203-0.82c-0.133-0.117-0.393-0.195-0.779-0.236v-0.291h3.805c1.01,0,1.775,0.158,2.301,0.477
				s0.789,0.867,0.789,1.643c0,0.377-0.105,0.734-0.311,1.07c-0.205,0.328-0.545,0.596-1.018,0.797
				c-0.357,0.143-0.717,0.229-1.074,0.26c-0.303,0.023-0.727,0.039-1.268,0.041v-0.406c0.525-0.027,0.887-0.104,1.084-0.227
				c0.371-0.23,0.561-0.732,0.561-1.5c0-0.527-0.094-0.949-0.273-1.271s-0.527-0.484-1.039-0.484c-0.234,0-0.402,0.027-0.506,0.084
				c-0.102,0.053-0.152,0.158-0.152,0.316v5.639c0,0.426,0.074,0.703,0.221,0.834s0.418,0.188,0.82,0.201v0.312h-7.287V55.42
				c0.387-0.014,0.639-0.029,0.756-0.078c0.123-0.049,0.186-0.172,0.186-0.371c0-0.09-0.029-0.227-0.094-0.41
				c-0.037-0.109-0.088-0.24-0.155-0.395l-0.315-0.697h-2.915c-0.211,0.486-0.365,0.842-0.388,0.895
				c-0.162,0.357-0.176,0.512-0.176,0.646c0,0.166,0.134,0.287,0.361,0.361c0.135,0.039,0.337,0.045,0.607,0.049v0.312h-2.478V55.42
				z"/>
			<path fill="#B4B3B0" d="M44.05,53.014l-1.132-2.662H42.82l-1.068,2.662H44.05z M43.835,55.732V55.42
				c0.386-0.014,0.637-0.027,0.756-0.078c0.125-0.047,0.185-0.172,0.186-0.371c0-0.09-0.032-0.227-0.092-0.408
				c-0.04-0.111-0.09-0.24-0.157-0.395l-0.3-0.697h-2.654c-0.173,0.457-0.287,0.754-0.336,0.895
				c-0.103,0.295-0.155,0.51-0.155,0.645c0,0.166,0.112,0.287,0.34,0.361c0.135,0.041,0.337,0.045,0.607,0.049v0.312h-2.412V55.42
				c0.285-0.018,0.513-0.125,0.686-0.359c0.112-0.146,0.271-0.469,0.479-0.967l2.626-6.303h0.329l2.638,6.049
				c0.295,0.68,0.506,1.102,0.651,1.301c0.146,0.193,0.371,0.287,0.641,0.281c0.156-0.004,0.272-0.055,0.416-0.193
				c0.14-0.133,0.22-0.416,0.22-0.844v-5.09c0-0.443-0.086-0.734-0.26-0.871c-0.116-0.09-0.376-0.152-0.78-0.186v-0.291h3.804
				c0.79,0,1.429,0.08,1.918,0.24c0.947,0.328,1.42,0.914,1.42,1.762c0,0.625-0.236,1.117-0.71,1.477
				c-0.362,0.271-0.745,0.443-1.149,0.52l2.066,2.857c0.065,0.092,0.19,0.264,0.243,0.324c0.266,0.293,0.59,0.293,0.796,0.293
				c0.599,0,0.713-0.09,0.844-0.217c0.135-0.137,0.202-0.408,0.202-0.818v-5.09c0-0.436-0.067-0.707-0.202-0.82
				c-0.135-0.117-0.394-0.195-0.778-0.236v-0.291h3.804c1.009,0,1.775,0.158,2.298,0.477c0.528,0.318,0.792,0.867,0.792,1.643
				c0,0.377-0.104,0.734-0.312,1.07c-0.205,0.328-0.544,0.596-1.017,0.797c-0.357,0.143-0.715,0.229-1.073,0.26
				c-0.302,0.023-0.728,0.039-1.27,0.041v-0.406c0.526-0.027,0.888-0.104,1.083-0.227c0.374-0.23,0.561-0.732,0.561-1.5
				c0-0.527-0.09-0.949-0.271-1.271s-0.528-0.484-1.04-0.484c-0.235,0-0.404,0.027-0.508,0.084c-0.1,0.053-0.149,0.158-0.149,0.316
				v5.639c0,0.426,0.073,0.703,0.219,0.834s0.419,0.188,0.82,0.201v0.312h-6.669l-2.454-3.602l-0.001-0.381
				c0.613-0.033,1.062-0.135,1.346-0.307c0.335-0.201,0.502-0.664,0.502-1.393c0-0.447-0.063-0.799-0.189-1.059
				c-0.221-0.439-0.622-0.658-1.202-0.658c-0.316,0-0.524,0.039-0.625,0.117c-0.095,0.076-0.145,0.203-0.145,0.379v5.555
				c0,0.406,0.07,0.68,0.208,0.822c0.138,0.141,0.417,0.199,0.832,0.213v0.312H43.835z"/>
		</g>
		<g>
			<rect x="64.479" y="39.212" fill-rule="evenodd" clip-rule="evenodd" fill="#B4B3B0" width="1.742" height="7.899"/>
			<g>
				<ellipse fill-rule="evenodd" clip-rule="evenodd" fill="#B4B3B0" cx="61.272" cy="40.333" rx="1.653" ry="1.611"/>
				<ellipse fill-rule="evenodd" clip-rule="evenodd" fill="#B4B3B0" cx="58.724" cy="37.219" rx="1.653" ry="1.609"/>
				<ellipse fill-rule="evenodd" clip-rule="evenodd" fill="#B4B3B0" cx="58" cy="26.372" rx="1.653" ry="1.61"/>
				<ellipse fill-rule="evenodd" clip-rule="evenodd" fill="#B4B3B0" cx="57.084" cy="30.252" rx="1.654" ry="1.61"/>
				<ellipse fill-rule="evenodd" clip-rule="evenodd" fill="#B4B3B0" cx="61.65" cy="24.671" rx="1.653" ry="1.612"/>
				<ellipse fill-rule="evenodd" clip-rule="evenodd" fill="#B4B3B0" cx="69.432" cy="40.335" rx="1.655" ry="1.611"/>
				<ellipse fill-rule="evenodd" clip-rule="evenodd" fill="#B4B3B0" cx="74.516" cy="34.12" rx="1.653" ry="1.611"/>
				<ellipse fill-rule="evenodd" clip-rule="evenodd" fill="#B4B3B0" cx="71.98" cy="37.228" rx="1.653" ry="1.612"/>
				<ellipse fill-rule="evenodd" clip-rule="evenodd" fill="#B4B3B0" cx="69.014" cy="24.667" rx="1.653" ry="1.609"/>
				<ellipse fill-rule="evenodd" clip-rule="evenodd" fill="#B4B3B0" cx="72.701" cy="26.372" rx="1.653" ry="1.61"/>
				<ellipse fill-rule="evenodd" clip-rule="evenodd" fill="#B4B3B0" cx="73.605" cy="30.287" rx="1.653" ry="1.611"/>
				<ellipse fill-rule="evenodd" clip-rule="evenodd" fill="#B4B3B0" cx="56.185" cy="34.12" rx="1.653" ry="1.609"/>
				<ellipse fill-rule="evenodd" clip-rule="evenodd" fill="#B4B3B0" cx="63.338" cy="36.028" rx="1.654" ry="1.611"/>
				<ellipse fill-rule="evenodd" clip-rule="evenodd" fill="#B4B3B0" cx="60.816" cy="32.957" rx="1.654" ry="1.61"/>
				<path fill-rule="evenodd" clip-rule="evenodd" fill="#B4B3B0" d="M60.68,30.375c-0.714-0.556-0.83-1.568-0.261-2.265
					c0.569-0.694,1.61-0.809,2.324-0.252c0.713,0.554,0.831,1.567,0.26,2.263C62.434,30.816,61.393,30.929,60.68,30.375z"/>
				<ellipse fill-rule="evenodd" clip-rule="evenodd" fill="#B4B3B0" cx="65.349" cy="27.403" rx="1.654" ry="1.611"/>
				<ellipse fill-rule="evenodd" clip-rule="evenodd" fill="#B4B3B0" cx="68.986" cy="29.115" rx="1.653" ry="1.61"/>
				<path fill-rule="evenodd" clip-rule="evenodd" fill="#B4B3B0" d="M68.229,32.946c0-0.891,0.74-1.611,1.656-1.611
					c0.91,0,1.65,0.721,1.65,1.611c0,0.888-0.74,1.609-1.65,1.609C68.97,34.556,68.229,33.834,68.229,32.946z"/>
				<ellipse fill-rule="evenodd" clip-rule="evenodd" fill="#B4B3B0" cx="67.371" cy="36.028" rx="1.653" ry="1.611"/>
				<ellipse fill-rule="evenodd" clip-rule="evenodd" fill="#B4B3B0" cx="65.389" cy="31.628" rx="1.653" ry="1.609"/>
				<ellipse fill-rule="evenodd" clip-rule="evenodd" fill="#B4B3B0" cx="65.325" cy="22.923" rx="1.655" ry="1.61"/>
			</g>
		</g>
		<rect x="39.692" y="57.367" fill-rule="evenodd" clip-rule="evenodd" fill="#B4B3B0" width="51.314" height="1.697"/>
	</g>
	<g>
		<path fill="#B4B3B0" d="M90.208,46.998c0.59,0,1.062,0.48,1.062,1.072c0,0.6-0.473,1.076-1.068,1.076
			c-0.59,0-1.07-0.477-1.07-1.076c0-0.592,0.48-1.072,1.07-1.072H90.208z M90.198,47.213c-0.447,0-0.809,0.387-0.809,0.861
			c0,0.482,0.361,0.857,0.812,0.857c0.453,0.006,0.82-0.375,0.82-0.857c0-0.475-0.367-0.861-0.82-0.861H90.198z M90.017,48.693
			h-0.25v-1.189c0.094-0.016,0.199-0.035,0.379-0.035c0.205,0,0.33,0.035,0.41,0.096c0.066,0.053,0.105,0.135,0.105,0.258
			c0,0.145-0.1,0.242-0.23,0.277v0.01c0.105,0.018,0.172,0.113,0.191,0.291c0.023,0.184,0.049,0.256,0.066,0.293h-0.262
			c-0.027-0.043-0.047-0.148-0.072-0.309c-0.018-0.129-0.094-0.182-0.223-0.182h-0.115V48.693z M90.017,48.008h0.119
			c0.148,0,0.264-0.047,0.264-0.172c0-0.1-0.072-0.176-0.244-0.176c-0.062,0-0.105,0-0.139,0.006V48.008z"/>
	</g>
</g>
</svg>
