<?xml version="1.0" encoding="utf-8"?>
<!-- Generator: Adobe Illustrator 16.0.0, SVG Export Plug-In . SVG Version: 6.00 Build 0)  -->
<!DOCTYPE svg PUBLIC "-//W3C//DTD SVG 1.1//EN" "http://www.w3.org/Graphics/SVG/1.1/DTD/svg11.dtd">
<svg version="1.1" id="Capa_1" xmlns="http://www.w3.org/2000/svg" xmlns:xlink="http://www.w3.org/1999/xlink" x="0px" y="0px"
	 width="130px" height="80px" viewBox="0 0 130 80" enable-background="new 0 0 130 80" xml:space="preserve">
<path fill="#B4B3B0" d="M28.084,41.227c-0.419,0.229-1.014,0.551-2.235,0.551c-2.566,0-4.306-1.61-4.306-3.779
	c0-1.191,0.375-2.272,1.365-3.061c0.727-0.585,1.774-0.931,2.688-0.931c1.376,0,2.015,0.345,2.643,0.411l0.033,0.032
	c-0.165,0.465-0.241,0.941-0.285,1.537l-0.034,0.031H27.72l-0.033-0.031c0-0.412-0.011-0.52-0.045-0.951
	c-0.572-0.467-1.223-0.64-2.069-0.64c-1.542,0-3.095,0.984-3.095,3.354c0,1.597,1.155,3.573,3.545,3.573
	c1.233,0,1.829-0.431,2.225-0.712l0.099,0.086L28.084,41.227z"/>
<path fill="#B4B3B0" d="M30.033,35.37c0-0.53-0.022-0.66-0.076-0.736c-0.044-0.065-0.154-0.141-0.585-0.162l-0.396-0.022
	l-0.035-0.032v-0.249l0.035-0.032c0.461,0.011,0.969,0.032,1.475,0.032c0.496,0,1.003-0.021,1.465-0.032l0.032,0.032v0.249
	l-0.032,0.032l-0.397,0.022c-0.429,0.021-0.54,0.097-0.584,0.162c-0.054,0.076-0.076,0.206-0.076,0.736v2.097
	c0.749,0.011,1.519,0.033,2.279,0.033c0.749,0,1.509-0.022,2.258-0.033V35.37c0-0.53-0.022-0.66-0.077-0.736
	c-0.045-0.065-0.155-0.141-0.583-0.162l-0.396-0.022l-0.034-0.032v-0.249l0.034-0.032c0.463,0.011,0.968,0.032,1.463,0.032
	c0.505,0,1.011-0.021,1.473-0.032l0.034,0.032v0.249l-0.034,0.032l-0.396,0.022c-0.429,0.021-0.54,0.097-0.583,0.162
	c-0.055,0.076-0.076,0.206-0.076,0.736v5.047c0,0.528,0.021,0.658,0.076,0.734c0.043,0.065,0.154,0.14,0.583,0.16l0.396,0.023
	l0.034,0.031v0.251l-0.034,0.03c-0.462-0.01-0.968-0.03-1.473-0.03c-0.495,0-1,0.021-1.463,0.03l-0.034-0.03v-0.251l0.034-0.031
	l0.396-0.023c0.429-0.021,0.539-0.095,0.583-0.16c0.055-0.076,0.077-0.206,0.077-0.734v-2.496c-0.749-0.011-1.509-0.032-2.258-0.032
	c-0.76,0-1.531,0.021-2.279,0.032v2.496c0,0.528,0.022,0.658,0.076,0.734c0.044,0.065,0.155,0.14,0.584,0.16l0.397,0.023
	l0.032,0.031v0.251l-0.032,0.03c-0.462-0.01-0.97-0.03-1.465-0.03c-0.506,0-1.013,0.021-1.475,0.03l-0.035-0.03v-0.251l0.035-0.031
	l0.396-0.023c0.431-0.021,0.541-0.095,0.585-0.16c0.054-0.076,0.076-0.206,0.076-0.734V35.37z"/>
<path fill="#B4B3B0" d="M38.243,37.478c0-2.142,1.44-3.146,2.969-3.146c1.78,0,3.164,1.254,3.164,3.699
	c0,2.568-1.704,3.391-3.033,3.391C39.211,41.422,38.243,39.477,38.243,37.478 M37.341,37.998c0,1.5,0.858,3.779,3.804,3.779
	c2.714,0,4.166-2.052,4.166-4.029c0-2.345-1.528-3.741-4.023-3.741C39.288,34.007,37.341,35.197,37.341,37.998"/>
<path fill="#B4B3B0" d="M46.686,35.37c0-0.53-0.022-0.66-0.076-0.736c-0.044-0.065-0.153-0.141-0.584-0.162L45.63,34.45
	l-0.032-0.032v-0.249l0.032-0.032c0.461,0.011,0.967,0.032,1.473,0.032c0.495,0,1-0.021,1.463-0.032l0.032,0.032v0.249l-0.032,0.032
	l-0.396,0.022c-0.429,0.021-0.54,0.097-0.583,0.162c-0.054,0.076-0.077,0.206-0.077,0.736v5.047c0,0.528,0.022,0.658,0.077,0.734
	c0.043,0.065,0.154,0.14,0.583,0.16l0.396,0.023l0.032,0.031v0.251l-0.032,0.03c-0.463-0.01-0.968-0.03-1.463-0.03
	c-0.506,0-1.012,0.021-1.473,0.03l-0.032-0.03v-0.251l0.032-0.031l0.395-0.023c0.431-0.021,0.54-0.095,0.584-0.16
	c0.054-0.076,0.076-0.206,0.076-0.734V35.37z"/>
<path fill="#B4B3B0" d="M55.479,41.227c-0.417,0.229-1.01,0.551-2.231,0.551c-2.562,0-4.298-1.61-4.298-3.779
	c0-1.189,0.374-2.272,1.362-3.061c0.726-0.585,1.771-0.931,2.684-0.931c1.373,0,2.011,0.345,2.637,0.411l0.032,0.032
	c-0.165,0.465-0.24,0.941-0.285,1.537l-0.032,0.031h-0.231l-0.033-0.031c0-0.412-0.011-0.52-0.044-0.951
	c-0.571-0.467-1.221-0.64-2.066-0.64c-1.54,0-3.088,0.984-3.088,3.354c0,1.597,1.153,3.573,3.538,3.573
	c1.231,0,1.827-0.431,2.221-0.712l0.099,0.086L55.479,41.227z"/>
<path fill="#B4B3B0" d="M57.427,35.37c0-0.53-0.022-0.66-0.077-0.736c-0.046-0.065-0.155-0.141-0.584-0.162L56.37,34.45
	l-0.034-0.032v-0.249l0.034-0.032c0.539,0.011,1.09,0.032,1.629,0.032c1.299,0,2.588-0.021,3.886-0.032l0.035,0.032
	c-0.132,0.802-0.155,1.558-0.155,1.633l-0.033,0.032H61.47l-0.034-0.032c0-0.334-0.011-0.41-0.079-1.048
	c-0.505-0.14-1.046-0.228-1.806-0.228c-0.429,0-0.925,0.012-1.266,0.034c-0.021,0.378-0.034,0.595-0.034,1.005v2.011
	c0.253,0.022,0.626,0.034,1.014,0.034c0.54,0,1.255-0.022,1.366-0.086c0.122-0.077,0.131-0.163,0.198-0.844l0.033-0.034h0.232
	l0.032,0.034c-0.011,0.292-0.032,0.681-0.032,1.168c0,0.561,0.021,1.025,0.032,1.155l-0.032,0.033h-0.232l-0.033-0.033
	c-0.067-0.756-0.076-0.832-0.276-0.906c-0.209-0.077-0.871-0.098-1.19-0.098c-0.342,0-0.759,0.01-1.112,0.033v1.846
	c0,0.423,0.012,0.909,0.022,1.383h1.509c0.572,0,1.177-0.054,1.739-0.193c0.177-0.606,0.199-0.767,0.265-1.212l0.033-0.031h0.241
	l0.035,0.031c-0.11,1.026-0.11,1.255-0.11,1.763l-0.032,0.03c-0.826-0.01-1.885-0.03-3.372-0.03c-0.825,0-1.443,0.021-1.606,0.03
	l-0.035-0.03v-0.219l0.035-0.032l0.307-0.16c0.033-0.012,0.067-0.055,0.067-0.097c0.055-0.606,0.077-1.286,0.077-1.956V35.37z"/>
<path fill="#B4B3B0" d="M66.508,35.37c0-0.53-0.021-0.66-0.076-0.736c-0.045-0.065-0.156-0.141-0.586-0.162l-0.397-0.022
	l-0.034-0.032v-0.249l0.034-0.032c0.465,0.011,0.972,0.032,1.481,0.032c0.495,0,1.003-0.021,1.468-0.032l0.033,0.032v0.249
	l-0.033,0.032L68,34.472c-0.431,0.021-0.542,0.097-0.588,0.162c-0.053,0.076-0.076,0.206-0.076,0.736v2.097
	c0.752,0.011,1.525,0.033,2.287,0.033c0.753,0,1.513-0.022,2.264-0.033V35.37c0-0.53-0.024-0.66-0.077-0.736
	c-0.045-0.065-0.153-0.141-0.583-0.162l-0.4-0.022l-0.032-0.032v-0.249l0.032-0.032c0.465,0.011,0.972,0.032,1.469,0.032
	c0.507,0,1.014-0.021,1.477-0.032l0.033,0.032v0.249l-0.033,0.032l-0.396,0.022c-0.429,0.021-0.54,0.097-0.584,0.162
	c-0.057,0.076-0.077,0.206-0.077,0.736v5.047c0,0.528,0.021,0.658,0.077,0.734c0.044,0.065,0.155,0.14,0.584,0.16l0.396,0.023
	l0.033,0.031v0.251l-0.033,0.03c-0.463-0.01-0.97-0.03-1.477-0.03c-0.497,0-1.004,0.021-1.469,0.03l-0.032-0.03v-0.251l0.032-0.031
	l0.4-0.023c0.43-0.021,0.538-0.095,0.583-0.16c0.053-0.076,0.077-0.206,0.077-0.734v-2.496c-0.751-0.011-1.511-0.032-2.264-0.032
	c-0.762,0-1.535,0.021-2.287,0.032v2.496c0,0.528,0.023,0.658,0.076,0.734c0.046,0.065,0.157,0.14,0.588,0.16l0.397,0.023
	l0.033,0.031v0.251l-0.033,0.03c-0.465-0.01-0.973-0.03-1.468-0.03c-0.51,0-1.017,0.021-1.481,0.03l-0.034-0.03v-0.251l0.034-0.031
	l0.397-0.023c0.43-0.021,0.541-0.095,0.586-0.16c0.056-0.076,0.076-0.206,0.076-0.734V35.37z"/>
<path fill="#B4B3B0" d="M74.742,37.478c0-2.142,1.443-3.146,2.978-3.146c1.786,0,3.175,1.254,3.175,3.699
	c0,2.568-1.709,3.391-3.042,3.391C75.712,41.422,74.742,39.477,74.742,37.478 M73.84,37.998c0,1.5,0.859,3.779,3.813,3.779
	c2.724,0,4.176-2.052,4.176-4.029c0-2.345-1.531-3.741-4.031-3.741C75.791,34.007,73.84,35.197,73.84,37.998"/>
<path fill="#B4B3B0" d="M84.536,36.094c0-0.627-0.021-1.233-0.031-1.535h-0.363c-0.441,0-0.892,0.021-1.157,0.042
	c-0.562,0.043-0.55,0.043-0.586,0.389l-0.086,0.833l-0.031,0.033h-0.254l-0.033-0.033c0.012-0.681-0.032-1.243-0.077-1.655
	l0.032-0.031c0.485,0,0.981,0.009,1.476,0.021c0.509,0,1.015,0.01,1.52,0.01c0.518,0,1.024-0.01,1.533-0.01
	c0.493-0.011,0.988-0.021,1.474-0.021l0.033,0.031c-0.044,0.412-0.088,0.974-0.077,1.655l-0.034,0.033h-0.251l-0.035-0.033
	L87.5,34.99c-0.034-0.346-0.022-0.346-0.582-0.389c-0.269-0.021-0.718-0.042-1.158-0.042h-0.362
	c-0.011,0.302-0.034,0.908-0.034,1.535v4.323c0,0.528,0.023,0.658,0.077,0.734c0.045,0.065,0.157,0.14,0.584,0.162l0.396,0.021
	l0.033,0.031v0.251l-0.033,0.03c-0.462-0.01-0.969-0.03-1.465-0.03c-0.504,0-1.012,0.021-1.476,0.03l-0.031-0.03v-0.251l0.031-0.031
	l0.398-0.021c0.427-0.022,0.537-0.097,0.584-0.162c0.054-0.076,0.074-0.206,0.074-0.734V36.094z"/>
<path fill="#B4B3B0" d="M89.525,35.37c0-0.53-0.021-0.66-0.076-0.736c-0.045-0.065-0.154-0.141-0.586-0.162l-0.395-0.022
	l-0.033-0.032v-0.249l0.033-0.032c0.538,0.011,1.09,0.032,1.631,0.032c1.299,0,2.586-0.021,3.887-0.032l0.031,0.032
	c-0.133,0.802-0.152,1.558-0.152,1.633l-0.035,0.032h-0.264l-0.033-0.032c0-0.334-0.01-0.41-0.076-1.048
	c-0.506-0.14-1.047-0.228-1.807-0.228c-0.43,0-0.924,0.012-1.266,0.034c-0.021,0.378-0.033,0.595-0.033,1.005v2.011
	c0.254,0.022,0.629,0.034,1.016,0.034c0.539,0,1.252-0.022,1.363-0.086c0.119-0.077,0.131-0.163,0.197-0.844l0.033-0.034h0.232
	l0.031,0.034c-0.012,0.292-0.031,0.681-0.031,1.168c0,0.561,0.02,1.025,0.031,1.155l-0.031,0.033h-0.232l-0.033-0.033
	c-0.066-0.756-0.078-0.832-0.273-0.906c-0.211-0.077-0.873-0.098-1.191-0.098c-0.34,0-0.758,0.01-1.111,0.033v1.846
	c0,0.423,0.012,0.909,0.021,1.383h1.508c0.574,0,1.178-0.054,1.74-0.193c0.176-0.606,0.199-0.767,0.264-1.212l0.035-0.031h0.242
	l0.031,0.031c-0.109,1.026-0.109,1.255-0.109,1.763l-0.033,0.03c-0.826-0.01-1.883-0.03-3.367-0.03c-0.826,0-1.443,0.021-1.61,0.03
	l-0.032-0.03v-0.219l0.032-0.032l0.31-0.16c0.034-0.012,0.066-0.055,0.066-0.097c0.056-0.606,0.076-1.286,0.076-1.956V35.37z"/>
<path fill="#B4B3B0" d="M95.846,35.37c0-0.53-0.021-0.66-0.076-0.736c-0.045-0.065-0.156-0.141-0.584-0.162l-0.398-0.022
	l-0.031-0.032v-0.249l0.031-0.032c0.465,0.011,0.971,0.032,1.477,0.032c0.494,0,1.002-0.021,1.465-0.032l0.033,0.032v0.249
	l-0.033,0.032l-0.398,0.022c-0.43,0.021-0.539,0.097-0.58,0.162c-0.057,0.076-0.078,0.206-0.078,0.736v5.133
	c0,0.282,0.021,0.442,0.043,0.723h1.432c0.893,0,1.498-0.096,1.918-0.227c0.143-0.485,0.176-0.583,0.33-1.232l0.031-0.033h0.256
	l0.031,0.033c-0.111,0.595-0.221,1.298-0.23,1.849l-0.033,0.03c-1.135-0.01-2.27-0.03-3.402-0.03c-0.916,0-1.277,0.021-1.654,0.03
	l-0.033-0.03v-0.219l0.033-0.032l0.377-0.193c0.055-0.669,0.076-1.35,0.076-2.019V35.37z"/>
<path fill="#B4B3B0" d="M105.229,36.018l-0.033-0.031l-0.021-0.661c-0.266-0.659-0.771-0.963-1.566-0.963
	c-1.033,0-1.572,0.649-1.572,1.374c0,0.975,0.836,1.243,2.092,1.633c1.059,0.324,2.016,0.649,2.016,1.987
	c0,1.136-0.98,2.42-3.107,2.42c-0.758,0-1.342-0.205-1.727-0.355l-0.033-0.043c0.064-0.626,0.055-1.221,0.064-1.782l0.033-0.033
	h0.264l0.033,0.033c0.012,0.193,0.045,0.69,0.111,0.929c0.242,0.475,0.639,0.863,1.574,0.863c1.004,0,1.961-0.581,1.961-1.739
	c0-0.994-0.572-1.198-2.18-1.707c-0.816-0.258-1.816-0.561-1.816-1.869c0-1.007,0.615-2.066,2.564-2.066
	c0.826,0,1.396,0.174,1.795,0.39l0.033,0.043c-0.055,0.271-0.166,1.007-0.166,1.547l-0.033,0.031H105.229z"/>
<line fill="#B4B3B0" x1="21.655" y1="32.01" x2="106.359" y2="32.01"/>
<line fill="#B4B3B0" x1="21.655" y1="32.01" x2="106.359" y2="32.01"/>
<line fill="#B4B3B0" x1="21.57" y1="48.049" x2="106.275" y2="48.049"/>
<line fill="#B4B3B0" x1="21.57" y1="48.049" x2="106.275" y2="48.049"/>
<polygon fill="#B4B3B0" points="107.494,47.092 107.068,47.092 107.068,46.949 108.094,46.949 108.094,47.092 107.664,47.092 
	107.664,48.229 107.494,48.229 "/>
<polygon fill="#B4B3B0" points="108.238,46.949 108.473,46.949 108.877,48.025 109.281,46.949 109.514,46.949 109.514,48.229 
	109.352,48.229 109.352,47.166 109.352,47.166 108.951,48.229 108.805,48.229 108.404,47.166 108.4,47.166 108.4,48.229 
	108.238,48.229 "/>
<path fill="#B4B3B0" d="M46.25,43.682v-0.139c0.154,0.004,0.302,0.008,0.441,0.008c0.143,0,0.278-0.004,0.409-0.008
	c0.128,0.293,0.247,0.549,0.354,0.77l0.832,1.713l0.75-1.57c0.205-0.426,0.342-0.734,0.411-0.912
	c0.156,0.004,0.287,0.008,0.394,0.008c0.097,0,0.256-0.004,0.476-0.008v0.139c-0.175,0.004-0.28,0.012-0.317,0.023
	s-0.063,0.029-0.078,0.051c-0.02,0.031-0.03,0.104-0.033,0.215c-0.002,0.027-0.005,0.234-0.011,0.623v1.016
	c0,0.197,0.003,0.393,0.011,0.582c0.004,0.137,0.014,0.223,0.031,0.246c0.016,0.025,0.044,0.047,0.081,0.059
	c0.037,0.014,0.143,0.021,0.315,0.023v0.139c-0.296-0.01-0.504-0.018-0.626-0.018c-0.098,0-0.313,0.008-0.649,0.018V46.52
	c0.175-0.002,0.28-0.01,0.318-0.023c0.038-0.012,0.064-0.031,0.077-0.053c0.02-0.025,0.03-0.1,0.033-0.211
	c0.001-0.031,0.005-0.24,0.01-0.623v-1.611l-0.756,1.584c-0.119,0.246-0.212,0.447-0.28,0.598c-0.049,0.109-0.121,0.283-0.219,0.523
	h-0.086c-0.019-0.057-0.037-0.102-0.052-0.135l-0.15-0.318l-1.049-2.18v1.539c0,0.197,0.003,0.393,0.008,0.582
	c0.005,0.137,0.016,0.223,0.032,0.246c0.017,0.025,0.044,0.047,0.081,0.059c0.039,0.014,0.144,0.021,0.318,0.023v0.139l-0.53-0.012
	l-0.547,0.012V46.52c0.172-0.002,0.276-0.01,0.315-0.023c0.039-0.012,0.064-0.031,0.079-0.053c0.017-0.025,0.028-0.1,0.033-0.211
	c0.001-0.029,0.005-0.24,0.011-0.623v-1.016c0-0.201-0.002-0.395-0.006-0.584c-0.004-0.141-0.015-0.223-0.033-0.248
	c-0.017-0.023-0.043-0.045-0.081-0.057C46.531,43.693,46.425,43.686,46.25,43.682"/>
<path fill="#B4B3B0" d="M53.453,46.658V46.52c0.154,0,0.255-0.014,0.303-0.035c0.021-0.01,0.036-0.025,0.044-0.043
	c0.014-0.025,0.024-0.104,0.03-0.229c0.009-0.191,0.013-0.359,0.013-0.5v-1.119c0-0.201-0.002-0.396-0.006-0.584
	c-0.005-0.141-0.017-0.223-0.033-0.248c-0.016-0.027-0.043-0.045-0.081-0.057c-0.037-0.012-0.143-0.018-0.316-0.023v-0.139
	l0.625,0.012l0.663-0.01c0.318-0.004,0.549-0.006,0.692-0.006c0.145,0,0.281,0.006,0.412,0.021c-0.024,0.084-0.04,0.156-0.049,0.219
	c-0.003,0.014-0.016,0.166-0.039,0.457h-0.139c0.001-0.148-0.008-0.285-0.028-0.408c-0.081-0.035-0.169-0.057-0.266-0.068
	c-0.164-0.021-0.328-0.031-0.491-0.031c-0.036,0-0.113,0.002-0.235,0.01c-0.122,0.004-0.208,0.01-0.261,0.014
	c-0.006,0.162-0.011,0.314-0.014,0.455l-0.008,0.742c0.171,0.01,0.329,0.014,0.472,0.014c0.174,0,0.323-0.01,0.447-0.023
	c0.046-0.008,0.075-0.02,0.089-0.035c0.015-0.02,0.026-0.078,0.035-0.182l0.014-0.154h0.13v0.043l-0.01,0.457l0.01,0.512h-0.153
	l-0.006-0.148c-0.004-0.111-0.014-0.178-0.031-0.203c-0.016-0.025-0.049-0.045-0.095-0.055c-0.083-0.018-0.244-0.025-0.485-0.025
	c-0.099,0-0.238,0.004-0.417,0.01c-0.007,0.148-0.011,0.363-0.011,0.652c0,0.271,0.004,0.475,0.011,0.617
	c0.211,0.016,0.447,0.023,0.708,0.023c0.186,0,0.319-0.008,0.396-0.018c0.081-0.01,0.153-0.029,0.22-0.059
	c0.018-0.047,0.035-0.105,0.052-0.184c0.033-0.131,0.053-0.23,0.063-0.295h0.147c-0.038,0.297-0.056,0.541-0.056,0.734
	c-0.126,0.02-0.28,0.027-0.459,0.027l-1.311-0.012C54.009,46.646,53.818,46.65,53.453,46.658"/>
<path fill="#B4B3B0" d="M58.992,46.658v-0.145c0.103,0,0.17-0.006,0.205-0.021c0.033-0.014,0.074-0.049,0.121-0.104
	c0.049-0.059,0.159-0.207,0.33-0.447l0.597-0.826l-0.387-0.662c-0.033-0.055-0.1-0.154-0.201-0.299
	c-0.1-0.145-0.188-0.256-0.265-0.328c-0.032-0.031-0.061-0.049-0.088-0.059c-0.027-0.008-0.11-0.014-0.248-0.014v-0.125l0.643-0.105
	c0.054,0.037,0.106,0.086,0.154,0.146c0.07,0.09,0.167,0.24,0.292,0.457l0.368,0.641c0.449-0.639,0.682-0.99,0.696-1.051v-0.174
	c0.159,0.004,0.267,0.008,0.326,0.008c0.059,0,0.147-0.004,0.265-0.008v0.135c-0.092,0.002-0.15,0.01-0.173,0.014
	c-0.023,0.008-0.044,0.016-0.064,0.027c-0.026,0.02-0.064,0.057-0.116,0.119c-0.051,0.057-0.145,0.182-0.283,0.365
	c-0.137,0.186-0.263,0.359-0.38,0.518l-0.164,0.221l0.744,1.199c0.097,0.156,0.168,0.264,0.215,0.312
	c0.022,0.025,0.047,0.039,0.073,0.049c0.027,0.008,0.087,0.012,0.185,0.012v0.145c-0.16-0.004-0.268-0.008-0.323-0.008
	c-0.062,0-0.171,0.004-0.328,0.008c-0.087-0.129-0.168-0.26-0.243-0.385l-0.576-0.986l-0.279,0.393
	c-0.275,0.412-0.439,0.684-0.497,0.822l-0.005,0.156c-0.153-0.004-0.256-0.008-0.31-0.008C59.239,46.65,59.145,46.654,58.992,46.658
	"/>
<path fill="#B4B3B0" d="M66.196,46.52v0.139c-0.312-0.008-0.517-0.012-0.614-0.012l-0.677,0.012V46.52
	c0.173-0.002,0.276-0.01,0.315-0.023c0.038-0.012,0.063-0.031,0.078-0.053c0.018-0.027,0.029-0.1,0.033-0.211
	c0-0.029,0.005-0.24,0.011-0.623v-1.016c0-0.199-0.003-0.396-0.006-0.584c-0.005-0.141-0.016-0.221-0.034-0.248
	c-0.016-0.023-0.043-0.045-0.082-0.055c-0.035-0.014-0.141-0.021-0.315-0.025v-0.139c0.279,0.008,0.495,0.012,0.646,0.012
	c0.147,0,0.361-0.004,0.645-0.012v0.139c-0.173,0.004-0.278,0.012-0.314,0.025c-0.038,0.01-0.063,0.027-0.078,0.049
	c-0.019,0.031-0.028,0.104-0.032,0.215C65.77,44,65.766,44.205,65.76,44.594v1.016c0,0.197,0.002,0.393,0.006,0.582
	c0.006,0.137,0.016,0.223,0.031,0.246c0.018,0.027,0.046,0.047,0.082,0.059C65.917,46.51,66.023,46.518,66.196,46.52"/>
<path fill="#B4B3B0" d="M72.26,46.273l-0.087,0.203c-0.171,0.088-0.338,0.15-0.503,0.189c-0.163,0.037-0.341,0.059-0.534,0.059
	c-0.228,0-0.437-0.027-0.635-0.086c-0.194-0.057-0.362-0.141-0.51-0.244c-0.146-0.109-0.264-0.229-0.356-0.357
	c-0.092-0.133-0.162-0.275-0.21-0.432c-0.049-0.152-0.073-0.322-0.073-0.508c0-0.467,0.162-0.854,0.488-1.162
	c0.325-0.307,0.771-0.459,1.335-0.459c0.133,0,0.255,0.006,0.369,0.023c0.114,0.014,0.252,0.045,0.414,0.088
	c0.164,0.043,0.264,0.068,0.302,0.076c-0.032,0.078-0.056,0.16-0.073,0.234c-0.023,0.127-0.04,0.271-0.048,0.436H72l-0.002-0.262
	c-0.015-0.143-0.094-0.248-0.238-0.32c-0.145-0.07-0.355-0.105-0.633-0.105c-0.208,0.002-0.385,0.031-0.531,0.082
	c-0.145,0.049-0.272,0.131-0.382,0.238c-0.109,0.109-0.201,0.246-0.271,0.414s-0.107,0.379-0.108,0.633
	c0,0.443,0.137,0.799,0.407,1.072c0.27,0.268,0.628,0.402,1.072,0.402c0.201,0,0.388-0.029,0.559-0.082
	c0.117-0.037,0.233-0.096,0.35-0.178L72.26,46.273z"/>
<path fill="#B4B3B0" d="M75.37,45.121c0-0.232,0.035-0.445,0.104-0.641c0.068-0.197,0.185-0.373,0.347-0.529
	c0.16-0.156,0.342-0.275,0.545-0.355c0.204-0.078,0.438-0.119,0.698-0.119c0.24,0,0.462,0.035,0.658,0.102
	c0.199,0.068,0.36,0.156,0.487,0.271c0.128,0.111,0.227,0.234,0.3,0.365c0.057,0.1,0.1,0.219,0.133,0.352
	c0.032,0.135,0.049,0.279,0.049,0.432c0,0.496-0.166,0.906-0.497,1.234c-0.332,0.328-0.749,0.492-1.255,0.492
	c-0.229,0-0.444-0.037-0.644-0.111c-0.198-0.074-0.366-0.186-0.504-0.332c-0.138-0.15-0.243-0.326-0.314-0.537
	C75.405,45.533,75.37,45.326,75.37,45.121 M75.825,44.939c0,0.139,0.015,0.279,0.042,0.424c0.029,0.143,0.064,0.268,0.106,0.371
	c0.071,0.174,0.161,0.324,0.276,0.441c0.113,0.119,0.24,0.207,0.379,0.266c0.141,0.055,0.295,0.082,0.464,0.082
	c0.238,0,0.44-0.059,0.615-0.172s0.307-0.275,0.392-0.484c0.084-0.211,0.128-0.449,0.128-0.723c0-0.23-0.033-0.449-0.093-0.643
	c-0.038-0.121-0.088-0.23-0.151-0.326c-0.062-0.098-0.138-0.182-0.227-0.256c-0.086-0.07-0.198-0.133-0.338-0.182
	c-0.14-0.051-0.288-0.074-0.449-0.074c-0.233,0-0.438,0.049-0.614,0.156c-0.176,0.102-0.309,0.252-0.396,0.449
	C75.87,44.467,75.825,44.689,75.825,44.939"/>
</svg>
