<?xml version="1.0" encoding="utf-8"?>
<!-- Generator: Adobe Illustrator 16.0.0, SVG Export Plug-In . SVG Version: 6.00 Build 0)  -->
<!DOCTYPE svg PUBLIC "-//W3C//DTD SVG 1.1//EN" "http://www.w3.org/Graphics/SVG/1.1/DTD/svg11.dtd">
<svg version="1.1" id="Capa_1" xmlns="http://www.w3.org/2000/svg" xmlns:xlink="http://www.w3.org/1999/xlink" x="0px" y="0px"
	 width="130px" height="80px" viewBox="0 0 130 80" enable-background="new 0 0 130 80" xml:space="preserve">
<g>
	<path fill="#B4B3B0" d="M59.516,40.658c-0.792,0-1.198,0.643-1.304,1.429c-0.116,0.865-0.571,3.875-0.674,4.641
		c-0.06,0.458-0.094,0.937-0.538,1.131c-0.442,0.198-0.983-0.104-1.443-0.493c-0.463-0.396-7.287-6.205-7.287-6.205
		c-0.391-0.342-0.883-0.504-1.354-0.504c-1.029,0-2.02,0.641-2.02,2.203v9.688c0,0.753,0.531,1.237,1.169,1.237
		c0.702,0,1.155-0.466,1.257-1.149c0,0,0.75-4.616,0.842-5.129c0.105-0.6,0.201-1.07,0.779-1.25
		c0.522-0.162,1.016,0.144,1.754,0.785c0.726,0.637,6.871,6.188,6.871,6.188c0.47,0.395,0.811,0.554,1.477,0.554
		c0.605,0,1.701-0.245,1.701-2.09v-9.649C60.746,41.146,60.191,40.658,59.516,40.658"/>
	<path fill="#B4B3B0" d="M103.471,50.981c-5.354,1.151-11.48-0.08-11.48-3.868c0-2.858,2.653-4.026,4.746-4.194
		c2.193-0.176,3.907,0.286,4.792,1.202c0.552,0.573,0.399,1.353-0.684,1.418c-0.998,0.062-2.868,0.116-4.427,0.176
		c-0.883,0.032-1.356,0.507-1.356,1.144c0,0.503,0.38,1.082,1.397,1.086c1.459,0.008,5.158,0.03,6.996,0.036
		c1.214,0.003,1.812-0.677,1.812-2.071c0-2.213-2.005-5.567-7.867-5.567c-5.311,0-9.154,2.646-9.154,6.973
		c0,6.134,9.025,8.005,15.641,5.725c0.626-0.215,1.194-0.665,1.013-1.366C104.738,51.053,104.232,50.815,103.471,50.981"/>
	<path fill="#B4B3B0" d="M41.353,50.981c-5.353,1.151-11.479-0.08-11.479-3.868c0-2.858,2.652-4.026,4.745-4.194
		c2.194-0.176,3.91,0.286,4.793,1.202c0.552,0.573,0.399,1.353-0.685,1.418c-0.997,0.062-2.868,0.116-4.425,0.176
		c-0.884,0.032-1.356,0.507-1.356,1.144c0,0.503,0.38,1.082,1.396,1.086c1.458,0.008,5.159,0.03,6.997,0.036
		c1.214,0.003,1.81-0.677,1.81-2.071c0-2.213-2.002-5.567-7.865-5.567c-5.312,0-9.154,2.646-9.154,6.973
		c0,6.134,9.025,8.005,15.638,5.725c0.629-0.215,1.196-0.665,1.014-1.366C42.621,51.053,42.114,50.815,41.353,50.981"/>
	<path fill="#B4B3B0" d="M82.823,45.083c0.117,3.344,0.433,6.119,0.521,7.093c0.114,1.252,0.764,1.609,1.415,1.609
		c0.623,0,1.286-0.325,1.398-1.6c0.099-1.071,0.415-4.381,0.569-7.655c0.01-0.169-0.111-0.241-0.246-0.219l-3.485,0.566
		C82.895,44.898,82.819,44.982,82.823,45.083"/>
	<path fill="#B4B3B0" d="M84.769,40.342c-1.6,0-2.064,1.254-2.046,2.022c0.001,0.142,0.016,0.538,0.041,1.029
		c0.004,0.112,0.104,0.217,0.237,0.2l3.638-0.591c0.115-0.024,0.17-0.108,0.175-0.202c0.011-0.168,0.015-0.344,0.017-0.428
		C86.854,41.633,86.377,40.342,84.769,40.342"/>
	<path fill="#B4B3B0" d="M79.423,45.676c-1.214,0-4.955,0.028-7.348,0.035c-1.164,0.004-1.453,0.626-1.453,1.143
		c0,0.45,0.311,1.031,1.394,1.087c1.651,0.086,3.752,0.186,4.723,0.234c1.306,0.068,1.321,0.738,0.88,1.313
		c-0.884,1.153-3.041,1.908-5.277,1.908c-2.926,0-6.143-1.663-6.143-4.301c0-2.473,2.754-5.199,10.936-4.05
		c0.72,0.103,1.429-0.028,1.605-0.693c0.188-0.706-0.273-1.162-1.202-1.407c-1.854-0.488-3.545-0.604-5.158-0.604
		c-5.511,0-9.925,2.633-9.925,6.878c0,4.537,4.4,6.754,9.885,6.754c6.126,0,9.11-3.332,9.11-6.248
		C81.449,46.242,80.692,45.676,79.423,45.676"/>
</g>
<g>
	<defs>
		<path id="SVGID_1_" d="M23.194,38.354h84.854c-3.405-2.484-7.175-4.672-11.244-6.511c-9.15-4.136-19.808-6.506-31.185-6.506
			C49.188,25.336,34.255,30.281,23.194,38.354"/>
	</defs>
	<clipPath id="SVGID_2_">
		<use xlink:href="#SVGID_1_"  overflow="visible"/>
	</clipPath>
	<linearGradient id="SVGID_3_" gradientUnits="userSpaceOnUse" x1="65.6553" y1="38.5176" x2="65.6553" y2="25.1436">
		<stop  offset="0" style="stop-color:#B4B3B0;stop-opacity:0"/>
		<stop  offset="1" style="stop-color:#B4B3B0"/>
	</linearGradient>
	<rect x="22.093" y="25.144" clip-path="url(#SVGID_2_)" fill="url(#SVGID_3_)" width="87.125" height="13.374"/>
</g>
</svg>
