<?xml version="1.0" encoding="utf-8"?>
<!-- Generator: Adobe Illustrator 16.0.0, SVG Export Plug-In . SVG Version: 6.00 Build 0)  -->
<!DOCTYPE svg PUBLIC "-//W3C//DTD SVG 1.1//EN" "http://www.w3.org/Graphics/SVG/1.1/DTD/svg11.dtd">
<svg version="1.1" id="Capa_1" xmlns="http://www.w3.org/2000/svg" xmlns:xlink="http://www.w3.org/1999/xlink" x="0px" y="0px"
	 width="130px" height="80px" viewBox="0 0 130 80" enable-background="new 0 0 130 80" xml:space="preserve">
<g>
	<path fill="#B4B3B0" d="M99.396,44.34c0-0.227-0.172-0.427-0.4-0.427c-0.227,0-0.428,0.2-0.428,0.427c0,0.228,0.201,0.4,0.428,0.4
		C99.225,44.74,99.396,44.567,99.396,44.34"/>
	<path fill="#B4B3B0" d="M84.521,44.34c0-0.227-0.199-0.427-0.428-0.427c-0.23,0-0.398,0.2-0.398,0.427c0,0.228,0.168,0.4,0.398,0.4
		C84.322,44.74,84.521,44.567,84.521,44.34"/>
	<g>
		<path fill="#B4B3B0" d="M107.057,47.192h-1.854c0.057-0.482,0.258-1.084,0.969-1.084
			C106.801,46.108,107.057,46.596,107.057,47.192 M107.816,47.736c0.008-0.057,0.01-0.141,0.01-0.206
			c0-1.153-0.404-1.991-1.654-1.991c-1.084,0-1.738,0.827-1.738,1.969c0,1.285,0.568,2.112,1.939,2.112
			c0.656,0,0.885-0.144,1.143-0.256v-0.715c-0.172,0.144-0.629,0.401-1.113,0.401c-0.686,0-1.199-0.544-1.199-1.314H107.816z"/>
		<path fill="#B4B3B0" d="M103.748,49.533v-2.312c0-1.056-0.428-1.683-1.428-1.683c-0.543,0-1.027,0.256-1.227,0.713h-0.029v-0.627
			h-0.686v3.908h0.715v-1.797c0-0.972,0.314-1.657,1.143-1.628c0.627,0.03,0.797,0.487,0.797,1.399v2.025H103.748"/>
		<rect x="98.625" y="45.625" fill="#B4B3B0" width="0.715" height="3.908"/>
		<path fill="#B4B3B0" d="M97.92,49.506c-0.287-0.087-0.344-0.285-0.344-0.541c0,0,0-0.229,0-4.852h-0.742c0,4.764,0,4.938,0,4.938
			c0,0.368,0.17,0.569,0.57,0.569C97.662,49.62,97.805,49.562,97.92,49.506"/>
		<polyline fill="#B4B3B0" points="96.379,49.536 94.135,46.733 96.186,44.2 95.309,44.2 93.424,46.569 93.424,44.2 92.676,44.2 
			92.676,49.536 93.424,49.536 93.424,46.938 95.395,49.536 96.379,49.536 		"/>
		<path fill="#B4B3B0" d="M91.604,49.533v-2.312c0-1.056-0.43-1.683-1.43-1.683c-0.541,0-0.939,0.229-1.197,0.657h-0.029v-2.083
			h-0.711v5.42h0.711v-1.797c0-0.972,0.316-1.657,1.143-1.628c0.629,0.03,0.799,0.487,0.799,1.399v2.025H91.604"/>
		<path fill="#B4B3B0" d="M87.564,49.506v-0.599c-0.113,0.058-0.258,0.144-0.484,0.144c-0.342,0-0.6-0.258-0.6-0.716v-2.139h0.971
			v-0.571H86.48v-1.142l-0.713,0.227v0.915H85.08v0.571h0.688v2.281c0,0.799,0.457,1.143,1.199,1.143
			C87.193,49.62,87.422,49.562,87.564,49.506"/>
		<rect x="83.723" y="45.625" fill="#B4B3B0" width="0.713" height="3.908"/>
		<path fill="#B4B3B0" d="M82.754,49.533v-2.513c0-0.854-0.369-1.481-1.369-1.481c-0.342,0-0.941,0.199-1.197,0.741
			c-0.199-0.512-0.656-0.741-1.113-0.741c-0.572,0-0.973,0.199-1.256,0.657v-0.571h-0.688v3.908h0.715v-1.968
			c0-0.741,0.314-1.457,1.029-1.457c0.598,0,0.713,0.602,0.713,1.084v2.341h0.713v-1.968c0-0.741,0.285-1.457,1.027-1.457
			c0.57,0,0.686,0.602,0.686,1.084v2.341H82.754"/>
		<path fill="#B4B3B0" d="M76.514,48.05c0-1.084-0.914-1.397-1.711-1.77c-0.146-0.057-0.287-0.114-0.402-0.201
			c-0.229-0.139-0.398-0.341-0.398-0.626c0-0.571,0.57-0.743,1.057-0.743c0.379,0,0.791,0.12,1.084,0.231l0.113-0.63
			c-0.398-0.144-0.855-0.229-1.227-0.229c-1.088,0-1.885,0.515-1.885,1.456c0,1.027,0.998,1.285,1.713,1.627
			c0.4,0.17,0.857,0.429,0.857,0.914c0,0.684-0.715,0.912-1.172,0.912c-0.43,0-0.953-0.134-1.256-0.257l-0.055,0.684
			c0.309,0.099,0.828,0.201,1.182,0.201C75.584,49.62,76.514,49.163,76.514,48.05"/>
		<polyline fill="#B4B3B0" points="68.613,49.533 67.355,47.479 68.498,45.625 67.668,45.625 66.928,47.021 66.186,45.625 
			65.301,45.625 66.443,47.479 65.158,49.533 66.014,49.533 66.873,47.992 67.727,49.533 68.613,49.533 		"/>
		<path fill="#B4B3B0" d="M60.891,49.506c-0.286-0.087-0.343-0.285-0.343-0.541c0,0,0-0.229,0-4.852h-0.742c0,4.764,0,4.938,0,4.938
			c0,0.368,0.172,0.569,0.571,0.569C60.635,49.62,60.805,49.562,60.891,49.506"/>
		<path fill="#B4B3B0" d="M58.924,49.391v-2.329h-0.771v1.788c-0.201,0.058-0.342,0.086-0.855,0.086
			c-1.113,0-2.026-0.828-2.026-2.083c0-1.201,0.827-2.083,2.053-2.083c0.656,0,1.17,0.172,1.484,0.369l0.057-0.77
			c-0.456-0.172-0.799-0.286-1.568-0.286c-1.627,0-2.826,1.113-2.826,2.741c0,1.711,1.113,2.796,2.797,2.796
			C58.124,49.62,58.609,49.477,58.924,49.391"/>
		<path fill="#B4B3B0" d="M72.592,47.565c0-1.171-0.684-2.026-1.855-2.026c-1.197,0-1.883,0.855-1.883,2.026
			c0,1.141,0.686,2.055,1.883,2.055C71.908,49.62,72.592,48.706,72.592,47.565 M71.82,47.565c0,0.712-0.256,1.485-1.084,1.485
			c-0.855,0-1.111-0.773-1.111-1.485c0-0.741,0.312-1.457,1.111-1.457C71.479,46.108,71.82,46.824,71.82,47.565z"/>
		<path fill="#B4B3B0" d="M64.625,49.533c-0.029-0.114-0.029-0.312-0.029-0.77v-1.626c0-1.059-0.4-1.599-1.512-1.599
			c-0.517,0-0.885,0.142-1.257,0.372l0.057,0.598c0.285-0.229,0.657-0.4,1.086-0.4c0.714,0,0.882,0.344,0.882,1.029
			c-0.283-0.03-0.455-0.03-0.742-0.03c-0.741,0-1.711,0.314-1.711,1.285c0,0.854,0.542,1.228,1.369,1.228
			c0.656,0,1-0.373,1.142-0.599h0.029v0.512H64.625 M63.852,48.02c0,0.572-0.312,1.031-1.026,1.031
			c-0.313,0-0.657-0.229-0.657-0.658c0-0.684,0.886-0.741,1.255-0.741c0.172,0,0.285,0.028,0.428,0.028V48.02z"/>
	</g>
	<path fill="#B4B3B0" d="M44.656,51.862c-2.055,1.514-4.254,2.426-6.825,2.426c-5.283,0-9.852-3.797-12.42-8.195
		c0.571,0.429,1.228,0.801,1.911,1c0.943,0.286,2,0.428,2.801,0.428c3.026,0,4.283-1.142,4.34-2.713c0.029-1.368-1-2.14-2.914-2.255
		l-1.97-0.115c-0.913-0.058-1.113-0.341-1.113-0.714c0-0.221,0.111-0.474,0.354-0.669c0.162-0.134,0.374-0.235,0.606-0.28
		c0.24,0.027,0.448,0.035,0.639,0.035c2.227,0,3.483-1.339,3.483-2.938c0-0.688-0.256-1.399-0.714-1.915
		c0.487,0,1.399,0.057,1.686,0.114v-1.141c-0.515,0.142-1.141,0.17-1.686,0.17c-0.456,0-0.884-0.085-1.285-0.2
		c-0.485-0.143-1.053-0.256-1.537-0.256c-2.238,0-3.62,1.373-3.62,3.148c0,1.221,0.789,2.305,1.931,2.733
		c-0.856,0.398-1.314,0.971-1.314,1.629c0,0.742,0.6,1.511,1.771,1.625c0.741,0.058,1.113,0.087,2.169,0.145
		c1.058,0.058,1.399,0.086,1.798,0.229c0.372,0.144,0.63,0.514,0.63,0.855c0,0.686-0.487,1.056-0.972,1.257
		c-0.485,0.172-1.258,0.257-2.114,0.257c-3.083,0-5.339-1.599-6.594-4.395c-0.743-1.659-1-3.229-1-4.972
		c0-1.142,0.286-2.512,0.77-3.484c3.257-6.738,13.393-7.88,19.961-7.88c1.569,0,2.998,0.029,4.567,0.286
		c4.342,0.685,7.797,2.799,7.797,7.567C55.793,40.011,49.567,48.207,44.656,51.862 M30.115,39.896c-1.398,0-2.164-1.028-2.164-2.342
		c0-1.172,0.722-1.969,1.92-1.969c1.371,0,2.108,1.021,2.108,2.304C31.979,39.063,31.342,39.896,30.115,39.896z M50.995,43.408
		c-0.485,0-1.285-0.34-2.341-1.482c-1.371-1.515-2.827-3.228-2.827-3.228l2.426-2.283c1.428-1.344,1.829-1.429,1.942-1.458H47.94
		c-0.456,0.6-0.972,1.056-0.972,1.056l-2.598,2.429v-7.654l-1.971,0.513c0.258,0.343,0.344,0.915,0.344,2.2v7.909
		c0,1.599-0.086,1.772-0.258,2.227c0.486,0,1.571,0,2.114,0c-0.143-0.37-0.229-0.628-0.229-2.227v-2.283
		c0,0,1.172,1.398,2.628,3.139c0.913,1.085,1.656,1.571,2.54,1.571c0.688,0,1.314-0.172,1.743-0.486
		C51.195,43.381,51.081,43.408,50.995,43.408z M39.001,38.783c-1.14-0.57-2.227-1.085-2.227-2c0-0.77,0.827-1.112,1.686-1.112
		c0.884,0,1.713,0.313,2.398,0.857v-1.286c-0.714-0.4-1.541-0.599-2.37-0.599c-1.544,0-3.255,0.771-3.255,2.54
		c0,1.456,1.285,2.083,2.484,2.655c1.084,0.516,2.084,0.971,2.084,1.915c0,0.941-1,1.143-1.8,1.143
		c-0.742,0-1.913-0.315-2.854-0.829v1.313c0.914,0.371,1.797,0.571,2.797,0.571c1.6,0,3.512-0.657,3.512-2.57
		C41.457,40.068,40.202,39.385,39.001,38.783z"/>
</g>
</svg>
