<?xml version="1.0" encoding="utf-8"?>
<!-- Generator: Adobe Illustrator 16.0.0, SVG Export Plug-In . SVG Version: 6.00 Build 0)  -->
<!DOCTYPE svg PUBLIC "-//W3C//DTD SVG 1.1//EN" "http://www.w3.org/Graphics/SVG/1.1/DTD/svg11.dtd">
<svg version="1.1" id="Capa_1" xmlns="http://www.w3.org/2000/svg" xmlns:xlink="http://www.w3.org/1999/xlink" x="0px" y="0px"
	 width="130px" height="80px" viewBox="0 0 130 80" enable-background="new 0 0 130 80" xml:space="preserve">
<g>
	<path fill-rule="evenodd" clip-rule="evenodd" fill="#B4B3B0" d="M109.252,35.662c-0.199,0.479-0.34,0.848-0.512,1.203
		c-0.045,0.092-0.178,0.169-0.285,0.197c-0.135,0.035-0.285,0.015-0.428,0.015c-1.48,0-2.961-0.001-4.441,0.002
		c-0.533,0.001-0.535,0.003-0.709,0.494c-0.807,2.262-1.611,4.522-2.416,6.784c-0.172,0.479-0.172,0.48-0.67,0.48
		c-0.828,0.002-1.656,0.002-2.482,0c-0.139,0-0.277-0.016-0.492-0.029c0.914-2.572,1.809-5.094,2.727-7.679
		c-0.209-0.021-0.359-0.048-0.51-0.048c-5.635-0.001-11.271-0.006-16.905,0.011c-0.484,0.001-0.977,0.109-1.451,0.226
		c-0.41,0.101-0.742,0.36-0.963,0.735c-0.387,0.656-0.117,1.333,0.617,1.53c0.168,0.044,0.346,0.062,0.52,0.062
		c2.26-0.003,4.52-0.019,6.779-0.012c0.523,0.001,1.046,0.068,1.567,0.116c0.125,0.011,0.248,0.056,0.369,0.096
		c1.258,0.416,1.727,1.56,1.119,2.742c-0.408,0.799-1.064,1.334-1.867,1.707c-0.972,0.451-2.005,0.613-3.063,0.625
		c-1.051,0.014-2.1-0.008-3.15-0.008c-6.463,0-12.925,0.002-19.387,0c-0.828,0-1.657-0.029-2.462-0.246
		c-0.382-0.102-0.767-0.223-1.121-0.396c-1.208-0.59-1.737-1.686-1.46-3.003c0.072-0.34,0.181-0.68,0.327-0.993
		c1.145-2.449,3.094-3.898,5.689-4.526c0.839-0.203,1.693-0.256,2.556-0.25c2.404,0.013,4.809,0.004,7.211,0.004
		c0.188,0,0.375,0,0.658,0c-0.232,0.597-0.428,1.112-0.641,1.618c-0.027,0.064-0.15,0.11-0.234,0.122
		c-0.141,0.021-0.285,0.011-0.43,0.011c-2.068,0.001-4.139-0.003-6.207,0.003c-0.701,0.002-1.402,0.052-2.076,0.268
		c-0.73,0.234-1.366,0.609-1.784,1.279c-0.115,0.183-0.257,0.368-0.184,0.657c3.319,0,6.64-0.001,10.044-0.001
		c-0.211,0.534-0.395,1-0.582,1.477c-0.789,0.031-1.549,0.068-2.311,0.09c-2.496,0.07-4.996,0.135-7.493,0.201
		c-0.465,0.012-0.505,0.051-0.555,0.513c-0.078,0.715,0.2,1.191,0.872,1.467c0.51,0.209,1.047,0.258,1.592,0.246
		c0.318-0.006,0.636-0.021,0.955-0.021c6.335-0.002,12.67,0,19.004-0.01c0.521,0,1.045-0.066,1.564-0.135
		c0.197-0.027,0.396-0.123,0.572-0.225c0.398-0.23,0.615-0.859,0.471-1.295c-0.088-0.268-0.289-0.437-0.539-0.493
		c-0.354-0.082-0.721-0.139-1.08-0.141c-2.086-0.008-4.17,0.02-6.256,0c-0.664-0.006-1.336-0.075-1.986-0.2
		c-0.393-0.076-0.777-0.277-1.123-0.491c-0.391-0.239-0.567-0.635-0.531-1.104c0.023-0.301,0.035-0.604,0.088-0.9
		c0.145-0.832,0.607-1.457,1.307-1.912c0.695-0.453,1.475-0.672,2.285-0.771c0.488-0.06,0.984-0.082,1.477-0.083
		c9.233-0.005,18.466-0.005,27.696-0.006C108.732,35.662,108.934,35.662,109.252,35.662z"/>
	<path fill-rule="evenodd" clip-rule="evenodd" fill="#B4B3B0" d="M29.355,44.876c-1.533-0.033-3.029-0.043-4.522-0.107
		c-0.469-0.02-0.947-0.137-1.394-0.285c-1.413-0.475-2.265-1.602-2.267-3.089c-0.002-2.669,1.029-4.817,3.336-6.268
		c1.34-0.845,2.823-1.3,4.37-1.576c1.351-0.241,2.713-0.315,4.086-0.286c1.146,0.024,2.292,0.001,3.438,0.012
		c1.019,0.01,2.036,0.074,3.023,0.357c0.29,0.083,0.578,0.179,0.854,0.296c1.797,0.768,2.504,2.301,2.277,4.081
		c-0.333,2.612-1.844,4.369-4.126,5.527c-1.467,0.744-3.042,1.137-4.675,1.229C32.278,44.849,30.798,44.843,29.355,44.876z
		 M30.512,43.194c0.744-0.025,1.543-0.002,2.33-0.09c2.823-0.322,4.912-2.439,5.192-5.261c0.125-1.263-0.409-2.284-1.738-2.652
		c-0.559-0.156-1.156-0.204-1.739-0.229c-0.615-0.026-1.234,0.04-1.852,0.053c-1.188,0.028-2.34,0.224-3.436,0.694
		c-0.879,0.378-1.635,0.925-2.179,1.723c-0.513,0.755-0.906,1.573-1.096,2.469c-0.087,0.415-0.121,0.852-0.106,1.276
		c0.024,0.683,0.359,1.231,0.975,1.53c0.392,0.191,0.833,0.334,1.265,0.381C28.9,43.171,29.683,43.163,30.512,43.194z"/>
	<path fill-rule="evenodd" clip-rule="evenodd" fill="#B4B3B0" d="M53.574,42.317c0.12-0.271,0.198-0.441,0.269-0.617
		c0.776-1.914,1.559-3.826,2.318-5.747c0.131-0.332,0.295-0.47,0.66-0.459c0.826,0.024,1.654,0.007,2.481,0.008
		c0.141,0.001,0.282,0.017,0.46,0.028c-0.03,0.131-0.04,0.237-0.079,0.332c-1.224,2.934-2.453,5.865-3.669,8.801
		c-0.11,0.27-0.269,0.352-0.539,0.35c-1.129-0.01-2.259-0.014-3.389,0.002c-0.298,0.004-0.458-0.131-0.608-0.361
		c-1.317-2.008-2.644-4.01-3.968-6.013c-0.121-0.183-0.246-0.363-0.427-0.63c-0.115,0.238-0.201,0.396-0.27,0.56
		c-0.803,1.922-1.603,3.843-2.405,5.765c-0.212,0.508-0.213,0.508-0.761,0.508c-0.796,0.002-1.592,0.002-2.387,0
		c-0.154,0-0.308-0.014-0.517-0.025c0.086-0.24,0.147-0.432,0.221-0.617c1.117-2.771,2.234-5.542,3.352-8.312
		c0.192-0.475,0.192-0.479,0.683-0.479c1.162-0.002,2.323,0.009,3.485-0.007c0.323-0.005,0.52,0.106,0.699,0.376
		c1.325,2.002,2.666,3.995,4.001,5.991C53.29,41.923,53.401,42.073,53.574,42.317z"/>
	<path fill-rule="evenodd" clip-rule="evenodd" fill="#B4B3B0" d="M48.947,34.551c0.083-0.052,0.141-0.1,0.207-0.13
		c5.264-2.458,10.633-4.656,16.155-6.467c3.674-1.205,7.398-2.228,11.196-2.958c1.822-0.351,3.662-0.631,5.504-0.869
		c1.75-0.225,3.512-0.348,5.279-0.341c1.146,0.004,2.292-0.025,3.431,0.042c2.932,0.172,5.816,0.604,8.57,1.689
		c1.055,0.417,2.061,0.936,2.939,1.658c1.039,0.854,1.643,1.952,1.793,3.306c0.158,1.406-0.164,2.711-0.715,3.984
		c-0.111,0.253-0.271,0.357-0.553,0.349c-0.557-0.017-1.113-0.004-1.67-0.007c-0.09,0-0.18-0.024-0.32-0.045
		c0.121-0.295,0.227-0.556,0.332-0.816c0.338-0.832,0.568-1.696,0.547-2.596c-0.037-1.486-0.742-2.594-2.004-3.37
		c-0.732-0.45-1.557-0.641-2.359-0.887c-2.039-0.626-4.125-1.064-6.242-1.313c-1.418-0.167-2.851-0.228-4.276-0.324
		c-0.557-0.038-1.113-0.074-1.668-0.056c-1.875,0.063-3.746,0.127-5.615,0.32c-7.427,0.767-14.534,2.77-21.463,5.474
		c-2.312,0.902-4.578,1.911-6.812,2.993c-0.301,0.146-0.613,0.278-0.885,0.466C49.833,34.99,49.408,34.899,48.947,34.551z"/>
	<path fill-rule="evenodd" clip-rule="evenodd" fill="#B4B3B0" d="M43.232,54.593c0.879,0.133,1.755,0.275,2.636,0.393
		c0.724,0.098,1.451,0.182,2.179,0.24c1.985,0.158,3.976,0.176,5.962,0.08c1.664-0.078,3.324-0.264,4.983-0.436
		c2.897-0.303,5.749-0.869,8.58-1.541c5.428-1.283,10.706-3.027,15.853-5.172c1.35-0.564,2.676-1.184,4.016-1.773
		c0.115-0.051,0.238-0.109,0.359-0.115c0.825-0.053,1.649-0.094,2.501-0.062c-0.074,0.043-0.143,0.094-0.219,0.131
		c-4.478,2.227-9.075,4.166-13.831,5.723c-3.63,1.188-7.319,2.148-11.086,2.787c-1.783,0.305-3.586,0.5-5.384,0.707
		c-2.469,0.287-4.952,0.342-7.432,0.262c-1.905-0.062-3.809-0.203-5.691-0.531c-1.142-0.199-2.28-0.414-3.419-0.621
		C43.236,54.64,43.235,54.616,43.232,54.593z"/>
	<path fill-rule="evenodd" clip-rule="evenodd" fill="#B4B3B0" d="M32.31,48.487c0.177-0.199,0.221-0.557,0.609-0.361
		c-0.039,0.107-0.071,0.225-0.122,0.334c-0.592,1.266-1.187,2.533-1.781,3.799c-0.02,0.045-0.042,0.088-0.063,0.129
		c-0.589,1.164-1.162,1.463-2.606,1.35c-0.219-0.018-0.466-0.07-0.511-0.344c-0.048-0.293,0.02-0.576,0.221-0.799
		c0.05-0.055,0.196-0.021,0.287-0.027c0.016,0.055,0.025,0.07,0.023,0.084c-0.082,0.598-0.009,0.67,0.597,0.703
		c0.719,0.039,1.23-0.242,1.521-0.908c0.102-0.23,0.208-0.461,0.354-0.775c-0.171,0.064-0.267,0.088-0.35,0.135
		c-0.422,0.238-0.88,0.27-1.344,0.213c-0.422-0.051-0.573-0.258-0.529-0.688c0.013-0.125,0.045-0.252,0.083-0.371
		c0.241-0.746,0.588-1.439,1.03-2.088c0.436-0.643,1.05-0.896,1.806-0.852C31.943,48.046,32.02,48.093,32.31,48.487z M29.843,51.61
		c0.438,0.008,0.735-0.066,0.963-0.32c0.592-0.666,0.96-1.457,1.182-2.312c0.072-0.277-0.033-0.408-0.303-0.504
		c-0.483-0.172-1.164-0.01-1.477,0.396c-0.49,0.637-0.815,1.365-1.045,2.129c-0.114,0.381,0.041,0.566,0.441,0.611
		C29.684,51.618,29.764,51.61,29.843,51.61z"/>
	<path fill-rule="evenodd" clip-rule="evenodd" fill="#B4B3B0" d="M24.881,52.052c-0.219-0.033-0.441-0.049-0.654-0.104
		c-0.353-0.092-0.429-0.219-0.392-0.586c0.01-0.109,0.038-0.221,0.072-0.324c0.257-0.789,0.606-1.533,1.075-2.219
		c0.501-0.73,1.79-1.076,2.604-0.721c0.214,0.094,0.333,0.25,0.293,0.486c-0.03,0.188-0.069,0.379-0.145,0.551
		c-0.266,0.592-0.538,1.18-0.826,1.762C26.496,51.733,25.799,52.079,24.881,52.052z M25.117,51.606
		c0.735,0.008,0.997-0.127,1.356-0.756c0.204-0.359,0.383-0.732,0.555-1.107c0.118-0.26,0.21-0.531,0.303-0.801
		c0.072-0.211,0.007-0.365-0.208-0.463c-0.58-0.262-1.465-0.049-1.777,0.506c-0.342,0.605-0.638,1.242-0.904,1.885
		c-0.214,0.514-0.067,0.699,0.486,0.736C24.989,51.61,25.054,51.606,25.117,51.606z"/>
	<path fill-rule="evenodd" clip-rule="evenodd" fill="#B4B3B0" d="M53.924,49.075c-0.025-0.5-0.07-0.549-0.551-0.572
		c-0.19-0.01-0.381-0.006-0.572,0.002c-0.559,0.021-0.808,0.318-0.969,0.887c-0.065,0.227,0.023,0.357,0.264,0.42
		c0.152,0.037,0.313,0.045,0.471,0.055c0.207,0.016,0.417,0.004,0.619,0.037c0.396,0.064,0.529,0.285,0.438,0.684
		c-0.214,0.945-0.844,1.49-1.812,1.527c-0.362,0.012-0.732-0.014-1.087-0.08c-0.333-0.062-0.408-0.219-0.35-0.557
		c0.022-0.125,0.067-0.244,0.112-0.363c0.088-0.236,0.244-0.318,0.479-0.209c0.01,0.039,0.032,0.07,0.025,0.096
		c-0.152,0.578-0.078,0.686,0.501,0.701c0.159,0.006,0.318,0.006,0.477-0.004c0.58-0.033,0.899-0.279,1.093-0.832
		c0.134-0.383,0.036-0.531-0.366-0.562c-0.332-0.027-0.667-0.039-0.995-0.096c-0.422-0.074-0.552-0.277-0.402-0.68
		c0.121-0.322,0.292-0.635,0.489-0.918c0.11-0.158,0.302-0.295,0.486-0.361c0.565-0.201,1.152-0.232,1.736-0.08
		c0.36,0.096,0.472,0.352,0.351,0.699C54.29,49.069,54.165,49.144,53.924,49.075z"/>
	<path fill-rule="evenodd" clip-rule="evenodd" fill="#B4B3B0" d="M39.045,49.021c0.012-0.074,0.024-0.148,0.037-0.223
		c0.028-0.176-0.057-0.295-0.222-0.299c-0.41-0.01-0.826-0.027-1.23,0.023c-0.302,0.039-0.663,0.615-0.641,0.926
		c0.018,0.238,0.184,0.314,0.393,0.332c0.316,0.025,0.635,0.035,0.949,0.08c0.428,0.059,0.539,0.227,0.47,0.652
		c-0.139,0.846-0.8,1.473-1.649,1.521c-0.409,0.021-0.827,0.012-1.234-0.041c-0.325-0.043-0.435-0.246-0.387-0.543
		c0.075-0.467,0.218-0.611,0.598-0.596c0.013,0.025,0.044,0.059,0.037,0.074c-0.229,0.596-0.017,0.703,0.531,0.734
		c0.266,0.014,0.541-0.021,0.803-0.078c0.389-0.082,0.767-0.582,0.783-0.982c0.009-0.232-0.073-0.334-0.341-0.361
		c-0.236-0.025-0.477-0.012-0.714-0.029c-0.814-0.061-0.958-0.328-0.627-1.084c0.314-0.721,0.836-1.1,1.631-1.074
		c0.315,0.01,0.639,0,0.945,0.064c0.354,0.072,0.459,0.297,0.376,0.645C39.487,49.028,39.429,49.06,39.045,49.021z"/>
	<path fill-rule="evenodd" clip-rule="evenodd" fill="#B4B3B0" d="M49.317,49.325c0.147-0.715,0.049-0.818-0.669-0.84
		c-0.563-0.018-1.001,0.18-1.262,0.684c-0.284,0.549-0.543,1.111-0.808,1.67c-0.04,0.084-0.058,0.182-0.074,0.275
		c-0.059,0.342,0.05,0.488,0.408,0.561c0.77,0.154,1.222-0.037,1.636-0.721c0.123-0.203,0.241-0.334,0.512-0.195
		c-0.136,0.467-0.429,0.811-0.836,1.045c-0.578,0.332-1.203,0.393-1.845,0.232c-0.382-0.094-0.505-0.275-0.412-0.664
		c0.241-1.002,0.676-1.916,1.337-2.711c0.574-0.689,1.749-0.674,2.305-0.488c0.206,0.068,0.316,0.221,0.293,0.436
		c-0.019,0.172-0.059,0.346-0.117,0.508C49.703,49.341,49.692,49.335,49.317,49.325z"/>
	<path fill-rule="evenodd" clip-rule="evenodd" fill="#B4B3B0" d="M41.484,48.565c-0.157-0.043-0.259-0.07-0.422-0.117
		c0.09-0.121,0.162-0.297,0.227-0.295c0.52,0.021,0.585-0.402,0.753-0.729c0.134-0.26,0.133-0.262,0.538-0.258
		c-0.121,0.289-0.231,0.557-0.373,0.896c0.426,0.027,0.81,0.053,1.211,0.078c0.034,0.264-0.076,0.367-0.309,0.367
		c-0.254,0-0.509,0.012-0.763,0c-0.251-0.012-0.412,0.068-0.522,0.312c-0.325,0.725-0.677,1.438-1.008,2.16
		c-0.089,0.195-0.22,0.414,0.003,0.611c0.161,0.143,0.476,0.123,0.697-0.092c0.167-0.162,0.292-0.373,0.408-0.578
		c0.1-0.176,0.212-0.268,0.417-0.193c-0.123,0.84-0.943,1.479-1.714,1.34c-0.413-0.074-0.544-0.273-0.428-0.676
		c0.044-0.152,0.119-0.297,0.186-0.439c0.296-0.633,0.596-1.266,0.893-1.898C41.343,48.913,41.399,48.767,41.484,48.565z"/>
	<path fill-rule="evenodd" clip-rule="evenodd" fill="#B4B3B0" d="M21.214,51.888c0.055-0.135,0.1-0.27,0.161-0.396
		c0.75-1.598,1.501-3.193,2.249-4.791c0.104-0.221,0.186-0.459,0.543-0.309c-0.031,0.1-0.05,0.205-0.093,0.297
		c-0.768,1.641-1.539,3.281-2.311,4.922C21.604,51.946,21.599,51.944,21.214,51.888z"/>
	<path fill-rule="evenodd" clip-rule="evenodd" fill="#B4B3B0" d="M33.104,51.933c0.023-0.072,0.039-0.148,0.071-0.215
		c0.521-1.119,1.048-2.236,1.569-3.354c0.096-0.207,0.208-0.361,0.496-0.232c-0.015,0.07-0.017,0.146-0.048,0.209
		c-0.521,1.121-1.046,2.236-1.57,3.355C33.523,51.909,33.417,52.104,33.104,51.933z"/>
	<path fill-rule="evenodd" clip-rule="evenodd" fill="#B4B3B0" d="M43.326,51.968c0.028-0.078,0.05-0.152,0.082-0.223
		c0.517-1.105,1.036-2.209,1.551-3.316c0.104-0.225,0.225-0.383,0.52-0.219c-0.028,0.08-0.046,0.156-0.079,0.225
		c-0.518,1.105-1.039,2.209-1.552,3.318C43.741,51.983,43.615,52.124,43.326,51.968z"/>
	<path fill-rule="evenodd" clip-rule="evenodd" fill="#B4B3B0" d="M36.038,46.435c-0.137,0.49-0.137,0.49-0.503,0.477
		C35.563,46.425,35.647,46.345,36.038,46.435z"/>
	<path fill-rule="evenodd" clip-rule="evenodd" fill="#B4B3B0" d="M45.708,46.915c0.182-0.471,0.182-0.471,0.542-0.451
		C46.156,46.972,46.141,46.985,45.708,46.915z"/>
</g>
</svg>
