<?xml version="1.0" encoding="utf-8"?>
<!-- Generator: Adobe Illustrator 16.0.0, SVG Export Plug-In . SVG Version: 6.00 Build 0)  -->
<!DOCTYPE svg PUBLIC "-//W3C//DTD SVG 1.1//EN" "http://www.w3.org/Graphics/SVG/1.1/DTD/svg11.dtd">
<svg version="1.1" id="Capa_1" xmlns="http://www.w3.org/2000/svg" xmlns:xlink="http://www.w3.org/1999/xlink" x="0px" y="0px"
	 width="130px" height="80px" viewBox="0 0 130 80" enable-background="new 0 0 130 80" xml:space="preserve">
<g id="rz5kiy_2_">
	<g>
		<path fill-rule="evenodd" clip-rule="evenodd" fill="#B4B3B0" d="M37.022,40.518c0.053,0.07,0.092,0.172,0.161,0.203
			c0.368,0.168,0.433,0.332,0.247,0.748c-0.222-0.084-0.443-0.168-0.652-0.246c0.016,0.148,0.028,0.299,0.049,0.451
			c0.004,0.035,0.029,0.072,0.055,0.098c0.263,0.246,0.289,0.363,0.143,0.701c-0.172-0.062-0.354-0.109-0.514-0.195
			c-0.096-0.053-0.224-0.174-0.219-0.256c0.02-0.324-0.201-0.334-0.428-0.387c0.199,0.354,0.511,0.66,0.301,1.121
			c-0.234-0.092-0.465-0.18-0.754-0.293c-0.052,0.229-0.114,0.449-0.15,0.674c-0.045,0.285-0.088,0.574-0.098,0.863
			c-0.017,0.598-0.012,1.195-0.014,1.793c0,0.396,0.007,0.793,0.002,1.189c-0.003,0.35,0.033,0.682,0.359,0.973
			c-0.273,0.039-0.496,0.09-0.721,0.102c-0.953,0.045-1.906,0.105-2.861,0.115c-2.17,0.025-4.34,0.047-6.51,0.023
			c-1.309-0.014-2.617-0.117-3.926-0.184c-0.088-0.004-0.174-0.033-0.26-0.049c-0.002-0.023-0.004-0.049-0.006-0.074
			c0.278-0.035,0.555-0.09,0.834-0.1c1.26-0.051,2.521-0.1,3.783-0.125c1.263-0.025,2.526-0.037,3.789-0.025
			c1.359,0.012,2.718,0.059,4.076,0.094c0.256,0.006,0.512,0.035,0.764,0.053c0.037-1.049,0.076-2.062,0.107-3.078
			c0.016-0.494,0.016-0.988,0.029-1.48c0.008-0.299-0.223-0.43-0.412-0.582c-0.042-0.033-0.135-0.004-0.223-0.004
			c-0.025-0.064-0.057-0.145-0.092-0.234c-0.225,0.084-0.445,0.168-0.677,0.254c-0.019-0.047-0.042-0.082-0.044-0.119
			c-0.014-0.23-0.135-0.336-0.356-0.402c-0.252-0.076-0.261-0.297-0.185-0.57c-0.199,0.07-0.367,0.133-0.539,0.193
			c-0.19-0.316-0.133-0.529,0.213-0.76c-0.186-0.271-0.41-0.395-0.707-0.16c-0.166-0.33-0.145-0.539,0.053-0.672
			c0.248-0.17,0.529-0.16,0.699,0.031c0.112-0.051,0.229-0.102,0.381-0.17c-0.105-0.115-0.199-0.217-0.292-0.32
			c-0.229,0.086-0.446,0.166-0.7,0.26c-0.033-0.16-0.061-0.305-0.094-0.477c-0.143,0.049-0.289,0.1-0.436,0.15
			c-0.193-0.572-0.058-0.695,0.533-0.809c0.08-0.491,0.139-0.558,0.576-0.608c0.071-0.008,0.148,0.037,0.223,0.043
			c0.055,0.006,0.11-0.01,0.166-0.018c0-0.033,0.002-0.068,0.004-0.102c-0.117-0.02-0.234-0.037-0.384-0.062
			c-0.019-0.057-0.052-0.152-0.089-0.262c-0.161,0.051-0.295,0.092-0.378,0.275c-0.048,0.105-0.224,0.162-0.35,0.227
			c-0.106,0.053-0.225,0.084-0.347,0.129c-0.098-0.207-0.156-0.43,0.006-0.596c0.189-0.193,0.447-0.245,0.655-0.176
			c0.104-0.166,0.235-0.312,0.294-0.483c0.054-0.159,0.031-0.345,0.041-0.493c-0.242,0.113-0.495,0.23-0.76,0.354
			c-0.094-0.218-0.14-0.414-0.018-0.602c0.111-0.169,0.434-0.238,0.723-0.171c0.048-0.067,0.088-0.146,0.15-0.204
			c0.061-0.056,0.144-0.088,0.206-0.155c-0.063,0.021-0.128,0.044-0.198,0.069c-0.029-0.062-0.059-0.119-0.088-0.182
			c-0.226,0.09-0.448,0.178-0.672,0.266c-0.144-0.24-0.146-0.473-0.004-0.615c0.166-0.169,0.535-0.209,0.746-0.068
			c0.074-0.064,0.15-0.133,0.177-0.156c-0.098-0.111-0.187-0.174-0.222-0.258c-0.08-0.193-0.031-0.365,0.148-0.486
			c0.065-0.045,0.137-0.078,0.205-0.117c-0.008-0.02-0.018-0.037-0.026-0.057c-0.108,0.04-0.217,0.078-0.325,0.119
			c-0.111,0.043-0.223,0.088-0.351,0.137c-0.101-0.205-0.162-0.424-0.005-0.593c0.191-0.202,0.455-0.252,0.73-0.159
			c0.032-0.433,0.146-0.543,0.574-0.592c0.073-0.008,0.141-0.07,0.209-0.112c0.019-0.012,0.023-0.05,0.043-0.056
			c0.271-0.096,0.281-0.316,0.33-0.557c0.025-0.121,0.268-0.225,0.431-0.281c0.153-0.053,0.331-0.032,0.375,0.192
			c0.066-0.11,0.102-0.243,0.186-0.29c0.085-0.047,0.219-0.012,0.331-0.004c0.145,0.008,0.288,0.019,0.432,0.039
			c0.359,0.052,0.482,0.225,0.432,0.584c-0.008,0.051,0.002,0.108,0.016,0.158c0.041,0.143,0.088,0.283,0.137,0.438
			c0.139,0.045,0.348,0.062,0.475,0.172c0.119,0.102,0.15,0.305,0.227,0.477c0.242-0.143,0.523-0.101,0.75,0.112
			c0.172,0.164,0.088,0.389,0.031,0.608c-0.213-0.076-0.406-0.145-0.627-0.223c0.027,0.111,0.049,0.201,0.07,0.287
			c0.717,0.059,0.898,0.271,0.676,0.796c-0.102-0.036-0.205-0.071-0.33-0.116c0.057,0.115,0.124,0.205,0.141,0.305
			c0.018,0.105-0.013,0.219-0.023,0.332c0.274-0.069,0.525-0.023,0.717,0.17c0.164,0.168,0.091,0.375,0.003,0.594
			c-0.231-0.088-0.459-0.175-0.694-0.264c-0.026,0.054-0.054,0.109-0.084,0.172c-0.173-0.064-0.336-0.125-0.529-0.197
			c-0.017,0.109-0.03,0.197-0.042,0.271c0.235,0.062,0.442,0.117,0.662,0.174c0.155-0.211,0.374-0.24,0.671-0.065
			c0.213,0.124,0.246,0.338,0.098,0.679c-0.219-0.08-0.438-0.162-0.677-0.251c-0.022,0.103-0.041,0.194-0.06,0.282
			c0.299,0.205,0.329,0.309,0.225,0.734c0.38,0.319,0.4,0.376,0.248,0.782c-0.186-0.064-0.375-0.127-0.582-0.199
			c-0.004,0.07-0.009,0.129-0.014,0.199c0.267-0.014,0.544-0.018,0.688,0.213c0.086,0.141,0.055,0.354,0.083,0.592
			c-0.231-0.078-0.38-0.127-0.531-0.178c-0.05,0.172-0.032,0.275,0.118,0.385c0.227,0.164,0.131,0.402,0.064,0.65
			c-0.276-0.111-0.537-0.219-0.795-0.324c0.051-0.207,0.111-0.416-0.17-0.514c-0.113,0.051-0.227,0.102-0.304,0.137
			C36.728,40.285,36.876,40.402,37.022,40.518z M35.899,37.53c0.162,0.127,0.373,0.211,0.426,0.354
			c0.06,0.158-0.027,0.369-0.049,0.541c0.111,0.103,0.215,0.198,0.324,0.298c0.037-0.016,0.086-0.039,0.157-0.074
			c-0.243-0.104-0.427-0.255-0.32-0.522c0.1-0.252,0.337-0.072,0.521-0.109c-0.006-0.189-0.023-0.393,0.316-0.416
			c-0.18-0.06-0.288-0.096-0.404-0.134c-0.02,0.079-0.033,0.143-0.051,0.203c-0.02,0.065-0.043,0.128-0.064,0.192
			c-0.801-0.285-0.93-0.459-0.65-0.768c-0.049-0.201-0.092-0.376-0.135-0.551c-0.026,0.053-0.059,0.119-0.089,0.178
			c-0.188-0.067-0.363-0.13-0.582-0.207c0.116,0.158,0.174,0.324,0.278,0.361C35.934,37.009,35.987,37.249,35.899,37.53z
			 M35.638,35.415c0.301-0.136,0.582-0.263,0.87-0.393C35.931,34.667,35.667,34.772,35.638,35.415z M36.271,34.338
			c0.066-0.052,0.145-0.116,0.256-0.204c-0.145-0.051-0.269-0.064-0.352-0.129c-0.123-0.098-0.287-0.219-0.309-0.352
			c-0.031-0.178-0.111-0.193-0.189-0.211c0.022,0.219,0.045,0.437,0.067,0.646C35.898,34.161,36.068,34.242,36.271,34.338z
			 M36.086,40.33c-0.097,0.037-0.162,0.061-0.243,0.092c0.167,0.434-0.149,0.533-0.398,0.615c-0.053,0.215-0.096,0.385-0.145,0.594
			c0.105-0.037,0.301-0.094,0.299-0.105c-0.064-0.291,0.071-0.453,0.289-0.631C36.012,40.793,36.017,40.547,36.086,40.33z
			 M34.073,41.996c0.273-0.098,0.277-0.182-0.012-0.461c-0.199,0.08-0.402,0.162-0.604,0.242c0.002,0.018,0.004,0.035,0.007,0.053
			C33.643,41.879,33.821,41.928,34.073,41.996z M34.726,33.727c-0.021-0.032-0.04-0.063-0.061-0.095
			c-0.173,0.082-0.386,0.127-0.506,0.257c-0.115,0.126-0.135,0.34-0.204,0.536c0.037,0.028,0.104,0.078,0.199,0.148
			c0.036-0.082,0.062-0.145,0.089-0.206C34.354,34.12,34.294,33.757,34.726,33.727z M33.134,40.486
			c-0.27,0.131-0.51,0.246-0.75,0.361c-0.002,0.021-0.005,0.043-0.007,0.064c0.12,0.033,0.241,0.068,0.362,0.102
			c-0.006-0.018-0.013-0.035-0.018-0.053c0.18-0.105,0.358-0.213,0.547-0.326C33.226,40.586,33.171,40.527,33.134,40.486z
			 M33.381,39.068c-0.267,0.211-0.519,0.412-0.788,0.627c0.009,0.012,0.053,0.062,0.066,0.078c0.17-0.094,0.308-0.186,0.457-0.25
			C33.319,39.438,33.434,39.273,33.381,39.068z M33.241,35.269c-0.342,0.046-0.168,0.48-0.455,0.573
			c0.104,0.039,0.213,0.085,0.264,0.049C33.256,35.74,33.33,35.531,33.241,35.269z M34.175,40.566
			c-0.13,0.051-0.252,0.092-0.366,0.146c-0.058,0.029-0.13,0.076-0.146,0.129c-0.01,0.037,0.056,0.127,0.104,0.143
			c0.066,0.02,0.16,0.014,0.219-0.02c0.094-0.053,0.17-0.139,0.264-0.219C34.224,40.686,34.198,40.621,34.175,40.566z
			 M31.946,38.977c0.113,0.178,0.246,0.281,0.393,0.15c0.1-0.086,0.393-0.135,0.184-0.383C32.335,38.82,32.151,38.895,31.946,38.977
			z M33.854,39.797c-0.418,0.115-0.445,0.145-0.347,0.355c0.213-0.049,0.421-0.094,0.625-0.141
			C34.036,39.938,33.95,39.871,33.854,39.797z M36.247,36.144c0.119,0.031,0.232,0.062,0.342,0.092
			c0.068-0.105,0.129-0.203,0.181-0.285c-0.161-0.039-0.312-0.074-0.471-0.111C36.28,35.946,36.265,36.04,36.247,36.144z
			 M34.228,35.201c-0.019,0.009-0.037,0.016-0.056,0.022c-0.114,0.145-0.229,0.289-0.367,0.461c0.097,0.045,0.212,0.098,0.349,0.162
			C34.183,35.592,34.205,35.397,34.228,35.201z M33.749,36.683c-0.191-0.254-0.412-0.111-0.618-0.033
			c-0.076,0.028-0.13,0.113-0.214,0.19C33.229,36.781,33.487,36.732,33.749,36.683z M35.085,40.096
			c0.062,0.078,0.105,0.135,0.187,0.236c-0.127-0.023-0.192-0.035-0.323-0.059c0.08,0.121,0.124,0.188,0.161,0.246
			c0.366-0.062,0.201-0.355,0.296-0.566c-0.101,0.033-0.17,0.055-0.235,0.08C35.143,40.045,35.121,40.068,35.085,40.096z
			 M35.206,37.409c-0.002,0.32,0.029,0.375,0.264,0.477c0.038-0.109,0.077-0.221,0.116-0.333c-0.021-0.013-0.04-0.028-0.062-0.036
			C35.42,37.48,35.315,37.446,35.206,37.409z M33.604,38.198c-0.298,0.088-0.338,0.256-0.102,0.495
			c0.059-0.033,0.119-0.07,0.172-0.1C33.651,38.46,33.63,38.339,33.604,38.198z M35.198,38.754c0.198,0.029,0.367,0.055,0.555,0.082
			c-0.06-0.293-0.303-0.25-0.488-0.332C35.241,38.592,35.224,38.66,35.198,38.754z M33.328,33.89
			c0.136-0.059,0.247-0.121,0.367-0.156c0.202-0.059,0.204-0.051,0.164-0.219C33.455,33.6,33.313,33.696,33.328,33.89z
			 M37.104,35.431c-0.305-0.389-0.312-0.391-0.598-0.128C36.718,35.349,36.882,35.384,37.104,35.431z M33.93,38.06
			c0.162,0.061,0.308,0.115,0.454,0.17c0.02-0.014,0.039-0.027,0.059-0.043c-0.064-0.104-0.131-0.209-0.193-0.309
			C34.129,37.946,34.04,37.997,33.93,38.06z M35.895,39.748c0.144-0.148,0.137-0.375,0.185-0.578
			c0.012-0.049-0.071-0.121-0.137-0.223C35.924,39.266,35.909,39.508,35.895,39.748z M34.755,33.064
			c0.151,0.044,0.29,0.083,0.436,0.124c-0.012-0.138-0.021-0.254-0.029-0.373C35.015,32.903,34.89,32.981,34.755,33.064z
			 M36.225,39.168c0.026,0.045,0.048,0.127,0.093,0.143c0.092,0.029,0.197,0.033,0.295,0.029c0.016,0,0.046-0.1,0.033-0.143
			c-0.012-0.035-0.076-0.074-0.117-0.076C36.445,39.121,36.362,39.145,36.225,39.168z M35.108,34.176
			c0.287,0.083,0.287,0.083,0.416-0.1c-0.114-0.042-0.223-0.081-0.344-0.124C35.151,34.042,35.13,34.108,35.108,34.176z
			 M36.422,34.323c0.178,0.052,0.292,0.086,0.419,0.121c-0.039-0.123-0.07-0.221-0.107-0.336
			C36.638,34.173,36.55,34.235,36.422,34.323z M32.618,37.145c0.082,0.081,0.146,0.146,0.213,0.211
			c0.029-0.115,0.059-0.229,0.099-0.385C32.81,37.038,32.74,37.077,32.618,37.145z M34.054,32.902
			c0.07,0.095,0.127,0.169,0.184,0.243c0.034-0.027,0.097-0.053,0.098-0.08c0.002-0.075-0.021-0.151-0.038-0.244
			C34.212,32.85,34.153,32.868,34.054,32.902z M33.306,41.293c-0.117,0.055-0.197,0.092-0.3,0.141c0.118,0.1,0.197,0.168,0.3,0.256
			C33.306,41.545,33.306,41.443,33.306,41.293z M34.022,39.148c0.004,0.027,0.006,0.057,0.008,0.084
			c0.09-0.006,0.18-0.012,0.287-0.02c-0.027-0.113-0.046-0.188-0.068-0.277C34.159,39.021,34.091,39.086,34.022,39.148z
			 M33.746,37.421c-0.011-0.03-0.022-0.062-0.032-0.093c-0.108,0.039-0.217,0.075-0.321,0.12c-0.012,0.006,0.001,0.069,0.003,0.105
			c0.094-0.025,0.189-0.05,0.282-0.08C33.703,37.466,33.724,37.44,33.746,37.421z"/>
		<path fill-rule="evenodd" clip-rule="evenodd" fill="#B4B3B0" d="M72.067,37.063c-0.04,1.794-0.663,3.229-2.152,4.198
			c-1.052,0.688-2.229,0.859-3.461,0.744c-0.914-0.084-1.754-0.367-2.477-0.943c-1.007-0.805-1.537-1.871-1.695-3.136
			c-0.142-1.124,0.085-2.174,0.664-3.139c0.697-1.156,1.749-1.82,3.061-2.064c1.156-0.217,2.305-0.158,3.408,0.278
			c1.499,0.591,2.352,1.71,2.586,3.298C72.041,36.571,72.049,36.847,72.067,37.063z M70.459,37.626
			c-0.089-0.566-0.132-1.102-0.262-1.615c-0.427-1.691-1.733-2.935-3.554-2.824c-1.066,0.064-1.889,0.541-2.318,1.529
			c-0.653,1.508-0.597,3.041,0.029,4.546c0.406,0.98,1.107,1.684,2.132,2.023c1.688,0.562,3.178-0.193,3.663-1.9
			C70.313,38.809,70.361,38.198,70.459,37.626z"/>
		<path fill-rule="evenodd" clip-rule="evenodd" fill="#B4B3B0" d="M53.688,41.711c0.145-0.018,0.289-0.043,0.434-0.057
			c0.312-0.029,0.409-0.1,0.484-0.412c0.045-0.188,0.086-0.381,0.087-0.572c0.018-2.131,0.028-4.259,0.037-6.39
			c0.001-0.201-0.019-0.402-0.028-0.604c-0.021-0.424-0.219-0.637-0.641-0.678c-0.113-0.011-0.228,0.005-0.34-0.012
			c-0.07-0.01-0.138-0.054-0.206-0.083c0.005-0.026,0.009-0.053,0.014-0.079c0.099-0.013,0.196-0.035,0.294-0.035
			c1.264,0.001,2.526-0.004,3.789,0.019c0.342,0.007,0.695,0.065,1.023,0.164c1.225,0.365,1.797,1.572,1.371,2.826
			c-0.213,0.627-0.635,1.102-1.105,1.541c-0.105,0.098-0.216,0.193-0.342,0.307c0.351,0.443,0.686,0.888,1.044,1.313
			c0.561,0.67,1.123,1.34,1.712,1.984c0.385,0.424,0.871,0.691,1.463,0.727c0.062,0.002,0.125,0.027,0.186,0.047
			c0.012,0.004,0.019,0.023,0.051,0.068c-0.072,0.035-0.139,0.092-0.203,0.09c-0.671-0.016-1.343-0.012-2.009-0.076
			c-0.519-0.051-0.905-0.398-1.211-0.791c-0.64-0.826-1.261-1.664-1.866-2.514c-0.195-0.274-0.4-0.417-0.74-0.384
			c-0.216,0.02-0.437,0-0.654-0.012c-0.15-0.01-0.211,0.055-0.206,0.197c0.026,0.929,0.042,1.86,0.086,2.788
			c0.019,0.383,0.22,0.535,0.628,0.566c0.18,0.014,0.357,0.033,0.568,0.053c-0.113,0.225-0.281,0.182-0.419,0.18
			c-0.703-0.008-1.407-0.029-2.11-0.035c-0.273-0.002-0.549,0.033-0.823,0.033c-0.124,0-0.247-0.043-0.371-0.066
			C53.685,41.779,53.687,41.746,53.688,41.711z M58.753,35.554c-0.023-0.209-0.029-0.42-0.072-0.624
			c-0.24-1.179-1.123-1.737-2.306-1.577c-0.151,0.021-0.253,0.084-0.252,0.263c0.003,1.189,0.002,2.379,0.001,3.569
			c0,0.17,0.072,0.275,0.252,0.293c0.305,0.028,0.608,0.074,0.914,0.088c0.534,0.023,0.904-0.246,1.152-0.701
			C58.666,36.457,58.741,36.015,58.753,35.554z"/>
		<path fill-rule="evenodd" clip-rule="evenodd" fill="#B4B3B0" d="M99.902,33.077c0.192-0.145,3.376-0.18,3.681-0.076
			c-0.067,0.047-0.105,0.09-0.151,0.104c-0.068,0.021-0.144,0.025-0.216,0.032c-0.386,0.039-0.568,0.174-0.579,0.552
			c-0.031,1.043-0.028,2.088-0.037,3.131c0,0.014,0.015,0.027,0.042,0.074c0.087-0.087,0.171-0.166,0.248-0.249
			c0.872-0.935,1.744-1.87,2.613-2.807c0.064-0.071,0.118-0.155,0.165-0.239c0.133-0.238,0.099-0.339-0.142-0.479
			c-0.041-0.023-0.065-0.072-0.125-0.144c1.03,0,2.014,0,2.996,0c0.004,0.028,0.009,0.056,0.012,0.083
			c-0.084,0.023-0.166,0.062-0.252,0.066c-0.588,0.029-1.078,0.293-1.498,0.672c-0.57,0.515-1.108,1.066-1.663,1.598
			c-0.438,0.421-0.88,0.836-1.344,1.275c0.372,0.422,0.684,0.801,1.021,1.156c0.901,0.95,1.805,1.899,2.726,2.833
			c0.551,0.559,1.199,0.957,2.007,1.035c0.022,0.002,0.043,0.02,0.133,0.064c-0.117,0.055-0.189,0.117-0.261,0.115
			c-0.711-0.014-1.425-0.002-2.132-0.068c-0.597-0.057-1.026-0.473-1.404-0.895c-0.992-1.109-1.957-2.242-2.933-3.367
			c-0.052-0.06-0.1-0.12-0.191-0.231c-0.014,0.129-0.027,0.194-0.027,0.26c0.01,1.101,0.017,2.202,0.034,3.302
			c0.009,0.582,0.169,0.736,0.748,0.781c0.135,0.012,0.27,0.033,0.435,0.055c-0.09,0.209-0.255,0.174-0.394,0.174
			c-0.713-0.01-1.424-0.029-2.136-0.037c-0.25-0.002-0.5,0.031-0.75,0.033c-0.127,0-0.254-0.035-0.381-0.055c0-0.033,0-0.066,0-0.1
			c0.14-0.023,0.278-0.053,0.419-0.07c0.327-0.039,0.462-0.131,0.496-0.455c0.057-0.537,0.099-1.078,0.102-1.619
			c0.011-1.806,0.002-3.612-0.002-5.418c-0.001-0.137-0.032-0.273-0.031-0.409c0.003-0.398-0.264-0.6-0.686-0.62
			C100.285,33.128,100.124,33.102,99.902,33.077z"/>
		<path fill-rule="evenodd" clip-rule="evenodd" fill="#B4B3B0" d="M92.673,41.797c-0.089,0.029-0.177,0.084-0.266,0.084
			c-0.815,0.008-1.631,0.008-2.447,0.002c-0.11,0-0.22-0.045-0.33-0.07c0.003-0.031,0.005-0.062,0.009-0.094
			c0.12-0.021,0.24-0.059,0.361-0.061c0.44-0.006,0.737-0.236,0.91-0.613c0.245-0.537,0.466-1.084,0.687-1.631
			c0.826-2.061,1.647-4.122,2.472-6.183c0.046-0.113,0.085-0.229,0.149-0.33c0.049-0.075,0.135-0.178,0.2-0.175
			c0.069,0.003,0.157,0.104,0.197,0.183c0.102,0.201,0.188,0.41,0.271,0.621c0.896,2.225,1.788,4.449,2.687,6.675
			c0.103,0.254,0.229,0.5,0.354,0.742c0.241,0.469,0.606,0.748,1.155,0.736c0.062-0.002,0.127,0.014,0.19,0.023
			c0.012,0.002,0.021,0.02,0.064,0.066c-0.09,0.033-0.161,0.08-0.233,0.08c-0.702,0.004-1.405,0.002-2.108,0
			c-0.193-0.002-0.389-0.004-0.582-0.016c-0.069-0.004-0.136-0.033-0.27-0.068c0.113-0.061,0.177-0.074,0.202-0.113
			c0.054-0.082,0.142-0.195,0.12-0.264c-0.128-0.398-0.281-0.791-0.434-1.182c-0.02-0.049-0.084-0.107-0.134-0.113
			c-1.079-0.133-2.15-0.174-3.228,0.076c-0.498,0.115-0.723,0.391-0.791,0.857c-0.015,0.104-0.045,0.209-0.037,0.311
			c0.019,0.227,0.181,0.311,0.383,0.33c0.141,0.016,0.282,0.023,0.424,0.033C92.657,41.734,92.664,41.766,92.673,41.797z
			 M95.699,39.299c-0.53-1.421-1.039-2.79-1.549-4.156c-0.027,0.003-0.055,0.007-0.083,0.009c-0.571,1.519-1.144,3.037-1.736,4.61
			C93.451,39.387,94.549,39.311,95.699,39.299z"/>
		<path fill-rule="evenodd" clip-rule="evenodd" fill="#B4B3B0" d="M49.843,41.828c-0.148,0.018-0.295,0.053-0.443,0.053
			c-1.011,0.004-2.021,0.004-3.031,0c-0.122-0.002-0.243-0.045-0.365-0.068c0.002-0.035,0.003-0.068,0.004-0.104
			c0.145-0.018,0.29-0.041,0.436-0.055c0.307-0.031,0.415-0.109,0.483-0.414c0.046-0.211,0.087-0.43,0.089-0.646
			c0.018-2.023,0.027-4.049,0.037-6.073c0-0.283-0.017-0.566-0.031-0.848c-0.023-0.436-0.23-0.645-0.668-0.676
			c-0.113-0.01-0.229,0.005-0.34-0.012c-0.062-0.009-0.119-0.06-0.179-0.092c0.005-0.023,0.011-0.047,0.017-0.07
			c0.09-0.012,0.18-0.034,0.271-0.034c1.296,0.003,2.591-0.011,3.886,0.025c0.395,0.011,0.801,0.116,1.175,0.253
			c0.851,0.312,1.319,1.279,1.2,2.163c-0.18,1.324-0.949,2.213-2.25,2.495c-0.289,0.062-0.593,0.059-0.891,0.067
			c-0.057,0.002-0.116-0.077-0.174-0.12c0.059-0.035,0.113-0.092,0.174-0.1c0.99-0.127,1.57-0.646,1.732-1.659
			c0.133-0.841-0.055-1.611-0.732-2.198c-0.425-0.369-0.926-0.476-1.473-0.42c-0.166,0.017-0.252,0.096-0.252,0.283
			c0.008,2.318,0.008,4.635,0.014,6.952c0,0.186,0.023,0.371,0.051,0.555c0.056,0.385,0.229,0.533,0.635,0.564
			c0.205,0.016,0.41,0.033,0.615,0.049C49.835,41.744,49.838,41.785,49.843,41.828z"/>
		<path fill-rule="evenodd" clip-rule="evenodd" fill="#B4B3B0" d="M77.74,33.598c0,0.122,0,0.218,0,0.314
			c0,1.888-0.007,3.774,0.003,5.662c0.003,0.508,0.039,1.02,0.09,1.523c0.04,0.396,0.209,0.525,0.605,0.555
			c0.2,0.014,0.399,0.031,0.6,0.049c0.007,0.031,0.015,0.061,0.021,0.09c-0.102,0.031-0.203,0.09-0.306,0.09
			c-0.363,0-0.728-0.035-1.091-0.033c-0.688,0.004-1.375,0.027-2.062,0.035c-0.113,0-0.228-0.047-0.342-0.072
			c0.003-0.029,0.005-0.062,0.007-0.092c0.146-0.021,0.29-0.047,0.437-0.064c0.311-0.035,0.444-0.135,0.479-0.445
			c0.051-0.465,0.096-0.934,0.098-1.4c0.011-2.009,0.005-4.019,0.004-6.026c0-0.057-0.007-0.111-0.012-0.188
			c-0.407,0-0.809-0.008-1.209,0.003c-0.363,0.009-0.727,0.039-1.089,0.062c-0.43,0.023-0.667,0.279-0.81,0.66
			c-0.025,0.069-0.098,0.123-0.148,0.184c-0.027-0.082-0.091-0.172-0.078-0.248c0.074-0.445,0.161-0.889,0.253-1.331
			c0.021-0.103,0.06-0.179,0.219-0.144c0.36,0.076,0.729,0.16,1.094,0.164c1.782,0.017,3.564,0.012,5.346,0.005
			c0.273-0.001,0.546-0.047,0.816-0.085c0.219-0.031,0.281,0.013,0.273,0.238c-0.014,0.437-0.026,0.873-0.047,1.309
			c-0.004,0.079-0.043,0.156-0.066,0.234c-0.025,0-0.051,0.002-0.076,0.004c-0.028-0.092-0.083-0.183-0.083-0.273
			c0-0.316-0.178-0.516-0.448-0.594c-0.321-0.094-0.659-0.157-0.995-0.178C78.741,33.576,78.257,33.598,77.74,33.598z"/>
		<path fill-rule="evenodd" clip-rule="evenodd" fill="#B4B3B0" d="M88.161,32.861c-0.043,0.538-0.081,1.06-0.131,1.58
			c-0.006,0.054-0.078,0.102-0.12,0.151c-0.034-0.057-0.093-0.109-0.101-0.169c-0.082-0.632-0.244-0.804-0.867-0.841
			c-0.517-0.031-1.035-0.03-1.552-0.053c-0.172-0.006-0.223,0.059-0.223,0.227c0.005,2.219,0.001,4.438,0.006,6.657
			c0.001,0.518,0.173,0.766,0.67,0.816c0.51,0.053,1.031,0.035,1.544,0c0.508-0.035,0.756-0.383,0.85-0.857
			c0.02-0.096,0.054-0.189,0.081-0.283c0.028-0.002,0.057-0.004,0.085-0.004c0.023,0.08,0.072,0.162,0.065,0.24
			c-0.039,0.41-0.087,0.82-0.146,1.227c-0.031,0.225-0.149,0.354-0.409,0.346c-1.093-0.027-2.185-0.047-3.276-0.055
			c-0.559-0.004-1.116,0.029-1.675,0.037c-0.095,0.002-0.19-0.047-0.287-0.072c0.005-0.033,0.011-0.066,0.015-0.1
			c0.154-0.018,0.308-0.045,0.462-0.055c0.225-0.018,0.366-0.139,0.411-0.35c0.049-0.234,0.096-0.479,0.099-0.719
			c0.02-1.812,0.029-3.626,0.038-5.44c0.001-0.428-0.017-0.856-0.03-1.285c-0.017-0.497-0.222-0.699-0.716-0.727
			c-0.152-0.008-0.303-0.043-0.454-0.066c0.001-0.033,0.002-0.067,0.003-0.102c0.105-0.01,0.21-0.031,0.315-0.031
			c1.441,0.004,2.883,0.017,4.324,0.013C87.479,32.946,87.813,32.892,88.161,32.861z"/>
		<path fill-rule="evenodd" clip-rule="evenodd" fill="#B4B3B0" d="M63.526,47.166c0.146-0.484,0.297-0.967,0.429-1.455
			c0.017-0.057-0.069-0.143-0.104-0.209c0.164,0,0.355,0,0.517,0c-0.063,0.104-0.151,0.207-0.194,0.326
			c-0.219,0.609-0.426,1.221-0.639,1.832c-0.028,0.082-0.062,0.164-0.156,0.258c-0.24-0.559-0.48-1.117-0.747-1.732
			c-0.25,0.605-0.481,1.164-0.711,1.725c-0.022-0.002-0.044-0.004-0.066-0.004c-0.034-0.076-0.071-0.15-0.098-0.229
			c-0.214-0.617-0.421-1.238-0.641-1.854c-0.042-0.119-0.128-0.223-0.189-0.326c0.206,0,0.44,0,0.669,0
			c-0.02,0.068-0.072,0.145-0.057,0.201c0.137,0.498,0.283,0.99,0.428,1.486c0.021,0.002,0.045,0.002,0.066,0.004
			c0.219-0.562,0.439-1.123,0.659-1.686c0.022,0,0.046,0,0.069,0c0.233,0.555,0.467,1.107,0.699,1.66
			C63.482,47.164,63.504,47.166,63.526,47.166z"/>
		<path fill-rule="evenodd" clip-rule="evenodd" fill="#B4B3B0" d="M85.466,46.676c0.003-0.725,0.552-1.229,1.339-1.23
			c0.803-0.002,1.322,0.457,1.324,1.17c0.002,0.764-0.562,1.301-1.362,1.299C85.996,47.908,85.465,47.402,85.466,46.676z
			 M87.67,46.672c0.008-0.211-0.059-0.51-0.269-0.754c-0.214-0.248-0.491-0.365-0.821-0.312c-0.307,0.049-0.514,0.225-0.604,0.525
			c-0.11,0.369-0.093,0.736,0.076,1.086c0.208,0.432,0.67,0.641,1.088,0.506C87.479,47.613,87.658,47.291,87.67,46.672z"/>
		<path fill-rule="evenodd" clip-rule="evenodd" fill="#B4B3B0" d="M55.552,47.926c-0.593-0.578-1.188-1.156-1.816-1.771
			c0,0.221-0.005,0.4,0,0.58c0.007,0.242,0.022,0.484,0.029,0.729c0.004,0.189,0.023,0.363,0.267,0.393c-0.253,0-0.505,0-0.759,0
			c0.201-0.031,0.225-0.176,0.229-0.34c0.008-0.582,0.021-1.166,0.031-1.748c0.002-0.094,0.001-0.189,0.001-0.297
			c0.614,0.617,1.208,1.215,1.801,1.811c0.028-0.02,0.056-0.039,0.084-0.059c0.011-0.049,0.028-0.1,0.028-0.15
			c-0.006-0.404-0.016-0.809-0.021-1.213c-0.003-0.182-0.049-0.322-0.26-0.352c0.234,0,0.471,0,0.65,0
			c-0.043,0.107-0.132,0.234-0.137,0.367c-0.027,0.582-0.029,1.166-0.039,1.748c-0.002,0.088-0.012,0.176-0.017,0.262
			C55.599,47.898,55.575,47.912,55.552,47.926z"/>
		<path fill-rule="evenodd" clip-rule="evenodd" fill="#B4B3B0" d="M104.899,47.857c-0.287,0-0.56,0-0.791,0
			c0.038-0.113,0.114-0.24,0.118-0.367c0.014-0.533,0.002-1.066,0.009-1.602c0.003-0.182-0.008-0.342-0.25-0.357
			c0.432,0,0.847-0.037,1.253,0.008c0.494,0.057,0.661,0.521,0.359,0.918c-0.081,0.107-0.183,0.201-0.294,0.32
			c0.358,0.369,0.588,0.852,1.108,1.066c-0.438,0.084-0.776-0.031-1.012-0.406c-0.068-0.109-0.154-0.207-0.229-0.312
			c-0.181-0.256-0.181-0.258-0.519-0.213C104.539,47.395,104.625,47.744,104.899,47.857z M104.616,46.176
			c0,0.098,0.01,0.195-0.001,0.291c-0.025,0.213,0.074,0.289,0.276,0.287c0.247-0.004,0.417-0.148,0.459-0.404
			c0.055-0.344-0.073-0.598-0.349-0.686c-0.293-0.096-0.384-0.031-0.386,0.271C104.616,46.016,104.616,46.096,104.616,46.176z"/>
		<path fill-rule="evenodd" clip-rule="evenodd" fill="#B4B3B0" d="M92.223,47.844c-0.457,0.09-0.796-0.047-1.032-0.43
			c-0.064-0.102-0.145-0.193-0.215-0.293c-0.182-0.258-0.181-0.258-0.556-0.199c0.013,0.242,0.008,0.492,0.048,0.734
			c0.013,0.082,0.137,0.143,0.201,0.205c-0.251,0-0.525,0-0.756,0c0.04-0.111,0.117-0.23,0.12-0.352
			c0.014-0.559,0.002-1.115,0.009-1.674c0.002-0.17-0.042-0.287-0.291-0.305c0.478,0,0.893-0.037,1.299,0.01
			c0.491,0.057,0.656,0.523,0.353,0.92c-0.082,0.107-0.183,0.201-0.291,0.316C91.467,47.145,91.697,47.623,92.223,47.844z
			 M90.424,46.162c0,0.105,0.01,0.213-0.002,0.314c-0.021,0.203,0.07,0.275,0.263,0.275c0.261,0.002,0.435-0.145,0.475-0.414
			c0.052-0.355-0.092-0.611-0.384-0.686c-0.274-0.07-0.35-0.014-0.352,0.27C90.423,46.002,90.424,46.082,90.424,46.162z"/>
		<path fill-rule="evenodd" clip-rule="evenodd" fill="#B4B3B0" d="M47.058,47.859c-0.286,0-0.56,0-0.789,0
			c0.038-0.115,0.113-0.242,0.117-0.371c0.015-0.533,0.002-1.066,0.009-1.602c0.003-0.182-0.01-0.34-0.243-0.355
			c0.426,0,0.842-0.037,1.247,0.008c0.493,0.057,0.66,0.521,0.358,0.918c-0.082,0.109-0.184,0.203-0.293,0.322
			c0.357,0.367,0.588,0.852,1.108,1.064c-0.44,0.084-0.778-0.031-1.013-0.406c-0.068-0.109-0.168-0.201-0.227-0.314
			c-0.117-0.23-0.293-0.277-0.521-0.211C46.699,47.4,46.784,47.744,47.058,47.859z M47.564,46.244
			c-0.042-0.393-0.261-0.617-0.601-0.609c-0.132,0.002-0.191,0.051-0.188,0.186c0.005,0.201-0.009,0.404,0.005,0.604
			c0.008,0.102,0.047,0.279,0.09,0.285c0.148,0.02,0.34,0.027,0.45-0.049C47.438,46.574,47.486,46.387,47.564,46.244z"/>
		<path fill-rule="evenodd" clip-rule="evenodd" fill="#B4B3B0" d="M69.654,47.875c0.041-0.111,0.106-0.211,0.108-0.311
			c0.011-0.59,0.017-1.182,0-1.771c-0.003-0.105-0.112-0.207-0.166-0.297c0.264,0,0.579-0.012,0.894,0.002
			c0.236,0.012,0.48,0.051,0.584,0.312c0.104,0.26-0.031,0.451-0.21,0.623c-0.022,0.021-0.043,0.045-0.082,0.086
			c0.067,0.041,0.126,0.074,0.184,0.107c0.289,0.172,0.409,0.398,0.363,0.68c-0.044,0.26-0.238,0.473-0.546,0.51
			C70.4,47.863,70.013,47.859,69.654,47.875z M70.163,46.67c0,0.232-0.004,0.457,0.001,0.68c0.007,0.301,0.079,0.377,0.343,0.379
			c0.253,0,0.413-0.143,0.43-0.391C70.967,46.916,70.65,46.623,70.163,46.67z M70.354,46.514c0.25,0.004,0.38-0.105,0.414-0.334
			c0.036-0.234-0.11-0.49-0.312-0.543c-0.221-0.057-0.291-0.002-0.294,0.234c-0.002,0.145,0.006,0.291-0.002,0.438
			C70.153,46.463,70.207,46.541,70.354,46.514z"/>
		<path fill-rule="evenodd" clip-rule="evenodd" fill="#B4B3B0" d="M50.655,46.688c0,0.289-0.005,0.537,0.004,0.787
			c0.002,0.055,0.043,0.125,0.088,0.16c0.197,0.154,0.676,0.057,0.812-0.16c0.049,0.34,0.01,0.389-0.322,0.389
			c-0.371,0-0.744,0-1.09,0c0.029-0.121,0.078-0.23,0.08-0.342c0.008-0.549-0.002-1.1,0.008-1.648
			c0.004-0.199-0.039-0.336-0.262-0.377c0.252,0,0.504,0,0.756,0c0.249,0,0.498,0,0.751,0c0,0.127,0,0.234,0,0.369
			c-0.203-0.285-0.485-0.205-0.74-0.211c-0.028-0.002-0.071,0.057-0.085,0.094c-0.016,0.043-0.006,0.096-0.006,0.145
			c-0.01,0.75,0.019,0.771,0.799,0.604c-0.006,0.123-0.012,0.238-0.02,0.377C51.222,46.592,50.941,46.74,50.655,46.688z"/>
		<path fill-rule="evenodd" clip-rule="evenodd" fill="#B4B3B0" d="M59.354,47.447c0,0.416-0.002,0.416-0.368,0.416
			c-0.364,0-0.728,0-1.062,0c0.029-0.121,0.078-0.232,0.08-0.346c0.008-0.549-0.003-1.1,0.008-1.65
			c0.004-0.199-0.048-0.33-0.262-0.365c0.494,0,0.99,0,1.502,0c0,0.107,0,0.215,0,0.35c-0.221-0.279-0.512-0.186-0.824-0.205
			c0,0.283-0.006,0.545,0.008,0.807c0.002,0.037,0.101,0.096,0.154,0.096c0.201,0.002,0.402-0.016,0.633-0.027
			c-0.006,0.1-0.011,0.215-0.018,0.348c-0.209-0.273-0.49-0.131-0.77-0.178c0,0.285-0.004,0.547,0.004,0.811
			c0.002,0.047,0.045,0.105,0.087,0.137C58.731,47.791,59.2,47.691,59.354,47.447z"/>
		<path fill-rule="evenodd" clip-rule="evenodd" fill="#B4B3B0" d="M77.049,46.715c0,0.262-0.006,0.51,0.004,0.76
			c0.002,0.055,0.042,0.125,0.088,0.16c0.197,0.154,0.676,0.057,0.812-0.16c0.05,0.34,0.01,0.389-0.321,0.389
			c-0.372,0-0.744,0-1.091,0c0.029-0.121,0.078-0.23,0.08-0.342c0.009-0.549-0.002-1.1,0.009-1.648
			c0.003-0.199-0.039-0.336-0.262-0.369c0.5,0,1.001,0,1.506,0c0,0.119,0,0.227,0,0.361c-0.204-0.285-0.484-0.205-0.74-0.211
			c-0.028-0.002-0.071,0.057-0.085,0.094c-0.016,0.043-0.006,0.096-0.007,0.145c-0.009,0.75,0.02,0.771,0.801,0.604
			c-0.007,0.123-0.013,0.238-0.02,0.357C77.635,46.684,77.576,46.672,77.049,46.715z"/>
		<path fill-rule="evenodd" clip-rule="evenodd" fill="#B4B3B0" d="M95.133,45.496c0,0.123,0,0.227,0,0.311
			c-0.121-0.049-0.239-0.117-0.365-0.139c-0.14-0.025-0.286-0.006-0.47-0.006c0,0.262-0.008,0.516,0.007,0.77
			c0.004,0.043,0.104,0.115,0.16,0.117c0.2,0.004,0.401-0.016,0.629-0.027c-0.004,0.1-0.011,0.217-0.017,0.348
			c-0.21-0.273-0.49-0.133-0.77-0.178c0,0.287-0.005,0.549,0.005,0.812c0.001,0.047,0.045,0.105,0.087,0.135
			c0.206,0.15,0.672,0.053,0.812-0.166c0.037,0.354,0.006,0.391-0.333,0.391c-0.186,0-0.372,0.002-0.558,0.002s-0.371,0-0.526,0
			c0.03-0.123,0.079-0.236,0.081-0.35c0.008-0.541-0.001-1.084,0.007-1.625c0.003-0.199-0.021-0.357-0.263-0.395
			c0.246,0,0.493,0,0.739,0C94.609,45.496,94.858,45.496,95.133,45.496z"/>
		<path fill-rule="evenodd" clip-rule="evenodd" fill="#B4B3B0" d="M66.106,47.857c-0.191,0-0.416,0-0.578,0
			c0.088-0.113,0.222-0.236,0.291-0.391c0.27-0.586,0.52-1.184,0.777-1.777c0.035-0.078,0.075-0.156,0.138-0.289
			c0.063,0.127,0.11,0.205,0.146,0.289c0.254,0.586,0.497,1.178,0.762,1.76c0.071,0.154,0.205,0.281,0.297,0.404
			c-0.158,0-0.37,0-0.582,0c-0.054-0.145-0.12-0.281-0.156-0.428c-0.066-0.268-0.211-0.4-0.498-0.34
			c-0.03,0.006-0.063,0.002-0.096,0.002c-0.365,0-0.573,0.191-0.594,0.568C66.009,47.721,66.072,47.789,66.106,47.857z
			 M66.681,46.119c-0.021-0.006-0.041-0.01-0.062-0.016c-0.104,0.266-0.21,0.531-0.326,0.824c0.244,0,0.447,0,0.696,0
			C66.878,46.639,66.778,46.379,66.681,46.119z"/>
		<path fill-rule="evenodd" clip-rule="evenodd" fill="#B4B3B0" d="M87.804,36.592c-0.021,0.24-0.04,0.46-0.06,0.681
			c-0.029,0.361-0.055,0.725-0.092,1.084c-0.007,0.064-0.062,0.123-0.096,0.183c-0.031-0.063-0.088-0.128-0.09-0.192
			c-0.026-0.531-0.211-0.78-0.731-0.799c-0.167-0.007-0.335-0.047-0.499-0.088c-0.116-0.028-0.24-0.065-0.332-0.137
			c-0.07-0.053-0.135-0.168-0.127-0.248c0.005-0.053,0.142-0.125,0.224-0.131c0.226-0.018,0.453-0.001,0.679-0.006
			c0.363-0.006,0.736,0.015,0.996-0.318C87.69,36.601,87.734,36.606,87.804,36.592z"/>
		<path fill-rule="evenodd" clip-rule="evenodd" fill="#B4B3B0" d="M108.669,46.609c0.174-0.369,0.519-0.648,0.528-1.104
			c0.147,0,0.35,0,0.563,0c-0.501,0.342-1.153,1.299-0.959,2.113c0.023,0.096,0.149,0.17,0.211,0.234c-0.242,0-0.534,0-0.767,0
			c0.037-0.105,0.1-0.223,0.119-0.346c0.133-0.881-0.468-1.412-0.919-2.006c0.193,0,0.425,0,0.597,0
			C108.177,45.924,108.447,46.246,108.669,46.609z"/>
		<path fill-rule="evenodd" clip-rule="evenodd" fill="#B4B3B0" d="M82.149,45.496c0.516,0,1.032,0,1.562,0
			c-0.005,0.111-0.01,0.215-0.016,0.355c-0.217-0.279-0.501-0.18-0.759-0.199c-0.033-0.002-0.09,0.074-0.106,0.125
			c-0.019,0.059-0.006,0.129-0.006,0.193c-0.001,0.666,0.012,0.676,0.676,0.564c0.031-0.006,0.062-0.012,0.108-0.02
			c0,0.119,0,0.23,0,0.344c-0.189-0.176-0.323-0.199-0.767-0.135c0,0.303-0.017,0.607,0.011,0.91
			c0.008,0.084,0.141,0.156,0.197,0.217c-0.235,0-0.526,0-0.764,0c0.035-0.104,0.112-0.225,0.114-0.346
			c0.014-0.551,0.001-1.102,0.011-1.652C82.415,45.66,82.358,45.541,82.149,45.496z"/>
		<path fill-rule="evenodd" clip-rule="evenodd" fill="#B4B3B0" d="M101.725,47.857c-0.304,0-0.608,0-0.864,0
			c0.049-0.088,0.146-0.188,0.149-0.291c0.015-0.605,0.01-1.213,0.009-1.818c0-0.021-0.018-0.043-0.025-0.062
			c-0.607-0.047-0.677-0.033-0.896,0.209c0.028-0.152,0.052-0.275,0.076-0.41c0.701,0,1.393,0,2.114,0
			c0.004,0.092,0.011,0.201,0.014,0.271c-0.281-0.039-0.554-0.076-0.873-0.119c0,0.504-0.001,0.961,0.001,1.418
			c0.001,0.131,0.012,0.258,0.012,0.389C101.44,47.648,101.444,47.846,101.725,47.857z"/>
		<path fill-rule="evenodd" clip-rule="evenodd" fill="#B4B3B0" d="M98.439,45.91c-0.23-0.32-0.468-0.402-0.741-0.268
			c-0.235,0.115-0.283,0.379-0.089,0.557c0.1,0.092,0.23,0.148,0.342,0.229c0.144,0.104,0.305,0.195,0.417,0.326
			c0.345,0.402,0.129,1.008-0.391,1.115c-0.148,0.031-0.307,0.049-0.457,0.037c-0.442-0.033-0.48-0.092-0.389-0.598
			c0.089,0.301,0.269,0.447,0.54,0.461c0.219,0.01,0.402-0.059,0.487-0.281c0.083-0.215-0.007-0.381-0.181-0.504
			c-0.133-0.094-0.275-0.17-0.41-0.26c-0.334-0.225-0.456-0.482-0.381-0.795c0.062-0.26,0.348-0.461,0.719-0.479
			c0.174-0.008,0.35,0.027,0.533,0.043C98.439,45.646,98.439,45.771,98.439,45.91z"/>
		<path fill-rule="evenodd" clip-rule="evenodd" fill="#B4B3B0" d="M73.911,45.504c-0.179,0.035-0.222,0.152-0.22,0.32
			c0.006,0.502-0.002,1.004,0.003,1.506c0.004,0.293,0.062,0.35,0.364,0.35c0.233-0.002,0.504,0.08,0.631-0.252
			c0.033,0.4,0,0.438-0.362,0.438c-0.412,0-0.823,0-1.182,0c0.041-0.119,0.116-0.24,0.118-0.363
			c0.014-0.541,0.005-1.084,0.009-1.625c0.002-0.172-0.002-0.332-0.223-0.373C73.337,45.504,73.624,45.504,73.911,45.504z"/>
	</g>
</g>
</svg>
