<?xml version="1.0" encoding="utf-8"?>
<!-- Generator: Adobe Illustrator 16.0.0, SVG Export Plug-In . SVG Version: 6.00 Build 0)  -->
<!DOCTYPE svg PUBLIC "-//W3C//DTD SVG 1.1//EN" "http://www.w3.org/Graphics/SVG/1.1/DTD/svg11.dtd">
<svg version="1.1" id="Capa_1" xmlns="http://www.w3.org/2000/svg" xmlns:xlink="http://www.w3.org/1999/xlink" x="0px" y="0px"
	 width="130px" height="80px" viewBox="0 0 130 80" enable-background="new 0 0 130 80" xml:space="preserve">
<g id="_x37_8kXWF_2_">
	<g>
		<path fill-rule="evenodd" clip-rule="evenodd" fill="#B4B3B0" d="M30.094,31.525c0.682,0.099,1.379,0.139,2.043,0.311
			c1.234,0.318,2.451,0.707,3.671,1.08c0.64,0.194,0.737,0.148,0.943-0.492c0.029-0.086,0.139-0.205,0.215-0.208
			c0.483-0.021,0.965-0.011,1.474-0.011c0,1.51,0,2.975,0,4.504c-0.514,0-1.023,0.008-1.531-0.007
			c-0.072-0.004-0.172-0.107-0.203-0.187c-0.47-1.168-1.39-1.854-2.522-2.248c-2.382-0.829-4.827-1.004-7.301-0.521
			c-0.474,0.094-0.956,0.326-1.344,0.615c-0.743,0.56-0.651,1.445,0.216,1.76c0.832,0.303,1.725,0.475,2.605,0.603
			c2.254,0.326,4.525,0.542,6.771,0.918c0.834,0.139,1.681,0.482,2.404,0.923c1.994,1.217,2.285,4.125,0.643,5.789
			c-1.101,1.111-2.508,1.628-3.997,1.912c-3.065,0.58-6.061,0.24-8.982-0.812c-0.346-0.124-0.692-0.25-1.048-0.34
			c-0.634-0.159-0.813-0.028-0.923,0.628c-0.014,0.071-0.02,0.143-0.031,0.24c-0.541,0-1.078,0-1.643,0c0-1.667,0-3.32,0-5.027
			c0.492,0,0.973-0.009,1.453,0.008c0.09,0.003,0.23,0.094,0.253,0.173c0.46,1.51,1.632,2.26,2.995,2.763
			c2.456,0.907,4.967,1.009,7.498,0.337c0.377-0.101,0.75-0.273,1.078-0.486c0.928-0.601,0.87-1.747-0.157-2.142
			c-0.755-0.29-1.587-0.413-2.396-0.537c-2.266-0.345-4.54-0.625-6.804-0.987c-0.96-0.153-1.87-0.512-2.685-1.068
			c-1.793-1.229-2.06-3.685-0.566-5.318c1.021-1.115,2.368-1.602,3.8-1.902c0.528-0.11,1.065-0.18,1.599-0.268
			C28.446,31.525,29.271,31.525,30.094,31.525z"/>
		<path fill-rule="evenodd" clip-rule="evenodd" fill="#B4B3B0" d="M53.848,31.525c0.868,0.148,1.746,0.256,2.6,0.452
			c1.524,0.352,2.92,0.997,4.125,2.009c3.439,2.897,3.222,7.771-0.473,10.452c-1.613,1.171-3.455,1.745-5.408,1.978
			c-2.26,0.27-4.494,0.133-6.671-0.584c-1.325-0.438-2.542-1.081-3.567-2.042c-2.889-2.713-2.816-7.052,0.166-9.667
			c1.611-1.415,3.544-2.102,5.631-2.42c0.404-0.062,0.811-0.119,1.215-0.178C52.258,31.525,53.055,31.525,53.848,31.525z
			 M52.493,33.527c-0.259,0.027-0.714,0.051-1.161,0.124c-2.253,0.368-4.002,1.989-4.449,4.104c-0.492,2.319,0.342,4.54,2.201,5.769
			c1.503,0.992,3.177,1.196,4.908,0.887c4.71-0.839,5.67-5.839,3.559-8.65C56.344,34.15,54.641,33.561,52.493,33.527z"/>
		<path fill-rule="evenodd" clip-rule="evenodd" fill="#B4B3B0" d="M109.569,34.086c-0.632,0-1.266-0.025-1.896,0.006
			c-0.552,0.027-1.009,0.301-1.385,0.701c-1.719,1.836-3.436,3.676-5.144,5.522c-0.107,0.114-0.187,0.306-0.189,0.462
			c-0.019,0.81-0.017,1.62-0.006,2.428c0.009,0.605,0.196,0.781,0.805,0.787c0.614,0.003,1.228,0,1.867,0c0,0.585,0,1.12,0,1.683
			c-3.212,0-6.411,0-9.629,0c0-0.564,0-1.1,0-1.683c0.643,0,1.257,0.003,1.87,0c0.602-0.006,0.797-0.193,0.803-0.79
			c0.008-0.736,0.017-1.473-0.009-2.207c-0.005-0.183-0.096-0.399-0.223-0.535c-1.7-1.853-3.419-3.69-5.124-5.541
			c-0.532-0.577-1.16-0.88-1.95-0.856c-0.467,0.016-0.933,0.002-1.421,0.002c0-0.59,0-1.127,0-1.688c3.27,0,6.515,0,9.785,0
			c0,0.557,0,1.094,0,1.691c-0.316,0-0.625-0.029-0.925,0.014c-0.164,0.021-0.397,0.125-0.448,0.254s0.032,0.377,0.142,0.498
			c1.029,1.133,2.076,2.248,3.136,3.391c0.094-0.082,0.184-0.15,0.26-0.232c0.963-1.03,1.934-2.057,2.881-3.104
			c0.126-0.138,0.24-0.424,0.178-0.558c-0.062-0.14-0.34-0.223-0.535-0.254c-0.27-0.043-0.55-0.012-0.845-0.012
			c0-0.58,0-1.105,0-1.688c0.164-0.01,0.333-0.025,0.501-0.025c2.326-0.002,4.65,0,6.976-0.002c0.175,0,0.352-0.019,0.526-0.029
			C109.569,32.91,109.569,33.498,109.569,34.086z"/>
		<path fill-rule="evenodd" clip-rule="evenodd" fill="#B4B3B0" d="M70.188,36.353c0,0.186,0,0.296,0,0.405
			c0,2.121-0.003,4.238,0,6.358c0,0.712,0.167,0.875,0.889,0.876c0.582,0.002,1.167,0,1.779,0c0,0.585,0,1.12,0,1.685
			c-2.71,0-5.397,0-8.11,0c0-0.552,0-1.087,0-1.685c0.62,0,1.232,0.003,1.847,0c0.632-0.004,0.824-0.182,0.826-0.811
			c0.006-2.767,0.006-5.533,0-8.299c-0.002-0.629-0.19-0.809-0.824-0.816c-0.601-0.008-1.203-0.002-1.84-0.002
			c0-0.566,0-1.102,0-1.691c0.139-0.008,0.293-0.021,0.447-0.021c1.987-0.002,3.976-0.01,5.961,0.01
			c0.235,0.002,0.521,0.111,0.7,0.265c2.924,2.489,5.833,4.995,8.747,7.497c0.121,0.102,0.246,0.198,0.418,0.337
			c0.012-0.163,0.025-0.272,0.026-0.382c0-1.721,0.002-3.441,0-5.165c-0.001-0.669-0.167-0.839-0.827-0.847
			c-0.599-0.008-1.2-0.002-1.826-0.002c0-0.586,0-1.121,0-1.686c2.703,0,5.388,0,8.098,0c0,0.555,0,1.092,0,1.686
			c-0.608,0-1.208-0.004-1.806,0.002c-0.7,0.008-0.854,0.158-0.854,0.867c-0.004,3.398-0.002,6.796-0.002,10.196
			c0,0.172,0,0.345,0,0.569c-0.917,0-1.779,0.014-2.642-0.014c-0.147-0.003-0.301-0.165-0.431-0.275
			c-3.417-2.934-6.831-5.869-10.246-8.803C70.435,36.534,70.341,36.471,70.188,36.353z"/>
	</g>
</g>
</svg>
