<?xml version="1.0" encoding="utf-8"?>
<!-- Generator: Adobe Illustrator 16.0.0, SVG Export Plug-In . SVG Version: 6.00 Build 0)  -->
<!DOCTYPE svg PUBLIC "-//W3C//DTD SVG 1.1//EN" "http://www.w3.org/Graphics/SVG/1.1/DTD/svg11.dtd">
<svg version="1.1" xmlns="http://www.w3.org/2000/svg" xmlns:xlink="http://www.w3.org/1999/xlink" x="0px" y="0px" width="130px"
	 height="80px" viewBox="0 0 130 80" enable-background="new 0 0 130 80" xml:space="preserve">
<g id="Capa_1">
	<g>
		<path fill="#B4B3B0" d="M28.982,32.514c0,2.033,3.408,4.291,3.408,6.613c0,0,0,0.224-0.093,0.462
			c3.188,0.672,5.446,2.258,5.446,4.115c0,2.5-4.027,4.566-9.015,4.566c-5.094,0-9.042-2.033-9.042-4.471
			c0-1.855,2.445-3.361,5.397-4.162c0,1.025,3.361,4.277,3.442,5.589c0.007,0.148,0.037,0.277,0,0.43
			c0.725-0.381,0.725-1.586,0.725-1.586c0-2.848-3.266-4.113-3.266-6.915c0-1.089,0.504-1.889,0.961-2.114v0.784
			c0,2.034,3.536,4.308,3.536,6.167v0.607c0.822-0.318,0.822-1.842,0.822-1.842c0-2.562-3.285-3.988-3.285-6.917
			c0-1.089,0.507-1.89,0.964-2.114V32.514z"/>
		<path fill="#B4B3B0" d="M44.907,47.482c-1.719,0-2.965-0.494-2.965-0.494v-3.025h0.427c0.22,1.598,1.418,2.814,2.792,2.814
			c1.372,0,2.335-0.768,2.335-1.982c0-1.297-1.278-1.889-2.13-2.32l-1.231-0.625c-1.167-0.592-2.113-1.553-2.113-2.896
			c0-1.681,1.23-3.12,3.579-3.12c1.611,0,2.935,0.543,2.935,0.543v2.703H48.11c-0.253-1.44-1.042-2.575-2.651-2.575
			c-1.199,0-1.907,0.833-1.907,1.68c0,1.104,0.756,1.6,1.639,2.049l1.23,0.623c1.119,0.576,2.507,1.537,2.507,3.168
			C48.929,46.105,47.509,47.482,44.907,47.482"/>
		<path fill="#B4B3B0" d="M52.856,44.186c-0.331,0.145-0.915,0.416-0.915,1.184c0,0.414,0.238,1.088,1.059,1.088
			c0.394,0,0.947-0.223,1.341-0.543v-2.369L52.856,44.186z M52.211,47.42c-1.073,0-1.768-0.721-1.768-1.793
			c0-0.768,0.553-1.361,1.768-1.809l2.13-0.785v-0.674c0-1.006-0.458-1.629-1.154-1.629c-0.471,0-0.945,0.24-1.182,0.623
			c-0.095,0.145-0.109,0.354-0.109,0.512c0,0.273,0.172,0.592,0.172,0.592l-1.039,0.48c-0.128-0.225-0.285-0.561-0.285-0.896
			c0-0.062,0.016-0.127,0.016-0.176c0.079-0.576,0.568-0.959,1.23-1.359c0.646-0.399,1.197-0.513,1.593-0.513
			c1.989,0,2.335,1.601,2.335,2.128v3.312c0,0.529,0.048,0.865,0.473,0.865c0.127,0,0.205,0,0.38-0.064l0.378-0.129v0.479
			l-2.208,0.836c-0.331-0.24-0.49-0.674-0.552-1.041C53.867,46.826,52.969,47.42,52.211,47.42"/>
		<path fill="#B4B3B0" d="M57.636,47.258v-0.383l0.521-0.098c0.315-0.062,0.536-0.303,0.536-0.623v-4.273
			c0-0.367-0.173-0.561-0.489-0.561c-0.11,0-0.236,0.02-0.363,0.064l-0.205,0.082v-0.482l2.272-0.991h0.33v1.185
			c0.693-0.785,1.515-1.185,2.241-1.185c1.608,0,2.381,1.169,2.381,2.528v3.633c0,0.32,0.237,0.576,0.553,0.623l0.535,0.098v0.383
			h-3.754v-0.383l0.52-0.098c0.316-0.062,0.568-0.303,0.568-0.623v-3.615c0-0.482-0.125-1.555-1.388-1.555
			c-0.693,0-1.277,0.434-1.625,0.752v4.418c0,0.32,0.252,0.561,0.568,0.623l0.52,0.098v0.383H57.636z"/>
		<path fill="#B4B3B0" d="M71.389,40.971h-2.208v3.969c0,0.879,0.459,1.359,1.122,1.359c0.268,0,0.692-0.082,1.086-0.305
			l0.177,0.385l-1.422,0.91c0,0-0.284,0.049-0.425,0.049c-1.372,0-2.115-0.814-2.115-2.543v-3.824h-1.152v-0.4
			c0,0,1.736-0.673,2.416-2.322h0.313v2.032h2.493L71.389,40.971z"/>
		<path fill="#B4B3B0" d="M74.698,44.186c-0.331,0.145-0.914,0.416-0.914,1.184c0,0.414,0.235,1.088,1.058,1.088
			c0.392,0,0.946-0.223,1.34-0.543v-2.369L74.698,44.186z M74.052,47.42c-1.073,0-1.767-0.721-1.767-1.793
			c0-0.768,0.553-1.361,1.767-1.809l2.13-0.785v-0.674c0-1.006-0.459-1.629-1.152-1.629c-0.473,0-0.947,0.24-1.183,0.623
			c-0.095,0.145-0.111,0.354-0.111,0.512c0,0.273,0.175,0.592,0.175,0.592l-1.04,0.48c-0.128-0.225-0.285-0.561-0.285-0.896
			c0-0.062,0.017-0.127,0.017-0.176c0.078-0.576,0.566-0.959,1.229-1.359c0.646-0.399,1.198-0.513,1.593-0.513
			c1.987,0,2.336,1.601,2.336,2.128v3.312c0,0.529,0.048,0.865,0.472,0.865c0.126,0,0.205,0,0.378-0.064l0.381-0.129v0.479
			l-2.208,0.836c-0.332-0.24-0.49-0.674-0.554-1.041C75.707,46.826,74.81,47.42,74.052,47.42"/>
		<path fill="#B4B3B0" d="M79.478,47.258v-0.383l0.521-0.098c0.313-0.062,0.535-0.303,0.535-0.623v-4.273
			c0-0.367-0.174-0.561-0.489-0.561c-0.109,0-0.235,0.02-0.362,0.064l-0.205,0.082v-0.482l2.272-0.991h0.33v1.185
			c0.695-0.785,1.515-1.185,2.239-1.185c1.608,0,2.382,1.169,2.382,2.528v3.633c0,0.32,0.237,0.576,0.553,0.623l0.536,0.098v0.383
			h-3.755v-0.383l0.521-0.098c0.316-0.062,0.568-0.303,0.568-0.623v-3.615c0-0.482-0.125-1.555-1.389-1.555
			c-0.695,0-1.278,0.434-1.625,0.752v4.418c0,0.32,0.254,0.561,0.569,0.623l0.521,0.098v0.383H79.478z"/>
		<path fill="#B4B3B0" d="M92.506,40.666c-1.134,0-2.304,0.734-2.304,2.879c0,1.793,0.885,2.881,2.271,2.881
			c0.838,0,1.357-0.496,1.485-0.752v-4.16C93.754,40.984,93.17,40.666,92.506,40.666 M91.796,47.42
			c-1.483,0-3.265-1.121-3.265-3.553c0-2.131,1.623-3.874,3.803-3.874c0.725,0,1.246,0.145,1.625,0.304v-3.664
			c0-0.385-0.205-0.496-0.459-0.496c-0.142,0-0.299,0.033-0.441,0.08l-0.316,0.113v-0.481l2.462-1.056h0.331v10.545
			c0,0.609,0.094,0.961,0.52,0.961c0.127,0,0.206,0,0.378-0.064l0.378-0.129v0.479l-2.206,0.836c-0.348-0.24-0.521-0.689-0.6-1.059
			C93.594,46.811,92.854,47.42,91.796,47.42"/>
		<path fill="#B4B3B0" d="M102.349,42.475v-0.031c0-1.201-0.662-1.777-1.451-1.777c-0.884,0-1.547,0.592-1.735,1.809H102.349z
			 M99.115,43.129v0.082c-0.016,2.127,1.183,3.199,2.682,3.199c0.757,0,1.451-0.289,2.003-0.719v0.639
			c-0.632,0.592-1.592,1.09-2.774,1.09c-2.462,0-3.55-1.873-3.55-3.648c0-2.082,1.561-3.778,3.58-3.778
			c1.655,0,2.95,1.185,2.95,2.929v0.207H99.115z"/>
		<path fill="#B4B3B0" d="M104.935,47.258v-0.383l0.521-0.098c0.302-0.062,0.536-0.303,0.536-0.623v-4.273
			c0-0.367-0.173-0.561-0.487-0.561c-0.112,0-0.239,0.02-0.363,0.064l-0.207,0.082v-0.482l2.24-0.991h0.332v1.552
			c0.568-1.118,1.247-1.582,2.021-1.582c0.629,0,0.786,0.159,0.786,0.159v1.698h-0.314c-0.079-0.449-0.378-0.674-0.851-0.674
			c-0.505,0-1.137,0.143-1.58,1.07v3.938c0,0.32,0.316,0.576,0.618,0.623l0.756,0.098v0.383H104.935z"/>
	</g>
</g>
<g id="Capa_2" display="none">
	<g display="inline">
		<g>
			<path fill="#B4B3B0" d="M62.058,47.566c0.961,0,1.556,0.453,1.556,1.697c0,1.243-0.594,1.691-1.556,1.691h-0.71
				c-0.096,0-0.171-0.075-0.171-0.171v-3.046c0-0.096,0.076-0.172,0.171-0.172H62.058L62.058,47.566z M61.519,50.645h0.539
				c0.75,0,1.208-0.332,1.208-1.379c0-1.037-0.458-1.386-1.208-1.386h-0.539V50.645z"/>
			<path fill="#B4B3B0" d="M64.308,50.956c-0.096,0-0.171-0.075-0.171-0.171v-3.046c0-0.097,0.075-0.173,0.171-0.173h1.616
				c0.086,0,0.156,0.072,0.156,0.156c0,0.086-0.07,0.156-0.156,0.156h-1.445v1.214h1.107c0.086,0,0.156,0.07,0.156,0.155
				c0,0.086-0.07,0.156-0.156,0.156h-1.107v1.238h1.501c0.084,0,0.154,0.07,0.154,0.155c0,0.086-0.07,0.156-0.154,0.156h-1.672
				V50.956z"/>
			<path fill="#B4B3B0" d="M66.463,49.266c0-1.193,0.594-1.769,1.57-1.769c0.479,0,0.896,0.207,1.133,0.534
				c0.025,0.035,0.035,0.07,0.035,0.104c0,0.091-0.07,0.161-0.16,0.161c-0.046,0-0.092-0.016-0.132-0.064
				c-0.171-0.236-0.498-0.424-0.876-0.424c-0.775,0-1.219,0.469-1.219,1.455c0,1.047,0.442,1.45,1.219,1.45
				c0.333,0,0.68-0.132,0.876-0.413c0.036-0.051,0.091-0.064,0.132-0.064c0.09,0,0.16,0.07,0.16,0.16
				c0,0.041-0.01,0.065-0.029,0.097c-0.223,0.321-0.676,0.532-1.139,0.532C67.057,51.025,66.463,50.503,66.463,49.266z"/>
			<path fill="#B4B3B0" d="M69.538,49.266c0-1.193,0.595-1.769,1.571-1.769c0.976,0,1.57,0.573,1.57,1.769
				c0,1.184-0.595,1.762-1.57,1.762C70.133,51.027,69.538,50.448,69.538,49.266z M69.891,49.266c0,0.98,0.448,1.449,1.219,1.449
				s1.22-0.469,1.22-1.449c0-0.988-0.449-1.455-1.22-1.455S69.891,48.277,69.891,49.266z"/>
			<path fill="#B4B3B0" d="M73.545,50.825c0,0.096-0.074,0.171-0.17,0.171s-0.172-0.075-0.172-0.171v-3.086
				c0-0.097,0.076-0.173,0.172-0.173h1.001c0.56,0,0.962,0.424,0.962,0.963c0,0.519-0.357,0.937-0.9,0.962l0.922,1.229
				c0.023,0.029,0.035,0.069,0.035,0.104c0,0.096-0.076,0.171-0.172,0.171c-0.051,0-0.105-0.02-0.146-0.08l-1.022-1.425h-0.509
				L73.545,50.825L73.545,50.825z M73.545,49.18h0.842c0.353,0,0.604-0.287,0.604-0.649c0-0.372-0.257-0.649-0.619-0.649h-0.826
				L73.545,49.18L73.545,49.18z"/>
			<path fill="#B4B3B0" d="M76.289,49.954l-0.367,0.922c-0.025,0.065-0.081,0.12-0.166,0.12c-0.096,0-0.172-0.08-0.172-0.171
				c0-0.021,0.006-0.056,0.016-0.075l1.229-3.105c0.024-0.062,0.069-0.117,0.16-0.117c0.086,0,0.142,0.057,0.167,0.117l1.229,3.105
				c0.01,0.023,0.016,0.061,0.016,0.075c0,0.091-0.07,0.171-0.176,0.171c-0.086,0-0.142-0.051-0.166-0.115l-0.363-0.927H76.289z
				 M76.988,48.102l-0.594,1.541h1.192L76.988,48.102z"/>
			<path fill="#B4B3B0" d="M78.504,49.266c0-1.193,0.594-1.769,1.571-1.769c0.478,0,0.896,0.207,1.133,0.534
				c0.024,0.035,0.035,0.07,0.035,0.104c0,0.091-0.071,0.161-0.161,0.161c-0.045,0-0.091-0.016-0.131-0.064
				c-0.172-0.236-0.498-0.424-0.876-0.424c-0.775,0-1.22,0.469-1.22,1.455c0,1.047,0.443,1.45,1.22,1.45
				c0.332,0,0.679-0.132,0.876-0.413c0.035-0.051,0.091-0.064,0.131-0.064c0.09,0,0.161,0.07,0.161,0.16
				c0,0.041-0.011,0.065-0.03,0.097c-0.222,0.321-0.675,0.532-1.138,0.532C79.098,51.025,78.504,50.503,78.504,49.266z"/>
			<path fill="#B4B3B0" d="M82.104,50.825c0,0.091-0.074,0.171-0.17,0.171c-0.097,0-0.172-0.08-0.172-0.171v-3.127
				c0-0.091,0.075-0.171,0.172-0.171c0.096,0,0.17,0.08,0.17,0.171V50.825z"/>
			<path fill="#B4B3B0" d="M84.198,51.025c-0.978,0-1.571-0.577-1.571-1.762c0-1.193,0.594-1.768,1.571-1.768
				c0.977,0,1.569,0.574,1.569,1.768C85.77,50.448,85.175,51.025,84.198,51.025z M84.198,47.811c-0.771,0-1.22,0.467-1.22,1.455
				c0,0.98,0.448,1.449,1.22,1.449c0.771,0,1.218-0.469,1.218-1.449C85.416,48.277,84.969,47.811,84.198,47.811z M83.921,47.312
				c0.062,0.049,0.106,0.033,0.151-0.012l0.488-0.492c0.055-0.057,0.061-0.121-0.017-0.191c-0.08-0.07-0.149-0.051-0.19,0
				l-0.447,0.544C83.871,47.205,83.861,47.261,83.921,47.312z"/>
			<path fill="#B4B3B0" d="M88.658,47.693v3.132c0,0.096-0.075,0.171-0.172,0.171c-0.061,0-0.105-0.023-0.141-0.07l-1.771-2.673
				v2.577c0,0.091-0.076,0.166-0.166,0.166c-0.092,0-0.166-0.075-0.166-0.166v-3.137c0-0.09,0.074-0.166,0.166-0.166
				c0.061,0,0.109,0.035,0.136,0.07l1.782,2.678v-2.582c0-0.09,0.074-0.166,0.166-0.166C88.583,47.527,88.658,47.604,88.658,47.693z
				"/>
			<path fill="#B4B3B0" d="M90.752,50.825c0,0.091-0.075,0.171-0.171,0.171c-0.097,0-0.171-0.08-0.171-0.171v-3.127
				c0-0.091,0.074-0.171,0.171-0.171c0.096,0,0.171,0.08,0.171,0.171V50.825z"/>
			<path fill="#B4B3B0" d="M93.823,47.693v3.132c0,0.096-0.075,0.171-0.171,0.171c-0.062,0-0.105-0.023-0.143-0.07l-1.771-2.673
				v2.577c0,0.091-0.076,0.166-0.167,0.166c-0.09,0-0.166-0.075-0.166-0.166v-3.137c0-0.09,0.076-0.166,0.166-0.166
				c0.061,0,0.111,0.035,0.137,0.07l1.782,2.678v-2.582c0-0.09,0.075-0.166,0.166-0.166S93.823,47.604,93.823,47.693z"/>
			<path fill="#B4B3B0" d="M94.82,50.825c0,0.096-0.076,0.171-0.172,0.171c-0.097,0-0.172-0.075-0.172-0.171v-3.086
				c0-0.097,0.075-0.173,0.172-0.173h1.615c0.086,0,0.156,0.072,0.156,0.156c0,0.086-0.07,0.156-0.156,0.156H94.82v1.254h1.106
				c0.087,0,0.156,0.07,0.156,0.156c0,0.085-0.069,0.154-0.156,0.154H94.82V50.825z"/>
			<path fill="#B4B3B0" d="M96.971,49.954l-0.369,0.922c-0.024,0.065-0.08,0.12-0.166,0.12c-0.096,0-0.17-0.08-0.17-0.171
				c0-0.021,0.004-0.056,0.014-0.075l1.229-3.105c0.025-0.062,0.07-0.117,0.162-0.117c0.085,0,0.142,0.057,0.166,0.117l1.229,3.105
				c0.01,0.023,0.015,0.061,0.015,0.075c0,0.091-0.07,0.171-0.177,0.171c-0.086,0-0.141-0.051-0.166-0.115l-0.362-0.927H96.971z
				 M97.67,48.102l-0.595,1.541h1.192L97.67,48.102z"/>
			<path fill="#B4B3B0" d="M101.883,47.693v3.132c0,0.096-0.076,0.171-0.172,0.171c-0.061,0-0.105-0.023-0.141-0.07l-1.771-2.673
				v2.577c0,0.091-0.076,0.166-0.166,0.166c-0.091,0-0.166-0.075-0.166-0.166v-3.137c0-0.09,0.075-0.166,0.166-0.166
				c0.061,0,0.11,0.035,0.137,0.07l1.781,2.678v-2.582c0-0.09,0.075-0.166,0.166-0.166
				C101.807,47.527,101.883,47.604,101.883,47.693z"/>
			<path fill="#B4B3B0" d="M102.416,47.891c-0.09,0-0.16-0.07-0.16-0.16c0-0.092,0.07-0.162,0.16-0.162h2.141
				c0.09,0,0.16,0.07,0.16,0.162c0,0.09-0.07,0.16-0.16,0.16h-0.896v2.936c0,0.096-0.076,0.171-0.172,0.171
				c-0.097,0-0.171-0.075-0.171-0.171v-2.936H102.416z"/>
			<path fill="#B4B3B0" d="M105.486,50.825c0,0.091-0.074,0.171-0.17,0.171s-0.172-0.08-0.172-0.171v-3.127
				c0-0.091,0.076-0.171,0.172-0.171s0.17,0.08,0.17,0.171V50.825z"/>
			<path fill="#B4B3B0" d="M107.914,50.634c0.09,0,0.16,0.07,0.16,0.161s-0.07,0.161-0.16,0.161h-1.551
				c-0.096,0-0.172-0.075-0.172-0.171v-3.087c0-0.095,0.076-0.171,0.172-0.171s0.171,0.076,0.171,0.171v2.936H107.914z"/>
		</g>
		<g>
			<path fill="#B4B3B0" d="M65.896,30.49c-0.667,0.811-1.147,1.678-1.394,2.662c-0.6,2.412,0.406,5.026,2.509,6.402
				c0.204,0.134,0.582,0.235,0.547,0.455c-0.037,0.255-0.427,0.271-0.675,0.361c-2.861,1.052-6.006-0.657-6.727-3.677
				c-0.638-2.67,1.062-5.428,3.595-6.087C64.448,30.427,65.132,30.332,65.896,30.49z"/>
			<g>
				<path fill="#B4B3B0" d="M102.594,38.252c-0.232-0.061-0.307,0.178-0.369,0.355c-0.207,0.596-0.506,1.128-0.955,1.578
					c-0.345,0.342-0.715,0.62-1.223,0.473c-0.515-0.148-0.631-0.618-0.773-1.064c-0.256-0.8,0.076-1.599-0.024-2.408
					c-0.074-0.575-0.211-0.882-0.793-0.926c-0.356-0.025-0.694,0.038-1.021,0.186c-1.225,0.556-1.912,1.59-2.457,2.749
					c-0.301,0.636-0.639,1.252-1.17,1.724c-0.529,0.47-1.17,0.247-1.348-0.429c-0.074-0.283-0.068-0.568-0.088-0.853
					c-0.023-0.366-0.032-0.733-0.091-1.094c-0.144-0.9-0.69-1.155-1.515-0.75c-0.588,0.288-0.994,0.785-1.527,1.271
					c0-0.573,0.013-1.076-0.004-1.58c-0.019-0.592-0.266-0.992-0.575-0.97c-0.372,0.027-0.499,0.393-0.411,1.052
					c0.15,1.118,0.209,2.198-1.02,2.844c-0.566,0.299-1.002,0.318-1.398-0.061c-0.426-0.408-0.5-0.933-0.211-1.464
					c0.217-0.395,0.387-0.811,0.346-1.27c-0.016-0.197-0.058-0.422-0.303-0.496c-0.221-0.067-0.363,0.076-0.502,0.205
					c-0.359,0.34-0.423,0.8-0.516,1.254c-0.066,0.324,0.033,0.697-0.181,0.969c-0.427,0.538-0.923,1.016-1.571,1.286
					c-0.402,0.168-0.971-0.042-1.076-0.42c-0.076-0.27-0.123-0.554-0.09-0.848c0.082-0.704,0.27-1.364,0.617-1.986
					c0.137-0.246,0.246-0.575-0.117-0.744c-0.359-0.167-0.51,0.126-0.638,0.391c-0.248,0.52-0.452,1.062-0.541,1.625
					c-0.135,0.864-0.239,1.745,0.41,2.543c-1.528,0.213-3.354-0.053-4.709-0.658c-0.219-0.098-0.312-0.186-0.242-0.461
					c0.314-1.232,0.54-2.482,0.712-3.744c0.135-0.964,0.166-0.979,1.12-1.006c0.127-0.005,0.257-0.004,0.382-0.017
					c1.613-0.171,3.073-0.692,4.192-1.928c1.116-1.233,1.087-2.812-0.054-3.932c-1.078-1.06-2.59-1.019-3.805,0.102
					c-0.483,0.447-0.869,0.97-1.182,1.548c-0.514,0.963-0.834,1.993-1.062,3.054c-0.043,0.193-0.037,0.42-0.369,0.36
					c-1.286-0.232-2.498-0.651-3.532-1.471c-0.813-0.646-1.41-1.419-1.367-2.543c0.017-0.359,0.16-0.496,0.498-0.456
					c0.33,0.038,0.658,0.1,0.988,0.13c0.174,0.016,0.379,0.012,0.428-0.21c0.045-0.212-0.133-0.305-0.286-0.389
					c-0.523-0.285-1.091-0.356-1.667-0.242c-0.567,0.112-0.888,0.551-0.864,1.15c0.036,0.993,0.365,1.874,1.1,2.563
					c1.103,1.031,2.375,1.747,3.865,2.064c0.942,0.2,0.955,0.221,0.824,1.156c-0.166,1.164-0.303,2.332-0.582,3.478
					c-0.09,0.355-0.203,0.518-0.619,0.337c-0.83-0.361-1.684-0.676-2.533-0.987c-0.82-0.301-1.639-0.631-2.532-0.629
					c-1.065,0.005-1.558,0.769-1.128,1.74c0.572,1.3,1.64,2.048,2.92,2.51c1.639,0.588,3.072,0.185,3.945-1.091
					c0.207-0.303,0.375-0.356,0.724-0.264c1.667,0.45,3.358,0.77,5.089,0.448c1.085-0.198,2.153-0.475,2.786-1.534
					c0.194-0.326,0.328-0.108,0.468,0.093c0.585,0.849,1.456,1.08,2.328,0.627c0.194-0.101,0.367-0.238,0.582-0.381
					c0.004,0.254,0.055,0.468,0.301,0.512c0.228,0.042,0.332-0.164,0.443-0.311c0.29-0.378,0.561-0.772,0.848-1.154
					c0.383-0.509,0.766-1.025,1.324-1.358c0.396-0.237,0.598-0.145,0.65,0.31c0.061,0.521,0.065,1.047,0.113,1.57
					c0.059,0.661,0.34,1.202,0.967,1.481c0.658,0.296,1.205,0.037,1.677-0.44c0.112-0.112,0.229-0.222,0.329-0.346
					c0.162-0.201,0.256-0.289,0.404,0.039c0.201,0.44,0.588,0.694,1.062,0.817c0.749,0.193,1.695-0.229,2.298-1.043
					c0.116-0.156,0.224-0.32,0.345-0.496c0.871,1.274,1.988,1.369,3.06,0.317c0.553-0.543,0.868-1.202,1.048-1.946
					C102.795,38.553,102.857,38.32,102.594,38.252z M77.736,34.127c0.267-1.135,0.623-2.236,1.311-3.199
					c0.213-0.301,0.461-0.569,0.74-0.806c0.703-0.595,1.52-0.679,2.197-0.234c0.709,0.464,1.065,1.455,0.793,2.274
					c-0.252,0.764-0.728,1.367-1.408,1.805c-0.939,0.603-1.977,0.851-3.006,0.871C77.447,34.812,77.552,34.904,77.736,34.127z
					 M75.261,41.537c-0.396,0.604-0.896,1.029-1.739,1.046c-1.601-0.188-2.881-1.004-3.746-2.451
					c-0.198-0.334-0.037-0.555,0.365-0.525c0.62,0.046,1.224,0.204,1.813,0.394c1.046,0.332,2.079,0.702,3.125,1.03
					C75.41,41.136,75.438,41.27,75.261,41.537z M98.514,37.41c-0.287,0.433-0.205,0.917-0.154,1.388
					c0.097,0.852-0.512,1.979-1.275,2.334c-0.832,0.388-1.572-0.082-1.552-0.986c0.022-1.14,1.264-2.771,2.335-3.071
					c0.188-0.054,0.374-0.058,0.554,0.04C98.549,37.186,98.616,37.255,98.514,37.41z"/>
			</g>
			<g>
				<path fill="#B4B3B0" d="M58.988,37.716c-0.259-0.161-0.344,0.136-0.448,0.284c-0.669,0.946-1.604,1.578-2.552,2.199
					c-0.198,0.128-0.258,0.055-0.329-0.139c-0.175-0.488-0.204-0.962,0.055-1.429c0.28-0.502,0.328-1.056,0.363-1.586
					c-0.026-0.337,0.072-0.741-0.326-0.84c-0.425-0.105-0.548,0.3-0.689,0.594c-0.264,0.556-0.37,1.146-0.337,1.763
					c0.011,0.187,0.053,0.395-0.071,0.558c-0.516,0.682-1.133,1.217-2.039,1.261c-0.634,0.032-0.889-0.22-0.85-0.849
					c0.055-0.906,0.477-1.67,1.003-2.381c0.144-0.193,0.276-0.395,0.069-0.586c-0.224-0.206-0.417-0.012-0.57,0.148
					c-0.345,0.363-0.557,0.812-0.768,1.258c-0.368,0.773-0.784,1.027-1.626,1.008c-0.279-0.007-0.389-0.058-0.332-0.387
					c0.1-0.577,0.022-1.15-0.337-1.639c-0.25-0.34-0.592-0.453-1.012-0.326c-0.405,0.124-0.598,0.389-0.619,0.806
					c-0.032,0.609,0.186,1.119,0.622,1.539c0.525,0.505,0.532,0.541,0.073,1.131c-0.087,0.114-0.186,0.219-0.286,0.321
					c-0.472,0.479-0.858,0.6-1.263,0.395c-0.382-0.189-0.859-1.108-0.728-1.52c0.193-0.605,0.35-1.196,0.86-1.696
					c1.22-1.19,2.147-2.597,2.585-4.278c0.172-0.658,0.221-1.319-0.047-1.968c-0.343-0.826-1.074-1.003-1.753-0.427
					c-0.395,0.336-0.676,0.758-0.907,1.218c-0.327,0.655-0.577,1.344-0.816,2.036c-0.527,1.53-0.869,3.101-0.781,4.723
					c0.026,0.48-0.111,0.773-0.421,1.073c-0.826,0.793-1.583,0.592-1.919-0.499c-0.266-0.862,0.015-1.727-0.034-2.591
					c-0.023-0.406-0.14-0.633-0.456-0.787c-0.416-0.203-0.844-0.133-1.248,0.048c-1.579,0.707-2.476,1.987-2.805,3.623
					c-0.273,1.356,1.021,2.326,2.315,1.824c0.604-0.236,1.04-0.66,1.378-1.202c0.08-0.129,0.177-0.339,0.317-0.053
					c0.552,1.128,2.033,1.015,2.773,0.259c0.252-0.259,0.365-0.213,0.453,0.111c0.277,1.008,1.336,1.148,2.052,0.832
					c0.509-0.225,0.97-0.546,1.226-1.025c0.336-0.637,0.715-1.083,1.512-0.932c0.115,0.022,0.258-0.028,0.37-0.081
					c0.326-0.151,0.357,0,0.362,0.286c0.011,0.988,0.666,1.482,1.649,1.28c0.636-0.132,1.193-0.433,1.717-0.801
					c0.445-0.312,0.508-0.275,0.605,0.27c0.036,0.192-0.051,0.263-0.18,0.335c-0.234,0.134-0.473,0.264-0.706,0.402
					c-1.379,0.824-2.536,1.878-3.233,3.349c-0.636,1.343-0.06,2.767,1.263,3.208c0.974,0.324,1.97,0.35,2.959,0.081
					c0.83-0.226,1.404-0.729,1.607-1.595c0.116-0.498,0.161-1.002,0.117-1.514c-0.09-1.084-0.316-2.146-0.668-3.166
					c-0.176-0.514-0.061-0.748,0.38-1.018c0.972-0.593,1.798-1.364,2.48-2.281C59.151,38.146,59.252,37.88,58.988,37.716z
					 M41.901,37.312c-0.135,0.425-0.063,0.85-0.05,1.276c0.028,0.816-0.298,1.484-0.878,2.029c-0.306,0.291-0.684,0.471-1.128,0.392
					c-0.559-0.1-0.853-0.466-0.855-1.033c-0.007-1.136,1.339-2.899,2.417-3.178c0.222-0.058,0.418,0,0.584,0.125
					C42.213,37.09,41.94,37.188,41.901,37.312z M47.285,32.526c0.15-0.356,0.339-0.684,0.637-0.938
					c0.302-0.257,0.546-0.209,0.694,0.157c0.131,0.317,0.136,0.657,0.082,0.989c-0.324,1.964-1.361,3.53-2.816,5.003
					C46.135,35.857,46.593,34.16,47.285,32.526z M48.961,38.588c-0.379-0.267-0.65-0.527-0.631-0.978
					c0.005-0.131,0.013-0.279,0.147-0.325c0.17-0.058,0.259,0.097,0.326,0.214C48.986,37.821,49.044,38.166,48.961,38.588z
					 M56.101,45.298c0,0.159,0.006,0.317-0.001,0.478c-0.053,0.969-0.552,1.535-1.512,1.658c-0.751,0.1-1.493,0.01-2.196-0.287
					c-0.774-0.326-1.106-0.983-0.93-1.816c0.216-1.016,0.858-1.754,1.586-2.436c0.572-0.533,1.232-0.945,1.902-1.346
					c0.201-0.122,0.299-0.102,0.374,0.133C55.701,42.863,56.076,44.043,56.101,45.298z"/>
				<path fill="#B4B3B0" d="M39.245,32.336c0.384-0.791,0.212-1.532-0.47-2.087c-0.299-0.243-0.626-0.438-0.985-0.575
					c-0.829-0.313-1.698-0.413-2.572-0.461c-2.497-0.137-4.954,0.143-7.382,0.725c-1.564,0.374-3.126,0.747-4.539,1.561
					c-0.236,0.137-0.471,0.271-0.598,0.527c-0.172,0.346-0.058,0.69,0.274,0.845c0.391,0.181,0.82,0.094,0.889-0.235
					c0.086-0.414,0.372-0.612,0.68-0.811c0.776-0.498,1.658-0.729,2.532-0.963c2.761-0.739,5.552-1.266,8.433-0.987
					c0.749,0.073,1.484,0.223,2.155,0.566c0.961,0.489,1.138,1.251,0.523,2.117c-0.127,0.182-0.274,0.353-0.437,0.503
					c-0.917,0.854-2.075,1.281-3.197,1.769c-0.082,0.034-0.19,0.024-0.283,0.016c-1.515-0.113-3.019-0.044-4.505,0.291
					c-0.314,0.072-0.377-0.021-0.357-0.319c0.079-1.206,0.134-2.414,0.204-3.62c0.015-0.261-0.026-0.555-0.29-0.572
					c-0.264-0.018-0.344,0.286-0.368,0.527c-0.132,1.281-0.264,2.562-0.375,3.844c-0.024,0.271-0.079,0.46-0.33,0.627
					c-0.397,0.263-0.514,0.784-0.212,0.965c0.383,0.229,0.372,0.553,0.387,0.887c0.029,0.572,0.017,1.146,0.046,1.718
					c0.036,0.698,0.088,1.396,0.156,2.092c0.024,0.239,0.12,0.509,0.421,0.489c0.317-0.021,0.383-0.287,0.386-0.562
					c0.002-0.242,0-0.484,0-0.779c0.882,0.894,1.143,1.111,1.904,1.23c2.601,0.411,4.177-0.146,5.673-2.19
					c0.433-0.591,0.586-1.273,0.478-1.991c-0.171-1.131-0.743-1.969-1.927-2.376c0.994-0.372,1.845-0.879,2.637-1.488
					C38.643,33.27,38.998,32.845,39.245,32.336z M31.901,35.686c-0.746,0.27-1.497,0.498-2.304,0.455
					C30.312,35.735,31.121,35.763,31.901,35.686z M36.612,38.199c-0.129,1.117-0.963,2.032-2.207,2.603
					c-0.787,0.359-1.634,0.416-2.478,0.233c-0.488-0.105-0.921-0.317-1.137-0.841c-0.158-0.386-0.668-0.533-1.155-0.319
					c-0.238,0.104-0.274,0.046-0.283-0.157c-0.033-0.842-0.062-1.684-0.097-2.526c-0.01-0.24,0.096-0.316,0.333-0.353
					c1.401-0.213,2.765-0.591,4.107-1.041C35.262,35.271,36.619,36.238,36.612,38.199z"/>
			</g>
		</g>
	</g>
</g>
</svg>
