<?xml version="1.0" encoding="utf-8"?>
<!-- Generator: Adobe Illustrator 16.0.0, SVG Export Plug-In . SVG Version: 6.00 Build 0)  -->
<!DOCTYPE svg PUBLIC "-//W3C//DTD SVG 1.1//EN" "http://www.w3.org/Graphics/SVG/1.1/DTD/svg11.dtd">
<svg version="1.1" id="Capa_1" xmlns="http://www.w3.org/2000/svg" xmlns:xlink="http://www.w3.org/1999/xlink" x="0px" y="0px"
	 width="450px" height="450px" viewBox="0 0 450 450" enable-background="new 0 0 450 450" xml:space="preserve">
<g>
	<text transform="matrix(1 0 0 1 235.4316 357.3867)" fill="#040600" font-family="'TimesNewRomanPS-BoldMT'" font-size="28.9789"> </text>
	<rect x="105.703" y="61.683" fill="#C22821" width="235.097" height="320.44"/>
	<path fill="#FFFFFF" d="M295.798,164.432c0,39.957-33.296,72.317-74.372,72.317c-41.069,0-74.353-32.36-74.353-72.317
		c0-39.937,33.283-72.319,74.353-72.319C262.502,92.112,295.798,124.495,295.798,164.432z"/>
	<g>
		<g>
			<path fill="#C22821" d="M212.662,150.132c0,0,0.617-0.473,1.329-0.317c0.694,0.114,1.48,0.189,1.629,0.189
				c0.126,0,1.259,0.389,1.65,0.784c0.396,0.408,0.507,0.237,0.507,0.237s0.62,0.614,0.845,1.179
				c0.243,0.55,0.501,1.157,0.501,1.459c0,0.328,0.175,0.772,0.262,1.16c0.102,0.373,0,0.764,0,0.764s-0.133,2.552-0.159,3.703
				c-0.021,1.175-0.227,3.467-0.36,4.486c0,0-0.045,0.445,0,0.83c0.072,0.412,0,1.142-0.045,1.331c-0.046,0.179,0,0.981,0,1.136
				c0,0.158,0,0.506-0.046,0.789c-0.039,0.282,0.091,1.541,0.163,1.936c0.062,0.412-0.117,1.422-1.002,2.22
				c-0.902,0.784-2.189,1.747-3.729,1.546c-1.509-0.172-2.525-0.738-2.749-0.963c-0.217-0.204-0.385-0.523-0.614-0.736
				c-0.217-0.219-0.996-0.555-0.996-1.765c0-1.208,0.165-3.272,0.199-3.825c0.024-0.562,0.046-2.217,0.114-3.22
				c0.08-1.005,0.322-4.862,0.261-5.892c-0.027-1.018,0.082-3.929,0.326-4.409c0.226-0.456,0.137-0.59,0.137-0.8
				c0-0.219,0.274-0.281,0.449-0.758C211.48,150.739,212.233,150.004,212.662,150.132z"/>
			<path fill="#C22821" d="M224.692,162.788c0,0,0.127-3.71,0.127-5.336c0-1.613-0.082-2.465,0.046-2.777
				c0.105-0.308,0.496-1.68,0.496-2.049c0-0.328-0.156-1.564,0.195-1.85c0.354-0.291,0.587-0.432,0.532-0.587
				c-0.075-0.149,0.233-0.375,0.364-0.311c0.123,0.071,0.24,0.125,0.384,0c0.114-0.096,0.392-0.166,0.526-0.166
				c0.123,0,0.609-0.116,0.736-0.116c0.124,0,0.41-0.172,0.41-0.172l0.126-0.141c0,0,1.394,0.357,1.747,0.499
				c0.379,0.096,1.492,0.479,1.572,0.683c0.095,0.215,1.092,1.372,1.125,2.178c0.058,0.834,1.014,8.22,0.058,15.115
				c0,0-0.676,3.233-1.47,4.023c-0.762,0.797-2.337,2.004-4.351,1.732c-1.994-0.281-2.303-1.485-2.452-1.808
				c-0.173-0.289-0.892-2.427-0.618-3.845c0.301-1.434,0.37-1.925,0.399-3.182C224.658,163.443,224.692,162.788,224.692,162.788z"/>
			<path fill="#C22821" d="M202.504,176.312c0,0,3.647,5.206,5.062,6.484c1.416,1.27,3.347,2.754,4.227,3.062
				c0.904,0.309,4.323,1.149,5.158,1.373c0.868,0.238,3.125,0.466,4.475,0.366c1.359-0.097,4.092-0.366,4.928-0.55
				c0.855-0.174,1.912-0.268,4.553-1.918c2.626-1.66,4.194-2.693,5.402-4.01c1.223-1.347,2.024-2.672,2.546-3.566
				c0.505-0.912,1.132-2.973,1.317-3.115c0.17-0.124,0.224-0.509,0.516-0.379c0.275,0.159,0.636,0.291,0.636,0
				c0-0.246,0.321-0.627,0.321-0.627s0.817-0.261,1.002-0.261c0.188,0,0.713-0.097,0.713-0.347c0-0.199,0.09-0.398,0.09-0.398
				s0.199-0.174,0.143-0.397c-0.046-0.247-0.046-0.27,0.129-0.329c0.199-0.055,0.494-0.08,0.494-0.08l0.46-0.23
				c0,0,0.308,0.057,0.658,0.18c0.329,0.131,1.037,0.367,1.037,0.367s0,0.83,0.034,1.084c0.052,0.275,0.096,0.543-0.034,0.824
				c-0.143,0.284-0.296,0.652-0.296,0.652s-0.27,1.619-0.412,1.877c-0.153,0.212-0.425,0.909-0.533,1.084
				c-0.084,0.186-0.324,1.056-0.363,1.214c-0.047,0.188-0.414,1.388-0.551,1.573c-0.157,0.191-0.322,0.273-0.395,0.51
				c-0.037,0.21,0,0.498,0,0.498s-0.318-0.062-0.371,0.131c-0.042,0.195,0,0.251,0,0.408c0,0.145-0.374,1.132-0.662,1.465
				c-0.277,0.326-0.41,0.396-0.41,0.553c0,0.131-0.387,0.919-0.526,1.04c-0.138,0.134-0.527,0.556-0.527,0.556l-0.228,0.404
				l-0.7,0.338v0.215c0,0-0.889,1.177-1.036,1.235c-0.141,0.038-1.111,0.577-1.111,0.577s-0.189,0.105-0.237,0.294
				c-0.059,0.187-0.389,0.413-0.389,0.413l-1.076,0.775l-0.849,0.73l-0.895,0.624l-2.055,1.37c0,0-1.112,0.789-1.92,0.882
				c-0.799,0.089-1.507,0.314-1.746,0.35c-0.238,0.072-0.572,0.337-0.816,0.452c-0.225,0.151-0.32-0.031-0.824,0.255
				c-0.523,0.254-1.029,0.449-1.924,0.449c-0.88,0-1.229,0-1.422,0.08c-0.173,0.118-0.938,0.118-1.217,0.164
				c-0.279,0.031-0.793,0.078-0.982,0.134c-0.181,0.017-0.561,0.017-0.744,0.017c-0.186,0-0.614-0.119-0.893-0.119
				c-0.299,0-0.749,0.119-0.9,0.178c-0.134,0.049-0.761,0-0.761,0s-0.285-0.209-0.445-0.178c-0.218,0.047-0.685,0.047-0.966,0.047
				c-0.246,0-0.4-0.242-0.59-0.242c-0.199,0-0.521,0.057-0.666,0.057c-0.141,0-2.067-0.41-2.58-0.521
				c-0.521-0.168-2.958-1.167-3.469-1.39c-0.52-0.23-4.794-2.25-6.681-4.113c-1.868-1.874-5.385-5.625-5.869-6.66
				c-0.48-1.086-1.593-3.303-1.681-3.855c-0.11-0.549-0.472-2.776-0.386-3.562c0.09-0.789,0.09-1.729,0.09-1.915
				c0-0.171,0.186-0.463,0.186-0.463l0.246-0.174l0.054-0.316l0.36-0.177h0.394c0,0,0.318,0.304,0.462,0.403
				c0.128,0.09,0.515,0.312,0.899,0.416c0.382,0.092,1.53,0.395,1.832,0.624c0.272,0.229,1.026,0.642,1.163,0.856
				c0.138,0.255,1.084,1.116,1.084,1.384C202.036,175.721,202.336,176.171,202.504,176.312z"/>
			<path fill="#C22821" d="M277.259,153.06c-6.854-4.563-16.065-2.752-16.065-2.752c-0.801-2.669-6.321-9.797-6.321-9.797
				c1.867-9.743-1.47-20.5-1.47-20.5l-0.218-0.382c-0.288-2.492-2.223-7.532-2.223-7.532s-0.896,0.148-1.521,0.227
				c-0.59,0.1-2.37,1.197-3.314,1.884c-0.935,0.679-2.478,2.69-2.907,3.755c-0.432,1.018-1.694,3.271-1.694,3.271
				c-0.896-4.37-3.613-7.806-3.902-8.231c-0.276-0.396-1.462-1.729-1.874-2.086c-0.4-0.371-0.833,0.086-1.172,0.25
				c-0.326,0.2-0.772,0.151-0.908,0.068c-0.136-0.1-0.498,0.173-0.699,0.399c-0.166,0.24-0.425,0.38-0.653,0.537
				c-0.228,0.196-0.29,0.649-0.29,0.649c-0.98,0.251-0.034,2.021-0.39,1.926c-0.386-0.086-1.606,1.475-1.891,2.282
				c-0.269,0.807-0.932,6.08-0.932,6.08s-0.609-1.85-1.242-2.704c-0.62-0.844-2.493-4.604-3.256-5.737
				c-0.748-1.084-0.748-4.248-5.245-3.508c-4.508,0.721-3.989,9.245-3.989,9.245c-1.03-1.582-7.155-7.796-7.91-7.796
				c-0.759,0-4.396,2.445-4.763,3.404c-0.372,0.981,0.996,6.465,0.996,6.465l-7.372-5.341c0,0-3.128-3.177-5.625-0.854
				c-2.528,2.294-1.016,7.416-0.133,10.594c0.867,3.165,2.991,7.169,2.991,7.169l0.505,3.185l0.231,0.183
				c-1.916,1.043-8.725,9.032-8.725,9.032c-0.657-0.09-5.353-0.269-5.789-0.132c-0.408,0.132-3.342,0.042-3.342,0.042
				c-4.313,0.198-8.658,2.553-9.517,3.07c-0.844,0.488-3.603,3.329-3.954,3.779c-0.332,0.443-3.18,5.425-3.225,10.912
				c-0.037,5.479,1.952,8.463,6.376,11.701c4.409,3.242,11.847,2.823,11.847,2.823c0.467,2.877,1.959,6.72,3.986,11.601
				c2.018,4.906,7.65,9.4,8.127,10.02c0.459,0.573,4.307,2.957,4.64,3.227c0.34,0.268,2.972,1.887,3.279,2.006
				c0.339,0.148,1.616,0.821,2.355,1.129c0.754,0.336,2.165,1.037,5.542,2.31c3.379,1.259,3.575,0.766,3.575,0.766
				c1.792,0.493,7.03,1.376,7.03,1.376c0.189,0.267-0.093,3.786-0.178,4.648c-0.1,0.873-0.146,3.979-0.24,4.809
				c-0.116,0.817,0.094,6.066,0,7.416c-0.116,1.304,0.072,4.637,0.094,5.223c0.047,0.597,0.146,2.192-0.094,2.931
				c-0.236,0.742,0.072,1.418,0.072,1.418c2.804,0.593,13.723-0.31,13.723-0.491c0-0.185-0.032-0.418-0.032-0.718
				c0-0.333,0.076-0.625,0.032-0.995c-0.032-0.354-0.193-1.595-0.082-1.997c0.082-0.404,0.126-1.019,0.082-1.462
				c-0.032-0.456-0.109-1.564-0.082-1.98c0.05-0.391,0.206-1.124,0.241-1.539c0.056-0.389,0-3.104,0.056-3.296
				c0.028-0.175,0.263-1.14,0.125-1.359c-0.125-0.226,0.031-0.732,0.031-0.732l-0.031-1.047c-0.216-3.243,0.614-11.833,0.614-11.833
				s0.222,0,0.505,0c0.286,0,1.499-0.209,1.882-0.41c0.386-0.176,2.384-0.589,6.487-1.998c4.132-1.435,6.956-3.299,7.316-3.624
				c0.378-0.318,1.107-0.587,1.107-0.587c2.938-1.336,7.491-6.571,7.491-6.571c7.224-6.998,8.483-18.876,8.59-19.019
				c0.091-0.109,0.898,0.193,1.362,0.429c0.479,0.227,0.844,0.161,0.844,0.161l0.726,0.108l0.009,0.171c0,0,0.961,0.418,1.238,0.496
				c0.286,0.097,0.608,0.204,0.765,0.204c0.112,0,0.231-0.217,0.464-0.204c0.227,0.062,0.296,0.385,0.296,0.385
				s5.474-0.081,10.646-5.338C285.418,169.003,284.119,157.634,277.259,153.06z M177.289,173.25c0,0-0.334,0.204-1.143,0.083
				c-0.807-0.13-3.912-0.924-4.225-1.009c-0.342-0.103-2.543-0.878-3.43-2.114c-0.897-1.269-2.41-3.345-2.03-5.939
				c0.368-2.598,1.415-5.145,2.354-6.186c0.979-1.076,2.289-2.377,4.348-3.472c2.057-1.081,4.097-1.779,4.833-1.987
				c0.758-0.181,1.386-0.273,1.829-0.387c0.446-0.097,0.859-0.33,0.859-0.33s1.28-0.127,1.414-0.04
				C182.1,151.869,177.261,157.993,177.289,173.25z M244.616,133.753c0.059-0.288,0.366-4.443,0.662-5.771
				c0.292-1.308,0.721-2.779,0.721-2.779s0.261-1.102,0.649,0.236c0.379,1.325,0.73,5.621,0.268,9.869c0,0-0.842-0.099-1.169-0.284
				c-0.324-0.187-1.131-0.594-1.131-0.594S244.564,134.021,244.616,133.753z M234.197,124.753c0,0,1,1.592,1,1.955
				c0,0.37,0.59,2.004,0.63,2.602c0.06,0.59,0.313,3.01,0.313,3.01s-1.462,0.634-2.535-0.125
				C233.605,132.194,234.005,126.101,234.197,124.753z M223.214,131.262l-2.532-0.071c0,0-0.381-2.697-0.471-3.433
				c-0.096-0.711-0.25-4.277-0.25-4.277C221.426,125.061,223.214,131.262,223.214,131.262z M207.566,122.295
				c0,0,2.975,3.696,3.347,4.087c0.355,0.41,0.559,1.201,0.702,1.376c0.131,0.179,0.373,0.924,0.562,1.055
				c0.162,0.146,0.689,0.868,0.807,1.187c0.084,0.309,0.367,0.841,0.084,1.002c-0.27,0.189-0.371,0.097-0.891,0.097
				c-0.523,0-0.523-0.097-0.909,0.093c-0.355,0.183-0.547,0.229-0.769,0.229c-0.26,0-0.393-0.158-0.393-0.158
				s-0.29-1.49-1.125-4.134C208.149,124.488,207.343,122.509,207.566,122.295z M201.752,133.067l-2.649,1.186
				c0,0-1.108-5.171-1.704-5.895C197.398,128.358,200.49,130.594,201.752,133.067z M251.328,185.81
				c-3.49,6.021-5.387,7.042-5.819,7.454c-0.426,0.422-1.126,1.057-1.126,1.057l-0.707,0.363c0,0-3.28,1.911-4.879,2.773
				c-1.61,0.876-4.398,2.834-9.825,3.665c-5.362,0.816-5.479,0.584-6.517,0.771c-1.029,0.188-6.146,0.427-10.983-0.857
				c-4.822-1.279-7.118-2.21-7.567-2.419c-0.415-0.248-6.087-3.934-6.847-4.583c-0.751-0.631-3.616-3.022-4.756-5.067
				c-1.117-2.059-2.947-5.384-4.211-11.684c-1.279-6.309-0.803-16.181,3.848-23.084c4.657-6.878,5.078-6.477,5.46-7.076
				c0.369-0.57,0.559-0.532,0.832-0.735c0.29-0.164,1.021-0.583,1.257-0.906c0.227-0.308,1.503-1.139,1.815-1.31
				c0.264-0.186,1.257-1.043,1.727-1.238c0.46-0.196,1.773-0.779,1.97-0.848c0.174-0.042,2.021-0.515,2.249-0.664
				c0.236-0.149,1.034-0.366,1.034-0.366s-2.626,1.878-3.054,2.382c-0.426,0.497-0.937,0.995-0.937,0.995s-0.137,0.425-0.137,0.559
				c0,0.127-0.142,0.586-0.142,0.586s-0.334-0.235-0.334,0.286c0,0.491,0.139,0.689,0.139,0.689s-0.7,0.48-0.43,0.769
				c0.291,0.271,0.625,0.352,0.903,0.467c0.274,0.145,0.618,0.388,0.881,0.708c0.29,0.322,1.477,1.008,2.455,0.821
				c0.981-0.174,2.287-0.657,3.987-2.092c1.696-1.482,2.249-1.695,2.669-1.744c0.435-0.036,0.711-0.09,0.899-0.363
				c0.188-0.261,4.605-2.381,5.969-2.728c1.353-0.366,9.984-3.984,20.601,1.282c0,0,4.281,2.132,7.098,6.517
				c0,0,2.984,3.387,5.303,13.79C254.153,163.979,254.872,179.773,251.328,185.81z M264.656,174.219
				c1.761-7.862-0.844-17.487-0.844-17.487s3.451-0.325,7.55,1.684c4.108,2.012,4.001,6.293,4.001,6.293
				C275.806,171.937,264.656,174.219,264.656,174.219z"/>
		</g>
	</g>
	<g>
		<g>
			<g>
				<path fill="#FFFFFF" d="M134.854,279.503v-0.94c0.803-0.474,1.379-0.831,1.716-1.058c0.185-2.117,0.268-6.057,0.268-11.854
					c0-2.484-0.036-4.573-0.083-6.256c-0.07-1.676-0.146-2.638-0.239-2.875c-0.053-0.133-0.14-0.212-0.227-0.281
					c-0.183-0.096-1.021-0.24-2.543-0.422v-1.463c1.742,0.06,3.75,0.097,6.008,0.097l8.559-0.097c3.106,0,5.478,0.402,7.082,1.223
					c1.628,0.808,2.89,2.042,3.846,3.719c0.955,1.682,1.415,3.721,1.415,6.108c0,3.062-0.724,5.698-2.23,7.938
					c-1.468,2.23-3.276,3.795-5.414,4.746c-2.108,0.949-4.399,1.414-6.812,1.414l-6.571-0.104
					C138.555,279.398,136.969,279.464,134.854,279.503z M141.916,277.312c0.982,0.192,1.971,0.264,3.004,0.264
					c2.559,0,4.535-0.372,5.891-1.139c1.363-0.776,2.451-2.018,3.295-3.771c0.83-1.736,1.259-3.905,1.259-6.413
					c0-3.354-0.829-5.88-2.515-7.649c-1.459-1.534-3.853-2.316-7.192-2.316c-0.714,0-1.953,0.051-3.741,0.162l-0.149,11.186
					C141.767,272.375,141.832,275.597,141.916,277.312z"/>
				<path fill="#FFFFFF" d="M163.299,279.503v-1.459c1.301-0.042,2.066-0.13,2.249-0.257c0.204-0.121,0.337-0.45,0.39-1.003
					c0.075-0.747,0.145-2.42,0.145-5.009c0-1.116,0-2.142-0.069-3.085l-0.033-2.11c0-0.708-0.076-1.147-0.204-1.298
					c-0.158-0.161-0.565-0.248-1.176-0.275l-1.301-0.062v-1.344c2.793-0.223,5.072-0.724,6.908-1.53l0.417,0.36
					c-0.168,2.284-0.242,5.624-0.242,9.996c0,2.545,0.023,4.045,0.119,4.563c0.048,0.382,0.161,0.624,0.337,0.741
					c0.14,0.103,0.896,0.209,2.271,0.312v1.459c-2.099-0.039-3.721-0.104-4.849-0.104
					C167.638,279.398,165.984,279.464,163.299,279.503z M168.138,253.519c0.751,0,1.382,0.274,1.896,0.836
					c0.533,0.529,0.805,1.202,0.805,1.968c0,0.758-0.271,1.429-0.805,1.959c-0.514,0.549-1.166,0.81-1.905,0.81
					c-0.749,0-1.384-0.261-1.927-0.81c-0.521-0.53-0.763-1.201-0.763-1.959c0-0.766,0.241-1.438,0.763-1.968
					C166.744,253.793,167.379,253.519,168.138,253.519z"/>
				<path fill="#FFFFFF" d="M178.397,279.873l-0.834-0.329c0.202-2.911,0.311-6.924,0.311-12.042c0-2.296-0.032-4.097-0.077-5.353
					l-0.098-4.626c0-0.701-0.057-1.185-0.16-1.399c-0.086-0.159-0.221-0.27-0.438-0.313c-0.136-0.034-0.825-0.103-2.015-0.157
					v-1.299c0.642,0,1.632-0.14,3.026-0.418c1.38-0.261,2.412-0.521,3.11-0.812l0.768-0.289c0.203,0,0.315,0.148,0.315,0.443
					l-0.034,1.884c-0.017,0.648-0.068,4.025-0.117,10.154l2.083-1.81c0.676-0.561,1.26-0.964,1.781-1.153
					c0.525-0.177,1.156-0.283,1.897-0.283c1.95,0,3.503,0.637,4.647,1.911c1.176,1.301,1.76,2.975,1.76,5.029
					c0,1.018-0.154,2.061-0.47,3.155c-0.346,1.081-0.729,1.952-1.209,2.648c-0.476,0.689-1.092,1.287-1.866,1.806
					c-0.954,0.646-1.774,1.229-2.437,1.747c-0.796,0.637-1.469,1.031-2.013,1.214c-0.539,0.192-1.209,0.292-1.981,0.292
					c-0.793,0-1.51-0.1-2.174-0.292c-0.673-0.205-1.439-0.57-2.26-1.118C179.633,278.685,179.111,279.162,178.397,279.873z
					 M182.154,267.21v8.216c0.429,0.658,0.94,1.167,1.538,1.499c0.583,0.319,1.264,0.49,2.036,0.49c1.229,0,2.207-0.507,2.964-1.509
					c0.751-1.04,1.146-2.589,1.146-4.664c0-1.952-0.395-3.438-1.163-4.437c-0.776-0.992-1.779-1.489-3.033-1.489
					c-0.673,0-1.294,0.153-1.882,0.47C183.194,266.122,182.646,266.58,182.154,267.21z"/>
				<path fill="#FFFFFF" d="M196.743,265.007v-1.359c1.842-0.184,3.544-0.541,5.118-1.039l1.71-0.641c0.188,0,0.3,0.143,0.3,0.414
					l-0.053,1.061c-0.161,2.75-0.247,5.395-0.247,7.934c0,1.645,0.086,2.742,0.242,3.288c0.166,0.553,0.461,0.976,0.876,1.276
					c0.419,0.295,0.988,0.432,1.703,0.432c0.834,0,1.544-0.236,2.162-0.689c0.641-0.466,1.01-0.98,1.159-1.529
					c0.147-0.578,0.206-2.17,0.206-4.798c0-2.121-0.018-3.34-0.096-3.71c-0.031-0.182-0.137-0.329-0.241-0.409
					c-0.185-0.078-0.964-0.171-2.389-0.229v-1.359c2.37-0.283,4.1-0.617,5.204-0.98l1.826-0.699c0.208,0,0.283,0.143,0.283,0.386
					l-0.003,0.487c-0.188,2.073-0.289,5.853-0.289,11.312c0,1.673,0.051,2.728,0.132,3.159c0.062,0.199,0.16,0.344,0.297,0.425
					c0.165,0.111,0.875,0.203,2.159,0.307v1.459c-1.317-0.039-2.638-0.104-3.926-0.104c-1.051,0-2.049,0.065-2.944,0.104
					l-0.141-0.316c0.031-0.593,0.087-1.538,0.127-2.827c-1.061,0.892-2.107,1.872-3.127,2.964c-0.799,0.375-1.642,0.55-2.418,0.55
					c-1.064,0-2.008-0.209-2.793-0.667c-0.783-0.432-1.359-1.001-1.741-1.723c-0.387-0.727-0.563-1.715-0.563-3.005l0.014-1.946
					c0.062-1.215,0.062-2.172,0.062-2.933c0-2.135-0.043-3.388-0.116-3.813c-0.055-0.277-0.169-0.47-0.357-0.58
					C198.701,265.094,197.99,265.007,196.743,265.007z"/>
				<path fill="#FFFFFF" d="M218.336,289.007l-0.426-1.413l0.174-0.103c0.466,0.041,0.781,0.061,0.94,0.061
					c0.486,0,0.96-0.236,1.378-0.699c0.537-0.617,0.896-1.737,1.044-3.332c0.157-1.587,0.24-4.666,0.24-9.293
					c0-2.145-0.014-4.426-0.083-6.862c-0.026-1.077-0.085-1.747-0.178-2.001c-0.077-0.128-0.189-0.206-0.306-0.265
					c-0.157-0.034-0.876-0.093-2.199-0.155v-1.344c2.243-0.258,4.085-0.584,5.518-1.016l1.665-0.515c0.16,0,0.236,0.085,0.236,0.261
					l-0.018,0.453c-0.145,2.762-0.219,6.036-0.233,9.836c0,3.904-0.019,6.238-0.08,7.029c-0.122,1.998-0.491,3.678-1.097,5.049
					c-0.587,1.379-1.413,2.449-2.463,3.207c-1.037,0.764-2.062,1.15-3.064,1.15C219.142,289.056,218.774,289.041,218.336,289.007z
					 M223.886,253.519c0.752,0,1.383,0.274,1.931,0.836c0.523,0.529,0.787,1.202,0.787,1.968c0,0.758-0.264,1.429-0.787,1.959
					c-0.548,0.549-1.179,0.81-1.934,0.81c-0.748,0-1.378-0.261-1.891-0.81c-0.546-0.53-0.796-1.201-0.796-1.959
					c0-0.766,0.25-1.421,0.796-1.968C222.505,253.793,223.135,253.519,223.886,253.519z"/>
				<path fill="#FFFFFF" d="M246.904,278.044v1.459l-1.324-0.039c-0.724-0.057-1.407-0.065-2.131-0.065
					c-1.102,0-2.1,0.065-3.07,0.104l-0.192-0.18l0.155-2.483l-3.616,2.81c-0.653,0.155-1.231,0.224-1.725,0.224
					c-1.226,0-2.187-0.37-2.858-1.122c-0.67-0.762-0.994-1.854-0.994-3.305c0-1.777,0.47-3.048,1.357-3.761
					c1.205-0.962,3.797-1.803,7.836-2.567c-0.025-1.414-0.248-2.43-0.697-3.068c-0.633-0.875-1.628-1.304-2.932-1.304
					c-0.318,0-0.641,0.03-0.969,0.12c-0.324,0.069-0.646,0.199-0.978,0.34l-0.794,1.942l-1.199-0.305l0.036-0.816l-0.025-0.791
					l-0.011-0.702c1.771-1.154,3.036-1.846,3.806-2.135c0.576-0.22,1.349-0.329,2.364-0.329c1.373,0,2.479,0.236,3.326,0.637
					c0.848,0.44,1.485,1.018,1.869,1.744c0.402,0.724,0.58,1.803,0.58,3.185c0,0.59-0.01,1.654-0.064,3.16
					c-0.038,1.545-0.08,2.811-0.08,3.732c0,1.509,0.057,2.428,0.135,2.737c0.044,0.185,0.147,0.349,0.336,0.466
					C245.237,277.834,245.842,277.94,246.904,278.044z M240.342,270.68c-2.039,0.456-3.348,0.947-3.979,1.496
					c-0.589,0.501-0.904,1.226-0.904,2.123c0,0.714,0.181,1.298,0.573,1.713c0.393,0.426,0.887,0.632,1.498,0.632
					c0.917,0,1.854-0.542,2.812-1.585V270.68z"/>
				<path fill="#FFFFFF" d="M248.809,279.503v-1.459c1.258-0.055,1.975-0.169,2.144-0.312c0.157-0.138,0.254-0.46,0.306-0.931
					c0.047-1.204,0.07-3.343,0.07-6.41c0-1.521-0.012-2.813-0.038-3.926c-0.02-0.669-0.075-1.049-0.126-1.176
					c-0.059-0.083-0.158-0.168-0.291-0.221c-0.114-0.034-0.807-0.078-2.064-0.124v-1.344c0.632,0,1.606-0.151,2.936-0.419
					c1.32-0.281,2.429-0.597,3.35-0.94l0.454-0.171c0.163,0,0.243,0.144,0.243,0.433l-0.026,0.143
					c-0.007,0.344-0.023,1.209-0.023,2.591l2.683-2.336c0.341-0.292,0.693-0.501,1.044-0.594c0.511-0.157,1.136-0.236,1.856-0.236
					c1.242,0,2.227,0.236,3.006,0.654c0.776,0.442,1.359,1.057,1.72,1.81c0.363,0.782,0.552,1.99,0.552,3.596
					c0,0.74-0.021,1.568-0.074,2.509c-0.049,1.944-0.072,3.62-0.072,5.044c0,0.789,0.07,1.356,0.182,1.674
					c0.089,0.22,0.229,0.354,0.388,0.402c0.165,0.09,0.796,0.182,1.901,0.285v1.459l-2.146-0.039l-1.36-0.065l-3.579,0.104
					l-0.196-0.234c0.296-2.278,0.452-4.604,0.452-6.99c0-3.026-0.178-4.903-0.521-5.6c-0.472-0.899-1.316-1.362-2.539-1.362
					c-0.783,0-1.479,0.206-2.031,0.618c-0.588,0.418-0.967,0.85-1.137,1.331c-0.091,0.178-0.126,0.789-0.126,1.804
					c0,4.332,0.017,6.818,0.05,7.448c0.032,0.62,0.132,1.005,0.296,1.148c0.214,0.183,1.021,0.323,2.386,0.378v1.459
					c-2.028-0.039-3.727-0.104-5.135-0.104C252.52,279.398,251.006,279.464,248.809,279.503z"/>
				<path fill="#FFFFFF" d="M283.754,262.841v-3.092c0-1.918-0.025-3.022-0.121-3.33c-0.045-0.221-0.168-0.371-0.313-0.481
					c-0.171-0.083-0.956-0.127-2.332-0.161v-1.325c2.753-0.301,5.065-0.896,6.917-1.729l0.452,0.446
					c-0.104,1.918-0.166,3.746-0.184,5.459l-0.127,14.079c0,2.383,0.042,3.811,0.134,4.332c0.043,0.317,0.166,0.537,0.334,0.655
					c0.185,0.14,0.891,0.246,2.123,0.35v1.459c-1.406-0.039-2.797-0.104-4.156-0.104c-0.956,0-1.876,0.065-2.727,0.104l-0.289-0.22
					c0.123-1.208,0.254-2.19,0.289-2.924c-0.776,0.597-2.03,1.667-3.746,3.144c-0.661,0.246-1.28,0.37-1.854,0.37
					c-1.918,0-3.525-0.741-4.791-2.217c-1.286-1.479-1.918-3.432-1.918-5.881c0-1.213,0.13-2.277,0.394-3.247
					c0.238-0.971,0.564-1.723,0.91-2.2c0.344-0.48,1.068-1.122,2.127-1.884c1.441-1.039,2.485-1.694,3.17-1.96
					c0.653-0.271,1.384-0.414,2.167-0.414c0.567,0,1.155,0.065,1.727,0.175C282.535,262.382,283.148,262.585,283.754,262.841z
					 M283.754,266.658c-0.543-0.801-1.144-1.407-1.842-1.792c-0.685-0.391-1.453-0.601-2.297-0.601c-1.17,0-2.107,0.443-2.708,1.339
					c-0.648,0.852-0.972,2.326-0.972,4.424c0,2.12,0.381,3.715,1.17,4.755c0.77,1.058,1.771,1.589,2.971,1.589
					c0.833,0,1.586-0.242,2.279-0.732c0.711-0.488,1.109-0.938,1.232-1.341c0.131-0.421,0.166-1.958,0.166-4.643V266.658z"/>
				<path fill="#FFFFFF" d="M292.951,270.987c0-2.84,0.65-4.96,1.928-6.388c1.555-1.676,3.778-2.529,6.67-2.529
					c2.926,0,5.038,0.68,6.38,2.045c1.328,1.349,1.989,3.482,1.989,6.376c0,3.002-0.747,5.319-2.299,6.945
					c-1.542,1.626-3.675,2.437-6.42,2.437c-2.684,0-4.726-0.755-6.15-2.279C293.65,276.084,292.951,273.861,292.951,270.987z
					 M297.758,269.761c0,3.173,0.395,5.428,1.184,6.791c0.601,1.031,1.541,1.546,2.781,1.546c1.089,0,1.924-0.441,2.508-1.341
					c0.605-0.851,0.895-2.458,0.895-4.779c0-3.216-0.35-5.426-1.095-6.661c-0.586-0.983-1.511-1.462-2.783-1.462
					c-1.077,0-1.948,0.438-2.549,1.352C298.053,266.081,297.758,267.598,297.758,269.761z"/>
			</g>
			<g>
				<path fill="#FFFFFF" d="M132.771,301.753v-1.381c1.816-0.171,3.537-0.515,5.119-1.025l1.696-0.629
					c0.198,0,0.282,0.154,0.282,0.403l-0.043,1.067c-0.158,2.744-0.239,5.376-0.239,7.949c0,1.645,0.081,2.743,0.239,3.277
					c0.172,0.536,0.451,0.951,0.883,1.25c0.422,0.298,1.004,0.453,1.716,0.453c0.806,0,1.53-0.252,2.179-0.686
					c0.604-0.481,0.984-0.986,1.141-1.552c0.139-0.54,0.2-2.152,0.2-4.792c0-2.113-0.017-3.345-0.096-3.706
					c-0.039-0.191-0.137-0.325-0.243-0.397c-0.179-0.099-0.981-0.171-2.375-0.232v-1.381c2.357-0.264,4.087-0.58,5.192-0.968
					l1.839-0.687c0.186,0,0.312,0.131,0.312,0.365l-0.053,0.49c-0.188,2.065-0.272,5.848-0.272,11.313
					c0,1.683,0.05,2.743,0.153,3.165c0.045,0.205,0.133,0.36,0.262,0.433c0.183,0.099,0.9,0.204,2.157,0.3v1.479
					c-1.317-0.088-2.625-0.111-3.922-0.111c-1.062,0-2.048,0.023-2.924,0.111l-0.166-0.342c0.054-0.597,0.091-1.53,0.135-2.82
					c-1.066,0.893-2.123,1.891-3.119,2.966c-0.826,0.36-1.636,0.556-2.439,0.556c-1.057,0-1.999-0.227-2.776-0.663
					c-0.771-0.445-1.376-1.028-1.731-1.727c-0.409-0.71-0.595-1.704-0.595-2.995l0.043-1.959c0.035-1.213,0.072-2.176,0.072-2.935
					c0-2.121-0.057-3.394-0.146-3.802c-0.055-0.286-0.166-0.484-0.355-0.584C134.715,301.827,134.014,301.769,132.771,301.753z"/>
				<path fill="#FFFFFF" d="M154.407,316.263v-1.479c1.256-0.058,1.958-0.164,2.13-0.308c0.148-0.133,0.262-0.449,0.275-0.93
					c0.09-1.211,0.113-3.355,0.113-6.415c0-1.508-0.014-2.815-0.055-3.908c-0.029-0.673-0.072-1.079-0.123-1.19
					c-0.081-0.116-0.155-0.157-0.295-0.219c-0.127-0.046-0.801-0.083-2.046-0.121v-1.358c0.632,0,1.599-0.134,2.91-0.408
					c1.324-0.291,2.468-0.58,3.338-0.948l0.483-0.168c0.158,0,0.238,0.149,0.238,0.397l-0.021,0.18
					c-0.024,0.326-0.032,1.195-0.032,2.598l2.693-2.35c0.324-0.289,0.671-0.492,1.035-0.592c0.495-0.172,1.132-0.233,1.859-0.233
					c1.226,0,2.23,0.233,3.01,0.673c0.775,0.43,1.345,1.041,1.715,1.81c0.355,0.765,0.553,1.973,0.553,3.599
					c0,0.714-0.048,1.554-0.051,2.495c-0.08,1.952-0.1,3.624-0.1,5.034c0,0.799,0.047,1.369,0.171,1.656
					c0.095,0.239,0.233,0.354,0.402,0.461c0.164,0.045,0.796,0.15,1.898,0.246v1.479l-2.136-0.088l-1.369-0.023l-3.582,0.111
					l-0.195-0.236c0.308-2.287,0.471-4.611,0.471-6.996c0-3.043-0.191-4.903-0.543-5.607c-0.449-0.916-1.318-1.365-2.543-1.365
					c-0.778,0-1.473,0.217-2.056,0.614c-0.566,0.423-0.934,0.862-1.114,1.318c-0.087,0.198-0.119,0.82-0.119,1.841
					c0,4.308,0.008,6.8,0.053,7.414c0.034,0.634,0.15,1.033,0.299,1.167c0.219,0.171,1,0.314,2.363,0.372v1.479
					c-1.996-0.088-3.74-0.111-5.114-0.111C158.097,316.151,156.593,316.175,154.407,316.263z"/>
				<path fill="#FFFFFF" d="M181.544,316.263v-1.479l1.033-0.058c0.83-0.057,1.358-0.212,1.572-0.448
					c0.211-0.279,0.354-1.133,0.356-2.625c0.075-2.942,0.117-6.154,0.117-9.596c0-1.815,0-3.914-0.014-6.242
					c-0.045-1.38-0.105-2.262-0.249-2.585c-0.068-0.137-0.198-0.27-0.384-0.366c-0.195-0.081-1.02-0.202-2.485-0.323v-1.427
					c1.397,0.007,2.746,0.024,4.11,0.024c1.557,0,3.057-0.018,4.49-0.024c0.636,1.511,1.279,2.995,1.978,4.491
					c0.453,1.064,2.56,5.583,6.31,13.528c3.937-8.166,6.698-14.18,8.261-18.02c1.386,0.045,2.724,0.09,3.969,0.09
					c1.472,0,2.894-0.045,4.284-0.09v1.427c-1.562,0.106-2.417,0.252-2.623,0.426c-0.189,0.189-0.322,0.749-0.377,1.675
					c-0.065,1.514-0.082,4.383-0.082,8.617c0,2.107,0,4.357,0.028,6.723c0.041,2.367,0.108,3.721,0.218,4.046
					c0.095,0.174,0.213,0.316,0.368,0.403c0.151,0.118,0.96,0.222,2.468,0.354v1.479c-1.895-0.088-3.562-0.111-5.031-0.111
					c-1.489,0-3.504,0.023-6.043,0.111v-1.479l1.013-0.036c0.796-0.021,1.282-0.138,1.469-0.336c0.229-0.211,0.359-0.732,0.411-1.59
					c0.062-0.844,0.082-2.841,0.082-5.964v-10.834c-1.791,3.689-4.065,8.56-6.812,14.562c-1.142,2.46-2.05,4.47-2.671,6.036h-1.102
					c-0.863-2.073-2.04-4.671-3.488-7.808l-6.039-12.79v2.427c0,6.744,0.04,11.399,0.116,13.938c0.021,1.055,0.16,1.688,0.39,1.927
					c0.242,0.249,1.1,0.41,2.59,0.468v1.479c-1.18-0.088-2.361-0.111-3.549-0.111C184.481,316.151,182.917,316.175,181.544,316.263z
					"/>
				<path fill="#FFFFFF" d="M232.758,314.784v1.479l-1.364-0.063c-0.685-0.037-1.413-0.048-2.105-0.048
					c-1.084,0-2.127,0.023-3.098,0.111l-0.174-0.196l0.161-2.501l-3.638,2.806c-0.624,0.171-1.214,0.251-1.694,0.251
					c-1.242,0-2.182-0.391-2.852-1.126c-0.666-0.755-1.013-1.853-1.013-3.294c0-1.806,0.453-3.051,1.388-3.775
					c1.142-0.957,3.771-1.805,7.809-2.556c-0.016-1.421-0.268-2.448-0.717-3.091c-0.627-0.863-1.596-1.289-2.921-1.289
					c-0.315,0-0.624,0.028-0.963,0.109c-0.312,0.072-0.658,0.193-0.995,0.357l-0.771,1.922l-1.212-0.309l0.037-0.797l-0.037-0.789
					v-0.713c1.769-1.136,3.061-1.844,3.822-2.129c0.577-0.227,1.358-0.333,2.354-0.333c1.375,0,2.464,0.214,3.342,0.637
					c0.844,0.438,1.469,1.021,1.863,1.741c0.395,0.729,0.594,1.8,0.594,3.193c0,0.603-0.027,1.646-0.089,3.135
					c-0.049,1.586-0.056,2.824-0.056,3.766c0,1.513,0.034,2.412,0.11,2.745c0.034,0.174,0.169,0.325,0.35,0.449
					C231.062,314.568,231.687,314.688,232.758,314.784z M226.178,307.429c-2.041,0.456-3.373,0.943-3.983,1.484
					c-0.617,0.543-0.907,1.226-0.907,2.131c0,0.731,0.193,1.292,0.592,1.721c0.377,0.407,0.882,0.623,1.485,0.623
					c0.91,0,1.86-0.545,2.813-1.595V307.429z"/>
				<path fill="#FFFFFF" d="M234.312,316.263v-1.479c1.245-0.058,1.952-0.164,2.112-0.308c0.173-0.133,0.263-0.449,0.302-0.93
					c0.06-1.211,0.101-3.355,0.101-6.415c0-1.508-0.017-2.815-0.041-3.908c-0.045-0.673-0.072-1.079-0.151-1.19
					c-0.055-0.116-0.146-0.157-0.28-0.219c-0.119-0.046-0.8-0.083-2.042-0.121v-1.358c0.618,0,1.596-0.134,2.904-0.408
					c1.326-0.291,2.441-0.58,3.337-0.948l0.474-0.168c0.169,0,0.249,0.149,0.249,0.397v0.18c-0.033,0.326-0.062,1.195-0.062,2.598
					l2.693-2.35c0.324-0.289,0.667-0.492,1.032-0.592c0.523-0.172,1.145-0.233,1.866-0.233c1.242,0,2.233,0.233,3,0.673
					c0.78,0.43,1.358,1.041,1.731,1.81c0.363,0.765,0.54,1.973,0.54,3.599c0,0.714-0.008,1.554-0.069,2.495
					c-0.052,1.952-0.074,3.624-0.074,5.034c0,0.799,0.059,1.369,0.188,1.656c0.093,0.239,0.22,0.354,0.375,0.461
					c0.182,0.045,0.822,0.15,1.903,0.246v1.479l-2.127-0.088l-1.371-0.023l-3.591,0.111l-0.189-0.236
					c0.312-2.287,0.46-4.611,0.46-6.996c0-3.043-0.179-4.903-0.542-5.607c-0.452-0.916-1.303-1.365-2.523-1.365
					c-0.781,0-1.462,0.217-2.058,0.614c-0.571,0.423-0.937,0.862-1.108,1.318c-0.074,0.198-0.136,0.82-0.136,1.841
					c0,4.308,0.028,6.8,0.062,7.414c0.036,0.634,0.113,1.033,0.292,1.167c0.225,0.171,1,0.314,2.376,0.372v1.479
					c-2.018-0.088-3.73-0.111-5.121-0.111C238.003,316.151,236.487,316.175,234.312,316.263z M238.809,296.365h-1.266
					c0.752-2.777,2.139-4.181,4.17-4.181c0.439,0,0.907,0.062,1.404,0.189c0.486,0.12,1.311,0.409,2.479,0.851
					c0.929,0.363,1.583,0.539,2.012,0.539c0.494,0,0.882-0.114,1.181-0.334c0.284-0.205,0.583-0.675,0.885-1.392h1.149
					c-0.702,2.779-2.042,4.179-4.039,4.179c-0.794,0-1.849-0.284-3.208-0.836c-1.129-0.502-1.983-0.739-2.55-0.739
					c-0.541,0-0.974,0.119-1.317,0.377C239.371,295.261,239.063,295.707,238.809,296.365z"/>
				<path fill="#FFFFFF" d="M271.838,314.784v1.479l-1.357-0.063c-0.709-0.037-1.396-0.048-2.101-0.048
					c-1.098,0-2.132,0.023-3.103,0.111l-0.171-0.196l0.137-2.501l-3.613,2.806c-0.643,0.171-1.226,0.251-1.713,0.251
					c-1.23,0-2.168-0.391-2.855-1.126c-0.649-0.755-1.005-1.853-1.005-3.294c0-1.806,0.464-3.051,1.373-3.775
					c1.201-0.957,3.785-1.805,7.813-2.556c0-1.421-0.241-2.448-0.689-3.091c-0.643-0.863-1.603-1.289-2.933-1.289
					c-0.335,0-0.634,0.028-0.959,0.109c-0.328,0.072-0.648,0.193-0.992,0.357l-0.777,1.922l-1.227-0.309l0.039-0.797l-0.029-0.789
					l-0.01-0.713c1.788-1.136,3.051-1.844,3.838-2.129c0.562-0.227,1.337-0.333,2.336-0.333c1.369,0,2.495,0.214,3.336,0.637
					c0.857,0.438,1.494,1.021,1.877,1.741c0.408,0.729,0.594,1.8,0.594,3.193c0,0.603-0.014,1.646-0.065,3.135
					c-0.043,1.586-0.075,2.824-0.075,3.766c0,1.513,0.032,2.412,0.127,2.745c0.029,0.174,0.139,0.325,0.326,0.449
					C270.15,314.568,270.756,314.688,271.838,314.784z M265.243,307.429c-2.022,0.456-3.349,0.943-3.957,1.484
					c-0.624,0.543-0.939,1.226-0.939,2.131c0,0.731,0.22,1.292,0.599,1.721c0.399,0.407,0.895,0.623,1.501,0.623
					c0.903,0,1.84-0.545,2.797-1.595V307.429z"/>
				<path fill="#FFFFFF" d="M273.377,316.263v-1.479c1.251-0.058,1.986-0.164,2.12-0.308c0.163-0.133,0.251-0.449,0.309-0.93
					c0.069-1.211,0.079-3.355,0.079-6.415c0-1.508-0.01-2.815-0.032-3.908c-0.026-0.673-0.069-1.079-0.138-1.19
					c-0.055-0.116-0.159-0.157-0.276-0.219c-0.139-0.046-0.815-0.083-2.062-0.121v-1.358c0.613,0,1.609-0.134,2.92-0.408
					c1.326-0.291,2.431-0.58,3.342-0.948l0.461-0.168c0.168,0,0.245,0.149,0.245,0.397l-0.009,0.18
					c-0.038,0.326-0.041,1.195-0.041,2.598l2.687-2.35c0.338-0.289,0.68-0.492,1.05-0.592c0.497-0.172,1.111-0.233,1.85-0.233
					c1.236,0,2.228,0.233,2.999,0.673c0.785,0.43,1.355,1.041,1.72,1.81c0.377,0.765,0.549,1.973,0.549,3.599
					c0,0.714-0.014,1.554-0.044,2.495c-0.062,1.952-0.104,3.624-0.104,5.034c0,0.799,0.069,1.369,0.186,1.656
					c0.102,0.239,0.224,0.354,0.392,0.461c0.179,0.045,0.797,0.15,1.887,0.246v1.479l-2.12-0.088l-1.383-0.023l-3.559,0.111
					l-0.188-0.236c0.288-2.287,0.438-4.611,0.438-6.996c0-3.043-0.185-4.903-0.542-5.607c-0.45-0.916-1.293-1.365-2.522-1.365
					c-0.785,0-1.462,0.217-2.047,0.614c-0.585,0.423-0.938,0.862-1.124,1.318c-0.081,0.198-0.122,0.82-0.122,1.841
					c0,4.308,0.01,6.8,0.05,7.414c0.036,0.634,0.142,1.033,0.3,1.167c0.221,0.171,1.018,0.314,2.371,0.372v1.479
					c-2.028-0.088-3.729-0.111-5.141-0.111C277.055,316.151,275.556,316.175,273.377,316.263z"/>
				<path fill="#FFFFFF" d="M310.881,314.784v1.479l-1.326-0.063c-0.682-0.037-1.404-0.048-2.113-0.048
					c-1.089,0-2.124,0.023-3.096,0.111l-0.161-0.196l0.151-2.501l-3.647,2.806c-0.629,0.171-1.208,0.251-1.698,0.251
					c-1.223,0-2.18-0.391-2.848-1.126c-0.668-0.755-0.997-1.853-0.997-3.294c0-1.806,0.445-3.051,1.354-3.775
					c1.18-0.957,3.802-1.805,7.837-2.556c-0.024-1.421-0.268-2.448-0.718-3.091c-0.619-0.863-1.608-1.289-2.93-1.289
					c-0.321,0-0.629,0.028-0.954,0.109c-0.337,0.072-0.67,0.193-0.985,0.357l-0.782,1.922l-1.224-0.309l0.028-0.797v-0.789
					l-0.028-0.713c1.784-1.136,3.046-1.844,3.824-2.129c0.566-0.227,1.346-0.333,2.365-0.333c1.364,0,2.466,0.214,3.339,0.637
					c0.83,0.438,1.462,1.021,1.856,1.741c0.394,0.729,0.586,1.8,0.586,3.193c0,0.603-0.015,1.646-0.066,3.135
					c-0.046,1.586-0.077,2.824-0.077,3.766c0,1.513,0.039,2.412,0.129,2.745c0.043,0.174,0.174,0.325,0.318,0.449
					C309.216,314.568,309.84,314.688,310.881,314.784z M304.336,307.429c-2.056,0.456-3.387,0.943-3.984,1.484
					c-0.609,0.543-0.92,1.226-0.92,2.131c0,0.731,0.192,1.292,0.594,1.721c0.374,0.407,0.886,0.623,1.494,0.623
					c0.911,0,1.848-0.545,2.816-1.595V307.429z"/>
			</g>
			<g>
				<path fill="#FFFFFF" stroke="#FFFFFF" stroke-width="0.3912" d="M133.224,346.433v-0.51c0.498,0,0.797-0.023,0.886-0.117
					c0.05-0.026,0.11-0.174,0.11-0.416c0.044-0.813,0.063-1.735,0.063-2.764c0-0.793,0-1.609-0.02-2.498
					c-0.031-0.883-0.044-1.396-0.104-1.531c-0.028-0.082-0.067-0.119-0.11-0.122c-0.057-0.065-0.334-0.084-0.825-0.115v-0.507
					c0.692,0.035,1.294,0.042,1.794,0.042c0.719,0,1.498-0.007,2.287-0.007c0.514-0.035,0.961-0.035,1.314-0.035
					c0.269,0,0.5,0.007,0.748,0.035l0.047,0.118c-0.085,0.509-0.146,1.108-0.146,1.806h-0.519l-0.04-0.635
					c-0.006-0.224-0.029-0.36-0.084-0.404c-0.03-0.024-0.179-0.086-0.428-0.131c-0.251-0.045-0.606-0.071-1.075-0.071
					c-0.333,0-0.688,0-1.084,0.044c-0.048,0.674-0.065,1.167-0.065,1.461l0.018,1.291l-0.018,0.295c0.232,0,0.543,0,0.865,0
					c0.618,0,0.972,0,1.074-0.04c0.071-0.015,0.112-0.049,0.158-0.1c0.047-0.086,0.073-0.337,0.105-0.763h0.504
					c-0.013,0.347-0.013,0.713-0.013,1.07c0,0.336,0,0.872,0.013,1.603h-0.504c-0.041-0.507-0.08-0.829-0.134-0.917
					c-0.018-0.05-0.059-0.064-0.151-0.104c-0.174-0.041-0.549-0.065-1.129-0.065l-0.789,0.01l0.018,2.354
					c0.023,0.584,0.069,0.892,0.093,0.984c0.023,0.044,0.075,0.086,0.122,0.112c0.084,0.074,0.419,0.094,1.01,0.117v0.51
					c-0.645-0.012-1.242-0.05-1.795-0.05C134.943,346.383,134.22,346.421,133.224,346.433z"/>
				<path fill="#FFFFFF" stroke="#FFFFFF" stroke-width="0.3912" d="M152.174,338.359v-0.507c0.814,0.035,1.514,0.042,2.104,0.042
					c0.417,0,0.96-0.007,1.666-0.042v0.507c-0.364,0-0.614,0.031-0.769,0.101c-0.051,0.015-0.092,0.055-0.134,0.103
					c-0.051,0.052-0.062,0.158-0.075,0.284c-0.031,0.242-0.055,0.886-0.073,1.961c-0.008,0.752-0.008,1.537-0.008,2.316
					c0,0.62,0.065,1.104,0.214,1.396c0.139,0.302,0.357,0.516,0.611,0.68c0.408,0.208,0.826,0.304,1.283,0.304
					c0.65,0,1.126-0.096,1.477-0.322c0.334-0.22,0.555-0.51,0.672-0.895c0.116-0.384,0.168-1.209,0.168-2.479v-2.287
					c-0.018-0.484-0.037-0.8-0.07-0.906c-0.039-0.052-0.073-0.1-0.135-0.137c-0.086-0.034-0.385-0.087-0.861-0.118v-0.507
					c0.497,0.035,0.98,0.042,1.41,0.042c0.36,0,0.814-0.007,1.349-0.042v0.507c-0.371,0-0.595,0.031-0.719,0.118
					c-0.089,0.093-0.144,0.339-0.156,0.71c-0.044,0.916-0.079,1.959-0.097,3.102c0,0.735,0,1.226-0.027,1.448
					c-0.044,0.572-0.162,1.041-0.377,1.444c-0.227,0.402-0.602,0.718-1.115,0.978c-0.512,0.273-1.143,0.385-1.889,0.385
					c-0.824,0-1.475-0.111-2.018-0.36c-0.508-0.261-0.89-0.552-1.121-0.922c-0.203-0.368-0.316-0.927-0.316-1.645l0.024-2.749
					c0-0.227-0.014-0.789-0.024-1.681c-0.006-0.288-0.037-0.49-0.096-0.591c-0.019-0.041-0.084-0.119-0.144-0.122
					C152.883,338.443,152.618,338.391,152.174,338.359z"/>
				<path fill="#FFFFFF" stroke="#FFFFFF" stroke-width="0.3912" d="M174.007,346.433v-0.51c0.465,0,0.735-0.023,0.828-0.078
					c0.052-0.045,0.11-0.107,0.124-0.173c0.044-0.088,0.072-0.429,0.086-1.053c0.023-0.965,0.023-1.694,0.023-2.183v-2.625
					c0-0.68-0.023-1.063-0.065-1.17c-0.017-0.071-0.058-0.127-0.116-0.164c-0.074-0.034-0.376-0.087-0.88-0.118v-0.507
					c0.603,0.035,1.062,0.042,1.347,0.042c0.34,0,0.711-0.007,1.13-0.042c0.903,1.211,1.94,2.525,3.095,3.908
					c0.765,0.94,1.426,1.719,1.981,2.341v-2.44c0-0.93-0.007-1.712-0.032-2.392c-0.021-0.389-0.036-0.628-0.098-0.714
					c0-0.078-0.051-0.081-0.108-0.112c-0.086-0.034-0.372-0.053-0.845-0.084v-0.507c0.419,0.035,0.857,0.042,1.276,0.042
					c0.596,0,1.126-0.007,1.589-0.042v0.507c-0.453,0.031-0.717,0.05-0.8,0.101c-0.067,0.015-0.085,0.055-0.115,0.079
					c-0.045,0.031-0.062,0.075-0.078,0.116c-0.043,0.117-0.043,0.446-0.043,0.986l-0.007,2.422l-0.027,2.473
					c0,0.67,0.027,1.312,0.034,1.988l-0.073,0.088c-0.479-0.105-0.803-0.153-1.018-0.18c-1.013-1.148-2.252-2.602-3.676-4.369
					c-0.733-0.879-1.316-1.641-1.752-2.252v2.393c0,0.645,0,1.413,0.023,2.35c0,0.652,0.027,1.047,0.064,1.161
					c0.018,0.022,0.062,0.064,0.101,0.091c0.065,0.043,0.358,0.094,0.843,0.117v0.51c-0.634-0.012-1.091-0.05-1.379-0.05
					C175.229,346.383,174.742,346.421,174.007,346.433z"/>
				<path fill="#FFFFFF" stroke="#FFFFFF" stroke-width="0.3912" d="M196.835,346.433v-0.327c0.274-0.151,0.476-0.3,0.605-0.368
					c0.052-0.701,0.052-2.059,0.052-4.014c0-0.827,0-1.548,0-2.113c-0.025-0.57-0.052-0.913-0.081-0.996
					c-0.026-0.044-0.039-0.059-0.095-0.1c-0.045-0.037-0.337-0.071-0.855-0.124v-0.538c0.597,0.035,1.287,0.042,2.042,0.042
					l2.927-0.042c1.05,0,1.863,0.147,2.427,0.429c0.556,0.281,0.975,0.672,1.295,1.255c0.331,0.57,0.49,1.271,0.49,2.085
					c0,1.043-0.258,1.952-0.753,2.714c-0.504,0.759-1.129,1.297-1.853,1.609c-0.721,0.326-1.499,0.488-2.345,0.488l-2.23-0.05
					C198.107,346.383,197.572,346.421,196.835,346.433z M199.261,345.653c0.326,0.084,0.663,0.126,0.994,0.126
					c0.897,0,1.557-0.142,2.015-0.405c0.458-0.251,0.843-0.684,1.119-1.272c0.291-0.602,0.43-1.318,0.43-2.197
					c0-1.111-0.277-1.986-0.84-2.595c-0.506-0.537-1.34-0.795-2.465-0.795c-0.227,0-0.651,0.041-1.253,0.082l-0.062,3.804
					C199.199,343.995,199.221,345.094,199.261,345.653z"/>
				<path fill="#FFFFFF" stroke="#FFFFFF" stroke-width="0.3912" d="M218.791,345.88c0.381-0.031,0.61-0.08,0.689-0.143
					c0.051-0.02,0.158-0.178,0.269-0.444c0.241-0.53,0.562-1.257,0.93-2.215l2.095-5.302h0.879l2.67,6.567
					c0.337,0.818,0.569,1.288,0.631,1.371c0.104,0.064,0.345,0.134,0.759,0.165v0.553c-0.628-0.012-1.255-0.05-1.818-0.05
					c-0.68,0-1.327,0.038-1.942,0.05v-0.553c0.462-0.031,0.734-0.074,0.803-0.101c0.08-0.042,0.121-0.086,0.121-0.179
					c0-0.065-0.1-0.316-0.271-0.764l-0.367-1.034c-0.494-0.006-1.043-0.006-1.654-0.006c-0.515,0-1.005,0-1.418,0.006l-0.264,0.684
					c-0.086,0.204-0.157,0.476-0.267,0.837c-0.022,0.109-0.03,0.168-0.03,0.236c0,0.087,0.03,0.158,0.123,0.178
					c0.063,0.042,0.335,0.068,0.83,0.143v0.553c-0.393-0.012-0.878-0.05-1.452-0.05c-0.556,0-0.981,0.038-1.313,0.05V345.88z
					 M222.672,339.949l-1.232,3.129c0.356,0.046,0.747,0.046,1.187,0.046c0.478,0,0.914,0,1.325-0.046L222.672,339.949z"/>
				<path fill="#FFFFFF" stroke="#FFFFFF" stroke-width="0.3912" d="M248.398,345.094l0.156,0.149
					c-0.103,0.193-0.205,0.403-0.279,0.605c-0.448,0.257-0.91,0.422-1.322,0.534c-0.417,0.124-0.908,0.161-1.469,0.161
					c-1.036,0-1.908-0.192-2.617-0.553c-0.715-0.376-1.274-0.897-1.653-1.598c-0.374-0.68-0.571-1.455-0.571-2.33
					c0-1.256,0.439-2.3,1.32-3.11c0.833-0.802,2.059-1.211,3.591-1.211c0.491,0,1.005,0.034,1.513,0.146
					c0.49,0.078,0.985,0.232,1.488,0.422l0.035,0.092c-0.078,0.213-0.116,0.445-0.154,0.645c-0.068,0.344-0.107,0.797-0.116,1.332
					h-0.492c-0.04-0.652-0.081-1.006-0.092-1.09c-0.029-0.043-0.127-0.174-0.333-0.335c-0.19-0.137-0.445-0.256-0.775-0.339
					c-0.324-0.1-0.686-0.14-1.073-0.14c-0.951,0-1.704,0.273-2.259,0.897c-0.543,0.602-0.837,1.436-0.837,2.51
					c0,1.158,0.338,2.113,1.021,2.827c0.596,0.646,1.461,1.006,2.537,1.006c0.42,0,0.817-0.068,1.174-0.131
					C247.557,345.468,247.953,345.323,248.398,345.094z"/>
				<path fill="#FFFFFF" stroke="#FFFFFF" stroke-width="0.3912" d="M261.658,346.433v-0.51c0.534-0.016,0.85-0.074,0.908-0.144
					c0.072-0.052,0.124-0.195,0.137-0.456c0.029-0.549,0.042-1.558,0.042-3.034c0-0.565,0-1.375-0.013-2.464
					c-0.015-0.715-0.029-1.128-0.049-1.184c-0.031-0.079-0.059-0.127-0.117-0.167c-0.09-0.046-0.397-0.084-0.908-0.115v-0.507
					c0.83,0.035,1.447,0.042,1.86,0.042c0.747,0,1.423-0.007,2.017-0.042v0.507c-0.533,0.031-0.852,0.069-0.908,0.118
					c-0.068,0.078-0.111,0.178-0.135,0.385c-0.035,0.407-0.035,1.213-0.035,2.394c0,1.593,0,2.712,0,3.339
					c0.021,0.611,0.059,1.006,0.125,1.123c0.017,0.062,0.071,0.082,0.143,0.127c0.072,0.035,0.328,0.055,0.811,0.078v0.51
					l-0.714-0.012c-0.426-0.017-0.823-0.038-1.143-0.038L261.658,346.433z"/>
				<path fill="#FFFFFF" stroke="#FFFFFF" stroke-width="0.3912" d="M283.266,346.544c-1.465,0-2.582-0.385-3.355-1.146
					c-0.759-0.778-1.146-1.824-1.146-3.177c0-0.965,0.165-1.764,0.574-2.423c0.352-0.666,0.874-1.184,1.527-1.517
					c0.668-0.362,1.525-0.539,2.581-0.539c0.997,0,1.817,0.152,2.455,0.521c0.632,0.333,1.132,0.8,1.479,1.396
					c0.347,0.599,0.518,1.362,0.518,2.235c0,0.953-0.182,1.777-0.577,2.467c-0.37,0.707-0.898,1.238-1.595,1.629
					C285.045,346.352,284.227,346.544,283.266,346.544z M283.465,345.899c0.803,0,1.427-0.315,1.901-0.923
					c0.468-0.614,0.708-1.523,0.708-2.756c0-1.279-0.282-2.293-0.811-2.976c-0.44-0.559-1.116-0.836-1.998-0.836
					c-0.875,0-1.542,0.277-1.993,0.867c-0.481,0.576-0.693,1.482-0.693,2.687c0,0.872,0.116,1.61,0.358,2.206
					c0.287,0.609,0.596,1.037,0.985,1.308C282.332,345.737,282.837,345.899,283.465,345.899z M282.473,337.245h-0.597l1.39-1.365
					c0.322-0.329,0.519-0.533,0.645-0.598c0.111-0.066,0.234-0.104,0.34-0.104c0.166,0,0.278,0.049,0.359,0.134
					c0.102,0.086,0.152,0.213,0.152,0.36c0,0.124-0.041,0.231-0.096,0.3c-0.096,0.088-0.319,0.257-0.735,0.476L282.473,337.245z"/>
				<path fill="#FFFFFF" stroke="#FFFFFF" stroke-width="0.3912" d="M301.089,346.433v-0.51c0.46,0,0.754-0.023,0.848-0.078
					c0.052-0.045,0.095-0.107,0.128-0.173c0.036-0.088,0.067-0.429,0.092-1.053c0.021-0.965,0.021-1.694,0.021-2.183v-2.625
					c0-0.68-0.021-1.063-0.077-1.17c-0.015-0.071-0.05-0.127-0.112-0.164c-0.075-0.034-0.359-0.087-0.899-0.118v-0.507
					c0.618,0.035,1.067,0.042,1.384,0.042c0.305,0,0.669-0.007,1.095-0.042c0.917,1.211,1.941,2.525,3.123,3.908
					c0.751,0.94,1.408,1.719,1.957,2.341v-2.44c0-0.93,0-1.712-0.015-2.392c-0.023-0.389-0.048-0.628-0.1-0.714
					c-0.021-0.078-0.059-0.081-0.137-0.112c-0.066-0.034-0.324-0.053-0.832-0.084v-0.507c0.439,0.035,0.855,0.042,1.309,0.042
					c0.563,0,1.094-0.007,1.555-0.042v0.507c-0.44,0.031-0.685,0.05-0.803,0.101c-0.042,0.015-0.091,0.055-0.115,0.079
					c-0.041,0.031-0.062,0.075-0.073,0.116c-0.019,0.117-0.04,0.446-0.049,0.986l-0.006,2.422l-0.019,2.473
					c0,0.67,0.019,1.312,0.033,1.988l-0.072,0.088c-0.451-0.105-0.826-0.153-1.011-0.18c-1.005-1.148-2.236-2.602-3.692-4.369
					c-0.708-0.879-1.306-1.641-1.754-2.252v2.393c0,0.645,0.019,1.413,0.024,2.35c0.017,0.652,0.041,1.047,0.089,1.161
					c0.019,0.022,0.051,0.064,0.081,0.091c0.076,0.043,0.374,0.094,0.852,0.117v0.51c-0.624-0.012-1.085-0.05-1.362-0.05
					C302.314,346.383,301.833,346.421,301.089,346.433z"/>
			</g>
			<rect x="133.688" y="326.613" fill="#FFFFFF" width="176.3" height="2.142"/>
		</g>
	</g>
</g>
</svg>
