<?xml version="1.0" encoding="utf-8"?>
<!-- Generator: Adobe Illustrator 16.0.0, SVG Export Plug-In . SVG Version: 6.00 Build 0)  -->
<!DOCTYPE svg PUBLIC "-//W3C//DTD SVG 1.1//EN" "http://www.w3.org/Graphics/SVG/1.1/DTD/svg11.dtd">
<svg version="1.1" id="Capa_1" xmlns="http://www.w3.org/2000/svg" xmlns:xlink="http://www.w3.org/1999/xlink" x="0px" y="0px"
	 width="450px" height="450px" viewBox="0 0 450 450" enable-background="new 0 0 450 450" xml:space="preserve">
<g>
	<g>
		<g>
			<defs>
				<rect id="SVGID_74_" x="14.437" y="-383.006" width="408.996" height="185.66"/>
			</defs>
			<clipPath id="SVGID_1_">
				<use xlink:href="#SVGID_74_"  overflow="visible"/>
			</clipPath>
			<g clip-path="url(#SVGID_1_)">
				<defs>
					<path id="SVGID_98_" d="M255.914-383.006v185.66l167.417-0.154c0,0,0.042-70.814,0.05-101.812
						c-0.008-31.001-55.926-42.873-55.926-42.873s-11.591-38.794-42.854-40.821H255.914z"/>
				</defs>
				<clipPath id="SVGID_2_">
					<use xlink:href="#SVGID_98_"  overflow="visible"/>
				</clipPath>
				<defs>
					<filter id="Adobe_OpacityMaskFilter" filterUnits="userSpaceOnUse" x="18.28" y="-635.74" width="642.734" height="642.735">
						<feColorMatrix  type="matrix" values="1 0 0 0 0  0 1 0 0 0  0 0 1 0 0  0 0 0 1 0"/>
					</filter>
				</defs>
				<mask maskUnits="userSpaceOnUse" x="18.28" y="-635.74" width="642.734" height="642.735" id="SVGID_4_">
					<g filter="url(#Adobe_OpacityMaskFilter)">
						<g enable-background="new    ">
							<g>
								<defs>
									<polygon id="SVGID_101_" points="167.051,-314.373 339.644,-463.145 512.246,-314.373 339.644,-165.598 									"/>
								</defs>
								<clipPath id="SVGID_6_" clip-path="url(#SVGID_2_)">
									<use xlink:href="#SVGID_101_"  overflow="visible"/>
								</clipPath>
								
									<linearGradient id="SVGID_8_" gradientUnits="userSpaceOnUse" x1="-3071.9277" y1="-4521.8408" x2="-3071.4004" y2="-4521.8408" gradientTransform="matrix(255.5374 -255.5374 255.5374 255.5374 1940745.25 370279.0625)">
									<stop  offset="0" style="stop-color:#181B16"/>
									<stop  offset="0.4854" style="stop-color:#181B16"/>
									<stop  offset="0.5292" style="stop-color:#22231F"/>
									<stop  offset="0.6046" style="stop-color:#393935"/>
									<stop  offset="0.7024" style="stop-color:#5F5E5D"/>
									<stop  offset="0.8176" style="stop-color:#A6A3A3"/>
									<stop  offset="0.9223" style="stop-color:#FFFFFF"/>
									<stop  offset="1" style="stop-color:#FFFFFF"/>
								</linearGradient>
								<polygon clip-path="url(#SVGID_6_)" fill="url(#SVGID_8_)" points="339.644,6.995 661.015,-314.373 339.644,-635.74 
									18.28,-314.373 								"/>
							</g>
						</g>
					</g>
				</mask>
				<g clip-path="url(#SVGID_2_)" mask="url(#SVGID_4_)">
					<g>
						<defs>
							<rect id="SVGID_104_" x="167.051" y="-463.145" width="345.195" height="297.547"/>
						</defs>
						<clipPath id="SVGID_9_">
							<use xlink:href="#SVGID_104_"  overflow="visible"/>
						</clipPath>
						<g clip-path="url(#SVGID_9_)">
							<defs>
								<polygon id="SVGID_106_" points="167.051,-298.12 339.644,-463.145 512.246,-298.12 339.644,-165.598 								"/>
							</defs>
							<clipPath id="SVGID_10_">
								<use xlink:href="#SVGID_106_"  overflow="visible"/>
							</clipPath>
							
								<linearGradient id="SVGID_11_" gradientUnits="userSpaceOnUse" x1="-3071.8994" y1="-4521.9014" x2="-3071.3721" y2="-4521.9014" gradientTransform="matrix(255.5374 -255.5374 255.5374 255.5374 1940745.25 370309.875)">
								<stop  offset="0" style="stop-color:#ECE384"/>
								<stop  offset="0.4854" style="stop-color:#ECE384"/>
								<stop  offset="0.5858" style="stop-color:#EBE07C"/>
								<stop  offset="0.7551" style="stop-color:#E8D766"/>
								<stop  offset="0.9223" style="stop-color:#E5CB46"/>
								<stop  offset="1" style="stop-color:#E5CB46"/>
							</linearGradient>
							<polygon clip-path="url(#SVGID_10_)" fill="url(#SVGID_11_)" points="339.644,6.995 661.015,-314.373 339.644,-635.74 
								18.28,-314.373 							"/>
						</g>
					</g>
				</g>
			</g>
		</g>
	</g>
</g>
<g>
	<path fill="#6C7E45" d="M181.246,309.339c-1.078,2.688-0.691,4.786,1.613,4.786c1.764,0,3.251-1.022,4.5-3.032l1.872,0.283
		c-1.977,3.029-4.575,4.559-7.175,4.559c-3.613,0.086-4.353-3.143-2.809-6.992c1.76-4.393,4.684-7.222,8.487-7.222
		c3.675,0,4.228,3.085,2.628,7.079l-0.219,0.539H181.246z M188.717,307.526c0.641-2.209,0.276-3.994-1.932-3.994
		c-1.961,0-3.858,1.926-4.811,3.994H188.717z"/>
	<path fill="#6C7E45" d="M195.444,302.06h2.013l-0.728,1.812h0.048c1.308-1.359,2.775-2.151,4.295-2.151
		c2.354,0,3.666,1.188,2.157,4.954l-3.578,8.92h-2.011l3.486-8.693c0.93-2.32,0.162-3.029-1.261-3.029
		c-1.863,0-3.691,1.387-4.567,3.567l-3.273,8.155h-2.01L195.444,302.06z"/>
	<path fill="#6C7E45" d="M206.699,309.339c-1.08,2.688-0.691,4.786,1.61,4.786c1.767,0,3.253-1.022,4.502-3.032l1.869,0.283
		c-1.975,3.029-4.573,4.559-7.173,4.559c-3.611,0.086-4.353-3.143-2.809-6.992c1.761-4.393,4.686-7.222,8.485-7.222
		c3.679,0,4.229,3.085,2.628,7.079l-0.214,0.539H206.699z M214.167,307.526c0.639-2.209,0.276-3.994-1.929-3.994
		c-1.961,0-3.862,1.926-4.815,3.994H214.167z"/>
	<path fill="#6C7E45" d="M220.9,302.06h2.008l-0.933,2.323h0.049c1.692-1.841,3.108-2.493,5.141-2.493l-1.018,2.549
		c-0.382-0.027-0.984-0.056-1.328-0.056c-1.937,0-3.672,2.066-4.295,3.624l-3.045,7.588h-2.011L220.9,302.06z"/>
	<path fill="#6C7E45" d="M237.74,302.06h2.011l-5.476,13.648c-0.817,2.038-2.841,6.23-7.889,6.23c-2.844,0-4.715-1.387-3.457-4.957
		h2.158c-0.922,2.184,0.209,3.145,1.952,3.145c3.406,0,4.57-2.775,5.341-4.701l0.771-1.924h-0.05
		c-1.76,1.641-3.256,2.434-4.974,2.434c-2.031,0-4.797-1.36-2.493-7.106c1.579-3.938,4.542-7.109,8.221-7.109
		c1.89,0,2.932,0.88,3.097,2.183l0.037,0.027L237.74,302.06z M227.647,308.828c-1.136,2.831-0.78,5.124,1.548,5.124
		c2.326,0,4.811-2.463,5.864-5.209c1.425-3.738,0.451-5.041-1.755-5.041C231.246,303.702,229.044,305.345,227.647,308.828"/>
	<path fill="#6C7E45" d="M242.649,302.058h2.008l-5.431,13.537h-2.006L242.649,302.058z M247.008,295.405h2.647l-4.788,3.992h-1.644
		L247.008,295.405z"/>
	<path fill="#6C7E45" d="M252.869,306.282c0.771-1.928,0.367-2.75-1.643-2.75c-1.546,0-2.704,0.936-3.519,2.774l-1.953-0.139
		c1.495-3.061,3.622-4.449,6.222-4.449c1.986,0,4.48,0.624,3.051,4.193l-2.52,6.285c-0.535,1.331-0.175,1.529,0.242,1.529
		c0.225,0,0.441-0.056,0.672-0.143l-0.771,1.928c-0.44,0.112-0.913,0.196-1.333,0.196c-1.202,0-1.526-0.595-1.284-1.868
		c-1.669,1.416-3.366,2.095-5.009,2.095c-2.082,0-3.092-1.643-2.251-3.737c1.5-3.737,4.665-4.419,9.617-4.729L252.869,306.282z
		 M251.779,308.996c-3.502,0.54-5.952,0.964-6.791,3.061c-0.657,1.641,0.469,2.065,1.427,2.065c1.888,0,3.844-1.33,4.74-3.568
		L251.779,308.996z"/>
	<path fill="#6C7E45" d="M266.774,302.06h2.011l-0.934,2.323h0.05c1.693-1.841,3.11-2.493,5.146-2.493l-1.022,2.549
		c-0.381-0.027-0.984-0.056-1.329-0.056c-1.935,0-3.669,2.066-4.293,3.624l-3.045,7.588h-2.008L266.774,302.06z"/>
	<path fill="#6C7E45" d="M273.467,309.339c-1.077,2.688-0.692,4.786,1.611,4.786c1.766,0,3.252-1.022,4.5-3.032l1.873,0.283
		c-1.975,3.029-4.576,4.559-7.173,4.559c-3.612,0.086-4.353-3.143-2.811-6.992c1.761-4.393,4.688-7.222,8.487-7.222
		c3.679,0,4.228,3.085,2.628,7.079l-0.215,0.539H273.467z M280.936,307.526c0.641-2.209,0.277-3.994-1.928-3.994
		c-1.964,0-3.861,1.926-4.812,3.994H280.936z"/>
	<path fill="#6C7E45" d="M287.668,302.06h2.01l-0.727,1.812h0.051c1.303-1.359,2.773-2.151,4.293-2.151
		c2.354,0,3.666,1.188,2.154,4.954l-3.576,8.92h-2.013l3.49-8.693c0.93-2.32,0.158-3.029-1.261-3.029
		c-1.865,0-3.695,1.387-4.569,3.567l-3.271,8.155h-2.01L287.668,302.06z"/>
	<path fill="#6C7E45" d="M305.554,301.719c3.581,0,4.534,3.005,2.888,7.109c-1.647,4.104-5.007,7.106-8.589,7.106
		c-3.579,0-4.532-3.002-2.885-7.106C298.612,304.724,301.977,301.719,305.554,301.719 M300.579,314.122
		c2.894,0,4.809-3.056,5.705-5.294c0.896-2.236,1.436-5.296-1.456-5.296c-2.894,0-4.804,3.06-5.703,5.296
		C298.227,311.066,297.688,314.122,300.579,314.122"/>
	<polygon fill="#6C7E45" points="312.262,302.06 314.345,302.06 313.439,312.141 313.49,312.141 320.545,302.06 322.604,302.06 
		313.035,315.595 311.147,315.595 	"/>
	<path fill="#6C7E45" d="M329.595,306.282c0.771-1.928,0.364-2.75-1.646-2.75c-1.542,0-2.702,0.936-3.515,2.774l-1.953-0.139
		c1.496-3.061,3.62-4.449,6.223-4.449c1.985,0,4.479,0.624,3.047,4.193l-2.52,6.285c-0.531,1.331-0.172,1.529,0.243,1.529
		c0.222,0,0.439-0.056,0.67-0.143l-0.771,1.928c-0.44,0.112-0.914,0.196-1.329,0.196c-1.202,0-1.529-0.595-1.286-1.868
		c-1.67,1.416-3.366,2.095-5.006,2.095c-2.087,0-3.092-1.643-2.254-3.737c1.5-3.737,4.664-4.419,9.617-4.729L329.595,306.282z
		 M328.504,308.996c-3.501,0.54-5.951,0.964-6.791,3.061c-0.658,1.641,0.47,2.065,1.425,2.065c1.889,0,3.843-1.33,4.74-3.568
		L328.504,308.996z"/>
	<path fill="#6C7E45" d="M339.193,295.434h2.01l-3.34,8.325h0.048c1.404-1.357,3-2.04,4.571-2.04c4.02,0,4.194,3.483,2.74,7.109
		c-1.454,3.625-4.273,7.106-8.614,7.106c-1.42,0-2.521-0.679-2.819-1.952h0.025h-0.051l-0.645,1.612h-2.012L339.193,295.434z
		 M341.465,303.7c-2.328,0-4.627,2.439-5.707,5.128c-1.076,2.69-1.001,5.124,1.597,5.124c2.6,0,4.632-2.434,5.71-5.124
		C344.142,306.14,344.062,303.7,341.465,303.7"/>
	<polygon fill="#6C7E45" points="352.924,295.434 354.935,295.434 346.848,315.595 344.838,315.595 	"/>
	<path fill="#6C7E45" d="M353.845,309.339c-1.078,2.688-0.69,4.786,1.613,4.786c1.765,0,3.252-1.022,4.5-3.032l1.871,0.283
		c-1.976,3.029-4.573,4.559-7.174,4.559c-3.612,0.086-4.351-3.143-2.809-6.992c1.759-4.393,4.687-7.222,8.486-7.222
		c3.677,0,4.229,3.085,2.629,7.079l-0.218,0.539H353.845z M361.314,307.526c0.642-2.209,0.275-3.994-1.931-3.994
		c-1.961,0-3.859,1.926-4.811,3.994H361.314z"/>
	<path fill="#6C7E45" d="M120.6,270.181c-6.225,7.225-14.746,7.441-16.703,7.441c-1.844,0-10.203-0.107-9.154-7.116
		c0.281-1.728,0.858-3.13,1.713-4.856l15.313-30.951c1.064-2.158,2.195-4.209,3.493-6.362c1.032-1.621,3.307-5.287,8.502-7.876
		c2.032-1.077,5.605-2.48,10.102-2.48c1.843,0,9.749,0.326,9.205,7.01c-0.256,2.158-0.943,3.774-2.063,6.041l-9.232,18.659h-18.321
		l-8.058,16.282c-0.586,1.19-2.408,4.641,1.97,4.641c5.007-0.106,6.582-3.99,7.223-5.285l5.016-10.14h9.451l-3.736,7.55
		C124.891,263.603,123.024,267.376,120.6,270.181 M131.992,230.386c1.387-2.809,2.153-5.289-1.651-5.289
		c-0.343,0-1.78,0.109-3.081,0.65c-2.715,1.293-3.777,3.666-4.736,5.607l-5.547,11.215h8.986L131.992,230.386z"/>
	<path fill="#6C7E45" d="M163.469,239.657l4.855-9.812c0.056-0.109,0.747-1.509,0.891-2.268c0.359-2.588-2.398-2.371-3.204-2.371
		c-1.153,0-2.015,0.107-3.199,0.646c-2.379,1.081-3.444,3.239-4.354,5.069l-17.341,35.051c-0.855,1.727-1.257,3.238,0.276,4.103
		c0.763,0.322,1.744,0.432,1.974,0.432c0.461,0,1.383,0,2.636-0.432c2.844-0.864,4.181-3.56,5.193-5.61l5.335-10.783h9.22
		l-5.229,10.567c-0.374,0.757-1.325,2.914-2.968,5.069c-1.538,1.943-5.409,6.039-11.74,7.659c-1.198,0.323-3.315,0.647-5.968,0.647
		c-1.498,0-9.9,0.215-9.571-6.041c0.048-1.728,0.403-2.912,2.112-6.365l16.916-34.188c1.438-2.912,2.033-3.883,3.357-5.393
		c6.218-7.443,14.902-7.766,17.094-7.766c0.807,0,3.571,0,5.742,0.971c3.746,1.508,3.807,4.42,3.643,6.146
		c-0.198,2.266-1.215,4.314-2.387,6.69l-3.949,7.978H163.469z"/>
	<path fill="#6C7E45" d="M191.988,270.287c-2.922,3.344-8.123,7.335-16.649,7.335c-1.153,0-5.122,0.107-7.451-1.94
		c-3.879-3.343-0.71-9.278,1.903-14.562l13.182-26.64c2.401-4.854,4.793-9.923,10.93-13.479c2.477-1.512,4.358-2.051,5.271-2.266
		c1.479-0.43,3.139-0.756,6.019-0.756c1.729,0,10.078-0.107,9.37,6.686c-0.2,2.268-1.266,4.426-2.443,6.796l-16.059,32.464
		C194.886,266.298,193.915,268.025,191.988,270.287 M203.443,230.599c1.441-2.912,2.26-5.502-1.772-5.502
		c-0.349,0-1.843,0-3.196,0.65c-2.154,1.076-3.188,2.48-4.738,5.607l-16.811,33.973c-0.584,1.188-3.02,5.179,1.818,5.179
		c4.379,0,6.239-2.589,7.84-5.824L203.443,230.599z"/>
	<polygon fill="#B17C30" points="198.635,276.652 236.308,200.509 245.755,200.509 208.083,276.652 	"/>
	<path fill="#B17C30" d="M247.299,270.287c-2.922,3.344-8.122,7.337-16.647,7.337c-1.151,0-5.124,0.107-7.454-1.94
		c-3.875-3.347-0.707-9.28,1.906-14.563l13.177-26.638c2.403-4.854,4.794-9.925,10.937-13.481c2.476-1.512,4.354-2.051,5.268-2.266
		c1.48-0.432,3.141-0.756,6.018-0.756c1.731,0,10.081-0.107,9.369,6.686c-0.197,2.268-1.266,4.426-2.438,6.796l-16.063,32.464
		C250.196,266.298,249.229,268.025,247.299,270.287 M258.756,230.599c1.44-2.912,2.258-5.502-1.772-5.502
		c-0.347,0-1.848,0-3.201,0.648c-2.149,1.078-3.188,2.482-4.734,5.607l-16.81,33.975c-0.585,1.188-3.02,5.179,1.816,5.179
		c4.382,0,6.237-2.589,7.84-5.824L258.756,230.599z M263.07,214.423h-5.299l14.751-13.052h11.408L263.07,214.423z"/>
	<path fill="#B17C30" d="M275.754,284.742c-4.521,5.177-11.234,7.332-16.65,7.332c-3.108,0-13.349-0.97-7.551-11.757h9.218
		c-1.384,2.806-1.202,4.531,2.255,4.531c0.577,0,1.385,0,2.685-0.539c2.212-0.971,3.24-2.589,3.989-4.098l3.683-7.442
		c0,0-1.403,0.971-2.129,1.511c-4.273,2.803-7.026,3.021-8.87,3.021c-9.163-0.109-5.822-7.337-4.54-9.926l19.21-38.826
		c0.641-1.295,1.449-2.698,2.436-3.992c1.473-2.05,5.843-6.686,12.295-6.686c2.883,0,4.998,1.078,5.945,3.129
		c0.192,0.539,0.28,1.293,0.42,1.938l2.029-4.097h9.102l-29.613,59.859C279.343,279.348,277.903,282.26,275.754,284.742
		 M293.018,233.079c0.375-0.754,0.799-1.618,1.057-2.371c0.475-1.186,2.173-4.856-2.153-4.961c-1.038,0-3.448,0.214-5.421,2.803
		c-0.931,1.186-1.999,3.344-3.439,6.255l-14.086,28.474c-1.494,3.02-3.042,6.148,1.336,6.148c4.262,0,6.432-3.455,7.928-6.473
		L293.018,233.079z"/>
	<path fill="#B17C30" d="M290.127,276.652l28.6-57.81h9.22l-28.602,57.81H290.127z M322.098,212.265l5.657-11.434h9.218
		l-5.655,11.434H322.098z"/>
	<path fill="#B17C30" d="M345.302,239.657l4.858-9.812c0.052-0.109,0.748-1.509,0.887-2.268c0.359-2.588-2.397-2.371-3.203-2.371
		c-1.152,0-2.012,0.107-3.199,0.646c-2.381,1.081-3.443,3.239-4.352,5.069l-17.342,35.051c-0.855,1.727-1.258,3.238,0.276,4.103
		c0.759,0.322,1.741,0.432,1.973,0.432c0.461,0,1.382,0,2.635-0.432c2.846-0.864,4.182-3.56,5.196-5.61l5.336-10.783h9.218
		l-5.228,10.567c-0.378,0.757-1.33,2.914-2.971,5.069c-1.538,1.943-5.409,6.039-11.74,7.659c-1.198,0.323-3.316,0.647-5.965,0.647
		c-1.5,0-9.901,0.215-9.574-6.041c0.051-1.728,0.406-2.912,2.111-6.365l16.918-34.188c1.438-2.912,2.032-3.883,3.355-5.393
		c6.217-7.443,14.905-7.766,17.094-7.766c0.809,0,3.57,0,5.744,0.971c3.746,1.508,3.805,4.42,3.642,6.146
		c-0.196,2.266-1.213,4.314-2.389,6.69l-3.946,7.978H345.302z"/>
	<path fill="#B17C30" d="M362.722,276.652c-0.005-1.618-0.078-1.94,0.681-4.64c-4.072,3.344-7.11,5.287-11.603,5.287
		c-8.986,0-4.96-7.444-3.841-9.706l5.123-10.356c2.828-5.715,4.082-7.548,10.932-10.676l11.434-5.178
		c3.112-1.4,3.945-2.156,5.341-3.344l4.27-8.627c0.64-1.295,2.187-4.424-1.848-4.424c-4.146,0-5.634,3.238-6.169,4.314l-4.001,8.091
		h-9.45l3.523-7.12c0.908-1.834,1.93-3.666,3.361-5.393c2.752-3.236,7.961-7.01,16.142-7.01c1.153,0,5.991,0,8.169,2.59
		c0.542,0.539,1.451,1.724,1.189,3.881c-0.153,1.94-1.112,3.885-2.126,5.932l-18.142,36.67c-0.537,1.081-3.281,5.933-3.192,9.708
		H362.722z M375.707,248.071c-1.123,0.645-1.123,0.645-2.817,1.511l-4.694,2.263c-0.906,0.431-1.358,0.649-2.253,1.295
		c-2.075,1.402-2.947,2.698-3.852,4.53l-2.938,5.933c-1.228,2.479-1.814,3.666-1.886,4.746c-0.066,1.293,0.712,2.048,2.212,2.048
		c1.265,0,2.455-0.541,2.908-0.755c3.327-1.834,5.371-5.5,6.648-8.09L375.707,248.071z"/>
	<polygon fill="#6C7E45" points="387.773,316.269 380.697,316.269 427.144,189.198 141.769,189.198 144.428,182.551 
		436.638,182.551 	"/>
	<path fill="#C6A357" d="M18.575,215.44c-1.749,0-3.488-0.055-5.212-0.15c8.323,3.227,17.37,4.998,26.835,4.998
		c41.02,0,74.273-33.252,74.273-74.271c0-9.464-1.775-18.51-5.003-26.835c0.099,1.728,0.152,3.462,0.152,5.212
		C109.621,174.679,68.858,215.44,18.575,215.44"/>
	<path fill="#D2BB6E" d="M18.553,193.978c-1.337,0-2.666-0.041-3.982-0.113c6.361,2.465,13.279,3.82,20.514,3.82
		c31.36,0,56.781-25.421,56.781-56.781c0-7.233-1.355-14.15-3.821-20.515c0.073,1.317,0.116,2.647,0.116,3.984
		C88.16,162.813,56.996,193.978,18.553,193.978"/>
	<path fill="#B17C30" d="M28.679,236.317c-2.003,0-3.989-0.062-5.965-0.172c9.525,3.691,19.884,5.721,30.714,5.721
		c46.949,0,85.013-38.061,85.013-85.01c0-10.832-2.032-21.188-5.724-30.714c0.108,1.976,0.172,3.962,0.172,5.964
		C132.889,189.661,86.232,236.317,28.679,236.317"/>
</g>
</svg>
