<?xml version="1.0" encoding="utf-8"?>
<!-- Generator: Adobe Illustrator 16.0.0, SVG Export Plug-In . SVG Version: 6.00 Build 0)  -->
<!DOCTYPE svg PUBLIC "-//W3C//DTD SVG 1.1//EN" "http://www.w3.org/Graphics/SVG/1.1/DTD/svg11.dtd">
<svg version="1.1" id="Capa_1" xmlns="http://www.w3.org/2000/svg" xmlns:xlink="http://www.w3.org/1999/xlink" x="0px" y="0px"
	 width="350px" height="350px" viewBox="0 0 350 350" enable-background="new 0 0 350 350" xml:space="preserve">
<g>
	<defs>
		<rect id="SVGID_1_" x="-656.107" y="95.562" width="365.041" height="282.076"/>
	</defs>
	<clipPath id="SVGID_2_">
		<use xlink:href="#SVGID_1_"  overflow="visible"/>
	</clipPath>
	<path clip-path="url(#SVGID_2_)" fill="#F1CF00" d="M-404.969,136.401c-2.938-0.002-5.332,2.384-5.334,5.313
		c-0.001,2.928,2.391,5.314,5.329,5.315c2.937,0.001,5.33-2.383,5.332-5.311C-399.642,138.789-402.032,136.402-404.969,136.401
		 M-404.974,146.205c-2.482-0.001-4.505-2.017-4.504-4.49c0.001-2.475,2.024-4.491,4.508-4.49c2.48,0.001,4.503,2.018,4.502,4.494
		C-400.469,144.192-402.491,146.207-404.974,146.205 M-406.866,139.096h1.827c1.009,0.001,1.958,0.328,1.957,1.502
		c0,0.755-0.438,1.31-1.216,1.42l1.393,2.317l-1.126-0.001l-1.217-2.22h-0.683l-0.002,2.22l-0.934-0.001V139.096z M-405.204,141.315
		c0.527,0,1.144-0.044,1.146-0.723c0-0.621-0.58-0.696-1.062-0.696l-0.81-0.001v1.42H-405.204z"/>
	<path clip-path="url(#SVGID_2_)" fill="#BD0052" d="M-619.406,163.889l0.004-10.619c0.001-3.187,2.316-5.833,5.359-6.364
		l0.001,0.002c0.369-0.064,0.748-0.1,1.136-0.1c0.386,0.001,0.764,0.037,1.133,0.102v-0.003c1.354,0.238,2.562,0.893,3.487,1.827
		l9.066-6.223c-3.22-3.979-8.149-6.524-13.675-6.527c0,0-0.006,0.001-0.009,0.001c0,0-0.004-0.001-0.007-0.001
		c-9.707-0.004-17.576,7.836-17.581,17.512l-0.028,67.631c0,0.018,0.001,0.034,0.001,0.052l11.087,0.004l0.02-47.767l5.128,0.002
		l0.004-9.512L-619.406,163.889z"/>
	<path clip-path="url(#SVGID_2_)" fill="#009493" d="M-565.822,171.568l0.003-7.64l-11.215-0.005l-0.014,34.226
		c-0.001,3.79-1.304,6.97-3.91,9.542c-2.604,2.574-5.557,3.859-8.863,3.857c-3.634-0.001-6.711-1.258-9.23-3.771
		c-2.684-2.637-4.027-5.85-4.025-9.64l0.014-34.225l-5.692-0.002l-0.004,9.51l-5.523-0.002l-0.011,25.146
		c0.12,6.346,2.359,11.697,6.718,16.066c4.355,4.367,10.293,6.552,17.814,6.555c7.105,0.003,12.806-2.136,17.105-6.418
		c0.394-0.396,0.766-0.804,1.127-1.215c0.004-10.298,0.011-27.016,0.011-27.016C-571.404,180.758-569.5,175.772-565.822,171.568"/>
	<path clip-path="url(#SVGID_2_)" fill="#D07644" d="M-529.776,170.491c-4.354-4.369-10.292-6.553-17.812-6.556
		c-7.106-0.003-12.806,2.136-17.106,6.417c-0.396,0.396-0.766,0.803-1.127,1.216l-0.012,27.015
		c-0.113,5.778-2.017,10.765-5.695,14.969c-0.002,3.838-0.003,6.785-0.004,7.641c4.908-1.462,11.218,0.005,11.218,0.005
		l0.013-34.227c0.001-3.788,1.303-6.969,3.909-9.542c2.604-2.572,5.556-3.858,8.862-3.858c3.635,0.002,6.714,1.26,9.231,3.773
		c2.686,2.637,4.028,5.85,4.026,9.638l-0.014,34.226l11.216,0.005l0.014-34.656C-523.178,180.213-525.417,174.859-529.776,170.491"
		/>
	<path clip-path="url(#SVGID_2_)" fill="#C0CD29" d="M-465.061,160.434c5.702,0.003,10.326-4.519,10.327-10.099
		c0.003-5.581-4.617-10.105-10.319-10.107c-5.702-0.003-10.325,4.519-10.327,10.099
		C-475.382,155.908-470.762,160.432-465.061,160.434"/>
	<path clip-path="url(#SVGID_2_)" fill="#C0CD29" d="M-494.127,163.957c-7.105-0.003-12.805,2.136-17.106,6.418
		c-4.42,4.446-6.697,9.838-6.823,16.183l-0.013,34.657l11.215,0.005l0.014-34.227c0.002-3.788,1.304-6.97,3.909-9.543
		c2.606-2.572,5.557-3.858,8.864-3.856c3.635,0,6.712,1.257,9.231,3.772c2.685,2.637,4.027,5.849,4.025,9.637l-0.013,34.228
		l5.606,0.002l0.021-49.518c-0.358-0.408-0.725-0.811-1.115-1.203C-480.667,166.144-486.606,163.96-494.127,163.957"/>
</g>
<g>
	<defs>
		<path id="SVGID_3_" d="M-426.602,138.986c-1.127,4.322-2.558,9.05-4.31,14.273c-1.76,5.219-3.887,10.751-6.42,16.544
			c-2.528,5.795-5.478,11.756-8.802,17.801c-3.309,6.056-7.064,12.111-11.2,18.049l-0.771,1.109l-0.8,1.098
			c-0.533,0.733-1.067,1.469-1.601,2.206c-0.55,0.723-1.103,1.447-1.653,2.174l-0.828,1.089l-0.854,1.071
			c-0.071,0.092-0.146,0.182-0.219,0.273l-0.002,6.565l-5.494-0.003c-0.454,0.517-0.911,1.032-1.367,1.545
			c-2.456,2.713-5.022,5.31-7.626,7.838c-2.633,2.494-5.338,4.882-8.112,7.121c-2.791,2.211-5.649,4.274-8.56,6.148
			c-2.914,1.871-5.899,3.504-8.899,4.917c-1.499,0.722-3.017,1.324-4.522,1.926c-0.759,0.268-1.517,0.533-2.27,0.797
			c-0.754,0.257-1.516,0.454-2.267,0.686c-3.021,0.838-6.016,1.411-8.938,1.651c-2.926,0.264-5.766,0.122-8.46-0.276
			c-2.69-0.42-5.261-1.066-7.605-2.043c-2.351-0.956-4.544-2.067-6.494-3.385c-1.989-1.251-3.735-2.688-5.343-4.085
			c-3.186-2.845-5.596-5.804-7.473-8.312c-0.464-0.637-0.903-1.238-1.315-1.805c-0.381-0.575-0.737-1.114-1.069-1.616
			c-0.12-0.181-0.231-0.349-0.343-0.519c3.364-0.109,6.533,0.101,8.924,0.841c8.23,2.542,11.387,0.902,2.256-3.708
			c-6.286-3.176-20.29-6.415-34.951-0.015c-5.935,2.592-2.699,9.439,4.508,6.295c1.876-0.817,6.532-1.985,11.751-2.728
			c0.077,0.146,0.154,0.294,0.239,0.457c0.209,0.395,0.423,0.827,0.696,1.319c0.292,0.5,0.611,1.047,0.957,1.638
			c0.346,0.588,0.713,1.231,1.122,1.896c0.426,0.647,0.88,1.334,1.359,2.059c1.954,2.872,4.494,6.312,8.043,9.791
			c1.798,1.712,3.774,3.505,6.107,5.111c2.287,1.664,4.918,3.14,7.788,4.425c2.864,1.309,6.044,2.254,9.383,2.895
			c3.342,0.625,6.875,0.914,10.454,0.732c7.169-0.319,14.511-2.204,21.427-5.264c3.468-1.519,6.88-3.271,10.175-5.261
			c3.293-1.994,6.498-4.181,9.616-6.516c3.095-2.358,6.097-4.866,9.013-7.48c2.891-2.639,5.677-5.4,8.365-8.244
			c2.658-2.867,5.271-5.775,7.718-8.792l0.929-1.122l0.901-1.141c0.6-0.759,1.2-1.519,1.8-2.275c0.582-0.771,1.161-1.54,1.74-2.308
			l0.869-1.152l0.841-1.166c4.498-6.204,8.586-12.542,12.198-18.868c3.619-6.322,6.774-12.625,9.519-18.711
			c2.743-6.089,5.056-11.973,6.98-17.479c1.935-5.505,3.433-10.648,4.656-15.234c0.294-1.15,0.578-2.039,0.852-3.113
			c0.221-0.869,0.407-1.858,0.595-2.307l-12.502-0.006C-426.121,137.292-426.357,138.017-426.602,138.986"/>
	</defs>
	<clipPath id="SVGID_4_">
		<use xlink:href="#SVGID_3_"  overflow="visible"/>
	</clipPath>
	
		<linearGradient id="SVGID_5_" gradientUnits="userSpaceOnUse" x1="-221.3696" y1="481.7227" x2="-220.9088" y2="481.7227" gradientTransform="matrix(376.7502 0.1546 0.1546 -376.7502 82739.5 181723.5)">
		<stop  offset="0" style="stop-color:#D07644"/>
		<stop  offset="0.3978" style="stop-color:#D07644"/>
		<stop  offset="0.7419" style="stop-color:#F1CF00"/>
		<stop  offset="1" style="stop-color:#F1CF00"/>
	</linearGradient>
	<polygon clip-path="url(#SVGID_4_)" fill="url(#SVGID_5_)" points="-589.925,136.32 -413.337,136.392 -413.391,263.086 
		-589.978,263.013 	"/>
</g>
<g>
	<defs>
		<rect id="SVGID_6_" x="-656.107" y="95.562" width="365.041" height="282.076"/>
	</defs>
	<clipPath id="SVGID_7_">
		<use xlink:href="#SVGID_6_"  overflow="visible"/>
	</clipPath>
	<path clip-path="url(#SVGID_7_)" fill="#5F147D" d="M-464.041,169.919l-3.706-5.952l-7.447-0.003l-0.003,7.751
		c3.621,4.135,5.492,9.087,5.602,14.862l-0.014,34.657h0.053c1.886-2.143,3.735-4.318,5.496-6.562L-464.041,169.919z"/>
	<polygon clip-path="url(#SVGID_7_)" fill="#F1CF00" points="-438.095,191.098 -444.44,180.813 -454.935,163.947 -464.039,163.969 
		-464.041,169.919 -450.858,191.094 -444.448,201.375 -432.071,221.25 -419.305,221.257 	"/>
	<rect x="-614.281" y="163.909" clip-path="url(#SVGID_7_)" fill="#5F147D" width="5.523" height="9.511"/>
	<path clip-path="url(#SVGID_7_)" fill="#C0CD29" d="M-565.822,171.568l-0.011,26.561c0,0,0.175,9.271-5.696,15.424
		c-0.023-23.621,0.011-26.451,0.011-26.451S-572.308,179.262-565.822,171.568"/>
	<polygon clip-path="url(#SVGID_7_)" fill="#BD0053" points="-467.747,163.968 -464.039,163.969 -464.041,169.919 	"/>
	<path clip-path="url(#SVGID_7_)" fill="#BD0053" d="M-464.06,214.673c0,0-3.521,4.293-5.496,6.563c3.691,0,5.493,0.001,5.493,0.001
		L-464.06,214.673z"/>
	<path clip-path="url(#SVGID_7_)" fill="#009493" d="M-475.197,171.715l-0.021,49.518l5.609,0.001l0.014-35.073
		C-469.595,186.161-469.572,177.645-475.197,171.715"/>
	<path clip-path="url(#SVGID_7_)" fill="#BD0052" d="M-405.704,216.583c-0.002,3.033-2.545,5.49-5.68,5.487
		c-3.137,0-5.677-2.46-5.676-5.492c0.001-3.034,2.543-5.491,5.68-5.489C-408.244,211.09-405.704,213.55-405.704,216.583"/>
	<polygon clip-path="url(#SVGID_7_)" fill="#BD0052" points="-318.09,185.67 -325.999,185.666 -332.948,196.971 -339.889,185.661 
		-347.797,185.658 -336.889,203.381 -344.138,215.17 -347.797,221.124 -347.812,221.148 -339.97,221.151 -332.953,209.775 
		-325.948,221.157 -318.104,221.161 -329.014,203.384 	"/>
	<path clip-path="url(#SVGID_7_)" fill="#BD0052" d="M-348.342,201.034c0.002-8.608-6.739-15.615-15.029-15.618
		c-4.832-0.002-9.134,2.383-11.887,6.072c-2.755-3.604-7.01-5.927-11.785-5.928c-8.288-0.004-15.037,6.967-15.042,15.539
		l-0.008,20.026l6.671,0.002l0.01-20.022h0.01c0.001-4.856,3.75-8.807,8.356-8.803c4.605,0,8.351,3.953,8.349,8.811h0.009
		l-0.007,20.022l3.015,0.002h0.918l2.739,0.001h0.276l0.008-20.109h0.011c0.001-4.879,3.748-8.845,8.355-8.843
		c4.605,0.002,8.351,3.972,8.349,8.849h0.01l-0.008,20.111h3.015l3.657,0.002l0.003-5.955L-348.342,201.034z"/>
	<polygon clip-path="url(#SVGID_7_)" fill="#727176" points="-441.94,234.246 -434.556,234.246 -434.556,236.457 -439.546,236.457 
		-439.546,238.483 -434.832,238.483 -434.832,240.694 -439.546,240.694 -439.546,242.906 -434.279,242.906 -434.279,245.114 
		-441.94,245.114 	"/>
	<rect x="-432.623" y="233.509" clip-path="url(#SVGID_7_)" fill="#727176" width="2.302" height="11.605"/>
	<path clip-path="url(#SVGID_7_)" fill="#BD1856" d="M-417.057,243.826c-0.735,0.937-1.949,1.473-3.146,1.473
		c-2.304,0-4.146-1.534-4.146-3.914s1.842-3.914,4.146-3.914c2.149,0,3.5,1.534,3.5,3.914v0.722h-5.344
		c0.186,0.877,0.846,1.444,1.736,1.444c0.751,0,1.259-0.385,1.645-0.906L-417.057,243.826z M-419.006,240.541
		c0.015-0.768-0.584-1.412-1.413-1.412c-1.013,0-1.565,0.691-1.628,1.412H-419.006z"/>
	<path clip-path="url(#SVGID_7_)" fill="#BD1856" d="M-415.308,237.654h2.21v1.014h0.032c0.307-0.584,1.059-1.197,2.18-1.197
		c2.334,0,2.765,1.534,2.765,3.531v4.112h-2.303v-3.652c0-0.858-0.018-1.965-1.199-1.965c-1.196,0-1.381,0.936-1.381,1.903v3.714
		h-2.304V237.654z"/>
	<path clip-path="url(#SVGID_7_)" fill="#BD1856" d="M-401.444,240.065c-0.23-0.323-0.661-0.568-1.137-0.568
		c-1.151,0-1.842,0.768-1.842,1.889s0.69,1.889,1.842,1.889c0.507,0,0.875-0.262,1.137-0.568l1.52,1.597
		c-0.722,0.736-1.781,0.998-2.656,0.998c-2.303,0-4.146-1.536-4.146-3.915c0-2.381,1.843-3.915,4.146-3.915
		c0.875,0,1.935,0.261,2.656,0.998L-401.444,240.065z"/>
	<path clip-path="url(#SVGID_7_)" fill="#BD1856" d="M-391.912,245.114h-2.211v-1.011h-0.03c-0.307,0.582-1.06,1.197-2.18,1.197
		c-2.334,0-2.763-1.536-2.763-3.531v-4.115h2.303v3.654c0,0.859,0.015,1.966,1.197,1.966c1.197,0,1.381-0.938,1.381-1.904v-3.716
		h2.303V245.114z"/>
	<path clip-path="url(#SVGID_7_)" fill="#BD1856" d="M-383.223,243.826c-0.737,0.937-1.95,1.473-3.147,1.473
		c-2.303,0-4.146-1.534-4.146-3.914s1.843-3.914,4.146-3.914c2.148,0,3.501,1.534,3.501,3.914v0.722h-5.344
		c0.185,0.877,0.845,1.444,1.735,1.444c0.752,0,1.259-0.385,1.643-0.906L-383.223,243.826z M-385.173,240.541
		c0.015-0.768-0.583-1.412-1.413-1.412c-1.013,0-1.565,0.691-1.627,1.412H-385.173z"/>
	<path clip-path="url(#SVGID_7_)" fill="#BD1856" d="M-381.473,237.654h2.211v1.014h0.029c0.308-0.584,1.06-1.197,2.18-1.197
		c2.334,0,2.764,1.534,2.764,3.531v4.112h-2.303v-3.652c0-0.858-0.016-1.965-1.196-1.965c-1.198,0-1.382,0.936-1.382,1.903v3.714
		h-2.303V237.654z"/>
	<path clip-path="url(#SVGID_7_)" fill="#BD1856" d="M-367.581,239.497h-2.027v2.486c0,0.799,0.094,1.382,1.091,1.382
		c0.245,0,0.736-0.03,0.937-0.214v1.918c-0.506,0.185-1.074,0.229-1.611,0.229c-1.535,0-2.718-0.628-2.718-2.255v-3.547h-1.475
		v-1.843h1.475v-2.21h2.302v2.21h2.027V239.497z"/>
	<path clip-path="url(#SVGID_7_)" fill="#BD1856" d="M-366.414,237.654h2.303v1.196h0.03c0.491-0.903,1.137-1.38,2.149-1.38
		c0.261,0,0.553,0.015,0.769,0.076v2.104c-0.322-0.093-0.645-0.154-0.983-0.154c-1.75,0-1.965,1.013-1.965,2.502v3.115h-2.303
		V237.654z"/>
	<path clip-path="url(#SVGID_7_)" fill="#BD1856" d="M-355.486,244.18h-0.028c-0.507,0.798-1.429,1.119-2.364,1.119
		c-1.397,0-2.657-0.797-2.657-2.301c0-2.58,3.133-2.626,5.05-2.626c0-0.813-0.673-1.336-1.471-1.336
		c-0.755,0-1.383,0.338-1.874,0.892l-1.229-1.26c0.845-0.798,2.073-1.197,3.286-1.197c2.687,0,3.408,1.366,3.408,3.854v3.79h-2.121
		V244.18z M-356.053,241.846c-0.707,0-2.271,0.061-2.271,1.075c0,0.552,0.583,0.812,1.091,0.812c0.904,0,1.747-0.474,1.747-1.396
		v-0.491H-356.053z"/>
	<path clip-path="url(#SVGID_7_)" fill="#BD1856" d="M-346.841,239.497h-2.027v2.486c0,0.799,0.092,1.382,1.089,1.382
		c0.246,0,0.738-0.03,0.938-0.214v1.918c-0.508,0.185-1.076,0.229-1.613,0.229c-1.534,0-2.717-0.628-2.717-2.255v-3.547h-1.474
		v-1.843h1.474v-2.21h2.303v2.21h2.027V239.497z"/>
	<path clip-path="url(#SVGID_7_)" fill="#BD1856" d="M-341.806,237.471c2.302,0,4.145,1.534,4.145,3.915
		c0,2.379-1.843,3.913-4.145,3.913c-2.304,0-4.146-1.534-4.146-3.913C-345.952,239.005-344.109,237.471-341.806,237.471
		 M-341.806,243.274c1.151,0,1.84-0.768,1.84-1.889s-0.688-1.889-1.84-1.889s-1.844,0.768-1.844,1.889
		S-342.957,243.274-341.806,243.274"/>
	<path clip-path="url(#SVGID_7_)" fill="#BD1856" d="M-328.481,245.114h-2.12v-0.981h-0.029c-0.353,0.538-1.244,1.166-2.288,1.166
		c-2.212,0-3.669-1.596-3.669-3.852c0-2.073,1.289-3.977,3.407-3.977c0.954,0,1.844,0.261,2.366,0.983h0.03v-4.945h2.303V245.114z
		 M-332.442,239.497c-1.151,0-1.842,0.768-1.842,1.888c0,1.122,0.69,1.89,1.842,1.89s1.841-0.768,1.841-1.89
		C-330.602,240.265-331.291,239.497-332.442,239.497"/>
	<path clip-path="url(#SVGID_7_)" fill="#BD1856" d="M-322.771,237.471c2.302,0,4.146,1.534,4.146,3.915
		c0,2.379-1.844,3.913-4.146,3.913c-2.303,0-4.146-1.534-4.146-3.913C-326.917,239.005-325.074,237.471-322.771,237.471
		 M-322.771,243.274c1.15,0,1.842-0.768,1.842-1.889s-0.691-1.889-1.842-1.889c-1.151,0-1.843,0.768-1.843,1.889
		S-323.923,243.274-322.771,243.274"/>
	<path clip-path="url(#SVGID_7_)" fill="#727176" d="M-458.581,253.006h2.119v0.982h0.03c0.352-0.537,1.243-1.167,2.287-1.167
		c2.211,0,3.67,1.596,3.67,3.854c0,2.073-1.289,3.978-3.408,3.978c-0.951,0-1.842-0.262-2.364-0.983h-0.03v4.299h-2.304V253.006z
		 M-454.62,258.624c1.151,0,1.842-0.767,1.842-1.89c0-1.118-0.69-1.887-1.842-1.887c-1.152,0-1.842,0.769-1.842,1.887
		C-456.462,257.857-455.772,258.624-454.62,258.624"/>
	<path clip-path="url(#SVGID_7_)" fill="#727176" d="M-444.442,259.53h-0.032c-0.506,0.799-1.428,1.122-2.363,1.122
		c-1.396,0-2.656-0.801-2.656-2.305c0-2.579,3.132-2.624,5.052-2.624c0-0.814-0.677-1.337-1.474-1.337
		c-0.753,0-1.384,0.339-1.874,0.892l-1.228-1.26c0.844-0.799,2.072-1.197,3.286-1.197c2.686,0,3.408,1.366,3.408,3.854v3.791h-2.119
		V259.53z M-445.01,257.197c-0.707,0-2.273,0.06-2.273,1.073c0,0.553,0.583,0.813,1.09,0.813c0.906,0,1.751-0.476,1.751-1.396v-0.49
		H-445.01z"/>
	<path clip-path="url(#SVGID_7_)" fill="#727176" d="M-440.881,253.006h2.303v1.197h0.029c0.492-0.906,1.137-1.382,2.15-1.382
		c0.261,0,0.552,0.015,0.767,0.077V255c-0.322-0.091-0.644-0.152-0.981-0.152c-1.75,0-1.965,1.013-1.965,2.504v3.114h-2.303V253.006
		z"/>
	<path clip-path="url(#SVGID_7_)" fill="#727176" d="M-429.951,259.53h-0.03c-0.507,0.799-1.428,1.122-2.365,1.122
		c-1.397,0-2.655-0.801-2.655-2.305c0-2.579,3.131-2.624,5.051-2.624c0-0.814-0.676-1.337-1.474-1.337
		c-0.753,0-1.382,0.339-1.874,0.892l-1.227-1.26c0.844-0.799,2.072-1.197,3.284-1.197c2.688,0,3.407,1.366,3.407,3.854v3.791h-2.117
		V259.53z M-430.52,257.197c-0.706,0-2.271,0.06-2.271,1.073c0,0.553,0.583,0.813,1.091,0.813c0.904,0,1.749-0.476,1.749-1.396
		v-0.49H-430.52z"/>
	<path clip-path="url(#SVGID_7_)" fill="#727176" d="M-417.165,259.53h-0.031c-0.505,0.799-1.427,1.122-2.363,1.122
		c-1.396,0-2.655-0.801-2.655-2.305c0-2.579,3.131-2.624,5.05-2.624c0-0.814-0.675-1.337-1.473-1.337
		c-0.754,0-1.382,0.339-1.874,0.892l-1.228-1.26c0.843-0.799,2.072-1.197,3.286-1.197c2.686,0,3.408,1.366,3.408,3.854v3.791h-2.12
		V259.53z M-417.732,257.197c-0.706,0-2.271,0.06-2.271,1.073c0,0.553,0.582,0.813,1.09,0.813c0.905,0,1.749-0.476,1.749-1.396
		v-0.49H-417.732z"/>
	<path clip-path="url(#SVGID_7_)" fill="#727176" d="M-413.603,253.006h2.303v1.197h0.028c0.493-0.906,1.138-1.382,2.152-1.382
		c0.26,0,0.551,0.015,0.766,0.077V255c-0.321-0.091-0.645-0.152-0.981-0.152c-1.75,0-1.965,1.013-1.965,2.504v3.114h-2.303V253.006z
		"/>
	<path clip-path="url(#SVGID_7_)" fill="#727176" d="M-407.355,253.006h2.211v1.013h0.03c0.308-0.583,1.06-1.197,2.181-1.197
		c1.045,0,1.903,0.429,2.303,1.337c0.538-0.953,1.259-1.337,2.365-1.337c2.025,0,2.641,1.429,2.641,3.241v4.403h-2.304v-4.344
		c0-0.689-0.261-1.274-1.013-1.274c-1.061,0-1.398,0.752-1.398,1.673v3.945h-2.302v-3.945c0-0.551,0.029-1.673-1.029-1.673
		c-1.198,0-1.382,0.936-1.382,1.904v3.714h-2.303V253.006z"/>
	<path clip-path="url(#SVGID_7_)" fill="#727176" d="M-389.316,259.53h-0.031c-0.508,0.799-1.428,1.122-2.366,1.122
		c-1.396,0-2.654-0.801-2.654-2.305c0-2.579,3.131-2.624,5.052-2.624c0-0.814-0.677-1.337-1.475-1.337
		c-0.752,0-1.381,0.339-1.874,0.892l-1.227-1.26c0.844-0.799,2.073-1.197,3.285-1.197c2.687,0,3.408,1.366,3.408,3.854v3.791h-2.118
		V259.53z M-389.887,257.197c-0.704,0-2.271,0.06-2.271,1.073c0,0.553,0.583,0.813,1.09,0.813c0.904,0,1.751-0.476,1.751-1.396
		v-0.49H-389.887z"/>
	<path clip-path="url(#SVGID_7_)" fill="#727176" d="M-385.757,253.006h2.304v1.197h0.029c0.492-0.906,1.137-1.382,2.149-1.382
		c0.261,0,0.554,0.015,0.769,0.077V255c-0.323-0.091-0.645-0.152-0.984-0.152c-1.747,0-1.963,1.013-1.963,2.504v3.114h-2.304
		V253.006z"/>
	<path clip-path="url(#SVGID_7_)" fill="#727176" d="M-367.903,259.177c-0.735,0.936-1.95,1.476-3.147,1.476
		c-2.302,0-4.145-1.536-4.145-3.918c0-2.377,1.843-3.913,4.145-3.913c2.15,0,3.502,1.536,3.502,3.913v0.722h-5.343
		c0.184,0.877,0.845,1.444,1.733,1.444c0.753,0,1.261-0.384,1.644-0.906L-367.903,259.177z M-369.854,255.893
		c0.018-0.769-0.582-1.413-1.411-1.413c-1.014,0-1.566,0.689-1.627,1.413H-369.854z"/>
	<polygon clip-path="url(#SVGID_7_)" fill="#727176" points="-366.938,253.006 -364.45,253.006 -362.56,258.071 -362.53,258.071 
		-360.781,253.006 -358.461,253.006 -361.408,260.466 -363.852,260.466 	"/>
	<path clip-path="url(#SVGID_7_)" fill="#727176" d="M-350.557,259.177c-0.736,0.936-1.949,1.476-3.146,1.476
		c-2.304,0-4.146-1.536-4.146-3.918c0-2.377,1.842-3.913,4.146-3.913c2.148,0,3.5,1.536,3.5,3.913v0.722h-5.343
		c0.185,0.877,0.844,1.444,1.735,1.444c0.752,0,1.259-0.384,1.643-0.906L-350.557,259.177z M-352.506,255.893
		c0.016-0.769-0.583-1.413-1.412-1.413c-1.015,0-1.568,0.689-1.628,1.413H-352.506z"/>
	<path clip-path="url(#SVGID_7_)" fill="#727176" d="M-348.806,253.006h2.21v1.013h0.031c0.308-0.583,1.06-1.197,2.179-1.197
		c2.334,0,2.763,1.536,2.763,3.53v4.114h-2.302v-3.652c0-0.86-0.015-1.966-1.197-1.966c-1.196,0-1.382,0.936-1.382,1.904v3.714
		h-2.302V253.006z"/>
	<path clip-path="url(#SVGID_7_)" fill="#727176" d="M-334.913,254.848h-2.027v2.486c0,0.8,0.093,1.382,1.089,1.382
		c0.246,0,0.737-0.03,0.938-0.214v1.919c-0.507,0.185-1.076,0.231-1.613,0.231c-1.534,0-2.718-0.63-2.718-2.258v-3.547h-1.474
		v-1.842h1.474v-2.211h2.304v2.211h2.027V254.848z"/>
	<path clip-path="url(#SVGID_7_)" fill="#727176" d="M-329.878,252.821c2.302,0,4.146,1.536,4.146,3.913
		c0,2.382-1.844,3.918-4.146,3.918c-2.303,0-4.146-1.536-4.146-3.918C-334.023,254.357-332.181,252.821-329.878,252.821
		 M-329.878,258.624c1.149,0,1.841-0.767,1.841-1.89c0-1.118-0.691-1.887-1.841-1.887c-1.151,0-1.844,0.769-1.844,1.887
		C-331.722,257.857-331.029,258.624-329.878,258.624"/>
	<path clip-path="url(#SVGID_7_)" fill="#727176" d="M-320.162,255.201c-0.338-0.416-0.783-0.63-1.336-0.63
		c-0.383,0-0.845,0.169-0.845,0.614c0,1.105,3.886,0.17,3.886,3.008c0,1.904-1.843,2.459-3.439,2.459
		c-1.044,0-2.195-0.262-2.932-1.016l1.397-1.551c0.428,0.522,0.936,0.814,1.626,0.814c0.522,0,1.044-0.138,1.044-0.536
		c0-1.199-3.885-0.186-3.885-3.026c0-1.75,1.567-2.517,3.133-2.517c0.983,0,2.072,0.246,2.762,0.983L-320.162,255.201z"/>
</g>
<g>
	<defs>
		<rect id="SVGID_8_" x="-656.107" y="95.562" width="365.041" height="282.076"/>
	</defs>
	<clipPath id="SVGID_9_">
		<use xlink:href="#SVGID_8_"  overflow="visible"/>
	</clipPath>
</g>
<g>
	
		<text transform="matrix(1.0059 0 0 1 189.5898 324.9277)" fill="#040600" font-family="'TimesNewRomanPS-BoldMT'" font-size="30.4895"> </text>
	<rect x="52.278" y="-0.554" fill="#C22821" width="248.806" height="351.55"/>
	<path fill="#FFFFFF" d="M253.455,121.953c0,42.045-35.229,76.086-78.704,76.086c-43.47,0-78.682-34.042-78.682-76.086
		c0-42.023,35.211-76.084,78.682-76.084C218.226,45.869,253.455,79.93,253.455,121.953z"/>
	<g>
		<g>
			<path fill="#C22821" d="M165.478,106.913c0,0,0.656-0.502,1.415-0.337c0.732,0.122,1.563,0.201,1.72,0.201
				c0.125,0,1.325,0.404,1.741,0.823c0.418,0.434,0.538,0.243,0.538,0.243s0.659,0.647,0.887,1.246
				c0.261,0.579,0.538,1.222,0.538,1.539c0,0.345,0.186,0.816,0.274,1.22c0.11,0.394,0,0.803,0,0.803s-0.13,2.686-0.162,3.9
				c-0.023,1.227-0.251,3.643-0.39,4.713c0,0-0.049,0.468,0,0.882c0.076,0.419,0,1.191-0.049,1.392c-0.037,0.187,0,1.034,0,1.196
				c0,0.165,0,0.531-0.037,0.834c-0.05,0.295,0.086,1.621,0.162,2.034c0.062,0.433-0.125,1.495-1.051,2.334
				c-0.965,0.823-2.327,1.836-3.953,1.631c-1.595-0.186-2.667-0.786-2.91-1.017c-0.233-0.221-0.408-0.55-0.651-0.776
				c-0.225-0.231-1.056-0.577-1.056-1.853c0-1.271,0.183-3.448,0.209-4.031c0.031-0.592,0.052-2.332,0.131-3.392
				c0.083-1.052,0.329-5.102,0.271-6.193c-0.026-1.066,0.094-4.124,0.351-4.638c0.235-0.478,0.136-0.62,0.136-0.842
				c0-0.231,0.301-0.295,0.476-0.792C164.22,107.553,165.025,106.777,165.478,106.913z"/>
			<path fill="#C22821" d="M178.209,120.229c0,0,0.12-3.908,0.12-5.619c0-1.695-0.075-2.593,0.063-2.923
				c0.106-0.327,0.52-1.77,0.52-2.157c0-0.341-0.151-1.646,0.209-1.946c0.382-0.299,0.633-0.456,0.565-0.616
				c-0.084-0.154,0.251-0.393,0.382-0.329c0.144,0.083,0.256,0.137,0.402,0c0.125-0.1,0.421-0.167,0.564-0.167
				c0.131,0,0.648-0.123,0.789-0.123c0.121,0,0.43-0.178,0.43-0.178l0.13-0.15c0,0,1.475,0.374,1.846,0.519
				c0.405,0.1,1.579,0.509,1.668,0.72c0.1,0.224,1.15,1.446,1.188,2.297c0.06,0.875,1.076,8.64,0.06,15.9
				c0,0-0.714,3.401-1.55,4.236c-0.806,0.833-2.479,2.108-4.602,1.815c-2.112-0.285-2.444-1.566-2.601-1.902
				c-0.184-0.303-0.944-2.553-0.656-4.044c0.324-1.502,0.392-2.025,0.429-3.343C178.17,120.913,178.209,120.229,178.209,120.229z"/>
			<path fill="#C22821" d="M154.73,134.457c0,0,3.859,5.476,5.346,6.82c1.508,1.334,3.553,2.892,4.479,3.221
				c0.962,0.327,4.585,1.212,5.458,1.44c0.92,0.26,3.31,0.494,4.737,0.388c1.438-0.097,4.339-0.388,5.212-0.575
				c0.91-0.186,2.023-0.284,4.826-2.019c2.776-1.744,4.439-2.833,5.71-4.221c1.307-1.413,2.144-2.812,2.695-3.751
				c0.541-0.962,1.199-3.124,1.394-3.278c0.183-0.128,0.234-0.534,0.549-0.393c0.293,0.159,0.677,0.3,0.677,0
				c0-0.27,0.332-0.664,0.332-0.664s0.868-0.277,1.066-0.277c0.193,0,0.764-0.095,0.764-0.366c0-0.208,0.094-0.42,0.094-0.42
				s0.199-0.182,0.146-0.419c-0.058-0.25-0.058-0.277,0.136-0.341c0.207-0.059,0.521-0.085,0.521-0.085l0.494-0.244
				c0,0,0.324,0.062,0.685,0.191c0.355,0.138,1.099,0.383,1.099,0.383s0,0.872,0.034,1.143c0.055,0.292,0.106,0.579-0.034,0.869
				c-0.149,0.302-0.304,0.689-0.304,0.689s-0.295,1.704-0.439,1.97c-0.161,0.224-0.454,0.957-0.574,1.144
				c-0.084,0.197-0.324,1.114-0.377,1.281c-0.052,0.196-0.444,1.449-0.583,1.649c-0.165,0.201-0.343,0.293-0.416,0.533
				c-0.041,0.229,0,0.521,0,0.521s-0.345-0.059-0.387,0.144c-0.047,0.212,0,0.267,0,0.43c0,0.147-0.397,1.19-0.706,1.536
				c-0.295,0.345-0.434,0.425-0.434,0.584c0,0.141-0.413,0.967-0.564,1.093c-0.146,0.15-0.552,0.589-0.552,0.589l-0.243,0.425
				l-0.748,0.355v0.228c0,0-0.931,1.236-1.087,1.296c-0.151,0.047-1.177,0.605-1.177,0.605s-0.209,0.112-0.251,0.313
				c-0.058,0.199-0.413,0.436-0.413,0.436l-1.145,0.808l-0.889,0.774l-0.952,0.662l-2.17,1.44c0,0-1.182,0.829-2.039,0.929
				c-0.842,0.09-1.589,0.327-1.851,0.365c-0.251,0.077-0.596,0.353-0.863,0.471c-0.225,0.163-0.334-0.028-0.87,0.269
				c-0.552,0.272-1.088,0.473-2.026,0.473c-0.946,0-1.302,0-1.508,0.09c-0.184,0.123-1.002,0.123-1.294,0.17
				c-0.282,0.038-0.837,0.08-1.041,0.14c-0.183,0.021-0.596,0.021-0.784,0.021c-0.193,0-0.648-0.123-0.941-0.123
				c-0.313,0-0.794,0.123-0.956,0.186c-0.137,0.051-0.795,0-0.795,0s-0.313-0.224-0.483-0.186c-0.223,0.042-0.714,0.042-1.018,0.042
				c-0.267,0-0.434-0.25-0.627-0.25c-0.207,0-0.546,0.054-0.695,0.054c-0.154,0-2.196-0.433-2.74-0.55
				c-0.549-0.173-3.126-1.224-3.663-1.464c-0.551-0.232-5.074-2.359-7.077-4.32c-1.979-1.971-5.709-5.925-6.214-7.016
				c-0.507-1.13-1.691-3.474-1.78-4.048c-0.11-0.574-0.492-2.928-0.403-3.753c0.1-0.829,0.1-1.812,0.1-2.012
				c0-0.179,0.193-0.49,0.193-0.49l0.264-0.182l0.039-0.334l0.392-0.18h0.418c0,0,0.319,0.319,0.486,0.419
				c0.131,0.095,0.549,0.33,0.952,0.44c0.403,0.097,1.616,0.416,1.94,0.654c0.282,0.246,1.087,0.678,1.231,0.91
				c0.149,0.265,1.147,1.174,1.147,1.454C154.234,133.837,154.553,134.305,154.73,134.457z"/>
			<path fill="#C22821" d="M233.843,109.992c-7.263-4.804-17-2.895-17-2.895c-0.85-2.812-6.69-10.308-6.69-10.308
				c1.972-10.248-1.558-21.573-1.558-21.573l-0.232-0.399c-0.309-2.626-2.351-7.926-2.351-7.926s-0.951,0.157-1.607,0.242
				c-0.628,0.101-2.51,1.255-3.512,1.978c-0.988,0.717-2.624,2.833-3.079,3.955c-0.45,1.067-1.788,3.442-1.788,3.442
				c-0.952-4.608-3.825-8.217-4.131-8.663c-0.293-0.419-1.545-1.818-1.977-2.197c-0.431-0.387-0.889,0.088-1.249,0.267
				c-0.348,0.204-0.811,0.161-0.962,0.076c-0.142-0.118-0.528,0.174-0.732,0.414c-0.178,0.256-0.455,0.401-0.7,0.563
				c-0.235,0.21-0.304,0.687-0.304,0.687c-1.035,0.263-0.031,2.125-0.413,2.02c-0.413-0.086-1.699,1.559-1.997,2.406
				c-0.298,0.851-0.993,6.393-0.993,6.393s-0.633-1.945-1.312-2.843c-0.659-0.884-2.641-4.844-3.451-6.026
				c-0.789-1.148-0.789-4.481-5.553-3.699c-4.768,0.758-4.203,9.725-4.203,9.725c-1.104-1.663-7.587-8.201-8.381-8.201
				c-0.8,0-4.653,2.575-5.035,3.583c-0.397,1.034,1.053,6.802,1.053,6.802l-7.809-5.624c0,0-3.307-3.337-5.96-0.894
				c-2.672,2.409-1.059,7.804-0.131,11.141c0.915,3.332,3.164,7.541,3.164,7.541l0.533,3.358l0.251,0.192
				c-2.039,1.095-9.241,9.501-9.241,9.501c-0.688-0.096-5.663-0.281-6.12-0.132c-0.434,0.132-3.54,0.037-3.54,0.037
				c-4.564,0.213-9.163,2.686-10.067,3.236c-0.897,0.505-3.825,3.494-4.186,3.975c-0.351,0.463-3.362,5.707-3.409,11.479
				c-0.052,5.766,2.058,8.9,6.753,12.308c4.661,3.414,12.53,2.97,12.53,2.97c0.497,3.029,2.065,7.073,4.209,12.21
				c2.144,5.158,8.099,9.887,8.611,10.541c0.494,0.606,4.549,3.103,4.904,3.398c0.361,0.278,3.137,1.979,3.479,2.102
				c0.353,0.159,1.702,0.871,2.481,1.191c0.805,0.353,2.293,1.094,5.872,2.434c3.576,1.323,3.783,0.801,3.783,0.801
				c1.896,0.521,7.443,1.45,7.443,1.45c0.201,0.282-0.094,3.985-0.199,4.895c-0.089,0.91-0.146,4.178-0.243,5.056
				c-0.123,0.85,0.097,6.382,0,7.796c-0.123,1.373,0.076,4.878,0.097,5.506c0.058,0.622,0.146,2.306-0.097,3.074
				c-0.256,0.781,0.076,1.495,0.076,1.495c2.969,0.622,14.514-0.324,14.514-0.518c0-0.196-0.026-0.444-0.026-0.758
				c0-0.351,0.084-0.653,0.026-1.046c-0.026-0.374-0.199-1.676-0.076-2.097c0.076-0.429,0.134-1.071,0.076-1.545
				c-0.026-0.473-0.12-1.637-0.076-2.078c0.05-0.408,0.209-1.187,0.254-1.624c0.058-0.41,0-3.26,0.058-3.461
				c0.028-0.181,0.271-1.205,0.136-1.436c-0.136-0.234,0.021-0.763,0.021-0.763l-0.021-1.108
				c-0.238-3.412,0.641-12.449,0.641-12.449s0.24,0,0.541,0c0.304,0,1.584-0.228,1.997-0.432c0.397-0.18,2.505-0.622,6.86-2.099
				c4.365-1.51,7.356-3.473,7.743-3.815c0.395-0.344,1.171-0.613,1.171-0.613c3.111-1.409,7.93-6.917,7.93-6.917
				c7.641-7.355,8.975-19.859,9.084-20.011c0.1-0.119,0.951,0.201,1.44,0.448c0.521,0.243,0.896,0.17,0.896,0.17l0.764,0.112
				l0.016,0.182c0,0,1.02,0.439,1.317,0.526c0.293,0.101,0.644,0.211,0.795,0.211c0.134,0,0.246-0.234,0.497-0.211
				c0.245,0.07,0.313,0.404,0.313,0.404s5.799-0.088,11.262-5.618C242.48,126.767,241.1,114.803,233.843,109.992z M128.039,131.233
				c0,0-0.35,0.216-1.208,0.093c-0.853-0.146-4.141-0.979-4.471-1.065c-0.366-0.111-2.698-0.926-3.634-2.226
				c-0.938-1.337-2.546-3.519-2.133-6.244c0.377-2.737,1.48-5.416,2.489-6.508c1.024-1.14,2.42-2.504,4.59-3.659
				c2.175-1.134,4.34-1.871,5.108-2.093c0.805-0.182,1.469-0.282,1.945-0.4c0.476-0.108,0.913-0.35,0.913-0.35
				s1.352-0.127,1.5-0.043C133.14,108.737,128.013,115.184,128.039,131.233z M199.293,89.682c0.073-0.31,0.397-4.677,0.703-6.081
				c0.312-1.37,0.761-2.917,0.761-2.917s0.282-1.164,0.686,0.247c0.402,1.389,0.778,5.915,0.287,10.382c0,0-0.884-0.112-1.239-0.301
				c-0.34-0.19-1.197-0.613-1.197-0.613S199.246,89.96,199.293,89.682z M188.271,80.207c0,0,1.066,1.676,1.066,2.059
				c0,0.388,0.617,2.11,0.659,2.74c0.058,0.621,0.324,3.162,0.324,3.162s-1.548,0.674-2.683-0.131
				C187.639,88.037,188.072,81.633,188.271,80.207z M176.644,87.062l-2.678-0.079c0,0-0.402-2.839-0.504-3.615
				c-0.097-0.749-0.254-4.5-0.254-4.5C174.751,80.534,176.644,87.062,176.644,87.062z M160.077,77.619c0,0,3.153,3.889,3.553,4.302
				c0.382,0.428,0.591,1.268,0.737,1.447c0.136,0.192,0.397,0.974,0.601,1.108c0.173,0.157,0.722,0.919,0.847,1.252
				c0.094,0.33,0.392,0.881,0.094,1.058c-0.288,0.197-0.392,0.095-0.941,0.095c-0.557,0-0.557-0.095-0.957,0.102
				c-0.382,0.186-0.585,0.238-0.821,0.238c-0.272,0-0.413-0.159-0.413-0.159s-0.303-1.574-1.192-4.353
				C160.686,79.927,159.849,77.844,160.077,77.619z M153.928,88.953l-2.8,1.25c0,0-1.171-5.437-1.814-6.197
				C149.314,84.005,152.598,86.355,153.928,88.953z M206.404,144.447c-3.697,6.332-5.71,7.412-6.159,7.847
				c-0.455,0.442-1.198,1.104-1.198,1.104l-0.747,0.384c0,0-3.478,2.013-5.163,2.916c-1.702,0.92-4.656,2.986-10.407,3.859
				c-5.679,0.856-5.788,0.612-6.884,0.813c-1.095,0.203-6.512,0.447-11.625-0.903c-5.105-1.348-7.544-2.323-8.005-2.545
				c-0.439-0.256-6.457-4.14-7.252-4.821c-0.794-0.661-3.83-3.177-5.03-5.33c-1.182-2.171-3.121-5.67-4.46-12.298
				c-1.364-6.631-0.852-17.02,4.073-24.286c4.931-7.233,5.375-6.812,5.767-7.444c0.402-0.595,0.601-0.566,0.889-0.777
				c0.309-0.17,1.087-0.61,1.328-0.947c0.251-0.327,1.6-1.199,1.924-1.38c0.282-0.196,1.328-1.1,1.83-1.303
				c0.492-0.206,1.877-0.821,2.086-0.89c0.175-0.043,2.138-0.548,2.374-0.697c0.251-0.162,1.093-0.386,1.093-0.386
				s-2.776,1.973-3.226,2.5c-0.449,0.525-0.999,1.05-0.999,1.05s-0.13,0.45-0.13,0.587c0,0.139-0.157,0.622-0.157,0.622
				s-0.35-0.244-0.35,0.294c0,0.519,0.151,0.732,0.151,0.732s-0.753,0.504-0.46,0.805c0.309,0.278,0.659,0.368,0.946,0.491
				c0.306,0.154,0.662,0.408,0.934,0.744c0.311,0.34,1.568,1.063,2.606,0.865c1.03-0.18,2.416-0.69,4.214-2.2
				c1.796-1.562,2.384-1.784,2.821-1.835c0.473-0.036,0.761-0.1,0.965-0.38c0.19-0.276,4.867-2.509,6.311-2.871
				c1.433-0.394,10.559-4.195,21.813,1.352c0,0,4.518,2.236,7.5,6.849c0,0,3.161,3.562,5.613,14.513
				C209.39,121.482,210.152,138.1,206.404,144.447z M220.5,132.249c1.877-8.269-0.889-18.39-0.889-18.39s3.659-0.353,7.989,1.772
				c4.36,2.107,4.234,6.617,4.234,6.617C232.301,129.846,220.5,132.249,220.5,132.249z"/>
		</g>
	</g>
	<g>
		<g>
			<g>
				<path fill="#FFFFFF" d="M83.137,243.022v-0.988c0.842-0.5,1.454-0.873,1.809-1.114c0.199-2.222,0.283-6.37,0.283-12.465
					c0-2.616-0.032-4.814-0.084-6.582c-0.073-1.777-0.157-2.779-0.261-3.027c-0.047-0.142-0.141-0.22-0.235-0.288
					c-0.199-0.106-1.083-0.259-2.695-0.446v-1.548c1.848,0.065,3.971,0.102,6.368,0.102l9.059-0.102
					c3.283,0,5.796,0.426,7.492,1.291c1.715,0.845,3.051,2.146,4.068,3.911c1.009,1.77,1.5,3.914,1.5,6.429
					c0,3.216-0.774,5.991-2.368,8.35c-1.553,2.351-3.461,3.997-5.72,4.99c-2.238,1.007-4.661,1.488-7.223,1.488l-6.957-0.11
					C87.05,242.912,85.37,242.985,83.137,243.022z M90.603,240.717c1.041,0.203,2.086,0.282,3.182,0.282
					c2.706,0,4.797-0.397,6.235-1.197c1.443-0.816,2.593-2.123,3.487-3.964c0.874-1.835,1.333-4.114,1.333-6.76
					c0-3.52-0.881-6.183-2.667-8.042c-1.537-1.621-4.078-2.437-7.613-2.437c-0.758,0-2.06,0.053-3.958,0.168l-0.154,11.774
					C90.449,235.524,90.514,238.915,90.603,240.717z"/>
				<path fill="#FFFFFF" d="M113.235,243.022v-1.535c1.377-0.039,2.18-0.139,2.376-0.264c0.22-0.131,0.356-0.476,0.424-1.062
					c0.073-0.784,0.146-2.544,0.146-5.268c0-1.174,0-2.256-0.073-3.247l-0.037-2.225c0-0.742-0.084-1.194-0.22-1.362
					c-0.162-0.167-0.596-0.259-1.239-0.29l-1.377-0.058v-1.419c2.946-0.233,5.37-0.761,7.307-1.608l0.444,0.377
					c-0.17,2.405-0.256,5.916-0.256,10.52c0,2.68,0.032,4.256,0.126,4.795c0.047,0.402,0.172,0.669,0.355,0.784
					c0.151,0.109,0.954,0.222,2.405,0.326v1.535c-2.217-0.037-3.937-0.11-5.129-0.11
					C117.823,242.912,116.076,242.985,113.235,243.022z M118.356,215.688c0.79,0,1.454,0.288,2.008,0.876
					c0.564,0.557,0.847,1.266,0.847,2.073c0,0.797-0.283,1.5-0.847,2.06c-0.554,0.578-1.239,0.86-2.016,0.86
					c-0.792,0-1.467-0.282-2.052-0.86c-0.543-0.56-0.794-1.263-0.794-2.06c0-0.808,0.251-1.517,0.794-2.073
					C116.881,215.976,117.556,215.688,118.356,215.688z"/>
				<path fill="#FFFFFF" d="M129.213,243.417l-0.875-0.348c0.214-3.064,0.319-7.283,0.319-12.669c0-2.421-0.031-4.318-0.076-5.636
					l-0.091-4.868c0-0.734-0.073-1.244-0.178-1.469c-0.104-0.168-0.246-0.285-0.471-0.33c-0.146-0.036-0.871-0.112-2.133-0.156
					v-1.378c0.68,0,1.728-0.149,3.216-0.432c1.458-0.282,2.546-0.564,3.286-0.862l0.803-0.298c0.219,0,0.334,0.151,0.334,0.462
					l-0.026,1.977c-0.031,0.688-0.078,4.238-0.12,10.685l2.193-1.903c0.724-0.593,1.331-1.014,1.885-1.21
					c0.557-0.186,1.229-0.296,2.002-0.296c2.071,0,3.712,0.667,4.941,2.008c1.226,1.367,1.849,3.13,1.849,5.291
					c0,1.075-0.162,2.165-0.494,3.323c-0.372,1.132-0.779,2.052-1.286,2.787c-0.494,0.719-1.15,1.352-1.966,1.9
					c-1.02,0.674-1.887,1.291-2.585,1.83c-0.839,0.672-1.555,1.087-2.125,1.278c-0.58,0.206-1.283,0.313-2.107,0.313
					c-0.831,0-1.584-0.107-2.29-0.313c-0.724-0.218-1.521-0.597-2.4-1.169C130.518,242.167,129.968,242.664,129.213,243.417z
					 M133.2,230.092v8.646c0.444,0.692,0.983,1.227,1.624,1.571c0.614,0.345,1.336,0.521,2.141,0.521
					c1.312,0,2.348-0.541,3.147-1.59c0.784-1.09,1.215-2.722,1.215-4.912c0-2.044-0.431-3.613-1.236-4.664
					c-0.821-1.04-1.882-1.568-3.215-1.568c-0.706,0-1.37,0.165-1.99,0.497C134.292,228.947,133.709,229.423,133.2,230.092z"/>
				<path fill="#FFFFFF" d="M148.632,227.771v-1.427c1.942-0.194,3.756-0.57,5.414-1.093l1.812-0.681
					c0.196,0,0.313,0.157,0.313,0.445l-0.044,1.118c-0.17,2.887-0.269,5.671-0.269,8.34c0,1.73,0.099,2.886,0.259,3.464
					c0.178,0.578,0.491,1.022,0.92,1.336c0.445,0.324,1.051,0.46,1.81,0.46c0.878,0,1.631-0.251,2.29-0.727
					c0.669-0.491,1.066-1.038,1.223-1.616c0.152-0.601,0.225-2.284,0.225-5.045c0-2.228-0.032-3.517-0.11-3.906
					c-0.037-0.188-0.136-0.345-0.256-0.421c-0.183-0.089-1.02-0.186-2.531-0.248v-1.427c2.515-0.304,4.34-0.654,5.511-1.033
					l1.935-0.74c0.214,0,0.292,0.157,0.292,0.411v0.51c-0.196,2.186-0.303,6.169-0.303,11.899c0,1.768,0.058,2.876,0.146,3.326
					c0.055,0.219,0.157,0.365,0.313,0.449c0.181,0.12,0.931,0.22,2.28,0.321v1.535c-1.401-0.037-2.787-0.11-4.162-0.11
					c-1.108,0-2.162,0.073-3.116,0.11l-0.146-0.335c0.037-0.622,0.102-1.615,0.146-2.97c-1.135,0.943-2.233,1.971-3.326,3.116
					c-0.842,0.4-1.725,0.583-2.551,0.583c-1.124,0-2.118-0.225-2.957-0.709c-0.829-0.449-1.438-1.045-1.843-1.806
					c-0.408-0.767-0.601-1.802-0.601-3.161l0.026-2.052c0.068-1.273,0.068-2.285,0.068-3.082c0-2.251-0.052-3.566-0.13-4.016
					c-0.058-0.293-0.183-0.497-0.387-0.612C150.699,227.862,149.952,227.771,148.632,227.771z"/>
				<path fill="#FFFFFF" d="M171.47,253.024l-0.434-1.487l0.18-0.107c0.497,0.047,0.823,0.062,0.993,0.062
					c0.519,0,1.018-0.248,1.459-0.734c0.575-0.651,0.946-1.83,1.104-3.506c0.178-1.663,0.259-4.909,0.259-9.777
					c0-2.259-0.019-4.653-0.081-7.221c-0.039-1.14-0.1-1.84-0.193-2.102c-0.084-0.134-0.199-0.223-0.335-0.287
					c-0.172-0.032-0.925-0.095-2.324-0.152v-1.419c2.382-0.27,4.332-0.614,5.843-1.069l1.771-0.539c0.17,0,0.243,0.087,0.243,0.27
					l-0.026,0.479c-0.159,2.907-0.225,6.348-0.24,10.353c0,4.106-0.026,6.562-0.089,7.391c-0.137,2.106-0.508,3.874-1.15,5.314
					c-0.622,1.451-1.495,2.572-2.606,3.38c-1.106,0.792-2.193,1.2-3.25,1.2C172.33,253.071,171.942,253.066,171.47,253.024z
					 M177.354,215.688c0.792,0,1.477,0.288,2.052,0.876c0.547,0.557,0.824,1.266,0.824,2.073c0,0.797-0.277,1.5-0.824,2.06
					c-0.575,0.578-1.26,0.86-2.052,0.86c-0.79,0-1.459-0.282-2.003-0.86c-0.58-0.56-0.842-1.263-0.842-2.06
					c0-0.808,0.262-1.493,0.842-2.073C175.896,215.976,176.564,215.688,177.354,215.688z"/>
				<path fill="#FFFFFF" d="M201.725,241.487v1.535l-1.407-0.037c-0.769-0.062-1.495-0.073-2.248-0.073
					c-1.171,0-2.232,0.073-3.263,0.11l-0.198-0.188l0.162-2.611l-3.833,2.954c-0.682,0.164-1.296,0.24-1.819,0.24
					c-1.297,0-2.316-0.395-3.021-1.185c-0.703-0.805-1.052-1.95-1.052-3.479c0-1.874,0.492-3.202,1.438-3.95
					c1.275-1.014,4.01-1.9,8.287-2.708c-0.019-1.479-0.267-2.547-0.732-3.216c-0.664-0.931-1.725-1.38-3.11-1.38
					c-0.335,0-0.672,0.034-1.02,0.125c-0.346,0.073-0.686,0.209-1.03,0.355l-0.853,2.045l-1.265-0.324l0.041-0.855l-0.031-0.826
					l-0.01-0.745c1.879-1.213,3.221-1.937,4.036-2.248c0.606-0.225,1.428-0.34,2.499-0.34c1.456,0,2.619,0.251,3.514,0.667
					c0.904,0.463,1.573,1.069,1.981,1.832c0.426,0.764,0.612,1.894,0.612,3.357c0,0.617-0.017,1.741-0.068,3.314
					c-0.042,1.637-0.081,2.965-0.081,3.938c0,1.584,0.058,2.557,0.133,2.875c0.056,0.196,0.162,0.377,0.364,0.492
					C199.952,241.271,200.595,241.383,201.725,241.487z M194.771,233.744c-2.159,0.479-3.54,0.991-4.209,1.576
					c-0.628,0.521-0.965,1.286-0.965,2.228c0,0.758,0.201,1.367,0.609,1.804c0.418,0.45,0.936,0.67,1.584,0.67
					c0.983,0,1.972-0.575,2.98-1.674V233.744z"/>
				<path fill="#FFFFFF" d="M203.727,243.022v-1.535c1.344-0.06,2.092-0.175,2.274-0.326c0.178-0.146,0.267-0.484,0.324-0.976
					c0.045-1.271,0.07-3.519,0.07-6.744c0-1.603-0.002-2.965-0.036-4.134c-0.019-0.7-0.081-1.105-0.134-1.241
					c-0.057-0.087-0.172-0.173-0.313-0.228c-0.12-0.037-0.854-0.084-2.186-0.126v-1.419c0.678,0,1.702-0.16,3.111-0.442
					c1.398-0.293,2.572-0.627,3.545-0.993l0.486-0.173c0.167,0,0.262,0.145,0.262,0.45l-0.037,0.159
					c-0.005,0.355-0.026,1.263-0.026,2.724l2.839-2.46c0.356-0.308,0.737-0.533,1.109-0.622c0.533-0.172,1.202-0.251,1.966-0.251
					c1.307,0,2.357,0.251,3.179,0.683c0.815,0.471,1.443,1.116,1.819,1.905c0.393,0.821,0.586,2.097,0.586,3.786
					c0,0.779-0.031,1.654-0.084,2.641c-0.053,2.049-0.073,3.806-0.073,5.307c0,0.831,0.073,1.422,0.193,1.757
					c0.094,0.235,0.24,0.379,0.413,0.426c0.167,0.097,0.837,0.193,2.008,0.298v1.535l-2.27-0.037l-1.433-0.073l-3.801,0.11
					l-0.198-0.246c0.313-2.399,0.476-4.839,0.476-7.346c0-3.189-0.191-5.161-0.555-5.9c-0.502-0.946-1.401-1.436-2.688-1.436
					c-0.826,0-1.558,0.22-2.144,0.651c-0.625,0.444-1.021,0.896-1.202,1.398c-0.095,0.193-0.142,0.834-0.142,1.903
					c0,4.559,0.021,7.176,0.063,7.829c0.025,0.664,0.133,1.064,0.298,1.216c0.235,0.193,1.082,0.335,2.53,0.395v1.535
					c-2.148-0.037-3.942-0.11-5.427-0.11C207.658,242.912,206.054,242.985,203.727,243.022z"/>
				<path fill="#FFFFFF" d="M240.724,225.502v-3.263c0-2.014-0.031-3.18-0.136-3.504c-0.047-0.232-0.188-0.392-0.33-0.502
					c-0.186-0.091-1.006-0.136-2.473-0.172v-1.396c2.907-0.318,5.37-0.936,7.336-1.814l0.471,0.466
					c-0.11,2.023-0.184,3.95-0.199,5.743l-0.131,14.815c0,2.507,0.037,4.002,0.142,4.554c0.042,0.335,0.167,0.57,0.345,0.695
					c0.204,0.146,0.946,0.259,2.256,0.363v1.535c-1.492-0.037-2.956-0.11-4.404-0.11c-1.015,0-1.981,0.073-2.876,0.11l-0.324-0.223
					c0.142-1.275,0.277-2.311,0.324-3.082c-0.837,0.633-2.151,1.752-3.984,3.305c-0.68,0.259-1.338,0.395-1.95,0.395
					c-2.028,0-3.732-0.782-5.066-2.335c-1.369-1.553-2.033-3.607-2.033-6.188c0-1.273,0.146-2.395,0.418-3.42
					c0.246-1.02,0.591-1.812,0.962-2.313c0.353-0.507,1.124-1.182,2.254-1.981c1.531-1.098,2.624-1.777,3.356-2.06
					c0.685-0.29,1.459-0.435,2.29-0.435c0.596,0,1.208,0.063,1.835,0.184C239.422,225.021,240.072,225.225,240.724,225.502z
					 M240.724,229.509c-0.583-0.844-1.221-1.477-1.961-1.885c-0.716-0.405-1.526-0.627-2.431-0.627c-1.239,0-2.223,0.46-2.871,1.401
					c-0.674,0.901-1.014,2.454-1.014,4.647c0,2.246,0.407,3.924,1.233,5.02c0.821,1.108,1.877,1.668,3.146,1.668
					c0.881,0,1.676-0.256,2.407-0.773c0.753-0.518,1.166-0.991,1.308-1.412c0.136-0.444,0.183-2.055,0.183-4.878V229.509z"/>
				<path fill="#FFFFFF" d="M250.448,234.065c0-2.985,0.686-5.221,2.034-6.724c1.652-1.762,4.005-2.656,7.071-2.656
					c3.093,0,5.331,0.717,6.748,2.144c1.401,1.423,2.112,3.671,2.112,6.714c0,3.163-0.801,5.595-2.439,7.304
					c-1.639,1.716-3.893,2.57-6.789,2.57c-2.85,0-5.02-0.798-6.525-2.402C251.188,239.433,250.448,237.088,250.448,234.065z
					 M255.53,232.771c0,3.344,0.429,5.712,1.261,7.147c0.643,1.085,1.631,1.632,2.938,1.632c1.155,0,2.039-0.469,2.666-1.415
					c0.633-0.896,0.941-2.588,0.941-5.029c0-3.383-0.371-5.71-1.161-7.012c-0.622-1.027-1.595-1.537-2.943-1.537
					c-1.14,0-2.065,0.466-2.703,1.422C255.85,228.91,255.53,230.5,255.53,232.771z"/>
			</g>
			<g>
				<path fill="#FFFFFF" d="M80.92,266.43v-1.448c1.929-0.178,3.749-0.538,5.422-1.077l1.793-0.661c0.209,0,0.309,0.157,0.309,0.427
					l-0.052,1.116c-0.157,2.889-0.256,5.665-0.256,8.362c0,1.733,0.1,2.887,0.256,3.456c0.183,0.562,0.481,0.999,0.938,1.312
					c0.447,0.313,1.056,0.476,1.812,0.476c0.857,0,1.626-0.264,2.301-0.724c0.643-0.502,1.051-1.033,1.208-1.632
					c0.152-0.572,0.22-2.261,0.22-5.04c0-2.22-0.031-3.519-0.104-3.9c-0.037-0.201-0.141-0.345-0.264-0.421
					c-0.175-0.104-1.03-0.173-2.502-0.246v-1.448c2.494-0.282,4.309-0.606,5.498-1.02l1.942-0.719c0.193,0,0.324,0.139,0.324,0.385
					l-0.058,0.512c-0.193,2.181-0.288,6.154-0.288,11.903c0,1.777,0.052,2.883,0.167,3.338c0.047,0.212,0.133,0.371,0.282,0.45
					c0.188,0.102,0.938,0.217,2.285,0.318v1.553c-1.404-0.094-2.784-0.12-4.157-0.12c-1.122,0-2.165,0.026-3.09,0.12l-0.178-0.357
					c0.052-0.633,0.097-1.608,0.141-2.968c-1.129,0.938-2.24,1.987-3.299,3.116c-0.873,0.379-1.736,0.589-2.578,0.589
					c-1.119,0-2.118-0.243-2.938-0.696c-0.826-0.473-1.464-1.09-1.84-1.821c-0.434-0.748-0.63-1.794-0.63-3.158l0.039-2.061
					c0.047-1.265,0.081-2.284,0.081-3.084c0-2.228-0.052-3.571-0.154-3.995c-0.052-0.298-0.172-0.515-0.369-0.617
					C82.985,266.519,82.24,266.453,80.92,266.43z"/>
				<path fill="#FFFFFF" d="M103.831,281.702v-1.553c1.318-0.065,2.068-0.178,2.254-0.332c0.154-0.133,0.261-0.473,0.287-0.975
					c0.089-1.276,0.125-3.529,0.125-6.745c0-1.595-0.016-2.965-0.065-4.114c-0.029-0.712-0.086-1.148-0.139-1.255
					c-0.079-0.121-0.157-0.162-0.303-0.226c-0.136-0.05-0.853-0.089-2.16-0.125v-1.438c0.648,0,1.689-0.137,3.08-0.421
					c1.401-0.309,2.602-0.617,3.529-1.002l0.513-0.178c0.162,0,0.251,0.162,0.251,0.424l-0.024,0.181
					c-0.018,0.348-0.023,1.263-0.023,2.731l2.839-2.465c0.353-0.307,0.716-0.518,1.098-0.625c0.518-0.178,1.197-0.246,1.971-0.246
					c1.292,0,2.358,0.246,3.184,0.706c0.821,0.452,1.428,1.096,1.804,1.908c0.387,0.798,0.604,2.07,0.604,3.783
					c0,0.75-0.06,1.637-0.07,2.622c-0.073,2.06-0.104,3.814-0.104,5.302c0,0.842,0.044,1.435,0.188,1.746
					c0.1,0.246,0.241,0.368,0.421,0.481c0.181,0.044,0.844,0.159,2.016,0.261v1.553l-2.267-0.094l-1.44-0.026l-3.798,0.12
					l-0.201-0.251c0.329-2.402,0.489-4.847,0.489-7.356c0-3.205-0.207-5.165-0.575-5.897c-0.473-0.973-1.391-1.445-2.695-1.445
					c-0.816,0-1.553,0.232-2.172,0.646c-0.594,0.449-0.986,0.909-1.168,1.396c-0.097,0.21-0.121,0.86-0.121,1.935
					c0,4.528,0.005,7.147,0.047,7.794c0.037,0.671,0.146,1.09,0.308,1.23c0.235,0.181,1.067,0.332,2.515,0.397v1.553
					c-2.123-0.094-3.963-0.12-5.412-0.12C107.727,281.582,106.137,281.608,103.831,281.702z"/>
				<path fill="#FFFFFF" d="M132.541,281.702v-1.553l1.087-0.065c0.892-0.06,1.443-0.228,1.673-0.473
					c0.225-0.29,0.371-1.197,0.379-2.758c0.076-3.099,0.123-6.479,0.123-10.102c0-1.908,0-4.107-0.021-6.564
					c-0.037-1.454-0.11-2.379-0.256-2.719c-0.079-0.146-0.209-0.282-0.408-0.385c-0.204-0.083-1.083-0.212-2.627-0.332v-1.516
					c1.477,0.013,2.902,0.028,4.348,0.028c1.647,0,3.229-0.016,4.742-0.028c0.674,1.589,1.375,3.157,2.102,4.729
					c0.479,1.124,2.714,5.874,6.682,14.234c4.162-8.596,7.08-14.916,8.742-18.963c1.469,0.047,2.886,0.094,4.193,0.094
					c1.561,0,3.064-0.047,4.533-0.094v1.516c-1.652,0.104-2.557,0.257-2.766,0.439c-0.207,0.201-0.345,0.784-0.405,1.762
					c-0.07,1.595-0.086,4.617-0.086,9.066c0,2.214,0,4.585,0.032,7.069c0.042,2.493,0.115,3.916,0.243,4.256
					c0.086,0.188,0.217,0.34,0.376,0.431c0.165,0.123,1.024,0.233,2.606,0.374v1.553c-2.002-0.094-3.775-0.12-5.322-0.12
					c-1.574,0-3.702,0.026-6.384,0.12v-1.553l1.062-0.039c0.847-0.026,1.359-0.144,1.558-0.358c0.23-0.22,0.382-0.763,0.439-1.668
					c0.057-0.896,0.073-2.995,0.073-6.273v-11.409c-1.887,3.891-4.292,9.015-7.197,15.325c-1.216,2.591-2.172,4.711-2.831,6.355
					h-1.171c-0.905-2.184-2.151-4.915-3.686-8.215l-6.4-13.466v2.557c0,7.098,0.047,11.994,0.131,14.669
					c0.037,1.108,0.172,1.78,0.418,2.026c0.246,0.256,1.155,0.431,2.742,0.496v1.553c-1.255-0.094-2.51-0.12-3.754-0.12
					C135.649,281.582,134,281.608,132.541,281.702z"/>
				<path fill="#FFFFFF" d="M186.745,280.149v1.553l-1.44-0.067c-0.728-0.042-1.504-0.053-2.23-0.053
					c-1.14,0-2.245,0.026-3.283,0.12l-0.178-0.209l0.154-2.63l-3.841,2.954c-0.669,0.176-1.281,0.265-1.793,0.265
					c-1.312,0-2.301-0.411-3.007-1.188c-0.719-0.797-1.077-1.947-1.077-3.469c0-1.896,0.477-3.205,1.47-3.963
					c1.208-1.018,4.005-1.903,8.248-2.698c-0.014-1.49-0.265-2.567-0.74-3.242c-0.669-0.915-1.699-1.367-3.101-1.367
					c-0.334,0-0.669,0.034-1.017,0.123c-0.338,0.078-0.698,0.199-1.049,0.371l-0.82,2.023l-1.281-0.318l0.047-0.85l-0.036-0.829
					l-0.011-0.742c1.877-1.197,3.242-1.945,4.047-2.24c0.606-0.243,1.433-0.348,2.483-0.348c1.464,0,2.62,0.225,3.54,0.661
					c0.894,0.465,1.563,1.077,1.971,1.835c0.429,0.766,0.638,1.893,0.638,3.359c0,0.633-0.025,1.726-0.099,3.299
					c-0.053,1.663-0.058,2.965-0.058,3.964c0,1.589,0.031,2.53,0.112,2.881c0.044,0.188,0.183,0.35,0.371,0.473
					C184.948,279.914,185.61,280.048,186.745,280.149z M179.768,272.411c-2.152,0.477-3.556,0.988-4.204,1.556
					c-0.653,0.57-0.965,1.289-0.965,2.243c0,0.771,0.209,1.356,0.633,1.807c0.402,0.432,0.936,0.669,1.574,0.669
					c0.956,0,1.974-0.588,2.962-1.684V272.411z"/>
				<path fill="#FFFFFF" d="M188.387,281.702v-1.553c1.317-0.065,2.075-0.178,2.237-0.332c0.184-0.133,0.277-0.473,0.313-0.975
					c0.068-1.276,0.115-3.529,0.115-6.745c0-1.595-0.021-2.965-0.052-4.114c-0.042-0.712-0.073-1.141-0.157-1.255
					c-0.047-0.121-0.157-0.162-0.287-0.226c-0.142-0.05-0.855-0.089-2.17-0.125v-1.438c0.658,0,1.686-0.137,3.074-0.421
					c1.406-0.309,2.58-0.617,3.539-1.002l0.492-0.172c0.183,0,0.256,0.156,0.256,0.418v0.181c-0.031,0.348-0.052,1.263-0.052,2.731
					l2.844-2.465c0.351-0.307,0.714-0.518,1.104-0.625c0.546-0.178,1.202-0.24,1.974-0.24c1.312,0,2.366,0.24,3.176,0.7
					c0.821,0.452,1.433,1.096,1.83,1.908c0.377,0.798,0.57,2.07,0.57,3.783c0,0.75-0.011,1.637-0.068,2.622
					c-0.062,2.06-0.083,3.814-0.083,5.302c0,0.842,0.065,1.435,0.188,1.746c0.103,0.246,0.246,0.368,0.408,0.481
					c0.198,0.044,0.862,0.159,2.019,0.261v1.553l-2.259-0.094l-1.459-0.026l-3.788,0.12l-0.201-0.251
					c0.318-2.402,0.483-4.847,0.483-7.356c0-3.205-0.183-5.165-0.572-5.897c-0.476-0.973-1.381-1.445-2.669-1.445
					c-0.834,0-1.556,0.232-2.178,0.646c-0.602,0.449-0.999,0.909-1.177,1.396c-0.089,0.21-0.141,0.86-0.141,1.935
					c0,4.528,0.021,7.147,0.052,7.794c0.058,0.671,0.134,1.09,0.316,1.23c0.228,0.181,1.069,0.332,2.518,0.397v1.553
					c-2.128-0.094-3.947-0.12-5.422-0.12C192.287,281.582,190.687,281.608,188.387,281.702z M193.155,260.763h-1.344
					c0.8-2.918,2.258-4.397,4.407-4.397c0.473,0,0.967,0.065,1.495,0.204c0.51,0.12,1.37,0.432,2.625,0.889
					c0.978,0.387,1.668,0.567,2.125,0.567c0.521,0,0.929-0.112,1.237-0.345c0.313-0.223,0.627-0.72,0.946-1.473h1.218
					c-0.742,2.929-2.17,4.395-4.267,4.395c-0.853,0-1.969-0.292-3.411-0.875c-1.188-0.528-2.084-0.774-2.695-0.774
					c-0.564,0-1.03,0.123-1.381,0.395C193.74,259.602,193.427,260.072,193.155,260.763z"/>
				<path fill="#FFFFFF" d="M228.107,280.149v1.553l-1.438-0.067c-0.762-0.042-1.482-0.053-2.228-0.053
					c-1.155,0-2.254,0.026-3.281,0.12l-0.186-0.209l0.146-2.63l-3.816,2.954c-0.68,0.176-1.308,0.265-1.81,0.265
					c-1.307,0-2.301-0.411-3.027-1.188c-0.69-0.797-1.062-1.947-1.062-3.469c0-1.896,0.471-3.205,1.451-3.963
					c1.268-1.018,4.002-1.903,8.264-2.698c0-1.49-0.251-2.567-0.722-3.242c-0.683-0.915-1.694-1.367-3.105-1.367
					c-0.355,0-0.669,0.034-1.02,0.123c-0.346,0.078-0.69,0.201-1.041,0.371l-0.831,2.023l-1.299-0.318l0.055-0.85l-0.031-0.829
					l-0.023-0.742c1.897-1.197,3.229-1.945,4.064-2.24c0.591-0.243,1.417-0.348,2.468-0.348c1.465,0,2.644,0.225,3.54,0.661
					c0.904,0.465,1.574,1.077,1.981,1.835c0.439,0.766,0.617,1.893,0.617,3.359c0,0.633-0.003,1.726-0.062,3.299
					c-0.047,1.663-0.079,2.965-0.079,3.964c0,1.589,0.032,2.53,0.139,2.881c0.029,0.188,0.136,0.35,0.343,0.473
					C226.313,279.914,226.968,280.048,228.107,280.149z M221.122,272.411c-2.139,0.477-3.545,0.988-4.183,1.556
					c-0.664,0.57-0.996,1.289-0.996,2.248c0,0.767,0.228,1.352,0.641,1.802c0.413,0.432,0.936,0.669,1.584,0.669
					c0.957,0,1.945-0.588,2.954-1.684V272.411z"/>
				<path fill="#FFFFFF" d="M229.736,281.702v-1.553c1.32-0.065,2.099-0.178,2.24-0.332c0.167-0.133,0.267-0.473,0.329-0.975
					c0.078-1.276,0.084-3.529,0.084-6.745c0-1.595-0.006-2.965-0.037-4.114c-0.028-0.712-0.073-1.141-0.141-1.255
					c-0.068-0.121-0.17-0.162-0.304-0.226c-0.141-0.05-0.865-0.089-2.172-0.125v-1.438c0.65,0,1.696-0.137,3.087-0.421
					c1.401-0.309,2.578-0.617,3.534-1.002l0.481-0.172c0.178,0,0.267,0.156,0.267,0.418l-0.005,0.181
					c-0.042,0.348-0.042,1.263-0.042,2.731l2.839-2.465c0.36-0.307,0.722-0.518,1.119-0.625c0.518-0.178,1.168-0.24,1.955-0.24
					c1.292,0,2.348,0.24,3.174,0.7c0.831,0.452,1.428,1.096,1.81,1.908c0.402,0.798,0.591,2.07,0.591,3.783
					c0,0.75-0.019,1.637-0.056,2.622c-0.058,2.06-0.106,3.814-0.106,5.302c0,0.842,0.073,1.435,0.209,1.746
					c0.094,0.246,0.22,0.368,0.405,0.481c0.188,0.044,0.834,0.159,1.989,0.261v1.553l-2.24-0.094l-1.462-0.026l-3.774,0.12
					l-0.188-0.251c0.303-2.402,0.465-4.847,0.465-7.356c0-3.205-0.198-5.165-0.574-5.897c-0.481-0.973-1.376-1.445-2.672-1.445
					c-0.832,0-1.553,0.232-2.165,0.646c-0.627,0.449-0.993,0.909-1.187,1.396c-0.089,0.21-0.131,0.86-0.131,1.935
					c0,4.528,0.005,7.147,0.047,7.794c0.047,0.671,0.146,1.09,0.324,1.23c0.23,0.181,1.072,0.332,2.51,0.397v1.553
					c-2.154-0.094-3.953-0.12-5.438-0.12C233.634,281.582,232.042,281.608,229.736,281.702z"/>
				<path fill="#FFFFFF" d="M269.423,280.149v1.553l-1.396-0.067c-0.731-0.042-1.484-0.053-2.245-0.053
					c-1.153,0-2.246,0.026-3.275,0.12l-0.173-0.209l0.167-2.63l-3.858,2.954c-0.664,0.176-1.278,0.265-1.799,0.265
					c-1.296,0-2.311-0.411-3.012-1.188c-0.708-0.797-1.061-1.947-1.061-3.469c0-1.896,0.478-3.205,1.433-3.963
					c1.254-1.018,4.021-1.903,8.297-2.698c-0.025-1.49-0.287-2.567-0.753-3.242c-0.669-0.915-1.704-1.367-3.105-1.367
					c-0.343,0-0.664,0.034-1.009,0.123c-0.363,0.078-0.717,0.201-1.046,0.371l-0.826,2.023l-1.291-0.318l0.025-0.85v-0.829
					l-0.025-0.742c1.882-1.197,3.205-1.945,4.036-2.24c0.609-0.243,1.438-0.348,2.507-0.348c1.451,0,2.606,0.225,3.532,0.661
					c0.878,0.465,1.553,1.077,1.963,1.835c0.426,0.766,0.622,1.893,0.622,3.359c0,0.633-0.008,1.726-0.07,3.299
					c-0.042,1.663-0.081,2.965-0.081,3.964c0,1.589,0.045,2.53,0.144,2.881c0.037,0.188,0.173,0.35,0.335,0.473
					C267.661,279.914,268.335,280.048,269.423,280.149z M262.5,272.411c-2.17,0.477-3.586,0.988-4.214,1.556
					c-0.651,0.57-0.98,1.289-0.98,2.248c0,0.767,0.201,1.352,0.63,1.802c0.403,0.432,0.937,0.669,1.574,0.669
					c0.97,0,1.963-0.588,2.99-1.684V272.411z"/>
			</g>
			<g>
				<path fill="#FFFFFF" stroke="#FFFFFF" stroke-width="0.3912" d="M81.401,313.439v-0.528c0.528,0,0.853-0.031,0.941-0.123
					c0.052-0.033,0.118-0.18,0.118-0.441c0.055-0.86,0.057-1.822,0.057-2.912c0-0.829,0-1.688-0.002-2.625
					c-0.042-0.931-0.055-1.467-0.12-1.615c-0.031-0.079-0.063-0.12-0.118-0.126c-0.055-0.067-0.348-0.094-0.876-0.114v-0.542
					c0.737,0.042,1.373,0.05,1.909,0.05c0.753,0,1.574-0.008,2.416-0.008c0.543-0.042,1.014-0.042,1.388-0.042
					c0.282,0,0.536,0.014,0.797,0.042l0.052,0.128c-0.089,0.533-0.152,1.166-0.152,1.898h-0.554l-0.047-0.672
					c-0.011-0.232-0.031-0.379-0.089-0.432c-0.031-0.019-0.188-0.083-0.455-0.131c-0.261-0.052-0.641-0.073-1.124-0.073
					c-0.361,0-0.743,0-1.145,0.042c-0.058,0.706-0.079,1.229-0.079,1.537l0.021,1.365l-0.021,0.309c0.251,0,0.565,0,0.91,0
					c0.653,0,1.024,0,1.14-0.048c0.081-0.016,0.112-0.05,0.167-0.102c0.053-0.092,0.068-0.358,0.105-0.803h0.539
					c-0.016,0.366-0.016,0.756-0.016,1.127c0,0.351,0,0.918,0.016,1.687H86.64c-0.042-0.539-0.086-0.876-0.131-0.963
					c-0.029-0.055-0.06-0.07-0.157-0.112c-0.188-0.044-0.591-0.07-1.203-0.07l-0.832,0.011l0.021,2.473
					c0.026,0.622,0.068,0.941,0.094,1.041c0.016,0.052,0.081,0.089,0.136,0.122c0.079,0.068,0.439,0.092,1.067,0.123v0.528
					c-0.69-0.016-1.318-0.053-1.909-0.053C83.231,313.387,82.46,313.424,81.401,313.439z"/>
				<path fill="#FFFFFF" stroke="#FFFFFF" stroke-width="0.3912" d="M101.463,304.954v-0.542c0.857,0.042,1.597,0.05,2.232,0.05
					c0.439,0,1.009-0.008,1.757-0.05v0.542c-0.387,0-0.643,0.021-0.816,0.102c-0.057,0.013-0.089,0.06-0.13,0.107
					c-0.063,0.052-0.073,0.167-0.084,0.298c-0.042,0.256-0.06,0.934-0.078,2.065c-0.005,0.786-0.005,1.615-0.005,2.437
					c0,0.658,0.068,1.155,0.222,1.469c0.144,0.313,0.374,0.544,0.654,0.714c0.416,0.217,0.871,0.316,1.346,0.316
					c0.685,0,1.197-0.1,1.563-0.332c0.36-0.23,0.585-0.544,0.708-0.941c0.128-0.405,0.19-1.275,0.19-2.614v-2.399
					c-0.037-0.516-0.047-0.845-0.083-0.96c-0.042-0.052-0.083-0.1-0.141-0.141c-0.094-0.042-0.408-0.1-0.91-0.12v-0.542
					c0.528,0.042,1.03,0.05,1.485,0.05c0.387,0,0.868-0.008,1.425-0.05v0.542c-0.384,0-0.63,0.021-0.75,0.12
					c-0.099,0.099-0.162,0.355-0.162,0.742c-0.058,0.967-0.094,2.065-0.099,3.271c0,0.766,0,1.289-0.042,1.524
					c-0.042,0.599-0.167,1.092-0.397,1.519c-0.24,0.421-0.638,0.75-1.174,1.024c-0.546,0.285-1.215,0.405-2.01,0.405
					c-0.865,0-1.553-0.12-2.118-0.382c-0.549-0.267-0.951-0.569-1.197-0.967c-0.219-0.385-0.34-0.978-0.34-1.726l0.037-2.894
					c0-0.243-0.026-0.829-0.037-1.775c0-0.298-0.031-0.505-0.094-0.622c-0.037-0.042-0.094-0.12-0.157-0.126
					C102.21,305.032,101.928,304.975,101.463,304.954z"/>
				<path fill="#FFFFFF" stroke="#FFFFFF" stroke-width="0.3912" d="M124.567,313.439v-0.528c0.492,0,0.782-0.031,0.878-0.091
					c0.06-0.045,0.11-0.103,0.125-0.173c0.052-0.097,0.076-0.452,0.094-1.105c0.023-1.018,0.037-1.794,0.037-2.299l-0.013-2.763
					c0-0.717-0.023-1.122-0.065-1.234c-0.023-0.073-0.068-0.131-0.118-0.172c-0.086-0.042-0.4-0.1-0.938-0.12v-0.542
					c0.638,0.042,1.122,0.05,1.417,0.05c0.363,0,0.758-0.008,1.203-0.05c0.964,1.276,2.049,2.659,3.273,4.118
					c0.815,0.988,1.506,1.809,2.097,2.457v-2.562c0-0.979,0-1.805-0.034-2.521c-0.018-0.405-0.031-0.659-0.097-0.753
					c0-0.078-0.058-0.084-0.125-0.12c-0.091-0.031-0.376-0.058-0.883-0.078v-0.542c0.439,0.042,0.91,0.05,1.344,0.05
					c0.64,0,1.192-0.008,1.688-0.05v0.542c-0.481,0.021-0.758,0.047-0.847,0.102c-0.068,0.013-0.089,0.06-0.13,0.081
					c-0.031,0.036-0.058,0.078-0.071,0.125c-0.055,0.115-0.055,0.471-0.055,1.035l-0.005,2.552l-0.021,2.594
					c0,0.714,0.021,1.388,0.026,2.097l-0.076,0.094c-0.51-0.109-0.845-0.162-1.075-0.193c-1.066-1.208-2.379-2.734-3.885-4.591
					c-0.782-0.931-1.396-1.728-1.861-2.368v2.51c0,0.68,0,1.495,0.026,2.479c0,0.688,0.026,1.098,0.073,1.218
					c0.005,0.031,0.063,0.068,0.1,0.102c0.065,0.042,0.379,0.092,0.894,0.123v0.528c-0.669-0.016-1.156-0.053-1.456-0.053
					C125.859,313.387,125.349,313.424,124.567,313.439z"/>
				<path fill="#FFFFFF" stroke="#FFFFFF" stroke-width="0.3912" d="M148.733,313.439v-0.343c0.283-0.156,0.497-0.309,0.633-0.379
					c0.052-0.742,0.052-2.167,0.052-4.235c0-0.859,0-1.62,0-2.222c-0.021-0.594-0.052-0.949-0.079-1.046
					c-0.026-0.042-0.052-0.062-0.099-0.1c-0.058-0.041-0.358-0.083-0.899-0.141v-0.562c0.622,0.042,1.354,0.05,2.154,0.05
					l3.101-0.05c1.108,0,1.966,0.16,2.562,0.447c0.583,0.304,1.04,0.722,1.375,1.328c0.345,0.602,0.51,1.339,0.51,2.19
					c0,1.093-0.264,2.055-0.792,2.855c-0.539,0.8-1.198,1.375-1.961,1.699c-0.763,0.345-1.584,0.507-2.481,0.507l-2.366-0.053
					C150.072,313.387,149.507,313.424,148.733,313.439z M151.301,312.629c0.345,0.089,0.69,0.126,1.046,0.126
					c0.951,0,1.639-0.146,2.138-0.424c0.481-0.267,0.881-0.722,1.182-1.344c0.309-0.627,0.46-1.38,0.46-2.306
					c0-1.166-0.303-2.092-0.899-2.729c-0.528-0.575-1.412-0.837-2.609-0.837c-0.23,0-0.692,0.037-1.317,0.079l-0.079,4.005
					C151.222,310.883,151.251,312.033,151.301,312.629z"/>
				<path fill="#FFFFFF" stroke="#FFFFFF" stroke-width="0.3912" d="M171.964,312.856c0.397-0.026,0.643-0.081,0.731-0.139
					c0.058-0.026,0.168-0.193,0.293-0.471c0.246-0.557,0.581-1.325,0.978-2.334l2.218-5.576h0.925l2.818,6.906
					c0.366,0.863,0.611,1.365,0.68,1.443c0.107,0.068,0.358,0.144,0.797,0.17v0.586c-0.672-0.019-1.325-0.056-1.921-0.056
					c-0.722,0-1.412,0.037-2.061,0.056v-0.586c0.497-0.026,0.779-0.068,0.853-0.102c0.084-0.037,0.128-0.089,0.128-0.188
					c0-0.07-0.112-0.335-0.274-0.811l-0.392-1.077c-0.533-0.011-1.122-0.011-1.765-0.011c-0.544,0-1.062,0-1.493,0.011l-0.282,0.717
					c-0.089,0.214-0.165,0.504-0.285,0.878c-0.023,0.115-0.028,0.178-0.028,0.251c0,0.094,0.028,0.167,0.125,0.193
					c0.068,0.037,0.366,0.07,0.873,0.139v0.583c-0.402-0.016-0.915-0.053-1.531-0.053c-0.581,0-1.033,0.037-1.386,0.053V312.856z
					 M176.078,306.621l-1.312,3.292c0.371,0.05,0.784,0.05,1.255,0.05c0.507,0,0.962,0,1.4-0.05L176.078,306.621z"/>
				<path fill="#FFFFFF" stroke="#FFFFFF" stroke-width="0.3912" d="M203.304,312.033l0.162,0.162
					c-0.11,0.198-0.22,0.423-0.291,0.635c-0.483,0.267-0.97,0.447-1.414,0.557c-0.434,0.131-0.949,0.173-1.548,0.173
					c-1.098,0-2.025-0.204-2.766-0.577c-0.756-0.4-1.344-0.949-1.751-1.682c-0.397-0.716-0.612-1.537-0.612-2.452
					c0-1.322,0.476-2.415,1.401-3.272c0.892-0.848,2.181-1.271,3.796-1.271c0.53,0,1.072,0.039,1.6,0.148
					c0.523,0.081,1.049,0.246,1.585,0.442l0.033,0.102c-0.086,0.223-0.117,0.463-0.159,0.675c-0.073,0.363-0.109,0.834-0.125,1.398
					h-0.523c-0.042-0.685-0.083-1.054-0.094-1.15c-0.026-0.036-0.134-0.173-0.348-0.34c-0.201-0.151-0.479-0.27-0.823-0.366
					c-0.346-0.1-0.732-0.146-1.146-0.146c-0.999,0-1.793,0.29-2.384,0.949c-0.575,0.628-0.884,1.509-0.884,2.635
					c0,1.216,0.363,2.228,1.062,2.973c0.648,0.68,1.568,1.062,2.708,1.062c0.432,0,0.857-0.068,1.236-0.136
					C202.404,312.425,202.833,312.273,203.304,312.033z"/>
				<path fill="#FFFFFF" stroke="#FFFFFF" stroke-width="0.3912" d="M217.337,313.442v-0.531c0.569-0.021,0.894-0.081,0.951-0.156
					c0.073-0.053,0.131-0.204,0.146-0.481c0.031-0.575,0.047-1.637,0.047-3.187c0-0.604,0-1.459-0.016-2.594
					c-0.005-0.758-0.031-1.182-0.05-1.247c-0.023-0.083-0.06-0.131-0.128-0.178c-0.097-0.044-0.418-0.094-0.951-0.114v-0.542
					c0.878,0.042,1.521,0.05,1.96,0.05c0.79,0,1.501-0.008,2.134-0.05v0.542c-0.56,0.021-0.896,0.07-0.952,0.12
					c-0.075,0.081-0.12,0.188-0.146,0.407c-0.041,0.424-0.041,1.271-0.041,2.516c0,1.673,0,2.854,0,3.508
					c0.028,0.651,0.067,1.062,0.136,1.187c0.021,0.063,0.067,0.084,0.146,0.129c0.083,0.036,0.355,0.06,0.857,0.091v0.531
					l-0.748-0.019c-0.449-0.011-0.873-0.037-1.218-0.037L217.337,313.442z"/>
				<path fill="#FFFFFF" stroke="#FFFFFF" stroke-width="0.3912" d="M240.19,313.56c-1.548,0-2.725-0.405-3.54-1.202
					c-0.805-0.815-1.213-1.925-1.213-3.341c0-1.02,0.165-1.861,0.596-2.552c0.388-0.701,0.937-1.244,1.627-1.605
					c0.705-0.376,1.62-0.554,2.734-0.554c1.045,0,1.927,0.156,2.585,0.538c0.68,0.351,1.205,0.845,1.579,1.478
					c0.358,0.63,0.544,1.43,0.544,2.348c0,1.001-0.196,1.871-0.609,2.601c-0.387,0.737-0.962,1.297-1.688,1.713
					C242.078,313.355,241.215,313.56,240.19,313.56z M240.399,312.88c0.865,0,1.521-0.329,2.028-0.965
					c0.492-0.646,0.743-1.607,0.743-2.898c0-1.357-0.298-2.411-0.85-3.132c-0.469-0.591-1.188-0.884-2.131-0.884
					c-0.91,0-1.618,0.293-2.107,0.915c-0.504,0.611-0.727,1.558-0.727,2.823c0,0.92,0.109,1.693,0.371,2.321
					c0.304,0.643,0.638,1.096,1.051,1.375C239.218,312.718,239.751,312.88,240.399,312.88z M239.354,303.777h-0.617l1.454-1.438
					c0.351-0.34,0.562-0.558,0.695-0.628c0.109-0.073,0.248-0.109,0.363-0.109c0.17,0,0.285,0.052,0.369,0.136
					c0.112,0.097,0.167,0.232,0.167,0.376c0,0.136-0.042,0.251-0.11,0.322c-0.094,0.091-0.34,0.274-0.763,0.504L239.354,303.777z"/>
				<path fill="#FFFFFF" stroke="#FFFFFF" stroke-width="0.3912" d="M259.06,313.442v-0.531c0.494,0,0.806-0.031,0.899-0.091
					c0.053-0.045,0.1-0.103,0.137-0.173c0.041-0.097,0.07-0.452,0.088-1.105c0.032-1.018,0.032-1.794,0.032-2.299v-2.763
					c0-0.717-0.032-1.122-0.079-1.234c-0.016-0.073-0.058-0.131-0.125-0.172c-0.078-0.042-0.382-0.1-0.952-0.12v-0.542
					c0.654,0.042,1.13,0.05,1.464,0.05c0.33,0,0.709-0.008,1.156-0.05c0.973,1.276,2.055,2.659,3.304,4.118
					c0.798,0.988,1.488,1.809,2.076,2.457v-2.562c0-0.979,0-1.805-0.019-2.521c-0.018-0.405-0.055-0.659-0.094-0.75
					c-0.034-0.081-0.07-0.087-0.149-0.123c-0.081-0.031-0.348-0.058-0.881-0.078v-0.542c0.463,0.042,0.902,0.05,1.378,0.05
					c0.609,0,1.166-0.008,1.649-0.05v0.542c-0.463,0.021-0.724,0.047-0.845,0.102c-0.041,0.013-0.099,0.06-0.12,0.081
					c-0.047,0.036-0.062,0.078-0.075,0.125c-0.023,0.115-0.05,0.471-0.061,1.035l-0.005,2.552l-0.021,2.594
					c0,0.714,0.021,1.388,0.037,2.097l-0.079,0.094c-0.48-0.109-0.873-0.162-1.066-0.19c-1.071-1.211-2.373-2.737-3.905-4.594
					c-0.753-0.931-1.389-1.728-1.861-2.368v2.51c0,0.68,0.021,1.495,0.031,2.479c0.013,0.688,0.039,1.098,0.094,1.218
					c0.011,0.031,0.053,0.068,0.084,0.102c0.081,0.042,0.395,0.092,0.899,0.123v0.531c-0.664-0.019-1.146-0.056-1.44-0.056
					C260.362,313.387,259.85,313.424,259.06,313.442z"/>
			</g>
			<rect x="81.903" y="292.594" fill="#FFFFFF" width="186.579" height="2.248"/>
		</g>
	</g>
</g>
</svg>
