<?xml version="1.0" encoding="utf-8"?>
<!-- Generator: Adobe Illustrator 16.0.0, SVG Export Plug-In . SVG Version: 6.00 Build 0)  -->
<!DOCTYPE svg PUBLIC "-//W3C//DTD SVG 1.1//EN" "http://www.w3.org/Graphics/SVG/1.1/DTD/svg11.dtd">
<svg version="1.1" id="Capa_1" xmlns="http://www.w3.org/2000/svg" xmlns:xlink="http://www.w3.org/1999/xlink" x="0px" y="0px"
	 width="450px" height="450px" viewBox="0 0 450 450" enable-background="new 0 0 450 450" xml:space="preserve">
<g>
	<polygon points="178.815,92.681 178.815,104.262 219.535,104.262 219.535,69.748 161.283,69.748 161.283,127.203 173.657,127.203 
		173.657,81.346 207.654,81.346 207.654,92.681 	"/>
	<polygon points="266.076,92.781 266.076,104.396 225.36,104.382 225.36,69.853 283.59,69.853 283.59,127.32 271.208,127.32 
		271.208,81.467 237.218,81.467 237.218,92.781 	"/>
	<polygon points="178.815,168.229 178.815,156.634 219.535,156.634 219.535,191.161 161.283,191.161 161.283,133.705 
		173.657,133.705 173.657,179.551 207.654,179.551 207.654,168.229 	"/>
	<polygon points="266.076,168.23 266.076,156.634 225.189,156.634 225.189,191.161 283.416,191.166 283.416,133.705 
		271.031,133.705 271.031,179.551 237.049,179.551 237.049,168.229 	"/>
	<polygon points="178.815,109.954 178.815,121.51 207.969,121.51 207.969,139.302 178.815,139.302 178.815,150.857 219.535,150.857 
		219.535,150.77 219.535,139.302 219.535,121.51 219.535,110.062 219.535,109.954 	"/>
	<polygon points="266.076,121.51 266.076,109.961 225.36,109.954 225.36,110.062 225.36,121.51 225.36,139.302 225.36,150.77 
		225.36,150.857 266.076,150.857 266.076,139.302 236.926,139.302 236.926,121.51 	"/>
	<path d="M48.238,251.522h-6.879v23.694h7.121c2.648,0,4.749-0.212,6.345-0.603c1.57-0.415,2.908-1.491,4.024-3.267
		c1.109-1.725,1.67-4.508,1.67-8.266c0-4.01-0.826-6.942-2.505-8.793C56.331,252.461,53.074,251.522,48.238,251.522 M49.113,228.27
		h-7.754v21.328h6.956c4.722,0,7.752-0.906,9.056-2.764c1.33-1.852,1.977-4.748,1.977-8.719c0-3.109-0.438-5.358-1.271-6.782
		c-0.87-1.409-1.972-2.297-3.274-2.601C53.463,228.418,51.57,228.27,49.113,228.27 M32.335,275.217V228.27h-7.857v-1.945h26.259
		c2.894,0,5.321,0.149,7.295,0.424c1.953,0.299,3.87,1.054,5.668,2.252c1.828,1.232,3.125,2.736,3.942,4.521
		c0.779,1.775,1.186,3.453,1.186,5.046c0,6.032-4.656,9.972-13.915,11.874v0.17c10.468,1.703,15.69,6.047,15.69,13.027
		c0,1.736-0.452,3.555-1.396,5.441c-0.953,1.914-2.42,3.549-4.482,4.953c-2.035,1.389-4.131,2.258-6.276,2.605
		c-2.117,0.338-4.818,0.52-8.04,0.52H24.478v-1.941H32.335z"/>
	<path d="M120.719,259.374h14.735l-7.187-20.35h-0.128L120.719,259.374z M136.139,261.309h-16.16l-5.179,13.908h9.414v1.941H105.77
		v-1.941h7.006l18.537-50.064h1.196l17.767,50.064h6.808v1.941h-24.228v-1.941h8.242L136.139,261.309z"/>
	<path d="M222.518,226.324h19.189v1.945h-7.781l-16.816,17.283l24.598,29.664h4.97v1.941h-24.991v-1.941h8.751l-20.459-25.1
		l21.189-21.848h-8.649V226.324z M200.094,275.217V228.27h-7.948v-1.945h24.964v1.945h-7.996v46.947h7.996v1.941h-24.964v-1.941
		H200.094z"/>
	<path d="M296.631,259.374h14.752l-7.162-20.35h-0.154L296.631,259.374z M312.062,261.309h-16.149l-5.196,13.908h9.401v1.941
		h-18.417v-1.941h7.016l18.523-50.064h1.184l17.768,50.064h6.82v1.941h-24.218v-1.941h8.245L312.062,261.309z"/>
	<polygon points="412.695,227.113 412.695,277.158 411.151,277.158 377.705,226.864 377.549,226.864 377.549,274.033 
		386.147,274.033 386.147,275.969 368.051,275.969 368.051,274.033 375.613,274.033 375.613,227.113 367.543,227.113 
		367.543,225.152 386.926,225.152 410.639,260.785 410.789,260.785 410.789,227.113 402.375,227.113 402.375,225.152 
		420.395,225.152 420.395,227.113 	"/>
	<rect x="20.572" y="350.277" width="1.385" height="15.965"/>
	<polygon points="37.8,366.242 27.748,352.553 27.748,366.242 26.374,366.242 26.374,350.289 27.754,350.289 37.752,363.805 
		37.752,350.289 39.121,350.289 39.121,366.242 	"/>
	<polygon points="54.953,366.242 44.92,352.553 44.92,366.242 43.559,366.242 43.559,350.289 44.948,350.289 54.953,363.805 
		54.953,350.289 56.311,350.289 56.311,366.242 	"/>
	<g>
		<path d="M74.214,358.281c0-4.059-2.492-6.998-6.341-6.998c-3.861,0-6.294,2.939-6.294,6.998c0,4.017,2.433,7.013,6.294,7.013
			C71.722,365.294,74.214,362.298,74.214,358.281 M60.141,358.281c0-4.656,3.057-8.251,7.732-8.251c4.681,0,7.766,3.595,7.766,8.251
			c0,4.672-3.085,8.258-7.766,8.258C63.197,366.539,60.141,362.953,60.141,358.281"/>
	</g>
	<polygon points="83.895,366.242 77.362,350.289 78.933,350.289 84.74,364.714 90.541,350.289 92.106,350.289 85.592,366.242 	"/>
	<path d="M99.31,351.748l-3.771,9.324h7.548L99.31,351.748z M105.116,366.242l-1.579-3.912h-8.463l-1.564,3.912h-1.576l6.538-15.953
		h1.701l6.507,15.953H105.116z"/>
	<polygon points="111.905,366.242 111.905,351.526 106.703,351.526 106.703,350.289 118.533,350.289 118.533,351.526 
		113.303,351.526 113.303,366.242 	"/>
	<rect x="121.784" y="350.277" width="1.38" height="15.965"/>
	<polygon points="139.009,366.242 128.98,352.553 128.98,366.242 127.596,366.242 127.596,350.289 128.988,350.289 138.993,363.805 
		138.993,350.289 140.352,350.289 140.352,366.242 	"/>
	<g>
		<path d="M144.195,358.281c0-4.939,3.609-8.251,8.074-8.251c2.648,0,4.529,1.044,6.009,2.722l-1.03,0.753
			c-1.116-1.35-2.938-2.222-4.979-2.222c-3.771,0-6.647,2.832-6.647,6.998c0,4.125,2.877,7.036,6.647,7.036
			c2.109,0,3.788-1.028,4.691-1.937v-3.834h-6.031v-1.215h7.387v5.57c-1.412,1.587-3.537,2.663-6.047,2.663
			C147.805,366.565,144.195,363.201,144.195,358.281"/>
	</g>
	<polygon points="168.922,366.242 168.922,350.289 179.032,350.289 179.032,351.526 170.271,351.526 170.271,357.444 
		178.862,357.444 178.862,358.688 170.271,358.688 170.271,366.242 	"/>
	<g>
		<path d="M182.337,360.115v-9.826h1.395v9.818c0,3.217,1.68,5.187,4.823,5.187c3.16,0,4.827-1.97,4.827-5.187v-9.818h1.407v9.826
			c0,3.965-2.107,6.424-6.234,6.424C184.491,366.539,182.337,364.047,182.337,360.115"/>
		<path d="M208.593,354.947c0-2.008-1.438-3.421-3.539-3.421h-4.475v6.86h4.475C207.154,358.387,208.593,356.962,208.593,354.947
			 M208.561,366.242l-4.486-6.599h-3.495v6.599h-1.367v-15.953h5.951c2.763,0,4.86,1.748,4.86,4.658c0,2.917-2.063,4.508-4.43,4.6
			l4.622,6.695H208.561z"/>
	</g>
	<polygon points="225.301,366.242 215.241,352.553 215.241,366.242 213.864,366.242 213.864,350.289 215.273,350.289 
		225.256,363.805 225.256,350.289 226.637,350.289 226.637,366.242 	"/>
	<rect x="231.043" y="350.277" width="1.384" height="15.965"/>
	<polygon points="240.924,366.242 240.924,351.526 235.695,351.526 235.695,350.289 247.538,350.289 247.538,351.526 
		242.322,351.526 242.322,366.242 	"/>
	<g>
		<path d="M250.814,360.115v-9.826h1.386v9.818c0,3.217,1.692,5.187,4.826,5.187c3.168,0,4.823-1.97,4.823-5.187v-9.818h1.409v9.826
			c0,3.965-2.121,6.424-6.232,6.424C252.958,366.539,250.814,364.047,250.814,360.115"/>
		<path d="M277.068,354.958c0-2.019-1.444-3.432-3.547-3.432h-4.476v6.86h4.476C275.624,358.387,277.068,356.962,277.068,354.958
			 M277.047,366.242l-4.469-6.599h-3.532v6.599h-1.37v-15.953h5.969c2.753,0,4.844,1.748,4.844,4.669
			c0,2.906-2.064,4.503-4.429,4.589l4.622,6.695H277.047z"/>
	</g>
	<polygon points="282.348,366.242 282.348,350.289 292.464,350.289 292.464,351.526 283.716,351.526 283.716,357.451 
		292.302,357.451 292.302,358.688 283.716,358.688 283.716,365.016 292.464,365.016 292.464,366.242 	"/>
	<g>
		<path d="M302.08,363.998l0.882-1.031c1.049,1.205,2.705,2.327,4.988,2.327c3.274,0,4.189-1.821,4.189-3.176
			c0-4.696-9.559-2.26-9.559-7.829c0-2.616,2.335-4.259,5.248-4.259c2.384,0,4.165,0.827,5.398,2.253l-0.901,0.994
			c-1.169-1.385-2.788-1.994-4.587-1.994c-2.134,0-3.729,1.199-3.729,2.927c0,4.093,9.586,1.841,9.586,7.8
			c0,2.07-1.368,4.529-5.676,4.529C305.295,366.539,303.316,365.489,302.08,363.998"/>
	</g>
	<rect x="317.319" y="350.289" width="1.379" height="15.953"/>
	<polygon points="334.541,366.242 324.495,352.553 324.495,366.242 323.133,366.242 323.133,350.289 324.501,350.289 
		334.521,363.805 334.521,350.289 335.87,350.289 335.87,366.242 	"/>
	<g>
		<path d="M339.723,358.281c0-4.904,3.559-8.251,8.076-8.251c2.543,0,4.453,1.13,5.807,2.81l-1.148,0.752
			c-1.004-1.395-2.738-2.309-4.658-2.309c-3.756,0-6.648,2.832-6.648,6.998c0,4.125,2.893,7.013,6.648,7.013
			c1.92,0,3.654-0.943,4.658-2.327l1.148,0.73c-1.394,1.734-3.264,2.842-5.807,2.842
			C343.281,366.539,339.723,363.174,339.723,358.281"/>
	</g>
	<polygon points="356.833,366.242 356.833,350.289 366.973,350.289 366.973,351.526 358.207,351.526 358.207,357.451 
		366.812,357.451 366.812,358.688 358.207,358.688 358.207,365.016 366.973,365.016 366.973,366.242 	"/>
	<polygon points="379.613,350.289 376.099,354.008 376.928,354.875 379.485,352.155 379.485,366.242 380.855,366.242 
		380.855,350.289 	"/>
	<g>
		<path d="M394.404,356.23c-0.167-2.195-1.333-4.947-4.312-4.947c-2.725,0-4.029,2.094-4.029,3.801c0,2.635,1.723,3.871,4.015,3.871
			C391.816,358.955,393.498,357.82,394.404,356.23 M385.507,364.48l0.799-0.977c0.755,1.017,1.723,1.776,3.488,1.776
			c3.529,0,4.716-3.665,4.716-7.034v-0.731c-0.686,1.101-2.549,2.69-4.695,2.69c-2.87,0-5.138-1.688-5.138-5.082
			c0-2.613,1.966-5.093,5.354-5.093c4.317,0,5.869,3.978,5.869,8.251c0,4.098-1.684,8.23-6.106,8.23
			C387.723,366.512,386.455,365.666,385.507,364.48"/>
		<path d="M408.973,361.459c0-2.609-1.702-3.852-3.983-3.852c-1.745,0-3.465,1.127-4.368,2.74c0.197,2.16,1.32,4.946,4.335,4.946
			C407.674,365.294,408.973,363.174,408.973,361.459 M399.142,358.281c0-4.094,1.709-8.232,6.1-8.232
			c2.064,0,3.347,0.852,4.294,2.032l-0.814,1.005c-0.759-1.049-1.737-1.789-3.479-1.789c-3.444,0-4.716,3.608-4.716,7.006
			c0,0.25,0,0.505,0.025,0.744c0.657-1.086,2.517-2.666,4.66-2.666c2.88,0,5.138,1.657,5.138,5.078c0,2.588-1.956,5.08-5.341,5.08
			C400.681,366.539,399.142,362.566,399.142,358.281"/>
	</g>
	<path d="M420.582,351.65l-6.166,8.988h6.166V351.65z M420.582,366.242v-4.359h-7.557v-1.204l7.068-10.39h1.827v10.35h2.362v1.244
		h-2.362v4.359H420.582z"/>
	<line x1="20.797" y1="314.158" x2="420.395" y2="314.161"/>
</g>
</svg>
