<?xml version="1.0" encoding="utf-8"?>
<!-- Generator: Adobe Illustrator 16.0.0, SVG Export Plug-In . SVG Version: 6.00 Build 0)  -->
<!DOCTYPE svg PUBLIC "-//W3C//DTD SVG 1.1//EN" "http://www.w3.org/Graphics/SVG/1.1/DTD/svg11.dtd">
<svg version="1.1" id="Capa_1" xmlns="http://www.w3.org/2000/svg" xmlns:xlink="http://www.w3.org/1999/xlink" x="0px" y="0px"
	 width="450px" height="450px" viewBox="0 0 450 450" enable-background="new 0 0 450 450" xml:space="preserve">
<g>
	<g>
		<path fill-rule="evenodd" clip-rule="evenodd" fill="#B3B4B5" d="M305.878,253.478c-75.249,38.751-162.859,58.434-203.48,35.7
			c25.243,25.823,140.625,10.719,218.324-35.7H305.878z"/>
		<path fill-rule="evenodd" clip-rule="evenodd" fill="#B3B4B5" d="M151.856,191.016l5.762,0.293
			c122.219-63.204,231.966-53.559,218.077-4.552h11.839C410.313,118.777,246.255,132.351,151.856,191.016z"/>
		<g>
			<g>
				<g>
					<path fill="#2C4B89" d="M37.608,275.006h-3.125l10.644-21.014h3.213L37.608,275.006z"/>
					<path fill="#2C4B89" d="M38.025,275.833h-4.787L44.7,253.126h4.872L38.025,275.833L38.025,275.833z M35.726,274.204h1.482
						l9.884-19.41h-1.577L35.726,274.204L35.726,274.204z"/>
				</g>
				<g>
					<path fill="#2C4B89" d="M64.448,260.849c0.981,1.489,0.936,3.393-0.117,5.674c-0.029,0.053-0.029,0.082-0.056,0.107
						c0,0.053-0.029,0.098-0.032,0.127c-0.052,0.03-0.052,0.075-0.075,0.102c-0.02,0.059-0.02,0.078-0.052,0.11
						c-1.095,2.34-2.673,4.243-4.748,5.775c-2.037,1.505-4.413,2.262-7.146,2.262c0,0-0.043,0-0.082,0c-0.062,0-0.101,0-0.12,0
						c-0.036,0-0.056,0-0.056,0c-0.078,0-0.117,0-0.153,0c-2.852-0.111-4.653-0.942-5.37-2.497c-0.714-1.563-0.466-3.598,0.753-6.14
						c1.065-2.128,2.743-3.981,5.087-5.546c2.34-1.532,4.816-2.285,7.456-2.229C61.906,258.617,63.5,259.366,64.448,260.849z
						 M54.026,262.596c-1.524,1.011-2.665,2.313-3.412,3.897c-0.02,0.029-0.02,0.029-0.025,0.065c0,0.017-0.02,0.017-0.043,0.046
						c0,0,0,0.025-0.013,0.049c-0.763,1.613-0.961,2.994-0.57,4.135c0.391,1.174,1.343,1.747,2.842,1.747
						c1.646,0,3.223-0.573,4.699-1.721c1.482-1.124,2.588-2.438,3.295-3.956c0-0.042,0.01-0.071,0.042-0.102
						c0.007-0.029,0.017-0.029,0.029-0.074c0,0,0.022-0.053,0.022-0.078c0.029-0.029,0.029-0.046,0.043-0.082
						c0.717-1.655,0.778-2.995,0.231-3.979c-0.551-1.014-1.46-1.509-2.715-1.509C57.034,261.035,55.552,261.579,54.026,262.596z"/>
					<path fill="#2C4B89" d="M52.222,275.833h-0.28c-3.317-0.104-5.27-1.065-6.13-2.939c-0.815-1.815-0.567-4.158,0.742-6.941
						c1.141-2.268,2.943-4.224,5.388-5.826c2.365-1.564,4.907-2.366,7.573-2.366h0.231c2.398,0.026,4.175,0.912,5.266,2.598
						c1.15,1.736,1.125,3.959-0.059,6.56l-0.074,0.176l-0.711-0.234l0.626,0.397c-1.223,2.539-2.888,4.599-5.048,6.172
						C57.602,275.031,55.047,275.833,52.222,275.833L52.222,275.833z M59.515,259.422c-2.418,0-4.729,0.704-6.883,2.138
						c-2.216,1.44-3.861,3.193-4.829,5.228c-1.072,2.229-1.317,4.027-0.728,5.331c0.584,1.271,2.178,1.975,4.748,2.086l0.196,0.802
						v-0.802h0.202c2.564,0,4.865-0.776,6.774-2.158c1.956-1.459,3.441-3.281,4.504-5.471l0.071-0.134l0.704,0.188l-0.615-0.364
						c0.978-2.138,1.026-3.696,0.247-4.921c-0.834-1.271-2.206-1.891-4.171-1.923H59.515L59.515,259.422z M52.805,273.366
						c-2.259,0-3.142-1.222-3.493-2.252c-0.467-1.424-0.274-3.027,0.603-4.849l0.078-0.153c0.821-1.725,2.047-3.151,3.699-4.243
						c1.622-1.062,3.206-1.64,4.751-1.665h0.01c1.499,0,2.617,0.619,3.317,1.877c0.668,1.245,0.632,2.887-0.195,4.804l-0.111,0.208
						l-0.664-0.234l0.609,0.397c-0.75,1.606-1.916,3.07-3.52,4.295C56.295,272.744,54.581,273.366,52.805,273.366L52.805,273.366z
						 M58.452,261.869c-1.277,0-2.643,0.492-4.083,1.428c-1.398,0.961-2.467,2.16-3.132,3.588l-0.065,0.159
						c-0.665,1.372-0.851,2.542-0.541,3.464c0.088,0.28,0.411,1.219,2.174,1.219c1.502,0,2.937-0.554,4.308-1.59
						c1.369-1.062,2.402-2.291,3.051-3.666l0.156-0.336c0.573-1.353,0.675-2.45,0.254-3.147
						C60.17,262.257,59.452,261.869,58.452,261.869L58.452,261.869z"/>
				</g>
				<g>
					<path fill="#2C4B89" d="M78.338,280.474c-0.28,0.534-0.701,1.004-1.245,1.392c-0.538,0.414-1.072,0.707-1.584,0.887
						c-0.365,0.159-0.675,0.283-0.922,0.368c-0.107,0.02-0.268,0.052-0.392,0.074c-0.098,0.056-0.237,0.075-0.388,0.128
						c-0.134,0.032-0.248,0.052-0.358,0.052c-0.124,0.026-0.231,0.059-0.293,0.059c-0.594,0-1.199,0.02-1.845,0.068
						c-0.651,0-1.307,0.036-1.991,0.036c-0.355,0-0.714,0-1.06,0c-0.345,0-0.697,0-1.036,0c-0.629,0-1.219,0-1.763,0
						c-0.519-0.036-1.014-0.036-1.404-0.036c-0.417,0-1.313,0-1.313,0l1.117-2.567c0,0,0.287,0,0.587,0.02
						c0.326,0.042,0.717,0.055,1.177,0.055c0.502,0,1.056,0.026,1.675,0.056c0.629,0.026,1.281,0.026,1.955,0.026
						c0.124,0,0.29,0,0.44,0c0.144,0,0.31,0,0.456,0c0.775,0,1.506,0,2.216-0.056c0.685-0.026,1.235-0.081,1.675-0.134
						c0.261-0.042,0.499-0.173,0.733-0.427c0.244-0.234,0.431-0.512,0.616-0.763c0.081-0.169,2.245-4.061,2.304-4.21
						c0.127-0.16,0.183-0.294,0.229-0.395s0.11-0.212,0.173-0.316c-0.226,0-0.46,0-0.672,0c-0.215,0-0.446,0-0.655,0.036
						c-0.149,0-0.306,0-0.446,0c-0.149,0-0.303,0-0.453,0c-0.186,0-0.361,0-0.54,0c-0.187,0-0.372,0-0.567,0
						c-1.815,0-3.432-0.238-4.843-0.685c-1.404-0.417-2.05-1.535-1.926-3.281c0.017-0.515,0.095-1.043,0.228-1.581
						c0.157-0.544,0.353-1.085,0.59-1.639c0.029-0.104,0.079-0.202,0.138-0.313c0.052-0.13,0.101-0.254,0.162-0.358
						c0.558-1.166,1.308-2.284,2.271-3.408c0.929-1.095,1.991-2.053,3.158-2.839c1.304-0.851,2.578-1.431,3.858-1.685
						c1.248-0.261,2.493-0.391,3.715-0.391c0.414,0,7.095,0.025,7.095,0.025L78.338,280.474z M84.33,261.214
						c-0.172,0-0.339,0-0.518,0c-0.195-0.02-0.401-0.02-0.604-0.02c-0.205,0-0.397,0-0.58-0.026c-0.179,0-0.329,0-0.476,0
						c-0.137,0-0.315,0-0.456,0c-0.766,0-1.535,0.026-2.281,0.102c-0.743,0.101-1.424,0.261-2.043,0.485
						c-1.079,0.502-1.981,1.099-2.722,1.93c-0.727,0.841-1.336,1.694-1.772,2.601c-0.293,0.573-0.512,1.121-0.694,1.675
						c-0.163,0.563-0.322,1.085-0.417,1.577c-0.188,1.121,0.082,1.877,0.782,2.189c0.717,0.319,1.604,0.47,2.656,0.47
						c0.144,0,0.332,0,0.505,0c0.159,0,0.349-0.032,0.531-0.052c0.124,0,0.258,0,0.397-0.026c0.13,0,0.264,0,0.395,0
						c0.31-0.032,0.603-0.052,0.909-0.052c0.283,0,0.58,0,0.87,0c0.13,0,0.254,0,0.378,0c0.117,0,0.248,0,0.332,0.02l5.299-10.839
						C84.673,261.247,84.507,261.247,84.33,261.214z"/>
					<path fill="#2C4B89" d="M69.34,284.364h-2.115c-0.629,0-1.219,0-1.763,0c-0.554-0.025-1.014-0.025-1.404-0.025
						c-0.45,0-1.343-0.049-1.343-0.049l-1.124-0.029l1.86-4.185l0.42,0.02c0,0,0.297,0,0.616,0.059
						c0.307,0.026,0.701,0.026,1.138,0.026l1.688,0.059c0.633,0.01,1.269,0.01,1.942,0.01h0.896c0.763,0,1.489,0,2.16-0.01
						c0.682-0.039,1.248-0.085,1.659-0.163c0.101,0,0.219-0.078,0.332-0.209c0.202-0.208,0.382-0.446,0.531-0.674
						c0.078-0.121,1.213-2.193,1.828-3.36l0.124-0.202h-2.023c-1.874,0-3.572-0.222-5.025-0.685c-1.727-0.515-2.584-2-2.447-4.158
						c0.022-0.547,0.124-1.141,0.273-1.743c0.16-0.6,0.365-1.199,0.636-1.789c0,0,0.062-0.183,0.127-0.339l0.121-0.234
						c0.642-1.323,1.46-2.555,2.438-3.695c0.965-1.147,2.096-2.164,3.305-2.992c1.381-0.906,2.75-1.499,4.073-1.799
						c1.297-0.254,2.613-0.385,3.852-0.385c0.414,0,7.095,0.056,7.095,0.056h1.229l-11.494,23.014
						c-0.349,0.655-0.847,1.213-1.456,1.691c-0.6,0.424-1.193,0.75-1.776,0.965c-0.319,0.153-0.671,0.28-0.936,0.358
						c-0.137,0.052-0.271,0.088-0.417,0.13l-0.799,0.18c-0.166,0.029-0.306,0.029-0.403,0.029L69.34,284.364L69.34,284.364z
						 M63.871,282.677c0.065,0.026,0.108,0.026,0.187,0.026c0.391,0,0.886,0,1.434,0c0.521,0.02,1.131,0.02,1.733,0.02l5.902-0.134
						c0.068,0,0.14,0,0.218-0.017l0.727-0.149c0.104-0.033,0.226-0.065,0.349-0.111c0.219-0.085,0.512-0.218,0.848-0.346
						c0.489-0.176,0.975-0.43,1.457-0.795c0.439-0.312,0.785-0.697,1.01-1.144L88,259.478c-1.979,0-5.579,0-5.886,0
						c-1.183,0-2.392,0.123-3.591,0.361c-1.18,0.234-2.405,0.789-3.653,1.59c-1.082,0.75-2.111,1.662-3.008,2.731
						c-0.873,1.043-1.587,2.125-2.142,3.246l-0.156,0.319c-0.02,0.052-0.059,0.12-0.071,0.169c-0.271,0.629-0.453,1.121-0.577,1.623
						c-0.104,0.495-0.202,0.951-0.225,1.401c-0.095,1.375,0.336,2.105,1.404,2.447c1.33,0.414,2.92,0.616,4.667,0.616h2.007
						c0.189,0,0.411-0.023,0.655-0.023h1.881l-0.767,1.562c-0.062,0.11-0.14,0.261-0.221,0.42l-0.44,0.805
						c-1.395,2.52-1.857,3.351-1.903,3.455c-0.218,0.312-0.466,0.605-0.717,0.89c-0.326,0.361-0.717,0.57-1.104,0.629
						c-0.479,0.071-1.06,0.124-1.767,0.146c-0.727,0.062-1.46,0.062-2.235,0.062h-0.896c-0.681,0-1.339,0-1.965-0.062l-1.685-0.022
						c-0.476-0.033-0.867-0.033-1.184-0.053h-0.146L63.871,282.677L63.871,282.677z M75.02,273.005
						c-1.062,0-1.968-0.163-2.728-0.525c-0.632-0.267-1.563-1.036-1.229-3.093c0.127-0.573,0.294-1.12,0.457-1.688
						c0.182-0.606,0.452-1.206,0.723-1.828c0.506-1.004,1.131-1.923,1.933-2.78c0.782-0.886,1.799-1.583,2.969-2.085
						c0.678-0.255,1.398-0.47,2.226-0.574c0.757-0.074,1.522-0.104,2.327-0.104h0.932c0.519,0.059,0.854,0.029,1.274,0.059
						c0.088,0,0.277,0,0.463,0.02c0.156,0,0.307,0,0.456,0h1.199l-6.106,12.599l-0.499-0.111c-0.046-0.026-0.156-0.026-0.225-0.026
						h-0.378c-0.274,0-0.567,0-0.844,0.026c-0.294,0-0.597,0.032-0.887,0.053c-0.18,0-0.29,0-0.421,0
						c-0.117,0.025-0.271,0.025-0.42,0.025c-0.144,0.033-0.336,0.033-0.531,0.033H75.02L75.02,273.005z M81.697,261.964
						c-0.743,0-1.496,0.059-2.209,0.13c-0.691,0.085-1.337,0.244-1.878,0.476c-0.99,0.418-1.812,0.991-2.467,1.718
						c-0.664,0.753-1.231,1.555-1.665,2.44c-0.261,0.496-0.463,1.023-0.616,1.539c-0.166,0.515-0.312,1.013-0.413,1.485
						c-0.17,0.958,0.169,1.108,0.368,1.193c0.576,0.267,1.31,0.41,2.202,0.41h0.691c0.149,0,0.293-0.017,0.463-0.017
						c0.192,0,0.29-0.035,0.414-0.035c0.156,0,0.3-0.014,0.446-0.014c0.264-0.032,0.576-0.032,0.89-0.052c0.293,0,0.6,0,0.89,0
						h0.342l4.462-9.216c-0.408-0.029-0.743,0-1.05-0.059H81.697L81.697,261.964z"/>
				</g>
				<g>
					<path fill="#2C4B89" d="M89.838,274.973h-3.103l7.75-15.049h3.128L89.838,274.973z M99.148,256.919l-3.015-0.02l1.513-2.959
						h3.018L99.148,256.919z"/>
					<path fill="#2C4B89" d="M85.49,275.781l8.591-16.692h4.777l-8.64,16.692H85.49L85.49,275.781z M94.883,260.751L88,274.142
						h1.443l6.929-13.391H94.883L94.883,260.751z M99.575,257.76l-4.673-0.052l2.323-4.608h4.687L99.575,257.76L99.575,257.76z
						 M97.369,256.091h1.375l0.697-1.319H98.04L97.369,256.091L97.369,256.091z"/>
				</g>
				<g>
					<path fill="#2C4B89" d="M118.108,258.594l-1.118,2.601c0,0-1.477-0.026-2.043-0.052c-0.492,0-1.001,0-1.532,0
						c-0.541,0-1.088,0-1.655,0c-0.938,0-1.848,0-2.686,0c-0.866,0-1.509,0-1.984,0.052c-0.502,0-0.994,0.124-1.427,0.443
						c-0.482,0.254-0.899,0.678-1.323,1.144c-0.104,0.153-0.219,0.31-0.336,0.473c-0.095,0.18-0.186,0.326-0.264,0.515
						c-0.124,0.209-0.146,0.421-0.183,0.594c0,0.188,0.059,0.332,0.237,0.443c0.545,0.312,1.252,0.495,2.076,0.554
						c0.841,0.046,1.701,0.046,2.61,0.046c0.131,0,0.254,0,0.339,0c0.121,0,0.248,0,0.319,0c0.114,0,0.17,0,0.245,0
						c0.062,0,0.137,0,0.191,0c0.499,0,0.975,0,1.428,0.032c0.446,0,0.877,0.071,1.284,0.202c0.945,0.202,1.521,0.548,1.721,1.088
						c0.228,0.528,0.267,1.069,0.124,1.669c-0.046,0.11-0.056,0.18-0.079,0.312c-0.045,0.104-0.064,0.202-0.078,0.307
						c-0.062,0.229-0.166,0.45-0.251,0.675c-0.098,0.244-0.201,0.446-0.319,0.71c-0.329,0.714-0.749,1.355-1.268,1.946
						c-0.488,0.6-1.127,1.12-1.854,1.563c-0.102,0.049-0.167,0.098-0.255,0.153c-0.117,0.029-0.183,0.078-0.264,0.141
						c-0.58,0.303-1.124,0.508-1.62,0.622c-0.515,0.101-1.01,0.146-1.541,0.146H95.237l1.16-2.438c0,0,1.425,0.022,2.037,0.022
						c0.495,0.023,1.033,0.049,1.652,0.082c0.583,0,1.212,0,1.835,0c0.137,0,0.264,0,0.407,0c0.163,0,0.28,0,0.41,0
						c1.086,0,2.06-0.033,2.982-0.082c0.905-0.022,1.519-0.101,1.821-0.179c0.463-0.134,0.851-0.312,1.235-0.573
						c0.346-0.255,0.668-0.594,0.945-0.991c0.042-0.085,0.098-0.124,0.127-0.183c0.035-0.045,0.062-0.124,0.101-0.212
						c0.065-0.042,0.088-0.094,0.124-0.153c0.013-0.055,0.049-0.13,0.085-0.201c0.14-0.294,0.215-0.58,0.222-0.838
						c0-0.251-0.098-0.463-0.343-0.619c-0.286-0.212-0.681-0.342-1.121-0.414c-0.449-0.091-0.912-0.107-1.431-0.107
						c-0.29,0-0.583,0.017-0.883,0.017c-0.316,0-0.619,0.032-0.922,0.032c-0.323,0.026-0.6,0.059-0.906,0.078
						c-0.316,0-0.6,0-0.896,0c-0.228,0-0.453,0-0.625,0c-0.209-0.02-0.408-0.052-0.619-0.078c-0.87-0.049-1.588-0.358-2.05-0.88
						c-0.499-0.528-0.688-1.248-0.6-2.189c0.032-0.313,0.088-0.604,0.182-0.906c0.085-0.319,0.202-0.6,0.336-0.887
						c0.322-0.704,0.795-1.355,1.408-1.975c0.609-0.632,1.343-1.202,2.15-1.662c0.141-0.081,0.277-0.159,0.437-0.238
						c0.127-0.074,0.277-0.152,0.392-0.198c0.427-0.199,0.792-0.332,1.17-0.424c0.354-0.104,0.707-0.159,1.075-0.159
						L118.108,258.594z"/>
					<path fill="#2C4B89" d="M106.604,275.816l-12.576-0.035l1.952-4.084l0.417,0.029c0,0,1.425,0.029,2.037,0.029
						c0.515,0.017,1.033,0.017,1.652,0.05c0.6,0,1.212,0,1.835,0h0.817c1.079,0,2.047,0,2.943-0.05
						c1.062-0.081,1.515-0.13,1.697-0.186c0.378-0.104,0.717-0.267,1.014-0.456c0.287-0.254,0.548-0.482,0.756-0.821
						c0.092-0.081,0.124-0.124,0.15-0.183l0.264-0.443c0.088-0.182,0.101-0.339,0.101-0.469c-0.205-0.026-0.479-0.153-0.844-0.199
						c-0.675-0.088-1.397-0.088-2.193-0.088c-0.306,0.065-0.605,0.065-0.905,0.065c-0.326,0.022-0.629,0.039-0.936,0.039
						c-0.528,0.029-1.075,0.029-1.581,0c-0.188,0-0.4-0.017-0.629-0.039c-1.036-0.114-1.851-0.47-2.457-1.131
						c-0.466-0.466-0.983-1.353-0.863-2.858c0.068-0.41,0.127-0.746,0.238-1.12c0.098-0.34,0.225-0.679,0.391-1.014
						c0.349-0.76,0.88-1.483,1.558-2.187c0.652-0.672,1.434-1.269,2.33-1.799l0.404-0.222c0.156-0.085,0.283-0.15,0.459-0.241
						c0.457-0.183,0.867-0.31,1.255-0.44c0.397-0.098,0.821-0.179,1.245-0.179l12.136-0.026l-1.851,4.233l-0.431-0.029
						c0,0-1.489,0-2.076-0.017h-5.84c-0.85,0-1.502,0.017-1.958,0.017c-0.404,0.059-0.779,0.159-1.131,0.397
						c-0.388,0.234-0.782,0.573-1.134,0.987c-0.075,0.127-0.187,0.29-0.297,0.449c-0.059,0.099-0.146,0.231-0.215,0.362
						l-0.007,0.029c0.417,0.173,0.952,0.336,1.558,0.336c0.845,0.052,1.698,0.052,2.578,0.052h1.107c0.499,0,0.998,0,1.435,0.017
						c0.521,0.032,0.978,0.101,1.434,0.212c1.177,0.261,1.903,0.775,2.223,1.563c0.28,0.704,0.322,1.46,0.159,2.207l-0.186,0.703
						c-0.081,0.258-0.186,0.516-0.293,0.786c-0.085,0.228-0.215,0.491-0.339,0.723c-0.343,0.763-0.779,1.483-1.326,2.138
						c-0.567,0.679-1.274,1.245-2.073,1.708c-0.114,0.052-0.186,0.111-0.264,0.156c-0.107,0.059-0.222,0.137-0.307,0.156
						c-0.605,0.353-1.219,0.574-1.76,0.685C107.719,275.758,107.168,275.816,106.604,275.816L106.604,275.816z M96.434,274.142
						h10.171c0.466,0,0.961-0.049,1.408-0.134c0.456-0.098,0.929-0.283,1.446-0.58c0.104-0.039,0.173-0.062,0.241-0.113
						c0.088-0.082,0.202-0.114,0.316-0.16c0.622-0.358,1.187-0.86,1.633-1.382c0.466-0.561,0.831-1.141,1.131-1.76
						c0.127-0.241,0.222-0.476,0.3-0.685c0.078-0.182,0.153-0.352,0.205-0.563l0.169-0.661c0.092-0.326,0.069-0.697-0.062-1.03
						c-0.098-0.188-0.453-0.469-1.255-0.632c-0.378-0.124-0.753-0.176-1.17-0.176c-0.434-0.033-0.893-0.053-1.392-0.053h-1.095
						c-0.87,0.02-1.786,0.02-2.649-0.025c-0.916-0.053-1.711-0.258-2.366-0.623c-0.43-0.322-0.645-0.759-0.632-1.248
						c0.013-0.312,0.117-0.632,0.258-0.968c0.113-0.205,0.218-0.388,0.374-0.59c0.128-0.189,0.219-0.349,0.359-0.502
						c0.495-0.593,0.961-1.043,1.492-1.379c0.554-0.342,1.147-0.521,1.753-0.55c0.473-0.021,1.131-0.021,2.004-0.021h5.873
						c0.371,0,1.124,0.021,1.594,0.021l0.407-0.906l-9.812,0.032c-0.322,0-0.622,0.049-0.936,0.127
						c-0.329,0.095-0.697,0.235-1.059,0.362c-0.095,0.052-0.226,0.13-0.343,0.183l-0.424,0.261c-0.759,0.437-1.443,0.932-2.01,1.531
						c-0.541,0.57-0.969,1.173-1.239,1.767c-0.13,0.241-0.23,0.476-0.3,0.729c-0.074,0.271-0.14,0.528-0.162,0.789
						c-0.059,0.827,0.195,1.212,0.384,1.427c0.372,0.392,0.933,0.626,1.649,0.697c0.192,0.026,0.388,0.053,0.58,0.053
						c0.495,0.026,0.98,0.026,1.473,0c0.297,0,0.604-0.026,0.894-0.053c0.312-0.02,0.622-0.039,0.944-0.039
						c0.899-0.032,1.649-0.032,2.422,0.092c0.554,0.059,1.02,0.234,1.395,0.515c0.437,0.3,0.69,0.789,0.681,1.333
						c0,0.42-0.101,0.838-0.315,1.241l-0.088,0.189c-0.043,0.098-0.088,0.202-0.147,0.261c-0.045,0.078-0.091,0.13-0.13,0.208
						c-0.049,0.085-0.104,0.177-0.18,0.255c-0.312,0.424-0.661,0.814-1.101,1.127c-0.389,0.287-0.887,0.516-1.405,0.682
						c-0.4,0.095-1.007,0.176-1.968,0.198c-0.926,0.039-1.926,0.078-3.012,0.078h-0.817c-0.623,0-1.252-0.039-1.848-0.039
						c-0.619,0-1.174-0.013-1.666-0.039c-0.4,0-1.146,0-1.609,0L96.434,274.142L96.434,274.142z"/>
				</g>
				<g>
					<path fill="#2C4B89" d="M130.678,259.291h5.129l-1.192,2.393l-5.042,0.045l-4.846,9.422c-0.319,0.605-0.276,1.046,0.144,1.307
						c0.365,0.254,0.883,0.41,1.477,0.469c0.169,0.021,0.368,0.046,0.531,0.046c0.188,0,0.368,0.033,0.537,0.033
						c0.177,0,0.375-0.033,0.564-0.033c0.166,0,0.312-0.025,0.466-0.046c0.144,0,0.28,0,0.434-0.032l-1.118,2.112
						c-0.234,0.025-0.446,0.039-0.636,0.039c-0.192,0-0.41,0-0.671,0c-0.271,0.032-0.548,0.032-0.851,0.032
						c-0.31,0-0.651,0-0.994-0.032c-0.352,0-0.678-0.014-1.039-0.072c-0.988-0.095-1.789-0.385-2.461-0.769
						c-0.671-0.424-0.763-1.105-0.264-2.06l5.315-10.305l-3.602-0.026l1.294-2.522h3.604l2.675-5.272h3.204L130.678,259.291z"/>
					<path fill="#2C4B89" d="M125.604,275.886c-0.339,0-0.651,0-1.014,0c-0.355-0.026-0.714-0.053-1.092-0.069
						c-1.046-0.133-1.975-0.449-2.708-0.89c-0.606-0.4-0.821-0.886-0.926-1.222c-0.127-0.606,0-1.28,0.392-2.008l4.67-9.05
						l-3.598-0.02l2.111-4.132h3.598l2.705-5.286h4.846l-2.669,5.286h5.133l-2.023,4.021l-5.071,0.026l-4.604,9.026
						c-0.117,0.186-0.117,0.284-0.117,0.284c0.271,0.071,0.671,0.212,1.163,0.264c0.186,0,0.349,0.026,0.524,0.026
						c0.339,0.02,0.708,0.02,1.033,0c0.117,0,0.277-0.026,0.404-0.026c0.18-0.032,0.31-0.032,0.44-0.052l1.453-0.183l-2.072,3.933
						l-0.365,0.017c-0.45,0.053-0.805,0.026-1.333,0.053C126.184,275.886,125.906,275.886,125.604,275.886L125.604,275.886z
						 M123.805,260.982l3.624,0.053l-5.967,11.522c-0.209,0.414-0.235,0.633-0.209,0.708c0,0.049,0.075,0.123,0.195,0.162
						c0.594,0.382,1.311,0.636,2.206,0.714c0.336,0.062,0.636,0.082,0.978,0.082c0.633,0.025,1.274,0.025,1.79,0
						c0.358,0,0.645,0,0.944,0l0.199-0.414c-0.251,0-0.466,0-0.721,0c-0.183-0.029-0.361-0.029-0.573-0.056
						c-0.69-0.071-1.284-0.287-1.763-0.6c-0.431-0.287-0.577-0.646-0.639-0.909c-0.102-0.473-0.017-0.987,0.257-1.535l5.035-9.832
						l5.058-0.029l0.368-0.723h-5.172l2.702-5.286h-1.577l-2.719,5.286h-3.568L123.805,260.982L123.805,260.982z"/>
				</g>
				<g>
					<path fill="#2C4B89" d="M136.198,275.045l-3.146-0.039l7.714-15.033h3.132L136.198,275.045z M145.449,256.951l-3.043-0.052
						l1.519-2.959h3.021L145.449,256.951z"/>
					<path fill="#2C4B89" d="M136.608,275.859l-4.784-0.026l8.548-16.698h4.784L136.608,275.859L136.608,275.859z M134.285,274.204
						l1.521,0.02l6.851-13.446h-1.477L134.285,274.204L134.285,274.204z M145.848,257.76l-4.638-0.02l2.301-4.641h4.68
						L145.848,257.76L145.848,257.76z M143.664,256.091l1.385,0.02l0.671-1.339h-1.385L143.664,256.091L143.664,256.091z"/>
				</g>
				<g>
					<path fill="#2C4B89" d="M153.375,259.422c1.216-0.358,2.398-0.597,3.556-0.704c0.346-0.046,6.455,0,6.455,0l-1.202,2.317
						c0,0-3.982,0.107-4.243,0.107c-1.254,0.025-2.496,0.052-3.757,0.332c-1.252,0.28-2.464,1.014-3.611,2.132
						c-0.57,0.583-1.049,1.146-1.495,1.694c-0.453,0.57-0.782,1.141-1.033,1.694c-0.392,0.802-0.636,1.558-0.675,2.359
						c-0.068,0.756,0.071,1.46,0.365,2.125c0.254,0.566,0.772,0.899,1.548,1.127c0.775,0.235,1.6,0.365,2.509,0.398
						c0.146,0,4.716,0,4.716,0l-0.99,1.873h-3.95c0,0-0.28,0-0.463,0c-1.997,0-3.734-0.244-5.285-0.736
						c-1.525-0.459-2.154-1.685-1.881-3.673c0.117-0.586,0.283-1.225,0.473-1.818c0.188-0.619,0.443-1.244,0.746-1.894
						c0.466-0.954,1.075-1.922,1.828-2.831c0.75-0.938,1.73-1.845,2.868-2.679C150.96,260.406,152.153,259.816,153.375,259.422z"/>
					<path fill="#2C4B89" d="M155.927,275.703h-4.823c-2.026,0-3.885-0.261-5.465-0.757c-1.887-0.566-2.74-2.202-2.405-4.601
						c0.137-0.698,0.304-1.33,0.496-1.969c0.208-0.678,0.479-1.355,0.811-2.008c0.492-1.039,1.147-2.053,1.942-3.021
						c0.789-0.987,1.812-1.92,2.995-2.812c1.163-0.883,2.444-1.535,3.702-1.919c1.287-0.369,2.506-0.623,3.695-0.728
						c0.056,0,0.212-0.022,2.92-0.022l4.869,0.022l-2.079,3.95l-0.375,0.029c0,0-4.009,0.078-4.27,0.078
						c-1.261,0.017-2.434,0.046-3.61,0.368c-1.15,0.254-2.249,0.906-3.305,1.942c-0.524,0.495-0.99,1.043-1.431,1.613
						c-0.397,0.498-0.714,1.014-0.948,1.509c-0.329,0.707-0.541,1.385-0.603,2.04c-0.02,0.593,0.062,1.167,0.315,1.694
						c0.199,0.353,0.698,0.583,1.066,0.691c0.732,0.24,1.534,0.339,2.375,0.391c0.137,0,4.706-0.032,4.706-0.032l1.231-0.02
						L155.927,275.703L155.927,275.703z M159.795,259.526c-2.317,0-2.708,0-2.803,0c-1.088,0.127-2.258,0.345-3.447,0.703
						c-1.154,0.372-2.259,0.938-3.302,1.688c-1.102,0.841-2.007,1.688-2.73,2.581c-0.711,0.86-1.304,1.767-1.757,2.679
						c-0.307,0.6-0.512,1.167-0.688,1.733c-0.163,0.606-0.316,1.174-0.427,1.779c-0.231,1.506,0.192,2.314,1.365,2.676
						c1.447,0.443,3.19,0.675,5.097,0.675h4.015l0.131-0.231c-1.353,0.022-3.366,0.022-3.458,0.022
						c-0.971-0.052-1.863-0.183-2.685-0.417c-0.942-0.261-1.607-0.775-1.981-1.512c-0.385-0.825-0.538-1.708-0.45-2.659
						c0.065-0.848,0.31-1.786,0.766-2.669c0.235-0.545,0.639-1.196,1.115-1.822c0.466-0.593,0.978-1.173,1.548-1.766
						c1.258-1.232,2.555-1.981,3.937-2.32c1.319-0.31,2.584-0.339,3.855-0.359c0.237,0,2.881-0.078,3.878-0.104l0.354-0.678H159.795
						L159.795,259.526z"/>
				</g>
				<g>
					<path fill="#2C4B89" d="M185.53,258.594l-1.223,2.549l-2.238-0.056c0,0-1.082,0-1.676,0c-0.59,0-1.183,0-1.812,0
						c-1.004,0-1.978,0-2.923,0c-0.938,0-1.675,0-2.154,0.056c-0.548,0-1.102,0.156-1.606,0.437
						c-0.499,0.29-0.948,0.678-1.401,1.153c-0.131,0.121-0.254,0.268-0.375,0.456c-0.127,0.16-0.234,0.326-0.326,0.496
						c-0.101,0.241-0.179,0.423-0.191,0.603c0,0.176,0.074,0.307,0.273,0.407c0.619,0.346,1.358,0.531,2.277,0.548
						c0.916,0.059,1.861,0.059,2.846,0.035c0.144,0,0.276,0,0.391,0c0.134,0,0.248,0,0.362,0c0.094,0,0.179,0,0.24,0
						c0.062,0,0.15,0,0.226,0c0.544,0,1.053,0.023,1.548,0.023c0.492,0.059,0.951,0.104,1.395,0.208
						c1.053,0.216,1.688,0.574,1.9,1.096c0.234,0.521,0.28,1.036,0.146,1.643c-0.039,0.098-0.062,0.198-0.111,0.306
						c-0.035,0.098-0.068,0.212-0.095,0.31c-0.071,0.234-0.152,0.446-0.247,0.675c-0.117,0.234-0.231,0.437-0.375,0.675
						c-0.342,0.675-0.785,1.339-1.362,1.933c-0.534,0.6-1.225,1.088-2.05,1.538c-0.064,0.042-0.163,0.098-0.276,0.127
						c-0.088,0.075-0.192,0.101-0.3,0.149c-0.604,0.316-1.206,0.499-1.74,0.597c-0.567,0.13-1.128,0.189-1.695,0.189l-12.487,0.022
						l1.304-2.447c0,0,1.551,0.026,2.245,0.026c0.524,0.032,1.15,0.059,1.812,0.078c0.672,0,1.333,0,2.008,0c0.14,0,0.303,0,0.459,0
						c0.144,0,0.294,0,0.438,0c1.18,0,2.258-0.02,3.252-0.078c0.98-0.026,1.648-0.075,1.998-0.15c0.508-0.15,0.938-0.342,1.342-0.6
						c0.401-0.258,0.73-0.573,1.04-0.965c0.056-0.045,0.088-0.124,0.14-0.176c0.062-0.078,0.099-0.13,0.128-0.189
						c0.045-0.055,0.101-0.13,0.13-0.182c0.029-0.049,0.059-0.131,0.095-0.183c0.149-0.316,0.234-0.574,0.241-0.828
						c0-0.261-0.131-0.466-0.365-0.6c-0.342-0.228-0.756-0.371-1.261-0.443c-0.482-0.052-1.011-0.071-1.542-0.071
						c-0.307,0-0.629,0-0.975,0c-0.319,0-0.674,0.02-1.007,0.039c-0.339,0.032-0.671,0.032-1,0.062
						c-0.346,0.026-0.639,0.026-0.975,0.026c-0.251,0-0.463,0-0.707-0.026c-0.195-0.029-0.427-0.029-0.643-0.062
						c-0.978-0.072-1.73-0.385-2.251-0.873c-0.538-0.521-0.757-1.255-0.669-2.158c0.023-0.283,0.089-0.605,0.196-0.893
						c0.084-0.307,0.234-0.6,0.391-0.887c0.333-0.671,0.86-1.319,1.538-1.941c0.655-0.6,1.438-1.15,2.354-1.61
						c0.162-0.11,0.322-0.183,0.459-0.271c0.141-0.075,0.307-0.12,0.45-0.198c0.442-0.167,0.856-0.319,1.254-0.392
						c0.395-0.104,1.177-0.159,1.177-0.159L185.53,258.594z"/>
					<path fill="#2C4B89" d="M159.186,275.599l2.229-4.119h0.381c0,0,1.564,0.071,2.223,0.071c0.563,0.02,1.16,0.02,1.812,0.046
						c0.672,0,1.333,0,2.008,0h0.896c1.153,0,2.235-0.026,3.216-0.046c1.184-0.071,1.685-0.137,1.9-0.195
						c0.414-0.098,0.814-0.241,1.134-0.495c0.312-0.202,0.603-0.46,0.863-0.775l0.414-0.619c0.053-0.111,0.095-0.222,0.111-0.294
						c-0.28-0.173-0.584-0.261-0.959-0.31c-0.749-0.098-1.541-0.098-2.447-0.081c-0.319,0-0.648,0.032-0.98,0.052
						c-0.342,0.029-0.682,0.029-1.036,0.078c-0.555,0-1.154,0-1.685,0c-0.226-0.049-0.46-0.078-0.701-0.078
						c-1.095-0.098-1.975-0.456-2.633-1.082c-0.714-0.678-1.053-1.701-0.929-2.884c0.039-0.368,0.12-0.739,0.244-1.099
						c0.117-0.335,0.248-0.678,0.41-0.987c0.424-0.759,0.984-1.512,1.725-2.18c0.717-0.658,1.561-1.235,2.506-1.753l0.479-0.231
						c0.147-0.079,0.3-0.16,0.477-0.212c0.498-0.209,0.932-0.31,1.358-0.44c0.446-0.098,1.216-0.153,1.304-0.179l13.25-0.026
						l-2.05,4.188l-9.046-0.029c-0.938,0-1.652,0-2.142,0.029c-0.476,0.017-0.88,0.134-1.297,0.368
						c-0.446,0.254-0.851,0.587-1.251,1.011c-0.111,0.13-0.212,0.254-0.326,0.391c-0.065,0.124-0.146,0.261-0.234,0.358
						c0.488,0.212,1.075,0.312,1.789,0.339c0.909,0.049,1.818,0.085,2.793,0.049h1.229c0.544,0,1.092,0,1.574,0.036
						c0.544,0.026,1.052,0.078,1.519,0.195c1.271,0.273,2.069,0.763,2.401,1.519c0.29,0.704,0.355,1.486,0.159,2.262l-0.201,0.672
						c-0.095,0.273-0.187,0.501-0.316,0.788c-0.114,0.234-0.209,0.485-0.368,0.724c-0.382,0.756-0.877,1.428-1.489,2.086
						c-0.606,0.645-1.355,1.215-2.226,1.688c-0.121,0.075-0.199,0.075-0.277,0.124c-0.114,0.078-0.225,0.13-0.346,0.189
						c-0.655,0.3-1.307,0.554-1.906,0.651c-0.57,0.104-1.18,0.176-1.786,0.176L159.186,275.599L159.186,275.599z M162.184,273.154
						l-0.439,0.782l11.213-0.026c0.548,0,1.05-0.049,1.571-0.156c0.492-0.104,1.046-0.287,1.616-0.554
						c0.098-0.046,0.17-0.072,0.248-0.124c0.113-0.071,0.212-0.13,0.342-0.183c0.69-0.358,1.336-0.827,1.815-1.343
						c0.498-0.554,0.925-1.15,1.254-1.779c0.124-0.208,0.209-0.417,0.33-0.642c0.081-0.153,0.14-0.365,0.198-0.554l0.192-0.616
						c0.081-0.319,0.059-0.652-0.098-0.991c-0.02-0.032-0.186-0.394-1.379-0.651c-0.417-0.104-0.856-0.156-1.307-0.183
						c-0.492,0-0.997-0.022-1.521-0.022h-1.219c-0.962,0.022-1.937,0.022-2.861-0.029c-1.023-0.053-1.871-0.261-2.571-0.626
						c-0.453-0.254-0.691-0.704-0.665-1.251c0.039-0.28,0.137-0.626,0.3-0.952c0.098-0.215,0.231-0.4,0.392-0.606
						c0.13-0.182,0.25-0.332,0.4-0.524c0.512-0.544,1.053-0.98,1.616-1.3c0.587-0.307,1.196-0.495,1.854-0.516
						c0.509-0.032,1.231-0.045,2.193-0.045l8.248,0.013l0.42-0.854l-10.803,0.032c0,0-0.69,0.049-1.036,0.127
						c-0.365,0.095-0.756,0.235-1.184,0.362c-0.12,0.052-0.247,0.13-0.384,0.183l-0.424,0.261c-0.893,0.42-1.62,0.932-2.235,1.505
						c-0.597,0.574-1.069,1.147-1.396,1.747c-0.11,0.229-0.225,0.469-0.276,0.724c-0.088,0.231-0.153,0.473-0.186,0.729
						c-0.068,0.806,0.186,1.174,0.41,1.379c0.44,0.414,1.056,0.655,1.864,0.727c0.208,0,0.417,0.026,0.622,0.059
						c0.512,0,1.095,0,1.62,0c0.315-0.032,0.658-0.059,0.978-0.059c0.352-0.02,0.704-0.049,1.059-0.049
						c0.955-0.056,1.786-0.022,2.617,0.075c0.57,0.084,1.075,0.234,1.499,0.502c0.473,0.273,0.727,0.798,0.727,1.349
						c-0.006,0.443-0.127,0.828-0.332,1.252l-0.098,0.143c-0.039,0.131-0.121,0.241-0.183,0.319
						c-0.049,0.072-0.095,0.131-0.127,0.177c-0.065,0.084-0.156,0.186-0.202,0.273c-0.307,0.407-0.746,0.808-1.199,1.082
						c-0.45,0.261-0.962,0.521-1.522,0.651c-0.391,0.104-1.072,0.183-2.124,0.219c-0.994,0.042-2.089,0.042-3.278,0.042h-0.896
						c-0.685,0-1.336,0-2.043,0c-0.652,0-1.252-0.032-1.786-0.042C163.546,273.19,162.673,273.19,162.184,273.154L162.184,273.154z"
						/>
				</g>
			</g>
		</g>
		<path fill="#2C4B89" d="M108.983,234.57c-6.479,4.934-24.617,9.88-37.463,9.88c-16.754,0-28.841-3.311-33.902-8.117
			c-10.226-9.75,0.516-34.149,14.421-41.566c13.501-7.183,30.199-8.555,36.541-8.473c6.876,0,25.695,1.137,32.868,8.548
			c4.458,4.631,5.191,11.344,1.842,20.964C120.438,223.973,115.488,229.571,108.983,234.57z M63.188,203.298
			c-4.735,4.68-11.204,17.963-7.414,24.937c4.8,8.923,28.593,6.375,34.462,2.992c5.56-3.171,10.188-9.418,12.504-14.717
			c2.354-5.312,2.62-12.332-0.342-15.838c-3.298-3.849-10.937-4.738-15.548-4.738C81.821,195.988,69.111,197.394,63.188,203.298z"/>
		<path fill="#2C4B89" d="M173.303,230.033l10.976-34.279h15.606l-15.577,48.508h-18.119l-20.576-36.023l-11.415,36.023h-16.057
			l15.421-48.557h20.84L173.303,230.033z"/>
		<path fill="#2C4B89" d="M345.86,195.754L345.86,195.754l-36.427,0.049c-0.046,0-0.14,0-0.199,0c-0.062,0-0.098,0.033-0.137,0
			c-4.904-0.247-20.977,0.231-24.682,1.483c-2.891,0.961-12.873,3.991-14.528,14.149c-0.648,4.002-0.704,7.339,3.571,10.373
			c4.179,2.975,18.918,2.945,28.682,2.945c0.231,0,6.859-0.13,7.055-0.13c7.46,0,10.018,1.245,10.321,2.679
			c1.173,5.771-4.755,8.268-8.665,8.268l-48.495-0.153l0,0h-0.485h-0.906l0,0l-36.241,0.072c0,0-2.193,0-2.489,0
			c-3.992,0-7.609-0.825-9.386-2.885c-1.255-1.45-2.008-4.807-0.407-8.554h44.147l2.74-8.401l-43.929,0.052
			c0,0,1.245-3.2,4.09-6.211c3.522-3.773,12.687-4.928,15.521-5.097c0.521-0.053,27.866,0,28.081,0
			c0.307-0.319,3.012-8.223,3.07-8.61c-0.397,0.053-28.346-0.062-29.108-0.062c-3.027-0.017-6.038,0.4-9.065,0.785
			c-3.129,0.45-9.907,1.728-14.548,3.904c-6.54,3.044-13.961,9.001-17.308,18.363c-2.085,5.896-3.535,11.604,0.375,17.653
			c2.35,3.61,10.337,7.439,17.881,8.022c0.763,0.053,4.38,0.021,4.38,0.021h40.374l0.052-0.021
			c7.098,0.021,42.049,0.15,43.786,0.053c1.926-0.117,10.245-0.346,12.136-0.476c5.925-0.339,12.475-3.148,14.052-4.321
			c3.314-2.496,7.521-7.17,7.639-14.46c0.095-4.709-3.737-7.723-9.474-8.6c-5.533-0.863-32.483-0.395-34.247-0.58
			c-1.74-0.183-6.243-0.365-6.243-5.201c0-4.478,7.821-6.345,12.738-6.345c1.301,0,35.922,0,43.229,0v0.032l29.87-0.032
			l-12.752,39.95h17.08l12.755-39.95h22.724l2.822-8.767H345.86z"/>
	</g>
</g>
</svg>
