<?xml version="1.0" encoding="utf-8"?>
<!-- Generator: Adobe Illustrator 16.0.0, SVG Export Plug-In . SVG Version: 6.00 Build 0)  -->
<!DOCTYPE svg PUBLIC "-//W3C//DTD SVG 1.1//EN" "http://www.w3.org/Graphics/SVG/1.1/DTD/svg11.dtd">
<svg version="1.1" id="Capa_1" xmlns="http://www.w3.org/2000/svg" xmlns:xlink="http://www.w3.org/1999/xlink" x="0px" y="0px"
	 width="450px" height="450px" viewBox="0 0 450 450" enable-background="new 0 0 450 450" xml:space="preserve">
<g>
	<path fill-rule="evenodd" clip-rule="evenodd" fill="#00336A" d="M352.791,331.625c2.264-0.081,3.878-0.247,4.847-0.751
		c1.651-0.832,2.463-2.434,2.463-4.803V287.07c0-2.378-0.774-3.964-2.341-4.77c-0.913-0.499-2.573-0.812-4.969-0.946v-2.051h28.941
		v2.051c-3.367,0.112-5.613,0.568-6.762,1.375c-1.091,0.815-1.648,2.824-1.648,6.023v38.069c0,1.789,0.475,2.969,1.416,3.548
		c0.961,0.572,2.843,0.867,5.623,0.867c4.979,0,9.155-1.063,12.521-3.193c3.385-2.15,6.32-6.316,8.773-12.514h2.424l-3.346,18.271
		h-47.943V331.625z"/>
	<path fill-rule="evenodd" clip-rule="evenodd" fill="#00336A" d="M298.395,333.801v-2.176c2.367-0.081,4.064-0.266,5.053-0.817
		c1.538-0.834,2.312-2.414,2.312-4.727V287.07c0-2.378-0.793-3.964-2.387-4.77c-0.914-0.499-2.582-0.812-4.979-0.946v-2.051h47.691
		v16.262h-2.014c-1.054-5.195-2.844-8.747-5.371-10.668c-2.518-1.916-7.095-2.873-13.742-2.873c-2.537,0-4.16,0.267-4.858,0.794
		c-0.671,0.493-1.017,1.51-1.017,3.021v18.666c4.718,0.049,7.916-0.772,9.585-2.479c1.679-1.729,2.946-4.882,3.833-9.444h2.107
		v27.244h-2.107c-0.579-4.598-1.799-7.824-3.628-9.689c-1.798-1.887-5.072-2.834-9.79-2.834v19.53c0,1.702,0.447,2.866,1.332,3.491
		c0.925,0.61,2.781,0.914,5.587,0.914c5.276,0,9.593-0.998,12.932-2.994c3.349-1.994,6.302-5.734,8.894-11.225h2.304l-3.346,16.782
		H298.395z"/>
	<path fill="#00336A" d="M226.842,314.771l-8.968-19.72l-8.589,19.72H226.842z M193.389,331.625
		c1.984-0.128,3.905-0.946,5.118-2.569c0.784-1.026,2.022-3.221,3.478-6.719l19.543-44.124h2.303l19.619,42.362
		c2.088,4.742,3.636,7.813,4.65,9.207c1.354,1.843,2.352,1.843,3.143,1.843c0.645,0,2.006,0,3.312-1.525
		c0.867-1.017,1.425-2.853,1.425-5.716v-35.631c0-3.045-0.475-4.957-1.425-5.757c-0.943-0.798-2.751-1.353-5.446-1.642v-2.051
		h26.639c7.059,0,12.42,1.119,16.084,3.347c3.692,2.237,5.539,6.07,5.539,11.506c0,2.647-0.729,5.138-2.184,7.472
		c-1.426,2.308-3.803,4.179-7.113,5.591c-2.508,0.998-5.016,1.604-7.524,1.809c-2.108,0.187-5.08,0.28-8.876,0.312v-2.868
		c3.674-0.195,6.21-0.717,7.59-1.574c2.601-1.623,3.914-5.129,3.914-10.508c0-3.684-0.643-6.645-1.899-8.896
		c-1.269-2.265-3.693-3.395-7.284-3.395c-1.631,0-2.813,0.202-3.542,0.598c-0.717,0.36-1.054,1.1-1.054,2.201v39.486
		c0,2.971,0.514,4.908,1.529,5.827c1.035,0.925,2.938,1.314,5.744,1.414v2.176h-51.002v-2.176c2.685-0.1,4.457-0.207,5.295-0.548
		c0.869-0.344,1.287-1.201,1.287-2.601c0-0.629-0.204-1.584-0.645-2.876c-0.279-0.76-0.632-1.674-1.09-2.746l-2.219-4.889h-20.4
		c-1.482,3.406-2.564,5.888-2.714,6.255c-1.137,2.504-1.25,3.594-1.25,4.535c0,1.157,0.942,2,2.537,2.515
		c0.952,0.293,2.358,0.33,4.242,0.354v2.176h-17.323V331.625z"/>
	<path fill="#00336A" d="M74.825,314.78l-7.916-18.648h-0.681l-7.478,18.648H74.825z M73.333,333.801v-2.176
		c2.695-0.1,4.457-0.196,5.287-0.548c0.876-0.334,1.306-1.201,1.306-2.592c0-0.633-0.224-1.584-0.644-2.87
		c-0.279-0.766-0.644-1.685-1.109-2.761l-2.089-4.871H57.501c-1.22,3.193-1.995,5.276-2.35,6.247
		c-0.727,2.074-1.091,3.584-1.091,4.525c0,1.161,0.803,2,2.387,2.527c0.934,0.28,2.35,0.317,4.243,0.342v2.176H43.795v-2.176
		c1.996-0.128,3.6-0.882,4.821-2.514c0.772-1.024,1.894-3.276,3.347-6.765l18.377-44.126h2.304l18.47,42.354
		c2.071,4.742,3.535,7.692,4.552,9.087c1.034,1.36,2.61,2.013,4.493,1.967c1.082-0.009,1.902-0.374,2.909-1.343
		c0.989-0.934,1.538-2.905,1.538-5.902v-35.631c0-3.119-0.596-5.152-1.817-6.103c-0.802-0.626-2.62-1.058-5.456-1.296v-2.051h26.641
		c5.52,0,9.994,0.567,13.418,1.697c6.629,2.283,9.938,6.386,9.938,12.319c0,4.384-1.65,7.839-4.96,10.356
		c-2.536,1.891-5.222,3.095-8.047,3.625l14.462,20.011c0.457,0.634,1.333,1.841,1.688,2.255c1.873,2.058,4.14,2.058,5.584,2.058
		c4.196,0,4.998-0.621,5.912-1.525c0.942-0.952,1.417-2.853,1.417-5.716v-35.631c0-3.045-0.475-4.957-1.417-5.757
		c-0.951-0.803-2.771-1.353-5.464-1.642v-2.051h26.638c7.068,0,12.429,1.119,16.094,3.347c3.684,2.237,5.538,6.07,5.538,11.506
		c0,2.647-0.727,5.138-2.182,7.472c-1.437,2.308-3.804,4.179-7.123,5.591c-2.499,0.998-5.008,1.604-7.506,1.813
		c-2.126,0.182-5.101,0.275-8.886,0.308v-2.868c3.673-0.195,6.209-0.717,7.588-1.574c2.612-1.623,3.918-5.129,3.918-10.508
		c0-3.684-0.635-6.639-1.893-8.896c-1.277-2.265-3.701-3.395-7.283-3.395c-1.641,0-2.824,0.202-3.553,0.598
		c-0.707,0.36-1.053,1.1-1.053,2.201v39.486c0,2.971,0.504,4.908,1.539,5.827c1.015,0.925,2.926,1.314,5.732,1.414v2.176h-46.682
		l-17.177-25.206l-0.01-2.662c4.289-0.225,7.423-0.943,9.427-2.136c2.341-1.418,3.514-4.671,3.514-9.763
		c0-3.128-0.447-5.594-1.322-7.411c-1.548-3.06-4.354-4.599-8.42-4.599c-2.209,0-3.664,0.276-4.362,0.825
		c-0.673,0.528-1.017,1.405-1.017,2.644v38.891c0,2.834,0.493,4.755,1.464,5.753c0.969,0.975,2.908,1.389,5.817,1.488v2.176H73.333z
		"/>
	<rect x="217.836" y="218.157" fill-rule="evenodd" clip-rule="evenodd" fill="#00336A" width="12.195" height="55.317"/>
	<path fill-rule="evenodd" clip-rule="evenodd" fill="#3A8244" d="M183.803,226.012c0-6.224,5.184-11.276,11.58-11.276
		c6.387,0,11.573,5.053,11.573,11.276c0,6.233-5.187,11.273-11.573,11.273C188.986,237.285,183.803,232.245,183.803,226.012"/>
	<path fill-rule="evenodd" clip-rule="evenodd" fill="#3A8244" d="M165.985,204.218c0-6.229,5.175-11.273,11.562-11.273
		c6.406,0,11.59,5.045,11.59,11.273c0,6.223-5.184,11.277-11.59,11.277C171.16,215.495,165.985,210.44,165.985,204.218"/>
	<path fill-rule="evenodd" clip-rule="evenodd" fill="#3A8244" d="M160.912,128.283c0-6.228,5.177-11.272,11.571-11.272
		c6.388,0,11.571,5.045,11.571,11.272c0,6.229-5.184,11.273-11.571,11.273C166.089,139.557,160.912,134.512,160.912,128.283"/>
	<path fill-rule="evenodd" clip-rule="evenodd" fill="#3A8244" d="M154.498,155.444c0-6.229,5.184-11.273,11.58-11.273
		c6.387,0,11.58,5.045,11.58,11.273c0,6.231-5.193,11.277-11.58,11.277C159.682,166.722,154.498,161.676,154.498,155.444"/>
	<path fill-rule="evenodd" clip-rule="evenodd" fill="#3A8244" d="M186.461,116.376c0-6.237,5.175-11.271,11.58-11.271
		c6.386,0,11.562,5.034,11.562,11.271c0,6.219-5.176,11.27-11.562,11.27C191.636,127.646,186.461,122.595,186.461,116.376"/>
	<path fill-rule="evenodd" clip-rule="evenodd" fill="#3A8244" d="M240.931,226.018c0-6.229,5.185-11.273,11.58-11.273
		c6.388,0,11.58,5.044,11.58,11.273c0,6.228-5.192,11.271-11.58,11.271C246.115,237.289,240.931,232.245,240.931,226.018"/>
	<path fill-rule="evenodd" clip-rule="evenodd" fill="#3A8244" d="M276.529,182.522c0-6.23,5.176-11.273,11.58-11.273
		c6.387,0,11.572,5.043,11.572,11.273c0,6.222-5.186,11.271-11.572,11.271C281.705,193.793,276.529,188.744,276.529,182.522"/>
	<path fill-rule="evenodd" clip-rule="evenodd" fill="#3A8244" d="M258.778,204.265c0-6.225,5.175-11.273,11.579-11.273
		c6.386,0,11.571,5.049,11.571,11.273c0,6.228-5.186,11.282-11.571,11.282C263.953,215.547,258.778,210.492,258.778,204.265"/>
	<path fill-rule="evenodd" clip-rule="evenodd" fill="#3A8244" d="M238.014,116.349c0-6.229,5.174-11.283,11.568-11.283
		c6.396,0,11.582,5.055,11.582,11.283c0,6.228-5.186,11.273-11.582,11.273C243.188,127.622,238.014,122.576,238.014,116.349"/>
	<path fill-rule="evenodd" clip-rule="evenodd" fill="#3A8244" d="M263.821,128.283c0-6.228,5.184-11.272,11.57-11.272
		c6.388,0,11.58,5.045,11.58,11.272c0,6.229-5.192,11.273-11.58,11.273C269.005,139.557,263.821,134.512,263.821,128.283"/>
	<path fill-rule="evenodd" clip-rule="evenodd" fill="#3A8244" d="M270.15,155.687c0-6.223,5.187-11.273,11.582-11.273
		c6.395,0,11.58,5.051,11.58,11.273c0,6.228-5.186,11.282-11.58,11.282C275.337,166.969,270.15,161.914,270.15,155.687"/>
	<path fill-rule="evenodd" clip-rule="evenodd" fill="#3A8244" d="M148.205,182.522c0-6.222,5.174-11.273,11.57-11.273
		c6.387,0,11.57,5.052,11.57,11.273s-5.184,11.276-11.57,11.276C153.379,193.799,148.205,188.744,148.205,182.522"/>
	<path fill-rule="evenodd" clip-rule="evenodd" fill="#3A8244" d="M198.266,195.873c0-6.225,5.192-11.273,11.58-11.273
		c6.387,0,11.57,5.049,11.57,11.273c0,6.237-5.184,11.28-11.57,11.28C203.458,207.153,198.266,202.11,198.266,195.873"/>
	<path fill-rule="evenodd" clip-rule="evenodd" fill="#3A8244" d="M180.623,174.38c0-6.228,5.184-11.276,11.572-11.276
		c6.395,0,11.581,5.049,11.581,11.276c0,6.23-5.187,11.273-11.581,11.273C185.807,185.653,180.623,180.61,180.623,174.38"/>
	<path fill-rule="evenodd" clip-rule="evenodd" fill="#3A8244" d="M191.244,156.297c-4.998-3.883-5.818-10.975-1.828-15.845
		c3.99-4.868,11.272-5.659,16.271-1.781c4.988,3.892,5.809,10.983,1.826,15.846C203.514,159.388,196.231,160.175,191.244,156.297"/>
	<path fill-rule="evenodd" clip-rule="evenodd" fill="#3A8244" d="M212.363,135.501c0-6.219,5.174-11.283,11.57-11.283
		s11.571,5.064,11.571,11.283c0,6.228-5.175,11.271-11.571,11.271S212.363,141.729,212.363,135.501"/>
	<path fill-rule="evenodd" clip-rule="evenodd" fill="#3A8244" d="M237.817,147.485c0-6.223,5.175-11.268,11.58-11.268
		c6.396,0,11.571,5.045,11.571,11.268c0,6.225-5.175,11.277-11.571,11.277C242.992,158.763,237.817,153.71,237.817,147.485"/>
	<path fill-rule="evenodd" clip-rule="evenodd" fill="#3A8244" d="M244.102,174.291c0-6.228,5.174-11.276,11.57-11.276
		c6.406,0,11.58,5.049,11.58,11.276c0,6.225-5.174,11.271-11.58,11.271C249.275,185.562,244.102,180.516,244.102,174.291"/>
	<path fill-rule="evenodd" clip-rule="evenodd" fill="#3A8244" d="M226.507,195.873c0-6.225,5.185-11.273,11.581-11.273
		c6.387,0,11.57,5.049,11.57,11.273c0,6.229-5.184,11.273-11.57,11.273C231.691,207.146,226.507,202.102,226.507,195.873"/>
	<path fill-rule="evenodd" clip-rule="evenodd" fill="#3A8244" d="M212.633,165.075c0-6.225,5.174-11.272,11.571-11.272
		c6.388,0,11.58,5.048,11.58,11.272c0,6.232-5.192,11.283-11.58,11.283C217.807,176.358,212.633,171.308,212.633,165.075"/>
	<path fill-rule="evenodd" clip-rule="evenodd" fill="#3A8244" d="M212.176,104.144c0-6.223,5.184-11.271,11.571-11.271
		c6.396,0,11.581,5.049,11.581,11.271c0,6.229-5.185,11.282-11.581,11.282C217.359,115.426,212.176,110.372,212.176,104.144"/>
	<rect x="44.327" y="345.25" fill-rule="evenodd" clip-rule="evenodd" fill="#3A8244" width="359.223" height="11.879"/>
	<path fill="#00336A" d="M397.955,272.675c4.131,0,7.441,3.364,7.441,7.5c0,4.2-3.311,7.538-7.48,7.538
		c-4.129,0-7.494-3.338-7.494-7.538c0-4.136,3.365-7.5,7.494-7.5H397.955z M397.88,274.176c-3.132,0-5.659,2.693-5.659,6.032
		c0,3.366,2.527,5.998,5.695,5.998c3.172,0.033,5.735-2.632,5.735-5.998c0-3.339-2.563-6.032-5.735-6.032H397.88z M396.623,284.543
		h-1.764v-8.336c0.661-0.102,1.398-0.233,2.658-0.233c1.435,0,2.301,0.233,2.871,0.662c0.465,0.368,0.738,0.934,0.738,1.811
		c0,0.992-0.711,1.691-1.615,1.93v0.064c0.745,0.139,1.211,0.801,1.342,2.032c0.16,1.298,0.337,1.804,0.469,2.07h-1.838
		c-0.196-0.307-0.327-1.035-0.502-2.173c-0.132-0.895-0.674-1.258-1.568-1.258h-0.791V284.543z M396.623,279.736h0.828
		c1.035,0,1.837-0.331,1.837-1.198c0-0.695-0.514-1.23-1.697-1.23c-0.438,0-0.735,0-0.968,0.027V279.736z"/>
</g>
</svg>
