<?xml version="1.0" encoding="utf-8"?>
<!-- Generator: Adobe Illustrator 16.0.0, SVG Export Plug-In . SVG Version: 6.00 Build 0)  -->
<!DOCTYPE svg PUBLIC "-//W3C//DTD SVG 1.1//EN" "http://www.w3.org/Graphics/SVG/1.1/DTD/svg11.dtd">
<svg version="1.1" id="Capa_1" xmlns="http://www.w3.org/2000/svg" xmlns:xlink="http://www.w3.org/1999/xlink" x="0px" y="0px"
	 width="450px" height="450px" viewBox="0 0 450 450" enable-background="new 0 0 450 450" xml:space="preserve">
<g>
	<g>
		<g>
			<path fill="#08255A" d="M144.35,223.773c0,34.579-28.023,62.616-62.6,62.616c-34.577,0-62.619-28.037-62.619-62.616
				c0-34.58,28.042-62.617,62.619-62.617C116.326,161.156,144.35,189.193,144.35,223.773z"/>
		</g>
		<g opacity="0.5">
			
				<linearGradient id="SVGID_1_" gradientUnits="userSpaceOnUse" x1="-3353.0571" y1="-10468.418" x2="-3353.0571" y2="-10413.415" gradientTransform="matrix(-1 0 0 -1 -3270.918 -10183.0547)">
				<stop  offset="0" style="stop-color:#FFFFFF"/>
				<stop  offset="0.0346" style="stop-color:#E2E5EC"/>
				<stop  offset="0.1023" style="stop-color:#AFB9CA"/>
				<stop  offset="0.1733" style="stop-color:#8391AC"/>
				<stop  offset="0.2462" style="stop-color:#5D7093"/>
				<stop  offset="0.3216" style="stop-color:#3E557E"/>
				<stop  offset="0.4001" style="stop-color:#26406E"/>
				<stop  offset="0.4832" style="stop-color:#153163"/>
				<stop  offset="0.5741" style="stop-color:#0B285C"/>
				<stop  offset="0.6871" style="stop-color:#08255A"/>
			</linearGradient>
			<path fill="url(#SVGID_1_)" d="M25.211,240.018c0-22.029,27.685,0.523,56.675,0.523c29.002,0,57.18-22.553,57.18-0.523
				c0,22-28.459,45.346-57.461,45.346C52.614,285.363,25.211,262.018,25.211,240.018z"/>
		</g>
		<g>
			<linearGradient id="SVGID_2_" gradientUnits="userSpaceOnUse" x1="81.8652" y1="166.3984" x2="81.8652" y2="234.4141">
				<stop  offset="0" style="stop-color:#FFFFFF"/>
				<stop  offset="0.0944" style="stop-color:#D4D9E2"/>
				<stop  offset="0.2258" style="stop-color:#9EAABE"/>
				<stop  offset="0.3589" style="stop-color:#7081A0"/>
				<stop  offset="0.491" style="stop-color:#4B6087"/>
				<stop  offset="0.6218" style="stop-color:#2E4673"/>
				<stop  offset="0.751" style="stop-color:#193465"/>
				<stop  offset="0.878" style="stop-color:#0C295D"/>
				<stop  offset="1" style="stop-color:#08255A"/>
			</linearGradient>
			<path fill="url(#SVGID_2_)" d="M126.202,196.277c0,16.525-19.652,38.137-44.157,38.137c-24.501,0-44.516-21.611-44.516-38.137
				c0-16.494,19.854-29.879,44.327-29.879C106.373,166.398,126.202,179.783,126.202,196.277z"/>
		</g>
		<g>
			
				<radialGradient id="SVGID_4_" cx="260608.0938" cy="671665.8125" r="5640.8438" gradientTransform="matrix(0.0111 0 0 0.0111 -2811.0093 -7231.7173)" gradientUnits="userSpaceOnUse">
				<stop  offset="0" style="stop-color:#FFFFFF"/>
				<stop  offset="0.1987" style="stop-color:#FCFDFD"/>
				<stop  offset="0.3343" style="stop-color:#F3F5F7"/>
				<stop  offset="0.4512" style="stop-color:#E4E7ED"/>
				<stop  offset="0.5573" style="stop-color:#CED4DE"/>
				<stop  offset="0.6564" style="stop-color:#B2BBCC"/>
				<stop  offset="0.75" style="stop-color:#909DB5"/>
				<stop  offset="0.8395" style="stop-color:#677999"/>
				<stop  offset="0.9235" style="stop-color:#39507B"/>
				<stop  offset="1" style="stop-color:#08255A"/>
			</radialGradient>
			<path fill="url(#SVGID_4_)" d="M144.35,223.773c0,34.579-28.023,62.616-62.6,62.616c-34.577,0-62.619-28.037-62.619-62.616
				c0-34.58,28.042-62.617,62.619-62.617C116.326,161.156,144.35,189.193,144.35,223.773z"/>
		</g>
		<g opacity="0.6">
			
				<radialGradient id="SVGID_6_" cx="260608.0938" cy="671665.8125" r="5640.8438" gradientTransform="matrix(0.0111 0 0 0.0111 -2811.0093 -7231.7173)" gradientUnits="userSpaceOnUse">
				<stop  offset="0" style="stop-color:#FFFFFF"/>
				<stop  offset="0.1987" style="stop-color:#FCFDFD"/>
				<stop  offset="0.3343" style="stop-color:#F3F5F7"/>
				<stop  offset="0.4512" style="stop-color:#E4E7ED"/>
				<stop  offset="0.5573" style="stop-color:#CED4DE"/>
				<stop  offset="0.6564" style="stop-color:#B2BBCC"/>
				<stop  offset="0.75" style="stop-color:#909DB5"/>
				<stop  offset="0.8395" style="stop-color:#677999"/>
				<stop  offset="0.9235" style="stop-color:#39507B"/>
				<stop  offset="1" style="stop-color:#08255A"/>
			</radialGradient>
			<path fill="url(#SVGID_6_)" d="M144.35,223.773c0,34.579-28.023,62.616-62.6,62.616c-34.577,0-62.619-28.037-62.619-62.616
				c0-34.58,28.042-62.617,62.619-62.617C116.326,161.156,144.35,189.193,144.35,223.773z"/>
		</g>
		<g opacity="0.43">
			<path fill="#08255A" d="M144.35,223.773c0,34.579-28.023,62.616-62.6,62.616c-34.577,0-62.619-28.037-62.619-62.616
				c0-34.58,28.042-62.617,62.619-62.617C116.326,161.156,144.35,189.193,144.35,223.773z"/>
		</g>
		<g>
			<path fill="#FFFFFF" d="M77.631,188.391c-4.101,0-7.413,3.311-7.413,7.436c0,4.076,3.312,7.42,7.413,7.42
				c4.119,0,7.436-3.344,7.436-7.42C85.066,191.701,81.75,188.391,77.631,188.391z"/>
			<rect x="70.825" y="206.611" fill="#FFFFFF" width="13.617" height="49.105"/>
			<path fill="#FFFFFF" d="M104.684,212.637v-25.863H90.688v68.938h13.995v-26.762c-0.058-5.377,2.663-11.336,8.697-11.209
				c8.744,0.223,8.048,7.523,8.048,14.216v23.755h13.728l-0.025-29.823c0.22-7.042,0-21.386-16.365-21.386
				C112.907,204.502,107.072,207.527,104.684,212.637z"/>
		</g>
	</g>
	<g>
		<g>
			<path fill="#5F666F" d="M164.656,248.107h8.813l6.689,19.596h0.049l6.31-19.596h8.821v28.488h-5.849v-20.201h-0.089
				l-6.977,20.201h-4.832l-6.978-19.984h-0.076v19.984h-5.883V248.107z"/>
			<path fill="#5F666F" d="M203.986,267.672c0.143,3.584,1.907,5.217,5.052,5.217c2.275,0,4.107-1.395,4.467-2.693h5.005
				c-1.601,4.895-5.005,6.961-9.664,6.961c-6.505,0-10.525-4.471-10.525-10.854c0-6.176,4.274-10.883,10.525-10.883
				c7.046,0,10.411,5.874,10.021,12.252H203.986z M213.205,264.061c-0.524-2.867-1.765-4.382-4.527-4.373
				c-3.581,0-4.628,2.79-4.691,4.373H213.205z"/>
			<path fill="#5F666F" d="M225.537,265.736l-6.756-9.779h6.428l3.655,5.396l3.593-5.396h6.253l-6.756,9.673l7.607,10.966h-6.472
				l-4.304-6.509l-4.315,6.509h-6.319L225.537,265.736z"/>
			<path fill="#5F666F" d="M246.605,252.784h-5.655v-4.677h5.655V252.784z M240.95,255.957h5.655v20.639h-5.655V255.957z"/>
			<path fill="#5F666F" d="M263.978,263.227c-0.354-2.307-1.825-3.548-4.188-3.548c-3.624,0-4.812,3.674-4.812,6.692
				c0,2.967,1.131,6.518,4.688,6.518c2.628,0,4.168-1.678,4.514-4.191h5.467c-0.699,5.466-4.521,8.459-9.936,8.459
				c-6.227,0-10.417-4.387-10.417-10.579c0-6.427,3.838-11.157,10.525-11.157c4.886,0,9.353,2.541,9.706,7.807H263.978z"/>
			<path fill="#5F666F" d="M281.745,255.42c6.489,0,10.678,4.316,10.678,10.883c0,6.535-4.188,10.854-10.678,10.854
				c-6.462,0-10.648-4.318-10.648-10.854C271.097,259.736,275.283,255.42,281.745,255.42z M281.745,272.889
				c3.875,0,5.023-3.327,5.023-6.586c0-3.327-1.148-6.624-5.023-6.624c-3.835,0-4.99,3.297-4.99,6.624
				C276.755,269.562,277.91,272.889,281.745,272.889z"/>
		</g>
		<path fill="#08255A" d="M165.015,170.398h6.717v30.547h-6.717V170.398z"/>
		<path fill="#08255A" d="M177.366,178.816h5.783v3.082h0.109c1.525-2.483,4.196-3.665,6.768-3.665c6.459,0,8.076,3.634,8.076,9.091
			v13.621h-6.07v-12.494c0-3.643-1.072-5.426-3.906-5.426c-3.277,0-4.686,1.824-4.686,6.309v11.611h-6.074V178.816z"/>
		<path fill="#08255A" d="M209.652,178.816h4.443v4.06h-4.443v10.96c0,2.05,0.52,2.566,2.573,2.566c0.632,0,1.232-0.051,1.87-0.168
			v4.742c-1.028,0.178-2.354,0.209-3.555,0.209c-3.7,0-6.956-0.859-6.956-5.268v-13.042h-3.693v-4.06h3.693v-6.626h6.067V178.816z"
			/>
		<path fill="#08255A" d="M221.622,191.367c0.184,3.835,2.071,5.578,5.433,5.578c2.444,0,4.406-1.5,4.799-2.86h5.345
			c-1.721,5.226-5.345,7.45-10.352,7.45c-6.983,0-11.287-4.801-11.287-11.652c0-6.609,4.559-11.649,11.287-11.649
			c7.541,0,11.17,6.326,10.736,13.134H221.622z M231.507,187.494c-0.539-3.068-1.88-4.693-4.834-4.693
			c-3.842,0-4.938,2.991-5.051,4.693H231.507z"/>
		<path fill="#08255A" d="M241.173,178.816l5.761,0.018v4.093h0.093c1.108-2.761,4.102-4.693,7.062-4.693
			c0.402,0,0.921,0.075,1.321,0.2v5.649c-0.567-0.117-1.464-0.218-2.178-0.218c-4.455,0-5.985,3.211-5.985,7.118v9.962h-6.074
			V178.816z"/>
		<path fill="#08255A" d="M257.401,178.834h5.811v3.064h0.112c1.532-2.483,4.184-3.665,6.746-3.665c6.468,0,8.086,3.634,8.086,9.091
			v13.621h-6.077v-12.494c0-3.643-1.076-5.426-3.87-5.426c-3.31,0-4.706,1.824-4.706,6.309v11.611h-6.102V178.834z"/>
		<path fill="#08255A" d="M282.131,185.617c0.358-5.684,5.45-7.384,10.407-7.384c4.383,0,9.696,0.989,9.696,6.277v11.501
			c0,2.007,0.2,4.006,0.771,4.934h-6.169c-0.189-0.703-0.37-1.426-0.417-2.152c-1.926,2.001-4.746,2.742-7.438,2.742
			c-4.197,0-7.535-2.107-7.535-6.65c0-5.002,3.776-6.184,7.535-6.693c3.72-0.557,7.182-0.422,7.182-2.908
			c0-2.607-1.815-2.992-3.93-2.992c-2.311,0-3.807,0.942-4.023,3.326H282.131z M296.163,190.126
			c-1.022,0.892-3.173,0.926-5.047,1.286c-1.89,0.371-3.613,1.008-3.613,3.238c0,2.262,1.777,2.811,3.741,2.811
			c4.738,0,4.919-3.758,4.919-5.086V190.126z"/>
		<path fill="#08255A" d="M314.255,178.834h4.438v4.042h-4.438v10.96c0,2.05,0.503,2.566,2.564,2.566
			c0.623,0,1.245-0.042,1.873-0.168v4.742c-1.031,0.178-2.353,0.209-3.541,0.209c-3.729,0-6.979-0.859-6.979-5.268v-13.042h-3.669
			v-4.042h3.669v-6.644h6.083V178.834z"/>
		<path fill="#08255A" d="M328.609,175.4h-6.095v-5.002h6.095V175.4z M322.515,178.834h6.095v22.111h-6.095V178.834z"/>
		<path fill="#08255A" d="M343.734,178.233c6.981,0,11.46,4.606,11.46,11.649c0,7.029-4.479,11.652-11.46,11.652
			c-6.926,0-11.404-4.623-11.404-11.652C332.33,182.84,336.809,178.233,343.734,178.233z M343.734,196.945
			c4.171,0,5.379-3.535,5.379-7.062c0-3.531-1.208-7.082-5.379-7.082c-4.092,0-5.351,3.551-5.351,7.082
			C338.384,193.41,339.643,196.945,343.734,196.945z"/>
		<path fill="#08255A" d="M357.989,178.834h5.76v3.064h0.135c1.554-2.483,4.185-3.665,6.758-3.665c6.453,0,8.087,3.634,8.087,9.091
			v13.621h-6.077v-12.494c0-3.643-1.066-5.426-3.879-5.426c-3.305,0-4.71,1.824-4.71,6.309v11.611h-6.073V178.834z"/>
		<path fill="#08255A" d="M382.72,185.617c0.32-5.684,5.396-7.384,10.375-7.384c4.407,0,9.709,0.989,9.709,6.277v11.501
			c0,2.007,0.211,4.006,0.775,4.934h-6.162c-0.207-0.703-0.388-1.426-0.434-2.152c-1.926,2.001-4.733,2.742-7.43,2.742
			c-4.187,0-7.529-2.107-7.529-6.65c0-5.002,3.764-6.184,7.529-6.693c3.704-0.557,7.178-0.422,7.178-2.908
			c0-2.607-1.793-2.992-3.936-2.992c-2.309,0-3.806,0.942-4.016,3.326H382.72z M396.731,190.126
			c-1.04,0.892-3.174,0.926-5.035,1.286c-1.885,0.371-3.598,1.008-3.598,3.238c0,2.262,1.747,2.811,3.713,2.811
			c4.744,0,4.92-3.758,4.92-5.086V190.126z"/>
		<path fill="#08255A" d="M407.282,170.398h6.084v30.547h-6.084V170.398z"/>
		<path fill="#08255A" d="M165.015,208.879h6.717v11.709h12.371v-11.709h6.701v30.527h-6.701V226.23h-12.371v13.176h-6.717V208.879z
			"/>
		<path fill="#08255A" d="M206.033,216.707c6.959,0,11.454,4.617,11.454,11.667c0,7.009-4.495,11.626-11.454,11.626
			c-6.951,0-11.41-4.617-11.41-11.626C194.623,221.324,199.082,216.707,206.033,216.707z M206.033,235.424
			c4.139,0,5.401-3.542,5.401-7.05c0-3.551-1.263-7.095-5.401-7.095c-4.109,0-5.356,3.544-5.356,7.095
			C200.677,231.882,201.924,235.424,206.033,235.424z"/>
		<path fill="#08255A" d="M241.388,239.406h-5.754v-3.091h-0.156c-1.528,2.483-4.162,3.685-6.75,3.685
			c-6.43,0-8.069-3.645-8.069-9.11v-13.602h6.06v12.486c0,3.64,1.083,5.433,3.907,5.433c3.276,0,4.702-1.834,4.702-6.335v-11.584
			h6.061V239.406z"/>
		<path fill="#08255A" d="M250.334,232.214c0.038,2.669,2.261,3.728,4.644,3.728c1.766,0,3.996-0.676,3.996-2.816
			c0-1.852-2.522-2.502-6.885-3.426c-3.516-0.776-7.018-2.027-7.018-5.904c0-5.641,4.872-7.088,9.628-7.088
			c4.817,0,9.268,1.613,9.75,7.041h-5.774c-0.172-2.344-1.969-2.99-4.158-2.99c-1.375,0-3.374,0.247-3.374,2.048
			c0,2.175,3.414,2.476,6.884,3.29c3.547,0.826,7.003,2.102,7.003,6.211c0,5.808-5.022,7.693-10.074,7.693
			c-5.135,0-10.142-1.926-10.396-7.786H250.334z"/>
		<path fill="#08255A" d="M273.588,229.832c0.179,3.848,2.04,5.592,5.438,5.592c2.42,0,4.406-1.482,4.768-2.851h5.363
			c-1.721,5.209-5.363,7.427-10.348,7.427c-6.977,0-11.276-4.793-11.276-11.626c0-6.635,4.554-11.667,11.276-11.667
			c7.516,0,11.152,6.313,10.728,13.125H273.588z M283.469,225.971c-0.559-3.064-1.896-4.691-4.836-4.691
			c-3.849,0-4.956,2.984-5.045,4.691H283.469z"/>
	</g>
	<g>
		<g>
			<path fill="#08255A" d="M144.35,223.773c0,34.579-28.023,62.616-62.6,62.616c-34.577,0-62.619-28.037-62.619-62.616
				c0-34.58,28.042-62.617,62.619-62.617C116.326,161.156,144.35,189.193,144.35,223.773z"/>
		</g>
		<g opacity="0.5">
			
				<linearGradient id="SVGID_8_" gradientUnits="userSpaceOnUse" x1="-3353.0571" y1="-10468.418" x2="-3353.0571" y2="-10413.415" gradientTransform="matrix(-1 0 0 -1 -3270.918 -10183.0547)">
				<stop  offset="0" style="stop-color:#FFFFFF"/>
				<stop  offset="0.0346" style="stop-color:#E2E5EC"/>
				<stop  offset="0.1023" style="stop-color:#AFB9CA"/>
				<stop  offset="0.1733" style="stop-color:#8391AC"/>
				<stop  offset="0.2462" style="stop-color:#5D7093"/>
				<stop  offset="0.3216" style="stop-color:#3E557E"/>
				<stop  offset="0.4001" style="stop-color:#26406E"/>
				<stop  offset="0.4832" style="stop-color:#153163"/>
				<stop  offset="0.5741" style="stop-color:#0B285C"/>
				<stop  offset="0.6871" style="stop-color:#08255A"/>
			</linearGradient>
			<path fill="url(#SVGID_8_)" d="M25.211,240.018c0-22.029,27.685,0.523,56.675,0.523c29.002,0,57.18-22.553,57.18-0.523
				c0,22-28.459,45.346-57.461,45.346C52.614,285.363,25.211,262.018,25.211,240.018z"/>
		</g>
		<g>
			<linearGradient id="SVGID_9_" gradientUnits="userSpaceOnUse" x1="81.8652" y1="166.3984" x2="81.8652" y2="234.4141">
				<stop  offset="0" style="stop-color:#FFFFFF"/>
				<stop  offset="0.0944" style="stop-color:#D4D9E2"/>
				<stop  offset="0.2258" style="stop-color:#9EAABE"/>
				<stop  offset="0.3589" style="stop-color:#7081A0"/>
				<stop  offset="0.491" style="stop-color:#4B6087"/>
				<stop  offset="0.6218" style="stop-color:#2E4673"/>
				<stop  offset="0.751" style="stop-color:#193465"/>
				<stop  offset="0.878" style="stop-color:#0C295D"/>
				<stop  offset="1" style="stop-color:#08255A"/>
			</linearGradient>
			<path fill="url(#SVGID_9_)" d="M126.202,196.277c0,16.525-19.652,38.137-44.157,38.137c-24.501,0-44.516-21.611-44.516-38.137
				c0-16.494,19.854-29.879,44.327-29.879C106.373,166.398,126.202,179.783,126.202,196.277z"/>
		</g>
		<g>
			
				<radialGradient id="SVGID_10_" cx="260608.0938" cy="671665.8125" r="5640.8438" gradientTransform="matrix(0.0111 0 0 0.0111 -2811.0093 -7231.7173)" gradientUnits="userSpaceOnUse">
				<stop  offset="0" style="stop-color:#FFFFFF"/>
				<stop  offset="0.1987" style="stop-color:#FCFDFD"/>
				<stop  offset="0.3343" style="stop-color:#F3F5F7"/>
				<stop  offset="0.4512" style="stop-color:#E4E7ED"/>
				<stop  offset="0.5573" style="stop-color:#CED4DE"/>
				<stop  offset="0.6564" style="stop-color:#B2BBCC"/>
				<stop  offset="0.75" style="stop-color:#909DB5"/>
				<stop  offset="0.8395" style="stop-color:#677999"/>
				<stop  offset="0.9235" style="stop-color:#39507B"/>
				<stop  offset="1" style="stop-color:#08255A"/>
			</radialGradient>
			<path fill="url(#SVGID_10_)" d="M144.35,223.773c0,34.579-28.023,62.616-62.6,62.616c-34.577,0-62.619-28.037-62.619-62.616
				c0-34.58,28.042-62.617,62.619-62.617C116.326,161.156,144.35,189.193,144.35,223.773z"/>
		</g>
		<g opacity="0.6">
			
				<radialGradient id="SVGID_11_" cx="260608.0938" cy="671665.8125" r="5640.8438" gradientTransform="matrix(0.0111 0 0 0.0111 -2811.0093 -7231.7173)" gradientUnits="userSpaceOnUse">
				<stop  offset="0" style="stop-color:#FFFFFF"/>
				<stop  offset="0.1987" style="stop-color:#FCFDFD"/>
				<stop  offset="0.3343" style="stop-color:#F3F5F7"/>
				<stop  offset="0.4512" style="stop-color:#E4E7ED"/>
				<stop  offset="0.5573" style="stop-color:#CED4DE"/>
				<stop  offset="0.6564" style="stop-color:#B2BBCC"/>
				<stop  offset="0.75" style="stop-color:#909DB5"/>
				<stop  offset="0.8395" style="stop-color:#677999"/>
				<stop  offset="0.9235" style="stop-color:#39507B"/>
				<stop  offset="1" style="stop-color:#08255A"/>
			</radialGradient>
			<path fill="url(#SVGID_11_)" d="M144.35,223.773c0,34.579-28.023,62.616-62.6,62.616c-34.577,0-62.619-28.037-62.619-62.616
				c0-34.58,28.042-62.617,62.619-62.617C116.326,161.156,144.35,189.193,144.35,223.773z"/>
		</g>
		<g opacity="0.43">
			<path fill="#08255A" d="M144.35,223.773c0,34.579-28.023,62.616-62.6,62.616c-34.577,0-62.619-28.037-62.619-62.616
				c0-34.58,28.042-62.617,62.619-62.617C116.326,161.156,144.35,189.193,144.35,223.773z"/>
		</g>
		<g>
			<path fill="#FFFFFF" d="M77.631,188.391c-4.101,0-7.413,3.311-7.413,7.436c0,4.076,3.312,7.42,7.413,7.42
				c4.119,0,7.436-3.344,7.436-7.42C85.066,191.701,81.75,188.391,77.631,188.391z"/>
			<rect x="70.825" y="206.611" fill="#FFFFFF" width="13.617" height="49.105"/>
			<path fill="#FFFFFF" d="M104.684,212.637v-25.863H90.688v68.938h13.995v-26.762c-0.058-5.377,2.663-11.336,8.697-11.209
				c8.744,0.223,8.048,7.523,8.048,14.216v23.755h13.728l-0.025-29.823c0.22-7.042,0-21.386-16.365-21.386
				C112.907,204.502,107.072,207.527,104.684,212.637z"/>
		</g>
	</g>
	<g>
		<g>
			<path fill="#5F666F" d="M164.656,248.107h8.813l6.689,19.596h0.049l6.31-19.596h8.821v28.488h-5.849v-20.201h-0.089
				l-6.977,20.201h-4.832l-6.978-19.984h-0.076v19.984h-5.883V248.107z"/>
			<path fill="#5F666F" d="M203.986,267.672c0.143,3.584,1.907,5.217,5.052,5.217c2.275,0,4.107-1.395,4.467-2.693h5.005
				c-1.601,4.895-5.005,6.961-9.664,6.961c-6.505,0-10.525-4.471-10.525-10.854c0-6.176,4.274-10.883,10.525-10.883
				c7.046,0,10.411,5.874,10.021,12.252H203.986z M213.205,264.061c-0.524-2.867-1.765-4.382-4.527-4.373
				c-3.581,0-4.628,2.79-4.691,4.373H213.205z"/>
			<path fill="#5F666F" d="M225.537,265.736l-6.756-9.779h6.428l3.655,5.396l3.593-5.396h6.253l-6.756,9.673l7.607,10.966h-6.472
				l-4.304-6.509l-4.315,6.509h-6.319L225.537,265.736z"/>
			<path fill="#5F666F" d="M246.605,252.784h-5.655v-4.677h5.655V252.784z M240.95,255.957h5.655v20.639h-5.655V255.957z"/>
			<path fill="#5F666F" d="M263.978,263.227c-0.354-2.307-1.825-3.548-4.188-3.548c-3.624,0-4.812,3.674-4.812,6.692
				c0,2.967,1.131,6.518,4.688,6.518c2.628,0,4.168-1.678,4.514-4.191h5.467c-0.699,5.466-4.521,8.459-9.936,8.459
				c-6.227,0-10.417-4.387-10.417-10.579c0-6.427,3.838-11.157,10.525-11.157c4.886,0,9.353,2.541,9.706,7.807H263.978z"/>
			<path fill="#5F666F" d="M281.745,255.42c6.489,0,10.678,4.316,10.678,10.883c0,6.535-4.188,10.854-10.678,10.854
				c-6.462,0-10.648-4.318-10.648-10.854C271.097,259.736,275.283,255.42,281.745,255.42z M281.745,272.889
				c3.875,0,5.023-3.327,5.023-6.586c0-3.327-1.148-6.624-5.023-6.624c-3.835,0-4.99,3.297-4.99,6.624
				C276.755,269.562,277.91,272.889,281.745,272.889z"/>
		</g>
		<path fill="#08255A" d="M165.015,170.398h6.717v30.547h-6.717V170.398z"/>
		<path fill="#08255A" d="M177.366,178.816h5.783v3.082h0.109c1.525-2.483,4.196-3.665,6.768-3.665c6.459,0,8.076,3.634,8.076,9.091
			v13.621h-6.07v-12.494c0-3.643-1.072-5.426-3.906-5.426c-3.277,0-4.686,1.824-4.686,6.309v11.611h-6.074V178.816z"/>
		<path fill="#08255A" d="M209.652,178.816h4.443v4.06h-4.443v10.96c0,2.05,0.52,2.566,2.573,2.566c0.632,0,1.232-0.051,1.87-0.168
			v4.742c-1.028,0.178-2.354,0.209-3.555,0.209c-3.7,0-6.956-0.859-6.956-5.268v-13.042h-3.693v-4.06h3.693v-6.626h6.067V178.816z"
			/>
		<path fill="#08255A" d="M221.622,191.367c0.184,3.835,2.071,5.578,5.433,5.578c2.444,0,4.406-1.5,4.799-2.86h5.345
			c-1.721,5.226-5.345,7.45-10.352,7.45c-6.983,0-11.287-4.801-11.287-11.652c0-6.609,4.559-11.649,11.287-11.649
			c7.541,0,11.17,6.326,10.736,13.134H221.622z M231.507,187.494c-0.539-3.068-1.88-4.693-4.834-4.693
			c-3.842,0-4.938,2.991-5.051,4.693H231.507z"/>
		<path fill="#08255A" d="M241.173,178.816l5.761,0.018v4.093h0.093c1.108-2.761,4.102-4.693,7.062-4.693
			c0.402,0,0.921,0.075,1.321,0.2v5.649c-0.567-0.117-1.464-0.218-2.178-0.218c-4.455,0-5.985,3.211-5.985,7.118v9.962h-6.074
			V178.816z"/>
		<path fill="#08255A" d="M257.401,178.834h5.811v3.064h0.112c1.532-2.483,4.184-3.665,6.746-3.665c6.468,0,8.086,3.634,8.086,9.091
			v13.621h-6.077v-12.494c0-3.643-1.076-5.426-3.87-5.426c-3.31,0-4.706,1.824-4.706,6.309v11.611h-6.102V178.834z"/>
		<path fill="#08255A" d="M282.131,185.617c0.358-5.684,5.45-7.384,10.407-7.384c4.383,0,9.696,0.989,9.696,6.277v11.501
			c0,2.007,0.2,4.006,0.771,4.934h-6.169c-0.189-0.703-0.37-1.426-0.417-2.152c-1.926,2.001-4.746,2.742-7.438,2.742
			c-4.197,0-7.535-2.107-7.535-6.65c0-5.002,3.776-6.184,7.535-6.693c3.72-0.557,7.182-0.422,7.182-2.908
			c0-2.607-1.815-2.992-3.93-2.992c-2.311,0-3.807,0.942-4.023,3.326H282.131z M296.163,190.126
			c-1.022,0.892-3.173,0.926-5.047,1.286c-1.89,0.371-3.613,1.008-3.613,3.238c0,2.262,1.777,2.811,3.741,2.811
			c4.738,0,4.919-3.758,4.919-5.086V190.126z"/>
		<path fill="#08255A" d="M314.255,178.834h4.438v4.042h-4.438v10.96c0,2.05,0.503,2.566,2.564,2.566
			c0.623,0,1.245-0.042,1.873-0.168v4.742c-1.031,0.178-2.353,0.209-3.541,0.209c-3.729,0-6.979-0.859-6.979-5.268v-13.042h-3.669
			v-4.042h3.669v-6.644h6.083V178.834z"/>
		<path fill="#08255A" d="M328.609,175.4h-6.095v-5.002h6.095V175.4z M322.515,178.834h6.095v22.111h-6.095V178.834z"/>
		<path fill="#08255A" d="M343.734,178.233c6.981,0,11.46,4.606,11.46,11.649c0,7.029-4.479,11.652-11.46,11.652
			c-6.926,0-11.404-4.623-11.404-11.652C332.33,182.84,336.809,178.233,343.734,178.233z M343.734,196.945
			c4.171,0,5.379-3.535,5.379-7.062c0-3.531-1.208-7.082-5.379-7.082c-4.092,0-5.351,3.551-5.351,7.082
			C338.384,193.41,339.643,196.945,343.734,196.945z"/>
		<path fill="#08255A" d="M357.989,178.834h5.76v3.064h0.135c1.554-2.483,4.185-3.665,6.758-3.665c6.453,0,8.087,3.634,8.087,9.091
			v13.621h-6.077v-12.494c0-3.643-1.066-5.426-3.879-5.426c-3.305,0-4.71,1.824-4.71,6.309v11.611h-6.073V178.834z"/>
		<path fill="#08255A" d="M382.72,185.617c0.32-5.684,5.396-7.384,10.375-7.384c4.407,0,9.709,0.989,9.709,6.277v11.501
			c0,2.007,0.211,4.006,0.775,4.934h-6.162c-0.207-0.703-0.388-1.426-0.434-2.152c-1.926,2.001-4.733,2.742-7.43,2.742
			c-4.187,0-7.529-2.107-7.529-6.65c0-5.002,3.764-6.184,7.529-6.693c3.704-0.557,7.178-0.422,7.178-2.908
			c0-2.607-1.793-2.992-3.936-2.992c-2.309,0-3.806,0.942-4.016,3.326H382.72z M396.731,190.126
			c-1.04,0.892-3.174,0.926-5.035,1.286c-1.885,0.371-3.598,1.008-3.598,3.238c0,2.262,1.747,2.811,3.713,2.811
			c4.744,0,4.92-3.758,4.92-5.086V190.126z"/>
		<path fill="#08255A" d="M407.282,170.398h6.084v30.547h-6.084V170.398z"/>
		<path fill="#08255A" d="M165.015,208.879h6.717v11.709h12.371v-11.709h6.701v30.527h-6.701V226.23h-12.371v13.176h-6.717V208.879z
			"/>
		<path fill="#08255A" d="M206.033,216.707c6.959,0,11.454,4.617,11.454,11.667c0,7.009-4.495,11.626-11.454,11.626
			c-6.951,0-11.41-4.617-11.41-11.626C194.623,221.324,199.082,216.707,206.033,216.707z M206.033,235.424
			c4.139,0,5.401-3.542,5.401-7.05c0-3.551-1.263-7.095-5.401-7.095c-4.109,0-5.356,3.544-5.356,7.095
			C200.677,231.882,201.924,235.424,206.033,235.424z"/>
		<path fill="#08255A" d="M241.388,239.406h-5.754v-3.091h-0.156c-1.528,2.483-4.162,3.685-6.75,3.685
			c-6.43,0-8.069-3.645-8.069-9.11v-13.602h6.06v12.486c0,3.64,1.083,5.433,3.907,5.433c3.276,0,4.702-1.834,4.702-6.335v-11.584
			h6.061V239.406z"/>
		<path fill="#08255A" d="M250.334,232.214c0.038,2.669,2.261,3.728,4.644,3.728c1.766,0,3.996-0.676,3.996-2.816
			c0-1.852-2.522-2.502-6.885-3.426c-3.516-0.776-7.018-2.027-7.018-5.904c0-5.641,4.872-7.088,9.628-7.088
			c4.817,0,9.268,1.613,9.75,7.041h-5.774c-0.172-2.344-1.969-2.99-4.158-2.99c-1.375,0-3.374,0.247-3.374,2.048
			c0,2.175,3.414,2.476,6.884,3.29c3.547,0.826,7.003,2.102,7.003,6.211c0,5.808-5.022,7.693-10.074,7.693
			c-5.135,0-10.142-1.926-10.396-7.786H250.334z"/>
		<path fill="#08255A" d="M273.588,229.832c0.179,3.848,2.04,5.592,5.438,5.592c2.42,0,4.406-1.482,4.768-2.851h5.363
			c-1.721,5.209-5.363,7.427-10.348,7.427c-6.977,0-11.276-4.793-11.276-11.626c0-6.635,4.554-11.667,11.276-11.667
			c7.516,0,11.152,6.313,10.728,13.125H273.588z M283.469,225.971c-0.559-3.064-1.896-4.691-4.836-4.691
			c-3.849,0-4.956,2.984-5.045,4.691H283.469z"/>
	</g>
</g>
</svg>
