<?xml version="1.0" encoding="utf-8"?>
<!-- Generator: Adobe Illustrator 16.0.0, SVG Export Plug-In . SVG Version: 6.00 Build 0)  -->
<!DOCTYPE svg PUBLIC "-//W3C//DTD SVG 1.1//EN" "http://www.w3.org/Graphics/SVG/1.1/DTD/svg11.dtd">
<svg version="1.1" id="Capa_1" xmlns="http://www.w3.org/2000/svg" xmlns:xlink="http://www.w3.org/1999/xlink" x="0px" y="0px"
	 width="450px" height="450px" viewBox="0 0 450 450" enable-background="new 0 0 450 450" xml:space="preserve">
<g>
	<path fill-rule="evenodd" clip-rule="evenodd" fill="#1B2741" d="M415.473,207.013c1.983-1.339,3.636-2.064,4.66-2.032
		c0.608,0.032,1.331,0.206,1.331,0.968c0,0.785-0.732,1.424-2.165,1.949c-1.263,0.444-3.197,0.567-5.307,0.323
		C414.576,207.69,415.06,207.294,415.473,207.013 M387.581,209.476c-1.222-0.079-1.828-0.584-1.828-1.539
		c0-0.129,0.082-3.158,6.977-3.506c0.779-0.039,1.662-0.064,3.002,0.087c-0.061,0.004-0.782,0.669-0.782,0.669l-0.431,0.401
		C392.853,207.106,390.079,209.647,387.581,209.476z M402.495,198.007c-0.84,0.736-2.485,2.336-4.082,3.873l-1.808,1.753
		c-1.471-0.266-2.937-0.398-4.433-0.398c-3.346,0-6.42,0.921-7.812,2.367c-0.532,0.56-0.803,1.152-0.792,1.781
		c0.04,1.632,1.892,2.449,2.459,2.671c2.976,1.119,5.469,0.793,8.09-1.052c1.45-1.021,3.19-2.665,4.539-3.978
		c1.067,0.244,2.271,0.557,3.559,0.936l1.193,0.356c-1.547,1.529-3.131,3.139-4.598,4.444l-0.11,0.096
		c-2.047,1.822-3.52,3.135-5.653,3.613c-1.507,0.336-2.564,0.013-2.918-0.197c-0.023,0-0.084,0.068-0.084,0.068
		c1.233,1.023,2.405,1.609,4.422,1.427c1.918-0.167,4.117-1.38,6.387-3.518l3.057-3.026l2.135-2.134l4.327,1.271
		c0.029,0.015,0.075,0.025,0.075,0.025c-0.046,0-2.676,2.623-2.676,2.623l-2.298,2.314c-2.354,2.307-3.636,3.494-5.015,4.479
		c-2.273,1.632-4.221,2.478-5.941,2.596c-0.881,0.054-2.162,0-3.239-0.64c-0.046-0.003-0.104,0.046-0.104,0.046
		c1.164,1.013,2.581,2.209,5.044,2.143c2.768-0.074,5.215-1.426,9.044-4.967c1.742-1.615,3.477-3.428,5.011-5.018l2.835-2.898
		c1.87,0.412,3.546,0.584,5.397,0.549c2.691-0.051,4.992-1.357,5.02-2.844c0.026-1.095-0.874-1.683-1.408-2.027
		c-0.444-0.289-1.652-0.969-3.314-0.969c-2.018,0-4.116,0.898-6.256,2.672l-1.421,1.26c0.017,0-0.526-0.141-0.526-0.141
		l-3.954-1.119c1.168-1.101,2.162-2.046,3.06-2.848c2.162-1.936,4.562-2.738,5.955-2.822c1.022-0.076,2.8,0.012,3.527,0.54
		c0.036-0.01,0.088-0.082,0.088-0.082c-1.956-1.683-3.639-1.895-5.026-1.895c-1.362,0-3.568,0.44-6.254,2.54
		c-1.1,0.856-2.521,2.277-4.013,3.799l-1.998-0.609l-0.488-0.166l-2.105-0.638c0.055-0.002,1.205-1.147,1.205-1.147
		c1.416-1.398,2.752-2.723,3.796-3.604c3.795-3.224,6.19-3.636,7.845-3.646c1.819-0.01,3.268,0.365,4.297,1.121
		c0.03-0.005,0.074-0.074,0.074-0.074c-2.127-1.944-3.66-2.562-6.312-2.592C407.982,194.315,405.21,195.611,402.495,198.007z"/>
	<path fill-rule="evenodd" clip-rule="evenodd" fill="#1B2741" d="M422.884,232.769c-1.266,1.032-2.631,1.98-4.104,2.82
		c-12.601,7.213-28.375,4.455-37.409-5.856c8.07,8.247,20.835,10.851,31.889,6.233l0.136-0.059c0.159-0.068,0.32-0.141,0.483-0.209
		l0.178-0.081c0.15-0.065,0.292-0.136,0.436-0.205l0.21-0.097c0.147-0.072,0.289-0.146,0.433-0.213l0.183-0.096
		c0.148-0.074,0.293-0.151,0.441-0.232l0.171-0.092c0.208-0.111,0.413-0.223,0.604-0.336c0.219-0.121,0.427-0.242,0.633-0.371
		c0.21-0.127,0.415-0.254,0.62-0.383c0.202-0.133,0.405-0.266,0.608-0.401c0.195-0.131,0.39-0.271,0.59-0.411
		c0.193-0.137,0.384-0.277,0.575-0.422c0.353-0.266,0.705-0.539,1.043-0.815L422.884,232.769z"/>
	<path fill="#1B2741" d="M405.146,180.743l1.293-7.33l2.227,0.392l0.47,5.838l2.425-5.328l2.239,0.393l-1.296,7.333l-1.41-0.249
		l1.041-5.909l-2.529,5.648l-1.544-0.275l-0.465-6.175l-1.046,5.91L405.146,180.743z M396.56,174.165l1.736-0.305l3.938,6.86
		l-1.582,0.276l-0.765-1.415l-2.837,0.5l-0.218,1.59l-1.59,0.28L396.56,174.165z M397.693,175.479l-0.466,3.298l2.035-0.356
		L397.693,175.479z M388.148,185.822l-3.604-6.506l4.728-2.621l0.623,1.129l-3.403,1.892l0.772,1.389l3.109-1.729l0.617,1.112
		l-3.115,1.729l0.933,1.674l3.561-1.98l0.671,1.209L388.148,185.822z M383.498,190.663l-4.618-4.012l-1.449,1.664l-1.002-0.868
		l3.893-4.478l0.998,0.869l-1.435,1.655l4.609,4.012L383.498,190.663z M379.09,199.218l-0.279,0.975l-2.868-0.818l-5.049,1.419
		l0.346-1.22l3.938-0.943l-2.841-2.87l0.326-1.143l3.493,3.757L379.09,199.218z M378.124,210.132l-7.442,0.131l-0.013-1.004
		l3.592-0.064l-3.654-3.513l-0.022-1.344l3.03,2.986l4.408-3.205l0.019,1.251l-3.687,2.674l1.15,1.134l2.603-0.044L378.124,210.132z
		 M378.524,219.56l-0.351-0.908c0.498-0.205,0.836-0.524,1.008-0.964c0.175-0.438,0.159-0.933-0.055-1.478
		c-0.204-0.539-0.481-0.92-0.824-1.141c-0.343-0.223-0.711-0.261-1.106-0.109c-0.529,0.203-0.711,0.938-0.541,2.209
		c0.012,0.077,0.023,0.133,0.026,0.174c0.138,1.027,0.128,1.749-0.029,2.159c-0.156,0.409-0.493,0.708-0.999,0.905
		c-0.617,0.234-1.204,0.201-1.755-0.107c-0.55-0.308-0.971-0.834-1.255-1.588c-0.298-0.772-0.326-1.449-0.104-2.041
		c0.226-0.59,0.681-1.02,1.366-1.292l0.354,0.897c-0.455,0.211-0.751,0.51-0.89,0.887c-0.142,0.383-0.113,0.818,0.075,1.31
		c0.175,0.462,0.418,0.792,0.729,0.993c0.309,0.195,0.631,0.231,0.971,0.102c0.536-0.203,0.719-0.932,0.545-2.178
		c-0.028-0.184-0.043-0.328-0.061-0.426l-0.009-0.109c-0.109-0.817-0.108-1.388,0.006-1.713c0.085-0.249,0.228-0.464,0.409-0.643
		c0.189-0.191,0.418-0.333,0.697-0.433c0.675-0.261,1.299-0.229,1.873,0.1c0.584,0.326,1.026,0.903,1.344,1.72
		c0.32,0.841,0.361,1.582,0.115,2.219C379.819,218.733,379.306,219.22,378.524,219.56z"/>
	<path fill="#1B2741" d="M428.199,223.065c0.919,0.772,1.44,1.637,1.562,2.592c0.119,0.956-0.178,1.859-0.893,2.708
		c-0.713,0.853-1.554,1.307-2.522,1.355c-0.961,0.051-1.906-0.31-2.826-1.083c-0.917-0.771-1.437-1.636-1.556-2.594
		s0.184-1.867,0.896-2.721c0.713-0.845,1.553-1.295,2.515-1.345C426.342,221.932,427.28,222.294,428.199,223.065 M427.198,224.263
		c-0.629-0.529-1.233-0.799-1.818-0.809c-0.58-0.018-1.08,0.232-1.5,0.734c-0.423,0.504-0.582,1.043-0.469,1.615
		c0.108,0.571,0.479,1.119,1.107,1.648c0.631,0.527,1.23,0.797,1.813,0.804c0.584,0.013,1.091-0.237,1.517-0.747
		c0.417-0.498,0.57-1.033,0.461-1.604C428.191,225.337,427.824,224.79,427.198,224.263z M427.991,217.53
		c-0.268-0.377-0.433-0.762-0.491-1.152c-0.058-0.389-0.012-0.806,0.133-1.258c0.319-0.991,0.925-1.68,1.812-2.07
		c0.887-0.39,1.886-0.403,3.008-0.039c1.126,0.367,1.932,0.969,2.404,1.798c0.479,0.833,0.549,1.758,0.223,2.774
		c-0.288,0.887-0.739,1.544-1.34,1.965c-0.61,0.42-1.299,0.563-2.079,0.43l0.485-1.484c0.396,0.03,0.734-0.062,1.018-0.274
		c0.278-0.219,0.49-0.548,0.641-0.989c0.191-0.598,0.127-1.129-0.201-1.611c-0.32-0.477-0.867-0.84-1.633-1.092
		c-0.769-0.248-1.43-0.271-1.981-0.059c-0.548,0.21-0.925,0.623-1.12,1.239c-0.153,0.464-0.139,0.894,0.028,1.292
		c0.171,0.396,0.487,0.711,0.935,0.939l0.52-1.603l1.215,0.391l-0.953,2.933l-3.832-1.244l0.312-0.979L427.991,217.53z
		 M429.204,203.302l7.433-0.258l0.129,3.604c0.028,0.81-0.129,1.424-0.46,1.824c-0.33,0.405-0.855,0.615-1.567,0.641
		c-0.452,0.017-0.834-0.065-1.146-0.249c-0.311-0.177-0.528-0.442-0.652-0.798c-0.102,0.328-0.268,0.565-0.5,0.713
		c-0.227,0.143-0.595,0.232-1.092,0.271l-0.875,0.062h-0.019c-0.459,0.025-0.725,0.133-0.815,0.319l-0.224,0.004l-0.064-1.679
		c0.108-0.053,0.231-0.1,0.386-0.137c0.156-0.03,0.334-0.057,0.547-0.068l0.782-0.047c0.457-0.036,0.769-0.133,0.923-0.297
		c0.156-0.162,0.231-0.444,0.213-0.854l-0.057-1.618l-2.891,0.097L429.204,203.302z M433.441,204.688l0.058,1.798
		c0.019,0.389,0.105,0.676,0.272,0.853c0.165,0.179,0.419,0.261,0.759,0.247c0.326-0.01,0.562-0.107,0.725-0.29
		c0.157-0.184,0.234-0.453,0.223-0.805l-0.072-1.875L433.441,204.688z M434.271,194.028l0.665,1.641l-5.896,5.275l-0.601-1.488
		l1.227-1.047l-1.077-2.67l-1.605,0.115l-0.601-1.496L434.271,194.028z M433.228,195.411l-3.326,0.229l0.776,1.918L433.228,195.411z
		 M427.396,191.016c-0.677,0.513-1.397,0.701-2.167,0.585c-0.764-0.124-1.461-0.545-2.087-1.268
		c-0.724-0.834-1.024-1.703-0.91-2.617c0.118-0.911,0.649-1.777,1.581-2.592c0.955-0.826,1.892-1.227,2.811-1.201
		c0.913,0.027,1.758,0.482,2.526,1.365c0.622,0.719,0.94,1.438,0.947,2.152c0.017,0.721-0.278,1.383-0.88,1.979l-0.992-1.145
		c0.275-0.326,0.403-0.664,0.386-1.018c-0.015-0.357-0.181-0.714-0.489-1.076c-0.442-0.504-0.948-0.75-1.499-0.73
		c-0.562,0.023-1.157,0.307-1.784,0.855c-0.611,0.53-0.969,1.072-1.07,1.623c-0.106,0.551,0.051,1.074,0.474,1.558
		c0.311,0.353,0.645,0.565,1.02,0.631c0.376,0.07,0.756-0.013,1.152-0.239L427.396,191.016z"/>
	<path fill-rule="evenodd" clip-rule="evenodd" fill="#C22821" d="M353.162,264.847c0,0-23.646,9.332-61.535,9.332
		c-23.075,0-43.388-3.145-62.839-7.467c-22.729-5.059-50.024-12.128-82.611-12.128c-35.163,0-58.048,9.671-58.048,9.671
		s28.929-6.877,57.847-6.877c26.105,0,49.285,4.703,70.038,9.559c23.558,5.508,41.512,9.65,72.668,9.65
		C327.771,276.587,353.162,264.847,353.162,264.847"/>
	<path fill-rule="evenodd" clip-rule="evenodd" fill="#1B2741" d="M37.737,228.065l-0.004,3.219h19.545
		c0.898-0.924,2.061-2.595,2.365-3.202L37.737,228.065z M55.782,222.54H26.991v3.184h33.785c0,0,1.217-2.828,1.217-5.947
		c0-0.166,0.008-21.709,0.008-21.709c0-1.703,0.701-4.611,4.213-5.365c0.102-0.021,0.203-0.047,0.297-0.072
		c9.975-2.365,20.246-0.212,26.039,2.295c1.052,0.493,1.289-0.333,1.256-0.684c0.126-4.88-3.589-10.434-10.409-10.779
		c-5.536-0.116-8.614,1.872-9.747,2.416c-0.08,0.043-0.221,0.021-0.344-0.121c-1.027-1.005-3.21-2.502-5.661-3.209
		c-0.371-0.074-0.398-0.619,0.024-0.668c5.236-0.561,9.834,0.025,11.747,0.336c0.438,0.082,0.768-0.178,0.596-0.595
		c-0.134-0.302-0.249-0.447-0.468-0.92c-0.465-0.991-1.707-2.065-3.261-2.507c-4.13-1.154-11.153-2.123-17.401-2.17h-0.327h-0.336
		c-6.842,0.047-13.855,1.384-15.671,1.772c-0.455,0.102-1.085,0.261-1.194,0.283c-0.516,0.114-0.633,0.588-0.405,0.836
		c0.128,0.151,0.515,0.489,0.705,0.7c0.231,0.293,0.344,0.703-0.106,1.129L28.53,192.443h8.903h0.11
		c0.582-0.025,1.124,0.522,1.124,1.184c0.005,0.59-0.476,1.155-1.08,1.155h-0.08h-11.57l-3.539,3.234h15.146l0.085-0.012
		c0.594,0.012,1.063,0.616,1.053,1.18c-0.014,0.523-0.439,1.148-1.053,1.148l-0.085,0.01H19.803l-3.55,3.201h30.595h0.099
		c0.604,0,1.068,0.619,1.08,1.162c0.012,0.636-0.435,1.201-1.054,1.201h-0.084H16.253v3.193h30.57h0.095
		c0.707,0,1.097,0.635,1.097,1.227c0,0.521-0.51,1.085-1.108,1.085l-0.083,0.025h-30.57l-0.008,3.212h39.922h0.089
		c0.669,0.025,1.09,0.588,1.078,1.204c-0.024,0.546-0.474,1.126-1.068,1.126l-0.084-0.016H26.999v3.224h28.783h0.601
		c0.542,0,1.007,0.675,1.007,1.216c0,0.549-0.477,1.137-1.015,1.137H55.782z M69.79,194.427c1.209,0,2.037,0.379,2.712,0.687
		c1.405,0.669,3.046,1.433,5.104,2.421c0,0,3.32-2.354,3.49-2.467c1.131-0.78,2.216-0.189,2.574,0.473
		c1.235,2.337,3.521,7.18,4.723,11.622c0.148,0.532-0.018,1.358-0.854,1.608c-0.483,0.139-1.315,0.256-2.171,0.375
		c-1.204,0.141-1.18,1.113-1.18,1.703c0,0.718,0.011,5.619,0.011,7.3c0.024,1.022-0.764,4.392-4.648,4.378c-0.253,0-8.885,0-8.847,0
		c-3.344,0.014-6.039-2.809-6.061-5.822c0-1.98,0-15.77,0.009-17.318C64.665,196.402,67.345,194.396,69.79,194.427z M37.737,233.581
		l-0.004,3.275c0,0,4.336,0,6.795,0c6.083-0.046,10.065-3.275,10.065-3.275H37.737z"/>
	<path fill-rule="evenodd" clip-rule="evenodd" fill="#1B2741" d="M349.937,208.283c0-0.058-0.028-0.108-0.028-0.179
		c-0.103-2.495-0.921-4.723-2.064-6.437c-2.401-3.791-6.612-5.848-11.669-5.775c-5.055-0.072-9.275,1.984-11.66,5.775
		c-1.15,1.714-1.979,3.941-2.088,6.437c0,0.07-0.01,0.121-0.015,0.179c-0.7,8.324,4.123,14.094,12.32,14.765
		c0.491,0.038,0.959,0.061,1.442,0.061c0.462,0,0.942-0.022,1.433-0.061C345.805,222.377,350.623,216.607,349.937,208.283
		 M295.417,202.08c0-2.054,0.201-5.693,0.201-5.693h-6.724c0,0,0.193,3.64,0.193,5.693l-0.023,14.858c0,2.061-0.17,5.576-0.17,5.576
		h0.011h6.687h0.026c0,0-0.19-3.516-0.19-5.576L295.417,202.08z M256.149,218.476c-1.404,0-3.248,0-4.668,0
		c-0.07-2.622-0.106-5.16-0.106-7.463v-0.357c0-0.02,0-0.041,0-0.069h7.754v-3.685h-7.754c0.026-3.969,0.106-6.593,0.106-6.593
		l9.621-0.012v-3.91c-6.732,0.025-16.461,0-16.461,0s0.149,3.61,0.149,5.657v14.839c0,1.876-0.115,5.093-0.139,5.621h17.081
		l0.026-4.144C261.76,218.36,258.393,218.476,256.149,218.476z M144.084,218.476c-1.403,0-3.247,0-4.677,0
		c-0.06-2.622-0.092-5.16-0.1-7.463l-0.005-0.357h0.005c0-0.02,0-0.041,0-0.069h7.766v-3.685h-7.758
		c0.021-3.969,0.092-6.593,0.092-6.593h9.652v-3.922c-6.749,0.025-16.475,0-16.475,0s0.146,3.61,0.146,5.657v14.839
		c0,1.876-0.119,5.093-0.146,5.621h17.098l0.02-4.144C149.702,218.36,146.333,218.476,144.084,218.476z M278.147,208.46
		l7.424-12.073h-5.134l-0.06,0.118c-1.542,2.723-3.483,5.998-4.247,7.209l-0.302,0.494l-4.301-7.821h-7.726l7.442,13.515
		l-7.768,12.613h5.114c3.31-5.711,5.007-8.349,5.007-8.349l4.613,8.349h7.71L278.147,208.46z M316.384,218.948
		c-5.975,0-9.204-4.44-9.042-9.898c0.146-4.773,2.307-8.811,7.428-9.162c1.979-0.131,3.583,0.207,6.341,0.953l-0.281-4.077
		c0,0-2.342-0.759-5.695-0.871c-4.256-0.179-8.117,0.659-11.191,3.52c-2.734,2.53-4.379,6.306-4.379,9.946
		c0,4.054,1.652,7.771,4.736,10.348c3.209,2.745,6.66,3.354,10.752,3.354c2.689,0,4.27-0.182,6.874-0.899l-0.396-3.986
		C320.976,218.36,319.101,218.948,316.384,218.948z M230.036,192.478l7.496-0.008l0.201,1.747
		c1.681,17.459,2.698,28.298,2.698,28.298h-7.795l-0.762-10.811l-0.717-9.66l-6.604,20.46c-1.754,0.011-4.185,0-4.185,0
		s-2.087-7.267-2.459-8.278l-3.792-12.283c0,0-0.596,6.849-0.814,9.762c-0.459,5.849-0.857,10.811-0.857,10.811h-5.805
		c0,0,2.367-24.428,2.543-25.916c0.179-1.531,0.474-4.121,0.474-4.121h7.644l6.35,17.588L230.036,192.478z M203.49,208.315
		c0-0.057-0.012-0.113-0.012-0.176c-0.118-2.479-0.921-4.688-2.07-6.412c-2.396-3.779-6.582-5.814-11.617-5.754
		c-5.042-0.061-9.226,1.977-11.611,5.754c-1.146,1.725-1.952,3.933-2.073,6.412c0,0.062-0.01,0.119-0.02,0.176
		c-0.686,8.292,4.109,14.052,12.274,14.696c0.483,0.049,0.955,0.061,1.43,0.049c0.466,0.012,0.949,0,1.433-0.049
		C199.391,222.367,204.167,216.607,203.49,208.315z M190.429,219.112c-0.227,0.027-0.43,0.027-0.638,0.035
		c-0.207-0.008-0.415-0.008-0.63-0.035c-1.203-0.113-2.139-0.531-2.998-1.201c-0.243-0.212-0.485-0.424-0.725-0.709
		c-1.262-1.435-1.938-3.873-2.094-5.79c-0.38-4.485,0.514-11.032,5.972-11.479c0.135-0.013,0.276-0.026,0.414-0.026
		c0.007,0,0.041,0,0.061,0c0.022,0,0.035,0,0.058,0c0.145,0,0.287,0.014,0.416,0.026c5.455,0.447,6.347,6.994,5.974,11.479
		c-0.148,1.917-0.763,4.312-2.095,5.79c-0.235,0.285-0.471,0.497-0.712,0.709C192.558,218.581,191.538,219.031,190.429,219.112z
		 M130.966,222.504c-0.229-0.528-1.617-3.848-2.627-6.534l-8.738-23.492h-6.802c0,0-1.948,5.506-2.223,6.413l-6.388,18.216
		c-0.824,2.34-1.982,5.408-1.982,5.408h5.554c0,0,1.565-5.078,1.892-5.984l0.856-2.541h9.62l1.315,3.875
		c0.273,0.711,1.412,4.587,1.433,4.64H130.966z M111.911,209.713l3.242-9.716l0.188-0.574l3.391,10.29H111.911z M176.44,222.515
		c-1.611-2.332-2.206-3.303-3.44-5.004l-4.632-7.29c2.227-1.097,4.319-2.966,4.632-6.865c0.197-2.442-1.08-4.465-1.855-5.151
		c-1.116-1.014-2.211-1.415-3.745-1.605c-1.231-0.164-2.137-0.164-2.877-0.227h-10.916c0,0,0.125,3.625,0.125,5.684v14.77
		c0,2.078-0.125,5.679-0.125,5.679h6.711c0,0-0.203-3.601-0.203-5.679l0.051-4.742c0,0,1.471,0.016,2.49,0.016l4.258,7.863
		c0.579,0.994,1.393,2.26,1.59,2.553H176.44z M164.562,207.931c-1.011,0.529-3.273,0.377-4.397,0.318l0.088-7.465l0.631-0.062
		c2.053-0.153,3.555,0.133,4.183,0.417c0.921,0.398,1.462,1.271,1.522,2.749C166.653,206.098,165.827,207.271,164.562,207.931z
		 M349.698,219.894c0-1.463,1.193-2.685,2.666-2.685c1.479,0,2.672,1.222,2.672,2.685c0,1.49-1.192,2.693-2.672,2.693
		C350.892,222.587,349.698,221.384,349.698,219.894z M354.392,219.894c0-1.254-0.9-2.175-2.027-2.175
		c-1.107,0-2.014,0.921-2.014,2.175c0,1.275,0.906,2.172,2.014,2.172C353.491,222.065,354.392,221.169,354.392,219.894z
		 M351.335,218.37h1.126c0.724,0,1.11,0.244,1.11,0.885c0,0.521-0.291,0.783-0.776,0.828l0.8,1.337h-0.572l-0.771-1.315h-0.352
		v1.315h-0.564V218.37z M351.899,219.669h0.501c0.325,0,0.622-0.031,0.622-0.457c0-0.357-0.326-0.4-0.622-0.4h-0.501V219.669z
		 M336.808,219.14c-0.217,0.021-0.437,0.021-0.633,0.021c-0.207,0-0.427,0-0.639-0.021c-1.201-0.119-2.151-0.541-3.014-1.229
		c-0.248-0.212-0.488-0.424-0.725-0.702c-1.266-1.441-1.939-3.894-2.104-5.823c-0.376-4.511,0.522-11.089,5.998-11.523
		c0.139-0.023,0.276-0.023,0.421-0.023c0,0,0.039,0,0.062,0c0.021,0,0.041,0,0.056,0c0.141,0,0.28,0,0.406,0.023
		c5.487,0.435,6.386,7.013,6.015,11.523c-0.157,1.93-0.772,4.338-2.099,5.823c-0.24,0.278-0.485,0.49-0.72,0.702
		C338.955,218.599,337.917,219.04,336.808,219.14z"/>
	<path fill-rule="evenodd" clip-rule="evenodd" fill="#1B2741" d="M416.649,178.221c0-0.671,0.546-1.229,1.221-1.229
		s1.222,0.559,1.222,1.229c0,0.683-0.547,1.233-1.222,1.233S416.649,178.903,416.649,178.221 M418.801,178.221
		c0-0.573-0.415-0.993-0.931-0.993c-0.504,0-0.921,0.42-0.921,0.993c0,0.586,0.417,0.997,0.921,0.997
		C418.386,179.218,418.801,178.807,418.801,178.221z M417.4,177.524h0.513c0.335,0,0.511,0.109,0.511,0.402
		c0,0.241-0.133,0.358-0.358,0.385l0.367,0.609h-0.26l-0.352-0.605h-0.167v0.605H417.4V177.524z M417.654,178.118h0.236
		c0.146,0,0.282-0.015,0.282-0.21c0-0.165-0.153-0.184-0.282-0.184h-0.236V178.118z"/>
	<path fill-rule="evenodd" clip-rule="evenodd" fill="#2970CA" d="M265.745,236.708c-1.547-0.663-3.4-1.176-4.949-1.176
		c-5.596,0-8.744,4.059-8.744,9.709c0,5.264,3.178,9.683,8.41,9.683c1.818,0,3.509-0.401,5.247-1.04l0.271,2.684
		c-1.961,0.67-3.78,0.811-5.962,0.811c-7.467,0-11.103-5.688-11.103-12.137c0-7.15,4.597-12.17,11.466-12.17
		c2.775,0,4.771,0.642,5.599,0.922L265.745,236.708z"/>
	<path fill-rule="evenodd" clip-rule="evenodd" fill="#2970CA" d="M283.276,253.103h-0.087c-1.288,2.78-4.51,4.275-7.383,4.275
		c-6.597,0-7.644-4.465-7.644-6.554c0-7.786,8.284-8.136,14.297-8.136h0.543v-1.187c0-3.967-1.418-5.97-5.297-5.97
		c-2.409,0-4.676,0.555-6.827,1.921v-2.776c1.785-0.871,4.788-1.605,6.827-1.605c5.74,0,8.15,2.597,8.15,8.658v10.237
		c0,1.872,0,3.28,0.23,4.87h-2.811V253.103z M283.003,245.142h-0.814c-4.971,0-10.898,0.5-10.898,5.602
		c0,3.045,2.203,4.181,4.831,4.181c6.737,0,6.882-5.873,6.882-8.373V245.142z"/>
	<path fill-rule="evenodd" clip-rule="evenodd" fill="#2970CA" d="M291.776,238.815c0-2.554,0-3.5-0.176-5.198h2.869v4.474h0.085
		c1.049-2.609,3.008-5.02,5.965-5.02c0.688,0,1.508,0.146,1.995,0.285v2.998c-0.589-0.189-1.355-0.268-2.09-0.268
		c-4.551,0-5.775,5.091-5.775,9.281v11.469h-2.873V238.815z"/>
	<path fill-rule="evenodd" clip-rule="evenodd" fill="#2970CA" d="M324.411,254.924c0,6.474-2.917,11.744-10.861,11.744
		c-3.058,0-5.847-0.867-7.018-1.231l0.225-2.859c1.772,0.9,4.323,1.634,6.811,1.634c7.387,0,8.025-5.367,8.025-11.921h-0.099
		c-1.537,3.367-4.096,4.547-7.051,4.547c-7.416,0-9.778-6.46-9.778-11.596c0-7.062,2.73-12.17,9.557-12.17
		c3.095,0,5.087,0.423,7.229,3.19h0.096v-2.645h2.865V254.924z M314.491,254.38c5.197,0,7.055-4.914,7.055-9.139
		c0-5.606-1.646-9.709-6.867-9.709c-5.472,0-6.883,5.194-6.883,9.709C307.796,249.772,309.626,254.38,314.491,254.38z"/>
	<path fill-rule="evenodd" clip-rule="evenodd" fill="#2970CA" d="M339.473,233.071c7.515,0,10.831,5.836,10.831,12.17
		c0,6.318-3.316,12.137-10.831,12.137c-7.5,0-10.833-5.818-10.833-12.137C328.64,238.907,331.973,233.071,339.473,233.071
		 M339.473,254.924c5.01,0,7.688-4.32,7.688-9.683c0-5.389-2.679-9.709-7.688-9.709c-4.99,0-7.685,4.32-7.685,9.709
		C331.788,250.604,334.477,254.924,339.473,254.924z"/>
</g>
</svg>
