<?xml version="1.0" encoding="utf-8"?>
<!-- Generator: Adobe Illustrator 16.0.0, SVG Export Plug-In . SVG Version: 6.00 Build 0)  -->
<!DOCTYPE svg PUBLIC "-//W3C//DTD SVG 1.1//EN" "http://www.w3.org/Graphics/SVG/1.1/DTD/svg11.dtd">
<svg version="1.1" id="Capa_1" xmlns="http://www.w3.org/2000/svg" xmlns:xlink="http://www.w3.org/1999/xlink" x="0px" y="0px"
	 width="450px" height="450px" viewBox="0 0 450 450" enable-background="new 0 0 450 450" xml:space="preserve">
<g>
	<g>
		<g>
			<g>
				<path fill="#D1A4C7" d="M23.586,330.646c0-3.885-0.025-6.172-0.064-6.855c-0.034-0.573-0.127-0.977-0.31-1.221
					c-0.187-0.283-0.535-0.469-1.044-0.568c-0.29-0.075-0.652-0.111-1.073-0.111c-0.171,0-0.262-0.057-0.262-0.174
					c0-0.177,0.165-0.268,0.503-0.268c0.562,0,1.313,0.023,2.225,0.047l1.352,0.063c0.18,0,0.75-0.02,1.707-0.063
					c0.979-0.023,1.742-0.047,2.286-0.047c2.654,0,4.61,0.609,5.879,1.811c1.06,0.992,1.592,2.249,1.592,3.754
					c0,2.237-0.733,4.049-2.201,5.466c-1.455,1.381-3.325,2.077-5.591,2.077c-0.334,0-0.558-0.016-0.652-0.025
					c-0.238,0-0.352-0.076-0.352-0.215c0-0.197,0.281-0.292,0.852-0.292c1.539,0,2.837-0.481,3.889-1.483
					c1.057-1.004,1.59-2.225,1.59-3.686c0-2.039-0.588-3.666-1.764-4.874c-1.04-1.042-2.486-1.57-4.346-1.57
					c-0.6,0-1.049,0.06-1.359,0.177c-0.17,0.059-0.256,0.271-0.256,0.616v13.011c0,3.697,0.044,5.988,0.145,6.875
					c0.132,1.051,0.555,1.62,1.25,1.726c0.585,0.089,1.049,0.128,1.418,0.128c0.174,0,0.264,0.068,0.264,0.197
					c0,0.16-0.174,0.24-0.521,0.24c-0.703,0-1.549-0.012-2.538-0.047l-1.349-0.037l-1.198,0.037
					c-0.854,0.035-1.46,0.047-1.841,0.047c-0.329,0-0.503-0.08-0.503-0.24c0-0.129,0.083-0.197,0.239-0.197
					c0.264,0,0.588-0.039,0.965-0.128c0.469-0.105,0.766-0.675,0.918-1.726c0.102-0.887,0.152-3.178,0.152-6.875V330.646z"/>
				<path fill="#D1A4C7" d="M50.006,330.646c0-3.885-0.025-6.172-0.072-6.855c-0.027-0.573-0.13-0.977-0.304-1.221
					c-0.187-0.283-0.538-0.469-1.052-0.568c-0.29-0.075-0.645-0.111-1.067-0.111c-0.172,0-0.263-0.057-0.263-0.174
					c0-0.177,0.173-0.268,0.504-0.268c0.584,0,1.34,0.023,2.276,0.047l1.305,0.063l1.638-0.063c1.017-0.023,1.722-0.047,2.093-0.047
					c2.577,0,4.505,0.469,5.788,1.41c1.457,1.007,2.18,2.449,2.18,4.295c0,2.544-1.271,4.979-3.816,7.311
					c3.344,4.283,5.544,6.979,6.593,8.1c1.24,1.306,2.521,2.07,3.867,2.299c0.39,0.059,0.797,0.08,1.222,0.08
					c0.189,0,0.288,0.068,0.288,0.197c0,0.16-0.264,0.24-0.775,0.24h-2.246c-1.513,0-2.636-0.195-3.379-0.588
					c-0.817-0.451-2.247-2.002-4.283-4.649c-0.465-0.606-1.124-1.513-1.983-2.687c-0.791-1.088-1.277-1.756-1.464-2.01
					c-0.101-0.133-0.231-0.195-0.394-0.195l-3.911-0.064c-0.142,0-0.217,0.086-0.217,0.26v0.768c0,3.697,0.05,5.988,0.154,6.875
					c0.129,1.051,0.544,1.62,1.247,1.726c0.572,0.089,1.053,0.128,1.42,0.128c0.175,0,0.257,0.068,0.257,0.197
					c0,0.16-0.162,0.24-0.504,0.24c-0.711,0-1.557-0.012-2.549-0.047l-1.356-0.037l-1.135,0.037
					c-0.836,0.035-1.442,0.047-1.829,0.047c-0.339,0-0.507-0.08-0.507-0.24c0-0.129,0.078-0.197,0.238-0.197
					c0.269,0,0.587-0.039,0.962-0.128c0.466-0.105,0.766-0.675,0.92-1.726c0.101-0.887,0.155-3.178,0.155-6.875V330.646z
					 M52.532,333.393c0,0.162,0.075,0.289,0.217,0.377c0.568,0.33,1.677,0.498,3.315,0.498c1.028,0,1.818-0.195,2.384-0.586
					c1.297-0.891,1.947-2.512,1.947-4.867c0-1.982-0.493-3.531-1.464-4.648c-0.977-1.119-2.32-1.684-4.016-1.684
					c-1.007,0-1.713,0.059-2.118,0.176c-0.181,0.057-0.266,0.187-0.266,0.393V333.393z"/>
				<path fill="#D1A4C7" d="M80.281,330.646c0-3.885-0.02-6.172-0.065-6.855c-0.025-0.573-0.133-0.977-0.309-1.221
					c-0.188-0.283-0.531-0.469-1.042-0.568c-0.294-0.075-0.648-0.111-1.07-0.111c-0.176,0-0.267-0.057-0.267-0.174
					c0-0.177,0.17-0.268,0.503-0.268c1.065,0,1.832,0.023,2.293,0.047l1.283,0.063c4.357,0,6.771-0.016,7.252-0.044
					c0.611-0.006,1.067-0.066,1.359-0.148c0.405-0.1,0.559-0.156,0.456-0.156c0.073,0,0.112,0.095,0.112,0.285
					c0,0.044-0.035,0.205-0.089,0.476c-0.074,0.342-0.132,0.675-0.154,1.011c-0.014,0.092-0.035,0.424-0.07,0.999
					c-0.026,0.585-0.056,0.95-0.081,1.079c-0.066,0.227-0.142,0.345-0.243,0.345c-0.159,0-0.243-0.132-0.243-0.39
					c0-0.439-0.062-0.826-0.191-1.157c-0.244-0.575-0.997-0.927-2.247-1.073c-0.472-0.062-1.911-0.082-4.323-0.082
					c-0.135,0-0.205,0.09-0.205,0.297v8.738c0,0.219,0.07,0.318,0.205,0.318c2.868,0,4.537-0.018,5.017-0.061
					c0.791-0.067,1.283-0.213,1.484-0.433c0.231-0.28,0.393-0.415,0.479-0.415c0.107,0,0.157,0.084,0.157,0.246
					c0,0.031-0.031,0.226-0.087,0.562c-0.076,0.407-0.132,0.815-0.157,1.216c-0.087,0.85-0.132,1.519-0.132,2.015
					c0,0.414-0.066,0.612-0.215,0.612c-0.143,0-0.221-0.095-0.221-0.288c0-0.43-0.041-0.767-0.13-1.047
					c-0.19-0.643-0.743-1.008-1.659-1.113c-0.99-0.103-2.497-0.153-4.522-0.153c-0.146,0-0.22,0.075-0.22,0.218v8.212
					c0.052,1.108,0.285,1.81,0.703,2.114c0.448,0.322,1.447,0.482,2.971,0.482c1.484,0,2.498-0.111,3.032-0.354
					c0.747-0.298,1.227-1.067,1.446-2.283c0.039-0.311,0.135-0.458,0.284-0.458c0.116,0,0.175,0.147,0.175,0.458
					c0,1.015-0.146,2.04-0.42,3.066c-0.098,0.4-0.255,0.644-0.456,0.728c-0.158,0.075-0.578,0.116-1.245,0.116
					c-1.484,0-3.268-0.041-5.352-0.116c-1.087-0.059-1.908-0.084-2.471-0.084c-0.399,0-0.822,0.004-1.26,0.016l-1.838,0.068
					c-0.325,0-0.498-0.08-0.498-0.24c0-0.129,0.083-0.197,0.24-0.197c0.258,0,0.586-0.039,0.963-0.128
					c0.461-0.105,0.768-0.675,0.917-1.726c0.095-0.887,0.149-3.178,0.149-6.875V330.646z"/>
				<path fill="#D1A4C7" d="M106.264,341.08c0.026,1.286,0.133,2.185,0.324,2.709c0.178,0.521,0.482,0.846,0.917,0.96
					c0.435,0.134,0.958,0.194,1.572,0.194c0.181,0,0.263,0.068,0.263,0.197c0,0.16-0.185,0.24-0.568,0.24h-6.396
					c-0.332,0-0.504-0.08-0.504-0.24c0-0.129,0.078-0.197,0.241-0.197c0.514,0,0.948-0.061,1.312-0.194
					c0.383-0.096,0.629-0.438,0.764-1.007c0.119-0.525,0.179-1.525,0.179-3.014l0.037-18.141c0-1.048,0.115-1.564,0.358-1.564
					c0.05,0,0.415,0.33,1.088,1c0.451,0.504,3.803,4.138,10.062,10.875c1.183,1.246,2.712,2.901,4.601,4.97
					c1.755,1.923,2.754,3.017,3.001,3.278l-0.327-16.086c-0.034-1.053-0.122-1.777-0.266-2.188
					c-0.175-0.419-0.504-0.689-0.981-0.814c-0.505-0.111-1.031-0.168-1.553-0.168c-0.172,0-0.26-0.068-0.26-0.217
					c0-0.147,0.213-0.225,0.633-0.225h5.978c0.383,0,0.573,0.077,0.573,0.225c0,0.148-0.115,0.217-0.33,0.217
					c-0.255,0-0.514,0.036-0.768,0.111c-0.49,0.1-0.812,0.364-0.976,0.783c-0.138,0.353-0.196,1.029-0.196,2.035l-0.065,18.557
					c0,1.496-0.104,2.242-0.284,2.242c-0.19,0-0.962-0.676-2.316-2.031c-1.312-1.216-4.064-4.076-8.256-8.574
					c-1.652-1.795-4.41-4.818-8.27-9.086L106.264,341.08z"/>
				<path fill="#D1A4C7" d="M146.739,322.24c0.288-0.818,0.521-1.217,0.697-1.217c0.162,0,0.396,0.367,0.698,1.133
					c3.813,9.963,6.275,16.328,7.379,19.075c0.842,2.089,1.747,3.257,2.71,3.518c1.062,0.409,1.588,0.538,1.588,0.392
					c0,0.135-0.097,0.211-0.299,0.24c-0.149,0.012-0.722,0.026-1.726,0.026c-3.016,0-4.521-0.106-4.521-0.31
					c0-0.057,0.08-0.133,0.244-0.234c0.15-0.095,0.237-0.24,0.237-0.445c0-0.117-0.032-0.254-0.087-0.391l-2.927-7.792
					c-0.075-0.12-0.162-0.175-0.28-0.175h-6.821c-0.138,0-0.249,0.078-0.323,0.241l-1.896,5.608
					c-0.293,0.832-0.438,1.508-0.438,2.024c0,0.677,0.403,1.009,1.204,1.009h0.322c0.209,0,0.306,0.068,0.306,0.197
					c0,0.16-0.157,0.24-0.476,0.24h-6.046c-0.396,0-0.593-0.08-0.593-0.24c0-0.129,0.096-0.197,0.29-0.197
					c1.011,0,1.788-0.263,2.33-0.779c0.433-0.41,0.847-1.156,1.249-2.254L146.739,322.24z M150.035,334.9
					c0.092,0,0.129-0.027,0.129-0.08c0-0.062-0.004-0.105-0.02-0.138l-2.985-8.537c-0.091-0.228-0.181-0.348-0.268-0.348
					s-0.165,0.12-0.22,0.348l-2.793,8.537c-0.016,0.032-0.026,0.064-0.026,0.114c0,0.076,0.048,0.104,0.138,0.104H150.035z"/>
				<path fill="#D1A4C7" d="M175.707,336.215c0,3.697,0.052,5.988,0.156,6.875c0.13,1.051,0.542,1.62,1.243,1.726
					c0.578,0.089,1.054,0.128,1.416,0.128c0.181,0,0.265,0.068,0.265,0.197c0,0.16-0.178,0.24-0.528,0.24
					c-0.696,0-1.539-0.012-2.529-0.047l-1.354-0.037l-1.236,0.037c-0.863,0.035-1.484,0.047-1.859,0.047
					c-0.338,0-0.504-0.08-0.504-0.24c0-0.129,0.072-0.197,0.235-0.197c0.269,0,0.582-0.039,0.967-0.128
					c0.466-0.105,0.769-0.675,0.924-1.726c0.09-0.887,0.145-3.178,0.145-6.875v-13.383l-4.672,0.041
					c-1.729,0.043-2.814,0.387-3.233,1.026c-0.25,0.382-0.428,0.707-0.55,0.976c-0.07,0.213-0.178,0.314-0.319,0.314
					c-0.104,0-0.161-0.098-0.161-0.289c0-0.334,0.243-1.433,0.71-3.296c0.14-0.394,0.248-0.581,0.32-0.581
					c0.028,0,0.183,0.045,0.457,0.143c0.273,0.123,0.585,0.195,0.914,0.219c0.983,0.125,1.824,0.175,2.521,0.175h11.876
					c0.94,0,1.696-0.05,2.24-0.175c0.723-0.096,1.008-0.15,0.88-0.15c0.115,0,0.177,0.127,0.177,0.37
					c0,0.363-0.02,1.015-0.049,1.966l-0.057,1.533c0,0.268-0.078,0.413-0.229,0.413c-0.124,0-0.218-0.187-0.26-0.546l-0.023-0.349
					c-0.104-1.104-1.392-1.69-3.885-1.749l-3.996-0.041V336.215z"/>
				<path fill="#D1A4C7" d="M199.087,322.24c0.296-0.818,0.521-1.217,0.694-1.217c0.163,0,0.402,0.367,0.705,1.133
					c3.814,9.963,6.271,16.328,7.377,19.075c0.842,2.089,1.748,3.257,2.709,3.518c1.058,0.409,1.596,0.538,1.596,0.392
					c0,0.135-0.105,0.211-0.31,0.24c-0.144,0.012-0.718,0.026-1.724,0.026c-3.012,0-4.513-0.106-4.513-0.31
					c0-0.057,0.069-0.133,0.235-0.234c0.155-0.095,0.239-0.24,0.239-0.445c0-0.117-0.029-0.254-0.095-0.391l-2.912-7.792
					c-0.076-0.12-0.17-0.175-0.291-0.175h-6.812c-0.147,0-0.255,0.078-0.329,0.241l-1.899,5.608
					c-0.288,0.832-0.429,1.508-0.429,2.024c0,0.677,0.393,1.009,1.198,1.009h0.33c0.196,0,0.298,0.068,0.298,0.197
					c0,0.16-0.162,0.24-0.481,0.24h-6.04c-0.398,0-0.595-0.08-0.595-0.24c0-0.129,0.093-0.197,0.287-0.197
					c1.017,0,1.79-0.263,2.334-0.779c0.438-0.41,0.854-1.156,1.243-2.254L199.087,322.24z M202.39,334.9
					c0.083,0,0.128-0.027,0.128-0.08c0-0.062-0.008-0.105-0.027-0.138l-2.984-8.537c-0.088-0.228-0.179-0.348-0.263-0.348
					c-0.088,0-0.158,0.12-0.222,0.348l-2.798,8.537c-0.015,0.032-0.015,0.064-0.015,0.114c0,0.076,0.044,0.104,0.133,0.104H202.39z"
					/>
				<path fill="#D1A4C7" d="M225.582,336.272c0,4.374,0.236,6.786,0.705,7.259c0.479,0.474,1.744,0.715,3.798,0.715
					c2.021,0,3.292-0.313,3.821-0.939c0.445-0.564,0.726-1.201,0.828-1.898c0.029-0.277,0.121-0.416,0.277-0.416
					c0.137,0,0.201,0.158,0.201,0.484c0,0.984-0.159,2.05-0.479,3.158c-0.118,0.377-0.27,0.617-0.461,0.699
					c-0.213,0.114-0.727,0.163-1.529,0.163c-1.282,0-3.032-0.041-5.256-0.116c-1.185-0.059-2.262-0.084-3.24-0.084l-1.281,0.016
					c-0.63,0.051-1.23,0.068-1.811,0.068c-0.346,0-0.503-0.08-0.503-0.24c0-0.129,0.077-0.197,0.243-0.197
					c0.26,0,0.572-0.039,0.958-0.128c0.464-0.105,0.772-0.675,0.915-1.726c0.1-0.887,0.15-3.178,0.15-6.875v-5.568
					c0-3.885-0.02-6.172-0.066-6.855c-0.033-0.573-0.13-0.977-0.301-1.221c-0.188-0.283-0.541-0.469-1.05-0.568
					c-0.292-0.075-0.645-0.111-1.072-0.111c-0.173,0-0.257-0.057-0.257-0.174c0-0.177,0.162-0.268,0.5-0.268
					c0.576,0,1.338,0.023,2.269,0.047l1.306,0.063l1.428-0.063c0.945-0.023,1.61-0.047,2.004-0.047c0.335,0,0.501,0.091,0.501,0.268
					c0,0.117-0.082,0.174-0.263,0.174c-0.261,0-0.606,0.036-1.049,0.111c-0.755,0.129-1.162,0.722-1.217,1.789
					c-0.049,0.684-0.07,2.971-0.07,6.855V336.272z"/>
			</g>
			<g>
				<path fill="#D1A4C7" d="M265.968,330.646c0-3.885-0.026-6.172-0.072-6.855c-0.032-0.573-0.126-0.977-0.306-1.221
					c-0.188-0.283-0.535-0.469-1.045-0.568c-0.287-0.075-0.648-0.111-1.07-0.111c-0.174,0-0.261-0.057-0.261-0.174
					c0-0.177,0.165-0.268,0.501-0.268c0.565,0,1.311,0.023,2.227,0.047l1.35,0.063c0.182,0,0.748-0.02,1.708-0.063
					c0.977-0.023,1.738-0.047,2.293-0.047c2.647,0,4.609,0.609,5.872,1.811c1.055,0.992,1.592,2.249,1.592,3.754
					c0,2.237-0.734,4.049-2.203,5.466c-1.457,1.381-3.316,2.077-5.588,2.077c-0.334,0-0.553-0.016-0.656-0.025
					c-0.231,0-0.347-0.076-0.347-0.215c0-0.197,0.284-0.292,0.85-0.292c1.544,0,2.835-0.481,3.891-1.483
					c1.056-1.004,1.588-2.225,1.588-3.686c0-2.039-0.591-3.666-1.772-4.874c-1.027-1.042-2.474-1.57-4.339-1.57
					c-0.597,0-1.042,0.06-1.356,0.177c-0.174,0.059-0.258,0.271-0.258,0.616v13.011c0,3.697,0.052,5.988,0.146,6.875
					c0.133,1.051,0.549,1.62,1.251,1.726c0.577,0.089,1.054,0.128,1.419,0.128c0.173,0,0.262,0.068,0.262,0.197
					c0,0.16-0.18,0.24-0.521,0.24c-0.703,0-1.543-0.012-2.536-0.047l-1.353-0.037l-1.203,0.037
					c-0.842,0.035-1.462,0.047-1.833,0.047c-0.339,0-0.501-0.08-0.501-0.24c0-0.129,0.074-0.197,0.241-0.197
					c0.26,0,0.581-0.039,0.952-0.128c0.471-0.105,0.781-0.675,0.927-1.726c0.095-0.887,0.152-3.178,0.152-6.875V330.646z"/>
				<path fill="#D1A4C7" d="M290.544,330.646c0-3.885-0.02-6.172-0.066-6.855c-0.026-0.573-0.132-0.977-0.305-1.221
					c-0.188-0.283-0.536-0.469-1.044-0.568c-0.293-0.075-0.657-0.111-1.092-0.111c-0.159,0-0.237-0.057-0.237-0.174
					c0-0.177,0.161-0.268,0.499-0.268c0.568,0,1.316,0.023,2.245,0.047l1.405,0.063l1.307-0.063c0.841-0.023,1.444-0.047,1.81-0.047
					c0.349,0,0.523,0.091,0.523,0.268c0,0.117-0.084,0.174-0.267,0.174c-0.114,0-0.375,0.036-0.775,0.111
					c-0.738,0.111-1.117,0.713-1.18,1.789c-0.046,0.684-0.071,2.971-0.071,6.855v4.428c0,3.682,0.794,6.293,2.38,7.82
					c1.241,1.168,2.833,1.74,4.786,1.74c2.034,0,3.687-0.765,4.953-2.288c1.237-1.512,1.856-4.097,1.856-7.749v-3.951
					c0-3.885-0.025-6.172-0.066-6.855c-0.03-0.555-0.14-0.959-0.334-1.221c-0.183-0.283-0.532-0.469-1.048-0.568
					c-0.263-0.075-0.613-0.111-1.064-0.111c-0.173,0-0.261-0.057-0.261-0.174c0-0.177,0.177-0.268,0.524-0.268
					c0.584,0,1.292,0.023,2.138,0.047l1.209,0.063l1.058-0.063c0.69-0.023,1.217-0.047,1.596-0.047c0.335,0,0.503,0.091,0.503,0.268
					c0,0.117-0.077,0.174-0.234,0.174c-0.106,0-0.37,0.036-0.807,0.111c-0.72,0.158-1.108,0.756-1.157,1.789
					c-0.046,0.684-0.07,2.971-0.07,6.855v3.378c0,4.591-0.968,7.745-2.898,9.465c-1.782,1.564-3.956,2.348-6.528,2.348
					c-2.771,0-4.948-0.746-6.534-2.249c-1.835-1.756-2.752-4.531-2.752-8.336V330.646z"/>
				<path fill="#D1A4C7" d="M324.714,330.646c0-3.885-0.02-6.172-0.062-6.855c-0.032-0.573-0.137-0.977-0.307-1.221
					c-0.195-0.283-0.538-0.469-1.047-0.568c-0.298-0.075-0.647-0.111-1.073-0.111c-0.169,0-0.264-0.057-0.264-0.174
					c0-0.177,0.172-0.268,0.503-0.268c1.062,0,1.825,0.023,2.295,0.047l1.284,0.063c4.355,0,6.771-0.016,7.251-0.044
					c0.613-0.006,1.069-0.066,1.354-0.148c0.408-0.1,0.564-0.156,0.454-0.156c0.078,0,0.115,0.095,0.115,0.285
					c0,0.044-0.028,0.205-0.086,0.476c-0.075,0.342-0.13,0.675-0.157,1.011c-0.01,0.092-0.034,0.424-0.066,0.999
					c-0.034,0.585-0.058,0.95-0.078,1.079c-0.07,0.227-0.146,0.345-0.248,0.345c-0.164,0-0.244-0.132-0.244-0.39
					c0-0.439-0.061-0.826-0.194-1.157c-0.246-0.575-0.994-0.927-2.239-1.073c-0.476-0.062-1.916-0.082-4.331-0.082
					c-0.132,0-0.202,0.09-0.202,0.297v8.738c0,0.219,0.07,0.318,0.202,0.318c2.87,0,4.542-0.018,5.022-0.061
					c0.784-0.067,1.281-0.213,1.485-0.433c0.236-0.28,0.394-0.415,0.474-0.415c0.108,0,0.164,0.084,0.164,0.246
					c0,0.031-0.034,0.226-0.096,0.562c-0.068,0.407-0.12,0.815-0.148,1.216c-0.087,0.85-0.137,1.519-0.137,2.015
					c0,0.414-0.074,0.612-0.219,0.612c-0.14,0-0.212-0.095-0.212-0.288c0-0.43-0.048-0.767-0.138-1.047
					c-0.188-0.643-0.736-1.008-1.654-1.113c-0.992-0.103-2.494-0.153-4.525-0.153c-0.138,0-0.219,0.075-0.219,0.218v8.212
					c0.051,1.108,0.285,1.81,0.705,2.114c0.45,0.322,1.441,0.482,2.97,0.482c1.489,0,2.499-0.111,3.035-0.354
					c0.749-0.298,1.225-1.067,1.441-2.283c0.046-0.311,0.136-0.458,0.28-0.458c0.117,0,0.178,0.147,0.178,0.458
					c0,1.015-0.143,2.04-0.412,3.066c-0.101,0.4-0.258,0.644-0.466,0.728c-0.158,0.075-0.572,0.116-1.243,0.116
					c-1.481,0-3.269-0.041-5.344-0.116c-1.094-0.059-1.915-0.084-2.473-0.084c-0.405,0-0.824,0.004-1.267,0.016l-1.829,0.068
					c-0.341,0-0.502-0.08-0.502-0.24c0-0.129,0.072-0.197,0.242-0.197c0.26,0,0.577-0.039,0.957-0.128
					c0.462-0.105,0.772-0.675,0.912-1.726c0.102-0.887,0.157-3.178,0.157-6.875V330.646z"/>
				<path fill="#D1A4C7" d="M349.844,330.646c0-3.885-0.028-6.172-0.069-6.855c-0.028-0.573-0.13-0.977-0.304-1.221
					c-0.191-0.283-0.532-0.469-1.046-0.568c-0.298-0.075-0.644-0.111-1.071-0.111c-0.176,0-0.262-0.057-0.262-0.174
					c0-0.177,0.169-0.268,0.505-0.268c0.583,0,1.342,0.023,2.269,0.047l1.307,0.063c0.203,0,0.69-0.02,1.469-0.063
					c0.783-0.023,1.446-0.047,1.982-0.047c2.285,0,3.991,0.596,5.117,1.787c0.811,0.869,1.216,1.855,1.216,2.98
					c0,1.729-1.001,3.623-2.969,5.695c1.394,0.437,2.601,1.175,3.626,2.227c1.234,1.278,1.852,2.764,1.852,4.453
					c0,1.852-0.673,3.418-2.007,4.715c-1.503,1.456-3.528,2.19-6.071,2.19l-2.289-0.116c-0.818-0.059-1.454-0.084-1.926-0.084
					c-0.406,0-0.826,0.004-1.262,0.016l-1.832,0.068c-0.332,0-0.504-0.08-0.504-0.24c0-0.129,0.082-0.197,0.237-0.197
					c0.267,0,0.581-0.039,0.959-0.128c0.472-0.105,0.776-0.675,0.921-1.726c0.104-0.887,0.152-3.178,0.152-6.875V330.646z
					 M352.375,331.34c0,0.18,0.07,0.304,0.22,0.355c0.652,0.074,1.3,0.111,1.944,0.111c1.428,0,2.385-0.281,2.877-0.812
					c0.753-0.886,1.133-1.955,1.133-3.206c0-1.489-0.326-2.724-0.974-3.712c-0.76-1.146-1.855-1.73-3.3-1.73
					c-0.613,0-1.121,0.058-1.525,0.158c-0.253,0.053-0.375,0.17-0.375,0.355V331.34z M352.375,334.683
					c0,4.255,0.013,6.524,0.043,6.841c0.046,0.874,0.107,1.426,0.2,1.657c0.11,0.329,0.406,0.608,0.868,0.824
					c0.666,0.306,1.6,0.46,2.774,0.46c1.124,0,2.079-0.301,2.886-0.918c1.06-0.788,1.594-1.975,1.594-3.584
					c0-2.807-1.032-4.909-3.083-6.325c-0.679-0.469-1.556-0.772-2.616-0.918c-0.283-0.044-1.098-0.067-2.469-0.067
					c-0.13,0-0.197,0.083-0.197,0.246V334.683z"/>
				<path fill="#D1A4C7" d="M379.581,336.272c0,4.374,0.227,6.786,0.687,7.259c0.492,0.474,1.748,0.715,3.805,0.715
					c2.03,0,3.295-0.313,3.821-0.939c0.452-0.564,0.723-1.201,0.83-1.898c0.029-0.277,0.122-0.416,0.284-0.416
					c0.132,0,0.193,0.158,0.193,0.484c0,0.984-0.158,2.05-0.478,3.158c-0.111,0.377-0.268,0.617-0.458,0.699
					c-0.214,0.114-0.727,0.163-1.525,0.163c-1.281,0-3.037-0.041-5.261-0.116c-1.188-0.059-2.259-0.084-3.239-0.084l-1.287,0.016
					c-0.624,0.051-1.225,0.068-1.805,0.068c-0.339,0-0.504-0.08-0.504-0.24c0-0.129,0.076-0.197,0.237-0.197
					c0.267,0,0.585-0.039,0.962-0.128c0.469-0.105,0.77-0.675,0.919-1.726c0.094-0.887,0.149-3.178,0.149-6.875v-5.568
					c0-3.885-0.019-6.172-0.061-6.855c-0.029-0.573-0.135-0.977-0.309-1.221c-0.186-0.283-0.54-0.469-1.049-0.568
					c-0.293-0.075-0.647-0.111-1.068-0.111c-0.178,0-0.262-0.057-0.262-0.174c0-0.177,0.17-0.268,0.496-0.268
					c0.587,0,1.343,0.023,2.279,0.047l1.301,0.063l1.422-0.063c0.951-0.023,1.619-0.047,2.012-0.047
					c0.334,0,0.502,0.091,0.502,0.268c0,0.117-0.09,0.174-0.262,0.174c-0.262,0-0.607,0.036-1.043,0.111
					c-0.762,0.129-1.17,0.722-1.225,1.789c-0.05,0.684-0.065,2.971-0.065,6.855V336.272z"/>
				<path fill="#D1A4C7" d="M407.28,322.24c0.293-0.818,0.522-1.217,0.705-1.217c0.149,0,0.388,0.367,0.697,1.133
					c3.808,9.963,6.269,16.328,7.375,19.075c0.848,2.089,1.753,3.257,2.708,3.518c1.068,0.409,1.593,0.538,1.593,0.392
					c0,0.135-0.095,0.211-0.304,0.24c-0.146,0.012-0.721,0.026-1.727,0.026c-3.014,0-4.52-0.106-4.52-0.31
					c0-0.057,0.086-0.133,0.243-0.234c0.159-0.095,0.235-0.24,0.235-0.445c0-0.117-0.032-0.254-0.08-0.391l-2.928-7.792
					c-0.076-0.12-0.169-0.175-0.285-0.175h-6.812c-0.146,0-0.252,0.078-0.331,0.241l-1.896,5.608
					c-0.289,0.832-0.432,1.508-0.432,2.024c0,0.677,0.396,1.009,1.194,1.009h0.329c0.196,0,0.31,0.068,0.31,0.197
					c0,0.16-0.165,0.24-0.477,0.24h-6.06c-0.391,0-0.59-0.08-0.59-0.24c0-0.129,0.1-0.197,0.288-0.197
					c1.016,0,1.801-0.263,2.333-0.779c0.439-0.41,0.857-1.156,1.254-2.254L407.28,322.24z M410.572,334.9
					c0.1,0,0.141-0.027,0.141-0.08c0-0.062-0.011-0.105-0.025-0.138l-2.992-8.537c-0.086-0.228-0.168-0.348-0.26-0.348
					c-0.095,0-0.16,0.12-0.219,0.348l-2.793,8.537c-0.023,0.032-0.023,0.064-0.023,0.114c0,0.076,0.047,0.104,0.131,0.104H410.572z"
					/>
			</g>
		</g>
		<g>
			<polygon fill="#D1A4C7" points="211.732,260.254 211.768,260.227 211.729,260.236 			"/>
			<path fill="#D1A4C7" d="M281.687,259.198c30.264-6.182,54.126-16.778,66.471-29.724l-47.526-65.393l-24.578-33.83
				c2.097-8.484,1.492-16.98,0.45-21.789c-1.068-4.979-3.933-14.52-11.107-22.545c-8.005-8.938-19.005-13.643-32.696-13.975
				c-0.471-0.017-0.947-0.022-1.415-0.022c-15.612,0-25.333,6.519-30.728,11.981c-5.538,5.598-7.764,11.237-8.084,12.09
				c-1.416,2.557-2.795,5.145-4.136,7.711c-0.794-0.682-1.561-1.392-2.26-2.115h-0.08l-44.929,62.147l-48.029,66.44
				c11.882,11.981,33.712,21.893,61.307,28.064c1.848,1.792,3.834,3.518,5.967,5.148c7.31,5.602,15.061,8.443,23.018,8.443
				c4.789,0,9.671-1.044,14.531-3.098c2.504-1.047,5.021-2.375,7.542-3.961c2.41,0.113,4.842,0.187,7.287,0.238
				c0.034,0.611,0.093,1.268,0.262,1.964c1.141,4.651,0.361,9.069-2.449,13.896c-0.872,1.505-1.47,3.083-1.728,4.586
				c-0.409,2.472-1.498,9.007,4.82,11.628c2.646,1.09,5.636,1.82,8.643,2.089l0.774,0.07c4.339,0.384,8.091,0.721,11.28,3.04
				c1.479,1.076,3.227,2.297,5.218,3.031c2.259,0.84,4.702,1.418,7.045,1.657c0.243,0.027,0.478,0.035,0.718,0.035
				c2.877,0,5.231-1.728,5.991-4.433c0.808-2.836,0.052-5.58-2.065-7.527c-0.507-0.465-1.04-0.8-1.464-1.079
				c-0.149-0.092-0.298-0.183-0.443-0.278c-4.705-3.262-8.414-6.271-11.187-10.287c-3.574-5.191-4.83-10.943-4.01-18.594
				c0.887-0.027,1.772-0.064,2.652-0.104c1.037,1.904,1.644,3.918,1.798,6.109c0.465,6.506,3.989,10.617,10.466,12.233
				c2.653,0.665,5.428,1.007,8.236,1.007c2.841,0,5.833-0.352,8.867-1.033c2.996-0.667,6.142-1.468,8.773-3.26
				c2.009-1.362,3.447-3.34,4.714-5.092c0.385-0.541,0.785-1.08,1.188-1.599c0.802-1.032,0.825-2.149,0.834-2.823
				c0-0.094,0-0.169,0.009-0.263c0.025-0.202,0.043-0.435,0.045-0.673c1.468-2.623,0.187-4.859-0.379-5.758
				C281.91,262.014,282.033,260.527,281.687,259.198z M211.732,260.254l-0.004-0.018l0.039-0.01L211.732,260.254z M235.779,284.959
				c3.199,4.637,7.426,7.902,11.909,11.018c0.544,0.365,1.125,0.672,1.6,1.111c1.382,1.27,1.729,2.923,1.246,4.635
				c-0.03,0.086-0.066,0.158-0.101,0.248c-0.039,0.139-0.087,0.277-0.158,0.407c-0.025,0.051-0.064,0.11-0.097,0.169
				c-0.065,0.107-0.131,0.23-0.205,0.33c-0.052,0.049-0.099,0.105-0.149,0.165c-0.07,0.083-0.144,0.172-0.224,0.243
				c-0.062,0.055-0.122,0.104-0.184,0.143c-0.082,0.074-0.166,0.137-0.254,0.188c-0.067,0.039-0.142,0.08-0.209,0.117
				c-0.095,0.045-0.179,0.092-0.276,0.128c-0.075,0.03-0.153,0.062-0.238,0.096c-0.09,0.027-0.188,0.054-0.284,0.071
				c-0.084,0.023-0.159,0.039-0.245,0.051c-0.096,0.023-0.199,0.029-0.302,0.043c-0.083,0.008-0.168,0.012-0.252,0.012
				c-0.028,0-0.062,0.012-0.083,0.012c-0.143,0-0.284-0.012-0.424-0.023c-2.151-0.22-4.314-0.738-6.35-1.494
				c-1.61-0.6-3.107-1.627-4.514-2.661c-4.058-2.959-8.75-3.218-13.48-3.644c-2.658-0.24-5.361-0.87-7.822-1.893
				c-3.365-1.396-3.766-4.364-3.073-8.5c0.106-0.643,0.299-1.287,0.547-1.91c0.237-0.619,0.533-1.213,0.856-1.786
				c0.724-1.233,1.342-2.497,1.846-3.768c1.498-3.844,1.942-7.87,0.882-12.173c-0.097-0.4-0.144-0.811-0.177-1.217
				c-0.064-0.861-0.064-1.746-0.279-2.559l0.049-0.016l-0.021-0.07c-0.264-1.005-0.319-1.92-0.231-2.798
				c0.099-1.079,0.45-2.061,1.01-3.022c0.386-0.654,0.871-1.288,1.435-1.912c0.122-0.147,0.236-0.283,0.369-0.428
				c2.586-2.712,4.67-5.899,6.971-8.883c0.307-0.396,0.62-0.786,1.179-1.488c0.481,5.15,1.925,9.383,5.076,12.867
				c0.22,0.244,0.429,0.5,0.673,0.74c0.369,0.359,0.338,1.315,0.223,1.943c-0.359,1.848-0.639,3.672-0.817,5.48
				C230.511,271.91,231.402,278.617,235.779,284.959z M279.272,267.702c-0.065,0.165-0.161,0.327-0.276,0.497
				c-0.047,0.066-0.074,0.162-0.099,0.244c-0.074,0.335-0.038,0.759-0.078,1.125c-0.058,0.439,0,0.977-0.129,1.385
				c-0.021,0.123-0.072,0.248-0.152,0.342c-1.669,2.124-3.114,4.635-5.265,6.101c-2.217,1.502-5.092,2.222-7.788,2.829
				c-0.667,0.146-1.335,0.279-2.007,0.398c-0.227,0.033-0.456,0.071-0.683,0.099c-0.438,0.074-0.878,0.146-1.323,0.202
				c-0.285,0.025-0.57,0.049-0.857,0.076c-0.395,0.035-0.77,0.076-1.152,0.098c-0.304,0.022-0.62,0.029-0.934,0.043
				c-0.359,0.019-0.727,0.035-1.086,0.035c-0.07,0-0.13,0-0.195,0c-0.32,0-0.643-0.013-0.964-0.017
				c-0.253-0.019-0.513-0.019-0.766-0.032c-0.399-0.017-0.803-0.062-1.204-0.098c-0.242-0.023-0.492-0.029-0.736-0.057
				c-0.423-0.049-0.855-0.121-1.281-0.19c-0.219-0.039-0.435-0.061-0.655-0.11c-0.649-0.105-1.285-0.249-1.933-0.412
				c-5.215-1.289-7.922-4.283-8.303-9.65c-0.156-2.166-0.709-4.182-1.57-6.078c-0.453-1.012-0.974-2.004-1.622-2.952l0.067-0.014
				c-0.014-0.021-0.021-0.044-0.038-0.06c-0.59-0.865-1.209-1.684-1.815-2.527c-0.378-0.517-0.736-1.022-1.11-1.531
				c-0.315-0.428-0.625-0.848-0.934-1.272c-0.903-1.198-1.802-2.402-2.688-3.618c-1.921-2.637-2.962-5.562-3.234-8.833
				c-0.127-1.537-0.56-3.059-0.896-4.823c-1.13,1.478-2.08,2.92-3.235,4.191c-3.385,3.706-6.573,7.651-10.152,11.146
				c-0.87,0.847-1.755,1.667-2.678,2.446c-0.025,0.023-0.058,0.049-0.081,0.068l0.056,0.016c-3.467,2.926-7.313,5.619-11.371,7.732
				c-1.104,0.582-2.219,1.123-3.357,1.597c-0.694,0.294-1.384,0.558-2.08,0.799c-0.196,0.068-0.4,0.144-0.601,0.216
				c-0.508,0.172-1.025,0.336-1.547,0.485c-0.188,0.053-0.379,0.109-0.583,0.166c-0.674,0.187-1.349,0.354-2.02,0.495
				c-0.085,0.02-0.162,0.029-0.243,0.049c-0.598,0.116-1.199,0.224-1.794,0.314c-0.206,0.02-0.412,0.049-0.621,0.078
				c-0.501,0.059-1.012,0.122-1.509,0.154c-0.188,0.014-0.363,0.031-0.536,0.046c-0.636,0.04-1.258,0.056-1.883,0.056
				c-0.027,0-0.048,0-0.076,0c-0.852-0.002-1.689-0.043-2.531-0.111c-0.229-0.022-0.45-0.057-0.673-0.086
				c-0.618-0.068-1.243-0.146-1.858-0.251c-0.283-0.047-0.562-0.098-0.838-0.159c-0.581-0.113-1.168-0.252-1.74-0.398
				c-0.265-0.07-0.518-0.131-0.78-0.202c-0.739-0.21-1.468-0.451-2.192-0.712c-0.086-0.027-0.174-0.06-0.258-0.094
				c-0.807-0.303-1.619-0.635-2.415-1.016c-0.239-0.107-0.468-0.221-0.695-0.338c-0.577-0.269-1.151-0.562-1.72-0.881
				c-0.264-0.153-0.537-0.301-0.806-0.463c-0.557-0.312-1.105-0.658-1.661-1.014c-0.233-0.151-0.481-0.309-0.719-0.467
				c-0.779-0.521-1.549-1.062-2.312-1.654c-0.693-0.533-1.347-1.108-2.022-1.658c-3.962-3.28-7.518-6.953-10.462-11.176l0.092,0.014
				c-0.018-0.025-0.048-0.055-0.072-0.088c-0.709-1.018-1.388-2.058-2.04-3.096c-4.157-6.588-7.181-13.723-8.889-21.374
				c-1.543-6.912-2.13-13.978-1.669-21.048c0.436-6.943,2-13.673,3.935-20.363c2.882-9.998,7.661-19.021,13.946-27.184
				c3.476-4.506,7.408-8.742,11.569-12.621c7.049-6.585,12.464-14.259,16.871-22.752c0.731-1.418,1.464-2.842,2.188-4.266
				c1.696-3.324,3.396-6.652,5.117-9.967c0.07-0.12,0.137-0.246,0.202-0.374c0.05-0.104,0.097-0.192,0.144-0.294
				c1.371-2.619,2.758-5.226,4.191-7.804l-0.014-0.013c0,0,0.037-0.091,0.104-0.254c0.003-0.018,0.016-0.057,0.016-0.057
				c0.041-0.085,0.072-0.157,0.103-0.246v-0.006c1.363-3.296,10.417-22.404,37.29-21.754c29.419,0.717,38.567,22.598,41.079,34.259
				c0.968,4.498,1.32,11.294,0.041,18.138c-0.143,0.748-0.307,1.498-0.488,2.248c-0.073,0.305-0.14,0.592-0.222,0.893
				c-0.116,0.422-0.239,0.842-0.364,1.262c-0.145,0.472-0.294,0.915-0.444,1.373c-0.108,0.302-0.209,0.616-0.325,0.918
				c-0.612,1.635-1.357,3.227-2.233,4.746c-0.034,0.062-0.075,0.133-0.112,0.197c-0.239,0.41-0.48,0.83-0.747,1.236l-0.045-0.018
				c-0.562,0.84-1.162,1.643-1.814,2.428c-1.438,1.711-3.088,3.27-5.045,4.576c-0.274,0.244-0.528,0.498-0.812,0.732
				c-1.664,1.4-3.627,2.512-5.59,3.465c-2.411,1.17-3.602,3.002-3.868,5.591c-0.168,1.681-0.42,3.358-0.705,5.009
				c-0.347,1.945-1.659,2.848-3.538,3.031c-0.389,0.041-0.779,0.074-1.17,0.041c-2.103-0.186-3.841,0.131-5.248,2.082
				c-1.063,1.449-2.717,2.576-4.979,1.09c-0.608,1.712-1.619,1.763-2.892,1.277c-1.672-0.636-3.252-0.848-5.006,0.164
				c-4.603,2.69-8.692,0.918-12.372-2.022c-5.384-4.323-7.822-10.329-9.029-16.937c-0.027-0.186-0.053-0.38-0.09-0.561
				c-0.019-0.051-0.104-0.081-0.222-0.177c-0.322,4.621,0.6,8.95,2.636,13.013c2.789,5.587,5.316,11.271,6.104,17.504
				c0.331,2.595-0.01,5.271-0.109,7.9c-0.007,0.16-0.145,0.348-0.315,0.506l-0.951,0.268c-0.674,0.182-1.352,0.361-2.022,0.547
				c-0.256,0.045-0.484,0.102-0.744,0.152l-0.017,0.045c-0.215,0.059-0.423,0.12-0.64,0.175c-0.024-0.14-0.062-0.29-0.093-0.428
				l-0.794-3.426c-0.528-2.28-1.043-4.578-1.623-6.843l-0.858-3.424c-0.155-0.579-0.239-1.121-0.46-1.725l-0.619-1.695
				c-0.433-1.121-0.834-2.248-1.304-3.325c-0.452-1.097-0.923-2.177-1.399-3.255c0.713,2.946,1.859,5.811,2.385,8.778
				c0.919,5.312,1.564,10.676,2.32,16.014v0.033c0.036,0.245,0.06,0.462,0.094,0.679c0.077,0.563,0.211,1.137,0.388,2.037
				c0.549-0.111,1.086-0.207,1.617-0.31c0.354-0.066,0.701-0.133,1.053-0.202c0.019,0,0.037-0.01,0.062-0.014
				c1.349-0.261,2.666-0.513,3.957-0.787c3.082-0.671,6.188-1.252,9.213-2.108c6.461-1.841,12.438-4.598,17.654-9.026
				c3.035-2.577,6.562-4.594,9.964-6.705c2.061-1.286,4.199-0.949,6.241,0.347c0.514,0.332,1.271,0.452,1.898,0.396
				c1.886-0.146,3.02,0.66,3.491,2.541c0.197,0.804,0.364,1.793,0.922,2.295c1.308,1.164,0.905,2.197,0.196,3.398
				c-0.251,0.412-0.56,1.096-0.381,1.403c0.944,1.71,0.216,2.778-1.129,3.797c-0.41,0.32-0.648,0.95-0.819,1.492
				c-0.841,2.522-1.316,2.774-4.086,2.89c-3.283,0.138-6.581,0.325-9.832,0.754c-4.013,0.514-7.455,2.4-10.654,4.851
				c-5.668,4.327-11.254,8.776-17.152,12.776c-5.818,3.949-11.613,5.36-17.023,4.463c-5.121-0.844-9.886-3.762-13.996-8.625
				c-4.389-5.219-8.071-11.139-11.489-17.073c-3.003-5.21-5.095-10.903-6.256-16.889l0.327,3.104l0.19,1.567l0.298,1.541
				c0.207,1.034,0.414,2.061,0.666,3.092l0.946,3.072c0.3,1.068,0.694,2.016,1.078,2.985l0.583,1.437l0.299,0.717
				c0.072,0.144,0.057,0.155,0.199,0.418l0.174,0.359c0.923,1.869,1.77,3.771,2.77,5.633c0.966,1.86,1.91,3.741,3.102,5.576
				c0.558,0.914,1.117,1.895,1.696,2.756l1.753,2.561l0.878,1.273l1.139,1.434c0.683,0.915,1.532,1.728,2.326,2.592
				c1.69,1.627,3.58,3.137,5.742,4.32c1.566,0.854,3.243,1.598,5.005,2.121c-9.352,4.577-18.096,9.314-25.702,15.939
				c2.192-1.286,4.372-2.613,6.59-3.879c6.938-3.96,14.156-7.316,21.835-9.537c2.062-0.594,4.131-1.17,6.212-1.728
				c0.233-0.034,0.462-0.044,0.694-0.062c2.327-0.333,4.612-0.92,6.726-1.771c1.333-0.293,2.682-0.552,4.028-0.793
				c3.533-0.6,7.349-0.338,10.917,0.266c4.077,0.686,6.591,3.904,8.76,7.217c4.171,6.396,5.787,13.654,7.077,21.055
				c0.607,3.463,1.434,6.883,2.299,10.296c0.229,0.913,0.46,1.818,0.695,2.715c0.34,1.288,1.074,2.521,1.816,3.642
				c0.136,0.208,0.281,0.391,0.426,0.574c1.251,1.514,2.982,2.18,4.971,1.73c1.922-0.441,3.842-1.111,5.614-1.992
				c0.838-0.416,1.661-0.874,2.476-1.335c1.785-1.017,3.535-2.091,5.348-3.037c1.051-0.546,2.287-0.896,3.475-0.999
				c1.986-0.176,3.279,0.599,3.652,1.928c0.17,0.572,0.148,1.24-0.044,1.99c-0.019,0.064-0.055,0.131-0.071,0.201
				c-0.07,0.24-0.133,0.486-0.247,0.734c-0.27,0.605-0.1,1.648,0.274,2.227C279.456,265.871,279.755,266.717,279.272,267.702z"/>
		</g>
	</g>
</g>
</svg>
