<?xml version="1.0" encoding="utf-8"?>
<!-- Generator: Adobe Illustrator 16.0.0, SVG Export Plug-In . SVG Version: 6.00 Build 0)  -->
<!DOCTYPE svg PUBLIC "-//W3C//DTD SVG 1.1//EN" "http://www.w3.org/Graphics/SVG/1.1/DTD/svg11.dtd">
<svg version="1.1" id="Capa_1" xmlns="http://www.w3.org/2000/svg" xmlns:xlink="http://www.w3.org/1999/xlink" x="0px" y="0px"
	 width="350px" height="350px" viewBox="0 0 350 350" enable-background="new 0 0 350 350" xml:space="preserve">
<g>
	<defs>
		<rect id="SVGID_1_" x="-8.041" y="66.096" width="365.041" height="282.076"/>
	</defs>
	<clipPath id="SVGID_2_">
		<use xlink:href="#SVGID_1_"  overflow="visible"/>
	</clipPath>
	<path clip-path="url(#SVGID_2_)" fill="#F1CF00" d="M243.098,106.936c-2.938-0.002-5.332,2.384-5.334,5.313
		c-0.001,2.928,2.391,5.314,5.329,5.315c2.937,0.001,5.33-2.383,5.332-5.311C248.425,109.323,246.034,106.937,243.098,106.936
		 M243.093,116.739c-2.482-0.001-4.505-2.017-4.504-4.49c0.001-2.475,2.024-4.491,4.508-4.49c2.48,0.001,4.503,2.018,4.502,4.494
		C247.598,114.726,245.575,116.741,243.093,116.739 M241.2,109.63h1.827c1.009,0.001,1.958,0.328,1.957,1.502
		c0,0.755-0.438,1.31-1.216,1.42l1.393,2.317l-1.126-0.001l-1.217-2.22h-0.683l-0.002,2.22l-0.934-0.001V109.63z M242.862,111.849
		c0.527,0,1.144-0.044,1.146-0.723c0-0.621-0.58-0.696-1.062-0.696l-0.81-0.001v1.42H242.862z"/>
	<path clip-path="url(#SVGID_2_)" fill="#BD0052" d="M28.661,134.423l0.004-10.619c0.001-3.187,2.316-5.833,5.359-6.364l0.001,0.002
		c0.369-0.064,0.748-0.1,1.136-0.1c0.386,0.001,0.764,0.037,1.133,0.102v-0.003c1.354,0.238,2.562,0.893,3.487,1.827l9.066-6.223
		c-3.22-3.979-8.149-6.524-13.675-6.527c0,0-0.006,0.001-0.009,0.001c0,0-0.004-0.001-0.007-0.001
		c-9.707-0.004-17.576,7.836-17.581,17.512l-0.028,67.631c0,0.018,0.001,0.034,0.001,0.052l11.087,0.004l0.02-47.767l5.128,0.002
		l0.004-9.512L28.661,134.423z"/>
	<path clip-path="url(#SVGID_2_)" fill="#009493" d="M82.245,142.102l0.003-7.64l-11.215-0.005l-0.014,34.226
		c-0.001,3.79-1.304,6.969-3.91,9.542c-2.604,2.574-5.557,3.859-8.863,3.857c-3.634-0.001-6.711-1.258-9.23-3.771
		c-2.684-2.637-4.027-5.85-4.025-9.639l0.014-34.225l-5.692-0.002l-0.004,9.51l-5.523-0.002l-0.011,25.146
		c0.12,6.346,2.359,11.697,6.718,16.066c4.355,4.367,10.293,6.552,17.814,6.555c7.105,0.003,12.806-2.136,17.105-6.418
		c0.394-0.396,0.766-0.804,1.127-1.215c0.004-10.298,0.011-27.016,0.011-27.016C76.662,151.292,78.566,146.307,82.245,142.102"/>
	<path clip-path="url(#SVGID_2_)" fill="#D07644" d="M118.29,141.025c-4.354-4.369-10.292-6.553-17.812-6.556
		c-7.106-0.003-12.806,2.136-17.106,6.417c-0.396,0.396-0.766,0.803-1.127,1.216l-0.012,27.016
		c-0.113,5.778-2.017,10.764-5.695,14.968c-0.002,3.838-0.003,6.785-0.004,7.641c4.908-1.462,11.218,0.005,11.218,0.005
		l0.013-34.227c0.001-3.788,1.303-6.969,3.909-9.542c2.604-2.572,5.556-3.859,8.862-3.859c3.635,0.002,6.714,1.26,9.231,3.773
		c2.686,2.637,4.028,5.85,4.026,9.638l-0.014,34.226l11.216,0.005l0.014-34.657C124.888,150.747,122.65,145.393,118.29,141.025"/>
	<path clip-path="url(#SVGID_2_)" fill="#C0CD29" d="M183.006,130.968c5.702,0.003,10.326-4.519,10.327-10.099
		c0.003-5.581-4.617-10.105-10.319-10.107c-5.702-0.003-10.325,4.519-10.327,10.099
		C172.684,126.442,177.305,130.966,183.006,130.968"/>
	<path clip-path="url(#SVGID_2_)" fill="#C0CD29" d="M153.939,134.491c-7.105-0.003-12.805,2.136-17.106,6.418
		c-4.42,4.446-6.697,9.838-6.823,16.183l-0.013,34.657l11.215,0.005l0.014-34.227c0.002-3.788,1.304-6.97,3.909-9.542
		c2.606-2.572,5.557-3.859,8.864-3.856c3.635,0,6.712,1.257,9.231,3.772c2.685,2.637,4.027,5.849,4.025,9.637l-0.013,34.228
		l5.606,0.002l0.021-49.518c-0.358-0.408-0.725-0.811-1.115-1.203C167.399,136.678,161.46,134.495,153.939,134.491"/>
</g>
<g>
	<defs>
		<path id="SVGID_3_" d="M221.465,109.52c-1.127,4.322-2.558,9.05-4.31,14.273c-1.76,5.219-3.887,10.751-6.42,16.544
			c-2.528,5.795-5.478,11.756-8.802,17.801c-3.309,6.056-7.064,12.111-11.2,18.049l-0.771,1.109l-0.8,1.098
			c-0.533,0.733-1.067,1.469-1.601,2.206c-0.55,0.723-1.103,1.447-1.653,2.174l-0.828,1.089l-0.854,1.071
			c-0.071,0.092-0.146,0.182-0.219,0.273l-0.002,6.565l-5.494-0.003c-0.454,0.517-0.911,1.032-1.367,1.545
			c-2.456,2.713-5.022,5.31-7.626,7.838c-2.633,2.494-5.338,4.882-8.112,7.121c-2.791,2.211-5.649,4.274-8.56,6.148
			c-2.914,1.871-5.899,3.504-8.899,4.917c-1.499,0.722-3.017,1.324-4.522,1.926c-0.759,0.268-1.517,0.533-2.27,0.797
			c-0.754,0.257-1.516,0.454-2.267,0.686c-3.021,0.838-6.016,1.411-8.938,1.651c-2.926,0.264-5.766,0.122-8.46-0.276
			c-2.69-0.42-5.261-1.066-7.605-2.043c-2.351-0.956-4.544-2.067-6.494-3.385c-1.989-1.251-3.735-2.688-5.343-4.085
			c-3.186-2.845-5.596-5.804-7.473-8.312c-0.464-0.637-0.903-1.238-1.315-1.805c-0.381-0.575-0.737-1.114-1.069-1.616
			c-0.12-0.181-0.231-0.349-0.343-0.519c3.364-0.109,6.533,0.101,8.924,0.841c8.23,2.542,11.387,0.902,2.256-3.708
			c-6.286-3.176-20.29-6.415-34.951-0.015c-5.935,2.592-2.699,9.439,4.508,6.295c1.876-0.817,6.532-1.985,11.751-2.728
			c0.077,0.146,0.154,0.294,0.239,0.457c0.209,0.395,0.423,0.827,0.696,1.319c0.292,0.5,0.611,1.047,0.957,1.638
			c0.346,0.588,0.713,1.231,1.122,1.896c0.426,0.647,0.88,1.334,1.359,2.059c1.954,2.872,4.494,6.312,8.043,9.791
			c1.798,1.712,3.774,3.505,6.107,5.111c2.287,1.664,4.918,3.14,7.788,4.425c2.864,1.309,6.044,2.254,9.383,2.895
			c3.342,0.625,6.875,0.914,10.454,0.732c7.169-0.319,14.511-2.204,21.427-5.264c3.468-1.519,6.88-3.271,10.175-5.261
			c3.293-1.994,6.498-4.181,9.616-6.516c3.095-2.358,6.097-4.866,9.013-7.48c2.891-2.639,5.677-5.4,8.365-8.244
			c2.658-2.867,5.271-5.775,7.718-8.792l0.929-1.122l0.901-1.141c0.6-0.759,1.2-1.519,1.8-2.275c0.582-0.771,1.161-1.54,1.74-2.308
			l0.869-1.152l0.841-1.166c4.498-6.204,8.586-12.542,12.198-18.868c3.619-6.323,6.774-12.625,9.519-18.711
			c2.743-6.089,5.056-11.973,6.98-17.479c1.935-5.505,3.433-10.648,4.656-15.234c0.294-1.15,0.578-2.039,0.852-3.113
			c0.221-0.869,0.407-1.858,0.595-2.307l-12.502-0.006C221.945,107.826,221.709,108.551,221.465,109.52"/>
	</defs>
	<clipPath id="SVGID_4_">
		<use xlink:href="#SVGID_3_"  overflow="visible"/>
	</clipPath>
	
		<linearGradient id="SVGID_5_" gradientUnits="userSpaceOnUse" x1="-219.6494" y1="481.8018" x2="-219.1885" y2="481.8018" gradientTransform="matrix(376.7502 0.1546 0.1546 -376.7502 82739.5 181723.5)">
		<stop  offset="0" style="stop-color:#D07644"/>
		<stop  offset="0.3978" style="stop-color:#D07644"/>
		<stop  offset="0.7419" style="stop-color:#F1CF00"/>
		<stop  offset="1" style="stop-color:#F1CF00"/>
	</linearGradient>
	<polygon clip-path="url(#SVGID_4_)" fill="url(#SVGID_5_)" points="58.141,106.854 234.729,106.926 234.676,233.62 58.088,233.547 
			"/>
</g>
<g>
	<defs>
		<rect id="SVGID_6_" x="-8.041" y="66.096" width="365.041" height="282.076"/>
	</defs>
	<clipPath id="SVGID_7_">
		<use xlink:href="#SVGID_6_"  overflow="visible"/>
	</clipPath>
	<path clip-path="url(#SVGID_7_)" fill="#5F147D" d="M184.025,140.454l-3.706-5.952l-7.447-0.003l-0.003,7.751
		c3.621,4.135,5.492,9.087,5.602,14.862l-0.014,34.657h0.053c1.886-2.143,3.735-4.318,5.496-6.562L184.025,140.454z"/>
	<polygon clip-path="url(#SVGID_7_)" fill="#F1CF00" points="209.972,161.631 203.626,151.348 193.132,134.481 184.027,134.503 
		184.025,140.454 197.208,161.627 203.618,171.909 215.995,191.784 228.762,191.791 	"/>
	<rect x="33.785" y="134.443" clip-path="url(#SVGID_7_)" fill="#5F147D" width="5.523" height="9.511"/>
	<path clip-path="url(#SVGID_7_)" fill="#C0CD29" d="M82.245,142.102l-0.011,26.562c0,0,0.175,9.27-5.696,15.423
		c-0.023-23.621,0.011-26.451,0.011-26.451S75.758,149.796,82.245,142.102"/>
	<polygon clip-path="url(#SVGID_7_)" fill="#BD0053" points="180.319,134.502 184.027,134.503 184.025,140.454 	"/>
	<path clip-path="url(#SVGID_7_)" fill="#BD0053" d="M184.007,185.207c0,0-3.521,4.293-5.496,6.563c3.691,0,5.493,0.001,5.493,0.001
		L184.007,185.207z"/>
	<path clip-path="url(#SVGID_7_)" fill="#009493" d="M172.87,142.25l-0.021,49.518l5.609,0.001l0.014-35.073
		C178.472,156.695,178.494,148.179,172.87,142.25"/>
	<path clip-path="url(#SVGID_7_)" fill="#BD0052" d="M242.362,187.117c-0.002,3.033-2.545,5.49-5.68,5.487
		c-3.137,0-5.677-2.46-5.676-5.492c0.001-3.034,2.543-5.491,5.68-5.489C239.822,181.624,242.362,184.084,242.362,187.117"/>
	<polygon clip-path="url(#SVGID_7_)" fill="#BD0052" points="329.977,156.204 322.067,156.201 315.118,167.505 308.178,156.195 
		300.27,156.192 311.178,173.915 303.929,185.704 300.27,191.658 300.255,191.683 308.097,191.686 315.113,180.31 322.118,191.691 
		329.962,191.695 319.053,173.918 	"/>
	<path clip-path="url(#SVGID_7_)" fill="#BD0052" d="M299.725,171.568c0.002-8.609-6.739-15.615-15.029-15.619
		c-4.832-0.002-9.134,2.383-11.887,6.073c-2.755-3.604-7.01-5.927-11.785-5.928c-8.288-0.004-15.037,6.967-15.042,15.54
		l-0.008,20.026l6.671,0.002l0.01-20.022h0.01c0.001-4.857,3.75-8.807,8.356-8.804c4.605,0.001,8.351,3.954,8.349,8.811h0.009
		l-0.007,20.022l3.015,0.002h0.918l2.739,0.001h0.276l0.008-20.11h0.011c0.001-4.878,3.748-8.844,8.355-8.842
		c4.605,0.002,8.351,3.971,8.349,8.849h0.01l-0.008,20.111h3.015l3.657,0.002l0.003-5.955L299.725,171.568z"/>
	<polygon clip-path="url(#SVGID_7_)" fill="#727176" points="206.126,204.78 213.511,204.78 213.511,206.991 208.521,206.991 
		208.521,209.018 213.234,209.018 213.234,211.229 208.521,211.229 208.521,213.44 213.787,213.44 213.787,215.648 206.126,215.648 
			"/>
	<rect x="215.443" y="204.043" clip-path="url(#SVGID_7_)" fill="#727176" width="2.302" height="11.605"/>
	<path clip-path="url(#SVGID_7_)" fill="#BD1856" d="M231.01,214.36c-0.735,0.937-1.949,1.473-3.146,1.473
		c-2.304,0-4.146-1.534-4.146-3.914s1.842-3.914,4.146-3.914c2.149,0,3.5,1.534,3.5,3.914v0.722h-5.344
		c0.186,0.877,0.846,1.444,1.736,1.444c0.751,0,1.259-0.385,1.645-0.906L231.01,214.36z M229.061,211.075
		c0.015-0.768-0.584-1.412-1.413-1.412c-1.013,0-1.565,0.691-1.628,1.412H229.061z"/>
	<path clip-path="url(#SVGID_7_)" fill="#BD1856" d="M232.759,208.188h2.21v1.014h0.032c0.307-0.584,1.059-1.197,2.18-1.197
		c2.334,0,2.765,1.534,2.765,3.531v4.112h-2.303v-3.652c0-0.858-0.018-1.965-1.199-1.965c-1.196,0-1.381,0.936-1.381,1.903v3.714
		h-2.304V208.188z"/>
	<path clip-path="url(#SVGID_7_)" fill="#BD1856" d="M246.622,210.6c-0.23-0.323-0.661-0.568-1.137-0.568
		c-1.151,0-1.842,0.768-1.842,1.889s0.69,1.889,1.842,1.889c0.507,0,0.875-0.262,1.137-0.568l1.52,1.597
		c-0.722,0.736-1.781,0.998-2.656,0.998c-2.303,0-4.146-1.536-4.146-3.915c0-2.381,1.843-3.915,4.146-3.915
		c0.875,0,1.935,0.261,2.656,0.998L246.622,210.6z"/>
	<path clip-path="url(#SVGID_7_)" fill="#BD1856" d="M256.154,215.648h-2.211v-1.011h-0.03c-0.307,0.582-1.06,1.197-2.18,1.197
		c-2.334,0-2.763-1.536-2.763-3.531v-4.115h2.303v3.654c0,0.859,0.015,1.966,1.197,1.966c1.197,0,1.381-0.938,1.381-1.904v-3.716
		h2.303V215.648z"/>
	<path clip-path="url(#SVGID_7_)" fill="#BD1856" d="M264.844,214.36c-0.737,0.937-1.95,1.473-3.147,1.473
		c-2.303,0-4.146-1.534-4.146-3.914s1.843-3.914,4.146-3.914c2.148,0,3.501,1.534,3.501,3.914v0.722h-5.344
		c0.185,0.877,0.845,1.444,1.735,1.444c0.752,0,1.259-0.385,1.643-0.906L264.844,214.36z M262.894,211.075
		c0.015-0.768-0.583-1.412-1.413-1.412c-1.013,0-1.565,0.691-1.627,1.412H262.894z"/>
	<path clip-path="url(#SVGID_7_)" fill="#BD1856" d="M266.594,208.188h2.211v1.014h0.029c0.308-0.584,1.06-1.197,2.18-1.197
		c2.334,0,2.764,1.534,2.764,3.531v4.112h-2.303v-3.652c0-0.858-0.016-1.965-1.196-1.965c-1.198,0-1.382,0.936-1.382,1.903v3.714
		h-2.303V208.188z"/>
	<path clip-path="url(#SVGID_7_)" fill="#BD1856" d="M280.485,210.031h-2.027v2.486c0,0.799,0.094,1.382,1.091,1.382
		c0.245,0,0.736-0.03,0.937-0.214v1.918c-0.506,0.185-1.074,0.229-1.611,0.229c-1.535,0-2.718-0.628-2.718-2.255v-3.547h-1.475
		v-1.843h1.475v-2.21h2.302v2.21h2.027V210.031z"/>
	<path clip-path="url(#SVGID_7_)" fill="#BD1856" d="M281.652,208.188h2.303v1.196h0.03c0.491-0.903,1.137-1.38,2.149-1.38
		c0.261,0,0.553,0.015,0.769,0.076v2.104c-0.322-0.093-0.645-0.154-0.983-0.154c-1.75,0-1.965,1.013-1.965,2.502v3.115h-2.303
		V208.188z"/>
	<path clip-path="url(#SVGID_7_)" fill="#BD1856" d="M292.58,214.714h-0.028c-0.507,0.798-1.429,1.119-2.364,1.119
		c-1.397,0-2.657-0.797-2.657-2.301c0-2.58,3.133-2.626,5.05-2.626c0-0.813-0.673-1.336-1.471-1.336
		c-0.755,0-1.383,0.338-1.874,0.892l-1.229-1.26c0.845-0.798,2.073-1.197,3.286-1.197c2.687,0,3.408,1.366,3.408,3.854v3.79h-2.121
		V214.714z M292.014,212.38c-0.707,0-2.271,0.061-2.271,1.075c0,0.552,0.583,0.812,1.091,0.812c0.904,0,1.747-0.474,1.747-1.396
		v-0.491H292.014z"/>
	<path clip-path="url(#SVGID_7_)" fill="#BD1856" d="M301.226,210.031h-2.027v2.486c0,0.799,0.092,1.382,1.089,1.382
		c0.246,0,0.738-0.03,0.938-0.214v1.918c-0.508,0.185-1.076,0.229-1.613,0.229c-1.534,0-2.717-0.628-2.717-2.255v-3.547h-1.474
		v-1.843h1.474v-2.21h2.303v2.21h2.027V210.031z"/>
	<path clip-path="url(#SVGID_7_)" fill="#BD1856" d="M306.261,208.005c2.302,0,4.145,1.534,4.145,3.915
		c0,2.379-1.843,3.913-4.145,3.913c-2.304,0-4.146-1.534-4.146-3.913C302.114,209.539,303.957,208.005,306.261,208.005
		 M306.261,213.809c1.151,0,1.84-0.768,1.84-1.889s-0.688-1.889-1.84-1.889s-1.844,0.768-1.844,1.889
		S305.109,213.809,306.261,213.809"/>
	<path clip-path="url(#SVGID_7_)" fill="#BD1856" d="M319.585,215.648h-2.12v-0.981h-0.029c-0.353,0.538-1.244,1.166-2.288,1.166
		c-2.212,0-3.669-1.596-3.669-3.852c0-2.073,1.289-3.977,3.407-3.977c0.954,0,1.844,0.261,2.366,0.983h0.03v-4.945h2.303V215.648z
		 M315.624,210.031c-1.151,0-1.842,0.768-1.842,1.888c0,1.122,0.69,1.89,1.842,1.89s1.841-0.768,1.841-1.89
		C317.465,210.799,316.775,210.031,315.624,210.031"/>
	<path clip-path="url(#SVGID_7_)" fill="#BD1856" d="M325.295,208.005c2.302,0,4.146,1.534,4.146,3.915
		c0,2.379-1.844,3.913-4.146,3.913c-2.303,0-4.146-1.534-4.146-3.913C321.149,209.539,322.992,208.005,325.295,208.005
		 M325.295,213.809c1.15,0,1.842-0.768,1.842-1.889s-0.691-1.889-1.842-1.889c-1.151,0-1.843,0.768-1.843,1.889
		S324.144,213.809,325.295,213.809"/>
	<path clip-path="url(#SVGID_7_)" fill="#727176" d="M189.485,223.54h2.119v0.982h0.03c0.352-0.537,1.243-1.167,2.287-1.167
		c2.211,0,3.67,1.596,3.67,3.854c0,2.073-1.289,3.978-3.408,3.978c-0.951,0-1.842-0.262-2.364-0.983h-0.03v4.299h-2.304V223.54z
		 M193.446,229.158c1.151,0,1.842-0.767,1.842-1.89c0-1.118-0.69-1.887-1.842-1.887c-1.152,0-1.842,0.769-1.842,1.887
		C191.604,228.392,192.294,229.158,193.446,229.158"/>
	<path clip-path="url(#SVGID_7_)" fill="#727176" d="M203.624,230.064h-0.032c-0.506,0.799-1.428,1.122-2.363,1.122
		c-1.396,0-2.656-0.801-2.656-2.305c0-2.579,3.132-2.624,5.052-2.624c0-0.814-0.677-1.337-1.474-1.337
		c-0.753,0-1.384,0.339-1.874,0.892l-1.228-1.26c0.844-0.799,2.072-1.197,3.286-1.197c2.686,0,3.408,1.366,3.408,3.854V231h-2.119
		V230.064z M203.057,227.731c-0.707,0-2.273,0.06-2.273,1.073c0,0.553,0.583,0.813,1.09,0.813c0.906,0,1.751-0.476,1.751-1.396
		v-0.49H203.057z"/>
	<path clip-path="url(#SVGID_7_)" fill="#727176" d="M207.186,223.54h2.303v1.197h0.029c0.492-0.906,1.137-1.382,2.15-1.382
		c0.261,0,0.552,0.015,0.767,0.077v2.102c-0.322-0.091-0.644-0.152-0.981-0.152c-1.75,0-1.965,1.013-1.965,2.504V231h-2.303V223.54z
		"/>
	<path clip-path="url(#SVGID_7_)" fill="#727176" d="M218.115,230.064h-0.03c-0.507,0.799-1.428,1.122-2.365,1.122
		c-1.397,0-2.655-0.801-2.655-2.305c0-2.579,3.131-2.624,5.051-2.624c0-0.814-0.676-1.337-1.474-1.337
		c-0.753,0-1.382,0.339-1.874,0.892l-1.227-1.26c0.844-0.799,2.072-1.197,3.284-1.197c2.688,0,3.407,1.366,3.407,3.854V231h-2.117
		V230.064z M217.547,227.731c-0.706,0-2.271,0.06-2.271,1.073c0,0.553,0.583,0.813,1.091,0.813c0.904,0,1.749-0.476,1.749-1.396
		v-0.49H217.547z"/>
	<path clip-path="url(#SVGID_7_)" fill="#727176" d="M230.901,230.064h-0.031c-0.505,0.799-1.427,1.122-2.363,1.122
		c-1.396,0-2.655-0.801-2.655-2.305c0-2.579,3.131-2.624,5.05-2.624c0-0.814-0.675-1.337-1.473-1.337
		c-0.754,0-1.382,0.339-1.874,0.892l-1.228-1.26c0.843-0.799,2.072-1.197,3.286-1.197c2.686,0,3.408,1.366,3.408,3.854V231h-2.12
		V230.064z M230.334,227.731c-0.706,0-2.271,0.06-2.271,1.073c0,0.553,0.582,0.813,1.09,0.813c0.905,0,1.749-0.476,1.749-1.396
		v-0.49H230.334z"/>
	<path clip-path="url(#SVGID_7_)" fill="#727176" d="M234.464,223.54h2.303v1.197h0.028c0.493-0.906,1.138-1.382,2.152-1.382
		c0.26,0,0.551,0.015,0.766,0.077v2.102c-0.321-0.091-0.645-0.152-0.981-0.152c-1.75,0-1.965,1.013-1.965,2.504V231h-2.303V223.54z"
		/>
	<path clip-path="url(#SVGID_7_)" fill="#727176" d="M240.711,223.54h2.211v1.013h0.03c0.308-0.583,1.06-1.197,2.181-1.197
		c1.045,0,1.903,0.429,2.303,1.337c0.538-0.953,1.259-1.337,2.365-1.337c2.025,0,2.641,1.429,2.641,3.241V231h-2.304v-4.344
		c0-0.689-0.261-1.274-1.013-1.274c-1.061,0-1.398,0.752-1.398,1.673V231h-2.302v-3.945c0-0.551,0.029-1.673-1.029-1.673
		c-1.198,0-1.382,0.936-1.382,1.904V231h-2.303V223.54z"/>
	<path clip-path="url(#SVGID_7_)" fill="#727176" d="M258.75,230.064h-0.031c-0.508,0.799-1.428,1.122-2.366,1.122
		c-1.396,0-2.654-0.801-2.654-2.305c0-2.579,3.131-2.624,5.052-2.624c0-0.814-0.677-1.337-1.475-1.337
		c-0.752,0-1.381,0.339-1.874,0.892l-1.227-1.26c0.844-0.799,2.073-1.197,3.285-1.197c2.687,0,3.408,1.366,3.408,3.854V231h-2.118
		V230.064z M258.18,227.731c-0.704,0-2.271,0.06-2.271,1.073c0,0.553,0.583,0.813,1.09,0.813c0.904,0,1.751-0.476,1.751-1.396v-0.49
		H258.18z"/>
	<path clip-path="url(#SVGID_7_)" fill="#727176" d="M262.31,223.54h2.304v1.197h0.029c0.492-0.906,1.137-1.382,2.149-1.382
		c0.261,0,0.554,0.015,0.769,0.077v2.102c-0.323-0.091-0.645-0.152-0.984-0.152c-1.747,0-1.963,1.013-1.963,2.504V231h-2.304V223.54
		z"/>
	<path clip-path="url(#SVGID_7_)" fill="#727176" d="M280.163,229.711c-0.735,0.936-1.95,1.476-3.147,1.476
		c-2.302,0-4.145-1.536-4.145-3.918c0-2.377,1.843-3.913,4.145-3.913c2.15,0,3.502,1.536,3.502,3.913v0.722h-5.343
		c0.184,0.877,0.845,1.444,1.733,1.444c0.753,0,1.261-0.384,1.644-0.906L280.163,229.711z M278.213,226.427
		c0.018-0.769-0.582-1.413-1.411-1.413c-1.014,0-1.566,0.689-1.627,1.413H278.213z"/>
	<polygon clip-path="url(#SVGID_7_)" fill="#727176" points="281.129,223.54 283.616,223.54 285.507,228.605 285.536,228.605 
		287.285,223.54 289.605,223.54 286.658,231 284.215,231 	"/>
	<path clip-path="url(#SVGID_7_)" fill="#727176" d="M297.51,229.711c-0.736,0.936-1.949,1.476-3.146,1.476
		c-2.304,0-4.146-1.536-4.146-3.918c0-2.377,1.842-3.913,4.146-3.913c2.148,0,3.5,1.536,3.5,3.913v0.722h-5.343
		c0.185,0.877,0.844,1.444,1.735,1.444c0.752,0,1.259-0.384,1.643-0.906L297.51,229.711z M295.561,226.427
		c0.016-0.769-0.583-1.413-1.412-1.413c-1.015,0-1.568,0.689-1.628,1.413H295.561z"/>
	<path clip-path="url(#SVGID_7_)" fill="#727176" d="M299.261,223.54h2.21v1.013h0.031c0.308-0.583,1.06-1.197,2.179-1.197
		c2.334,0,2.763,1.536,2.763,3.53V231h-2.302v-3.652c0-0.86-0.015-1.966-1.197-1.966c-1.196,0-1.382,0.936-1.382,1.904V231h-2.302
		V223.54z"/>
	<path clip-path="url(#SVGID_7_)" fill="#727176" d="M313.153,225.382h-2.027v2.486c0,0.8,0.093,1.382,1.089,1.382
		c0.246,0,0.737-0.03,0.938-0.214v1.919c-0.507,0.185-1.076,0.231-1.613,0.231c-1.534,0-2.718-0.63-2.718-2.258v-3.547h-1.474
		v-1.842h1.474v-2.211h2.304v2.211h2.027V225.382z"/>
	<path clip-path="url(#SVGID_7_)" fill="#727176" d="M318.188,223.355c2.302,0,4.146,1.536,4.146,3.913
		c0,2.382-1.844,3.918-4.146,3.918c-2.303,0-4.146-1.536-4.146-3.918C314.043,224.892,315.886,223.355,318.188,223.355
		 M318.188,229.158c1.149,0,1.841-0.767,1.841-1.89c0-1.118-0.691-1.887-1.841-1.887c-1.151,0-1.844,0.769-1.844,1.887
		C316.345,228.392,317.037,229.158,318.188,229.158"/>
	<path clip-path="url(#SVGID_7_)" fill="#727176" d="M327.904,225.735c-0.338-0.416-0.783-0.63-1.336-0.63
		c-0.383,0-0.845,0.169-0.845,0.614c0,1.105,3.886,0.17,3.886,3.008c0,1.904-1.843,2.459-3.439,2.459
		c-1.044,0-2.195-0.262-2.932-1.016l1.397-1.551c0.428,0.522,0.936,0.814,1.626,0.814c0.522,0,1.044-0.138,1.044-0.536
		c0-1.199-3.885-0.186-3.885-3.026c0-1.75,1.567-2.517,3.133-2.517c0.983,0,2.072,0.246,2.762,0.983L327.904,225.735z"/>
</g>
<g>
	<defs>
		<rect id="SVGID_8_" x="-8.041" y="66.096" width="365.041" height="282.076"/>
	</defs>
	<clipPath id="SVGID_9_">
		<use xlink:href="#SVGID_8_"  overflow="visible"/>
	</clipPath>
</g>
</svg>
