<?xml version="1.0" encoding="utf-8"?>
<!-- Generator: Adobe Illustrator 16.0.0, SVG Export Plug-In . SVG Version: 6.00 Build 0)  -->
<!DOCTYPE svg PUBLIC "-//W3C//DTD SVG 1.1//EN" "http://www.w3.org/Graphics/SVG/1.1/DTD/svg11.dtd">
<svg version="1.1" id="Capa_1" xmlns="http://www.w3.org/2000/svg" xmlns:xlink="http://www.w3.org/1999/xlink" x="0px" y="0px"
	 width="450px" height="450px" viewBox="0 0 450 450" enable-background="new 0 0 450 450" xml:space="preserve">
<g>
	<path fill-rule="evenodd" clip-rule="evenodd" fill="#00336A" d="M322.478,291.212c1.789-0.063,3.066-0.194,3.832-0.593
		c1.305-0.658,1.947-1.924,1.947-3.799v-30.84c0-1.881-0.612-3.134-1.852-3.771c-0.721-0.395-2.034-0.642-3.928-0.748v-1.621h22.885
		v1.621c-2.662,0.089-4.438,0.449-5.347,1.088c-0.862,0.645-1.304,2.232-1.304,4.762v30.104c0,1.415,0.375,2.347,1.119,2.806
		c0.76,0.452,2.248,0.686,4.447,0.686c3.937,0,7.239-0.842,9.901-2.525c2.676-1.701,4.997-4.994,6.937-9.896h1.918l-2.646,14.448
		h-37.91V291.212z"/>
	<path fill-rule="evenodd" clip-rule="evenodd" fill="#00336A" d="M279.463,292.934v-1.722c1.872-0.063,3.214-0.21,3.995-0.646
		c1.217-0.66,1.828-1.91,1.828-3.738V255.98c0-1.881-0.627-3.134-1.887-3.771c-0.723-0.395-2.041-0.642-3.937-0.748v-1.621h37.712
		v12.857h-1.593c-0.833-4.107-2.249-6.916-4.247-8.435c-1.99-1.517-5.61-2.272-10.867-2.272c-2.006,0-3.289,0.211-3.841,0.629
		c-0.531,0.389-0.804,1.193-0.804,2.388v14.76c3.73,0.038,6.26-0.61,7.579-1.96c1.327-1.368,2.329-3.861,3.03-7.468h1.667v21.544
		h-1.667c-0.457-3.637-1.422-6.188-2.867-7.662c-1.422-1.492-4.012-2.242-7.742-2.242v15.443c0,1.347,0.354,2.266,1.053,2.762
		c0.73,0.482,2.199,0.723,4.418,0.723c4.172,0,7.586-0.789,10.227-2.367c2.646-1.578,4.982-4.535,7.031-8.877h1.822l-2.646,13.271
		H279.463z"/>
	<path fill="#00336A" d="M222.882,277.885l-7.091-15.594l-6.792,15.594H222.882z M196.429,291.212
		c1.568-0.101,3.088-0.748,4.048-2.03c0.619-0.812,1.599-2.548,2.749-5.314l15.453-34.891h1.822l15.514,33.498
		c1.65,3.75,2.875,6.179,3.678,7.28c1.069,1.457,1.859,1.457,2.484,1.457c0.51,0,1.586,0,2.619-1.206
		c0.686-0.804,1.127-2.256,1.127-4.52v-28.176c0-2.406-0.376-3.92-1.127-4.551c-0.746-0.632-2.176-1.07-4.307-1.299v-1.621h21.064
		c5.582,0,9.82,0.885,12.718,2.646c2.92,1.769,4.38,4.801,4.38,9.099c0,2.094-0.576,4.062-1.727,5.908
		c-1.127,1.825-3.006,3.305-5.625,4.422c-1.982,0.787-3.965,1.268-5.949,1.43c-1.668,0.146-4.018,0.222-7.019,0.246v-2.268
		c2.905-0.154,4.911-0.567,6.001-1.245c2.057-1.282,3.096-4.056,3.096-8.309c0-2.913-0.509-5.255-1.502-7.034
		c-1.004-1.791-2.922-2.685-5.761-2.685c-1.289,0-2.225,0.159-2.8,0.472c-0.567,0.285-0.834,0.869-0.834,1.741v31.224
		c0,2.35,0.406,3.881,1.209,4.607c0.818,0.732,2.323,1.04,4.543,1.118v1.722h-40.33v-1.722c2.123-0.078,3.524-0.163,4.188-0.433
		c0.686-0.271,1.018-0.949,1.018-2.057c0-0.496-0.161-1.252-0.511-2.273c-0.22-0.602-0.499-1.324-0.862-2.173l-1.753-3.865h-16.132
		c-1.172,2.694-2.028,4.656-2.146,4.946c-0.898,1.98-0.988,2.842-0.988,3.586c0,0.915,0.746,1.582,2.006,1.988
		c0.754,0.232,1.865,0.261,3.354,0.28v1.722h-13.698V291.212z"/>
	<path fill="#00336A" d="M102.675,277.893l-6.26-14.747h-0.537l-5.914,14.747H102.675z M101.495,292.934v-1.722
		c2.131-0.078,3.524-0.154,4.181-0.433c0.692-0.264,1.033-0.949,1.033-2.049c0-0.501-0.178-1.253-0.509-2.271
		c-0.222-0.605-0.51-1.332-0.878-2.184l-1.651-3.851H88.976c-0.964,2.524-1.578,4.172-1.857,4.939
		c-0.575,1.641-0.863,2.834-0.863,3.578c0,0.918,0.635,1.582,1.888,1.998c0.739,0.223,1.858,0.251,3.354,0.271v1.722H78.138v-1.722
		c1.579-0.101,2.846-0.696,3.812-1.987c0.611-0.811,1.498-2.591,2.646-5.35l14.531-34.892h1.821l14.605,33.491
		c1.638,3.75,2.796,6.083,3.6,7.186c0.817,1.076,2.064,1.592,3.553,1.555c0.855-0.006,1.505-0.295,2.3-1.062
		c0.783-0.738,1.217-2.297,1.217-4.667v-28.176c0-2.467-0.471-4.074-1.437-4.825c-0.635-0.495-2.072-0.835-4.314-1.024v-1.621
		h21.065c4.365,0,7.903,0.447,10.611,1.342c5.24,1.806,7.857,5.049,7.857,9.742c0,3.465-1.305,6.197-3.922,8.188
		c-2.006,1.496-4.129,2.447-6.363,2.867l11.436,15.824c0.361,0.5,1.055,1.455,1.335,1.781c1.48,1.628,3.272,1.628,4.415,1.628
		c3.318,0,3.953-0.491,4.675-1.206c0.745-0.753,1.121-2.256,1.121-4.52v-28.176c0-2.406-0.376-3.92-1.121-4.551
		c-0.752-0.635-2.19-1.07-4.32-1.299v-1.621h21.063c5.59,0,9.828,0.885,12.727,2.646c2.912,1.769,4.379,4.801,4.379,9.099
		c0,2.094-0.574,4.062-1.725,5.908c-1.136,1.825-3.009,3.305-5.633,4.422c-1.977,0.787-3.96,1.268-5.936,1.434
		c-1.681,0.143-4.033,0.218-7.025,0.242v-2.268c2.903-0.154,4.909-0.567,5.999-1.245c2.066-1.282,3.099-4.056,3.099-8.309
		c0-2.913-0.502-5.249-1.496-7.034c-1.011-1.791-2.928-2.685-5.76-2.685c-1.297,0-2.234,0.159-2.81,0.472
		c-0.56,0.285-0.832,0.869-0.832,1.741v31.224c0,2.35,0.398,3.881,1.216,4.607c0.803,0.732,2.314,1.04,4.533,1.118v1.722h-36.912
		l-13.583-19.933l-0.009-2.104c3.393-0.178,5.87-0.746,7.455-1.689c1.851-1.121,2.779-3.693,2.779-7.719
		c0-2.475-0.355-4.424-1.047-5.861c-1.223-2.42-3.441-3.637-6.658-3.637c-1.746,0-2.896,0.219-3.449,0.652
		c-0.531,0.418-0.804,1.111-0.804,2.092v30.752c0,2.241,0.39,3.76,1.157,4.549c0.767,0.771,2.301,1.099,4.601,1.177v1.722H101.495z"
		/>
	<rect x="215.761" y="201.488" fill-rule="evenodd" clip-rule="evenodd" fill="#00336A" width="9.644" height="43.742"/>
	<path fill-rule="evenodd" clip-rule="evenodd" fill="#3A8244" d="M188.849,207.699c0-4.922,4.1-8.918,9.158-8.918
		c5.05,0,9.15,3.996,9.15,8.918c0,4.929-4.101,8.914-9.15,8.914C192.948,216.613,188.849,212.628,188.849,207.699"/>
	<path fill-rule="evenodd" clip-rule="evenodd" fill="#3A8244" d="M174.761,190.465c0-4.926,4.092-8.914,9.142-8.914
		c5.065,0,9.165,3.988,9.165,8.914c0,4.92-4.1,8.918-9.165,8.918C178.853,199.383,174.761,195.385,174.761,190.465"/>
	<path fill-rule="evenodd" clip-rule="evenodd" fill="#3A8244" d="M170.749,130.42c0-4.924,4.093-8.914,9.149-8.914
		c5.051,0,9.149,3.99,9.149,8.914c0,4.926-4.099,8.914-9.149,8.914C174.842,139.334,170.749,135.346,170.749,130.42"/>
	<path fill-rule="evenodd" clip-rule="evenodd" fill="#3A8244" d="M165.677,151.897c0-4.925,4.099-8.915,9.156-8.915
		c5.051,0,9.157,3.99,9.157,8.915c0,4.928-4.106,8.918-9.157,8.918C169.775,160.815,165.677,156.825,165.677,151.897"/>
	<path fill-rule="evenodd" clip-rule="evenodd" fill="#3A8244" d="M190.951,121.004c0-4.933,4.093-8.912,9.156-8.912
		c5.05,0,9.144,3.979,9.144,8.912c0,4.918-4.094,8.912-9.144,8.912C195.044,129.916,190.951,125.922,190.951,121.004"/>
	<path fill-rule="evenodd" clip-rule="evenodd" fill="#3A8244" d="M234.022,207.703c0-4.926,4.1-8.914,9.158-8.914
		c5.051,0,9.156,3.988,9.156,8.914c0,4.925-4.105,8.913-9.156,8.913C238.122,216.616,234.022,212.628,234.022,207.703"/>
	<path fill-rule="evenodd" clip-rule="evenodd" fill="#3A8244" d="M262.173,173.311c0-4.928,4.092-8.916,9.156-8.916
		c5.051,0,9.15,3.988,9.15,8.916c0,4.919-4.1,8.911-9.15,8.911C266.265,182.222,262.173,178.229,262.173,173.311"/>
	<path fill-rule="evenodd" clip-rule="evenodd" fill="#3A8244" d="M248.136,190.502c0-4.922,4.092-8.914,9.156-8.914
		c5.05,0,9.15,3.992,9.15,8.914c0,4.925-4.101,8.922-9.15,8.922C252.228,199.424,248.136,195.427,248.136,190.502"/>
	<path fill-rule="evenodd" clip-rule="evenodd" fill="#3A8244" d="M231.716,120.982c0-4.926,4.092-8.922,9.148-8.922
		c5.059,0,9.158,3.996,9.158,8.922c0,4.924-4.1,8.914-9.158,8.914C235.808,129.896,231.716,125.906,231.716,120.982"/>
	<path fill-rule="evenodd" clip-rule="evenodd" fill="#3A8244" d="M252.124,130.42c0-4.924,4.099-8.914,9.148-8.914
		c5.052,0,9.157,3.99,9.157,8.914c0,4.926-4.105,8.914-9.157,8.914C256.223,139.334,252.124,135.346,252.124,130.42"/>
	<path fill-rule="evenodd" clip-rule="evenodd" fill="#3A8244" d="M257.128,152.09c0-4.922,4.102-8.916,9.159-8.916
		c5.056,0,9.157,3.994,9.157,8.916c0,4.924-4.102,8.92-9.157,8.92C261.229,161.01,257.128,157.014,257.128,152.09"/>
	<path fill-rule="evenodd" clip-rule="evenodd" fill="#3A8244" d="M160.7,173.311c0-4.921,4.092-8.916,9.148-8.916
		c5.051,0,9.15,3.995,9.15,8.916c0,4.919-4.1,8.916-9.15,8.916C164.792,182.227,160.7,178.229,160.7,173.311"/>
	<path fill-rule="evenodd" clip-rule="evenodd" fill="#3A8244" d="M200.286,183.867c0-4.922,4.105-8.915,9.156-8.915
		s9.149,3.993,9.149,8.915c0,4.932-4.099,8.918-9.149,8.918S200.286,188.799,200.286,183.867"/>
	<path fill-rule="evenodd" clip-rule="evenodd" fill="#3A8244" d="M186.335,166.871c0-4.924,4.1-8.917,9.15-8.917
		c5.057,0,9.158,3.993,9.158,8.917c0,4.926-4.102,8.914-9.158,8.914C190.435,175.785,186.335,171.797,186.335,166.871"/>
	<path fill-rule="evenodd" clip-rule="evenodd" fill="#3A8244" d="M194.733,152.571c-3.952-3.07-4.602-8.678-1.445-12.528
		c3.154-3.85,8.914-4.476,12.867-1.409c3.943,3.077,4.593,8.685,1.443,12.53C204.436,155.016,198.677,155.638,194.733,152.571"/>
	<path fill-rule="evenodd" clip-rule="evenodd" fill="#3A8244" d="M211.433,136.127c0-4.918,4.092-8.922,9.149-8.922
		c5.06,0,9.151,4.004,9.151,8.922c0,4.925-4.092,8.913-9.151,8.913C215.524,145.04,211.433,141.052,211.433,136.127"/>
	<path fill-rule="evenodd" clip-rule="evenodd" fill="#3A8244" d="M231.562,145.604c0-4.92,4.092-8.909,9.156-8.909
		c5.059,0,9.15,3.989,9.15,8.909c0,4.922-4.092,8.918-9.15,8.918C235.653,154.521,231.562,150.525,231.562,145.604"/>
	<path fill-rule="evenodd" clip-rule="evenodd" fill="#3A8244" d="M236.53,166.801c0-4.926,4.091-8.917,9.15-8.917
		c5.064,0,9.155,3.991,9.155,8.917c0,4.922-4.091,8.912-9.155,8.912C240.621,175.713,236.53,171.723,236.53,166.801"/>
	<path fill-rule="evenodd" clip-rule="evenodd" fill="#3A8244" d="M222.618,183.867c0-4.922,4.1-8.915,9.157-8.915
		c5.05,0,9.149,3.993,9.149,8.915c0,4.925-4.1,8.913-9.149,8.913C226.718,192.78,222.618,188.792,222.618,183.867"/>
	<path fill-rule="evenodd" clip-rule="evenodd" fill="#3A8244" d="M211.646,159.513c0-4.922,4.091-8.913,9.149-8.913
		c5.051,0,9.158,3.991,9.158,8.913c0,4.929-4.107,8.923-9.158,8.923C215.737,168.436,211.646,164.441,211.646,159.513"/>
	<path fill-rule="evenodd" clip-rule="evenodd" fill="#3A8244" d="M211.285,111.331c0-4.921,4.1-8.913,9.149-8.913
		c5.059,0,9.158,3.992,9.158,8.913c0,4.925-4.1,8.921-9.158,8.921C215.385,120.252,211.285,116.256,211.285,111.331"/>
	<rect x="78.558" y="301.986" fill-rule="evenodd" clip-rule="evenodd" fill="#3A8244" width="284.057" height="9.393"/>
	<path fill="#00336A" d="M358.19,244.598c3.266,0,5.885,2.66,5.885,5.93c0,3.322-2.619,5.962-5.916,5.962
		c-3.264,0-5.926-2.64-5.926-5.962c0-3.27,2.662-5.93,5.926-5.93H358.19z M358.131,245.784c-2.478,0-4.476,2.13-4.476,4.771
		c0,2.662,1.998,4.742,4.504,4.742c2.508,0.027,4.535-2.08,4.535-4.742c0-2.641-2.027-4.771-4.535-4.771H358.131z M357.136,253.982
		h-1.393v-6.592c0.521-0.08,1.105-0.185,2.101-0.185c1.135,0,1.82,0.185,2.271,0.524c0.367,0.29,0.584,0.736,0.584,1.43
		c0,0.785-0.562,1.338-1.277,1.527v0.051c0.589,0.109,0.957,0.633,1.061,1.606c0.127,1.026,0.268,1.427,0.371,1.638h-1.453
		c-0.154-0.242-0.258-0.818-0.396-1.719c-0.104-0.707-0.533-0.995-1.24-0.995h-0.627V253.982z M357.136,250.182h0.656
		c0.818,0,1.453-0.262,1.453-0.947c0-0.551-0.406-0.974-1.344-0.974c-0.346,0-0.58,0-0.766,0.022V250.182z"/>
</g>
</svg>
