<?xml version="1.0" encoding="utf-8"?>
<!-- Generator: Adobe Illustrator 16.0.0, SVG Export Plug-In . SVG Version: 6.00 Build 0)  -->
<!DOCTYPE svg PUBLIC "-//W3C//DTD SVG 1.1//EN" "http://www.w3.org/Graphics/SVG/1.1/DTD/svg11.dtd">
<svg version="1.1" id="Capa_1" xmlns="http://www.w3.org/2000/svg" xmlns:xlink="http://www.w3.org/1999/xlink" x="0px" y="0px"
	 width="450px" height="450px" viewBox="0 0 450 450" enable-background="new 0 0 450 450" xml:space="preserve">
<g>
	<path fill="#4A5C58" d="M363.595,276.906v4.127c0.526-1.051,1.58-1.526,2.706-1.526c1.81,0,3.259,1.208,3.259,3.353
		c0,2.163-1.436,3.356-3.247,3.356c-1.107,0-2.172-0.553-2.718-1.54v1.438h-0.632v-9.207H363.595z M363.613,282.85
		c0,1.62,1.133,2.734,2.666,2.734c1.447,0,2.647-0.923,2.647-2.725c0-1.826-1.2-2.739-2.647-2.739
		C364.768,280.12,363.613,281.228,363.613,282.85z"/>
	<path fill="#4A5C58" d="M376.411,279.61l-3.961,9.209h-0.684l1.198-2.788l-2.607-6.421h0.7l1.512,3.839l0.768,1.887l0.742-1.896
		l1.637-3.829H376.411z"/>
	<path fill="#4A5C58" d="M385.535,283.402h-2.598v2.711H381.2v-9.207c1.442,0,2.889-0.019,4.335-0.019
		C390.039,276.888,390.049,283.402,385.535,283.402z M382.938,281.806h2.598c2.229,0,2.215-3.259,0-3.259h-2.598V281.806z"/>
	<path fill="#4A5C58" d="M398.263,286.113h-2.074l-2.676-3.081h-1.674v3.081h-1.734v-9.226c1.451,0,2.917,0.019,4.373,0.019
		c2.175,0.007,3.319,1.456,3.319,3.05c0,1.26-0.585,2.538-2.327,2.894l2.793,3.142V286.113z M391.839,278.52v2.946h2.639
		c1.109,0,1.582-0.732,1.582-1.475c0-0.737-0.491-1.472-1.582-1.472H391.839z"/>
	<path fill="#4A5C58" d="M408.02,281.556c-0.031,2.385-1.482,4.768-4.731,4.768c-3.226,0-4.729-2.331-4.729-4.752
		c0-2.425,1.55-4.856,4.729-4.856C406.465,276.715,408.045,279.146,408.02,281.556z M400.269,281.595
		c0.037,1.518,0.853,3.137,3.02,3.137c2.177,0,2.992-1.634,3.02-3.146c0.028-1.555-0.843-3.289-3.02-3.289
		C401.121,278.297,400.227,280.048,400.269,281.595z"/>
	<path fill="#4A5C58" d="M411.13,278.479h-2.916v-1.573c2.659,0,4.906,0,7.57,0v1.573h-2.917v7.634h-1.737V278.479z"/>
	<path fill="#4A5C58" d="M423.705,286.113h-6.889c0-3.069,0-6.147,0-9.207h6.889v1.679h-5.173v2.118h4.995v1.617h-4.995v2.081h5.173
		V286.113z"/>
	<path fill="#4A5C58" d="M431.589,284.374h-4.819l-0.787,1.739h-1.884l4.139-9.207h1.884l4.132,9.207h-1.889L431.589,284.374z
		 M429.173,278.84l-1.704,3.916h3.42L429.173,278.84z"/>
	<path fill="#4A5C58" d="M442.296,276.951l-4.092,4.41l4.429,4.644v0.108h-2.144l-3.847-4.083v4.083h-1.739v-9.207h1.739v3.889
		l3.488-3.889h2.165V276.951z"/>
	<path fill="#4A5C58" d="M74.813,249.205v-25.017H32.441v7.233h9.666v25.012H84.48v-7.229H74.813z M49.851,231.422h17.224v17.783
		H49.851V231.422z"/>
	<path fill="#4A5C58" d="M58.465,288.737c-26.704,0-48.427-21.726-48.427-48.428c0-26.697,21.723-48.42,48.427-48.42
		c26.694,0,48.413,21.723,48.413,48.42C106.878,267.012,85.159,288.737,58.465,288.737 M58.465,199.736
		c-22.374,0-40.581,18.2-40.581,40.573c0,22.381,18.207,40.578,40.581,40.578c22.369,0,40.576-18.197,40.576-40.578
		C99.041,217.937,80.834,199.736,58.465,199.736"/>
	<polygon fill="#38322F" points="149.078,219.671 138.138,219.671 138.138,242.255 131.232,242.255 131.232,219.671 
		120.296,219.671 120.296,213.477 149.078,213.477 	"/>
	<polygon fill="#38322F" points="160.455,219.671 160.455,224.812 172.103,224.812 172.103,230.968 160.455,230.968 
		160.455,236.099 175.202,236.099 175.202,242.255 153.547,242.255 153.547,213.477 175.202,213.477 175.202,219.671 	"/>
	<path fill="#38322F" d="M206.237,236.857c-2.739,3.759-7.213,6.151-12.215,6.151c-8.371,0-15.146-6.77-15.146-15.141
		s6.774-15.192,15.146-15.192c5.002,0,9.476,2.435,12.215,6.199l-5.218,3.37c-1.955-1.778-4.118-2.928-6.997-2.928
		c-4.695,0-8.507,3.855-8.507,8.551c0,4.687,3.812,8.502,8.507,8.502c2.879,0,4.691-0.932,6.997-2.884L206.237,236.857z"/>
	<polygon fill="#38322F" points="242.063,213.477 242.063,242.255 235.16,242.255 220.815,225.028 220.815,242.255 213.903,242.255 
		213.903,213.477 220.815,213.477 235.16,231.407 235.16,213.477 	"/>
	<path fill="#38322F" d="M278.466,227.91c0,8.366-6.774,15.146-15.141,15.146c-8.418,0-15.192-6.779-15.192-15.146
		s6.774-15.191,15.192-15.191C271.691,212.719,278.466,219.544,278.466,227.91 M271.822,227.91c0-4.698-3.811-8.549-8.497-8.549
		c-4.747,0-8.546,3.851-8.546,8.549c0,4.696,3.799,8.497,8.546,8.497C268.012,236.407,271.822,232.606,271.822,227.91"/>
	<polygon fill="#38322F" points="311.055,219.671 300.121,219.671 300.121,242.255 293.215,242.255 293.215,219.671 
		282.271,219.671 282.271,213.477 311.055,213.477 	"/>
	<path fill="#38322F" d="M333.154,238.315H319.21l-1.954,3.939h-7.788l14.298-28.778h5.227l13.765,28.778h-7.652L333.154,238.315z
		 M330.451,232.692l-4.298-9.253l-4.078,9.253H330.451z"/>
	<path fill="#38322F" d="M373.578,233.051c0,5.749-4.513,9.204-8.89,9.204h-16.258v-28.778h15.41c4.157,0,8.591,3.008,8.591,8.586
		c0,1.908-0.487,3.542-1.198,4.874C372.569,228.486,373.578,230.522,373.578,233.051 M355.339,224.722h8.099
		c1.33-0.042,2.535-1.193,2.535-2.787c0-1.595-1.205-2.835-2.535-2.835h-8.099V224.722z M367.244,233.402
		c0-1.816-1.327-3.058-2.837-3.058h-9.068v6.109h9.068C365.973,236.454,367.244,235.13,367.244,233.402"/>
	<polygon fill="#38322F" points="404.049,235.35 404.049,242.255 379.117,242.255 379.117,213.477 386.022,213.477 386.022,235.35 	
		"/>
	<path fill="#38322F" d="M432.745,238.315h-13.953l-1.95,3.939h-7.788l14.296-28.778h5.229l13.773,28.778h-7.664L432.745,238.315z
		 M430.044,232.692l-4.307-9.253l-4.064,9.253H430.044z"/>
	<polygon fill="#38322F" points="133.905,258.468 133.905,260.474 138.456,260.474 138.456,262.878 133.905,262.878 
		133.905,264.877 139.664,264.877 139.664,267.281 131.218,267.281 131.218,256.052 139.664,256.052 139.664,258.468 	"/>
	<polygon fill="#38322F" points="154.069,264.587 154.069,267.281 144.348,267.281 144.348,256.052 147.047,256.052 
		147.047,264.587 	"/>
	<polygon fill="#38322F" points="181.291,256.052 181.291,267.281 178.597,267.281 178.597,261.543 175.951,267.281 
		174.776,267.281 172.191,261.6 172.191,267.281 169.477,267.281 169.477,256.052 172.191,256.052 172.191,256.105 175.366,262.405 
		178.597,256.052 178.597,256.075 178.597,256.052 	"/>
	<path fill="#38322F" d="M197.6,261.646c0,3.108-2.508,5.635-5.613,5.635h-5.323v-11.229h5.323
		C195.42,256.052,197.6,258.562,197.6,261.646 M194.9,261.646c0-1.669-1.248-2.898-2.652-2.898h-2.889v5.839h2.889
		C193.639,264.535,194.9,263.327,194.9,261.646"/>
	<polygon fill="#38322F" points="204.94,258.468 204.94,261.031 209.481,261.031 209.481,263.449 204.94,263.449 204.94,267.281 
		202.243,267.281 202.243,258.468 202.243,256.052 210.703,256.052 210.703,258.468 	"/>
	<path fill="#38322F" d="M236.447,261.646c0,3.108-2.509,5.635-5.615,5.635h-5.325v-11.229h5.325
		C234.266,256.052,236.447,258.562,236.447,261.646 M233.746,261.646c0-1.669-1.24-2.898-2.659-2.898h-2.881v5.839h2.881
		C232.496,264.535,233.746,263.327,233.746,261.646"/>
	<polygon fill="#38322F" points="243.471,258.468 243.471,260.474 248.012,260.474 248.012,262.878 243.471,262.878 
		243.471,264.877 249.229,264.877 249.229,267.281 240.783,267.281 240.783,256.052 249.229,256.052 249.229,258.468 	"/>
	<path fill="#38322F" d="M273.622,263.692c0,2.242-1.767,3.589-3.476,3.589h-6.342v-11.229h6.014c1.62,0,3.346,1.187,3.346,3.353
		c0,0.746-0.186,1.386-0.464,1.9C273.22,261.911,273.622,262.707,273.622,263.692 M266.499,260.438h3.158
		c0.521-0.019,0.992-0.461,0.992-1.086c0-0.618-0.471-1.103-0.992-1.103h-3.158V260.438z M271.144,263.828
		c0-0.709-0.515-1.189-1.107-1.189h-3.537v2.379h3.537C270.649,265.018,271.144,264.505,271.144,263.828"/>
	<path fill="#38322F" d="M289.231,256.052v5.515c0,3.61-2.515,6.012-5.7,6.012c-3.195,0-5.721-2.401-5.721-6.012v-5.515h2.748v5.515
		c0,1.761,1.245,3.23,2.973,3.23c1.709,0,2.949-1.47,2.949-3.23v-5.515H289.231z"/>
	<polygon fill="#38322F" points="296.35,258.468 296.35,260.474 300.896,260.474 300.896,262.878 296.35,262.878 296.35,264.877 
		302.099,264.877 302.099,267.281 293.653,267.281 293.653,256.052 302.099,256.052 302.099,258.468 	"/>
	<polygon fill="#38322F" points="318.618,256.052 318.618,267.281 315.924,267.281 310.324,260.565 310.324,267.281 
		307.633,267.281 307.633,256.052 310.324,256.052 315.924,263.046 315.924,256.052 	"/>
	<path fill="#38322F" d="M332.534,265.745h-5.436l-0.763,1.536H323.3l5.576-11.229h2.038l5.37,11.229h-2.986L332.534,265.745z
		 M331.48,263.547l-1.671-3.604l-1.592,3.604H331.48z"/>
	<polygon fill="#38322F" points="363.354,256.052 363.354,267.281 360.657,267.281 360.657,261.543 358.012,267.281 
		356.837,267.281 354.253,261.6 354.253,267.281 351.539,267.281 351.539,256.052 354.253,256.052 354.253,256.105 357.427,262.405 
		360.657,256.052 360.657,256.075 360.657,256.052 	"/>
	<path fill="#38322F" d="M377.277,265.745h-5.44l-0.761,1.536h-3.046l5.586-11.229h2.039l5.357,11.229h-2.979L377.277,265.745z
		 M376.224,263.547l-1.681-3.604l-1.582,3.604H376.224z"/>
	<path fill="#38322F" d="M397.207,261.646c0,3.108-2.5,5.635-5.608,5.635h-5.323v-11.229h5.323
		C395.025,256.052,397.207,258.562,397.207,261.646 M394.521,261.646c0-1.669-1.25-2.898-2.671-2.898h-2.879v5.839h2.879
		C393.258,264.535,394.521,263.327,394.521,261.646"/>
	<polygon fill="#38322F" points="404.238,258.468 404.238,260.474 408.78,260.474 408.78,262.878 404.238,262.878 404.238,264.877 
		409.99,264.877 409.99,267.281 401.542,267.281 401.542,256.052 409.99,256.052 409.99,258.468 	"/>
	<path fill="#38322F" d="M421.46,267.281l-1.847-2.798h-1.969v2.798h-2.746v-11.229h5.454c2.299,0,4.026,1.971,4.026,4.422
		c0,1.629-0.81,2.783-2.003,3.42l2.467,3.388H421.46z M417.645,262.012h2.28c0.915,0,1.678-0.604,1.678-1.538
		c0-0.91-0.744-1.657-1.659-1.657h-2.299V262.012z"/>
	<path fill="#38322F" d="M438.611,265.745h-5.442l-0.761,1.536h-3.038l5.575-11.229h2.039l5.377,11.229h-2.986L438.611,265.745z
		 M437.561,263.547l-1.679-3.604l-1.582,3.604H437.561z"/>
</g>
</svg>
