<?xml version="1.0" encoding="utf-8"?>
<!-- Generator: Adobe Illustrator 16.0.0, SVG Export Plug-In . SVG Version: 6.00 Build 0)  -->
<!DOCTYPE svg PUBLIC "-//W3C//DTD SVG 1.1//EN" "http://www.w3.org/Graphics/SVG/1.1/DTD/svg11.dtd">
<svg version="1.1" id="Capa_1" xmlns="http://www.w3.org/2000/svg" xmlns:xlink="http://www.w3.org/1999/xlink" x="0px" y="0px"
	 width="450px" height="450px" viewBox="0 0 450 450" enable-background="new 0 0 450 450" xml:space="preserve">
<g>
	<g>
		<g>
			<defs>
				<rect id="SVGID_74_" x="-527.563" y="124.062" width="408.996" height="185.66"/>
			</defs>
			<clipPath id="SVGID_1_">
				<use xlink:href="#SVGID_74_"  overflow="visible"/>
			</clipPath>
			<g clip-path="url(#SVGID_1_)">
				<defs>
					<path id="SVGID_76_" d="M-217.311,124.062c17.077,11.705,28.606,38.736,44.914,52.967
						c26.746,23.377,32.102,16.051,53.822,28.664c-0.493-20.325-23.873-41.633-36.655-52.66
						C-178.013,133.403-189.238,125.946-217.311,124.062z"/>
				</defs>
				<clipPath id="SVGID_2_">
					<use xlink:href="#SVGID_76_"  overflow="visible"/>
				</clipPath>
				<defs>
					<filter id="Adobe_OpacityMaskFilter" filterUnits="userSpaceOnUse" x="-345.27" y="-12.357" width="354.65" height="354.472">
						<feColorMatrix  type="matrix" values="1 0 0 0 0  0 1 0 0 0  0 0 1 0 0  0 0 0 1 0"/>
					</filter>
				</defs>
				<mask maskUnits="userSpaceOnUse" x="-345.27" y="-12.357" width="354.65" height="354.472" id="SVGID_4_">
					<g filter="url(#Adobe_OpacityMaskFilter)">
						<g enable-background="new    ">
							<g>
								<defs>
									<polygon id="SVGID_79_" points="-260.22,171.958 -176.52,78.511 -75.675,157.792 -159.371,251.246 									"/>
								</defs>
								<clipPath id="SVGID_6_" clip-path="url(#SVGID_2_)">
									<use xlink:href="#SVGID_79_"  overflow="visible"/>
								</clipPath>
								
									<linearGradient id="SVGID_8_" gradientUnits="userSpaceOnUse" x1="-3638.6958" y1="-3944.5576" x2="-3638.1685" y2="-3944.5576" gradientTransform="matrix(37.9924 -45.2779 45.2779 37.9924 316667.75 -14714.4795)">
									<stop  offset="0" style="stop-color:#828383"/>
									<stop  offset="0.4126" style="stop-color:#828383"/>
									<stop  offset="0.7" style="stop-color:#C5C5C6"/>
									<stop  offset="0.9175" style="stop-color:#FFFFFF"/>
									<stop  offset="1" style="stop-color:#FFFFFF"/>
								</linearGradient>
								<polygon clip-path="url(#SVGID_6_)" fill="url(#SVGID_8_)" points="-151.92,342.114 9.381,149.88 -183.971,-12.357 
									-345.27,179.877 								"/>
							</g>
						</g>
					</g>
				</mask>
				<g clip-path="url(#SVGID_2_)" mask="url(#SVGID_4_)">
					<g>
						<defs>
							<rect id="SVGID_82_" x="-260.22" y="78.511" width="184.545" height="172.735"/>
						</defs>
						<clipPath id="SVGID_9_">
							<use xlink:href="#SVGID_82_"  overflow="visible"/>
						</clipPath>
						<g clip-path="url(#SVGID_9_)">
							<defs>
								<polygon id="SVGID_84_" points="-260.22,171.958 -176.52,78.511 -75.675,157.792 -159.371,251.246 								"/>
							</defs>
							<clipPath id="SVGID_10_">
								<use xlink:href="#SVGID_84_"  overflow="visible"/>
							</clipPath>
							
								<linearGradient id="SVGID_11_" gradientUnits="userSpaceOnUse" x1="-3638.6958" y1="-3944.5576" x2="-3638.1685" y2="-3944.5576" gradientTransform="matrix(37.9924 -45.2779 45.2779 37.9924 316667.75 -14714.4795)">
								<stop  offset="0" style="stop-color:#EAD535"/>
								<stop  offset="0.4126" style="stop-color:#EAD535"/>
								<stop  offset="0.9175" style="stop-color:#ECDD60"/>
								<stop  offset="1" style="stop-color:#ECDD60"/>
							</linearGradient>
							<polygon clip-path="url(#SVGID_10_)" fill="url(#SVGID_11_)" points="-151.92,342.114 9.381,149.88 -183.971,-12.357 
								-345.27,179.877 							"/>
						</g>
					</g>
				</g>
			</g>
			<g clip-path="url(#SVGID_1_)">
				<defs>
					<path id="SVGID_98_" d="M-286.086,124.062v185.66l167.417-0.154c0,0,0.042-70.814,0.05-101.812
						c-0.008-31.001-55.926-42.873-55.926-42.873s-11.591-38.794-42.854-40.821H-286.086z"/>
				</defs>
				<clipPath id="SVGID_13_">
					<use xlink:href="#SVGID_98_"  overflow="visible"/>
				</clipPath>
				<defs>
					
						<filter id="Adobe_OpacityMaskFilter_1_" filterUnits="userSpaceOnUse" x="-523.72" y="-128.673" width="642.734" height="642.735">
						<feColorMatrix  type="matrix" values="1 0 0 0 0  0 1 0 0 0  0 0 1 0 0  0 0 0 1 0"/>
					</filter>
				</defs>
				<mask maskUnits="userSpaceOnUse" x="-523.72" y="-128.673" width="642.734" height="642.735" id="SVGID_15_">
					<g filter="url(#Adobe_OpacityMaskFilter_1_)">
						<g enable-background="new    ">
							<g>
								<defs>
									<polygon id="SVGID_101_" points="-374.949,192.694 -202.356,43.923 -29.754,192.694 -202.356,341.47 									"/>
								</defs>
								<clipPath id="SVGID_17_" clip-path="url(#SVGID_13_)">
									<use xlink:href="#SVGID_101_"  overflow="visible"/>
								</clipPath>
								
									<linearGradient id="SVGID_18_" gradientUnits="userSpaceOnUse" x1="-3613.9277" y1="-4014.7734" x2="-3613.4004" y2="-4014.7734" gradientTransform="matrix(255.5374 -255.5374 255.5374 255.5374 1949129.75 102710.1484)">
									<stop  offset="0" style="stop-color:#181B16"/>
									<stop  offset="0.4854" style="stop-color:#181B16"/>
									<stop  offset="0.5292" style="stop-color:#22231F"/>
									<stop  offset="0.6046" style="stop-color:#393935"/>
									<stop  offset="0.7024" style="stop-color:#5F5E5D"/>
									<stop  offset="0.8176" style="stop-color:#A6A3A3"/>
									<stop  offset="0.9223" style="stop-color:#FFFFFF"/>
									<stop  offset="1" style="stop-color:#FFFFFF"/>
								</linearGradient>
								<polygon clip-path="url(#SVGID_17_)" fill="url(#SVGID_18_)" points="-202.356,514.062 119.015,192.694 -202.356,-128.673 
									-523.72,192.694 								"/>
							</g>
						</g>
					</g>
				</mask>
				<g clip-path="url(#SVGID_13_)" mask="url(#SVGID_15_)">
					<g>
						<defs>
							<rect id="SVGID_104_" x="-374.949" y="43.923" width="345.195" height="297.547"/>
						</defs>
						<clipPath id="SVGID_19_">
							<use xlink:href="#SVGID_104_"  overflow="visible"/>
						</clipPath>
						<g clip-path="url(#SVGID_19_)">
							<defs>
								<polygon id="SVGID_106_" points="-374.949,208.947 -202.356,43.923 -29.754,208.947 -202.356,341.47 								"/>
							</defs>
							<clipPath id="SVGID_20_">
								<use xlink:href="#SVGID_106_"  overflow="visible"/>
							</clipPath>
							
								<linearGradient id="SVGID_22_" gradientUnits="userSpaceOnUse" x1="-3613.8994" y1="-4014.834" x2="-3613.3721" y2="-4014.834" gradientTransform="matrix(255.5374 -255.5374 255.5374 255.5374 1949129.75 102740.9609)">
								<stop  offset="0" style="stop-color:#ECE384"/>
								<stop  offset="0.4854" style="stop-color:#ECE384"/>
								<stop  offset="0.5858" style="stop-color:#EBE07C"/>
								<stop  offset="0.7551" style="stop-color:#E8D766"/>
								<stop  offset="0.9223" style="stop-color:#E5CB46"/>
								<stop  offset="1" style="stop-color:#E5CB46"/>
							</linearGradient>
							<polygon clip-path="url(#SVGID_20_)" fill="url(#SVGID_22_)" points="-202.356,514.062 119.015,192.694 -202.356,-128.673 
								-523.72,192.694 							"/>
						</g>
					</g>
				</g>
			</g>
		</g>
	</g>
</g>
<g>
	<g>
		<g>
			<path fill="#7A6F56" d="M193.201,280.736c4.872,0,7.878,2.288,7.878,8.591c0,6.297-3.006,8.561-7.878,8.561h-3.593
				c-0.482,0-0.87-0.381-0.87-0.863v-15.422c0-0.481,0.388-0.866,0.87-0.866H193.201z M190.476,296.307h2.726
				c3.803,0,6.119-1.679,6.119-6.979c0-5.253-2.316-7.012-6.119-7.012h-2.726V296.307z"/>
			<path fill="#7A6F56" d="M205.104,297.888c-0.487,0-0.87-0.381-0.87-0.863v-15.422c0-0.481,0.383-0.866,0.87-0.866h8.173
				c0.44,0,0.792,0.359,0.792,0.79c0,0.435-0.352,0.789-0.792,0.789h-7.311v6.145h5.604c0.436,0,0.789,0.357,0.789,0.792
				s-0.354,0.79-0.789,0.79h-5.604v6.265h7.599c0.428,0,0.787,0.361,0.787,0.796c0,0.436-0.359,0.785-0.787,0.785H205.104z"/>
			<path fill="#7A6F56" d="M216.519,289.327c0-6.036,3.009-8.945,7.951-8.945c2.425,0,4.535,1.047,5.738,2.701
				c0.12,0.174,0.175,0.357,0.175,0.531c0,0.46-0.358,0.826-0.812,0.826c-0.233,0-0.462-0.087-0.664-0.341
				c-0.873-1.195-2.521-2.139-4.437-2.139c-3.934,0-6.165,2.372-6.165,7.366c0,5.301,2.231,7.341,6.165,7.341
				c1.686,0,3.436-0.658,4.437-2.091c0.177-0.254,0.458-0.33,0.664-0.33c0.454,0,0.812,0.354,0.812,0.812
				c0,0.202-0.055,0.339-0.157,0.488c-1.117,1.63-3.409,2.703-5.756,2.703C219.527,298.251,216.519,295.594,216.519,289.327z"/>
			<path fill="#7A6F56" d="M232.597,289.327c0-6.036,3.003-8.945,7.95-8.945c4.948,0,7.953,2.909,7.953,8.945
				c0,5.988-3.005,8.924-7.953,8.924C235.6,298.251,232.597,295.315,232.597,289.327z M234.374,289.327
				c0,4.969,2.273,7.341,6.173,7.341c3.9,0,6.164-2.372,6.164-7.341c0-4.994-2.264-7.366-6.164-7.366
				C236.647,281.961,234.374,284.333,234.374,289.327z"/>
			<path fill="#7A6F56" d="M253.384,297.228c0,0.485-0.378,0.872-0.863,0.872c-0.49,0-0.867-0.387-0.867-0.872v-15.625
				c0-0.481,0.377-0.866,0.867-0.866h5.072c2.831,0,4.864,2.143,4.864,4.874c0,2.615-1.806,4.735-4.559,4.862l4.67,6.224
				c0.114,0.151,0.181,0.354,0.181,0.531c0,0.485-0.39,0.872-0.867,0.872c-0.256,0-0.542-0.106-0.742-0.415l-5.179-7.212h-2.577
				V297.228z M253.384,288.897h4.265c1.78,0,3.055-1.456,3.055-3.287c0-1.893-1.297-3.295-3.136-3.295h-4.184V288.897z"/>
			<path fill="#7A6F56" d="M267.782,292.817l-1.859,4.668c-0.131,0.328-0.408,0.614-0.841,0.614c-0.483,0-0.857-0.415-0.857-0.872
				c0-0.101,0.016-0.281,0.068-0.38l6.22-15.727c0.125-0.31,0.358-0.587,0.812-0.587c0.438,0,0.715,0.277,0.843,0.587l6.224,15.727
				c0.05,0.13,0.07,0.302,0.07,0.38c0,0.457-0.354,0.872-0.888,0.872c-0.439,0-0.714-0.261-0.845-0.593l-1.833-4.689H267.782z
				 M271.325,283.44l-3.007,7.799h6.046L271.325,283.44z"/>
			<path fill="#7A6F56" d="M279.505,289.327c0-6.036,3.007-8.945,7.958-8.945c2.417,0,4.528,1.047,5.729,2.701
				c0.132,0.174,0.183,0.357,0.183,0.531c0,0.46-0.359,0.826-0.819,0.826c-0.232,0-0.456-0.087-0.664-0.341
				c-0.869-1.195-2.528-2.139-4.429-2.139c-3.928,0-6.173,2.372-6.173,7.366c0,5.301,2.245,7.341,6.173,7.341
				c1.675,0,3.435-0.658,4.429-2.091c0.181-0.254,0.464-0.33,0.664-0.33c0.46,0,0.819,0.354,0.819,0.812
				c0,0.202-0.051,0.339-0.153,0.488c-1.122,1.63-3.422,2.703-5.759,2.703C282.512,298.251,279.505,295.594,279.505,289.327z"/>
			<path fill="#7A6F56" d="M298.235,297.228c0,0.457-0.387,0.872-0.871,0.872c-0.479,0-0.865-0.415-0.865-0.872v-15.83
				c0-0.457,0.386-0.863,0.865-0.863c0.484,0,0.871,0.406,0.871,0.863V297.228z"/>
			<path fill="#7A6F56" d="M309.348,298.251c-4.947,0-7.953-2.936-7.953-8.924c0-6.036,3.006-8.945,7.953-8.945
				c4.944,0,7.953,2.909,7.953,8.945C317.301,295.315,314.292,298.251,309.348,298.251z M309.348,281.961
				c-3.901,0-6.164,2.372-6.164,7.366c0,4.969,2.263,7.341,6.164,7.341c3.896,0,6.164-2.372,6.164-7.341
				C315.512,284.333,313.244,281.961,309.348,281.961z M307.944,279.438c0.306,0.258,0.534,0.176,0.77-0.052l2.464-2.499
				c0.278-0.281,0.306-0.609-0.074-0.971c-0.409-0.352-0.768-0.25-0.968,0l-2.269,2.757
				C307.687,278.903,307.639,279.181,307.944,279.438z"/>
			<path fill="#7A6F56" d="M332.436,281.375v15.853c0,0.485-0.39,0.872-0.867,0.872c-0.308,0-0.536-0.132-0.717-0.361l-8.967-13.534
				v13.049c0,0.46-0.39,0.847-0.843,0.847c-0.461,0-0.841-0.387-0.841-0.847v-15.878c0-0.458,0.38-0.841,0.841-0.841
				c0.303,0,0.561,0.182,0.683,0.355l9.023,13.557v-13.071c0-0.458,0.381-0.841,0.842-0.841
				C332.046,280.534,332.436,280.917,332.436,281.375z"/>
			<path fill="#7A6F56" d="M344.045,297.228c0,0.457-0.379,0.872-0.862,0.872s-0.868-0.415-0.868-0.872v-15.83
				c0-0.457,0.385-0.863,0.868-0.863s0.862,0.406,0.862,0.863V297.228z"/>
			<path fill="#7A6F56" d="M360.099,281.375v15.853c0,0.485-0.376,0.872-0.863,0.872c-0.306,0-0.536-0.132-0.718-0.361
				l-8.963-13.534v13.049c0,0.46-0.391,0.847-0.844,0.847c-0.459,0-0.849-0.387-0.849-0.847v-15.878c0-0.458,0.39-0.841,0.849-0.841
				c0.301,0,0.563,0.182,0.685,0.355l9.022,13.557v-13.071c0-0.458,0.387-0.841,0.84-0.841
				C359.723,280.534,360.099,280.917,360.099,281.375z"/>
			<path fill="#7A6F56" d="M365.651,297.228c0,0.485-0.374,0.872-0.866,0.872c-0.485,0-0.86-0.387-0.86-0.872v-15.625
				c0-0.481,0.375-0.866,0.86-0.866h8.187c0.422,0,0.79,0.359,0.79,0.79c0,0.435-0.368,0.789-0.79,0.789h-7.32v6.349h5.609
				c0.436,0,0.789,0.356,0.789,0.788c0,0.435-0.354,0.791-0.789,0.791h-5.609V297.228z"/>
			<path fill="#7A6F56" d="M377.045,292.817l-1.861,4.668c-0.128,0.328-0.403,0.614-0.84,0.614c-0.485,0-0.867-0.415-0.867-0.872
				c0-0.101,0.026-0.281,0.075-0.38l6.219-15.727c0.135-0.31,0.357-0.587,0.822-0.587c0.43,0,0.71,0.277,0.829,0.587l6.227,15.727
				c0.056,0.13,0.077,0.302,0.077,0.38c0,0.457-0.354,0.872-0.886,0.872c-0.436,0-0.719-0.261-0.854-0.593l-1.827-4.689H377.045z
				 M380.593,283.44l-3.013,7.799h6.043L380.593,283.44z"/>
			<path fill="#7A6F56" d="M402.426,281.375v15.853c0,0.485-0.383,0.872-0.863,0.872c-0.312,0-0.542-0.132-0.713-0.361
				l-8.973-13.534v13.049c0,0.46-0.388,0.847-0.84,0.847c-0.464,0-0.848-0.387-0.848-0.847v-15.878c0-0.458,0.384-0.841,0.848-0.841
				c0.303,0,0.557,0.182,0.682,0.355l9.024,13.557v-13.071c0-0.458,0.38-0.841,0.842-0.841
				C402.043,280.534,402.426,280.917,402.426,281.375z"/>
			<path fill="#7A6F56" d="M405.635,282.368c-0.465,0-0.817-0.35-0.817-0.816c0-0.456,0.353-0.815,0.817-0.815h10.831
				c0.452,0,0.813,0.359,0.813,0.815c0,0.467-0.361,0.816-0.813,0.816h-4.539v14.859c0,0.485-0.381,0.872-0.865,0.872
				s-0.871-0.387-0.871-0.872v-14.859H405.635z"/>
			<path fill="#7A6F56" d="M421.686,297.228c0,0.457-0.38,0.872-0.864,0.872c-0.485,0-0.871-0.415-0.871-0.872v-15.83
				c0-0.457,0.386-0.863,0.871-0.863c0.484,0,0.864,0.406,0.864,0.863V297.228z"/>
			<path fill="#7A6F56" d="M434.478,296.26c0.46,0,0.816,0.354,0.816,0.819c0,0.459-0.356,0.809-0.816,0.809h-7.854
				c-0.48,0-0.868-0.381-0.868-0.863v-15.627c0-0.48,0.388-0.863,0.868-0.863c0.485,0,0.868,0.383,0.868,0.863v14.862H434.478z"/>
		</g>
	</g>
	<g>
		<g>
			<g>
				<g>
					<path fill="#7A6F56" d="M400.564,235.499c-1.144-0.291-1.512,0.881-1.818,1.751c-1.018,2.917-2.483,5.534-4.691,7.745
						c-1.686,1.682-3.511,3.045-6.002,2.318c-2.527-0.729-3.096-3.036-3.798-5.227c-1.26-3.924,0.379-7.85-0.123-11.828
						c-0.355-2.821-1.023-4.326-3.888-4.535c-1.755-0.135-3.416,0.18-5.019,0.911c-6.011,2.729-9.388,7.802-12.062,13.492
						c-1.473,3.126-3.136,6.15-5.743,8.468c-2.598,2.311-5.742,1.213-6.613-2.107c-0.365-1.385-0.343-2.789-0.436-4.185
						c-0.115-1.794-0.158-3.604-0.44-5.378c-0.72-4.416-3.4-5.666-7.448-3.682c-2.883,1.424-4.88,3.859-7.504,6.247
						c0-2.817,0.064-5.284-0.01-7.761c-0.082-2.91-1.309-4.876-2.825-4.767c-1.833,0.129-2.455,1.925-2.018,5.169
						c0.734,5.488,1.018,10.797-5.007,13.961c-2.787,1.468-4.919,1.566-6.868-0.291c-2.089-2.008-2.453-4.582-1.036-7.189
						c1.064-1.941,1.899-3.979,1.704-6.236c-0.092-0.971-0.293-2.072-1.495-2.433c-1.08-0.327-1.772,0.363-2.452,1.005
						c-1.783,1.662-2.084,3.93-2.55,6.154c-0.326,1.588,0.174,3.426-0.867,4.753c-2.107,2.646-4.537,4.987-7.735,6.321
						c-1.971,0.824-4.761-0.205-5.272-2.065c-0.38-1.325-0.605-2.718-0.437-4.16c0.396-3.458,1.312-6.703,3.025-9.75
						c0.672-1.21,1.205-2.831-0.569-3.655c-1.779-0.82-2.508,0.613-3.14,1.916c-1.21,2.549-2.224,5.211-2.656,7.98
						c-0.66,4.247-1.174,8.568,2.01,12.492c-7.499,1.041-16.462-0.264-23.125-3.234c-1.065-0.484-1.523-0.906-1.185-2.264
						c1.535-6.055,2.648-12.196,3.503-18.383c0.643-4.744,0.801-4.809,5.491-4.951c0.627-0.016,1.256-0.014,1.876-0.076
						c7.932-0.84,15.094-3.395,20.583-9.465c5.495-6.065,5.34-13.816-0.252-19.307c-5.301-5.21-12.727-5.004-18.682,0.495
						c-2.383,2.198-4.276,4.763-5.808,7.604c-2.525,4.724-4.094,9.787-5.229,14.993c-0.193,0.948-0.181,2.059-1.805,1.769
						c-6.313-1.14-12.264-3.193-17.346-7.221c-3.993-3.172-6.925-6.965-6.707-12.485c0.066-1.765,0.787-2.446,2.437-2.239
						c1.621,0.186,3.229,0.487,4.856,0.633c0.849,0.077,1.859,0.066,2.097-1.027c0.224-1.045-0.652-1.5-1.4-1.912
						c-2.586-1.395-5.362-1.75-8.185-1.187c-2.796,0.55-4.366,2.706-4.259,5.644c0.19,4.88,1.796,9.209,5.412,12.594
						c5.405,5.059,11.653,8.58,18.972,10.135c4.638,0.987,4.708,1.088,4.054,5.678c-0.813,5.718-1.476,11.454-2.863,17.082
						c-0.435,1.742-0.999,2.538-3.039,1.654c-4.079-1.779-8.26-3.316-12.436-4.85c-4.035-1.479-8.049-3.099-12.438-3.088
						c-5.24,0.02-7.656,3.774-5.544,8.545c2.816,6.39,8.052,10.057,14.34,12.324c8.046,2.895,15.09,0.914,19.373-5.352
						c1.023-1.488,1.852-1.753,3.562-1.297c8.183,2.216,16.483,3.774,24.977,2.207c5.343-0.977,10.582-2.336,13.687-7.541
						c0.969-1.597,1.619-0.531,2.305,0.467c2.877,4.157,7.148,5.309,11.436,3.075c0.947-0.5,1.799-1.179,2.854-1.867
						c0.02,1.237,0.271,2.292,1.477,2.508c1.111,0.195,1.634-0.809,2.18-1.522c1.428-1.857,2.751-3.798,4.156-5.668
						c1.894-2.499,3.766-5.03,6.519-6.67c1.935-1.166,2.93-0.708,3.184,1.521c0.297,2.553,0.325,5.143,0.553,7.707
						c0.287,3.25,1.677,5.909,4.746,7.279c3.234,1.444,5.923,0.187,8.242-2.164c0.542-0.557,1.125-1.092,1.614-1.697
						c0.803-0.986,1.258-1.416,1.99,0.191c0.987,2.156,2.88,3.413,5.216,4.018c3.671,0.945,8.316-1.13,11.281-5.119
						c0.57-0.771,1.1-1.572,1.694-2.439c4.278,6.259,9.755,6.729,15.024,1.564c2.713-2.665,4.269-5.916,5.128-9.561
						C401.562,236.968,401.871,235.835,400.564,235.499z M278.488,215.245c1.312-5.572,3.058-10.976,6.443-15.72
						c1.048-1.464,2.262-2.79,3.633-3.954c3.456-2.917,7.464-3.328,10.8-1.145c3.476,2.271,5.229,7.145,3.886,11.163
						c-1.245,3.762-3.568,6.716-6.919,8.866c-4.605,2.959-9.706,4.18-14.763,4.279C277.072,218.615,277.589,219.062,278.488,215.245
						z M266.341,251.638c-1.954,2.959-4.402,5.043-8.543,5.125c-7.863-0.912-14.154-4.918-18.396-12.033
						c-0.981-1.645-0.186-2.723,1.787-2.578c3.052,0.23,6.017,1.009,8.911,1.93c5.129,1.635,10.213,3.441,15.349,5.066
						C267.066,249.664,267.212,250.318,266.341,251.638z M380.529,231.361c-1.419,2.129-1.014,4.508-0.759,6.82
						c0.474,4.185-2.511,9.725-6.258,11.465c-4.092,1.896-7.735-0.409-7.634-4.842c0.121-5.601,6.201-13.614,11.471-15.093
						c0.92-0.254,1.839-0.27,2.717,0.205C380.704,230.259,381.035,230.613,380.529,231.361z"/>
				</g>
				<g>
					<path fill="#7A6F56" d="M186.429,232.87c-1.271-0.791-1.687,0.665-2.208,1.396c-3.291,4.646-7.877,7.748-12.532,10.799
						c-0.973,0.633-1.272,0.269-1.615-0.682c-0.851-2.398-0.999-4.723,0.274-7.02c1.365-2.464,1.608-5.186,1.783-7.78
						c-0.122-1.659,0.354-3.642-1.605-4.13c-2.079-0.52-2.69,1.471-3.371,2.92c-1.303,2.722-1.824,5.623-1.659,8.654
						c0.05,0.916,0.259,1.933-0.351,2.74c-2.535,3.346-5.573,5.971-10.006,6.192c-3.117,0.15-4.364-1.089-4.176-4.173
						c0.272-4.447,2.343-8.2,4.928-11.69c0.713-0.952,1.35-1.94,0.336-2.872c-1.102-1.011-2.055-0.063-2.797,0.727
						c-1.698,1.787-2.737,3.986-3.77,6.172c-1.809,3.801-3.846,5.049-7.986,4.95c-1.372-0.034-1.909-0.283-1.635-1.896
						c0.486-2.831,0.105-5.65-1.652-8.052c-1.222-1.666-2.91-2.228-4.974-1.601c-1.989,0.604-2.933,1.917-3.044,3.947
						c-0.146,3.006,0.922,5.505,3.064,7.567c2.58,2.479,2.611,2.658,0.351,5.556c-0.433,0.558-0.907,1.077-1.399,1.581
						c-2.316,2.344-4.215,2.934-6.21,1.936c-1.862-0.941-4.21-5.447-3.564-7.461c0.942-2.974,1.716-5.881,4.224-8.332
						c5.99-5.846,10.542-12.754,12.702-21.012c0.836-3.23,1.08-6.48-0.236-9.658c-1.684-4.064-5.287-4.928-8.61-2.099
						c-1.942,1.643-3.328,3.718-4.453,5.979c-1.611,3.217-2.836,6.592-4.006,9.992c-2.584,7.517-4.263,15.231-3.832,23.201
						c0.137,2.357-0.539,3.798-2.073,5.268c-4.057,3.896-7.771,2.908-9.422-2.451c-1.31-4.238,0.071-8.475-0.165-12.727
						c-0.112-1.987-0.68-3.099-2.236-3.863c-2.041-0.994-4.15-0.648-6.126,0.237c-7.751,3.466-12.153,9.757-13.778,17.796
						c-1.337,6.663,5.018,11.418,11.368,8.948c2.97-1.16,5.109-3.243,6.774-5.899c0.388-0.631,0.865-1.664,1.555-0.255
						c2.708,5.537,9.991,4.978,13.616,1.261c1.245-1.264,1.804-1.043,2.234,0.553c1.352,4.943,6.556,5.639,10.065,4.082
						c2.502-1.096,4.771-2.678,6.025-5.037c1.654-3.123,3.504-5.316,7.433-4.564c0.558,0.098,1.262-0.148,1.813-0.402
						c1.597-0.744,1.76,0,1.776,1.402c0.057,4.851,3.266,7.289,8.099,6.289c3.117-0.646,5.857-2.118,8.439-3.934
						c2.174-1.531,2.491-1.349,2.959,1.326c0.174,0.947-0.241,1.287-0.873,1.648c-1.158,0.65-2.326,1.287-3.467,1.965
						c-6.779,4.053-12.459,9.231-15.883,16.454c-3.12,6.594-0.292,13.582,6.197,15.748c4.78,1.59,9.679,1.718,14.544,0.404
						c4.067-1.11,6.896-3.586,7.88-7.834c0.574-2.446,0.789-4.913,0.578-7.437c-0.442-5.322-1.548-10.521-3.278-15.539
						c-0.862-2.517-0.302-3.676,1.874-4.995c4.771-2.911,8.824-6.698,12.167-11.206C187.233,234.976,187.729,233.677,186.429,232.87
						z M102.512,230.884c-0.666,2.08-0.307,4.174-0.232,6.269c0.119,4.015-1.48,7.296-4.32,9.968
						c-1.506,1.424-3.361,2.312-5.538,1.924c-2.746-0.495-4.193-2.291-4.198-5.082c-0.035-5.571,6.568-14.234,11.872-15.603
						c1.081-0.279,2.044,0,2.87,0.613C104.047,229.794,102.703,230.272,102.512,230.884z M128.951,207.38
						c0.74-1.748,1.659-3.354,3.129-4.599c1.485-1.268,2.684-1.036,3.414,0.769c0.639,1.562,0.662,3.229,0.397,4.852
						c-1.595,9.65-6.684,17.341-13.827,24.573C123.309,223.74,125.551,215.409,128.951,207.38z M137.188,237.152
						c-1.865-1.312-3.201-2.592-3.106-4.801c0.034-0.64,0.063-1.372,0.729-1.598c0.832-0.292,1.267,0.472,1.605,1.05
						C137.305,233.384,137.592,235.081,137.188,237.152z M172.243,270.099c0,0.777,0.036,1.563-0.01,2.343
						c-0.262,4.758-2.703,7.536-7.421,8.15c-3.68,0.479-7.329,0.046-10.777-1.417c-3.805-1.602-5.44-4.822-4.571-8.918
						c1.06-4.982,4.216-8.616,7.79-11.954c2.802-2.628,6.042-4.65,9.343-6.611c0.985-0.598,1.468-0.503,1.837,0.654
						C170.279,258.147,172.121,263.936,172.243,270.099z"/>
					<path fill="#7A6F56" d="M89.469,206.446c1.886-3.879,1.042-7.518-2.305-10.242c-1.471-1.195-3.076-2.164-4.841-2.827
						c-4.067-1.54-8.347-2.028-12.628-2.267c-12.263-0.674-24.327,0.707-36.248,3.561c-7.685,1.838-15.357,3.672-22.287,7.663
						c-1.17,0.668-2.318,1.331-2.946,2.59c-0.839,1.695-0.282,3.392,1.34,4.146c1.93,0.886,4.039,0.46,4.371-1.151
						c0.425-2.037,1.836-3.007,3.345-3.982c3.811-2.451,8.129-3.573,12.434-4.732c13.554-3.633,27.257-6.209,41.4-4.843
						c3.693,0.354,7.29,1.089,10.589,2.774c4.717,2.415,5.587,6.152,2.577,10.395c-0.625,0.889-1.357,1.74-2.149,2.477
						c-4.499,4.202-10.192,6.293-15.708,8.682c-0.395,0.177-0.925,0.123-1.383,0.082c-7.449-0.558-14.833-0.212-22.121,1.432
						c-1.542,0.352-1.856-0.108-1.757-1.57c0.379-5.93,0.649-11.859,1.004-17.787c0.069-1.27-0.134-2.714-1.433-2.801
						c-1.285-0.088-1.678,1.41-1.803,2.593c-0.651,6.286-1.288,12.573-1.844,18.876c-0.123,1.328-0.386,2.258-1.614,3.072
						c-1.961,1.293-2.529,3.851-1.044,4.741c1.882,1.124,1.816,2.715,1.898,4.353c0.144,2.809,0.083,5.631,0.228,8.438
						c0.181,3.432,0.433,6.858,0.768,10.27c0.114,1.179,0.583,2.5,2.061,2.403c1.562-0.101,1.886-1.407,1.897-2.763
						c0.014-1.193,0-2.382,0-3.822c4.328,4.383,5.611,5.459,9.352,6.041c12.772,2.012,20.515-0.729,27.861-10.76
						c2.123-2.896,2.881-6.25,2.346-9.779c-0.848-5.55-3.652-9.669-9.462-11.669c4.874-1.817,9.048-4.314,12.944-7.306
						C86.514,211.038,88.25,208.956,89.469,206.446z M53.412,222.904c-3.664,1.315-7.354,2.438-11.315,2.233
						C45.598,223.14,49.57,223.28,53.412,222.904z M76.549,235.242c-0.64,5.493-4.73,9.979-10.845,12.778
						c-3.862,1.771-8.03,2.049-12.162,1.155c-2.403-0.522-4.529-1.56-5.584-4.13c-0.772-1.906-3.282-2.627-5.674-1.572
						c-1.165,0.516-1.35,0.234-1.391-0.773c-0.158-4.137-0.3-8.275-0.477-12.406c-0.047-1.183,0.477-1.562,1.632-1.732
						c6.888-1.04,13.578-2.903,20.168-5.113C69.908,220.866,76.57,225.618,76.549,235.242z"/>
				</g>
			</g>
		</g>
	</g>
	<path fill-rule="evenodd" clip-rule="evenodd" fill="#838580" d="M220.351,197.076c-3.271,3.98-5.645,8.231-6.844,13.064
		c-2.938,11.851,2.002,24.687,12.325,31.449c1.006,0.656,2.854,1.153,2.694,2.235c-0.194,1.246-2.103,1.325-3.318,1.766
		c-14.05,5.18-29.498-3.225-33.042-18.053c-3.131-13.111,5.216-26.648,17.649-29.889
		C213.235,196.763,216.597,196.297,220.351,197.076z"/>
</g>
</svg>
