<?xml version="1.0" encoding="utf-8"?>
<!-- Generator: Adobe Illustrator 16.0.0, SVG Export Plug-In . SVG Version: 6.00 Build 0)  -->
<!DOCTYPE svg PUBLIC "-//W3C//DTD SVG 1.1//EN" "http://www.w3.org/Graphics/SVG/1.1/DTD/svg11.dtd">
<svg version="1.1" id="Capa_1" xmlns="http://www.w3.org/2000/svg" xmlns:xlink="http://www.w3.org/1999/xlink" x="0px" y="0px"
	 width="450px" height="450px" viewBox="0 0 450 450" enable-background="new 0 0 450 450" xml:space="preserve">
<g>
	<g>
		<g>
			<defs>
				<rect id="SVGID_74_" x="-527.563" y="-383.006" width="408.996" height="185.66"/>
			</defs>
			<clipPath id="SVGID_1_">
				<use xlink:href="#SVGID_74_"  overflow="visible"/>
			</clipPath>
			<g clip-path="url(#SVGID_1_)">
				<defs>
					<path id="SVGID_98_" d="M-286.086-383.006v185.66l167.417-0.154c0,0,0.042-70.814,0.05-101.812
						c-0.008-31.001-55.926-42.873-55.926-42.873s-11.591-38.794-42.854-40.821H-286.086z"/>
				</defs>
				<clipPath id="SVGID_2_">
					<use xlink:href="#SVGID_98_"  overflow="visible"/>
				</clipPath>
				<defs>
					<filter id="Adobe_OpacityMaskFilter" filterUnits="userSpaceOnUse" x="-523.72" y="-635.74" width="642.734" height="642.735">
						<feColorMatrix  type="matrix" values="1 0 0 0 0  0 1 0 0 0  0 0 1 0 0  0 0 0 1 0"/>
					</filter>
				</defs>
				<mask maskUnits="userSpaceOnUse" x="-523.72" y="-635.74" width="642.734" height="642.735" id="SVGID_4_">
					<g filter="url(#Adobe_OpacityMaskFilter)">
						<g enable-background="new    ">
							<g>
								<defs>
									<polygon id="SVGID_101_" points="-374.949,-314.373 -202.356,-463.145 -29.754,-314.373 -202.356,-165.598 									"/>
								</defs>
								<clipPath id="SVGID_6_" clip-path="url(#SVGID_2_)">
									<use xlink:href="#SVGID_101_"  overflow="visible"/>
								</clipPath>
								
									<linearGradient id="SVGID_8_" gradientUnits="userSpaceOnUse" x1="-3613.9277" y1="-4521.8408" x2="-3613.4004" y2="-4521.8408" gradientTransform="matrix(255.5374 -255.5374 255.5374 255.5374 2078704.5 231777.8281)">
									<stop  offset="0" style="stop-color:#181B16"/>
									<stop  offset="0.4854" style="stop-color:#181B16"/>
									<stop  offset="0.5292" style="stop-color:#22231F"/>
									<stop  offset="0.6046" style="stop-color:#393935"/>
									<stop  offset="0.7024" style="stop-color:#5F5E5D"/>
									<stop  offset="0.8176" style="stop-color:#A6A3A3"/>
									<stop  offset="0.9223" style="stop-color:#FFFFFF"/>
									<stop  offset="1" style="stop-color:#FFFFFF"/>
								</linearGradient>
								<polygon clip-path="url(#SVGID_6_)" fill="url(#SVGID_8_)" points="-202.356,6.995 119.015,-314.373 -202.356,-635.74 
									-523.72,-314.373 								"/>
							</g>
						</g>
					</g>
				</mask>
				<g clip-path="url(#SVGID_2_)" mask="url(#SVGID_4_)">
					<g>
						<defs>
							<rect id="SVGID_104_" x="-374.949" y="-463.145" width="345.195" height="297.547"/>
						</defs>
						<clipPath id="SVGID_9_">
							<use xlink:href="#SVGID_104_"  overflow="visible"/>
						</clipPath>
						<g clip-path="url(#SVGID_9_)">
							<defs>
								<polygon id="SVGID_106_" points="-374.949,-298.12 -202.356,-463.145 -29.754,-298.12 -202.356,-165.598 								"/>
							</defs>
							<clipPath id="SVGID_10_">
								<use xlink:href="#SVGID_106_"  overflow="visible"/>
							</clipPath>
							
								<linearGradient id="SVGID_11_" gradientUnits="userSpaceOnUse" x1="-3613.8994" y1="-4521.9014" x2="-3613.3721" y2="-4521.9014" gradientTransform="matrix(255.5374 -255.5374 255.5374 255.5374 2078704.5 231808.6406)">
								<stop  offset="0" style="stop-color:#ECE384"/>
								<stop  offset="0.4854" style="stop-color:#ECE384"/>
								<stop  offset="0.5858" style="stop-color:#EBE07C"/>
								<stop  offset="0.7551" style="stop-color:#E8D766"/>
								<stop  offset="0.9223" style="stop-color:#E5CB46"/>
								<stop  offset="1" style="stop-color:#E5CB46"/>
							</linearGradient>
							<polygon clip-path="url(#SVGID_10_)" fill="url(#SVGID_11_)" points="-202.356,6.995 119.015,-314.373 -202.356,-635.74 
								-523.72,-314.373 							"/>
						</g>
					</g>
				</g>
			</g>
		</g>
	</g>
</g>
<g>
	<g>
		<path fill="#9A999E" d="M117.304,226.677c-0.699-0.624-1.427-1.207-2.211-1.714c-15.301-10.031-27.537-12.289-54.367-17.258
			l-0.989-0.188c-30.415-5.636-33.938-18.787-33.938-28.185c0-5.344,2.417-10.522,6.807-14.585
			c7.983-7.39,21.628-10.759,38.409-9.464c31.8,2.445,43.463,11.506,43.004,33.421l7.669,0.161c0.286-13.562-3.67-23.386-12.071-30
			c-7.973-6.275-20.055-9.846-38.004-11.232c-18.946-1.455-34.643,2.625-44.212,11.488c-5.982,5.525-9.271,12.71-9.271,20.211
			c0,19.033,13.151,30.717,40.217,35.733l0.982,0.184c26.562,4.912,37.558,6.952,51.563,16.124
			c5.107,3.355,8.812,12.104,6.171,20.948c-4.1,13.729-21.149,21.612-46.773,21.612c-19.523,0-33.473-4.743-41.448-14.074
			c-9.249-10.833-7.203-24.548-7.182-24.684l-3.777-0.619l3.777,0.633l-3.777-0.633l-3.796-0.619
			c-0.115,0.698-2.684,17.215,8.841,30.802c9.492,11.197,25.425,16.865,47.362,16.865c15.713,0,28.474-2.692,37.94-8.011
			c7.29-4.102,12.498-9.729,15.236-16.4c-4.128-7.263-6.515-15.688-6.515-24.684C116.951,230.544,117.084,228.588,117.304,226.677z"
			/>
		<path fill="#9A999E" d="M165.53,183.295h-0.501c-24.571,0-44.896,18.982-47.726,43.382c3.044,2.675,5.335,6.295,6.723,10.364
			c-0.156-1.49-0.244-3.004-0.244-4.531c0-23.321,18.496-42.315,41.247-42.315h0.501c22.744,0,41.25,18.994,41.25,42.315
			c0,23.334-18.506,42.324-41.25,42.324h-0.501c-18.655,0-34.43-12.774-39.519-30.223c0.199,3.288-0.13,6.662-1.101,9.91
			c-0.275,0.909-0.589,1.791-0.944,2.672c8.324,14.662,23.837,24.537,41.563,24.537h0.501c26.504,0,48.076-22.073,48.076-49.221
			C213.606,205.374,192.034,183.295,165.53,183.295z"/>
		<path fill="#B42C61" d="M125.511,244.611c-0.711-2.445-1.211-4.967-1.484-7.57c-1.388-4.069-3.679-7.689-6.723-10.364
			c-0.22,1.911-0.353,3.867-0.353,5.833c0,8.996,2.387,17.421,6.515,24.684c0.355-0.881,0.669-1.763,0.944-2.672
			C125.381,251.273,125.71,247.899,125.511,244.611z"/>
		<rect x="215.391" y="185.466" fill="#9A999E" width="6.91" height="93.838"/>
		<path fill="#9A999E" d="M350.907,233.918h86.602l-0.114-3.562c-0.896-26.822-21.37-47.829-46.628-47.829h-0.487
			c-19.337,0-35.938,12.564-43.016,30.418c2.079,5.371,3.33,11.224,3.526,17.411L350.907,233.918z M390.279,189.435h0.487
			c20.395,0,37.127,16.229,39.469,37.58h-79.419C353.163,205.871,369.978,189.435,390.279,189.435z"/>
		<path fill="#9A999E" d="M390.767,274.834h-0.487c-21.354,0-38.843-18.194-39.718-40.916h-6.889
			c0.889,26.528,21.45,47.812,46.606,47.812h0.487c18.35,0,35.062-11.491,42.579-29.29l-6.366-2.69
			C420.549,264.98,406.336,274.834,390.767,274.834z"/>
		<path fill="#9A999E" d="M347.264,212.945c-6.969-17.976-23.421-30.418-42.698-30.418h-0.48c-25.501,0-46.248,22.252-46.248,49.605
			c0,27.348,20.747,49.598,46.248,49.598h0.48c18.188,0,34.764-11.491,42.218-29.29l-6.309-2.69
			c-6.386,15.23-20.472,25.084-35.909,25.084h-0.48c-21.174,0-38.5-18.194-39.369-40.916h78.957
			c-0.021-0.598-0.059-1.191-0.059-1.785C343.614,225.325,344.919,218.848,347.264,212.945z M304.085,189.435h0.48
			c20.219,0,36.816,16.229,39.145,37.58h-78.746C267.301,205.871,283.954,189.435,304.085,189.435z"/>
		<path fill="#7FACA0" d="M350.907,233.918l-0.117-3.562c-0.196-6.188-1.447-12.04-3.526-17.411
			c-2.345,5.902-3.649,12.38-3.649,19.188c0,0.594,0.037,1.188,0.059,1.785h6.889H350.907z"/>
		<path fill="#9A999E" d="M274.821,184.155c-14.744,0-26.346,4.408-34.485,13.108c-2.244,2.388-4.068,4.952-5.569,7.581v-19.379
			h-6.841v93.838h6.841V232.33l0.127-0.007c-0.018-0.181-0.84-18.342,10.453-30.37c6.805-7.229,16.711-10.891,29.475-10.891V184.155
			z"/>
		<path fill="#DBDC4C" d="M219.103,166.89c-1.916,0-3.449-1.538-3.449-3.446v-10.732c0-1.912,1.533-3.465,3.449-3.465
			c1.899,0,3.445,1.553,3.445,3.465v10.732C222.548,165.352,221.002,166.89,219.103,166.89z"/>
		<path fill="#9A999E" d="M293.537,180.151c-0.852,0-1.716-0.311-2.379-0.959c-1.379-1.325-1.419-3.505-0.099-4.884l21.829-22.685
			c1.311-1.377,3.501-1.419,4.869-0.091c1.382,1.315,1.421,3.498,0.101,4.885l-21.829,22.674
			C295.354,179.798,294.451,180.151,293.537,180.151z"/>
	</g>
	<g>
		<g>
			<g>
				<path fill="#F4F1EC" d="M12.859,301.859h5.835c1.991,0,3.517,0.705,4.613,2.132c0.969,1.285,1.465,2.935,1.465,4.94
					c0,1.542-0.295,2.945-0.881,4.196c-1,2.21-2.75,3.319-5.218,3.319h-5.814V301.859z M18.308,314.755
					c0.65,0,1.193-0.072,1.615-0.202c0.747-0.262,1.359-0.749,1.842-1.488c0.381-0.604,0.656-1.357,0.825-2.27
					c0.106-0.559,0.146-1.057,0.146-1.532c0-1.804-0.348-3.213-1.047-4.21c-0.713-0.998-1.838-1.502-3.395-1.502h-3.431v11.204
					H18.308z"/>
				<path fill="#F4F1EC" d="M30.882,301.859h1.832v2.027h-1.832V301.859z M30.882,305.849h1.832v10.599h-1.832V305.849z"/>
				<path fill="#F4F1EC" d="M40.132,313.109c0.058,0.591,0.212,1.059,0.453,1.368c0.458,0.583,1.261,0.86,2.392,0.86
					c0.681,0,1.286-0.133,1.786-0.428c0.51-0.284,0.77-0.728,0.77-1.325c0-0.468-0.201-0.808-0.607-1.048
					c-0.277-0.144-0.78-0.317-1.564-0.516l-1.437-0.355c-0.92-0.221-1.601-0.473-2.042-0.75c-0.79-0.486-1.178-1.149-1.178-2.006
					c0-1.005,0.374-1.822,1.106-2.445c0.737-0.62,1.727-0.939,2.967-0.939c1.615,0,2.794,0.471,3.517,1.41
					c0.455,0.599,0.665,1.246,0.654,1.943h-1.688c-0.033-0.408-0.188-0.787-0.444-1.106c-0.424-0.466-1.146-0.707-2.18-0.707
					c-0.697,0-1.213,0.134-1.572,0.394c-0.354,0.264-0.541,0.595-0.541,1.015c0,0.466,0.239,0.833,0.708,1.106
					c0.268,0.18,0.668,0.316,1.199,0.442l1.192,0.289c1.319,0.306,2.196,0.611,2.643,0.9c0.693,0.454,1.036,1.182,1.036,2.159
					c0,0.944-0.363,1.763-1.085,2.443c-0.734,0.691-1.841,1.044-3.336,1.044c-1.592,0-2.729-0.367-3.388-1.077
					c-0.674-0.721-1.029-1.613-1.08-2.672H40.132z"/>
				<path fill="#F4F1EC" d="M59.476,306.101c0.708,0.353,1.238,0.814,1.602,1.383c0.365,0.537,0.596,1.156,0.716,1.878
					c0.104,0.479,0.155,1.268,0.155,2.336h-7.734c0.037,1.08,0.293,1.953,0.759,2.604c0.474,0.656,1.212,0.984,2.193,0.984
					c0.925,0,1.679-0.311,2.225-0.924c0.31-0.367,0.517-0.776,0.655-1.252h1.758c-0.051,0.393-0.207,0.824-0.465,1.307
					c-0.262,0.479-0.547,0.879-0.872,1.178c-0.546,0.53-1.201,0.875-2.001,1.074c-0.436,0.107-0.911,0.15-1.445,0.15
					c-1.318,0-2.438-0.476-3.357-1.433c-0.911-0.97-1.369-2.321-1.369-4.056c0-1.715,0.458-3.094,1.383-4.159
					c0.92-1.07,2.133-1.599,3.611-1.599C58.046,305.572,58.768,305.748,59.476,306.101z M60.111,310.278
					c-0.065-0.778-0.228-1.394-0.495-1.861c-0.496-0.858-1.299-1.293-2.438-1.293c-0.819,0-1.495,0.307-2.043,0.896
					c-0.561,0.598-0.85,1.347-0.885,2.258H60.111z"/>
				<path fill="#F4F1EC" d="M67.873,305.809h1.706v1.521c0.505-0.623,1.025-1.07,1.604-1.355c0.555-0.267,1.182-0.402,1.869-0.402
					c1.508,0,2.534,0.514,3.065,1.577c0.283,0.573,0.439,1.404,0.439,2.466v6.832h-1.821v-6.706c0-0.644-0.099-1.163-0.295-1.573
					c-0.315-0.655-0.891-0.997-1.729-0.997c-0.425,0-0.771,0.054-1.037,0.14c-0.492,0.148-0.928,0.437-1.302,0.871
					c-0.29,0.354-0.482,0.707-0.576,1.089c-0.084,0.374-0.132,0.907-0.132,1.595v5.582h-1.793V305.809z M73.136,302.504
					c0.18,0.086,0.352,0.15,0.505,0.205c0.151,0.036,0.306,0.051,0.467,0.051c0.364,0,0.629-0.105,0.796-0.332
					c0.083-0.134,0.138-0.324,0.179-0.568h1.036c-0.137,0.835-0.406,1.418-0.791,1.738c-0.393,0.32-0.834,0.469-1.297,0.469
					c-0.153,0-0.339-0.025-0.566-0.075c-0.218-0.055-0.418-0.104-0.586-0.17l-0.523-0.19c-0.318-0.115-0.567-0.201-0.773-0.256
					c-0.186-0.065-0.376-0.083-0.566-0.083c-0.23,0-0.426,0.068-0.577,0.224c-0.144,0.15-0.239,0.381-0.294,0.69h-0.975
					c0.09-0.519,0.227-0.942,0.426-1.28c0.381-0.613,0.934-0.916,1.689-0.916c0.22,0,0.466,0.043,0.74,0.108
					C72.302,302.187,72.665,302.305,73.136,302.504z"/>
				<path fill="#F4F1EC" d="M90.562,306.875c0.94,0.908,1.415,2.258,1.415,4.026c0,1.711-0.419,3.126-1.258,4.254
					c-0.808,1.109-2.104,1.663-3.844,1.663c-1.456,0-2.613-0.49-3.468-1.48c-0.858-0.986-1.282-2.319-1.282-3.973
					c0-1.801,0.457-3.215,1.363-4.277c0.896-1.055,2.108-1.585,3.619-1.585C88.476,305.503,89.617,305.953,90.562,306.875z
					 M89.452,313.934c0.433-0.892,0.656-1.887,0.656-2.988c0-0.99-0.162-1.798-0.473-2.413c-0.498-0.987-1.36-1.467-2.568-1.467
					c-1.083,0-1.875,0.403-2.362,1.242c-0.492,0.836-0.741,1.841-0.741,3.02c0,1.127,0.249,2.077,0.741,2.819
					c0.487,0.764,1.269,1.139,2.335,1.139C88.217,315.285,89.014,314.834,89.452,313.934z"/>
			</g>
		</g>
		<g>
			<path fill="#DBDC4C" d="M132.239,301.78h1.975v12.849h7.316v1.743h-9.291V301.78z"/>
			<path fill="#DBDC4C" d="M154.685,306.8c0.937,0.923,1.408,2.251,1.408,4.026c0,1.711-0.416,3.126-1.244,4.242
				c-0.834,1.121-2.112,1.682-3.859,1.682c-1.44,0-2.612-0.498-3.453-1.488c-0.856-0.982-1.283-2.308-1.283-3.979
				c0-1.785,0.445-3.213,1.35-4.278c0.901-1.052,2.103-1.569,3.63-1.569C152.585,305.436,153.747,305.889,154.685,306.8z
				 M153.576,313.861c0.428-0.893,0.653-1.897,0.653-2.996c0-0.986-0.16-1.793-0.473-2.416c-0.498-0.98-1.357-1.463-2.582-1.463
				c-1.071,0-1.852,0.419-2.36,1.25c-0.478,0.836-0.728,1.834-0.728,3.018c0,1.127,0.25,2.071,0.728,2.824
				c0.509,0.756,1.283,1.127,2.35,1.127C152.331,315.205,153.134,314.762,153.576,313.861z"/>
			<path fill="#DBDC4C" d="M167.864,306.162c0.339,0.234,0.688,0.565,1.029,1.009v-1.333h1.651v9.67c0,1.351-0.21,2.409-0.604,3.202
				c-0.734,1.433-2.124,2.157-4.182,2.157c-1.141,0-2.103-0.252-2.874-0.771c-0.785-0.509-1.223-1.312-1.315-2.402h1.826
				c0.08,0.478,0.25,0.842,0.51,1.105c0.4,0.388,1.031,0.594,1.888,0.594c1.371,0,2.265-0.486,2.685-1.458
				c0.254-0.559,0.362-1.585,0.347-3.043c-0.353,0.543-0.787,0.939-1.289,1.206c-0.498,0.273-1.159,0.403-1.986,0.403
				c-1.155,0-2.153-0.415-3.018-1.221c-0.856-0.825-1.291-2.179-1.291-4.066c0-1.775,0.435-3.173,1.31-4.163
				c0.867-1.013,1.91-1.506,3.137-1.506C166.515,305.546,167.249,305.748,167.864,306.162z M168.087,308.082
				c-0.552-0.641-1.236-0.958-2.068-0.958c-1.252,0-2.113,0.599-2.572,1.765c-0.235,0.63-0.368,1.455-0.368,2.48
				c0,1.192,0.252,2.107,0.718,2.734c0.502,0.629,1.146,0.936,1.963,0.936c1.278,0,2.182-0.576,2.696-1.732
				c0.295-0.659,0.438-1.422,0.438-2.297C168.894,309.695,168.622,308.713,168.087,308.082z"/>
			<path fill="#DBDC4C" d="M180.659,301.459l-2.646,2.862h-1.377l1.824-2.862H180.659z M177.489,305.777h1.816v10.595h-1.816
				V305.777z"/>
			<path fill="#DBDC4C" d="M187.304,313.033c0.053,0.594,0.204,1.056,0.459,1.377c0.456,0.568,1.246,0.864,2.387,0.864
				c0.682,0,1.27-0.151,1.792-0.44c0.507-0.281,0.764-0.73,0.764-1.324c0-0.468-0.207-0.812-0.62-1.049
				c-0.255-0.144-0.774-0.317-1.541-0.504l-1.447-0.363c-0.918-0.225-1.604-0.477-2.039-0.758c-0.779-0.482-1.175-1.152-1.175-2.001
				c0-1.009,0.366-1.83,1.095-2.442c0.742-0.626,1.729-0.937,2.973-0.937c1.62,0,2.798,0.468,3.511,1.416
				c0.446,0.587,0.671,1.234,0.655,1.912h-1.684c-0.037-0.393-0.191-0.76-0.44-1.087c-0.422-0.47-1.148-0.696-2.185-0.696
				c-0.692,0-1.215,0.119-1.578,0.382c-0.355,0.252-0.533,0.598-0.533,1.02c0,0.473,0.236,0.828,0.711,1.105
				c0.26,0.158,0.657,0.309,1.19,0.438l1.196,0.29c1.312,0.305,2.188,0.608,2.641,0.896c0.697,0.461,1.04,1.185,1.04,2.163
				c0,0.938-0.361,1.765-1.088,2.449c-0.731,0.692-1.843,1.03-3.327,1.03c-1.604,0-2.748-0.357-3.408-1.069
				c-0.665-0.71-1.021-1.613-1.063-2.673H187.304z"/>
			<path fill="#DBDC4C" d="M200.433,302.76h1.806v2.971h1.697v1.459h-1.697v6.946c0,0.378,0.124,0.619,0.376,0.746
				c0.146,0.075,0.375,0.114,0.689,0.114c0.096,0,0.189,0,0.284,0c0.099-0.018,0.223-0.021,0.348-0.043v1.419
				c-0.207,0.065-0.411,0.097-0.637,0.13c-0.235,0.029-0.462,0.04-0.727,0.04c-0.83,0-1.399-0.214-1.691-0.645
				c-0.3-0.43-0.448-0.987-0.448-1.664v-7.044h-1.435v-1.459h1.435V302.76z"/>
			<path fill="#DBDC4C" d="M209.376,301.78h1.828v2.022h-1.828V301.78z M209.376,305.777h1.828v10.595h-1.828V305.777z"/>
			<path fill="#DBDC4C" d="M224.598,306.3c0.751,0.583,1.206,1.587,1.354,3.007h-1.731c-0.108-0.652-0.353-1.192-0.729-1.629
				c-0.388-0.438-0.992-0.654-1.827-0.654c-1.136,0-1.946,0.555-2.432,1.664c-0.321,0.73-0.491,1.612-0.491,2.678
				c0,1.06,0.231,1.96,0.687,2.684c0.438,0.724,1.151,1.092,2.127,1.092c0.734,0,1.321-0.23,1.75-0.678
				c0.44-0.453,0.74-1.072,0.915-1.857h1.731c-0.198,1.422-0.694,2.434-1.49,3.101c-0.79,0.645-1.813,0.976-3.047,0.976
				c-1.395,0-2.503-0.507-3.336-1.523c-0.816-1.016-1.235-2.29-1.235-3.81c0-1.866,0.453-3.324,1.366-4.362
				c0.901-1.041,2.052-1.551,3.455-1.551C222.866,305.436,223.848,305.719,224.598,306.3z"/>
			<path fill="#DBDC4C" d="M237.105,309.936c0.405-0.057,0.671-0.219,0.825-0.514c0.076-0.159,0.105-0.39,0.105-0.685
				c0-0.62-0.212-1.06-0.639-1.332c-0.432-0.285-1.053-0.419-1.858-0.419c-0.931,0-1.597,0.241-1.989,0.761
				c-0.212,0.277-0.345,0.694-0.411,1.242h-1.673c0.031-1.312,0.456-2.229,1.268-2.744c0.816-0.515,1.769-0.774,2.84-0.774
				c1.254,0,2.27,0.248,3.055,0.716c0.764,0.48,1.158,1.226,1.158,2.23v6.13c0,0.186,0.04,0.335,0.109,0.449
				c0.082,0.108,0.244,0.17,0.485,0.17c0.076,0,0.164-0.008,0.265-0.02c0.106-0.006,0.212-0.035,0.324-0.042v1.313
				c-0.281,0.084-0.49,0.135-0.634,0.155c-0.151,0.021-0.354,0.029-0.604,0.029c-0.613,0-1.062-0.22-1.343-0.652
				c-0.146-0.237-0.235-0.564-0.297-0.979c-0.365,0.468-0.898,0.875-1.575,1.235c-0.687,0.347-1.432,0.519-2.264,0.519
				c-0.977,0-1.782-0.299-2.411-0.9c-0.626-0.587-0.94-1.339-0.94-2.239c0-0.979,0.314-1.75,0.928-2.291
				c0.612-0.544,1.418-0.871,2.421-1.005L237.105,309.936z M233.338,314.762c0.371,0.299,0.821,0.443,1.336,0.443
				c0.634,0,1.238-0.145,1.83-0.433c0.986-0.481,1.49-1.263,1.49-2.366v-1.443c-0.218,0.145-0.504,0.252-0.839,0.35
				c-0.347,0.104-0.688,0.162-1.012,0.204l-1.085,0.138c-0.642,0.087-1.127,0.223-1.458,0.407c-0.555,0.307-0.828,0.807-0.828,1.483
				C232.772,314.057,232.958,314.467,233.338,314.762z"/>
		</g>
		<g>
			<path fill="#7FACA0" d="M291.1,303.123c1.008,0.979,1.567,2.078,1.687,3.32h-1.93c-0.218-0.94-0.647-1.689-1.283-2.237
				c-0.645-0.547-1.539-0.821-2.689-0.821c-1.416,0-2.554,0.506-3.424,1.518c-0.869,1.012-1.307,2.557-1.307,4.642
				c0,1.714,0.39,3.104,1.183,4.163c0.769,1.065,1.951,1.604,3.497,1.604c1.424,0,2.527-0.566,3.272-1.684
				c0.397-0.594,0.692-1.367,0.894-2.325h1.922c-0.172,1.54-0.731,2.823-1.691,3.864c-1.147,1.252-2.686,1.873-4.625,1.873
				c-1.68,0-3.096-0.508-4.227-1.538c-1.492-1.358-2.24-3.454-2.24-6.284c0-2.165,0.555-3.918,1.67-5.299
				c1.226-1.504,2.91-2.247,5.042-2.247C288.674,301.671,290.098,302.157,291.1,303.123z"/>
			<path fill="#7FACA0" d="M306.604,307.074c0.943,0.917,1.413,2.26,1.413,4.043c0,1.696-0.408,3.116-1.243,4.235
				c-0.83,1.116-2.108,1.683-3.861,1.683c-1.445,0-2.609-0.493-3.458-1.483c-0.854-0.991-1.283-2.316-1.283-3.991
				c0-1.782,0.442-3.209,1.355-4.258c0.896-1.065,2.103-1.595,3.63-1.595C304.515,305.708,305.66,306.17,306.604,307.074z
				 M305.493,314.146c0.448-0.9,0.652-1.901,0.652-2.982c0-0.993-0.151-1.803-0.475-2.427c-0.49-0.977-1.355-1.462-2.566-1.462
				c-1.077,0-1.869,0.413-2.353,1.238c-0.501,0.836-0.742,1.84-0.742,3.018c0,1.139,0.241,2.071,0.742,2.83
				c0.483,0.75,1.268,1.129,2.342,1.129C304.255,315.49,305.059,315.039,305.493,314.146z"/>
			<path fill="#7FACA0" d="M321.581,307.074c0.944,0.917,1.414,2.26,1.414,4.043c0,1.696-0.42,3.116-1.241,4.235
				c-0.838,1.116-2.116,1.683-3.853,1.683c-1.462,0-2.615-0.493-3.472-1.483c-0.854-0.991-1.283-2.316-1.283-3.991
				c0-1.782,0.456-3.209,1.347-4.258c0.894-1.065,2.127-1.595,3.636-1.595C319.486,305.708,320.646,306.17,321.581,307.074z
				 M320.465,314.146c0.436-0.9,0.665-1.901,0.665-2.982c0-0.993-0.161-1.803-0.477-2.427c-0.498-0.977-1.355-1.462-2.572-1.462
				c-1.079,0-1.864,0.413-2.36,1.238c-0.487,0.836-0.729,1.84-0.729,3.018c0,1.139,0.242,2.071,0.729,2.83
				c0.496,0.75,1.266,1.129,2.331,1.129C319.227,315.49,320.041,315.039,320.465,314.146z"/>
			<path fill="#7FACA0" d="M328.9,306.019h1.699v1.836c0.133-0.353,0.479-0.789,1.019-1.312c0.544-0.504,1.164-0.766,1.886-0.766
				c0.026,0,0.081,0,0.161,0.01c0.082,0.005,0.221,0.021,0.405,0.036v1.899c-0.101-0.025-0.193-0.045-0.286-0.045
				c-0.096-0.01-0.188-0.014-0.297-0.014c-0.896,0-1.591,0.295-2.073,0.871c-0.485,0.576-0.731,1.243-0.731,2.003v6.114H328.9
				V306.019z"/>
			<path fill="#7FACA0" d="M345.128,306.342c0.313,0.201,0.686,0.548,1.08,1.041v-5.373h1.721v14.643h-1.612v-1.477
				c-0.411,0.648-0.915,1.127-1.477,1.419c-0.562,0.285-1.226,0.44-1.952,0.44c-1.175,0-2.197-0.493-3.062-1.502
				c-0.859-0.997-1.295-2.319-1.295-3.973c0-1.556,0.389-2.892,1.173-4.026c0.801-1.138,1.917-1.711,3.395-1.711
				C343.903,305.823,344.579,305.996,345.128,306.342z M341.146,314.315c0.475,0.771,1.244,1.152,2.305,1.152
				c0.827,0,1.504-0.356,2.037-1.066c0.527-0.709,0.792-1.731,0.792-3.062c0-1.339-0.272-2.344-0.827-2.988
				c-0.544-0.629-1.226-0.969-2.01-0.969c-0.907,0-1.637,0.346-2.186,1.034c-0.551,0.688-0.841,1.7-0.841,3.038
				C340.416,312.605,340.655,313.557,341.146,314.315z"/>
			<path fill="#7FACA0" d="M354.269,302.067h1.812v2.024h-1.812V302.067z M354.269,306.072h1.812v10.58h-1.812V306.072z"/>
			<path fill="#7FACA0" d="M362.437,306.019h1.707v1.516c0.496-0.63,1.037-1.081,1.604-1.348c0.555-0.272,1.175-0.409,1.875-0.409
				c1.512,0,2.52,0.522,3.044,1.576c0.308,0.587,0.448,1.405,0.448,2.482v6.816h-1.816v-6.706c0-0.64-0.101-1.173-0.286-1.562
				c-0.324-0.661-0.894-1.001-1.736-1.001c-0.417,0-0.76,0.048-1.035,0.13c-0.493,0.151-0.93,0.437-1.299,0.879
				c-0.295,0.346-0.482,0.713-0.584,1.091c-0.074,0.367-0.138,0.9-0.138,1.604v5.566h-1.784V306.019z"/>
			<path fill="#7FACA0" d="M383.13,310.217c0.398-0.05,0.677-0.227,0.825-0.521c0.063-0.151,0.104-0.389,0.104-0.681
				c0-0.612-0.204-1.051-0.647-1.337c-0.427-0.266-1.045-0.402-1.858-0.402c-0.926,0-1.594,0.248-1.974,0.756
				c-0.217,0.276-0.36,0.688-0.439,1.246h-1.666c0.029-1.313,0.459-2.226,1.276-2.744c0.813-0.515,1.771-0.778,2.843-0.778
				c1.259,0,2.264,0.241,3.049,0.717c0.771,0.479,1.153,1.217,1.153,2.233v6.126c0,0.188,0.042,0.335,0.122,0.45
				c0.074,0.104,0.241,0.157,0.482,0.157c0.08,0,0.173,0,0.266-0.011c0.096-0.014,0.201-0.024,0.311-0.042v1.317
				c-0.273,0.082-0.476,0.131-0.626,0.155c-0.146,0.018-0.353,0.021-0.6,0.021c-0.612,0-1.058-0.212-1.339-0.648
				c-0.148-0.241-0.244-0.564-0.312-0.982c-0.355,0.475-0.889,0.882-1.562,1.242c-0.689,0.343-1.438,0.533-2.251,0.533
				c-0.987,0-1.798-0.314-2.429-0.912c-0.618-0.595-0.937-1.351-0.937-2.239c0-0.994,0.318-1.746,0.923-2.299
				c0.617-0.539,1.427-0.878,2.432-1.004L383.13,310.217z M379.362,315.039c0.369,0.299,0.821,0.451,1.334,0.451
				c0.634,0,1.24-0.141,1.826-0.43c1.003-0.484,1.493-1.278,1.493-2.375v-1.434c-0.223,0.133-0.509,0.252-0.843,0.342
				c-0.346,0.093-0.682,0.168-1.006,0.201l-1.098,0.137c-0.633,0.09-1.132,0.227-1.455,0.407c-0.555,0.317-0.833,0.813-0.833,1.49
				C378.781,314.334,378.98,314.755,379.362,315.039z"/>
			<path fill="#7FACA0" d="M399.423,306.579c0.742,0.588,1.201,1.589,1.352,3.011h-1.734c-0.105-0.65-0.35-1.198-0.721-1.626
				c-0.382-0.43-0.994-0.653-1.822-0.653c-1.137,0-1.959,0.555-2.449,1.664c-0.313,0.721-0.478,1.606-0.478,2.662
				c0,1.065,0.235,1.966,0.681,2.697c0.454,0.727,1.159,1.087,2.133,1.087c0.734,0,1.331-0.223,1.756-0.677
				c0.439-0.453,0.729-1.072,0.9-1.855h1.734c-0.193,1.412-0.689,2.446-1.49,3.102c-0.798,0.645-1.809,0.977-3.041,0.977
				c-1.398,0-2.509-0.515-3.334-1.528c-0.829-1.011-1.24-2.286-1.24-3.812c0-1.859,0.456-3.318,1.363-4.351
				c0.909-1.045,2.06-1.567,3.465-1.567C397.693,305.708,398.667,305.996,399.423,306.579z"/>
			<path fill="#7FACA0" d="M406.221,302.067h1.819v2.024h-1.819V302.067z M406.221,306.072h1.819v10.58h-1.819V306.072z"/>
			<path fill="#7FACA0" d="M422.118,307.074c0.936,0.917,1.4,2.26,1.4,4.043c0,1.696-0.411,3.116-1.236,4.235
				c-0.827,1.116-2.113,1.683-3.855,1.683c-1.458,0-2.601-0.493-3.468-1.483c-0.844-0.991-1.275-2.316-1.275-3.991
				c0-1.782,0.453-3.209,1.36-4.258c0.886-1.065,2.098-1.595,3.627-1.595C420.019,305.708,421.177,306.17,422.118,307.074z
				 M421.002,314.146c0.442-0.9,0.655-1.901,0.655-2.982c0-0.993-0.151-1.803-0.473-2.427c-0.492-0.977-1.35-1.462-2.566-1.462
				c-1.077,0-1.867,0.413-2.362,1.238c-0.488,0.836-0.732,1.84-0.732,3.018c0,1.139,0.244,2.071,0.732,2.83
				c0.495,0.75,1.27,1.129,2.339,1.129C419.769,315.49,420.575,315.039,421.002,314.146z M420.784,301.726l-2.665,2.885h-1.368
				l1.816-2.885H420.784z"/>
			<path fill="#7FACA0" d="M429.379,306.019h1.702v1.516c0.51-0.63,1.034-1.081,1.602-1.348c0.557-0.272,1.191-0.409,1.875-0.409
				c1.509,0,2.527,0.522,3.06,1.576c0.281,0.587,0.44,1.405,0.44,2.482v6.816h-1.829v-6.706c0-0.64-0.088-1.173-0.281-1.562
				c-0.311-0.661-0.901-1.001-1.729-1.001c-0.411,0-0.771,0.048-1.036,0.13c-0.491,0.151-0.923,0.437-1.286,0.879
				c-0.305,0.346-0.507,0.713-0.586,1.091c-0.096,0.367-0.139,0.9-0.139,1.604v5.566h-1.792V306.019z"/>
		</g>
		<g>
			<path fill="#FFFFFF" d="M104.536,310.217v-1.714h4.441v-4.462h1.742v4.462h4.444v1.714h-4.444v4.466h-1.742v-4.466H104.536z"/>
			<path fill="#FFFFFF" d="M256.779,310.217v-1.714h4.452v-4.462h1.742v4.462h4.436v1.714h-4.436v4.466h-1.742v-4.466H256.779z"/>
		</g>
	</g>
</g>
</svg>
