<?xml version="1.0" encoding="utf-8"?>
<!-- Generator: Adobe Illustrator 16.0.0, SVG Export Plug-In . SVG Version: 6.00 Build 0)  -->
<!DOCTYPE svg PUBLIC "-//W3C//DTD SVG 1.1//EN" "http://www.w3.org/Graphics/SVG/1.1/DTD/svg11.dtd">
<svg version="1.1" id="Capa_1" xmlns="http://www.w3.org/2000/svg" xmlns:xlink="http://www.w3.org/1999/xlink" x="0px" y="0px"
	 width="150px" height="100px" viewBox="0 0 150 100" enable-background="new 0 0 150 100" xml:space="preserve">
<g>
	<path fill="#FFFFFF" d="M29.619,30.84c1.117-0.914,2.316-1.613,3.587-2.113h-7.371v5.854C26.679,33.459,27.937,32.218,29.619,30.84
		"/>
	<path fill="#FFFFFF" d="M38.163,36.012c-3.911,0-6.832,1.084-8.86,3.195c-2.068,2.156-3.064,4.562-3.068,7.332v23.952H40.3V36.139
		c-0.303-0.043-0.602-0.078-0.875-0.094C39.043,36.021,38.623,36.012,38.163,36.012"/>
	<rect x="1.978" y="28.727" fill="#FFFFFF" width="15.419" height="41.762"/>
	<rect x="113.747" y="66.239" fill="#FFFFFF" width="3.664" height="3.927"/>
	<rect x="128.783" y="66.239" fill="#FFFFFF" width="3.669" height="3.927"/>
	<rect x="143.016" y="66.239" fill="#FFFFFF" width="3.665" height="3.927"/>
	<path fill="#FFFFFF" d="M91.14,44.74l15.606-15.634h-9.752L80.769,45.674V14.051h-7.232v50.877
		c-0.103,0.006-0.233,0.028-0.331,0.039c-0.358,0.035-0.674,0.051-0.941,0.051c-0.865,0.008-1.294-0.216-1.417-0.437
		c-0.215-0.321-0.341-0.778-0.341-1.421V39.815c0.016-3.96-1.526-7.009-4.527-8.899c-2.987-1.873-6.838-2.789-11.526-2.789
		c-4.069,0-7.674,1-10.768,3.013c-3.2,2.052-4.834,5.757-4.957,10.86l-0.011,0.507h7.057l0.055-0.434
		c0.236-2.046,0.749-3.546,1.477-4.503c1.329-1.773,3.614-2.705,7.003-2.713c2.925,0,5.154,0.524,6.645,1.506
		c1.468,0.977,2.176,2.438,2.194,4.656c0,1.092-0.147,1.889-0.394,2.391c-0.438,0.942-1.271,1.506-2.708,1.7l-10.561,1.358
		c-3.774,0.494-6.871,1.792-9.235,3.928c-2.392,2.166-3.59,5.252-3.588,9.113c-0.002,3.543,1.229,6.562,3.634,8.918
		c2.411,2.37,5.533,3.554,9.271,3.554c3.113,0,5.973-0.685,8.562-2.054c2.208-1.162,3.997-2.523,5.336-4.074
		c0.241,1.182,0.587,2.147,1.043,2.92c1.123,1.818,2.975,2.731,5.354,2.716c0.945,0,1.702-0.037,2.27-0.115
		c0.577-0.085,1.377-0.28,2.416-0.585l0.339-0.097v-0.076h5.884V55.131l4.852-4.866l12.155,20.352h9.51L91.14,44.74z M44.505,59.354
		c0.017-2.452,0.921-4.098,2.832-5.229c1.123-0.654,2.893-1.174,5.257-1.488l4.006-0.533c1.244-0.153,2.515-0.408,3.812-0.76
		c0.972-0.28,1.821-0.604,2.551-0.986v4.65c-0.018,4.025-1.709,6.783-5.261,8.59c-2.134,1.074-4.316,1.611-6.584,1.611
		c-1.837,0-3.375-0.537-4.696-1.601C45.132,62.556,44.521,61.189,44.505,59.354"/>
	<path fill="#FFFFFF" d="M4.784,77.121v0.789c-0.27-0.123-0.508-0.189-0.707-0.189c-0.145,0-0.258,0.029-0.36,0.099
		c-0.09,0.06-0.153,0.132-0.179,0.218c-0.034,0.082-0.042,0.298-0.042,0.654v0.848h1.222v0.69H3.496v5.563H2.742v-5.563H1.978v-0.69
		h0.765v-0.98c0-0.439,0.034-0.767,0.115-0.953c0.075-0.19,0.207-0.355,0.395-0.467c0.179-0.119,0.404-0.178,0.662-0.178
		C4.16,76.961,4.444,77.02,4.784,77.121"/>
	<path fill="#FFFFFF" d="M13.281,79.539v6.254h-0.736v-1.076c-0.311,0.408-0.67,0.713-1.06,0.921
		c-0.389,0.204-0.819,0.312-1.279,0.312c-0.828,0-1.533-0.325-2.121-0.971c-0.575-0.635-0.865-1.406-0.865-2.33
		c0-0.9,0.29-1.676,0.877-2.316c0.595-0.642,1.298-0.955,2.132-0.955c0.477,0,0.91,0.117,1.288,0.322
		c0.394,0.229,0.737,0.551,1.028,0.982v-1.143H13.281z M10.283,80.146c-0.41,0-0.8,0.119-1.153,0.334
		c-0.348,0.219-0.636,0.537-0.841,0.924c-0.209,0.404-0.318,0.823-0.318,1.268c0,0.439,0.109,0.864,0.319,1.266
		c0.213,0.4,0.497,0.713,0.849,0.938c0.353,0.215,0.734,0.331,1.143,0.331c0.41,0,0.806-0.105,1.164-0.331
		c0.371-0.226,0.65-0.525,0.852-0.899c0.197-0.385,0.301-0.807,0.301-1.279c0-0.731-0.228-1.336-0.673-1.816
		C11.485,80.402,10.937,80.146,10.283,80.146 M10.744,76.612h1.154l-1.588,1.765H9.578L10.744,76.612z"/>
	<path fill="#FFFFFF" d="M16.66,85.793v-8.672h0.752v3.492c0.313-0.416,0.668-0.722,1.053-0.93c0.392-0.197,0.817-0.307,1.274-0.307
		c0.826,0,1.534,0.322,2.117,0.965c0.58,0.638,0.871,1.41,0.871,2.33c0,0.906-0.291,1.679-0.883,2.32
		c-0.588,0.639-1.295,0.957-2.127,0.957c-0.466,0-0.896-0.107-1.284-0.325c-0.388-0.224-0.724-0.552-1.021-0.993v1.162H16.66z
		 M19.66,85.178c0.42,0,0.806-0.12,1.154-0.333c0.359-0.221,0.637-0.536,0.843-0.925c0.205-0.402,0.312-0.822,0.312-1.271
		c0-0.445-0.106-0.864-0.312-1.268c-0.211-0.401-0.496-0.713-0.854-0.936c-0.35-0.225-0.732-0.341-1.133-0.341
		c-0.409,0-0.799,0.116-1.166,0.341c-0.373,0.223-0.65,0.521-0.852,0.902c-0.189,0.375-0.298,0.803-0.298,1.28
		c0,0.724,0.221,1.336,0.673,1.816C18.471,84.934,19.018,85.178,19.66,85.178"/>
	<path fill="#FFFFFF" d="M25.459,79.539h0.764v0.911c0.234-0.365,0.472-0.634,0.723-0.808c0.255-0.179,0.514-0.266,0.793-0.266
		c0.205,0,0.424,0.072,0.664,0.215l-0.394,0.674c-0.15-0.068-0.281-0.113-0.396-0.113c-0.245,0-0.49,0.113-0.721,0.338
		c-0.229,0.217-0.404,0.559-0.526,1.022c-0.097,0.357-0.144,1.076-0.144,2.161v2.119h-0.764V79.539z"/>
	<path fill="#FFFFFF" d="M30.948,76.961c0.162,0,0.308,0.066,0.438,0.193c0.115,0.133,0.179,0.289,0.179,0.475
		c0,0.184-0.063,0.332-0.179,0.467c-0.13,0.135-0.275,0.197-0.438,0.197c-0.172,0-0.318-0.062-0.442-0.197
		c-0.11-0.135-0.175-0.283-0.175-0.467c0-0.186,0.064-0.342,0.175-0.475C30.63,77.027,30.776,76.961,30.948,76.961 M30.573,79.539
		h0.748v6.254h-0.748V79.539z"/>
	<path fill="#FFFFFF" d="M40.184,80.839l-0.603,0.39c-0.511-0.726-1.207-1.094-2.099-1.094c-0.703,0-1.301,0.246-1.769,0.729
		c-0.471,0.493-0.707,1.093-0.707,1.794c0,0.453,0.113,0.883,0.329,1.285c0.214,0.4,0.513,0.707,0.889,0.933
		c0.374,0.226,0.793,0.331,1.264,0.331c0.855,0,1.558-0.362,2.093-1.096l0.603,0.414c-0.279,0.453-0.653,0.803-1.127,1.049
		c-0.474,0.248-1.005,0.375-1.604,0.375c-0.917,0-1.687-0.318-2.292-0.943c-0.607-0.631-0.905-1.389-0.905-2.295
		c0-0.592,0.137-1.164,0.423-1.677c0.285-0.528,0.67-0.933,1.171-1.218c0.495-0.294,1.046-0.439,1.665-0.439
		c0.385,0,0.755,0.057,1.114,0.189c0.359,0.124,0.661,0.293,0.915,0.492C39.785,80.266,40.002,80.518,40.184,80.839"/>
	<path fill="#FFFFFF" d="M49.073,79.539v6.254h-0.739v-1.076c-0.318,0.408-0.67,0.713-1.06,0.921
		c-0.389,0.204-0.819,0.312-1.29,0.312c-0.821,0-1.526-0.325-2.106-0.971c-0.586-0.635-0.871-1.406-0.871-2.33
		c0-0.9,0.288-1.676,0.878-2.316c0.595-0.642,1.304-0.955,2.126-0.955c0.484,0,0.908,0.117,1.298,0.322
		c0.395,0.229,0.728,0.551,1.025,0.982v-1.143H49.073z M46.072,80.146c-0.418,0-0.797,0.119-1.149,0.334
		c-0.357,0.219-0.637,0.537-0.849,0.924c-0.207,0.404-0.312,0.823-0.312,1.268c0,0.439,0.105,0.864,0.317,1.266
		c0.207,0.4,0.486,0.713,0.847,0.938c0.358,0.215,0.74,0.331,1.142,0.331c0.409,0,0.802-0.105,1.164-0.331
		c0.373-0.226,0.654-0.525,0.853-0.899c0.191-0.385,0.297-0.807,0.297-1.279c0-0.731-0.223-1.336-0.663-1.816
		C47.271,80.402,46.72,80.146,46.072,80.146"/>
	<path fill="#FFFFFF" d="M62.899,77.121v8.672h-0.741v-1.076c-0.317,0.408-0.666,0.713-1.053,0.921
		c-0.394,0.204-0.827,0.312-1.291,0.312c-0.82,0-1.524-0.325-2.104-0.971c-0.591-0.635-0.881-1.406-0.881-2.33
		c0-0.9,0.29-1.676,0.881-2.316c0.597-0.642,1.303-0.955,2.127-0.955c0.482,0,0.918,0.117,1.302,0.322
		c0.391,0.229,0.729,0.551,1.02,0.982v-3.561H62.899z M59.901,80.146c-0.412,0-0.8,0.119-1.154,0.334
		c-0.348,0.219-0.632,0.537-0.842,0.924c-0.209,0.404-0.311,0.823-0.311,1.268c0,0.439,0.102,0.864,0.311,1.266
		c0.214,0.4,0.494,0.713,0.854,0.938c0.349,0.215,0.73,0.331,1.136,0.331c0.409,0,0.804-0.105,1.169-0.331
		c0.364-0.226,0.649-0.525,0.845-0.899c0.197-0.385,0.3-0.807,0.3-1.279c0-0.731-0.225-1.336-0.665-1.816
		C61.105,80.402,60.55,80.146,59.901,80.146"/>
	<path fill="#FFFFFF" d="M71.149,83.719l0.631,0.346c-0.213,0.441-0.448,0.791-0.721,1.061c-0.27,0.275-0.572,0.475-0.917,0.614
		c-0.338,0.136-0.723,0.21-1.148,0.21c-0.955,0-1.695-0.332-2.235-1.004c-0.533-0.671-0.8-1.42-0.8-2.265
		c0-0.794,0.228-1.499,0.677-2.124c0.574-0.78,1.346-1.18,2.309-1.18c0.994,0,1.79,0.406,2.384,1.211
		c0.424,0.566,0.633,1.282,0.646,2.143h-5.241c0.012,0.725,0.229,1.322,0.642,1.775c0.418,0.47,0.941,0.701,1.56,0.701
		c0.286,0,0.581-0.05,0.856-0.162c0.281-0.111,0.526-0.264,0.719-0.443C70.706,84.416,70.92,84.123,71.149,83.719 M71.149,82.025
		c-0.104-0.417-0.249-0.77-0.443-1.019c-0.188-0.263-0.438-0.478-0.76-0.626c-0.309-0.158-0.641-0.237-0.986-0.237
		c-0.577,0-1.059,0.198-1.475,0.601c-0.307,0.29-0.523,0.709-0.684,1.281H71.149z"/>
	<path fill="#FFFFFF" d="M82.622,80.223l-0.477,0.533c-0.396-0.414-0.796-0.632-1.181-0.632c-0.237,0-0.45,0.097-0.619,0.269
		c-0.175,0.164-0.268,0.363-0.268,0.597c0,0.21,0.073,0.399,0.218,0.585c0.142,0.178,0.446,0.405,0.902,0.653
		c0.561,0.317,0.933,0.618,1.133,0.899c0.2,0.29,0.303,0.625,0.303,0.984c0,0.513-0.172,0.946-0.503,1.304
		c-0.343,0.357-0.761,0.534-1.265,0.534c-0.333,0-0.659-0.074-0.964-0.236c-0.302-0.155-0.555-0.376-0.753-0.647l0.468-0.576
		c0.379,0.456,0.785,0.694,1.222,0.694c0.298,0,0.548-0.104,0.762-0.308c0.214-0.21,0.319-0.445,0.319-0.735
		c0-0.221-0.073-0.434-0.211-0.615c-0.142-0.174-0.447-0.398-0.94-0.668c-0.529-0.289-0.891-0.567-1.071-0.854
		c-0.197-0.281-0.291-0.606-0.291-0.97c0-0.478,0.156-0.882,0.453-1.193c0.305-0.308,0.686-0.464,1.143-0.464
		C81.544,79.377,82.077,79.657,82.622,80.223"/>
	<path fill="#FFFFFF" d="M88.359,79.377c0.892,0,1.633,0.35,2.232,1.045c0.537,0.635,0.802,1.391,0.802,2.259
		c0,0.872-0.289,1.636-0.855,2.286c-0.564,0.657-1.296,0.982-2.179,0.982c-0.898,0-1.628-0.325-2.195-0.982
		c-0.568-0.65-0.85-1.414-0.85-2.286c0-0.868,0.264-1.615,0.804-2.247C86.707,79.727,87.458,79.377,88.359,79.377 M88.359,80.164
		c-0.625,0-1.168,0.254-1.611,0.734c-0.451,0.499-0.669,1.098-0.669,1.799c0,0.456,0.096,0.881,0.31,1.267
		c0.198,0.387,0.473,0.687,0.816,0.903c0.35,0.213,0.73,0.316,1.154,0.316c0.411,0,0.794-0.104,1.138-0.316
		c0.347-0.217,0.621-0.517,0.825-0.903c0.209-0.386,0.312-0.811,0.312-1.267c0-0.701-0.23-1.3-0.678-1.799
		C89.504,80.418,88.975,80.164,88.359,80.164"/>
	<rect x="94.313" y="77.121" fill="#FFFFFF" width="0.747" height="8.672"/>
	<path fill="#FFFFFF" d="M98.171,79.539h0.751v2.915c0,0.716,0.029,1.206,0.101,1.472c0.111,0.383,0.317,0.678,0.616,0.904
		c0.306,0.228,0.659,0.334,1.085,0.334c0.413,0,0.77-0.106,1.061-0.319c0.297-0.221,0.495-0.501,0.604-0.854
		c0.077-0.238,0.119-0.754,0.119-1.536v-2.915h0.756v3.062c0,0.871-0.09,1.517-0.275,1.951c-0.191,0.439-0.478,0.783-0.849,1.025
		c-0.376,0.254-0.848,0.371-1.416,0.371c-0.57,0-1.047-0.117-1.425-0.371c-0.377-0.242-0.658-0.6-0.848-1.032
		c-0.186-0.444-0.28-1.108-0.28-2.001V79.539z"/>
	<path fill="#FFFFFF" d="M112.233,80.839l-0.594,0.39c-0.521-0.726-1.214-1.094-2.102-1.094c-0.711,0-1.303,0.246-1.774,0.729
		c-0.463,0.493-0.704,1.093-0.704,1.794c0,0.453,0.112,0.883,0.328,1.285c0.208,0.4,0.517,0.707,0.885,0.933
		c0.375,0.226,0.801,0.331,1.266,0.331c0.867,0,1.561-0.362,2.102-1.096l0.594,0.414c-0.279,0.453-0.654,0.803-1.127,1.049
		c-0.468,0.248-1.001,0.375-1.592,0.375c-0.929,0-1.693-0.318-2.299-0.943c-0.606-0.631-0.913-1.389-0.913-2.295
		c0-0.592,0.143-1.164,0.424-1.677c0.287-0.528,0.676-0.933,1.178-1.218c0.498-0.294,1.042-0.439,1.66-0.439
		c0.382,0,0.758,0.057,1.122,0.189c0.355,0.124,0.66,0.293,0.907,0.492C111.847,80.266,112.054,80.518,112.233,80.839"/>
	<path fill="#FFFFFF" d="M115.575,76.961c0.169,0,0.32,0.066,0.439,0.193c0.119,0.133,0.18,0.289,0.18,0.475
		c0,0.184-0.061,0.332-0.18,0.467s-0.271,0.197-0.439,0.197c-0.164,0-0.31-0.062-0.434-0.197c-0.117-0.135-0.175-0.283-0.175-0.467
		c0-0.186,0.058-0.342,0.175-0.475C115.266,77.027,115.411,76.961,115.575,76.961 M115.203,79.539h0.746v6.254h-0.746V79.539z"/>
	<path fill="#FFFFFF" d="M121.918,79.377c0.899,0,1.64,0.35,2.222,1.045c0.545,0.635,0.812,1.391,0.812,2.259
		c0,0.872-0.278,1.636-0.851,2.286c-0.567,0.657-1.294,0.982-2.184,0.982c-0.899,0-1.632-0.325-2.189-0.982
		c-0.57-0.65-0.851-1.414-0.851-2.286c0-0.868,0.263-1.615,0.8-2.247C120.264,79.727,121.015,79.377,121.918,79.377 M121.908,80.164
		c-0.62,0-1.152,0.254-1.604,0.734c-0.452,0.499-0.669,1.098-0.669,1.799c0,0.456,0.109,0.881,0.311,1.267
		c0.202,0.387,0.478,0.687,0.826,0.903c0.343,0.213,0.723,0.316,1.136,0.316c0.423,0,0.804-0.104,1.147-0.316
		c0.355-0.217,0.628-0.517,0.829-0.903c0.204-0.386,0.311-0.811,0.311-1.267c0-0.701-0.227-1.3-0.679-1.799
		C123.064,80.418,122.537,80.164,121.908,80.164"/>
	<path fill="#FFFFFF" d="M127.986,79.539h0.746v1.119c0.306-0.429,0.631-0.75,1.003-0.968c0.355-0.204,0.755-0.313,1.185-0.313
		c0.441,0,0.819,0.123,1.161,0.357c0.338,0.234,0.585,0.551,0.743,0.965c0.159,0.396,0.246,1.023,0.246,1.869v3.225h-0.752v-2.988
		c0-0.717-0.028-1.196-0.086-1.443c-0.086-0.414-0.254-0.725-0.503-0.928c-0.239-0.211-0.564-0.319-0.964-0.319
		c-0.453,0-0.851,0.168-1.208,0.483c-0.364,0.326-0.604,0.725-0.717,1.199c-0.07,0.309-0.108,0.875-0.108,1.698v2.298h-0.746V79.539
		z"/>
	<path fill="#FFFFFF" d="M141.22,83.719l0.634,0.346c-0.206,0.441-0.443,0.791-0.717,1.061c-0.272,0.275-0.573,0.475-0.912,0.614
		c-0.343,0.136-0.729,0.21-1.153,0.21c-0.954,0-1.697-0.332-2.231-1.004c-0.533-0.671-0.807-1.42-0.807-2.265
		c0-0.794,0.229-1.499,0.684-2.124c0.57-0.78,1.347-1.18,2.313-1.18c0.99,0,1.784,0.406,2.374,1.211
		c0.418,0.566,0.64,1.282,0.645,2.143h-5.241c0.007,0.725,0.228,1.322,0.648,1.775c0.422,0.47,0.933,0.701,1.548,0.701
		c0.296,0,0.586-0.05,0.868-0.162c0.274-0.111,0.517-0.264,0.716-0.443C140.782,84.416,140.996,84.123,141.22,83.719 M141.22,82.025
		c-0.1-0.417-0.246-0.77-0.434-1.019c-0.193-0.263-0.446-0.478-0.756-0.626c-0.319-0.158-0.646-0.237-0.989-0.237
		c-0.577,0-1.069,0.198-1.481,0.601c-0.299,0.29-0.524,0.709-0.674,1.281H141.22z"/>
	<path fill="#FFFFFF" d="M148.018,80.223l-0.476,0.533c-0.404-0.414-0.796-0.632-1.173-0.632c-0.249,0-0.457,0.097-0.635,0.269
		c-0.175,0.164-0.262,0.363-0.262,0.597c0,0.21,0.073,0.399,0.22,0.585c0.14,0.178,0.447,0.405,0.904,0.653
		c0.55,0.317,0.935,0.618,1.138,0.899c0.193,0.29,0.288,0.625,0.288,0.984c0,0.513-0.16,0.946-0.505,1.304
		c-0.336,0.357-0.753,0.534-1.255,0.534c-0.343,0-0.66-0.074-0.964-0.236c-0.308-0.155-0.56-0.376-0.757-0.647l0.47-0.576
		c0.386,0.456,0.794,0.694,1.213,0.694c0.303,0,0.56-0.104,0.77-0.308c0.216-0.21,0.317-0.445,0.317-0.735
		c0-0.221-0.07-0.434-0.209-0.615c-0.14-0.174-0.455-0.398-0.95-0.668c-0.521-0.289-0.88-0.567-1.062-0.854
		c-0.189-0.281-0.287-0.606-0.287-0.97c0-0.478,0.154-0.882,0.46-1.193c0.295-0.308,0.679-0.464,1.136-0.464
		C146.933,79.377,147.479,79.657,148.018,80.223"/>
</g>
</svg>
